<svg width="23" height="23" viewBox="0 0 23 23" fill="none" xmlns="http://www.w3.org/2000/svg">
<circle cx="11.5" cy="11.5" r="11" fill="white" stroke="#CCCCCC"/>
<path d="M11.0962 11.0001H8.40385C8.18005 11.0001 8 11.223 8 11.5001C8 11.7771 8.18005 12 8.40385 12H11.0962C11.7333 12 11.7333 12 11.9038 12H14.5962C14.82 12 15 11.7771 15 11.5001C15 11.223 14.82 11.0001 14.5962 11.0001H11.9038C11.5 11.0004 11.7333 10.9997 11.0962 11.0001Z" fill="#666666"/>
<path d="M11.9999 11.0962L11.9999 8.40385C11.9999 8.18005 11.777 8 11.4999 8C11.2229 8 11 8.18005 11 8.40385L11 11.0962C11 11.7333 11 11.7333 11 11.9038L11 14.5962C11 14.82 11.2229 15 11.4999 15C11.777 15 11.9999 14.82 11.9999 14.5962L11.9999 11.9038C11.9996 11.5 12.0003 11.7333 11.9999 11.0962Z" fill="#666666"/>
</svg>
