<svg width="16" height="20" viewBox="0 0 16 20" fill="none" xmlns="http://www.w3.org/2000/svg">
<g clip-path="url(#clip0_2064_19531)">
<path d="M2.66667 0C1.19583 0 0 1.12109 0 2.5V17.5C0 18.8789 1.19583 20 2.66667 20H13.3333C14.8042 20 16 18.8789 16 17.5V2.5C16 1.12109 14.8042 0 13.3333 0H2.66667ZM4 2.5H12C12.7375 2.5 13.3333 3.05859 13.3333 3.75V5C13.3333 5.69141 12.7375 6.25 12 6.25H4C3.2625 6.25 2.66667 5.69141 2.66667 5V3.75C2.66667 3.05859 3.2625 2.5 4 2.5ZM5.33333 8.75C5.33333 9.08152 5.19286 9.39946 4.94281 9.63388C4.69276 9.8683 4.35362 10 4 10C3.64638 10 3.30724 9.8683 3.05719 9.63388C2.80714 9.39946 2.66667 9.08152 2.66667 8.75C2.66667 8.41848 2.80714 8.10054 3.05719 7.86612C3.30724 7.6317 3.64638 7.5 4 7.5C4.35362 7.5 4.69276 7.6317 4.94281 7.86612C5.19286 8.10054 5.33333 8.41848 5.33333 8.75ZM4 13.75C3.64638 13.75 3.30724 13.6183 3.05719 13.3839C2.80714 13.1495 2.66667 12.8315 2.66667 12.5C2.66667 12.1685 2.80714 11.8505 3.05719 11.6161C3.30724 11.3817 3.64638 11.25 4 11.25C4.35362 11.25 4.69276 11.3817 4.94281 11.6161C5.19286 11.8505 5.33333 12.1685 5.33333 12.5C5.33333 12.8315 5.19286 13.1495 4.94281 13.3839C4.69276 13.6183 4.35362 13.75 4 13.75ZM2.66667 16.25C2.66667 15.5586 3.2625 15 4 15H8C8.7375 15 9.33333 15.5586 9.33333 16.25C9.33333 16.9414 8.7375 17.5 8 17.5H4C3.2625 17.5 2.66667 16.9414 2.66667 16.25ZM8 10C7.64638 10 7.30724 9.8683 7.05719 9.63388C6.80714 9.39946 6.66667 9.08152 6.66667 8.75C6.66667 8.41848 6.80714 8.10054 7.05719 7.86612C7.30724 7.6317 7.64638 7.5 8 7.5C8.35362 7.5 8.69276 7.6317 8.94281 7.86612C9.19286 8.10054 9.33333 8.41848 9.33333 8.75C9.33333 9.08152 9.19286 9.39946 8.94281 9.63388C8.69276 9.8683 8.35362 10 8 10ZM9.33333 12.5C9.33333 12.8315 9.19286 13.1495 8.94281 13.3839C8.69276 13.6183 8.35362 13.75 8 13.75C7.64638 13.75 7.30724 13.6183 7.05719 13.3839C6.80714 13.1495 6.66667 12.8315 6.66667 12.5C6.66667 12.1685 6.80714 11.8505 7.05719 11.6161C7.30724 11.3817 7.64638 11.25 8 11.25C8.35362 11.25 8.69276 11.3817 8.94281 11.6161C9.19286 11.8505 9.33333 12.1685 9.33333 12.5ZM12 10C11.6464 10 11.3072 9.8683 11.0572 9.63388C10.8071 9.39946 10.6667 9.08152 10.6667 8.75C10.6667 8.41848 10.8071 8.10054 11.0572 7.86612C11.3072 7.6317 11.6464 7.5 12 7.5C12.3536 7.5 12.6928 7.6317 12.9428 7.86612C13.1929 8.10054 13.3333 8.41848 13.3333 8.75C13.3333 9.08152 13.1929 9.39946 12.9428 9.63388C12.6928 9.8683 12.3536 10 12 10ZM13.3333 12.5C13.3333 12.8315 13.1929 13.1495 12.9428 13.3839C12.6928 13.6183 12.3536 13.75 12 13.75C11.6464 13.75 11.3072 13.6183 11.0572 13.3839C10.8071 13.1495 10.6667 12.8315 10.6667 12.5C10.6667 12.1685 10.8071 11.8505 11.0572 11.6161C11.3072 11.3817 11.6464 11.25 12 11.25C12.3536 11.25 12.6928 11.3817 12.9428 11.6161C13.1929 11.8505 13.3333 12.1685 13.3333 12.5ZM12 17.5C11.6464 17.5 11.3072 17.3683 11.0572 17.1339C10.8071 16.8995 10.6667 16.5815 10.6667 16.25C10.6667 15.9185 10.8071 15.6005 11.0572 15.3661C11.3072 15.1317 11.6464 15 12 15C12.3536 15 12.6928 15.1317 12.9428 15.3661C13.1929 15.6005 13.3333 15.9185 13.3333 16.25C13.3333 16.5815 13.1929 16.8995 12.9428 17.1339C12.6928 17.3683 12.3536 17.5 12 17.5Z" fill="#00BFFF"/>
</g>
<defs>
<clipPath id="clip0_2064_19531">
<rect width="16" height="20" fill="white"/>
</clipPath>
</defs>
</svg>
