<svg width="140" height="118" viewBox="0 0 140 118" fill="none" xmlns="http://www.w3.org/2000/svg">
<rect x="0.759766" y="0.25" width="138.755" height="117.053" rx="9.75" fill="white" stroke="#CCCCCC" stroke-width="0.5"/>
<g clip-path="url(#clip0_56_16)">
<path d="M71.3754 66.9156C62.047 66.9156 52.7167 66.9196 43.3883 66.9056C42.9155 66.9056 42.4138 66.8535 41.9777 66.6832C40.7851 66.2203 40.1251 64.9601 40.3355 63.6177C40.5342 62.3514 40.7581 61.0892 41.0032 59.833C41.2714 58.4565 42.3192 57.5729 43.6739 57.5469C44.2027 57.5369 44.7353 57.5248 45.264 57.5509C45.623 57.5689 45.8159 57.4487 45.9375 57.0841C46.227 56.2005 46.5512 55.3289 46.8715 54.4574C47.3694 53.101 48.2764 52.4538 49.6696 52.4438C50.502 52.4384 50.9182 51.995 50.9182 51.1134C50.9182 50.8129 50.9047 50.5123 50.9201 50.2138C50.9394 49.8632 50.7908 49.749 50.4647 49.753C49.3724 49.765 48.2802 49.755 47.1899 49.757C46.7962 49.757 46.4605 49.6408 46.2482 49.2701C45.8873 48.639 46.2714 47.8456 46.9815 47.7895C47.4118 47.7554 47.848 47.7775 48.2821 47.7775C51.1401 47.7775 53.998 47.7674 56.856 47.7875C57.2805 47.7895 57.516 47.6412 57.7398 47.2726C63.2377 38.3006 68.7471 29.3366 74.2623 20.3786C74.4977 19.9979 74.6289 19.6233 74.6077 19.1664C74.5788 18.5513 74.5923 17.9322 74.6038 17.3171C74.6174 16.678 74.9782 16.2873 75.5398 16.2773C76.0975 16.2673 76.4718 16.656 76.5085 17.2871C76.5162 17.4193 76.5124 17.5536 76.5124 17.6878C76.5104 27.5213 76.5085 37.3569 76.5066 47.1904C76.5066 48.7412 76.522 50.2899 76.5066 51.8407C76.5027 52.2755 76.5953 52.5019 77.0643 52.4478C78.3244 52.3055 79.3163 52.8004 80.2001 53.7361C81.3329 54.9382 82.5467 56.0602 83.7508 57.1862C83.9631 57.3846 84.3047 57.5329 84.5883 57.5349C87.6547 57.5569 90.7211 57.5549 93.7894 57.5349C94.6906 57.5288 95.4412 57.8234 96.0973 58.4665C97.7203 60.0554 99.3625 61.6242 101.001 63.199C101.742 63.9122 101.971 64.7577 101.645 65.6293C101.339 66.4508 100.621 66.9116 99.6075 66.9116C90.1981 66.9136 80.7887 66.9116 71.3792 66.9116L71.3754 66.9156ZM99.814 64.882C99.6847 64.7157 99.6288 64.6195 99.5516 64.5474C97.9538 63.0026 96.3656 61.4458 94.7427 59.9291C94.4976 59.6987 94.0885 59.5485 93.7546 59.5464C90.1904 59.5164 86.6242 59.5224 83.06 59.5224C71.4661 59.5224 59.8722 59.5224 48.2783 59.5224C46.802 59.5224 45.3238 59.5304 43.8476 59.5284C43.3806 59.5284 43.0004 59.6927 42.9001 60.1956C42.655 61.4358 42.4312 62.682 42.2324 63.9303C42.1436 64.4832 42.4736 64.8659 43.0101 64.914C43.2166 64.932 43.4269 64.92 43.6353 64.92C55.7425 64.92 67.8497 64.92 79.9589 64.92C86.3328 64.92 92.7087 64.92 99.0827 64.92C99.2969 64.92 99.5111 64.898 99.8121 64.88L99.814 64.882ZM74.573 23.8147C74.5324 23.8007 74.4919 23.7847 74.4514 23.7707C69.5614 31.7288 64.6734 39.687 59.7004 47.7795C60.235 47.7795 60.6132 47.7935 60.9895 47.7775C62.1609 47.7274 63.0273 48.2383 63.6333 49.2681C64.1697 50.1777 64.7371 51.0673 65.262 51.983C65.4588 52.3256 65.6846 52.4578 66.0705 52.4558C68.7027 52.4398 71.3349 52.4478 73.967 52.4458C74.5923 52.4458 74.5942 52.4438 74.5942 51.7766C74.5942 42.6303 74.5942 33.482 74.5942 24.3357C74.5942 24.1613 74.5788 23.989 74.571 23.8147H74.573ZM47.8344 57.4868H81.2036C80.2966 56.5992 79.4745 55.8318 78.6949 55.0204C78.2761 54.5836 77.8227 54.4253 77.2341 54.4253C69.2855 54.4393 61.3369 54.4333 53.3882 54.4313C52.1686 54.4313 50.9471 54.4353 49.7275 54.4353C49.3416 54.4353 48.9537 54.4854 48.7877 54.8982C48.4578 55.7236 48.1683 56.5691 47.8344 57.4848V57.4868ZM63.2627 52.4137C62.7301 51.5502 62.2863 50.7848 61.7884 50.0575C61.6726 49.8892 61.3735 49.775 61.1593 49.775C58.5117 49.755 55.8622 49.765 53.2146 49.759C52.9212 49.759 52.819 49.8832 52.8248 50.1797C52.8383 50.7127 52.8286 51.2456 52.8286 51.7786C52.8286 52.4498 52.8286 52.4538 53.4558 52.4538C56.5222 52.4538 59.5866 52.4498 62.6529 52.4458C62.8093 52.4458 62.9675 52.4318 63.2647 52.4157L63.2627 52.4137Z" fill="#666666"/>
<path d="M99.816 64.882C99.5169 64.898 99.3007 64.922 99.0865 64.922C92.7126 64.922 86.3367 64.922 79.9628 64.922C67.8556 64.922 55.7483 64.922 43.6392 64.922C43.4308 64.922 43.2204 64.9341 43.014 64.916C42.4775 64.8679 42.1475 64.4833 42.2363 63.9323C42.437 62.6841 42.6608 61.4378 42.904 60.1976C43.0024 59.6947 43.3845 59.5304 43.8515 59.5304C45.3277 59.5304 46.8059 59.5244 48.2822 59.5244C59.8761 59.5244 71.47 59.5244 83.0639 59.5244C86.6281 59.5244 90.1943 59.5184 93.7585 59.5485C94.0924 59.5505 94.5015 59.7007 94.7465 59.9311C96.3694 61.4478 97.9576 63.0046 99.5555 64.5494C99.6307 64.6235 99.6886 64.7177 99.8179 64.884L99.816 64.882Z" fill="#00BFFF"/>
<path d="M47.8345 57.4868C48.1702 56.5712 48.4578 55.7257 48.7877 54.9002C48.9518 54.4875 49.3397 54.4374 49.7275 54.4374C50.9471 54.4374 52.1687 54.4334 53.3883 54.4334C61.3369 54.4334 69.2855 54.4394 77.2341 54.4274C77.8207 54.4274 78.2762 54.5857 78.6949 55.0224C79.4726 55.8339 80.2947 56.6012 81.2036 57.4888H47.8345V57.4868Z" fill="white"/>
<path d="M63.2647 52.4138C62.9675 52.4278 62.8112 52.4419 62.653 52.4439C59.5866 52.4479 56.5222 52.4519 53.4558 52.4519C52.8286 52.4519 52.8286 52.4479 52.8286 51.7767C52.8286 51.2437 52.8383 50.7108 52.8248 50.1778C52.817 49.8833 52.9213 49.7571 53.2146 49.7571C55.8622 49.7631 58.5117 49.7551 61.1593 49.7731C61.3755 49.7731 61.6726 49.8873 61.7884 50.0556C62.2863 50.7829 62.7321 51.5483 63.2628 52.4118L63.2647 52.4138Z" fill="#80CEF4"/>
</g>
<path d="M48.3552 91.8839C47.5707 91.8839 46.9506 92.146 46.4949 92.67C46.0424 93.1909 45.8161 93.9054 45.8161 94.8136C45.8161 95.7478 46.0342 96.4705 46.4704 96.9816C46.9099 97.4894 47.5349 97.7433 48.3454 97.7433C48.8435 97.7433 49.4115 97.6538 50.0495 97.4747V98.2023C49.5547 98.3878 48.9444 98.4806 48.2185 98.4806C47.1671 98.4806 46.3549 98.1616 45.782 97.5236C45.2123 96.8855 44.9275 95.979 44.9275 94.8038C44.9275 94.0682 45.0642 93.4236 45.3376 92.8702C45.6143 92.3169 46.0115 91.8904 46.529 91.5909C47.0499 91.2915 47.6618 91.1417 48.365 91.1417C49.1137 91.1417 49.768 91.2784 50.3279 91.5519L49.9763 92.2648C49.4359 92.0109 48.8956 91.8839 48.3552 91.8839ZM54.7761 98.3829L54.615 97.6212H54.5759C54.309 97.9565 54.0421 98.1844 53.7751 98.3048C53.5115 98.422 53.181 98.4806 52.7839 98.4806C52.2533 98.4806 51.8366 98.3439 51.5339 98.0704C51.2344 97.797 51.0847 97.408 51.0847 96.9034C51.0847 95.8227 51.949 95.2563 53.6775 95.2042L54.5857 95.1749V94.8429C54.5857 94.423 54.4945 94.1137 54.3122 93.9152C54.1332 93.7133 53.8451 93.6124 53.448 93.6124C53.002 93.6124 52.4975 93.7491 51.9343 94.0226L51.6853 93.4025C51.949 93.2592 52.237 93.1469 52.5495 93.0656C52.8653 92.9842 53.181 92.9435 53.4968 92.9435C54.1348 92.9435 54.6068 93.0851 54.9128 93.3683C55.2221 93.6515 55.3767 94.1056 55.3767 94.7306V98.3829H54.7761ZM52.945 97.8116C53.4496 97.8116 53.8451 97.6733 54.1316 97.3966C54.4213 97.1199 54.5661 96.7325 54.5661 96.2345V95.7511L53.7556 95.7853C53.1111 95.8081 52.6456 95.909 52.3591 96.088C52.0759 96.2638 51.9343 96.5389 51.9343 96.9132C51.9343 97.2062 52.0222 97.4292 52.198 97.5822C52.377 97.7351 52.626 97.8116 52.945 97.8116ZM58.78 97.8116C58.9232 97.8116 59.0616 97.8019 59.195 97.7823C59.3285 97.7596 59.4343 97.7368 59.5124 97.714V98.3341C59.4245 98.3764 59.2943 98.4106 59.1218 98.4366C58.9525 98.4659 58.7995 98.4806 58.6628 98.4806C57.6277 98.4806 57.1101 97.9353 57.1101 96.8448V93.6613H56.3435V93.2706L57.1101 92.9337L57.4519 91.7911H57.9206V93.0314H59.4734V93.6613H57.9206V96.8107C57.9206 97.1329 57.9971 97.3803 58.1501 97.5529C58.3031 97.7254 58.5131 97.8116 58.78 97.8116ZM63.8777 98.3829L63.7165 97.6212H63.6775C63.4105 97.9565 63.1436 98.1844 62.8767 98.3048C62.613 98.422 62.2826 98.4806 61.8855 98.4806C61.3549 98.4806 60.9382 98.3439 60.6355 98.0704C60.336 97.797 60.1863 97.408 60.1863 96.9034C60.1863 95.8227 61.0505 95.2563 62.779 95.2042L63.6872 95.1749V94.8429C63.6872 94.423 63.5961 94.1137 63.4138 93.9152C63.2348 93.7133 62.9467 93.6124 62.5495 93.6124C62.1036 93.6124 61.599 93.7491 61.0359 94.0226L60.7868 93.4025C61.0505 93.2592 61.3386 93.1469 61.6511 93.0656C61.9669 92.9842 62.2826 92.9435 62.5984 92.9435C63.2364 92.9435 63.7084 93.0851 64.0144 93.3683C64.3236 93.6515 64.4782 94.1056 64.4782 94.7306V98.3829H63.8777ZM62.0466 97.8116C62.5512 97.8116 62.9467 97.6733 63.2331 97.3966C63.5228 97.1199 63.6677 96.7325 63.6677 96.2345V95.7511L62.8572 95.7853C62.2126 95.8081 61.7471 95.909 61.4607 96.088C61.1775 96.2638 61.0359 96.5389 61.0359 96.9132C61.0359 97.2062 61.1238 97.4292 61.2995 97.5822C61.4786 97.7351 61.7276 97.8116 62.0466 97.8116ZM72.9743 98.3829V94.9015C72.9743 94.4751 72.8832 94.156 72.7009 93.9445C72.5186 93.7296 72.2354 93.6222 71.8513 93.6222C71.3467 93.6222 70.974 93.767 70.7331 94.0568C70.4922 94.3465 70.3718 94.7924 70.3718 95.3947V98.3829H69.5613V94.9015C69.5613 94.4751 69.4701 94.156 69.2878 93.9445C69.1055 93.7296 68.8207 93.6222 68.4333 93.6222C67.9255 93.6222 67.5528 93.7752 67.3152 94.0812C67.0808 94.3839 66.9636 94.882 66.9636 95.5753V98.3829H66.1531V93.0314H66.8122L66.9441 93.7638H66.9831C67.1361 93.5034 67.351 93.2999 67.6277 93.1534C67.9076 93.007 68.2201 92.9337 68.5652 92.9337C69.4018 92.9337 69.9486 93.2365 70.2058 93.8419H70.2449C70.4044 93.562 70.6355 93.3406 70.9382 93.1779C71.2409 93.0151 71.586 92.9337 71.9734 92.9337C72.5788 92.9337 73.0313 93.09 73.3308 93.4025C73.6335 93.7117 73.7849 94.2081 73.7849 94.8917V98.3829H72.9743ZM78.7507 98.3829L78.5896 97.6212H78.5505C78.2836 97.9565 78.0167 98.1844 77.7497 98.3048C77.4861 98.422 77.1557 98.4806 76.7585 98.4806C76.2279 98.4806 75.8113 98.3439 75.5085 98.0704C75.209 97.797 75.0593 97.408 75.0593 96.9034C75.0593 95.8227 75.9236 95.2563 77.6521 95.2042L78.5603 95.1749V94.8429C78.5603 94.423 78.4691 94.1137 78.2868 93.9152C78.1078 93.7133 77.8197 93.6124 77.4226 93.6124C76.9766 93.6124 76.4721 93.7491 75.9089 94.0226L75.6599 93.4025C75.9236 93.2592 76.2116 93.1469 76.5241 93.0656C76.8399 92.9842 77.1557 92.9435 77.4714 92.9435C78.1094 92.9435 78.5814 93.0851 78.8874 93.3683C79.1967 93.6515 79.3513 94.1056 79.3513 94.7306V98.3829H78.7507ZM76.9197 97.8116C77.4242 97.8116 77.8197 97.6733 78.1062 97.3966C78.3959 97.1199 78.5407 96.7325 78.5407 96.2345V95.7511L77.7302 95.7853C77.0857 95.8081 76.6202 95.909 76.3337 96.088C76.0505 96.2638 75.9089 96.5389 75.9089 96.9132C75.9089 97.2062 75.9968 97.4292 76.1726 97.5822C76.3516 97.7351 76.6006 97.8116 76.9197 97.8116ZM83.4675 92.9337C83.7051 92.9337 83.9184 92.9532 84.1072 92.9923L83.9949 93.7443C83.7735 93.6954 83.5782 93.671 83.4089 93.671C82.976 93.671 82.6049 93.8468 82.2956 94.1984C81.9896 94.5499 81.8366 94.9878 81.8366 95.5118V98.3829H81.0261V93.0314H81.695L81.7878 94.0226H81.8269C82.0254 93.6743 82.2647 93.4057 82.5447 93.2169C82.8246 93.0281 83.1322 92.9337 83.4675 92.9337ZM88.3991 98.3829L88.238 97.6212H88.199C87.932 97.9565 87.6651 98.1844 87.3982 98.3048C87.1345 98.422 86.8041 98.4806 86.407 98.4806C85.8764 98.4806 85.4597 98.3439 85.157 98.0704C84.8575 97.797 84.7077 97.408 84.7077 96.9034C84.7077 95.8227 85.572 95.2563 87.3005 95.2042L88.2087 95.1749V94.8429C88.2087 94.423 88.1176 94.1137 87.9353 93.9152C87.7562 93.7133 87.4682 93.6124 87.071 93.6124C86.6251 93.6124 86.1205 93.7491 85.5574 94.0226L85.3083 93.4025C85.572 93.2592 85.8601 93.1469 86.1726 93.0656C86.4883 92.9842 86.8041 92.9435 87.1199 92.9435C87.7579 92.9435 88.2299 93.0851 88.5359 93.3683C88.8451 93.6515 88.9997 94.1056 88.9997 94.7306V98.3829H88.3991ZM86.5681 97.8116C87.0726 97.8116 87.4682 97.6733 87.7546 97.3966C88.0443 97.1199 88.1892 96.7325 88.1892 96.2345V95.7511L87.3786 95.7853C86.7341 95.8081 86.2686 95.909 85.9822 96.088C85.699 96.2638 85.5574 96.5389 85.5574 96.9132C85.5574 97.2062 85.6452 97.4292 85.821 97.5822C86.0001 97.7351 86.2491 97.8116 86.5681 97.8116ZM94.3366 98.3829V94.921C94.3366 94.4848 94.2374 94.1593 94.0388 93.9445C93.8402 93.7296 93.5294 93.6222 93.1062 93.6222C92.5463 93.6222 92.1361 93.7736 91.8757 94.0763C91.6153 94.379 91.4851 94.8787 91.4851 95.5753V98.3829H90.6745V93.0314H91.3337L91.4656 93.7638H91.5046C91.6706 93.5001 91.9034 93.2967 92.2029 93.1534C92.5023 93.007 92.836 92.9337 93.2038 92.9337C93.8484 92.9337 94.3334 93.09 94.6589 93.4025C94.9844 93.7117 95.1472 94.2081 95.1472 94.8917V98.3829H94.3366Z" fill="#333333"/>
<defs>
<clipPath id="clip0_56_16">
<rect width="61.4894" height="50.6383" fill="white" transform="translate(40.2969 16.2773)"/>
</clipPath>
</defs>
</svg>
