<svg width="10" height="6" viewBox="0 0 10 6" fill="none" xmlns="http://www.w3.org/2000/svg">
<path d="M9.14011 1.11899C9.45022 1.11899 9.69971 0.869549 9.69971 0.559498C9.69971 0.249446 9.45022 6.42863e-06 9.14011 6.41508e-06L5.40943 6.25201e-06C4.84983 -5.93131e-05 5.49951 0.000406476 4.29023 6.20308e-06L0.559555 6.04001e-06C0.249443 6.02645e-06 -4.67409e-05 0.249445 -4.67545e-05 0.559497C-4.67681e-05 0.869549 0.249443 1.11899 0.559555 1.11899L4.29023 1.11899C4.49951 1.11899 4.49951 1.11899 5.40943 1.11899L9.14011 1.11899Z" fill="#666666"/>
<path d="M9.14011 5.82114C9.45022 5.82114 9.69971 5.5717 9.69971 5.26165C9.69971 4.95159 9.45022 4.70215 9.14011 4.70215L5.40943 4.70215C4.84983 4.70209 5.49951 4.70255 4.29023 4.70215L0.559555 4.70215C0.249443 4.70215 -4.67409e-05 4.95159 -4.67545e-05 5.26165C-4.67681e-05 5.5717 0.249443 5.82114 0.559555 5.82114L4.29023 5.82114C4.49951 5.82114 4.49951 5.82114 5.40943 5.82114L9.14011 5.82114Z" fill="#666666"/>
</svg>
