<svg width="66" height="59" viewBox="0 0 66 59" fill="none" xmlns="http://www.w3.org/2000/svg">
<path d="M44.763 23.6139C48.47 23.6139 51.484 20.5999 51.484 16.8929C51.484 13.1859 48.47 10.1719 44.763 10.1719C41.056 10.1719 38.042 13.1859 38.042 16.8929C38.042 20.5999 41.056 23.6139 44.763 23.6139ZM44.763 13.8385C46.446 13.8385 47.8173 15.2099 47.8173 16.8929C47.8173 18.5759 46.446 19.9472 44.763 19.9472C43.08 19.9472 41.7087 18.5795 41.7087 16.8929C41.7087 15.2062 43.08 13.8385 44.763 13.8385Z" fill="#A5A6A7"/>
<path d="M57.684 0H7.46533V0.00366684C3.531 0.150334 0 4.01867 0 8.25733V51.678C0 55.88 3.718 58.4577 7.46533 58.652L59.9133 58.663C62.1867 58.663 66 57.7573 66 51.678V8.261C66 4.092 61.8823 0 57.684 0ZM7.69267 3.66667H57.684C59.8583 3.66667 62.3333 6.11233 62.3333 8.25733V40.4213L49.9437 30.184L40.3517 38.302L29.777 26.7887L14.74 37.2497C9.251 41.0703 5.808 43.472 3.663 45.067V8.261C3.66667 5.984 5.698 3.66667 7.69267 3.66667ZM59.9133 55H7.92367C5.85933 55 3.66667 53.8377 3.66667 51.6817V49.027C3.74367 48.983 3.80233 48.9683 3.883 48.9207L3.85733 48.895C5.808 47.4833 19.3307 38.0637 29.194 31.2107L40.007 42.988L49.973 34.551L62.3333 44.759V51.6817C62.3333 54.7507 61.237 55 59.9133 55Z" fill="#A5A6A7"/>
</svg>
