<svg width="140" height="118" viewBox="0 0 140 118" fill="none" xmlns="http://www.w3.org/2000/svg">
<rect x="0.504883" y="0.25" width="138.755" height="117.053" rx="9.75" fill="white" stroke="#CCCCCC" stroke-width="0.5"/>
<g clip-path="url(#clip0_56_24)">
<path d="M40.6489 53.3882C41.4882 53.3882 42.3274 53.3882 43.1639 53.3882C43.7579 53.3882 44.3519 53.3738 44.9487 53.3738C48.2511 53.3786 51.5564 53.3858 54.8588 53.3931C56.0659 53.3931 57.2703 53.3931 58.4774 53.3931C58.9597 53.3931 59.4393 53.3738 59.9215 53.3762C60.1586 53.3762 60.3384 53.2894 60.521 53.1665C60.8017 52.9784 61.1041 52.8097 61.3929 52.6313C61.6682 52.4601 61.9406 52.2817 62.2158 52.1106C62.3821 52.0069 62.551 51.9105 62.7199 51.8116C63.006 51.6429 63.2949 51.479 63.5783 51.3054C63.8262 51.1535 64.0687 50.9896 64.3139 50.8353C64.3957 50.7823 64.4829 50.7389 64.5674 50.6883C64.6546 50.6352 64.7417 50.5798 64.8289 50.5267C64.9243 50.4689 65.0251 50.411 65.1205 50.3508C65.2458 50.2736 65.3657 50.1892 65.4911 50.1145C65.7527 49.9578 66.0197 49.8108 66.2785 49.6517C66.5646 49.4757 66.8399 49.2876 67.1232 49.1092C67.2867 49.0056 67.4529 48.9019 67.6219 48.8031C67.8944 48.644 68.175 48.4969 68.4448 48.333C68.7309 48.1594 69.0061 47.969 69.2895 47.793C69.5374 47.6387 69.7963 47.4965 70.0442 47.3422C70.3222 47.171 70.5892 46.9902 70.8671 46.8215C71.1178 46.6696 71.374 46.5274 71.6301 46.3827C71.6819 46.3538 71.7391 46.3321 71.7908 46.3008C72.1315 46.091 72.4721 45.8789 72.8127 45.6668C73.0497 45.5173 73.284 45.3606 73.5238 45.2135C73.8072 45.04 74.0933 44.876 74.3794 44.7049C74.5402 44.6085 74.701 44.5048 74.859 44.4035C75.1478 44.2203 75.423 44.0251 75.7255 43.8611C76.1206 43.6442 76.4694 43.3549 76.9271 43.2271C76.9844 43.2102 77.0498 43.2102 77.1124 43.2102C78.2732 43.2102 79.4367 43.2199 80.5975 43.2127C80.9135 43.2127 81.1887 43.1331 81.4149 42.8896C81.6928 42.5907 82.0362 42.34 82.3495 42.0676C82.513 41.9253 82.671 41.7759 82.8318 41.6288C83.0171 41.4625 83.2051 41.2986 83.3931 41.1322C83.592 40.9562 83.7882 40.7778 83.9899 40.6043C84.2705 40.3608 84.5539 40.1173 84.8455 39.8835C84.8999 39.8401 85.0008 39.8208 85.0825 39.8208C85.7228 39.8063 86.3605 39.7991 87.0008 39.7919C87.1888 39.7919 87.2733 39.8762 87.2869 40.0426C87.3114 40.3873 87.1616 40.7007 87.0526 41.0213C87.0417 41.0551 87.0199 41.0864 87.0144 41.1202C86.9272 41.6819 86.7092 42.217 86.5485 42.7619C86.4667 43.0415 86.6275 43.2102 86.9545 43.2102C89.4368 43.2102 91.9191 43.2102 94.4014 43.2102C94.5022 43.2102 94.6058 43.2054 94.7066 43.2151C94.99 43.2416 95.0908 43.3236 95.0962 43.5767C95.1044 43.9455 95.0908 44.3168 95.088 44.6856C95.088 44.8206 95.088 44.9556 95.0962 45.0906C95.1098 45.3003 95.0417 45.3823 94.8101 45.3968C94.603 45.4088 94.3932 45.4088 94.1834 45.4088C93.366 45.4088 92.5512 45.4088 91.7338 45.4088C91.4613 45.4088 91.3796 45.4594 91.3223 45.6957C91.2896 45.8379 91.2651 45.9826 91.2651 46.1272C91.2597 46.8769 91.2597 47.6267 91.2651 48.3764C91.2651 48.4584 91.2787 48.55 91.3169 48.6223C91.4095 48.8055 91.5594 48.9043 91.8101 48.8947C92.336 48.873 92.8619 48.873 93.3878 48.8609C93.5703 48.8561 93.8074 49.0514 93.8074 49.2274C93.8074 49.6034 93.7938 49.9771 93.791 50.3532C93.791 50.4568 93.8019 50.5629 93.8074 50.6666C93.821 50.9149 93.6303 51.0812 93.3523 51.0764C92.8264 51.0667 92.3006 51.0595 91.7747 51.0547C91.4749 51.0523 91.3932 51.1029 91.3142 51.3584C91.2815 51.4621 91.2651 51.5754 91.2651 51.6839C91.2678 52.6506 91.2788 53.6173 91.2842 54.584C91.2842 54.8395 91.276 55.0926 91.2869 55.3481C91.2978 55.5579 91.415 55.6495 91.6575 55.6519C91.9463 55.6543 92.2352 55.6519 92.524 55.6519C93.9354 55.6519 95.3469 55.6471 96.7584 55.6519C97.0744 55.6519 97.2488 55.8448 97.3878 56.0689C97.4477 56.163 97.5213 56.2522 97.5867 56.3438C97.633 56.4064 97.6793 56.4691 97.7229 56.5318C97.8238 56.674 97.9246 56.8187 98.0254 56.9609C98.1398 57.12 98.257 57.2791 98.3687 57.4382C98.5458 57.6962 98.7148 57.9614 98.8973 58.2193C99.0826 58.4821 99.2761 58.7352 99.4668 58.9955C99.5213 59.0703 99.5676 59.1522 99.6221 59.227C99.832 59.5138 100.044 59.8007 100.254 60.0876C100.262 60.0996 100.276 60.1117 100.284 60.1238C100.459 60.3962 100.628 60.671 100.813 60.9386C100.987 61.1917 101.181 61.4376 101.366 61.6859C101.391 61.7196 101.426 61.751 101.437 61.7871C101.516 62.0379 101.698 62.2162 101.93 62.3609C101.993 62.3995 102.069 62.438 102.14 62.4429C102.371 62.4597 102.603 62.4694 102.835 62.4645C103.396 62.4525 103.955 62.4236 104.516 62.4212C104.66 62.4212 104.813 62.4718 104.944 62.532C105.075 62.5923 105.121 62.7056 105.11 62.8503C105.094 63.0793 105.11 63.3083 105.121 63.5397C105.132 63.8049 105.145 64.0677 105.156 64.3328C105.162 64.4486 105.069 64.4944 104.963 64.5353C104.734 64.6221 104.5 64.6149 104.263 64.586C104.08 64.5643 103.897 64.557 103.745 64.6703C103.712 64.6944 103.66 64.7354 103.666 64.7571C103.709 64.9307 103.693 65.1163 103.846 65.2634C103.946 65.3598 104.023 65.4803 104.107 65.5888C104.181 65.6828 104.254 65.7769 104.331 65.8709C104.342 65.8829 104.355 65.8926 104.366 65.9046C104.532 66.136 104.704 66.3627 104.859 66.5965C104.946 66.7267 104.857 66.8737 104.688 66.9027C104.617 66.9147 104.54 66.9123 104.467 66.9123C103.459 66.9051 102.451 66.8954 101.442 66.893C100.35 66.8906 99.257 66.8906 98.1644 66.893C97.5077 66.893 96.851 66.9099 96.1916 66.9099C89.5103 66.9123 82.8291 66.9147 76.1478 66.9147C67.4993 66.9147 58.8507 66.9147 50.2021 66.9099C49.6653 66.9099 49.1258 66.8858 48.5918 66.8496C48.4255 66.8376 48.262 66.7508 48.1013 66.6929C47.946 66.6375 47.7934 66.5748 47.6381 66.5169C47.6163 66.5097 47.5917 66.5097 47.5727 66.5001C47.2157 66.341 46.8615 66.1843 46.5073 66.0227C46.4718 66.0059 46.4446 65.9769 46.4119 65.9625C46.0767 65.8106 45.7416 65.6587 45.4064 65.5093C45.3765 65.4948 45.341 65.4876 45.3138 65.4707C45.0304 65.3092 44.7498 65.1452 44.4664 64.9837C44.401 64.9452 44.3247 64.9235 44.2566 64.8849C44.1203 64.8078 43.9868 64.7258 43.8533 64.6462C43.8288 64.6318 43.8124 64.6101 43.7879 64.598C43.5345 64.4582 43.2811 64.3184 43.0304 64.1786C42.9923 64.1569 42.9514 64.14 42.916 64.1135C42.7034 63.952 42.4991 63.7832 42.2811 63.6289C42.0658 63.477 41.8342 63.342 41.6162 63.1926C41.3519 63.0118 41.0958 62.8237 40.8396 62.6381C40.6353 62.4911 40.4282 62.3464 40.2402 62.1849C40.0603 62.033 39.8996 61.8619 39.7306 61.6979C39.5835 61.5557 39.4309 61.4159 39.2865 61.2712C39.0658 61.0543 38.8505 60.8349 38.6325 60.6131C38.4118 60.3865 38.1857 60.1623 37.9731 59.9309C37.796 59.7356 37.6298 59.5283 37.4663 59.3234C37.2592 59.0679 37.0521 58.8147 36.8587 58.552C36.6952 58.3254 36.5453 58.0915 36.4036 57.8529C36.1802 57.4744 35.9677 57.0911 35.7524 56.7078C35.7115 56.6331 35.6925 56.5463 35.657 56.4667C35.5753 56.2859 35.4908 56.1075 35.4064 55.9267C35.3791 55.8664 35.3273 55.811 35.3164 55.7483C35.232 55.2059 34.8614 54.731 34.8287 54.1741C34.8232 54.0898 34.7524 54.0102 34.7143 53.9282C34.6897 53.8776 34.6516 53.8294 34.6461 53.7788C34.5971 53.4316 34.657 53.3714 35.0876 53.369C35.687 53.3641 36.2892 53.369 36.8887 53.369C38.1475 53.369 39.4064 53.369 40.6625 53.369C40.6625 53.3738 40.6625 53.3786 40.6625 53.3834L40.6489 53.3882ZM54.6899 64.7234C56.6054 64.7234 58.521 64.7234 60.4338 64.7234C64.4284 64.7234 68.4257 64.7234 72.4203 64.7234C73.6792 64.7234 74.9353 64.7113 76.1942 64.7089C76.8726 64.7089 77.5538 64.7234 78.2323 64.7234C82.9926 64.7234 87.7528 64.7161 92.5131 64.7137C93.6739 64.7137 94.8346 64.721 95.9954 64.7234C96.3851 64.7234 96.7774 64.7089 97.1671 64.7065C98.1071 64.7017 99.0472 64.6993 99.9873 64.6944C100.025 64.6944 100.08 64.6944 100.102 64.6776C100.186 64.6028 100.276 64.5257 100.331 64.4341C100.347 64.4076 100.254 64.3328 100.211 64.2774C100.151 64.2003 100.091 64.1207 100.036 64.0411C99.9655 63.9399 99.9001 63.8362 99.8292 63.735C99.6548 63.4867 99.4777 63.2384 99.3033 62.9901C99.1344 62.749 98.9736 62.5031 98.802 62.2645C98.6031 61.9872 98.3905 61.7196 98.1916 61.4424C98.0118 61.1893 97.8456 60.9289 97.6712 60.6758C97.6385 60.63 97.5894 60.5938 97.5486 60.5504C97.5131 60.5119 97.4804 60.4709 97.4532 60.4275C97.3578 60.2877 97.2625 60.1479 97.1698 60.0056C97.1153 59.9237 97.0663 59.8393 97.0145 59.7573C96.9791 59.7019 96.9436 59.644 96.9055 59.591C96.8265 59.4825 96.7393 59.3788 96.6603 59.2704C96.4723 59.0076 96.2842 58.7424 96.099 58.4772C96.0308 58.3808 95.9573 58.2844 95.9028 58.1807C95.8292 58.0433 95.7229 57.9493 95.5513 57.93C95.3823 57.9107 95.2134 57.889 95.0444 57.889C89.5294 57.8842 84.0171 57.8842 78.5021 57.8818C78.3277 57.8818 78.1479 57.8866 77.9762 57.8601C77.5211 57.7878 77.0606 57.7203 76.6165 57.6094C76.1833 57.5009 75.7609 57.3539 75.3413 57.2044C75.0961 57.1176 74.8699 56.9947 74.6328 56.8886C74.6029 56.8741 74.5756 56.8572 74.5456 56.8428C74.3604 56.756 74.1778 56.6716 73.9925 56.5848C73.9217 56.5535 73.8508 56.5246 73.78 56.4908C73.6383 56.4209 73.4966 56.351 73.3549 56.2811C73.2323 56.2208 73.1069 56.1606 72.9843 56.1051C72.8999 56.0665 72.8154 56.0231 72.7255 55.9942C72.4693 55.9123 72.2132 55.8327 71.9543 55.7652C71.7772 55.7194 71.5919 55.6736 71.4094 55.6591C71.0551 55.635 70.6955 55.6254 70.3412 55.623C63.8071 55.6133 57.273 55.6061 50.7389 55.6013C50.1885 55.6013 49.6408 55.623 49.0904 55.6206C48.262 55.6206 47.4364 55.6037 46.6081 55.6013C46.0713 55.6013 45.5318 55.6206 44.995 55.6206C43.7879 55.623 42.5808 55.6206 41.3737 55.6206C40.4391 55.6206 39.5045 55.6206 38.5671 55.6206C38.5045 55.6206 38.4418 55.6206 38.3791 55.6254C38.1748 55.6495 38.1094 55.7556 38.1502 55.9315C38.202 56.1581 38.3464 56.3389 38.4772 56.5318C38.6625 56.8042 38.8151 57.0935 39.0031 57.3635C39.1939 57.6431 39.4009 57.9155 39.6189 58.1807C39.8478 58.458 40.0985 58.7207 40.3437 58.9859C40.4854 59.1402 40.6407 59.2824 40.7851 59.4343C40.9486 59.6055 41.1012 59.7863 41.2729 59.9478C41.4446 60.1117 41.638 60.2588 41.8233 60.4106C42.1476 60.6758 42.4718 60.9458 42.8042 61.2062C43.0685 61.4159 43.341 61.6184 43.6162 61.8137C43.8233 61.9607 44.0331 62.1029 44.2538 62.2331C44.5345 62.3995 44.8261 62.5465 45.1122 62.708C45.4528 62.8985 45.7934 63.0937 46.1312 63.2866C46.2866 63.3758 46.4446 63.465 46.6026 63.5494C46.7471 63.6265 46.8969 63.694 47.0441 63.7663C47.1367 63.8121 47.2266 63.8652 47.3247 63.9061C47.6735 64.0556 48.0441 64.1737 48.3738 64.3545C48.867 64.6221 49.3901 64.7282 49.9569 64.7282C51.5318 64.7282 53.1068 64.7282 54.6844 64.7282L54.6899 64.7234ZM82.7092 45.4064C81.1179 45.4064 79.5266 45.404 77.9326 45.4112C77.7746 45.4112 77.6002 45.4667 77.4585 45.5366C77.186 45.674 76.9326 45.8427 76.6683 45.9946C76.3958 46.1513 76.1206 46.3032 75.8508 46.4647C75.6683 46.5732 75.4966 46.6937 75.3168 46.8046C75.0279 46.9854 74.7364 47.1614 74.4448 47.3398C74.3576 47.3928 74.2732 47.4507 74.1832 47.5037C74.0879 47.564 73.9898 47.6218 73.8917 47.6797C73.8208 47.7207 73.75 47.7592 73.6819 47.8002C73.3821 47.9834 73.096 48.1884 72.7772 48.345C72.5838 48.4415 72.4748 48.5572 72.423 48.7356C72.3903 48.8489 72.4448 48.9092 72.5783 48.9043C72.9217 48.8971 73.2677 48.8826 73.611 48.8826C77.6737 48.8826 81.7337 48.8826 85.7964 48.8826C85.9381 48.8826 86.0798 48.8754 86.2215 48.8754C86.6329 48.8754 87.0471 48.8778 87.4586 48.8754C87.7692 48.873 88.0798 48.8754 88.3877 48.8465C88.603 48.8272 88.7501 48.6657 88.7528 48.4728C88.7665 47.6194 88.7828 46.766 88.7774 45.9126C88.7774 45.5824 88.6003 45.4353 88.2242 45.416C87.9245 45.4016 87.6248 45.4112 87.325 45.4112C85.7828 45.4112 84.2433 45.4112 82.701 45.4112L82.7092 45.4064ZM78.8018 55.6688C78.8018 55.6567 78.8018 55.6447 78.8018 55.6326C79.0334 55.6326 79.265 55.635 79.4966 55.6326C79.6492 55.6302 79.7364 55.5506 79.75 55.4156C79.78 55.1288 79.8291 54.8419 79.8345 54.5526C79.8454 53.7957 79.84 53.0411 79.84 52.2841C79.84 52.2335 79.8318 52.1853 79.8263 52.1347C79.8073 51.9852 79.7882 51.8333 79.7691 51.6839C79.7473 51.5272 79.7364 51.3657 79.6901 51.2138C79.6737 51.1583 79.5729 51.1029 79.4994 51.0884C79.3522 51.0619 79.1969 51.0547 79.0443 51.0547C78.3141 51.0523 77.5838 51.0547 76.8536 51.0547C75.0525 51.0547 73.2486 51.0547 71.4475 51.0547C71.2377 51.0547 71.0279 51.0691 70.8181 51.0691C70.1859 51.0691 69.5511 51.0716 68.9189 51.0691C68.6083 51.0691 68.3113 51.0691 68.0415 51.2668C67.7935 51.4476 67.4911 51.573 67.2241 51.7369C66.9843 51.884 66.769 52.0575 66.532 52.2094C66.1641 52.4457 65.7881 52.6723 65.4121 52.9013C65.3712 52.9254 65.3221 52.9423 65.2758 52.9591C65.1423 53.0074 64.9488 53.0387 64.9761 53.1978C65.0061 53.369 65.2104 53.3617 65.3657 53.369C65.7554 53.3834 66.1478 53.3907 66.5374 53.3907C67.6546 53.3907 68.769 53.3858 69.8862 53.3738C70.7609 53.3641 71.6219 53.4099 72.4802 53.6004C73.0061 53.7161 73.4884 53.9234 74.0007 54.0608C74.0334 54.0705 74.0606 54.0898 74.0906 54.1042C74.265 54.1838 74.4448 54.2561 74.6138 54.3405C74.9135 54.4875 75.2078 54.6346 75.5266 54.7551C75.8754 54.8853 76.1778 55.1119 76.5239 55.2421C76.9162 55.3915 77.3331 55.5073 77.75 55.5868C78.0906 55.6519 78.4476 55.6471 78.7964 55.6736L78.8018 55.6688ZM85.4504 55.6495C86.1125 55.6495 86.7746 55.6519 87.4395 55.6495C87.7801 55.6495 88.118 55.635 88.4558 55.6278C88.6411 55.623 88.7338 55.5265 88.7474 55.3698C88.7665 55.1698 88.7855 54.9721 88.7883 54.772C88.7937 54.0584 88.791 53.3424 88.7883 52.6289C88.7883 52.2649 88.7883 51.9008 88.7637 51.5368C88.7419 51.2017 88.6221 51.0933 88.2433 51.0667C87.9844 51.0499 87.7229 51.0716 87.464 51.0691C86.6765 51.0643 85.8918 51.0571 85.1043 51.0547C84.3223 51.0523 83.5403 51.0547 82.761 51.0547C82.6275 51.0547 82.4803 51.0547 82.4204 51.1752C82.3604 51.2958 82.3059 51.4332 82.3059 51.5633C82.2978 52.8049 82.3005 54.0464 82.3059 55.2879C82.3059 55.5675 82.4149 55.6519 82.7337 55.6519C83.6411 55.6519 84.5457 55.6519 85.4531 55.6519L85.4504 55.6495Z" fill="#666666"/>
<path d="M54.6899 64.721C53.115 64.721 51.5401 64.721 49.9624 64.721C49.3956 64.721 48.8697 64.6173 48.3793 64.3473C48.0496 64.1689 47.6817 64.0484 47.3302 63.8989C47.2348 63.858 47.1449 63.8049 47.0496 63.7591C46.9024 63.6868 46.7525 63.6169 46.6081 63.5422C46.4474 63.4578 46.2921 63.3686 46.1367 63.2794C45.7961 63.0865 45.4583 62.8913 45.1177 62.7008C44.8343 62.5417 44.54 62.3922 44.2593 62.2259C44.0386 62.0957 43.8288 61.9535 43.6217 61.8064C43.3465 61.6088 43.074 61.4063 42.8097 61.1989C42.4773 60.9386 42.1558 60.671 41.8288 60.4034C41.6435 60.2515 41.4528 60.1045 41.2784 59.9406C41.1067 59.7766 40.9541 59.5982 40.7906 59.4271C40.6462 59.2752 40.4909 59.1306 40.3492 58.9787C40.104 58.7135 39.8533 58.4507 39.6244 58.1735C39.4064 57.9107 39.2021 57.6359 39.0086 57.3563C38.8233 57.0839 38.668 56.797 38.4827 56.5246C38.3519 56.3317 38.2075 56.1509 38.1557 55.9243C38.1149 55.7483 38.1803 55.6423 38.3846 55.6182C38.4473 55.6109 38.51 55.6133 38.5726 55.6133C39.5073 55.6133 40.4419 55.6133 41.3792 55.6133C42.5863 55.6133 43.7934 55.6182 45.0005 55.6133C45.5373 55.6133 46.0768 55.5916 46.6136 55.5941C47.4419 55.5941 48.2675 55.6133 49.0959 55.6133C49.6463 55.6133 50.194 55.5916 50.7444 55.5941C57.2785 55.5989 63.8126 55.6061 70.3467 55.6158C70.7037 55.6158 71.0606 55.6254 71.4149 55.6519C71.5974 55.664 71.7827 55.7098 71.9598 55.758C72.2187 55.8255 72.4776 55.9074 72.731 55.987C72.8209 56.0159 72.9053 56.0593 72.9898 56.0979C73.1152 56.1558 73.2378 56.216 73.3604 56.2739C73.5021 56.3438 73.6438 56.4161 73.7855 56.4836C73.8536 56.5174 73.9272 56.5463 73.998 56.5776C74.1833 56.662 74.3658 56.7488 74.5511 56.8356C74.5811 56.85 74.6084 56.8693 74.6383 56.8814C74.8727 56.9874 75.1015 57.1104 75.3468 57.1972C75.7664 57.3466 76.186 57.4937 76.622 57.6022C77.0661 57.7131 77.5266 57.7806 77.9817 57.8529C78.1533 57.8794 78.3305 57.8746 78.5076 57.8746C84.0226 57.877 89.5349 57.877 95.0499 57.8818C95.2189 57.8818 95.3878 57.9059 95.5568 57.9228C95.7311 57.9421 95.8374 58.0361 95.9083 58.1735C95.9628 58.2772 96.0363 58.3712 96.1044 58.47C96.2897 58.7352 96.4777 59.0004 96.6658 59.2632C96.7448 59.3716 96.832 59.4753 96.911 59.5838C96.9519 59.6368 96.9846 59.6947 97.02 59.7501C97.0718 59.8321 97.1208 59.9165 97.1753 59.9984C97.2679 60.1406 97.3633 60.2805 97.4587 60.4203C97.4887 60.4637 97.5213 60.5023 97.554 60.5432C97.5922 60.5866 97.644 60.6228 97.6767 60.6686C97.8511 60.9241 98.0173 61.1845 98.1971 61.4352C98.3933 61.7124 98.6086 61.98 98.8075 62.2572C98.9791 62.4959 99.1399 62.7418 99.3088 62.9829C99.4832 63.2312 99.6603 63.4795 99.8347 63.7278C99.9056 63.829 99.971 63.9327 100.042 64.0339C100.099 64.1135 100.156 64.193 100.216 64.2702C100.257 64.3232 100.35 64.4004 100.336 64.4269C100.279 64.5185 100.192 64.5956 100.107 64.6704C100.085 64.6896 100.031 64.6872 99.9928 64.6872C99.0527 64.6921 98.1126 64.6945 97.1726 64.6993C96.7829 64.6993 96.3905 64.7162 96.0009 64.7162C94.8401 64.7162 93.6794 64.7065 92.5186 64.7065C87.7583 64.7065 82.9981 64.7138 78.2378 64.7162C77.5593 64.7162 76.8781 64.7017 76.1996 64.7017C74.9408 64.7017 73.6846 64.7138 72.4258 64.7162C68.4312 64.7162 64.4339 64.7162 60.4393 64.7162C58.5238 64.7162 56.6082 64.7162 54.6954 64.7162L54.6899 64.721ZM61.7499 59.0052C61.7663 59.0052 61.7826 59.0052 61.799 59.0052C61.7554 58.8582 61.7472 58.6918 61.66 58.5665C61.5456 58.3977 61.3848 58.2482 61.2159 58.1181C61.1069 58.0337 60.9516 57.9662 60.8072 57.9493C60.3766 57.8963 59.9625 57.9493 59.66 58.2627C59.472 58.4556 59.2785 58.6508 59.2676 58.9401C59.2567 59.2029 59.3412 59.4078 59.4938 59.6368C59.66 59.8827 59.9107 59.9912 60.1586 60.0876C60.6137 60.266 61.0388 60.0948 61.3766 59.8345C61.6355 59.6344 61.848 59.3668 61.7499 59.01V59.0052ZM47.7362 57.93C47.1422 57.8481 46.4664 58.4194 46.4828 59.0655C46.4991 59.6465 47.1613 60.1575 47.7335 60.1455C48.4229 60.131 48.9433 59.6368 48.9978 59.0607C49.0468 58.5616 48.3656 57.8384 47.7362 57.93ZM54.1504 57.93C53.5074 57.8674 52.8289 58.4459 52.8643 59.0848C52.897 59.6561 53.461 60.1358 54.1286 60.1382C54.7989 60.1382 55.3493 59.6368 55.3875 59.0727C55.4229 58.5303 54.7826 57.8674 54.1504 57.93ZM68.1533 59.0317C68.1723 58.8051 68.1533 58.6123 67.998 58.4532C67.889 58.3399 67.7691 58.229 67.6437 58.1301C67.3195 57.8722 66.611 57.8722 66.2622 58.106C66.0524 58.2458 65.9135 58.4242 65.78 58.6171C65.6464 58.8075 65.6165 59.01 65.6873 59.2029C65.8045 59.5283 65.9816 59.8031 66.3603 59.996C66.8971 60.2708 67.4312 60.0997 67.8018 59.8056C68.0579 59.6031 68.2241 59.3355 68.1533 59.0317Z" fill="#00BFFF"/>
<path d="M82.7092 45.4064C84.2515 45.4064 85.791 45.4064 87.3333 45.4064C87.633 45.4064 87.9327 45.3968 88.2325 45.4112C88.6085 45.4305 88.7829 45.5776 88.7856 45.9078C88.7883 46.7612 88.7747 47.6146 88.7611 48.468C88.7583 48.6633 88.6112 48.8224 88.3959 48.8417C88.088 48.8706 87.7774 48.8682 87.4668 48.8706C87.0553 48.8754 86.6412 48.8706 86.2297 48.8706C86.088 48.8706 85.9463 48.8778 85.8046 48.8778C81.7419 48.8778 77.682 48.8778 73.6193 48.8778C73.2759 48.8778 72.9299 48.8923 72.5865 48.8995C72.453 48.9019 72.3985 48.8441 72.4312 48.7308C72.483 48.5524 72.592 48.4367 72.7855 48.3402C73.1015 48.1835 73.3904 47.9786 73.6901 47.7954C73.7582 47.7544 73.8318 47.7159 73.8999 47.6749C73.998 47.617 74.0934 47.5592 74.1915 47.4989C74.2787 47.4459 74.3631 47.388 74.453 47.335C74.7446 47.1566 75.0362 46.9782 75.325 46.7998C75.5048 46.6889 75.6765 46.5684 75.8591 46.4599C76.1288 46.3008 76.404 46.1489 76.6765 45.9898C76.9408 45.8379 77.1942 45.6692 77.4667 45.5318C77.6084 45.4619 77.78 45.4064 77.9408 45.4064C79.5321 45.3968 81.1234 45.4016 82.7174 45.4016L82.7092 45.4064Z" fill="white"/>
<path d="M78.8019 55.6688C78.4531 55.6423 78.0961 55.6495 77.7555 55.582C77.3386 55.5001 76.9217 55.3843 76.5294 55.2373C76.1806 55.1071 75.8781 54.8805 75.5321 54.7503C75.2133 54.6298 74.919 54.4827 74.6193 54.3357C74.4476 54.2513 74.2705 54.1766 74.0961 54.0994C74.0661 54.085 74.0389 54.0657 74.0062 54.056C73.4939 53.9186 73.0116 53.7113 72.4857 53.5956C71.6274 53.4076 70.7664 53.3594 69.8917 53.369C68.7773 53.3811 67.6601 53.3835 66.5429 53.3859C66.1533 53.3859 65.7609 53.3786 65.3712 53.3642C65.2159 53.3594 65.0116 53.3642 64.9816 53.193C64.9543 53.0363 65.1451 53.0026 65.2813 52.9544C65.3276 52.9375 65.3767 52.9206 65.4176 52.8965C65.7909 52.6675 66.1669 52.4409 66.5375 52.2046C66.7745 52.0528 66.9898 51.8792 67.2296 51.7321C67.4966 51.5682 67.799 51.4453 68.047 51.262C68.3168 51.0644 68.611 51.0644 68.9244 51.0644C69.5566 51.0668 70.1914 51.0644 70.8236 51.0644C71.0334 51.0644 71.2432 51.0499 71.453 51.0499C73.2541 51.0499 75.058 51.0499 76.8591 51.0499C77.5893 51.0499 78.3196 51.0475 79.0498 51.0499C79.2024 51.0499 79.3577 51.0571 79.5049 51.0836C79.5784 51.0957 79.6765 51.1536 79.6956 51.209C79.7419 51.3609 79.7528 51.52 79.7746 51.6791C79.7964 51.8286 79.8128 51.9804 79.8318 52.1299C79.8373 52.1805 79.8455 52.2287 79.8455 52.2794C79.8455 53.0363 79.8536 53.7909 79.84 54.5478C79.8346 54.8347 79.7882 55.124 79.7555 55.4109C79.7419 55.5459 79.6547 55.623 79.5021 55.6278C79.2705 55.6326 79.0389 55.6278 78.8073 55.6278C78.8073 55.6399 78.8073 55.6519 78.8073 55.664L78.8019 55.6688Z" fill="#80CEF4"/>
<path d="M85.4531 55.6496C84.5458 55.6496 83.6411 55.6496 82.7338 55.6496C82.415 55.6496 82.3087 55.5676 82.306 55.2856C82.3005 54.0441 82.2978 52.8025 82.306 51.561C82.306 51.4309 82.3605 51.2934 82.4204 51.1729C82.4804 51.05 82.6275 51.0524 82.761 51.0524C83.543 51.0524 84.3251 51.0524 85.1044 51.0524C85.8918 51.0548 86.6766 51.0644 87.464 51.0668C87.7229 51.0668 87.9845 51.0451 88.2433 51.0644C88.6194 51.0909 88.742 51.1994 88.7638 51.5345C88.7883 51.8985 88.7856 52.2625 88.7883 52.6266C88.791 53.3401 88.7938 54.0561 88.7883 54.7697C88.7883 54.9698 88.7665 55.1699 88.7474 55.3675C88.7338 55.5218 88.6439 55.6207 88.4559 55.6255C88.118 55.6351 87.7774 55.6448 87.4395 55.6472C86.7774 55.6496 86.1153 55.6472 85.4504 55.6472L85.4531 55.6496Z" fill="#80CEF4"/>
<path d="M61.7499 59.0076C61.848 59.3644 61.6382 59.632 61.3766 59.8321C61.0388 60.0924 60.6137 60.2636 60.1587 60.0852C59.9107 59.9888 59.66 59.8803 59.4938 59.6344C59.3412 59.4054 59.2567 59.2005 59.2676 58.9377C59.2785 58.6508 59.472 58.4556 59.66 58.2603C59.9625 57.9493 60.3766 57.8939 60.8072 57.9469C60.9516 57.9638 61.1069 58.0313 61.2159 58.1157C61.3848 58.2458 61.5456 58.3977 61.66 58.564C61.7445 58.6894 61.7554 58.8557 61.799 59.0028C61.7826 59.0028 61.7663 59.0028 61.7499 59.0028V59.0076Z" fill="#80CEF4"/>
<path d="M47.7389 57.9325C48.3684 57.8409 49.0496 58.5617 49.0005 59.0631C48.9433 59.6369 48.4256 60.1311 47.7362 60.1479C47.164 60.16 46.5019 59.6513 46.4855 59.0679C46.4692 58.4219 47.1449 57.8505 47.7389 57.9325Z" fill="#80CEF4"/>
<path d="M54.1532 57.9325C54.7853 57.8698 55.4284 58.5328 55.3902 59.0752C55.3521 59.6393 54.8017 60.1407 54.1314 60.1407C53.4638 60.1407 52.8997 59.6586 52.867 59.0872C52.8289 58.4484 53.5074 57.8674 54.1532 57.9325Z" fill="#80CEF4"/>
<path d="M68.1533 59.0342C68.2241 59.3403 68.0579 59.6055 67.8018 59.808C67.4312 60.0997 66.8971 60.2708 66.3603 59.9984C65.9816 59.8056 65.8045 59.5308 65.6873 59.2053C65.6192 59.0125 65.6492 58.81 65.78 58.6195C65.9162 58.4267 66.0524 58.2483 66.2622 58.1084C66.611 57.877 67.3195 57.8746 67.6437 58.1325C67.7691 58.2338 67.889 58.3423 67.998 58.4556C68.1505 58.6147 68.1723 58.8075 68.1533 59.0342Z" fill="#80CEF4"/>
</g>
<path d="M59.6531 98.3829L57.2312 92.0548H57.1921C57.2377 92.5561 57.2605 93.1518 57.2605 93.8419V98.3829H56.4939V91.2443H57.7439L60.0046 97.1329H60.0437L62.324 91.2443H63.5642V98.3829H62.7341V93.7833C62.7341 93.256 62.7569 92.6831 62.8025 92.0646H62.7634L60.322 98.3829H59.6531ZM70.0241 95.7023C70.0241 96.5747 69.8044 97.2566 69.365 97.7482C68.9255 98.2365 68.3184 98.4806 67.5437 98.4806C67.0652 98.4806 66.6404 98.3683 66.2693 98.1437C65.8982 97.9191 65.6117 97.5968 65.4099 97.1769C65.2081 96.757 65.1072 96.2654 65.1072 95.7023C65.1072 94.8299 65.3253 94.1512 65.7615 93.6661C66.1976 93.1779 66.8031 92.9337 67.5779 92.9337C68.3266 92.9337 68.9206 93.1827 69.3601 93.6808C69.8028 94.1788 70.0241 94.8527 70.0241 95.7023ZM65.947 95.7023C65.947 96.3859 66.0837 96.9067 66.3572 97.2648C66.6306 97.6228 67.0326 97.8019 67.5632 97.8019C68.0938 97.8019 68.4958 97.6245 68.7693 97.2697C69.046 96.9116 69.1843 96.3891 69.1843 95.7023C69.1843 95.0219 69.046 94.506 68.7693 94.1544C68.4958 93.7996 68.0906 93.6222 67.5534 93.6222C67.0228 93.6222 66.6225 93.7963 66.3523 94.1447C66.0821 94.493 65.947 95.0122 65.947 95.7023ZM73.1784 97.8116C73.3217 97.8116 73.46 97.8019 73.5935 97.7823C73.7269 97.7596 73.8327 97.7368 73.9109 97.714V98.3341C73.823 98.3764 73.6928 98.4106 73.5202 98.4366C73.351 98.4659 73.198 98.4806 73.0613 98.4806C72.0261 98.4806 71.5085 97.9353 71.5085 96.8448V93.6613H70.7419V93.2706L71.5085 92.9337L71.8503 91.7911H72.3191V93.0314H73.8718V93.6613H72.3191V96.8107C72.3191 97.1329 72.3956 97.3803 72.5486 97.5529C72.7016 97.7254 72.9115 97.8116 73.1784 97.8116ZM79.6042 95.7023C79.6042 96.5747 79.3845 97.2566 78.945 97.7482C78.5056 98.2365 77.8985 98.4806 77.1238 98.4806C76.6452 98.4806 76.2204 98.3683 75.8493 98.1437C75.4782 97.9191 75.1918 97.5968 74.99 97.1769C74.7881 96.757 74.6872 96.2654 74.6872 95.7023C74.6872 94.8299 74.9053 94.1512 75.3415 93.6661C75.7777 93.1779 76.3832 92.9337 77.1579 92.9337C77.9066 92.9337 78.5007 93.1827 78.9402 93.6808C79.3829 94.1788 79.6042 94.8527 79.6042 95.7023ZM75.5271 95.7023C75.5271 96.3859 75.6638 96.9067 75.9372 97.2648C76.2107 97.6228 76.6127 97.8019 77.1433 97.8019C77.6739 97.8019 78.0759 97.6245 78.3493 97.2697C78.626 96.9116 78.7644 96.3891 78.7644 95.7023C78.7644 95.0219 78.626 94.506 78.3493 94.1544C78.0759 93.7996 77.6706 93.6222 77.1335 93.6222C76.6029 93.6222 76.2025 93.7963 75.9324 94.1447C75.6622 94.493 75.5271 95.0122 75.5271 95.7023ZM83.4714 92.9337C83.709 92.9337 83.9223 92.9532 84.1111 92.9923L83.9988 93.7443C83.7774 93.6954 83.5821 93.671 83.4128 93.671C82.9799 93.671 82.6088 93.8468 82.2995 94.1984C81.9935 94.5499 81.8406 94.9878 81.8406 95.5118V98.3829H81.03V93.0314H81.699L81.7917 94.0226H81.8308C82.0294 93.6743 82.2686 93.4057 82.5486 93.2169C82.8285 93.0281 83.1361 92.9337 83.4714 92.9337Z" fill="#333333"/>
<defs>
<clipPath id="clip0_56_24">
<rect width="70.5319" height="27.1277" fill="white" transform="translate(34.6162 39.7871)"/>
</clipPath>
</defs>
</svg>
