<svg width="141" height="118" viewBox="0 0 141 118" fill="none" xmlns="http://www.w3.org/2000/svg">
<rect x="1.01465" y="0.25" width="138.755" height="117.053" rx="9.75" fill="white" stroke="#CCCCCC" stroke-width="0.5"/>
<g clip-path="url(#clip0_56_5)">
<path d="M70.3119 52.422H72.7142V50.2228C73.4378 50.2228 74.111 50.2085 74.7813 50.2371C74.8703 50.2399 75.0215 50.4484 75.0245 50.5684C75.0482 51.171 75.0363 51.7765 75.0363 52.4135H80.1611C79.9505 52.0936 79.7756 51.7994 79.5739 51.5252C77.8745 49.2202 75.7422 47.3037 73.6454 45.3501C73.079 44.8217 72.5125 44.5818 71.7296 44.6418C70.9318 44.7017 70.1251 44.656 69.2828 44.656V42.4596C69.5468 42.4425 69.8196 42.4253 70.217 42.3996C68.4821 40.9201 66.8272 39.5092 65.0982 38.0354C65.3117 38.0097 65.4244 37.984 65.5371 37.984C68.3279 37.984 71.1186 37.9754 73.9094 37.9925C74.1377 37.9925 74.4046 38.0925 74.5885 38.2296C76.3324 39.532 78.0525 40.8601 79.7993 42.1626C80.0039 42.314 80.2975 42.4111 80.5585 42.4225C81.2673 42.4568 81.9791 42.4511 82.6849 42.4282C83.0467 42.4168 83.1535 42.5396 83.1328 42.8738C83.1061 43.3279 83.1416 43.7849 83.1179 44.239C83.109 44.419 83.0201 44.5961 82.94 44.8731C83.4886 45.3958 84.1411 45.9899 84.758 46.6125C86.0658 47.9321 87.2996 49.3145 88.1804 50.9482C88.3761 51.311 88.5482 51.6909 88.6638 52.0822C88.7587 52.3963 88.9248 52.462 89.2362 52.4592C92.3117 52.4478 95.3841 52.4592 98.4596 52.442C98.6672 52.442 98.9193 52.3364 99.0705 52.1993C99.7319 51.5966 100.361 50.9625 100.966 50.3742C101.532 50.9111 102.054 51.411 102.686 52.0108C102.229 52.3592 101.728 52.7419 101.227 53.1247L101.342 53.2875C102.125 53.6674 102.908 54.0529 103.694 54.43C104.821 54.9726 105.945 55.5239 107.084 56.0437C107.416 56.1951 107.496 56.3779 107.452 56.7121C107.051 59.7054 106.666 62.7015 106.274 65.6977C106.224 66.0861 106.168 66.4774 106.108 66.923C105.901 66.923 105.717 66.923 105.53 66.923C92.0329 66.923 78.5359 66.9201 65.0389 66.9201C61.8863 66.9201 58.7308 66.9201 55.5782 66.9258C52.1291 66.9344 48.8253 66.1861 45.5778 65.155C42.2147 64.0896 39.0058 62.6844 35.8651 61.122C34.9101 60.6479 34.142 59.9767 33.7416 59.0684C33.4332 58.3687 33.2019 57.5775 33.3739 56.7492C33.4658 56.3093 33.3798 55.8381 33.4391 55.3896C33.6883 53.556 34.9932 52.4563 36.9061 52.4563C42.6774 52.4563 48.4487 52.4506 54.2199 52.4677C54.6648 52.4677 54.9317 52.3307 55.1986 52.0022C56.551 50.3427 57.936 48.709 59.2913 47.0524C59.493 46.8068 59.6739 46.7639 59.9675 46.8353C61.9516 47.3237 63.9416 47.8007 65.9286 48.2777C68.1559 48.8118 69.6061 50.1171 70.2437 52.2507C70.2615 52.3078 70.2823 52.3621 70.306 52.4363L70.3119 52.422ZM35.7524 56.8977H36.3367C42.6269 56.8977 48.9172 56.8949 55.2075 56.9063C55.5071 56.9063 55.8363 56.9834 56.1002 57.1176C60.875 59.554 65.6409 62.0075 70.4157 64.4467C70.6678 64.5752 70.9763 64.6666 71.261 64.6694C74.9029 64.6837 78.5448 64.6837 82.1867 64.6694C82.4358 64.6694 82.7442 64.5495 82.9222 64.3838C84.2805 63.1157 85.6062 61.819 86.9556 60.5422C87.092 60.4137 87.2877 60.2995 87.4716 60.2709C92.4125 59.4683 97.3563 58.68 102.3 57.886C103.086 57.7603 103.869 57.626 104.738 57.4804C104.602 57.3804 104.56 57.3347 104.507 57.309C102.76 56.4693 101.013 55.6267 99.2574 54.7956C99.0972 54.7184 98.8956 54.6927 98.7117 54.6927C91.2559 54.687 83.7971 54.6842 76.3413 54.6842C65.0537 54.6842 53.7632 54.6842 42.4757 54.6842C40.6162 54.6842 38.7537 54.6842 36.8942 54.6899C36.2091 54.6899 35.8265 54.9641 35.7583 55.5439C35.7079 55.9723 35.7494 56.4122 35.7494 56.8977H35.7524ZM65.5994 64.6694C65.6113 64.638 65.6231 64.6066 65.635 64.5752C65.549 64.5209 65.463 64.4638 65.3711 64.4152C62.0494 62.7072 58.7278 60.9964 55.4003 59.3026C55.1779 59.1884 54.8902 59.1484 54.6322 59.1484C49.0062 59.1398 43.3773 59.1427 37.7513 59.1427C37.5882 59.1427 37.4251 59.1427 37.262 59.1427C37.3331 59.2912 37.4191 59.3426 37.5111 59.3883C40.6933 60.9764 43.9704 62.3416 47.4018 63.3527C50.3289 64.2153 53.3035 64.7294 56.382 64.6809C59.235 64.6352 62.088 64.6694 64.941 64.6694C65.1605 64.6694 65.3799 64.6694 65.5964 64.6694H65.5994ZM104.056 64.6494C104.269 63.0214 104.477 61.4362 104.694 59.791C104.45 59.8196 104.281 59.8339 104.115 59.8596C99.5628 60.5879 95.0194 61.3648 90.4551 62.0189C88.9634 62.2331 87.7089 62.6587 86.8013 63.8497C86.662 64.0297 86.4662 64.1696 86.3031 64.3353C86.226 64.4152 86.1637 64.5095 86.054 64.6523H104.053L104.056 64.6494ZM76.4628 44.7103C76.5251 44.8217 76.534 44.8531 76.5548 44.876C76.6764 44.9959 76.8009 45.113 76.9225 45.2301C79.1231 47.3437 81.3148 49.463 82.7086 52.1993C82.7561 52.2935 82.8836 52.4078 82.9756 52.4078C84.0403 52.422 85.1079 52.4163 86.3031 52.4163C85.9947 51.9022 85.7663 51.4567 85.4816 51.0511C83.8208 48.6719 81.6469 46.7553 79.4345 44.876C79.3455 44.7988 79.218 44.7217 79.1083 44.7189C78.2482 44.7046 77.3852 44.7103 76.4628 44.7103ZM57.8263 52.4163H67.8445C67.4382 51.4395 66.7412 50.814 65.7536 50.5541C64.0839 50.1142 62.3994 49.7287 60.7178 49.3345C60.5962 49.3059 60.3886 49.3516 60.3175 49.4402C59.4989 50.397 58.6982 51.371 57.8292 52.4192L57.8263 52.4163ZM76.3502 42.3854C75.5524 41.7884 74.8258 41.3286 74.2059 40.7602C73.3518 39.9776 72.3731 40.3346 71.4211 40.3118C72.1537 41.003 72.904 41.6485 73.6573 42.2882C73.7136 42.3368 73.7967 42.3796 73.8649 42.3825C74.6449 42.3882 75.4248 42.3854 76.3502 42.3854Z" fill="#666666"/>
<path d="M35.7522 56.898C35.7522 56.4124 35.7107 55.9726 35.7611 55.5441C35.8293 54.9643 36.209 54.693 36.897 54.6901C38.7565 54.6816 40.619 54.6844 42.4785 54.6844C53.766 54.6844 65.0565 54.6844 76.344 54.6844C83.7999 54.6844 91.2587 54.6844 98.7145 54.693C98.8983 54.693 99.0971 54.7187 99.2602 54.7958C101.013 55.627 102.76 56.4695 104.509 57.3093C104.563 57.335 104.607 57.3807 104.741 57.4806C103.872 57.6263 103.089 57.7605 102.303 57.8862C97.3591 58.6802 92.4153 59.4686 87.4744 60.2711C87.2905 60.2997 87.0948 60.414 86.9584 60.5425C85.6119 61.8192 84.2833 63.1159 82.925 64.3841C82.747 64.5497 82.4386 64.6697 82.1895 64.6697C78.5476 64.6868 74.9057 64.6868 71.2638 64.6697C70.982 64.6697 70.6736 64.5754 70.4185 64.4469C65.6437 62.0077 60.8778 59.5542 56.103 57.1179C55.8391 56.9837 55.5099 56.9065 55.2103 56.9065C48.92 56.8951 42.6297 56.898 36.3394 56.898H35.7552H35.7522Z" fill="white"/>
<path d="M65.5992 64.6726C65.3798 64.6726 65.1603 64.6726 64.9438 64.6726C62.0908 64.6726 59.2378 64.6383 56.3848 64.684C53.3063 64.7326 50.3317 64.2185 47.4046 63.3559C43.9732 62.3448 40.6961 60.9796 37.5139 59.3915C37.4219 59.3458 37.333 59.2915 37.2648 59.1459C37.4279 59.1459 37.591 59.1459 37.7541 59.1459C43.3801 59.1459 49.009 59.1459 54.635 59.1516C54.893 59.1516 55.1807 59.1916 55.4031 59.3058C58.7306 60.9995 62.0522 62.7104 65.3738 64.4184C65.4658 64.4641 65.5488 64.5241 65.6378 64.5784C65.6259 64.6098 65.6141 64.6412 65.6022 64.6726H65.5992Z" fill="#00BFFF"/>
<path d="M104.053 64.6526H86.0538C86.1636 64.5098 86.2258 64.4156 86.303 64.3356C86.4661 64.1699 86.6618 64.0328 86.8012 63.85C87.7087 62.659 88.9632 62.2334 90.455 62.0192C95.0192 61.368 99.5627 60.5883 104.115 59.8599C104.281 59.8342 104.447 59.8199 104.693 59.7914C104.477 61.4366 104.269 63.0217 104.056 64.6498L104.053 64.6526Z" fill="#00BFFF"/>
<path d="M76.4627 44.7106C77.385 44.7106 78.248 44.7049 79.1081 44.7192C79.2178 44.7192 79.3454 44.7991 79.4343 44.8763C81.6468 46.7585 83.8206 48.6722 85.4814 51.0514C85.7661 51.4598 85.9945 51.9025 86.3029 52.4166C85.1078 52.4166 84.0431 52.4223 82.9754 52.4081C82.8835 52.4081 82.7559 52.291 82.7085 52.1996C81.3146 49.4662 79.1229 47.344 76.9224 45.2304C76.8008 45.1133 76.6762 44.9962 76.5546 44.8763C76.5339 44.8563 76.525 44.8248 76.4627 44.7106Z" fill="white"/>
<path d="M57.8261 52.4167C58.695 51.3684 59.4958 50.3973 60.3143 49.4376C60.3885 49.352 60.5961 49.3063 60.7147 49.332C62.3963 49.7261 64.0808 50.1089 65.7505 50.5516C66.7381 50.8115 67.435 51.437 67.8413 52.4138H57.8231L57.8261 52.4167Z" fill="#80CEF4"/>
<path d="M76.35 42.3856C75.4247 42.3856 74.6447 42.3856 73.8647 42.3828C73.7935 42.3828 73.7105 42.3371 73.6571 42.2885C72.9038 41.6487 72.1535 41.0032 71.421 40.312C72.3759 40.3349 73.3546 39.9778 74.2058 40.7604C74.8256 41.3288 75.5522 41.7887 76.35 42.3856Z" fill="white"/>
</g>
<path d="M63.9861 94.8038C63.9861 95.9464 63.6963 96.8448 63.1169 97.4991C62.5407 98.1534 61.7383 98.4806 60.7097 98.4806C59.6583 98.4806 58.8461 98.16 58.2732 97.5187C57.7035 96.8741 57.4187 95.9659 57.4187 94.7941C57.4187 93.632 57.7051 92.7319 58.2781 92.0939C58.851 91.4526 59.6648 91.132 60.7195 91.132C61.7449 91.132 62.5456 91.4575 63.1218 92.1085C63.698 92.7596 63.9861 93.658 63.9861 94.8038ZM58.2976 94.8038C58.2976 95.7706 58.5027 96.5047 58.9128 97.006C59.3262 97.504 59.9252 97.7531 60.7097 97.7531C61.5007 97.7531 62.098 97.504 62.5017 97.006C62.9053 96.5079 63.1072 95.7739 63.1072 94.8038C63.1072 93.8435 62.9053 93.116 62.5017 92.6212C62.1013 92.1232 61.5072 91.8741 60.7195 91.8741C59.9284 91.8741 59.3262 92.1248 58.9128 92.6261C58.5027 93.1241 58.2976 93.8501 58.2976 94.8038ZM67.1892 97.8116C67.3324 97.8116 67.4708 97.8019 67.6042 97.7823C67.7377 97.7596 67.8435 97.7368 67.9216 97.714V98.3341C67.8337 98.3764 67.7035 98.4106 67.531 98.4366C67.3617 98.4659 67.2087 98.4806 67.072 98.4806C66.0368 98.4806 65.5193 97.9353 65.5193 96.8448V93.6613H64.7527V93.2706L65.5193 92.9337L65.8611 91.7911H66.3298V93.0314H67.8825V93.6613H66.3298V96.8107C66.3298 97.1329 66.4063 97.3803 66.5593 97.5529C66.7123 97.7254 66.9223 97.8116 67.1892 97.8116ZM72.6579 98.3829V94.921C72.6579 94.4848 72.5587 94.1593 72.3601 93.9445C72.1615 93.7296 71.8506 93.6222 71.4275 93.6222C70.8643 93.6222 70.4525 93.7752 70.1921 94.0812C69.935 94.3872 69.8064 94.8885 69.8064 95.5851V98.3829H68.9958V90.7853H69.8064V93.0851C69.8064 93.3618 69.7934 93.5913 69.7673 93.7736H69.8161C69.9756 93.5164 70.2019 93.3146 70.4949 93.1681C70.7911 93.0184 71.128 92.9435 71.5056 92.9435C72.1599 92.9435 72.6498 93.0997 72.9753 93.4122C73.3041 93.7215 73.4685 94.2146 73.4685 94.8917V98.3829H72.6579ZM77.3991 98.4806C76.6081 98.4806 75.9831 98.2397 75.5241 97.7579C75.0684 97.2762 74.8406 96.6072 74.8406 95.7511C74.8406 94.8885 75.0521 94.2032 75.4753 93.6954C75.9018 93.1876 76.473 92.9337 77.1892 92.9337C77.8598 92.9337 78.3904 93.1551 78.781 93.5978C79.1716 94.0372 79.3669 94.6183 79.3669 95.3409V95.8536H75.6804C75.6967 96.4819 75.8546 96.9588 76.154 97.2843C76.4568 97.6098 76.8816 97.7726 77.4284 97.7726C78.0046 97.7726 78.5743 97.6521 79.1374 97.4113V98.1339C78.851 98.2576 78.5792 98.3455 78.322 98.3976C78.0681 98.4529 77.7605 98.4806 77.3991 98.4806ZM77.1794 93.6124C76.7497 93.6124 76.4063 93.7524 76.1491 94.0323C75.8952 94.3123 75.7455 94.6997 75.6999 95.1945H78.4978C78.4978 94.6834 78.3838 94.2928 78.156 94.0226C77.9281 93.7491 77.6026 93.6124 77.1794 93.6124ZM83.195 92.9337C83.4327 92.9337 83.6459 92.9532 83.8347 92.9923L83.7224 93.7443C83.501 93.6954 83.3057 93.671 83.1365 93.671C82.7035 93.671 82.3324 93.8468 82.0232 94.1984C81.7172 94.5499 81.5642 94.9878 81.5642 95.5118V98.3829H80.7536V93.0314H81.4226L81.5154 94.0226H81.5544C81.753 93.6743 81.9922 93.4057 82.2722 93.2169C82.5521 93.0281 82.8598 92.9337 83.195 92.9337Z" fill="#333333"/>
<defs>
<clipPath id="clip0_56_5">
<rect width="74.1489" height="28.9362" fill="white" transform="translate(33.3174 37.9785)"/>
</clipPath>
</defs>
</svg>
