<svg width="140" height="118" viewBox="0 0 140 118" fill="none" xmlns="http://www.w3.org/2000/svg">
<rect x="0.25" y="0.25" width="138.755" height="117.053" rx="9.75" fill="white" stroke="#CCCCCC" stroke-width="0.5"/>
<g clip-path="url(#clip0_56_37)">
<path d="M39.7871 56.1886C40.7986 56.1886 41.6303 56.179 42.462 56.1909C42.9965 56.2004 43.2817 55.9841 43.3991 55.447C44.4585 50.5365 46.4431 45.9729 48.8806 41.6067C53.8205 32.7578 60.4741 25.4039 68.7839 19.5474C69.6803 18.9152 69.5413 18.1379 69.5101 17.3393C69.4813 16.574 69.7234 16.284 70.5287 16.2769C71.3868 16.2697 71.7631 16.5336 71.6505 17.4059C71.2646 20.365 72.2041 22.9771 73.5487 25.5893C77.9541 34.1435 83.1744 42.1534 89.2815 49.6C89.5164 49.8852 89.7273 50.1871 90.082 50.6553C89.5116 50.6814 89.1664 50.7123 88.8213 50.7123C83.4716 50.7171 78.1219 50.7147 72.7722 50.7195C71.6025 50.7195 71.4971 50.8716 71.7367 51.858C75.0348 51.858 78.292 51.8413 81.5469 51.8865C81.8417 51.8913 82.2396 52.2169 82.4026 52.4997C82.9251 53.4029 83.3949 54.3394 83.8143 55.2949C84.1259 56.0079 84.6244 56.2313 85.3675 56.2218C87.6205 56.1909 89.8759 56.1695 92.1289 56.2218C92.522 56.2313 93.0637 56.5118 93.2746 56.8351C95.24 59.8655 97.1502 62.934 99.0701 65.993C99.2043 66.2069 99.293 66.4469 99.468 66.8082C99.003 66.8367 98.6866 66.8724 98.3702 66.8724C84.2434 66.8748 70.1165 66.996 55.992 66.8106C50.906 66.744 46.3184 64.8046 42.6537 61.1252C41.3283 59.7942 40.4295 58.1898 39.7871 56.1886ZM43.1259 58.3277C43.5022 58.8316 43.6843 59.1358 43.9216 59.3854C47.1525 62.8151 51.3014 64.6287 55.8698 64.7047C68.7886 64.9163 81.7147 64.7808 94.6384 64.776C94.9428 64.776 95.2448 64.7142 95.693 64.6667C95.4653 64.2579 95.3358 63.9988 95.1824 63.7516C94.2141 62.2091 93.2099 60.6879 92.2847 59.1192C91.8796 58.437 91.3811 58.2231 90.6021 58.2231C75.1834 58.2421 59.767 58.2374 44.3483 58.2398C44.0343 58.2398 43.7203 58.2825 43.1283 58.3253L43.1259 58.3277ZM46.3784 53.0583C52.7923 50.4723 59.2924 49.7973 66.1258 51.1093C65.9892 50.6458 65.9364 50.3891 65.8406 50.1514C63.9351 45.4619 63.6786 40.5966 64.2826 35.6433C64.7596 31.7167 65.831 27.94 67.2619 24.2559C67.3793 23.9564 67.4416 23.6355 67.5687 23.1911C60.2799 27.2031 47.2149 45.5927 46.3784 53.0583ZM85.3794 48.6017L85.54 48.3498C80.406 41.64 75.8041 34.5951 71.8446 27.1105C71.7056 27.4242 71.6528 27.707 71.6528 27.9899C71.6481 34.5166 71.6648 41.0434 71.6313 47.5678C71.6265 48.4639 71.9596 48.6611 72.7913 48.654C76.6982 48.6184 80.605 48.6398 84.5094 48.6374C84.7994 48.6374 85.0894 48.6136 85.3794 48.6017ZM69.4669 25.0688C69.2632 25.2898 69.1937 25.3421 69.1554 25.4134C69.0691 25.5703 68.9876 25.7319 68.9277 25.8983C67.2978 30.4404 66.1809 35.0823 66.1378 39.9334C66.1018 43.9241 66.8137 47.7508 68.7287 51.3042C68.8821 51.5894 69.105 51.8342 69.2968 52.1004C69.3543 52.0695 69.4118 52.041 69.4693 52.0101V25.0688H69.4669ZM68.537 54.2087C62.6935 52.0671 56.8237 52.1408 50.9323 53.7309C49.0173 54.2491 47.1214 54.867 45.4124 55.8843L45.4987 56.1909C45.8511 56.1909 46.2058 56.1909 46.5581 56.1909C52.5933 56.1909 58.6285 56.1458 64.6637 56.2195C66.3798 56.2408 67.329 55.1023 68.537 54.211V54.2087ZM70.2603 55.8368C70.301 55.958 70.3418 56.0792 70.3825 56.2004C74.0041 56.2004 77.6257 56.2052 81.2473 56.1862C81.3959 56.1862 81.6476 55.996 81.674 55.8605C81.8082 55.2093 80.7296 53.9686 80.0513 53.9662C78.0428 53.9615 76.0318 53.9947 74.0233 53.9591C72.3767 53.9306 71.4947 55.1784 70.2603 55.8392V55.8368Z" fill="#666666"/>
<path d="M43.1259 58.3282C43.7179 58.2854 44.0319 58.2426 44.3459 58.2426C59.7646 58.2402 75.181 58.2426 90.5997 58.226C91.3787 58.226 91.8772 58.4399 92.2823 59.122C93.2099 60.6883 94.2141 62.2095 95.18 63.7545C95.3334 63.9993 95.4629 64.2607 95.6906 64.6695C95.2424 64.7171 94.9404 64.7789 94.636 64.7789C81.7123 64.7836 68.7886 64.9215 55.8674 64.7076C51.299 64.6315 47.1501 62.8204 43.9192 59.3882C43.6819 59.1363 43.4998 58.8344 43.1235 58.3305L43.1259 58.3282ZM55.6037 59.4286C54.9062 59.412 54.3166 59.9539 54.3694 60.5505C54.4245 61.1851 54.784 61.5939 55.4623 61.6272C56.0927 61.6581 56.6535 61.1281 56.6032 60.5172C56.5529 59.8755 56.1718 59.4999 55.6013 59.431L55.6037 59.4286ZM69.6299 60.5624C69.5796 59.9301 69.2656 59.5094 68.5993 59.4334C67.9929 59.3645 67.4201 59.8826 67.3889 60.4934C67.3577 61.0995 67.8802 61.6367 68.5178 61.6248C69.2057 61.6129 69.534 61.2136 69.6323 60.5624H69.6299ZM62.1351 59.431C61.4184 59.412 60.8815 59.9183 60.9055 60.5434C60.9295 61.2065 61.2986 61.582 61.9697 61.6201C62.6168 61.6557 63.1393 61.159 63.113 60.5243C63.0866 59.8588 62.6791 59.5237 62.1351 59.431ZM76.1421 60.4934C76.0342 59.866 75.6843 59.4548 75.0108 59.4643C74.3469 59.4738 73.9538 59.8517 73.9274 60.5267C73.9035 61.1827 74.4188 61.6771 75.0707 61.6177C75.737 61.5559 76.0774 61.159 76.1421 60.4934Z" fill="#00BFFF"/>
<path d="M46.376 53.0587C47.2125 45.5931 60.2775 27.2036 67.5663 23.1915C67.4392 23.636 67.3769 23.9569 67.2595 24.2563C65.8286 27.9404 64.7572 31.7172 64.2802 35.6437C63.6762 40.597 63.9327 45.4624 65.8382 50.1519C65.934 50.3896 65.9868 50.6439 66.1234 51.1097C59.29 49.8001 52.7899 50.4751 46.376 53.0587Z" fill="white"/>
<path d="M85.377 48.6022C85.087 48.6141 84.797 48.6379 84.507 48.6379C80.6002 48.6379 76.6934 48.6189 72.7889 48.6545C71.9572 48.6617 71.6241 48.4644 71.6289 47.5683C71.6624 41.0415 71.6457 34.5148 71.6505 27.9904C71.6505 27.7075 71.7032 27.4247 71.8422 27.111C75.8017 34.5956 80.4036 41.6381 85.5376 48.3503L85.377 48.6022Z" fill="white"/>
<path d="M70.2579 55.8372C71.4923 55.1788 72.3743 53.9286 74.0209 53.9571C76.0295 53.9928 78.0404 53.9595 80.0489 53.9643C80.7272 53.9643 81.8058 55.205 81.6716 55.8586C81.6428 55.9965 81.3935 56.1842 81.2449 56.1842C77.6233 56.2032 74.0017 56.1985 70.3801 56.1985C70.3394 56.0773 70.2987 55.9561 70.2579 55.8348V55.8372Z" fill="#80CEF4"/>
<path d="M55.6037 59.4287C56.1742 59.4976 56.5529 59.8731 56.6056 60.5149C56.6535 61.1257 56.0927 61.6557 55.4647 61.6248C54.7864 61.5916 54.4269 61.1828 54.3718 60.5481C54.319 59.9516 54.9063 59.4096 55.6061 59.4263L55.6037 59.4287Z" fill="#80CEF4"/>
<path d="M69.6275 60.5599C69.5293 61.2112 69.2009 61.6105 68.513 61.6224C67.8755 61.6319 67.3529 61.0971 67.3841 60.491C67.4153 59.8826 67.9881 59.362 68.5945 59.431C69.2608 59.507 69.5772 59.9277 69.6251 60.5599H69.6275Z" fill="#80CEF4"/>
<path d="M62.1351 59.4311C62.6791 59.5261 63.0866 59.8589 63.113 60.5244C63.1393 61.159 62.6168 61.6558 61.9697 61.6201C61.2986 61.5821 60.9295 61.2065 60.9055 60.5434C60.8815 59.9207 61.4184 59.412 62.1351 59.4311Z" fill="#80CEF4"/>
<path d="M76.1421 60.4934C76.0774 61.159 75.737 61.5559 75.0707 61.6177C74.4212 61.6771 73.9035 61.1827 73.9274 60.5267C73.9538 59.8517 74.3445 59.4738 75.0108 59.4643C75.6843 59.4548 76.0342 59.866 76.1421 60.4934Z" fill="#80CEF4"/>
</g>
<path d="M59.5056 96.4835C59.5056 97.1118 59.2777 97.6017 58.822 97.9532C58.3663 98.3048 57.7478 98.4806 56.9665 98.4806C56.1202 98.4806 55.4691 98.3715 55.0134 98.1534V97.3527C55.3064 97.4764 55.6254 97.574 55.9704 97.6456C56.3155 97.7172 56.6573 97.7531 56.9958 97.7531C57.5492 97.7531 57.9659 97.6489 58.2458 97.4406C58.5258 97.229 58.6657 96.936 58.6657 96.5616C58.6657 96.3142 58.6153 96.1124 58.5144 95.9562C58.4167 95.7967 58.2507 95.6502 58.0163 95.5167C57.7852 95.3833 57.432 95.2319 56.9568 95.0626C56.2927 94.825 55.8174 94.5434 55.531 94.2179C55.2478 93.8924 55.1062 93.4676 55.1062 92.9435C55.1062 92.3934 55.3129 91.9555 55.7263 91.63C56.1397 91.3045 56.6866 91.1417 57.3669 91.1417C58.0766 91.1417 58.7292 91.2719 59.3249 91.5323L59.0661 92.255C58.4769 92.0076 57.904 91.8839 57.3474 91.8839C56.9079 91.8839 56.5645 91.9783 56.3171 92.1671C56.0697 92.3559 55.946 92.618 55.946 92.9532C55.946 93.2006 55.9916 93.4041 56.0827 93.5636C56.1739 93.7198 56.3269 93.8647 56.5417 93.9982C56.7598 94.1284 57.0919 94.2732 57.5378 94.4327C58.2865 94.6997 58.8008 94.9861 59.0808 95.2921C59.364 95.5981 59.5056 95.9952 59.5056 96.4835ZM64.1345 98.3829L63.9734 97.6212H63.9343C63.6674 97.9565 63.4004 98.1844 63.1335 98.3048C62.8699 98.422 62.5394 98.4806 62.1423 98.4806C61.6117 98.4806 61.195 98.3439 60.8923 98.0704C60.5928 97.797 60.4431 97.408 60.4431 96.9034C60.4431 95.8227 61.3074 95.2563 63.0359 95.2042L63.9441 95.1749V94.8429C63.9441 94.423 63.8529 94.1137 63.6706 93.9152C63.4916 93.7133 63.2035 93.6124 62.8064 93.6124C62.3604 93.6124 61.8559 93.7491 61.2927 94.0226L61.0437 93.4025C61.3074 93.2592 61.5954 93.1469 61.9079 93.0656C62.2237 92.9842 62.5394 92.9435 62.8552 92.9435C63.4932 92.9435 63.9652 93.0851 64.2712 93.3683C64.5805 93.6515 64.7351 94.1056 64.7351 94.7306V98.3829H64.1345ZM62.3034 97.8116C62.808 97.8116 63.2035 97.6733 63.49 97.3966C63.7797 97.1199 63.9245 96.7325 63.9245 96.2345V95.7511L63.114 95.7853C62.4695 95.8081 62.004 95.909 61.7175 96.088C61.4343 96.2638 61.2927 96.5389 61.2927 96.9132C61.2927 97.2062 61.3806 97.4292 61.5564 97.5822C61.7354 97.7351 61.9844 97.8116 62.3034 97.8116ZM67.2204 98.3829H66.4099V93.0314H67.2204V98.3829ZM66.3415 91.5812C66.3415 91.3956 66.3871 91.2605 66.4782 91.1759C66.5694 91.088 66.6833 91.0441 66.82 91.0441C66.9503 91.0441 67.0626 91.088 67.157 91.1759C67.2514 91.2638 67.2986 91.3989 67.2986 91.5812C67.2986 91.7635 67.2514 91.9002 67.157 91.9913C67.0626 92.0792 66.9503 92.1232 66.82 92.1232C66.6833 92.1232 66.5694 92.0792 66.4782 91.9913C66.3871 91.9002 66.3415 91.7635 66.3415 91.5812ZM69.7497 98.3829H68.9392V90.7853H69.7497V98.3829ZM72.279 98.3829H71.4685V93.0314H72.279V98.3829ZM71.4001 91.5812C71.4001 91.3956 71.4457 91.2605 71.5368 91.1759C71.628 91.088 71.7419 91.0441 71.8786 91.0441C72.0088 91.0441 72.1212 91.088 72.2156 91.1759C72.31 91.2638 72.3572 91.3989 72.3572 91.5812C72.3572 91.7635 72.31 91.9002 72.2156 91.9913C72.1212 92.0792 72.0088 92.1232 71.8786 92.1232C71.7419 92.1232 71.628 92.0792 71.5368 91.9913C71.4457 91.9002 71.4001 91.7635 71.4001 91.5812ZM77.6599 98.3829V94.921C77.6599 94.4848 77.5606 94.1593 77.362 93.9445C77.1635 93.7296 76.8526 93.6222 76.4294 93.6222C75.8695 93.6222 75.4594 93.7736 75.199 94.0763C74.9385 94.379 74.8083 94.8787 74.8083 95.5753V98.3829H73.9978V93.0314H74.657L74.7888 93.7638H74.8279C74.9939 93.5001 75.2266 93.2967 75.5261 93.1534C75.8256 93.007 76.1592 92.9337 76.5271 92.9337C77.1716 92.9337 77.6566 93.09 77.9822 93.4025C78.3077 93.7117 78.4704 94.2081 78.4704 94.8917V98.3829H77.6599ZM84.5202 93.0314V93.5441L83.529 93.6613C83.6202 93.7752 83.7016 93.9249 83.7732 94.1105C83.8448 94.2928 83.8806 94.4995 83.8806 94.7306C83.8806 95.2547 83.7016 95.673 83.3435 95.9855C82.9854 96.298 82.4939 96.4542 81.8689 96.4542C81.7094 96.4542 81.5596 96.4412 81.4197 96.4152C81.0746 96.5975 80.9021 96.8269 80.9021 97.1036C80.9021 97.2501 80.9623 97.3592 81.0827 97.4308C81.2032 97.4991 81.4099 97.5333 81.7029 97.5333H82.6501C83.2296 97.5333 83.6739 97.6554 83.9831 97.8995C84.2956 98.1437 84.4519 98.4985 84.4519 98.964C84.4519 99.5564 84.2143 100.007 83.739 100.317C83.2637 100.629 82.5704 100.785 81.6589 100.785C80.959 100.785 80.4187 100.655 80.0378 100.395C79.6602 100.134 79.4714 99.7664 79.4714 99.2911C79.4714 98.9656 79.5756 98.684 79.7839 98.4464C79.9922 98.2088 80.2852 98.0476 80.6628 97.963C80.5261 97.9012 80.4105 97.8051 80.3161 97.6749C80.225 97.5447 80.1794 97.3934 80.1794 97.2208C80.1794 97.0255 80.2315 96.8546 80.3357 96.7081C80.4398 96.5616 80.6042 96.42 80.8288 96.2833C80.5521 96.1694 80.3259 95.9757 80.1501 95.7023C79.9776 95.4288 79.8913 95.1163 79.8913 94.7648C79.8913 94.1788 80.0671 93.728 80.4187 93.4122C80.7702 93.0932 81.2683 92.9337 81.9128 92.9337C82.1928 92.9337 82.445 92.9663 82.6697 93.0314H84.5202ZM80.2527 99.2814C80.2527 99.5711 80.3747 99.7908 80.6189 99.9406C80.863 100.09 81.2129 100.165 81.6687 100.165C82.349 100.165 82.8519 100.063 83.1775 99.8575C83.5062 99.6557 83.6706 99.3807 83.6706 99.0323C83.6706 98.7426 83.5811 98.5408 83.4021 98.4269C83.223 98.3162 82.8861 98.2609 82.3913 98.2609H81.4197C81.0518 98.2609 80.7654 98.3488 80.5603 98.5245C80.3552 98.7003 80.2527 98.9526 80.2527 99.2814ZM80.6921 94.7452C80.6921 95.1196 80.7979 95.4028 81.0095 95.5948C81.2211 95.7869 81.5157 95.8829 81.8933 95.8829C82.6843 95.8829 83.0798 95.4988 83.0798 94.7306C83.0798 93.9266 82.6794 93.5245 81.8786 93.5245C81.4978 93.5245 81.2048 93.6271 80.9997 93.8322C80.7947 94.0372 80.6921 94.3416 80.6921 94.7452Z" fill="#333333"/>
<defs>
<clipPath id="clip0_56_37">
<rect width="59.6809" height="50.6383" fill="white" transform="translate(39.7871 16.2773)"/>
</clipPath>
</defs>
</svg>
