<svg width="780" height="75" viewBox="0 0 780 75" fill="none" xmlns="http://www.w3.org/2000/svg">
<rect x="81.5" y="8" width="32" height="32" rx="16" fill="#28A745"/>
<path d="M98.6953 17.5625V29H97.25V19.3672L94.3359 20.4297V19.125L98.4688 17.5625H98.6953Z" fill="white"/>
<rect x="113.5" y="23" width="81.5" height="2" fill="#28A745"/>
<path d="M78.2656 66.5391H75.2266V65.3125H78.2656C78.8542 65.3125 79.3307 65.2188 79.6953 65.0312C80.0599 64.8438 80.3255 64.5833 80.4922 64.25C80.6641 63.9167 80.75 63.5365 80.75 63.1094C80.75 62.7188 80.6641 62.3516 80.4922 62.0078C80.3255 61.6641 80.0599 61.388 79.6953 61.1797C79.3307 60.9661 78.8542 60.8594 78.2656 60.8594H75.5781V71H74.0703V59.625H78.2656C79.125 59.625 79.8516 59.7734 80.4453 60.0703C81.0391 60.3672 81.4896 60.7786 81.7969 61.3047C82.1042 61.8255 82.2578 62.4219 82.2578 63.0938C82.2578 63.8229 82.1042 64.4453 81.7969 64.9609C81.4896 65.4766 81.0391 65.8698 80.4453 66.1406C79.8516 66.4062 79.125 66.5391 78.2656 66.5391ZM85.3906 63.875V71H83.9453V62.5469H85.3516L85.3906 63.875ZM88.0312 62.5L88.0234 63.8438C87.9036 63.8177 87.7891 63.8021 87.6797 63.7969C87.5755 63.7865 87.4557 63.7812 87.3203 63.7812C86.987 63.7812 86.6927 63.8333 86.4375 63.9375C86.1823 64.0417 85.9661 64.1875 85.7891 64.375C85.612 64.5625 85.4714 64.7865 85.3672 65.0469C85.2682 65.3021 85.2031 65.5833 85.1719 65.8906L84.7656 66.125C84.7656 65.6146 84.8151 65.1354 84.9141 64.6875C85.0182 64.2396 85.1771 63.8438 85.3906 63.5C85.6042 63.151 85.875 62.8802 86.2031 62.6875C86.5365 62.4896 86.9323 62.3906 87.3906 62.3906C87.4948 62.3906 87.6146 62.4036 87.75 62.4297C87.8854 62.4505 87.9792 62.474 88.0312 62.5ZM90.9375 62.5469V71H89.4844V62.5469H90.9375ZM89.375 60.3047C89.375 60.0703 89.4453 59.8724 89.5859 59.7109C89.7318 59.5495 89.9453 59.4688 90.2266 59.4688C90.5026 59.4688 90.7135 59.5495 90.8594 59.7109C91.0104 59.8724 91.0859 60.0703 91.0859 60.3047C91.0859 60.5286 91.0104 60.7214 90.8594 60.8828C90.7135 61.0391 90.5026 61.1172 90.2266 61.1172C89.9453 61.1172 89.7318 61.0391 89.5859 60.8828C89.4453 60.7214 89.375 60.5286 89.375 60.3047ZM96.6406 69.9688C96.9844 69.9688 97.3021 69.8984 97.5938 69.7578C97.8854 69.6172 98.125 69.4245 98.3125 69.1797C98.5 68.9297 98.6068 68.6458 98.6328 68.3281H100.008C99.9818 68.8281 99.8125 69.2943 99.5 69.7266C99.1927 70.1536 98.7891 70.5 98.2891 70.7656C97.7891 71.026 97.2396 71.1562 96.6406 71.1562C96.0052 71.1562 95.4505 71.0443 94.9766 70.8203C94.5078 70.5964 94.1172 70.2891 93.8047 69.8984C93.4974 69.5078 93.2656 69.0599 93.1094 68.5547C92.9583 68.0443 92.8828 67.5052 92.8828 66.9375V66.6094C92.8828 66.0417 92.9583 65.5052 93.1094 65C93.2656 64.4896 93.4974 64.0391 93.8047 63.6484C94.1172 63.2578 94.5078 62.9505 94.9766 62.7266C95.4505 62.5026 96.0052 62.3906 96.6406 62.3906C97.3021 62.3906 97.8802 62.526 98.375 62.7969C98.8698 63.0625 99.2578 63.4271 99.5391 63.8906C99.8255 64.349 99.9818 64.8698 100.008 65.4531H98.6328C98.6068 65.1042 98.5078 64.7891 98.3359 64.5078C98.1693 64.2266 97.9401 64.0026 97.6484 63.8359C97.362 63.6641 97.026 63.5781 96.6406 63.5781C96.1979 63.5781 95.8255 63.6667 95.5234 63.8438C95.2266 64.0156 94.9896 64.25 94.8125 64.5469C94.6406 64.8385 94.5156 65.1641 94.4375 65.5234C94.3646 65.8776 94.3281 66.2396 94.3281 66.6094V66.9375C94.3281 67.3073 94.3646 67.6719 94.4375 68.0312C94.5104 68.3906 94.6328 68.7161 94.8047 69.0078C94.9818 69.2995 95.2188 69.5339 95.5156 69.7109C95.8177 69.8828 96.1927 69.9688 96.6406 69.9688ZM103.203 62.5469V71H101.75V62.5469H103.203ZM101.641 60.3047C101.641 60.0703 101.711 59.8724 101.852 59.7109C101.997 59.5495 102.211 59.4688 102.492 59.4688C102.768 59.4688 102.979 59.5495 103.125 59.7109C103.276 59.8724 103.352 60.0703 103.352 60.3047C103.352 60.5286 103.276 60.7214 103.125 60.8828C102.979 61.0391 102.768 61.1172 102.492 61.1172C102.211 61.1172 101.997 61.0391 101.852 60.8828C101.711 60.7214 101.641 60.5286 101.641 60.3047ZM106.969 64.3516V71H105.523V62.5469H106.891L106.969 64.3516ZM106.625 66.4531L106.023 66.4297C106.029 65.8516 106.115 65.3177 106.281 64.8281C106.448 64.3333 106.682 63.9036 106.984 63.5391C107.286 63.1745 107.646 62.8932 108.062 62.6953C108.484 62.4922 108.951 62.3906 109.461 62.3906C109.878 62.3906 110.253 62.4479 110.586 62.5625C110.919 62.6719 111.203 62.849 111.438 63.0938C111.677 63.3385 111.859 63.6562 111.984 64.0469C112.109 64.4323 112.172 64.9036 112.172 65.4609V71H110.719V65.4453C110.719 65.0026 110.654 64.6484 110.523 64.3828C110.393 64.112 110.203 63.9167 109.953 63.7969C109.703 63.6719 109.396 63.6094 109.031 63.6094C108.672 63.6094 108.344 63.6849 108.047 63.8359C107.755 63.987 107.503 64.1953 107.289 64.4609C107.081 64.7266 106.917 65.0312 106.797 65.375C106.682 65.7135 106.625 66.0729 106.625 66.4531ZM119.844 62.5469H121.156V70.8203C121.156 71.5651 121.005 72.2005 120.703 72.7266C120.401 73.2526 119.979 73.651 119.438 73.9219C118.901 74.1979 118.281 74.3359 117.578 74.3359C117.286 74.3359 116.943 74.2891 116.547 74.1953C116.156 74.1068 115.771 73.9531 115.391 73.7344C115.016 73.5208 114.701 73.2318 114.445 72.8672L115.203 72.0078C115.557 72.4349 115.927 72.7318 116.312 72.8984C116.703 73.0651 117.089 73.1484 117.469 73.1484C117.927 73.1484 118.323 73.0625 118.656 72.8906C118.99 72.7188 119.247 72.4635 119.43 72.125C119.617 71.7917 119.711 71.3802 119.711 70.8906V64.4062L119.844 62.5469ZM114.023 66.8672V66.7031C114.023 66.0573 114.099 65.4714 114.25 64.9453C114.406 64.4141 114.628 63.9583 114.914 63.5781C115.206 63.1979 115.557 62.9062 115.969 62.7031C116.38 62.4948 116.844 62.3906 117.359 62.3906C117.891 62.3906 118.354 62.4844 118.75 62.6719C119.151 62.8542 119.49 63.1224 119.766 63.4766C120.047 63.8255 120.268 64.2474 120.43 64.7422C120.591 65.237 120.703 65.7969 120.766 66.4219V67.1406C120.708 67.7604 120.596 68.3177 120.43 68.8125C120.268 69.3073 120.047 69.7292 119.766 70.0781C119.49 70.4271 119.151 70.6953 118.75 70.8828C118.349 71.0651 117.88 71.1562 117.344 71.1562C116.839 71.1562 116.38 71.0495 115.969 70.8359C115.562 70.6224 115.214 70.3229 114.922 69.9375C114.63 69.5521 114.406 69.099 114.25 68.5781C114.099 68.0521 114.023 67.4818 114.023 66.8672ZM115.469 66.7031V66.8672C115.469 67.2891 115.51 67.6849 115.594 68.0547C115.682 68.4245 115.815 68.75 115.992 69.0312C116.174 69.3125 116.406 69.5339 116.688 69.6953C116.969 69.8516 117.305 69.9297 117.695 69.9297C118.174 69.9297 118.57 69.8281 118.883 69.625C119.195 69.4219 119.443 69.1536 119.625 68.8203C119.812 68.487 119.958 68.125 120.062 67.7344V65.8516C120.005 65.5651 119.917 65.2891 119.797 65.0234C119.682 64.7526 119.531 64.513 119.344 64.3047C119.161 64.0911 118.935 63.9219 118.664 63.7969C118.393 63.6719 118.076 63.6094 117.711 63.6094C117.315 63.6094 116.974 63.6927 116.688 63.8594C116.406 64.0208 116.174 64.2448 115.992 64.5312C115.815 64.8125 115.682 65.1406 115.594 65.5156C115.51 65.8854 115.469 66.2812 115.469 66.7031Z" fill="#444444"/>
<rect x="195" y="23" width="81.5" height="2" fill="#28A745"/>
<rect x="276.5" y="8" width="32" height="32" rx="16" fill="#28A745"/>
<path d="M296.398 27.8125V29H288.953V27.9609L292.68 23.8125C293.138 23.3021 293.492 22.8698 293.742 22.5156C293.997 22.1562 294.174 21.8359 294.273 21.5547C294.378 21.2682 294.43 20.9766 294.43 20.6797C294.43 20.3047 294.352 19.9661 294.195 19.6641C294.044 19.3568 293.82 19.112 293.523 18.9297C293.227 18.7474 292.867 18.6562 292.445 18.6562C291.94 18.6562 291.518 18.7552 291.18 18.9531C290.846 19.1458 290.596 19.4167 290.43 19.7656C290.263 20.1146 290.18 20.5156 290.18 20.9688H288.734C288.734 20.3281 288.875 19.7422 289.156 19.2109C289.438 18.6797 289.854 18.2578 290.406 17.9453C290.958 17.6276 291.638 17.4688 292.445 17.4688C293.164 17.4688 293.779 17.5964 294.289 17.8516C294.799 18.1016 295.19 18.4557 295.461 18.9141C295.737 19.3672 295.875 19.8984 295.875 20.5078C295.875 20.8411 295.818 21.1797 295.703 21.5234C295.594 21.862 295.44 22.2005 295.242 22.5391C295.049 22.8776 294.823 23.2109 294.562 23.5391C294.307 23.8672 294.034 24.1901 293.742 24.5078L290.695 27.8125H296.398Z" fill="white"/>
<rect x="308.5" y="23" width="81.5" height="2" fill="#28A745"/>
<path d="M268.938 67.3828H270.438C270.359 68.1016 270.154 68.7448 269.82 69.3125C269.487 69.8802 269.016 70.3307 268.406 70.6641C267.797 70.9922 267.036 71.1562 266.125 71.1562C265.458 71.1562 264.852 71.0312 264.305 70.7812C263.763 70.5312 263.297 70.1771 262.906 69.7188C262.516 69.2552 262.214 68.7005 262 68.0547C261.792 67.4036 261.688 66.6797 261.688 65.8828V64.75C261.688 63.9531 261.792 63.2318 262 62.5859C262.214 61.9349 262.518 61.3776 262.914 60.9141C263.315 60.4505 263.797 60.0938 264.359 59.8438C264.922 59.5938 265.555 59.4688 266.258 59.4688C267.117 59.4688 267.844 59.6302 268.438 59.9531C269.031 60.276 269.492 60.724 269.82 61.2969C270.154 61.8646 270.359 62.5234 270.438 63.2734H268.938C268.865 62.7422 268.729 62.2865 268.531 61.9062C268.333 61.5208 268.052 61.224 267.688 61.0156C267.323 60.8073 266.846 60.7031 266.258 60.7031C265.753 60.7031 265.307 60.7995 264.922 60.9922C264.542 61.1849 264.221 61.4583 263.961 61.8125C263.706 62.1667 263.513 62.5911 263.383 63.0859C263.253 63.5807 263.188 64.1302 263.188 64.7344V65.8828C263.188 66.4401 263.245 66.9635 263.359 67.4531C263.479 67.9427 263.659 68.3724 263.898 68.7422C264.138 69.112 264.443 69.4036 264.812 69.6172C265.182 69.8255 265.62 69.9297 266.125 69.9297C266.766 69.9297 267.276 69.8281 267.656 69.625C268.036 69.4219 268.323 69.1302 268.516 68.75C268.714 68.3698 268.854 67.9141 268.938 67.3828ZM277.258 69.5547V65.2031C277.258 64.8698 277.19 64.5807 277.055 64.3359C276.924 64.0859 276.727 63.8932 276.461 63.7578C276.195 63.6224 275.867 63.5547 275.477 63.5547C275.112 63.5547 274.792 63.6172 274.516 63.7422C274.245 63.8672 274.031 64.0312 273.875 64.2344C273.724 64.4375 273.648 64.6562 273.648 64.8906H272.203C272.203 64.5885 272.281 64.2891 272.438 63.9922C272.594 63.6953 272.818 63.4271 273.109 63.1875C273.406 62.9427 273.76 62.75 274.172 62.6094C274.589 62.4635 275.052 62.3906 275.562 62.3906C276.177 62.3906 276.719 62.4948 277.188 62.7031C277.661 62.9115 278.031 63.2266 278.297 63.6484C278.568 64.0651 278.703 64.5885 278.703 65.2188V69.1562C278.703 69.4375 278.727 69.737 278.773 70.0547C278.826 70.3724 278.901 70.6458 279 70.875V71H277.492C277.419 70.8333 277.362 70.612 277.32 70.3359C277.279 70.0547 277.258 69.7943 277.258 69.5547ZM277.508 65.875L277.523 66.8906H276.062C275.651 66.8906 275.284 66.9245 274.961 66.9922C274.638 67.0547 274.367 67.151 274.148 67.2812C273.93 67.4115 273.763 67.5755 273.648 67.7734C273.534 67.9661 273.477 68.1927 273.477 68.4531C273.477 68.7188 273.536 68.9609 273.656 69.1797C273.776 69.3984 273.956 69.5729 274.195 69.7031C274.44 69.8281 274.74 69.8906 275.094 69.8906C275.536 69.8906 275.927 69.7969 276.266 69.6094C276.604 69.4219 276.872 69.1927 277.07 68.9219C277.273 68.651 277.383 68.388 277.398 68.1328L278.016 68.8281C277.979 69.0469 277.88 69.2891 277.719 69.5547C277.557 69.8203 277.341 70.0755 277.07 70.3203C276.805 70.5599 276.487 70.7604 276.117 70.9219C275.753 71.0781 275.341 71.1562 274.883 71.1562C274.31 71.1562 273.807 71.0443 273.375 70.8203C272.948 70.5964 272.615 70.2969 272.375 69.9219C272.141 69.5417 272.023 69.1172 272.023 68.6484C272.023 68.1953 272.112 67.7969 272.289 67.4531C272.466 67.1042 272.721 66.8151 273.055 66.5859C273.388 66.3516 273.789 66.1745 274.258 66.0547C274.727 65.9349 275.25 65.875 275.828 65.875H277.508ZM282.547 59V71H281.094V59H282.547ZM288.375 71.1562C287.786 71.1562 287.253 71.0573 286.773 70.8594C286.299 70.6562 285.891 70.3724 285.547 70.0078C285.208 69.6432 284.948 69.2109 284.766 68.7109C284.583 68.2109 284.492 67.6641 284.492 67.0703V66.7422C284.492 66.0547 284.594 65.4427 284.797 64.9062C285 64.3646 285.276 63.9062 285.625 63.5312C285.974 63.1562 286.37 62.8724 286.812 62.6797C287.255 62.487 287.714 62.3906 288.188 62.3906C288.792 62.3906 289.312 62.4948 289.75 62.7031C290.193 62.9115 290.555 63.2031 290.836 63.5781C291.117 63.9479 291.326 64.3854 291.461 64.8906C291.596 65.3906 291.664 65.9375 291.664 66.5312V67.1797H285.352V66H290.219V65.8906C290.198 65.5156 290.12 65.151 289.984 64.7969C289.854 64.4427 289.646 64.151 289.359 63.9219C289.073 63.6927 288.682 63.5781 288.188 63.5781C287.859 63.5781 287.557 63.6484 287.281 63.7891C287.005 63.9245 286.768 64.1276 286.57 64.3984C286.372 64.6693 286.219 65 286.109 65.3906C286 65.7812 285.945 66.2318 285.945 66.7422V67.0703C285.945 67.4714 286 67.849 286.109 68.2031C286.224 68.5521 286.388 68.8594 286.602 69.125C286.82 69.3906 287.083 69.599 287.391 69.75C287.703 69.901 288.057 69.9766 288.453 69.9766C288.964 69.9766 289.396 69.8724 289.75 69.6641C290.104 69.4557 290.414 69.1771 290.68 68.8281L291.555 69.5234C291.372 69.7995 291.141 70.0625 290.859 70.3125C290.578 70.5625 290.232 70.7656 289.82 70.9219C289.414 71.0781 288.932 71.1562 288.375 71.1562ZM294.797 64.3516V71H293.352V62.5469H294.719L294.797 64.3516ZM294.453 66.4531L293.852 66.4297C293.857 65.8516 293.943 65.3177 294.109 64.8281C294.276 64.3333 294.51 63.9036 294.812 63.5391C295.115 63.1745 295.474 62.8932 295.891 62.6953C296.312 62.4922 296.779 62.3906 297.289 62.3906C297.706 62.3906 298.081 62.4479 298.414 62.5625C298.747 62.6719 299.031 62.849 299.266 63.0938C299.505 63.3385 299.688 63.6562 299.812 64.0469C299.938 64.4323 300 64.9036 300 65.4609V71H298.547V65.4453C298.547 65.0026 298.482 64.6484 298.352 64.3828C298.221 64.112 298.031 63.9167 297.781 63.7969C297.531 63.6719 297.224 63.6094 296.859 63.6094C296.5 63.6094 296.172 63.6849 295.875 63.8359C295.583 63.987 295.331 64.1953 295.117 64.4609C294.909 64.7266 294.745 65.0312 294.625 65.375C294.51 65.7135 294.453 66.0729 294.453 66.4531ZM307.523 69.3594V59H308.977V71H307.648L307.523 69.3594ZM301.836 66.8672V66.7031C301.836 66.0573 301.914 65.4714 302.07 64.9453C302.232 64.4141 302.458 63.9583 302.75 63.5781C303.047 63.1979 303.398 62.9062 303.805 62.7031C304.216 62.4948 304.674 62.3906 305.18 62.3906C305.711 62.3906 306.174 62.4844 306.57 62.6719C306.971 62.8542 307.31 63.1224 307.586 63.4766C307.867 63.8255 308.089 64.2474 308.25 64.7422C308.411 65.237 308.523 65.7969 308.586 66.4219V67.1406C308.529 67.7604 308.417 68.3177 308.25 68.8125C308.089 69.3073 307.867 69.7292 307.586 70.0781C307.31 70.4271 306.971 70.6953 306.57 70.8828C306.169 71.0651 305.701 71.1562 305.164 71.1562C304.669 71.1562 304.216 71.0495 303.805 70.8359C303.398 70.6224 303.047 70.3229 302.75 69.9375C302.458 69.5521 302.232 69.099 302.07 68.5781C301.914 68.0521 301.836 67.4818 301.836 66.8672ZM303.289 66.7031V66.8672C303.289 67.2891 303.331 67.6849 303.414 68.0547C303.503 68.4245 303.638 68.75 303.82 69.0312C304.003 69.3125 304.234 69.5339 304.516 69.6953C304.797 69.8516 305.133 69.9297 305.523 69.9297C306.003 69.9297 306.396 69.8281 306.703 69.625C307.016 69.4219 307.266 69.1536 307.453 68.8203C307.641 68.487 307.786 68.125 307.891 67.7344V65.8516C307.828 65.5651 307.737 65.2891 307.617 65.0234C307.503 64.7526 307.352 64.513 307.164 64.3047C306.982 64.0911 306.755 63.9219 306.484 63.7969C306.219 63.6719 305.904 63.6094 305.539 63.6094C305.143 63.6094 304.802 63.6927 304.516 63.8594C304.234 64.0208 304.003 64.2448 303.82 64.5312C303.638 64.8125 303.503 65.1406 303.414 65.5156C303.331 65.8854 303.289 66.2812 303.289 66.7031ZM316.211 69.5547V65.2031C316.211 64.8698 316.143 64.5807 316.008 64.3359C315.878 64.0859 315.68 63.8932 315.414 63.7578C315.148 63.6224 314.82 63.5547 314.43 63.5547C314.065 63.5547 313.745 63.6172 313.469 63.7422C313.198 63.8672 312.984 64.0312 312.828 64.2344C312.677 64.4375 312.602 64.6562 312.602 64.8906H311.156C311.156 64.5885 311.234 64.2891 311.391 63.9922C311.547 63.6953 311.771 63.4271 312.062 63.1875C312.359 62.9427 312.714 62.75 313.125 62.6094C313.542 62.4635 314.005 62.3906 314.516 62.3906C315.13 62.3906 315.672 62.4948 316.141 62.7031C316.615 62.9115 316.984 63.2266 317.25 63.6484C317.521 64.0651 317.656 64.5885 317.656 65.2188V69.1562C317.656 69.4375 317.68 69.737 317.727 70.0547C317.779 70.3724 317.854 70.6458 317.953 70.875V71H316.445C316.372 70.8333 316.315 70.612 316.273 70.3359C316.232 70.0547 316.211 69.7943 316.211 69.5547ZM316.461 65.875L316.477 66.8906H315.016C314.604 66.8906 314.237 66.9245 313.914 66.9922C313.591 67.0547 313.32 67.151 313.102 67.2812C312.883 67.4115 312.716 67.5755 312.602 67.7734C312.487 67.9661 312.43 68.1927 312.43 68.4531C312.43 68.7188 312.49 68.9609 312.609 69.1797C312.729 69.3984 312.909 69.5729 313.148 69.7031C313.393 69.8281 313.693 69.8906 314.047 69.8906C314.49 69.8906 314.88 69.7969 315.219 69.6094C315.557 69.4219 315.826 69.1927 316.023 68.9219C316.227 68.651 316.336 68.388 316.352 68.1328L316.969 68.8281C316.932 69.0469 316.833 69.2891 316.672 69.5547C316.51 69.8203 316.294 70.0755 316.023 70.3203C315.758 70.5599 315.44 70.7604 315.07 70.9219C314.706 71.0781 314.294 71.1562 313.836 71.1562C313.263 71.1562 312.76 71.0443 312.328 70.8203C311.901 70.5964 311.568 70.2969 311.328 69.9219C311.094 69.5417 310.977 69.1172 310.977 68.6484C310.977 68.1953 311.065 67.7969 311.242 67.4531C311.419 67.1042 311.674 66.8151 312.008 66.5859C312.341 66.3516 312.742 66.1745 313.211 66.0547C313.68 65.9349 314.203 65.875 314.781 65.875H316.461ZM321.375 63.875V71H319.93V62.5469H321.336L321.375 63.875ZM324.016 62.5L324.008 63.8438C323.888 63.8177 323.773 63.8021 323.664 63.7969C323.56 63.7865 323.44 63.7812 323.305 63.7812C322.971 63.7812 322.677 63.8333 322.422 63.9375C322.167 64.0417 321.951 64.1875 321.773 64.375C321.596 64.5625 321.456 64.7865 321.352 65.0469C321.253 65.3021 321.188 65.5833 321.156 65.8906L320.75 66.125C320.75 65.6146 320.799 65.1354 320.898 64.6875C321.003 64.2396 321.161 63.8438 321.375 63.5C321.589 63.151 321.859 62.8802 322.188 62.6875C322.521 62.4896 322.917 62.3906 323.375 62.3906C323.479 62.3906 323.599 62.4036 323.734 62.4297C323.87 62.4505 323.964 62.474 324.016 62.5Z" fill="#444444"/>
<rect x="390" y="23" width="81.5" height="2" fill="#00BFFF"/>
<rect x="471.5" y="8" width="32" height="32" rx="16" fill="#00BFFF"/>
<path d="M486.055 22.6016H487.086C487.591 22.6016 488.008 22.5182 488.336 22.3516C488.669 22.1797 488.917 21.9479 489.078 21.6562C489.245 21.3594 489.328 21.026 489.328 20.6562C489.328 20.2188 489.255 19.8516 489.109 19.5547C488.964 19.2578 488.745 19.0339 488.453 18.8828C488.161 18.7318 487.792 18.6562 487.344 18.6562C486.938 18.6562 486.578 18.737 486.266 18.8984C485.958 19.0547 485.716 19.2786 485.539 19.5703C485.367 19.862 485.281 20.2057 485.281 20.6016H483.836C483.836 20.0234 483.982 19.4974 484.273 19.0234C484.565 18.5495 484.974 18.1719 485.5 17.8906C486.031 17.6094 486.646 17.4688 487.344 17.4688C488.031 17.4688 488.633 17.5911 489.148 17.8359C489.664 18.0755 490.065 18.4349 490.352 18.9141C490.638 19.388 490.781 19.9792 490.781 20.6875C490.781 20.974 490.714 21.2812 490.578 21.6094C490.448 21.9323 490.242 22.2344 489.961 22.5156C489.685 22.7969 489.326 23.0286 488.883 23.2109C488.44 23.388 487.909 23.4766 487.289 23.4766H486.055V22.6016ZM486.055 23.7891V22.9219H487.289C488.013 22.9219 488.612 23.0078 489.086 23.1797C489.56 23.3516 489.932 23.5807 490.203 23.8672C490.479 24.1536 490.672 24.4688 490.781 24.8125C490.896 25.151 490.953 25.4896 490.953 25.8281C490.953 26.3594 490.862 26.8307 490.68 27.2422C490.503 27.6536 490.25 28.0026 489.922 28.2891C489.599 28.5755 489.219 28.7917 488.781 28.9375C488.344 29.0833 487.867 29.1562 487.352 29.1562C486.857 29.1562 486.391 29.0859 485.953 28.9453C485.521 28.8047 485.138 28.6016 484.805 28.3359C484.471 28.0651 484.211 27.7344 484.023 27.3438C483.836 26.9479 483.742 26.4974 483.742 25.9922H485.188C485.188 26.388 485.273 26.7344 485.445 27.0312C485.622 27.3281 485.872 27.5599 486.195 27.7266C486.523 27.888 486.909 27.9688 487.352 27.9688C487.794 27.9688 488.174 27.8932 488.492 27.7422C488.815 27.5859 489.062 27.3516 489.234 27.0391C489.411 26.7266 489.5 26.3333 489.5 25.8594C489.5 25.3854 489.401 24.9974 489.203 24.6953C489.005 24.388 488.724 24.1615 488.359 24.0156C488 23.8646 487.576 23.7891 487.086 23.7891H486.055Z" fill="white"/>
<rect x="503.5" y="23" width="81.5" height="2" fill="#00BFFF"/>
<path d="M471.594 66.5391H468.555V65.3125H471.594C472.182 65.3125 472.659 65.2188 473.023 65.0312C473.388 64.8438 473.654 64.5833 473.82 64.25C473.992 63.9167 474.078 63.5365 474.078 63.1094C474.078 62.7188 473.992 62.3516 473.82 62.0078C473.654 61.6641 473.388 61.388 473.023 61.1797C472.659 60.9661 472.182 60.8594 471.594 60.8594H468.906V71H467.398V59.625H471.594C472.453 59.625 473.18 59.7734 473.773 60.0703C474.367 60.3672 474.818 60.7786 475.125 61.3047C475.432 61.8255 475.586 62.4219 475.586 63.0938C475.586 63.8229 475.432 64.4453 475.125 64.9609C474.818 65.4766 474.367 65.8698 473.773 66.1406C473.18 66.4062 472.453 66.5391 471.594 66.5391ZM476.781 66.8672V66.6875C476.781 66.0781 476.87 65.513 477.047 64.9922C477.224 64.4661 477.479 64.0104 477.812 63.625C478.146 63.2344 478.549 62.9323 479.023 62.7188C479.497 62.5 480.029 62.3906 480.617 62.3906C481.211 62.3906 481.745 62.5 482.219 62.7188C482.698 62.9323 483.104 63.2344 483.438 63.625C483.776 64.0104 484.034 64.4661 484.211 64.9922C484.388 65.513 484.477 66.0781 484.477 66.6875V66.8672C484.477 67.4766 484.388 68.0417 484.211 68.5625C484.034 69.0833 483.776 69.5391 483.438 69.9297C483.104 70.3151 482.701 70.6172 482.227 70.8359C481.758 71.0495 481.227 71.1562 480.633 71.1562C480.039 71.1562 479.505 71.0495 479.031 70.8359C478.557 70.6172 478.151 70.3151 477.812 69.9297C477.479 69.5391 477.224 69.0833 477.047 68.5625C476.87 68.0417 476.781 67.4766 476.781 66.8672ZM478.227 66.6875V66.8672C478.227 67.2891 478.276 67.6875 478.375 68.0625C478.474 68.4323 478.622 68.7604 478.82 69.0469C479.023 69.3333 479.276 69.5599 479.578 69.7266C479.88 69.888 480.232 69.9688 480.633 69.9688C481.029 69.9688 481.375 69.888 481.672 69.7266C481.974 69.5599 482.224 69.3333 482.422 69.0469C482.62 68.7604 482.768 68.4323 482.867 68.0625C482.971 67.6875 483.023 67.2891 483.023 66.8672V66.6875C483.023 66.2708 482.971 65.8776 482.867 65.5078C482.768 65.1328 482.617 64.8021 482.414 64.5156C482.216 64.224 481.966 63.9948 481.664 63.8281C481.367 63.6615 481.018 63.5781 480.617 63.5781C480.221 63.5781 479.872 63.6615 479.57 63.8281C479.273 63.9948 479.023 64.224 478.82 64.5156C478.622 64.8021 478.474 65.1328 478.375 65.5078C478.276 65.8776 478.227 66.2708 478.227 66.6875ZM487.859 59V71H486.406V59H487.859ZM491.75 62.5469V71H490.297V62.5469H491.75ZM490.188 60.3047C490.188 60.0703 490.258 59.8724 490.398 59.7109C490.544 59.5495 490.758 59.4688 491.039 59.4688C491.315 59.4688 491.526 59.5495 491.672 59.7109C491.823 59.8724 491.898 60.0703 491.898 60.3047C491.898 60.5286 491.823 60.7214 491.672 60.8828C491.526 61.0391 491.315 61.1172 491.039 61.1172C490.758 61.1172 490.544 61.0391 490.398 60.8828C490.258 60.7214 490.188 60.5286 490.188 60.3047ZM497.453 69.9688C497.797 69.9688 498.115 69.8984 498.406 69.7578C498.698 69.6172 498.938 69.4245 499.125 69.1797C499.312 68.9297 499.419 68.6458 499.445 68.3281H500.82C500.794 68.8281 500.625 69.2943 500.312 69.7266C500.005 70.1536 499.602 70.5 499.102 70.7656C498.602 71.026 498.052 71.1562 497.453 71.1562C496.818 71.1562 496.263 71.0443 495.789 70.8203C495.32 70.5964 494.93 70.2891 494.617 69.8984C494.31 69.5078 494.078 69.0599 493.922 68.5547C493.771 68.0443 493.695 67.5052 493.695 66.9375V66.6094C493.695 66.0417 493.771 65.5052 493.922 65C494.078 64.4896 494.31 64.0391 494.617 63.6484C494.93 63.2578 495.32 62.9505 495.789 62.7266C496.263 62.5026 496.818 62.3906 497.453 62.3906C498.115 62.3906 498.693 62.526 499.188 62.7969C499.682 63.0625 500.07 63.4271 500.352 63.8906C500.638 64.349 500.794 64.8698 500.82 65.4531H499.445C499.419 65.1042 499.32 64.7891 499.148 64.5078C498.982 64.2266 498.753 64.0026 498.461 63.8359C498.174 63.6641 497.839 63.5781 497.453 63.5781C497.01 63.5781 496.638 63.6667 496.336 63.8438C496.039 64.0156 495.802 64.25 495.625 64.5469C495.453 64.8385 495.328 65.1641 495.25 65.5234C495.177 65.8776 495.141 66.2396 495.141 66.6094V66.9375C495.141 67.3073 495.177 67.6719 495.25 68.0312C495.323 68.3906 495.445 68.7161 495.617 69.0078C495.794 69.2995 496.031 69.5339 496.328 69.7109C496.63 69.8828 497.005 69.9688 497.453 69.9688ZM504.82 70.125L507.172 62.5469H508.719L505.328 72.3047C505.25 72.513 505.146 72.737 505.016 72.9766C504.891 73.2214 504.729 73.4531 504.531 73.6719C504.333 73.8906 504.094 74.0677 503.812 74.2031C503.536 74.3438 503.206 74.4141 502.82 74.4141C502.706 74.4141 502.56 74.3984 502.383 74.3672C502.206 74.3359 502.081 74.3099 502.008 74.2891L502 73.1172C502.042 73.1224 502.107 73.1276 502.195 73.1328C502.289 73.1432 502.354 73.1484 502.391 73.1484C502.719 73.1484 502.997 73.1042 503.227 73.0156C503.456 72.9323 503.648 72.7891 503.805 72.5859C503.966 72.388 504.104 72.1146 504.219 71.7656L504.82 70.125ZM503.094 62.5469L505.289 69.1094L505.664 70.6328L504.625 71.1641L501.516 62.5469H503.094Z" fill="#444444"/>
<rect x="585" y="23" width="81.5" height="2" fill="#BEBEBE"/>
<rect x="666.5" y="8" width="32" height="32" rx="16" fill="#BEBEBE"/>
<path d="M683.695 17.5625V29H682.25V19.3672L679.336 20.4297V19.125L683.469 17.5625H683.695Z" fill="white"/>
<path d="M627.648 65.6797H624.766L624.75 64.4688H627.367C627.799 64.4688 628.177 64.3958 628.5 64.25C628.823 64.1042 629.073 63.8958 629.25 63.625C629.432 63.349 629.523 63.0208 629.523 62.6406C629.523 62.224 629.443 61.8854 629.281 61.625C629.125 61.3594 628.883 61.1667 628.555 61.0469C628.232 60.9219 627.82 60.8594 627.32 60.8594H625.102V71H623.594V59.625H627.32C627.904 59.625 628.424 59.6849 628.883 59.8047C629.341 59.9193 629.729 60.1016 630.047 60.3516C630.37 60.5964 630.615 60.9089 630.781 61.2891C630.948 61.6693 631.031 62.125 631.031 62.6562C631.031 63.125 630.911 63.5495 630.672 63.9297C630.432 64.3047 630.099 64.612 629.672 64.8516C629.25 65.0911 628.755 65.2448 628.188 65.3125L627.648 65.6797ZM627.578 71H624.172L625.023 69.7734H627.578C628.057 69.7734 628.464 69.6901 628.797 69.5234C629.135 69.3568 629.393 69.1224 629.57 68.8203C629.747 68.513 629.836 68.151 629.836 67.7344C629.836 67.3125 629.76 66.9479 629.609 66.6406C629.458 66.3333 629.221 66.0964 628.898 65.9297C628.576 65.763 628.159 65.6797 627.648 65.6797H625.5L625.516 64.4688H628.453L628.773 64.9062C629.32 64.9531 629.784 65.1094 630.164 65.375C630.544 65.6354 630.833 65.9688 631.031 66.375C631.234 66.7812 631.336 67.2292 631.336 67.7188C631.336 68.4271 631.18 69.026 630.867 69.5156C630.56 70 630.125 70.3698 629.562 70.625C629 70.875 628.339 71 627.578 71ZM632.961 66.8672V66.6875C632.961 66.0781 633.049 65.513 633.227 64.9922C633.404 64.4661 633.659 64.0104 633.992 63.625C634.326 63.2344 634.729 62.9323 635.203 62.7188C635.677 62.5 636.208 62.3906 636.797 62.3906C637.391 62.3906 637.924 62.5 638.398 62.7188C638.878 62.9323 639.284 63.2344 639.617 63.625C639.956 64.0104 640.214 64.4661 640.391 64.9922C640.568 65.513 640.656 66.0781 640.656 66.6875V66.8672C640.656 67.4766 640.568 68.0417 640.391 68.5625C640.214 69.0833 639.956 69.5391 639.617 69.9297C639.284 70.3151 638.88 70.6172 638.406 70.8359C637.938 71.0495 637.406 71.1562 636.812 71.1562C636.219 71.1562 635.685 71.0495 635.211 70.8359C634.737 70.6172 634.331 70.3151 633.992 69.9297C633.659 69.5391 633.404 69.0833 633.227 68.5625C633.049 68.0417 632.961 67.4766 632.961 66.8672ZM634.406 66.6875V66.8672C634.406 67.2891 634.456 67.6875 634.555 68.0625C634.654 68.4323 634.802 68.7604 635 69.0469C635.203 69.3333 635.456 69.5599 635.758 69.7266C636.06 69.888 636.411 69.9688 636.812 69.9688C637.208 69.9688 637.555 69.888 637.852 69.7266C638.154 69.5599 638.404 69.3333 638.602 69.0469C638.799 68.7604 638.948 68.4323 639.047 68.0625C639.151 67.6875 639.203 67.2891 639.203 66.8672V66.6875C639.203 66.2708 639.151 65.8776 639.047 65.5078C638.948 65.1328 638.797 64.8021 638.594 64.5156C638.396 64.224 638.146 63.9948 637.844 63.8281C637.547 63.6615 637.198 63.5781 636.797 63.5781C636.401 63.5781 636.052 63.6615 635.75 63.8281C635.453 63.9948 635.203 64.224 635 64.5156C634.802 64.8021 634.654 65.1328 634.555 65.5078C634.456 65.8776 634.406 66.2708 634.406 66.6875ZM642.086 66.8672V66.6875C642.086 66.0781 642.174 65.513 642.352 64.9922C642.529 64.4661 642.784 64.0104 643.117 63.625C643.451 63.2344 643.854 62.9323 644.328 62.7188C644.802 62.5 645.333 62.3906 645.922 62.3906C646.516 62.3906 647.049 62.5 647.523 62.7188C648.003 62.9323 648.409 63.2344 648.742 63.625C649.081 64.0104 649.339 64.4661 649.516 64.9922C649.693 65.513 649.781 66.0781 649.781 66.6875V66.8672C649.781 67.4766 649.693 68.0417 649.516 68.5625C649.339 69.0833 649.081 69.5391 648.742 69.9297C648.409 70.3151 648.005 70.6172 647.531 70.8359C647.062 71.0495 646.531 71.1562 645.938 71.1562C645.344 71.1562 644.81 71.0495 644.336 70.8359C643.862 70.6172 643.456 70.3151 643.117 69.9297C642.784 69.5391 642.529 69.0833 642.352 68.5625C642.174 68.0417 642.086 67.4766 642.086 66.8672ZM643.531 66.6875V66.8672C643.531 67.2891 643.581 67.6875 643.68 68.0625C643.779 68.4323 643.927 68.7604 644.125 69.0469C644.328 69.3333 644.581 69.5599 644.883 69.7266C645.185 69.888 645.536 69.9688 645.938 69.9688C646.333 69.9688 646.68 69.888 646.977 69.7266C647.279 69.5599 647.529 69.3333 647.727 69.0469C647.924 68.7604 648.073 68.4323 648.172 68.0625C648.276 67.6875 648.328 67.2891 648.328 66.8672V66.6875C648.328 66.2708 648.276 65.8776 648.172 65.5078C648.073 65.1328 647.922 64.8021 647.719 64.5156C647.521 64.224 647.271 63.9948 646.969 63.8281C646.672 63.6615 646.323 63.5781 645.922 63.5781C645.526 63.5781 645.177 63.6615 644.875 63.8281C644.578 63.9948 644.328 64.224 644.125 64.5156C643.927 64.8021 643.779 65.1328 643.68 65.5078C643.581 65.8776 643.531 66.2708 643.531 66.6875ZM653.047 59V71H651.594V59H653.047ZM658.211 62.5469L654.523 66.4922L652.461 68.6328L652.344 67.0938L653.82 65.3281L656.445 62.5469H658.211ZM656.891 71L653.875 66.9688L654.625 65.6797L658.594 71H656.891ZM661.273 62.5469V71H659.82V62.5469H661.273ZM659.711 60.3047C659.711 60.0703 659.781 59.8724 659.922 59.7109C660.068 59.5495 660.281 59.4688 660.562 59.4688C660.839 59.4688 661.049 59.5495 661.195 59.7109C661.346 59.8724 661.422 60.0703 661.422 60.3047C661.422 60.5286 661.346 60.7214 661.195 60.8828C661.049 61.0391 660.839 61.1172 660.562 61.1172C660.281 61.1172 660.068 61.0391 659.922 60.8828C659.781 60.7214 659.711 60.5286 659.711 60.3047ZM665.039 64.3516V71H663.594V62.5469H664.961L665.039 64.3516ZM664.695 66.4531L664.094 66.4297C664.099 65.8516 664.185 65.3177 664.352 64.8281C664.518 64.3333 664.753 63.9036 665.055 63.5391C665.357 63.1745 665.716 62.8932 666.133 62.6953C666.555 62.4922 667.021 62.3906 667.531 62.3906C667.948 62.3906 668.323 62.4479 668.656 62.5625C668.99 62.6719 669.273 62.849 669.508 63.0938C669.747 63.3385 669.93 63.6562 670.055 64.0469C670.18 64.4323 670.242 64.9036 670.242 65.4609V71H668.789V65.4453C668.789 65.0026 668.724 64.6484 668.594 64.3828C668.464 64.112 668.273 63.9167 668.023 63.7969C667.773 63.6719 667.466 63.6094 667.102 63.6094C666.742 63.6094 666.414 63.6849 666.117 63.8359C665.826 63.987 665.573 64.1953 665.359 64.4609C665.151 64.7266 664.987 65.0312 664.867 65.375C664.753 65.7135 664.695 66.0729 664.695 66.4531ZM677.914 62.5469H679.227V70.8203C679.227 71.5651 679.076 72.2005 678.773 72.7266C678.471 73.2526 678.049 73.651 677.508 73.9219C676.971 74.1979 676.352 74.3359 675.648 74.3359C675.357 74.3359 675.013 74.2891 674.617 74.1953C674.227 74.1068 673.841 73.9531 673.461 73.7344C673.086 73.5208 672.771 73.2318 672.516 72.8672L673.273 72.0078C673.628 72.4349 673.997 72.7318 674.383 72.8984C674.773 73.0651 675.159 73.1484 675.539 73.1484C675.997 73.1484 676.393 73.0625 676.727 72.8906C677.06 72.7188 677.318 72.4635 677.5 72.125C677.688 71.7917 677.781 71.3802 677.781 70.8906V64.4062L677.914 62.5469ZM672.094 66.8672V66.7031C672.094 66.0573 672.169 65.4714 672.32 64.9453C672.477 64.4141 672.698 63.9583 672.984 63.5781C673.276 63.1979 673.628 62.9062 674.039 62.7031C674.451 62.4948 674.914 62.3906 675.43 62.3906C675.961 62.3906 676.424 62.4844 676.82 62.6719C677.221 62.8542 677.56 63.1224 677.836 63.4766C678.117 63.8255 678.339 64.2474 678.5 64.7422C678.661 65.237 678.773 65.7969 678.836 66.4219V67.1406C678.779 67.7604 678.667 68.3177 678.5 68.8125C678.339 69.3073 678.117 69.7292 677.836 70.0781C677.56 70.4271 677.221 70.6953 676.82 70.8828C676.419 71.0651 675.951 71.1562 675.414 71.1562C674.909 71.1562 674.451 71.0495 674.039 70.8359C673.633 70.6224 673.284 70.3229 672.992 69.9375C672.701 69.5521 672.477 69.099 672.32 68.5781C672.169 68.0521 672.094 67.4818 672.094 66.8672ZM673.539 66.7031V66.8672C673.539 67.2891 673.581 67.6849 673.664 68.0547C673.753 68.4245 673.885 68.75 674.062 69.0312C674.245 69.3125 674.477 69.5339 674.758 69.6953C675.039 69.8516 675.375 69.9297 675.766 69.9297C676.245 69.9297 676.641 69.8281 676.953 69.625C677.266 69.4219 677.513 69.1536 677.695 68.8203C677.883 68.487 678.029 68.125 678.133 67.7344V65.8516C678.076 65.5651 677.987 65.2891 677.867 65.0234C677.753 64.7526 677.602 64.513 677.414 64.3047C677.232 64.0911 677.005 63.9219 676.734 63.7969C676.464 63.6719 676.146 63.6094 675.781 63.6094C675.385 63.6094 675.044 63.6927 674.758 63.8594C674.477 64.0208 674.245 64.2448 674.062 64.5312C673.885 64.8125 673.753 65.1406 673.664 65.5156C673.581 65.8854 673.539 66.2812 673.539 66.7031ZM691.672 68.125C691.672 67.8594 691.63 67.625 691.547 67.4219C691.469 67.2135 691.328 67.026 691.125 66.8594C690.927 66.6927 690.651 66.5339 690.297 66.3828C689.948 66.2318 689.505 66.0781 688.969 65.9219C688.406 65.7552 687.898 65.5703 687.445 65.3672C686.992 65.1589 686.604 64.9219 686.281 64.6562C685.958 64.3906 685.711 64.0859 685.539 63.7422C685.367 63.3984 685.281 63.0052 685.281 62.5625C685.281 62.1198 685.372 61.7109 685.555 61.3359C685.737 60.9609 685.997 60.6354 686.336 60.3594C686.68 60.0781 687.089 59.8594 687.562 59.7031C688.036 59.5469 688.565 59.4688 689.148 59.4688C690.003 59.4688 690.727 59.6328 691.32 59.9609C691.919 60.2839 692.375 60.7083 692.688 61.2344C693 61.7552 693.156 62.3125 693.156 62.9062H691.656C691.656 62.4792 691.565 62.1016 691.383 61.7734C691.201 61.4401 690.924 61.1797 690.555 60.9922C690.185 60.7995 689.716 60.7031 689.148 60.7031C688.612 60.7031 688.169 60.7839 687.82 60.9453C687.471 61.1068 687.211 61.3255 687.039 61.6016C686.872 61.8776 686.789 62.1927 686.789 62.5469C686.789 62.7865 686.839 63.0052 686.938 63.2031C687.042 63.3958 687.201 63.5755 687.414 63.7422C687.633 63.9089 687.909 64.0625 688.242 64.2031C688.581 64.3438 688.984 64.4792 689.453 64.6094C690.099 64.7917 690.656 64.9948 691.125 65.2188C691.594 65.4427 691.979 65.6953 692.281 65.9766C692.589 66.2526 692.815 66.5677 692.961 66.9219C693.112 67.2708 693.188 67.6667 693.188 68.1094C693.188 68.5729 693.094 68.9922 692.906 69.3672C692.719 69.7422 692.451 70.0625 692.102 70.3281C691.753 70.5938 691.333 70.7995 690.844 70.9453C690.359 71.0859 689.818 71.1562 689.219 71.1562C688.693 71.1562 688.174 71.0833 687.664 70.9375C687.159 70.7917 686.698 70.5729 686.281 70.2812C685.87 69.9896 685.539 69.6302 685.289 69.2031C685.044 68.7708 684.922 68.2708 684.922 67.7031H686.422C686.422 68.0938 686.497 68.4297 686.648 68.7109C686.799 68.987 687.005 69.2161 687.266 69.3984C687.531 69.5807 687.831 69.7161 688.164 69.8047C688.503 69.888 688.854 69.9297 689.219 69.9297C689.745 69.9297 690.19 69.8568 690.555 69.7109C690.919 69.5651 691.195 69.3568 691.383 69.0859C691.576 68.8151 691.672 68.4948 691.672 68.125ZM698.398 71.1562C697.81 71.1562 697.276 71.0573 696.797 70.8594C696.323 70.6562 695.914 70.3724 695.57 70.0078C695.232 69.6432 694.971 69.2109 694.789 68.7109C694.607 68.2109 694.516 67.6641 694.516 67.0703V66.7422C694.516 66.0547 694.617 65.4427 694.82 64.9062C695.023 64.3646 695.299 63.9062 695.648 63.5312C695.997 63.1562 696.393 62.8724 696.836 62.6797C697.279 62.487 697.737 62.3906 698.211 62.3906C698.815 62.3906 699.336 62.4948 699.773 62.7031C700.216 62.9115 700.578 63.2031 700.859 63.5781C701.141 63.9479 701.349 64.3854 701.484 64.8906C701.62 65.3906 701.688 65.9375 701.688 66.5312V67.1797H695.375V66H700.242V65.8906C700.221 65.5156 700.143 65.151 700.008 64.7969C699.878 64.4427 699.669 64.151 699.383 63.9219C699.096 63.6927 698.706 63.5781 698.211 63.5781C697.883 63.5781 697.581 63.6484 697.305 63.7891C697.029 63.9245 696.792 64.1276 696.594 64.3984C696.396 64.6693 696.242 65 696.133 65.3906C696.023 65.7812 695.969 66.2318 695.969 66.7422V67.0703C695.969 67.4714 696.023 67.849 696.133 68.2031C696.247 68.5521 696.411 68.8594 696.625 69.125C696.844 69.3906 697.107 69.599 697.414 69.75C697.727 69.901 698.081 69.9766 698.477 69.9766C698.987 69.9766 699.419 69.8724 699.773 69.6641C700.128 69.4557 700.438 69.1771 700.703 68.8281L701.578 69.5234C701.396 69.7995 701.164 70.0625 700.883 70.3125C700.602 70.5625 700.255 70.7656 699.844 70.9219C699.438 71.0781 698.956 71.1562 698.398 71.1562ZM706.914 62.5469V63.6562H702.344V62.5469H706.914ZM703.891 60.4922H705.336V68.9062C705.336 69.1927 705.38 69.4089 705.469 69.5547C705.557 69.7005 705.672 69.7969 705.812 69.8438C705.953 69.8906 706.104 69.9141 706.266 69.9141C706.385 69.9141 706.51 69.9036 706.641 69.8828C706.776 69.8568 706.878 69.8359 706.945 69.8203L706.953 71C706.839 71.0365 706.688 71.0703 706.5 71.1016C706.318 71.138 706.096 71.1562 705.836 71.1562C705.482 71.1562 705.156 71.0859 704.859 70.9453C704.562 70.8047 704.326 70.5703 704.148 70.2422C703.977 69.9089 703.891 69.4609 703.891 68.8984V60.4922ZM712.148 62.5469V63.6562H707.578V62.5469H712.148ZM709.125 60.4922H710.57V68.9062C710.57 69.1927 710.615 69.4089 710.703 69.5547C710.792 69.7005 710.906 69.7969 711.047 69.8438C711.188 69.8906 711.339 69.9141 711.5 69.9141C711.62 69.9141 711.745 69.9036 711.875 69.8828C712.01 69.8568 712.112 69.8359 712.18 69.8203L712.188 71C712.073 71.0365 711.922 71.0703 711.734 71.1016C711.552 71.138 711.331 71.1562 711.07 71.1562C710.716 71.1562 710.391 71.0859 710.094 70.9453C709.797 70.8047 709.56 70.5703 709.383 70.2422C709.211 69.9089 709.125 69.4609 709.125 68.8984V60.4922ZM715.414 62.5469V71H713.961V62.5469H715.414ZM713.852 60.3047C713.852 60.0703 713.922 59.8724 714.062 59.7109C714.208 59.5495 714.422 59.4688 714.703 59.4688C714.979 59.4688 715.19 59.5495 715.336 59.7109C715.487 59.8724 715.562 60.0703 715.562 60.3047C715.562 60.5286 715.487 60.7214 715.336 60.8828C715.19 61.0391 714.979 61.1172 714.703 61.1172C714.422 61.1172 714.208 61.0391 714.062 60.8828C713.922 60.7214 713.852 60.5286 713.852 60.3047ZM719.18 64.3516V71H717.734V62.5469H719.102L719.18 64.3516ZM718.836 66.4531L718.234 66.4297C718.24 65.8516 718.326 65.3177 718.492 64.8281C718.659 64.3333 718.893 63.9036 719.195 63.5391C719.497 63.1745 719.857 62.8932 720.273 62.6953C720.695 62.4922 721.161 62.3906 721.672 62.3906C722.089 62.3906 722.464 62.4479 722.797 62.5625C723.13 62.6719 723.414 62.849 723.648 63.0938C723.888 63.3385 724.07 63.6562 724.195 64.0469C724.32 64.4323 724.383 64.9036 724.383 65.4609V71H722.93V65.4453C722.93 65.0026 722.865 64.6484 722.734 64.3828C722.604 64.112 722.414 63.9167 722.164 63.7969C721.914 63.6719 721.607 63.6094 721.242 63.6094C720.883 63.6094 720.555 63.6849 720.258 63.8359C719.966 63.987 719.714 64.1953 719.5 64.4609C719.292 64.7266 719.128 65.0312 719.008 65.375C718.893 65.7135 718.836 66.0729 718.836 66.4531ZM732.055 62.5469H733.367V70.8203C733.367 71.5651 733.216 72.2005 732.914 72.7266C732.612 73.2526 732.19 73.651 731.648 73.9219C731.112 74.1979 730.492 74.3359 729.789 74.3359C729.497 74.3359 729.154 74.2891 728.758 74.1953C728.367 74.1068 727.982 73.9531 727.602 73.7344C727.227 73.5208 726.911 73.2318 726.656 72.8672L727.414 72.0078C727.768 72.4349 728.138 72.7318 728.523 72.8984C728.914 73.0651 729.299 73.1484 729.68 73.1484C730.138 73.1484 730.534 73.0625 730.867 72.8906C731.201 72.7188 731.458 72.4635 731.641 72.125C731.828 71.7917 731.922 71.3802 731.922 70.8906V64.4062L732.055 62.5469ZM726.234 66.8672V66.7031C726.234 66.0573 726.31 65.4714 726.461 64.9453C726.617 64.4141 726.839 63.9583 727.125 63.5781C727.417 63.1979 727.768 62.9062 728.18 62.7031C728.591 62.4948 729.055 62.3906 729.57 62.3906C730.102 62.3906 730.565 62.4844 730.961 62.6719C731.362 62.8542 731.701 63.1224 731.977 63.4766C732.258 63.8255 732.479 64.2474 732.641 64.7422C732.802 65.237 732.914 65.7969 732.977 66.4219V67.1406C732.919 67.7604 732.807 68.3177 732.641 68.8125C732.479 69.3073 732.258 69.7292 731.977 70.0781C731.701 70.4271 731.362 70.6953 730.961 70.8828C730.56 71.0651 730.091 71.1562 729.555 71.1562C729.049 71.1562 728.591 71.0495 728.18 70.8359C727.773 70.6224 727.424 70.3229 727.133 69.9375C726.841 69.5521 726.617 69.099 726.461 68.5781C726.31 68.0521 726.234 67.4818 726.234 66.8672ZM727.68 66.7031V66.8672C727.68 67.2891 727.721 67.6849 727.805 68.0547C727.893 68.4245 728.026 68.75 728.203 69.0312C728.385 69.3125 728.617 69.5339 728.898 69.6953C729.18 69.8516 729.516 69.9297 729.906 69.9297C730.385 69.9297 730.781 69.8281 731.094 69.625C731.406 69.4219 731.654 69.1536 731.836 68.8203C732.023 68.487 732.169 68.125 732.273 67.7344V65.8516C732.216 65.5651 732.128 65.2891 732.008 65.0234C731.893 64.7526 731.742 64.513 731.555 64.3047C731.372 64.0911 731.146 63.9219 730.875 63.7969C730.604 63.6719 730.286 63.6094 729.922 63.6094C729.526 63.6094 729.185 63.6927 728.898 63.8594C728.617 64.0208 728.385 64.2448 728.203 64.5312C728.026 64.8125 727.893 65.1406 727.805 65.5156C727.721 65.8854 727.68 66.2812 727.68 66.7031ZM740.484 68.7578C740.484 68.5495 740.438 68.3568 740.344 68.1797C740.255 67.9974 740.07 67.8333 739.789 67.6875C739.513 67.5365 739.096 67.4062 738.539 67.2969C738.07 67.1979 737.646 67.0807 737.266 66.9453C736.891 66.8099 736.57 66.6458 736.305 66.4531C736.044 66.2604 735.844 66.0339 735.703 65.7734C735.562 65.513 735.492 65.2083 735.492 64.8594C735.492 64.526 735.565 64.2109 735.711 63.9141C735.862 63.6172 736.073 63.3542 736.344 63.125C736.62 62.8958 736.951 62.7161 737.336 62.5859C737.721 62.4557 738.151 62.3906 738.625 62.3906C739.302 62.3906 739.88 62.5104 740.359 62.75C740.839 62.9896 741.206 63.3099 741.461 63.7109C741.716 64.1068 741.844 64.5469 741.844 65.0312H740.398C740.398 64.7969 740.328 64.5703 740.188 64.3516C740.052 64.1276 739.852 63.9427 739.586 63.7969C739.326 63.651 739.005 63.5781 738.625 63.5781C738.224 63.5781 737.898 63.6406 737.648 63.7656C737.404 63.8854 737.224 64.0391 737.109 64.2266C737 64.4141 736.945 64.612 736.945 64.8203C736.945 64.9766 736.971 65.1172 737.023 65.2422C737.081 65.362 737.18 65.474 737.32 65.5781C737.461 65.6771 737.659 65.7708 737.914 65.8594C738.169 65.9479 738.495 66.0365 738.891 66.125C739.583 66.2812 740.154 66.4688 740.602 66.6875C741.049 66.9062 741.383 67.1745 741.602 67.4922C741.82 67.8099 741.93 68.1953 741.93 68.6484C741.93 69.0182 741.852 69.3568 741.695 69.6641C741.544 69.9714 741.323 70.237 741.031 70.4609C740.745 70.6797 740.401 70.8516 740 70.9766C739.604 71.0964 739.159 71.1562 738.664 71.1562C737.919 71.1562 737.289 71.0234 736.773 70.7578C736.258 70.4922 735.867 70.1484 735.602 69.7266C735.336 69.3047 735.203 68.8594 735.203 68.3906H736.656C736.677 68.7865 736.792 69.1016 737 69.3359C737.208 69.5651 737.464 69.7292 737.766 69.8281C738.068 69.9219 738.367 69.9688 738.664 69.9688C739.06 69.9688 739.391 69.9167 739.656 69.8125C739.927 69.7083 740.133 69.5651 740.273 69.3828C740.414 69.2005 740.484 68.9922 740.484 68.7578Z" fill="#444444"/>
</svg>
