<svg width="780" height="75" viewBox="0 0 780 75" fill="none" xmlns="http://www.w3.org/2000/svg">
<rect x="49" y="8" width="32" height="32" rx="16" fill="#28A745"/>
<path d="M66.1953 17.5625V29H64.75V19.3672L61.8359 20.4297V19.125L65.9688 17.5625H66.1953Z" fill="white"/>
<rect x="81" y="23" width="49" height="2" fill="#28A745"/>
<path d="M46.6406 65.6797H43.7578L43.7422 64.4688H46.3594C46.7917 64.4688 47.1693 64.3958 47.4922 64.25C47.8151 64.1042 48.0651 63.8958 48.2422 63.625C48.4245 63.349 48.5156 63.0208 48.5156 62.6406C48.5156 62.224 48.4349 61.8854 48.2734 61.625C48.1172 61.3594 47.875 61.1667 47.5469 61.0469C47.224 60.9219 46.8125 60.8594 46.3125 60.8594H44.0938V71H42.5859V59.625H46.3125C46.8958 59.625 47.4167 59.6849 47.875 59.8047C48.3333 59.9193 48.7214 60.1016 49.0391 60.3516C49.362 60.5964 49.6068 60.9089 49.7734 61.2891C49.9401 61.6693 50.0234 62.125 50.0234 62.6562C50.0234 63.125 49.9036 63.5495 49.6641 63.9297C49.4245 64.3047 49.0911 64.612 48.6641 64.8516C48.2422 65.0911 47.7474 65.2448 47.1797 65.3125L46.6406 65.6797ZM46.5703 71H43.1641L44.0156 69.7734H46.5703C47.0495 69.7734 47.4557 69.6901 47.7891 69.5234C48.1276 69.3568 48.3854 69.1224 48.5625 68.8203C48.7396 68.513 48.8281 68.151 48.8281 67.7344C48.8281 67.3125 48.7526 66.9479 48.6016 66.6406C48.4505 66.3333 48.2135 66.0964 47.8906 65.9297C47.5677 65.763 47.151 65.6797 46.6406 65.6797H44.4922L44.5078 64.4688H47.4453L47.7656 64.9062C48.3125 64.9531 48.776 65.1094 49.1562 65.375C49.5365 65.6354 49.8255 65.9688 50.0234 66.375C50.2266 66.7812 50.3281 67.2292 50.3281 67.7188C50.3281 68.4271 50.1719 69.026 49.8594 69.5156C49.5521 70 49.1172 70.3698 48.5547 70.625C47.9922 70.875 47.3307 71 46.5703 71ZM57.3203 69.5547V65.2031C57.3203 64.8698 57.2526 64.5807 57.1172 64.3359C56.987 64.0859 56.7891 63.8932 56.5234 63.7578C56.2578 63.6224 55.9297 63.5547 55.5391 63.5547C55.1745 63.5547 54.8542 63.6172 54.5781 63.7422C54.3073 63.8672 54.0938 64.0312 53.9375 64.2344C53.7865 64.4375 53.7109 64.6562 53.7109 64.8906H52.2656C52.2656 64.5885 52.3438 64.2891 52.5 63.9922C52.6562 63.6953 52.8802 63.4271 53.1719 63.1875C53.4688 62.9427 53.8229 62.75 54.2344 62.6094C54.651 62.4635 55.1146 62.3906 55.625 62.3906C56.2396 62.3906 56.7812 62.4948 57.25 62.7031C57.724 62.9115 58.0938 63.2266 58.3594 63.6484C58.6302 64.0651 58.7656 64.5885 58.7656 65.2188V69.1562C58.7656 69.4375 58.7891 69.737 58.8359 70.0547C58.888 70.3724 58.9635 70.6458 59.0625 70.875V71H57.5547C57.4818 70.8333 57.4245 70.612 57.3828 70.3359C57.3411 70.0547 57.3203 69.7943 57.3203 69.5547ZM57.5703 65.875L57.5859 66.8906H56.125C55.7135 66.8906 55.3464 66.9245 55.0234 66.9922C54.7005 67.0547 54.4297 67.151 54.2109 67.2812C53.9922 67.4115 53.8255 67.5755 53.7109 67.7734C53.5964 67.9661 53.5391 68.1927 53.5391 68.4531C53.5391 68.7188 53.599 68.9609 53.7188 69.1797C53.8385 69.3984 54.0182 69.5729 54.2578 69.7031C54.5026 69.8281 54.8021 69.8906 55.1562 69.8906C55.599 69.8906 55.9896 69.7969 56.3281 69.6094C56.6667 69.4219 56.9349 69.1927 57.1328 68.9219C57.3359 68.651 57.4453 68.388 57.4609 68.1328L58.0781 68.8281C58.0417 69.0469 57.9427 69.2891 57.7812 69.5547C57.6198 69.8203 57.4036 70.0755 57.1328 70.3203C56.8672 70.5599 56.5495 70.7604 56.1797 70.9219C55.8151 71.0781 55.4036 71.1562 54.9453 71.1562C54.3724 71.1562 53.8698 71.0443 53.4375 70.8203C53.0104 70.5964 52.6771 70.2969 52.4375 69.9219C52.2031 69.5417 52.0859 69.1172 52.0859 68.6484C52.0859 68.1953 52.1745 67.7969 52.3516 67.4531C52.5286 67.1042 52.7839 66.8151 53.1172 66.5859C53.4505 66.3516 53.8516 66.1745 54.3203 66.0547C54.7891 65.9349 55.3125 65.875 55.8906 65.875H57.5703ZM65.9609 68.7578C65.9609 68.5495 65.9141 68.3568 65.8203 68.1797C65.7318 67.9974 65.5469 67.8333 65.2656 67.6875C64.9896 67.5365 64.5729 67.4062 64.0156 67.2969C63.5469 67.1979 63.1224 67.0807 62.7422 66.9453C62.3672 66.8099 62.0469 66.6458 61.7812 66.4531C61.5208 66.2604 61.3203 66.0339 61.1797 65.7734C61.0391 65.513 60.9688 65.2083 60.9688 64.8594C60.9688 64.526 61.0417 64.2109 61.1875 63.9141C61.3385 63.6172 61.5495 63.3542 61.8203 63.125C62.0964 62.8958 62.4271 62.7161 62.8125 62.5859C63.1979 62.4557 63.6276 62.3906 64.1016 62.3906C64.7786 62.3906 65.3568 62.5104 65.8359 62.75C66.3151 62.9896 66.6823 63.3099 66.9375 63.7109C67.1927 64.1068 67.3203 64.5469 67.3203 65.0312H65.875C65.875 64.7969 65.8047 64.5703 65.6641 64.3516C65.5286 64.1276 65.3281 63.9427 65.0625 63.7969C64.8021 63.651 64.4818 63.5781 64.1016 63.5781C63.7005 63.5781 63.375 63.6406 63.125 63.7656C62.8802 63.8854 62.7005 64.0391 62.5859 64.2266C62.4766 64.4141 62.4219 64.612 62.4219 64.8203C62.4219 64.9766 62.4479 65.1172 62.5 65.2422C62.5573 65.362 62.6562 65.474 62.7969 65.5781C62.9375 65.6771 63.1354 65.7708 63.3906 65.8594C63.6458 65.9479 63.9714 66.0365 64.3672 66.125C65.0599 66.2812 65.6302 66.4688 66.0781 66.6875C66.526 66.9062 66.8594 67.1745 67.0781 67.4922C67.2969 67.8099 67.4062 68.1953 67.4062 68.6484C67.4062 69.0182 67.3281 69.3568 67.1719 69.6641C67.0208 69.9714 66.7995 70.237 66.5078 70.4609C66.2214 70.6797 65.8776 70.8516 65.4766 70.9766C65.0807 71.0964 64.6354 71.1562 64.1406 71.1562C63.3958 71.1562 62.7656 71.0234 62.25 70.7578C61.7344 70.4922 61.3438 70.1484 61.0781 69.7266C60.8125 69.3047 60.6797 68.8594 60.6797 68.3906H62.1328C62.1536 68.7865 62.2682 69.1016 62.4766 69.3359C62.6849 69.5651 62.9401 69.7292 63.2422 69.8281C63.5443 69.9219 63.8438 69.9688 64.1406 69.9688C64.5365 69.9688 64.8672 69.9167 65.1328 69.8125C65.4036 69.7083 65.6094 69.5651 65.75 69.3828C65.8906 69.2005 65.9609 68.9922 65.9609 68.7578ZM70.875 62.5469V71H69.4219V62.5469H70.875ZM69.3125 60.3047C69.3125 60.0703 69.3828 59.8724 69.5234 59.7109C69.6693 59.5495 69.8828 59.4688 70.1641 59.4688C70.4401 59.4688 70.651 59.5495 70.7969 59.7109C70.9479 59.8724 71.0234 60.0703 71.0234 60.3047C71.0234 60.5286 70.9479 60.7214 70.7969 60.8828C70.651 61.0391 70.4401 61.1172 70.1641 61.1172C69.8828 61.1172 69.6693 61.0391 69.5234 60.8828C69.3828 60.7214 69.3125 60.5286 69.3125 60.3047ZM76.5781 69.9688C76.9219 69.9688 77.2396 69.8984 77.5312 69.7578C77.8229 69.6172 78.0625 69.4245 78.25 69.1797C78.4375 68.9297 78.5443 68.6458 78.5703 68.3281H79.9453C79.9193 68.8281 79.75 69.2943 79.4375 69.7266C79.1302 70.1536 78.7266 70.5 78.2266 70.7656C77.7266 71.026 77.1771 71.1562 76.5781 71.1562C75.9427 71.1562 75.388 71.0443 74.9141 70.8203C74.4453 70.5964 74.0547 70.2891 73.7422 69.8984C73.4349 69.5078 73.2031 69.0599 73.0469 68.5547C72.8958 68.0443 72.8203 67.5052 72.8203 66.9375V66.6094C72.8203 66.0417 72.8958 65.5052 73.0469 65C73.2031 64.4896 73.4349 64.0391 73.7422 63.6484C74.0547 63.2578 74.4453 62.9505 74.9141 62.7266C75.388 62.5026 75.9427 62.3906 76.5781 62.3906C77.2396 62.3906 77.8177 62.526 78.3125 62.7969C78.8073 63.0625 79.1953 63.4271 79.4766 63.8906C79.763 64.349 79.9193 64.8698 79.9453 65.4531H78.5703C78.5443 65.1042 78.4453 64.7891 78.2734 64.5078C78.1068 64.2266 77.8776 64.0026 77.5859 63.8359C77.2995 63.6641 76.9635 63.5781 76.5781 63.5781C76.1354 63.5781 75.763 63.6667 75.4609 63.8438C75.1641 64.0156 74.9271 64.25 74.75 64.5469C74.5781 64.8385 74.4531 65.1641 74.375 65.5234C74.3021 65.8776 74.2656 66.2396 74.2656 66.6094V66.9375C74.2656 67.3073 74.3021 67.6719 74.375 68.0312C74.4479 68.3906 74.5703 68.7161 74.7422 69.0078C74.9193 69.2995 75.1562 69.5339 75.4531 69.7109C75.7552 69.8828 76.1302 69.9688 76.5781 69.9688ZM86.4922 68.7578C86.4922 68.5495 86.4453 68.3568 86.3516 68.1797C86.263 67.9974 86.0781 67.8333 85.7969 67.6875C85.5208 67.5365 85.1042 67.4062 84.5469 67.2969C84.0781 67.1979 83.6536 67.0807 83.2734 66.9453C82.8984 66.8099 82.5781 66.6458 82.3125 66.4531C82.0521 66.2604 81.8516 66.0339 81.7109 65.7734C81.5703 65.513 81.5 65.2083 81.5 64.8594C81.5 64.526 81.5729 64.2109 81.7188 63.9141C81.8698 63.6172 82.0807 63.3542 82.3516 63.125C82.6276 62.8958 82.9583 62.7161 83.3438 62.5859C83.7292 62.4557 84.1589 62.3906 84.6328 62.3906C85.3099 62.3906 85.888 62.5104 86.3672 62.75C86.8464 62.9896 87.2135 63.3099 87.4688 63.7109C87.724 64.1068 87.8516 64.5469 87.8516 65.0312H86.4062C86.4062 64.7969 86.3359 64.5703 86.1953 64.3516C86.0599 64.1276 85.8594 63.9427 85.5938 63.7969C85.3333 63.651 85.013 63.5781 84.6328 63.5781C84.2318 63.5781 83.9062 63.6406 83.6562 63.7656C83.4115 63.8854 83.2318 64.0391 83.1172 64.2266C83.0078 64.4141 82.9531 64.612 82.9531 64.8203C82.9531 64.9766 82.9792 65.1172 83.0312 65.2422C83.0885 65.362 83.1875 65.474 83.3281 65.5781C83.4688 65.6771 83.6667 65.7708 83.9219 65.8594C84.1771 65.9479 84.5026 66.0365 84.8984 66.125C85.5911 66.2812 86.1615 66.4688 86.6094 66.6875C87.0573 66.9062 87.3906 67.1745 87.6094 67.4922C87.8281 67.8099 87.9375 68.1953 87.9375 68.6484C87.9375 69.0182 87.8594 69.3568 87.7031 69.6641C87.5521 69.9714 87.3307 70.237 87.0391 70.4609C86.7526 70.6797 86.4089 70.8516 86.0078 70.9766C85.612 71.0964 85.1667 71.1562 84.6719 71.1562C83.9271 71.1562 83.2969 71.0234 82.7812 70.7578C82.2656 70.4922 81.875 70.1484 81.6094 69.7266C81.3438 69.3047 81.2109 68.8594 81.2109 68.3906H82.6641C82.6849 68.7865 82.7995 69.1016 83.0078 69.3359C83.2161 69.5651 83.4714 69.7292 83.7734 69.8281C84.0755 69.9219 84.375 69.9688 84.6719 69.9688C85.0677 69.9688 85.3984 69.9167 85.6641 69.8125C85.9349 69.7083 86.1406 69.5651 86.2812 69.3828C86.4219 69.2005 86.4922 68.9922 86.4922 68.7578Z" fill="#444444"/>
<rect x="130" y="23" width="49" height="2" fill="#28A745"/>
<rect x="179" y="8" width="32" height="32" rx="16" fill="#28A745"/>
<path d="M198.898 27.8125V29H191.453V27.9609L195.18 23.8125C195.638 23.3021 195.992 22.8698 196.242 22.5156C196.497 22.1562 196.674 21.8359 196.773 21.5547C196.878 21.2682 196.93 20.9766 196.93 20.6797C196.93 20.3047 196.852 19.9661 196.695 19.6641C196.544 19.3568 196.32 19.112 196.023 18.9297C195.727 18.7474 195.367 18.6562 194.945 18.6562C194.44 18.6562 194.018 18.7552 193.68 18.9531C193.346 19.1458 193.096 19.4167 192.93 19.7656C192.763 20.1146 192.68 20.5156 192.68 20.9688H191.234C191.234 20.3281 191.375 19.7422 191.656 19.2109C191.938 18.6797 192.354 18.2578 192.906 17.9453C193.458 17.6276 194.138 17.4688 194.945 17.4688C195.664 17.4688 196.279 17.5964 196.789 17.8516C197.299 18.1016 197.69 18.4557 197.961 18.9141C198.237 19.3672 198.375 19.8984 198.375 20.5078C198.375 20.8411 198.318 21.1797 198.203 21.5234C198.094 21.862 197.94 22.2005 197.742 22.5391C197.549 22.8776 197.323 23.2109 197.062 23.5391C196.807 23.8672 196.534 24.1901 196.242 24.5078L193.195 27.8125H198.898Z" fill="white"/>
<rect x="211" y="23" width="49" height="2" fill="#28A745"/>
<path d="M166.859 59.625V71H165.352V59.625H166.859ZM171.625 64.7422V65.9766H166.531V64.7422H171.625ZM172.398 59.625V60.8594H166.531V59.625H172.398ZM177.312 71.1562C176.724 71.1562 176.19 71.0573 175.711 70.8594C175.237 70.6562 174.828 70.3724 174.484 70.0078C174.146 69.6432 173.885 69.2109 173.703 68.7109C173.521 68.2109 173.43 67.6641 173.43 67.0703V66.7422C173.43 66.0547 173.531 65.4427 173.734 64.9062C173.938 64.3646 174.214 63.9062 174.562 63.5312C174.911 63.1562 175.307 62.8724 175.75 62.6797C176.193 62.487 176.651 62.3906 177.125 62.3906C177.729 62.3906 178.25 62.4948 178.688 62.7031C179.13 62.9115 179.492 63.2031 179.773 63.5781C180.055 63.9479 180.263 64.3854 180.398 64.8906C180.534 65.3906 180.602 65.9375 180.602 66.5312V67.1797H174.289V66H179.156V65.8906C179.135 65.5156 179.057 65.151 178.922 64.7969C178.792 64.4427 178.583 64.151 178.297 63.9219C178.01 63.6927 177.62 63.5781 177.125 63.5781C176.797 63.5781 176.495 63.6484 176.219 63.7891C175.943 63.9245 175.706 64.1276 175.508 64.3984C175.31 64.6693 175.156 65 175.047 65.3906C174.938 65.7812 174.883 66.2318 174.883 66.7422V67.0703C174.883 67.4714 174.938 67.849 175.047 68.2031C175.161 68.5521 175.326 68.8594 175.539 69.125C175.758 69.3906 176.021 69.599 176.328 69.75C176.641 69.901 176.995 69.9766 177.391 69.9766C177.901 69.9766 178.333 69.8724 178.688 69.6641C179.042 69.4557 179.352 69.1771 179.617 68.8281L180.492 69.5234C180.31 69.7995 180.078 70.0625 179.797 70.3125C179.516 70.5625 179.169 70.7656 178.758 70.9219C178.352 71.0781 177.87 71.1562 177.312 71.1562ZM187.273 69.5547V65.2031C187.273 64.8698 187.206 64.5807 187.07 64.3359C186.94 64.0859 186.742 63.8932 186.477 63.7578C186.211 63.6224 185.883 63.5547 185.492 63.5547C185.128 63.5547 184.807 63.6172 184.531 63.7422C184.26 63.8672 184.047 64.0312 183.891 64.2344C183.74 64.4375 183.664 64.6562 183.664 64.8906H182.219C182.219 64.5885 182.297 64.2891 182.453 63.9922C182.609 63.6953 182.833 63.4271 183.125 63.1875C183.422 62.9427 183.776 62.75 184.188 62.6094C184.604 62.4635 185.068 62.3906 185.578 62.3906C186.193 62.3906 186.734 62.4948 187.203 62.7031C187.677 62.9115 188.047 63.2266 188.312 63.6484C188.583 64.0651 188.719 64.5885 188.719 65.2188V69.1562C188.719 69.4375 188.742 69.737 188.789 70.0547C188.841 70.3724 188.917 70.6458 189.016 70.875V71H187.508C187.435 70.8333 187.378 70.612 187.336 70.3359C187.294 70.0547 187.273 69.7943 187.273 69.5547ZM187.523 65.875L187.539 66.8906H186.078C185.667 66.8906 185.299 66.9245 184.977 66.9922C184.654 67.0547 184.383 67.151 184.164 67.2812C183.945 67.4115 183.779 67.5755 183.664 67.7734C183.549 67.9661 183.492 68.1927 183.492 68.4531C183.492 68.7188 183.552 68.9609 183.672 69.1797C183.792 69.3984 183.971 69.5729 184.211 69.7031C184.456 69.8281 184.755 69.8906 185.109 69.8906C185.552 69.8906 185.943 69.7969 186.281 69.6094C186.62 69.4219 186.888 69.1927 187.086 68.9219C187.289 68.651 187.398 68.388 187.414 68.1328L188.031 68.8281C187.995 69.0469 187.896 69.2891 187.734 69.5547C187.573 69.8203 187.357 70.0755 187.086 70.3203C186.82 70.5599 186.503 70.7604 186.133 70.9219C185.768 71.0781 185.357 71.1562 184.898 71.1562C184.326 71.1562 183.823 71.0443 183.391 70.8203C182.964 70.5964 182.63 70.2969 182.391 69.9219C182.156 69.5417 182.039 69.1172 182.039 68.6484C182.039 68.1953 182.128 67.7969 182.305 67.4531C182.482 67.1042 182.737 66.8151 183.07 66.5859C183.404 66.3516 183.805 66.1745 184.273 66.0547C184.742 65.9349 185.266 65.875 185.844 65.875H187.523ZM194.531 62.5469V63.6562H189.961V62.5469H194.531ZM191.508 60.4922H192.953V68.9062C192.953 69.1927 192.997 69.4089 193.086 69.5547C193.174 69.7005 193.289 69.7969 193.43 69.8438C193.57 69.8906 193.721 69.9141 193.883 69.9141C194.003 69.9141 194.128 69.9036 194.258 69.8828C194.393 69.8568 194.495 69.8359 194.562 69.8203L194.57 71C194.456 71.0365 194.305 71.0703 194.117 71.1016C193.935 71.138 193.714 71.1562 193.453 71.1562C193.099 71.1562 192.773 71.0859 192.477 70.9453C192.18 70.8047 191.943 70.5703 191.766 70.2422C191.594 69.9089 191.508 69.4609 191.508 68.8984V60.4922ZM201.398 69.0469V62.5469H202.852V71H201.469L201.398 69.0469ZM201.672 67.2656L202.273 67.25C202.273 67.8125 202.214 68.3333 202.094 68.8125C201.979 69.2865 201.792 69.6979 201.531 70.0469C201.271 70.3958 200.93 70.6693 200.508 70.8672C200.086 71.0599 199.573 71.1562 198.969 71.1562C198.557 71.1562 198.18 71.0964 197.836 70.9766C197.497 70.8568 197.206 70.6719 196.961 70.4219C196.716 70.1719 196.526 69.8464 196.391 69.4453C196.26 69.0443 196.195 68.5625 196.195 68V62.5469H197.641V68.0156C197.641 68.3958 197.682 68.7109 197.766 68.9609C197.854 69.2057 197.971 69.401 198.117 69.5469C198.268 69.6875 198.435 69.7865 198.617 69.8438C198.805 69.901 198.997 69.9297 199.195 69.9297C199.81 69.9297 200.297 69.8125 200.656 69.5781C201.016 69.3385 201.273 69.0182 201.43 68.6172C201.591 68.2109 201.672 67.7604 201.672 67.2656ZM206.5 63.875V71H205.055V62.5469H206.461L206.5 63.875ZM209.141 62.5L209.133 63.8438C209.013 63.8177 208.898 63.8021 208.789 63.7969C208.685 63.7865 208.565 63.7812 208.43 63.7812C208.096 63.7812 207.802 63.8333 207.547 63.9375C207.292 64.0417 207.076 64.1875 206.898 64.375C206.721 64.5625 206.581 64.7865 206.477 65.0469C206.378 65.3021 206.312 65.5833 206.281 65.8906L205.875 66.125C205.875 65.6146 205.924 65.1354 206.023 64.6875C206.128 64.2396 206.286 63.8438 206.5 63.5C206.714 63.151 206.984 62.8802 207.312 62.6875C207.646 62.4896 208.042 62.3906 208.5 62.3906C208.604 62.3906 208.724 62.4036 208.859 62.4297C208.995 62.4505 209.089 62.474 209.141 62.5ZM213.828 71.1562C213.24 71.1562 212.706 71.0573 212.227 70.8594C211.753 70.6562 211.344 70.3724 211 70.0078C210.661 69.6432 210.401 69.2109 210.219 68.7109C210.036 68.2109 209.945 67.6641 209.945 67.0703V66.7422C209.945 66.0547 210.047 65.4427 210.25 64.9062C210.453 64.3646 210.729 63.9062 211.078 63.5312C211.427 63.1562 211.823 62.8724 212.266 62.6797C212.708 62.487 213.167 62.3906 213.641 62.3906C214.245 62.3906 214.766 62.4948 215.203 62.7031C215.646 62.9115 216.008 63.2031 216.289 63.5781C216.57 63.9479 216.779 64.3854 216.914 64.8906C217.049 65.3906 217.117 65.9375 217.117 66.5312V67.1797H210.805V66H215.672V65.8906C215.651 65.5156 215.573 65.151 215.438 64.7969C215.307 64.4427 215.099 64.151 214.812 63.9219C214.526 63.6927 214.135 63.5781 213.641 63.5781C213.312 63.5781 213.01 63.6484 212.734 63.7891C212.458 63.9245 212.221 64.1276 212.023 64.3984C211.826 64.6693 211.672 65 211.562 65.3906C211.453 65.7812 211.398 66.2318 211.398 66.7422V67.0703C211.398 67.4714 211.453 67.849 211.562 68.2031C211.677 68.5521 211.841 68.8594 212.055 69.125C212.273 69.3906 212.536 69.599 212.844 69.75C213.156 69.901 213.51 69.9766 213.906 69.9766C214.417 69.9766 214.849 69.8724 215.203 69.6641C215.557 69.4557 215.867 69.1771 216.133 68.8281L217.008 69.5234C216.826 69.7995 216.594 70.0625 216.312 70.3125C216.031 70.5625 215.685 70.7656 215.273 70.9219C214.867 71.0781 214.385 71.1562 213.828 71.1562ZM223.727 68.7578C223.727 68.5495 223.68 68.3568 223.586 68.1797C223.497 67.9974 223.312 67.8333 223.031 67.6875C222.755 67.5365 222.339 67.4062 221.781 67.2969C221.312 67.1979 220.888 67.0807 220.508 66.9453C220.133 66.8099 219.812 66.6458 219.547 66.4531C219.286 66.2604 219.086 66.0339 218.945 65.7734C218.805 65.513 218.734 65.2083 218.734 64.8594C218.734 64.526 218.807 64.2109 218.953 63.9141C219.104 63.6172 219.315 63.3542 219.586 63.125C219.862 62.8958 220.193 62.7161 220.578 62.5859C220.964 62.4557 221.393 62.3906 221.867 62.3906C222.544 62.3906 223.122 62.5104 223.602 62.75C224.081 62.9896 224.448 63.3099 224.703 63.7109C224.958 64.1068 225.086 64.5469 225.086 65.0312H223.641C223.641 64.7969 223.57 64.5703 223.43 64.3516C223.294 64.1276 223.094 63.9427 222.828 63.7969C222.568 63.651 222.247 63.5781 221.867 63.5781C221.466 63.5781 221.141 63.6406 220.891 63.7656C220.646 63.8854 220.466 64.0391 220.352 64.2266C220.242 64.4141 220.188 64.612 220.188 64.8203C220.188 64.9766 220.214 65.1172 220.266 65.2422C220.323 65.362 220.422 65.474 220.562 65.5781C220.703 65.6771 220.901 65.7708 221.156 65.8594C221.411 65.9479 221.737 66.0365 222.133 66.125C222.826 66.2812 223.396 66.4688 223.844 66.6875C224.292 66.9062 224.625 67.1745 224.844 67.4922C225.062 67.8099 225.172 68.1953 225.172 68.6484C225.172 69.0182 225.094 69.3568 224.938 69.6641C224.786 69.9714 224.565 70.237 224.273 70.4609C223.987 70.6797 223.643 70.8516 223.242 70.9766C222.846 71.0964 222.401 71.1562 221.906 71.1562C221.161 71.1562 220.531 71.0234 220.016 70.7578C219.5 70.4922 219.109 70.1484 218.844 69.7266C218.578 69.3047 218.445 68.8594 218.445 68.3906H219.898C219.919 68.7865 220.034 69.1016 220.242 69.3359C220.451 69.5651 220.706 69.7292 221.008 69.8281C221.31 69.9219 221.609 69.9688 221.906 69.9688C222.302 69.9688 222.633 69.9167 222.898 69.8125C223.169 69.7083 223.375 69.5651 223.516 69.3828C223.656 69.2005 223.727 68.9922 223.727 68.7578Z" fill="#444444"/>
<rect x="260" y="23" width="49" height="2" fill="#28A745"/>
<rect x="309" y="8" width="32" height="32" rx="16" fill="#28A745"/>
<path d="M323.555 22.6016H324.586C325.091 22.6016 325.508 22.5182 325.836 22.3516C326.169 22.1797 326.417 21.9479 326.578 21.6562C326.745 21.3594 326.828 21.026 326.828 20.6562C326.828 20.2188 326.755 19.8516 326.609 19.5547C326.464 19.2578 326.245 19.0339 325.953 18.8828C325.661 18.7318 325.292 18.6562 324.844 18.6562C324.438 18.6562 324.078 18.737 323.766 18.8984C323.458 19.0547 323.216 19.2786 323.039 19.5703C322.867 19.862 322.781 20.2057 322.781 20.6016H321.336C321.336 20.0234 321.482 19.4974 321.773 19.0234C322.065 18.5495 322.474 18.1719 323 17.8906C323.531 17.6094 324.146 17.4688 324.844 17.4688C325.531 17.4688 326.133 17.5911 326.648 17.8359C327.164 18.0755 327.565 18.4349 327.852 18.9141C328.138 19.388 328.281 19.9792 328.281 20.6875C328.281 20.974 328.214 21.2812 328.078 21.6094C327.948 21.9323 327.742 22.2344 327.461 22.5156C327.185 22.7969 326.826 23.0286 326.383 23.2109C325.94 23.388 325.409 23.4766 324.789 23.4766H323.555V22.6016ZM323.555 23.7891V22.9219H324.789C325.513 22.9219 326.112 23.0078 326.586 23.1797C327.06 23.3516 327.432 23.5807 327.703 23.8672C327.979 24.1536 328.172 24.4688 328.281 24.8125C328.396 25.151 328.453 25.4896 328.453 25.8281C328.453 26.3594 328.362 26.8307 328.18 27.2422C328.003 27.6536 327.75 28.0026 327.422 28.2891C327.099 28.5755 326.719 28.7917 326.281 28.9375C325.844 29.0833 325.367 29.1562 324.852 29.1562C324.357 29.1562 323.891 29.0859 323.453 28.9453C323.021 28.8047 322.638 28.6016 322.305 28.3359C321.971 28.0651 321.711 27.7344 321.523 27.3438C321.336 26.9479 321.242 26.4974 321.242 25.9922H322.688C322.688 26.388 322.773 26.7344 322.945 27.0312C323.122 27.3281 323.372 27.5599 323.695 27.7266C324.023 27.888 324.409 27.9688 324.852 27.9688C325.294 27.9688 325.674 27.8932 325.992 27.7422C326.315 27.5859 326.562 27.3516 326.734 27.0391C326.911 26.7266 327 26.3333 327 25.8594C327 25.3854 326.901 24.9974 326.703 24.6953C326.505 24.388 326.224 24.1615 325.859 24.0156C325.5 23.8646 325.076 23.7891 324.586 23.7891H323.555Z" fill="white"/>
<rect x="341" y="23" width="49" height="2" fill="#28A745"/>
<path d="M294.75 60.6328L290.984 71H289.445L293.781 59.625H294.773L294.75 60.6328ZM297.906 71L294.133 60.6328L294.109 59.625H295.102L299.453 71H297.906ZM297.711 66.7891V68.0234H291.32V66.7891H297.711ZM302.195 64.2266V71H300.742V62.5469H302.117L302.195 64.2266ZM301.898 66.4531L301.227 66.4297C301.232 65.8516 301.307 65.3177 301.453 64.8281C301.599 64.3333 301.815 63.9036 302.102 63.5391C302.388 63.1745 302.745 62.8932 303.172 62.6953C303.599 62.4922 304.094 62.3906 304.656 62.3906C305.052 62.3906 305.417 62.4479 305.75 62.5625C306.083 62.6719 306.372 62.8464 306.617 63.0859C306.862 63.3255 307.052 63.6328 307.188 64.0078C307.323 64.3828 307.391 64.8359 307.391 65.3672V71H305.945V65.4375C305.945 64.9948 305.87 64.6406 305.719 64.375C305.573 64.1094 305.365 63.9167 305.094 63.7969C304.823 63.6719 304.505 63.6094 304.141 63.6094C303.714 63.6094 303.357 63.6849 303.07 63.8359C302.784 63.987 302.555 64.1953 302.383 64.4609C302.211 64.7266 302.086 65.0312 302.008 65.375C301.935 65.7135 301.898 66.0729 301.898 66.4531ZM307.375 65.6562L306.406 65.9531C306.411 65.4896 306.487 65.0443 306.633 64.6172C306.784 64.1901 307 63.8099 307.281 63.4766C307.568 63.1432 307.919 62.8802 308.336 62.6875C308.753 62.4896 309.229 62.3906 309.766 62.3906C310.219 62.3906 310.62 62.4505 310.969 62.5703C311.323 62.6901 311.62 62.875 311.859 63.125C312.104 63.3698 312.289 63.6849 312.414 64.0703C312.539 64.4557 312.602 64.9141 312.602 65.4453V71H311.148V65.4297C311.148 64.9557 311.073 64.5885 310.922 64.3281C310.776 64.0625 310.568 63.8776 310.297 63.7734C310.031 63.6641 309.714 63.6094 309.344 63.6094C309.026 63.6094 308.745 63.6641 308.5 63.7734C308.255 63.8828 308.049 64.0339 307.883 64.2266C307.716 64.4141 307.589 64.6302 307.5 64.875C307.417 65.1198 307.375 65.3802 307.375 65.6562ZM318.297 71.1562C317.708 71.1562 317.174 71.0573 316.695 70.8594C316.221 70.6562 315.812 70.3724 315.469 70.0078C315.13 69.6432 314.87 69.2109 314.688 68.7109C314.505 68.2109 314.414 67.6641 314.414 67.0703V66.7422C314.414 66.0547 314.516 65.4427 314.719 64.9062C314.922 64.3646 315.198 63.9062 315.547 63.5312C315.896 63.1562 316.292 62.8724 316.734 62.6797C317.177 62.487 317.635 62.3906 318.109 62.3906C318.714 62.3906 319.234 62.4948 319.672 62.7031C320.115 62.9115 320.477 63.2031 320.758 63.5781C321.039 63.9479 321.247 64.3854 321.383 64.8906C321.518 65.3906 321.586 65.9375 321.586 66.5312V67.1797H315.273V66H320.141V65.8906C320.12 65.5156 320.042 65.151 319.906 64.7969C319.776 64.4427 319.568 64.151 319.281 63.9219C318.995 63.6927 318.604 63.5781 318.109 63.5781C317.781 63.5781 317.479 63.6484 317.203 63.7891C316.927 63.9245 316.69 64.1276 316.492 64.3984C316.294 64.6693 316.141 65 316.031 65.3906C315.922 65.7812 315.867 66.2318 315.867 66.7422V67.0703C315.867 67.4714 315.922 67.849 316.031 68.2031C316.146 68.5521 316.31 68.8594 316.523 69.125C316.742 69.3906 317.005 69.599 317.312 69.75C317.625 69.901 317.979 69.9766 318.375 69.9766C318.885 69.9766 319.318 69.8724 319.672 69.6641C320.026 69.4557 320.336 69.1771 320.602 68.8281L321.477 69.5234C321.294 69.7995 321.062 70.0625 320.781 70.3125C320.5 70.5625 320.154 70.7656 319.742 70.9219C319.336 71.0781 318.854 71.1562 318.297 71.1562ZM324.719 64.3516V71H323.273V62.5469H324.641L324.719 64.3516ZM324.375 66.4531L323.773 66.4297C323.779 65.8516 323.865 65.3177 324.031 64.8281C324.198 64.3333 324.432 63.9036 324.734 63.5391C325.036 63.1745 325.396 62.8932 325.812 62.6953C326.234 62.4922 326.701 62.3906 327.211 62.3906C327.628 62.3906 328.003 62.4479 328.336 62.5625C328.669 62.6719 328.953 62.849 329.188 63.0938C329.427 63.3385 329.609 63.6562 329.734 64.0469C329.859 64.4323 329.922 64.9036 329.922 65.4609V71H328.469V65.4453C328.469 65.0026 328.404 64.6484 328.273 64.3828C328.143 64.112 327.953 63.9167 327.703 63.7969C327.453 63.6719 327.146 63.6094 326.781 63.6094C326.422 63.6094 326.094 63.6849 325.797 63.8359C325.505 63.987 325.253 64.1953 325.039 64.4609C324.831 64.7266 324.667 65.0312 324.547 65.375C324.432 65.7135 324.375 66.0729 324.375 66.4531ZM333.688 62.5469V71H332.234V62.5469H333.688ZM332.125 60.3047C332.125 60.0703 332.195 59.8724 332.336 59.7109C332.482 59.5495 332.695 59.4688 332.977 59.4688C333.253 59.4688 333.464 59.5495 333.609 59.7109C333.76 59.8724 333.836 60.0703 333.836 60.3047C333.836 60.5286 333.76 60.7214 333.609 60.8828C333.464 61.0391 333.253 61.1172 332.977 61.1172C332.695 61.1172 332.482 61.0391 332.336 60.8828C332.195 60.7214 332.125 60.5286 332.125 60.3047ZM339.547 62.5469V63.6562H334.977V62.5469H339.547ZM336.523 60.4922H337.969V68.9062C337.969 69.1927 338.013 69.4089 338.102 69.5547C338.19 69.7005 338.305 69.7969 338.445 69.8438C338.586 69.8906 338.737 69.9141 338.898 69.9141C339.018 69.9141 339.143 69.9036 339.273 69.8828C339.409 69.8568 339.51 69.8359 339.578 69.8203L339.586 71C339.471 71.0365 339.32 71.0703 339.133 71.1016C338.951 71.138 338.729 71.1562 338.469 71.1562C338.115 71.1562 337.789 71.0859 337.492 70.9453C337.195 70.8047 336.958 70.5703 336.781 70.2422C336.609 69.9089 336.523 69.4609 336.523 68.8984V60.4922ZM342.812 62.5469V71H341.359V62.5469H342.812ZM341.25 60.3047C341.25 60.0703 341.32 59.8724 341.461 59.7109C341.607 59.5495 341.82 59.4688 342.102 59.4688C342.378 59.4688 342.589 59.5495 342.734 59.7109C342.885 59.8724 342.961 60.0703 342.961 60.3047C342.961 60.5286 342.885 60.7214 342.734 60.8828C342.589 61.0391 342.378 61.1172 342.102 61.1172C341.82 61.1172 341.607 61.0391 341.461 60.8828C341.32 60.7214 341.25 60.5286 341.25 60.3047ZM348.641 71.1562C348.052 71.1562 347.518 71.0573 347.039 70.8594C346.565 70.6562 346.156 70.3724 345.812 70.0078C345.474 69.6432 345.214 69.2109 345.031 68.7109C344.849 68.2109 344.758 67.6641 344.758 67.0703V66.7422C344.758 66.0547 344.859 65.4427 345.062 64.9062C345.266 64.3646 345.542 63.9062 345.891 63.5312C346.24 63.1562 346.635 62.8724 347.078 62.6797C347.521 62.487 347.979 62.3906 348.453 62.3906C349.057 62.3906 349.578 62.4948 350.016 62.7031C350.458 62.9115 350.82 63.2031 351.102 63.5781C351.383 63.9479 351.591 64.3854 351.727 64.8906C351.862 65.3906 351.93 65.9375 351.93 66.5312V67.1797H345.617V66H350.484V65.8906C350.464 65.5156 350.385 65.151 350.25 64.7969C350.12 64.4427 349.911 64.151 349.625 63.9219C349.339 63.6927 348.948 63.5781 348.453 63.5781C348.125 63.5781 347.823 63.6484 347.547 63.7891C347.271 63.9245 347.034 64.1276 346.836 64.3984C346.638 64.6693 346.484 65 346.375 65.3906C346.266 65.7812 346.211 66.2318 346.211 66.7422V67.0703C346.211 67.4714 346.266 67.849 346.375 68.2031C346.49 68.5521 346.654 68.8594 346.867 69.125C347.086 69.3906 347.349 69.599 347.656 69.75C347.969 69.901 348.323 69.9766 348.719 69.9766C349.229 69.9766 349.661 69.8724 350.016 69.6641C350.37 69.4557 350.68 69.1771 350.945 68.8281L351.82 69.5234C351.638 69.7995 351.406 70.0625 351.125 70.3125C350.844 70.5625 350.497 70.7656 350.086 70.9219C349.68 71.0781 349.198 71.1562 348.641 71.1562ZM358.539 68.7578C358.539 68.5495 358.492 68.3568 358.398 68.1797C358.31 67.9974 358.125 67.8333 357.844 67.6875C357.568 67.5365 357.151 67.4062 356.594 67.2969C356.125 67.1979 355.701 67.0807 355.32 66.9453C354.945 66.8099 354.625 66.6458 354.359 66.4531C354.099 66.2604 353.898 66.0339 353.758 65.7734C353.617 65.513 353.547 65.2083 353.547 64.8594C353.547 64.526 353.62 64.2109 353.766 63.9141C353.917 63.6172 354.128 63.3542 354.398 63.125C354.674 62.8958 355.005 62.7161 355.391 62.5859C355.776 62.4557 356.206 62.3906 356.68 62.3906C357.357 62.3906 357.935 62.5104 358.414 62.75C358.893 62.9896 359.26 63.3099 359.516 63.7109C359.771 64.1068 359.898 64.5469 359.898 65.0312H358.453C358.453 64.7969 358.383 64.5703 358.242 64.3516C358.107 64.1276 357.906 63.9427 357.641 63.7969C357.38 63.651 357.06 63.5781 356.68 63.5781C356.279 63.5781 355.953 63.6406 355.703 63.7656C355.458 63.8854 355.279 64.0391 355.164 64.2266C355.055 64.4141 355 64.612 355 64.8203C355 64.9766 355.026 65.1172 355.078 65.2422C355.135 65.362 355.234 65.474 355.375 65.5781C355.516 65.6771 355.714 65.7708 355.969 65.8594C356.224 65.9479 356.549 66.0365 356.945 66.125C357.638 66.2812 358.208 66.4688 358.656 66.6875C359.104 66.9062 359.438 67.1745 359.656 67.4922C359.875 67.8099 359.984 68.1953 359.984 68.6484C359.984 69.0182 359.906 69.3568 359.75 69.6641C359.599 69.9714 359.378 70.237 359.086 70.4609C358.799 70.6797 358.456 70.8516 358.055 70.9766C357.659 71.0964 357.214 71.1562 356.719 71.1562C355.974 71.1562 355.344 71.0234 354.828 70.7578C354.312 70.4922 353.922 70.1484 353.656 69.7266C353.391 69.3047 353.258 68.8594 353.258 68.3906H354.711C354.732 68.7865 354.846 69.1016 355.055 69.3359C355.263 69.5651 355.518 69.7292 355.82 69.8281C356.122 69.9219 356.422 69.9688 356.719 69.9688C357.115 69.9688 357.445 69.9167 357.711 69.8125C357.982 69.7083 358.188 69.5651 358.328 69.3828C358.469 69.2005 358.539 68.9922 358.539 68.7578Z" fill="#444444"/>
<rect x="390" y="23" width="49" height="2" fill="#28A745"/>
<rect x="439" y="8" width="32" height="32" rx="16" fill="#28A745"/>
<path d="M459.133 25.1719V26.3594H450.914V25.5078L456.008 17.625H457.188L455.922 19.9062L452.555 25.1719H459.133ZM457.547 17.625V29H456.102V17.625H457.547Z" fill="white"/>
<rect x="471" y="23" width="49" height="2" fill="#28A745"/>
<path d="M432.258 69.7734V71H426.57V69.7734H432.258ZM426.867 59.625V71H425.359V59.625H426.867ZM433.383 66.8672V66.6875C433.383 66.0781 433.471 65.513 433.648 64.9922C433.826 64.4661 434.081 64.0104 434.414 63.625C434.747 63.2344 435.151 62.9323 435.625 62.7188C436.099 62.5 436.63 62.3906 437.219 62.3906C437.812 62.3906 438.346 62.5 438.82 62.7188C439.299 62.9323 439.706 63.2344 440.039 63.625C440.378 64.0104 440.635 64.4661 440.812 64.9922C440.99 65.513 441.078 66.0781 441.078 66.6875V66.8672C441.078 67.4766 440.99 68.0417 440.812 68.5625C440.635 69.0833 440.378 69.5391 440.039 69.9297C439.706 70.3151 439.302 70.6172 438.828 70.8359C438.359 71.0495 437.828 71.1562 437.234 71.1562C436.641 71.1562 436.107 71.0495 435.633 70.8359C435.159 70.6172 434.753 70.3151 434.414 69.9297C434.081 69.5391 433.826 69.0833 433.648 68.5625C433.471 68.0417 433.383 67.4766 433.383 66.8672ZM434.828 66.6875V66.8672C434.828 67.2891 434.878 67.6875 434.977 68.0625C435.076 68.4323 435.224 68.7604 435.422 69.0469C435.625 69.3333 435.878 69.5599 436.18 69.7266C436.482 69.888 436.833 69.9688 437.234 69.9688C437.63 69.9688 437.977 69.888 438.273 69.7266C438.576 69.5599 438.826 69.3333 439.023 69.0469C439.221 68.7604 439.37 68.4323 439.469 68.0625C439.573 67.6875 439.625 67.2891 439.625 66.8672V66.6875C439.625 66.2708 439.573 65.8776 439.469 65.5078C439.37 65.1328 439.219 64.8021 439.016 64.5156C438.818 64.224 438.568 63.9948 438.266 63.8281C437.969 63.6615 437.62 63.5781 437.219 63.5781C436.823 63.5781 436.474 63.6615 436.172 63.8281C435.875 63.9948 435.625 64.224 435.422 64.5156C435.224 64.8021 435.076 65.1328 434.977 65.5078C434.878 65.8776 434.828 66.2708 434.828 66.6875ZM446.273 69.9688C446.617 69.9688 446.935 69.8984 447.227 69.7578C447.518 69.6172 447.758 69.4245 447.945 69.1797C448.133 68.9297 448.24 68.6458 448.266 68.3281H449.641C449.615 68.8281 449.445 69.2943 449.133 69.7266C448.826 70.1536 448.422 70.5 447.922 70.7656C447.422 71.026 446.872 71.1562 446.273 71.1562C445.638 71.1562 445.083 71.0443 444.609 70.8203C444.141 70.5964 443.75 70.2891 443.438 69.8984C443.13 69.5078 442.898 69.0599 442.742 68.5547C442.591 68.0443 442.516 67.5052 442.516 66.9375V66.6094C442.516 66.0417 442.591 65.5052 442.742 65C442.898 64.4896 443.13 64.0391 443.438 63.6484C443.75 63.2578 444.141 62.9505 444.609 62.7266C445.083 62.5026 445.638 62.3906 446.273 62.3906C446.935 62.3906 447.513 62.526 448.008 62.7969C448.503 63.0625 448.891 63.4271 449.172 63.8906C449.458 64.349 449.615 64.8698 449.641 65.4531H448.266C448.24 65.1042 448.141 64.7891 447.969 64.5078C447.802 64.2266 447.573 64.0026 447.281 63.8359C446.995 63.6641 446.659 63.5781 446.273 63.5781C445.831 63.5781 445.458 63.6667 445.156 63.8438C444.859 64.0156 444.622 64.25 444.445 64.5469C444.273 64.8385 444.148 65.1641 444.07 65.5234C443.997 65.8776 443.961 66.2396 443.961 66.6094V66.9375C443.961 67.3073 443.997 67.6719 444.07 68.0312C444.143 68.3906 444.266 68.7161 444.438 69.0078C444.615 69.2995 444.852 69.5339 445.148 69.7109C445.451 69.8828 445.826 69.9688 446.273 69.9688ZM456.25 69.5547V65.2031C456.25 64.8698 456.182 64.5807 456.047 64.3359C455.917 64.0859 455.719 63.8932 455.453 63.7578C455.188 63.6224 454.859 63.5547 454.469 63.5547C454.104 63.5547 453.784 63.6172 453.508 63.7422C453.237 63.8672 453.023 64.0312 452.867 64.2344C452.716 64.4375 452.641 64.6562 452.641 64.8906H451.195C451.195 64.5885 451.273 64.2891 451.43 63.9922C451.586 63.6953 451.81 63.4271 452.102 63.1875C452.398 62.9427 452.753 62.75 453.164 62.6094C453.581 62.4635 454.044 62.3906 454.555 62.3906C455.169 62.3906 455.711 62.4948 456.18 62.7031C456.654 62.9115 457.023 63.2266 457.289 63.6484C457.56 64.0651 457.695 64.5885 457.695 65.2188V69.1562C457.695 69.4375 457.719 69.737 457.766 70.0547C457.818 70.3724 457.893 70.6458 457.992 70.875V71H456.484C456.411 70.8333 456.354 70.612 456.312 70.3359C456.271 70.0547 456.25 69.7943 456.25 69.5547ZM456.5 65.875L456.516 66.8906H455.055C454.643 66.8906 454.276 66.9245 453.953 66.9922C453.63 67.0547 453.359 67.151 453.141 67.2812C452.922 67.4115 452.755 67.5755 452.641 67.7734C452.526 67.9661 452.469 68.1927 452.469 68.4531C452.469 68.7188 452.529 68.9609 452.648 69.1797C452.768 69.3984 452.948 69.5729 453.188 69.7031C453.432 69.8281 453.732 69.8906 454.086 69.8906C454.529 69.8906 454.919 69.7969 455.258 69.6094C455.596 69.4219 455.865 69.1927 456.062 68.9219C456.266 68.651 456.375 68.388 456.391 68.1328L457.008 68.8281C456.971 69.0469 456.872 69.2891 456.711 69.5547C456.549 69.8203 456.333 70.0755 456.062 70.3203C455.797 70.5599 455.479 70.7604 455.109 70.9219C454.745 71.0781 454.333 71.1562 453.875 71.1562C453.302 71.1562 452.799 71.0443 452.367 70.8203C451.94 70.5964 451.607 70.2969 451.367 69.9219C451.133 69.5417 451.016 69.1172 451.016 68.6484C451.016 68.1953 451.104 67.7969 451.281 67.4531C451.458 67.1042 451.714 66.8151 452.047 66.5859C452.38 66.3516 452.781 66.1745 453.25 66.0547C453.719 65.9349 454.242 65.875 454.82 65.875H456.5ZM463.508 62.5469V63.6562H458.938V62.5469H463.508ZM460.484 60.4922H461.93V68.9062C461.93 69.1927 461.974 69.4089 462.062 69.5547C462.151 69.7005 462.266 69.7969 462.406 69.8438C462.547 69.8906 462.698 69.9141 462.859 69.9141C462.979 69.9141 463.104 69.9036 463.234 69.8828C463.37 69.8568 463.471 69.8359 463.539 69.8203L463.547 71C463.432 71.0365 463.281 71.0703 463.094 71.1016C462.911 71.138 462.69 71.1562 462.43 71.1562C462.076 71.1562 461.75 71.0859 461.453 70.9453C461.156 70.8047 460.919 70.5703 460.742 70.2422C460.57 69.9089 460.484 69.4609 460.484 68.8984V60.4922ZM466.773 62.5469V71H465.32V62.5469H466.773ZM465.211 60.3047C465.211 60.0703 465.281 59.8724 465.422 59.7109C465.568 59.5495 465.781 59.4688 466.062 59.4688C466.339 59.4688 466.549 59.5495 466.695 59.7109C466.846 59.8724 466.922 60.0703 466.922 60.3047C466.922 60.5286 466.846 60.7214 466.695 60.8828C466.549 61.0391 466.339 61.1172 466.062 61.1172C465.781 61.1172 465.568 61.0391 465.422 60.8828C465.281 60.7214 465.211 60.5286 465.211 60.3047ZM468.711 66.8672V66.6875C468.711 66.0781 468.799 65.513 468.977 64.9922C469.154 64.4661 469.409 64.0104 469.742 63.625C470.076 63.2344 470.479 62.9323 470.953 62.7188C471.427 62.5 471.958 62.3906 472.547 62.3906C473.141 62.3906 473.674 62.5 474.148 62.7188C474.628 62.9323 475.034 63.2344 475.367 63.625C475.706 64.0104 475.964 64.4661 476.141 64.9922C476.318 65.513 476.406 66.0781 476.406 66.6875V66.8672C476.406 67.4766 476.318 68.0417 476.141 68.5625C475.964 69.0833 475.706 69.5391 475.367 69.9297C475.034 70.3151 474.63 70.6172 474.156 70.8359C473.688 71.0495 473.156 71.1562 472.562 71.1562C471.969 71.1562 471.435 71.0495 470.961 70.8359C470.487 70.6172 470.081 70.3151 469.742 69.9297C469.409 69.5391 469.154 69.0833 468.977 68.5625C468.799 68.0417 468.711 67.4766 468.711 66.8672ZM470.156 66.6875V66.8672C470.156 67.2891 470.206 67.6875 470.305 68.0625C470.404 68.4323 470.552 68.7604 470.75 69.0469C470.953 69.3333 471.206 69.5599 471.508 69.7266C471.81 69.888 472.161 69.9688 472.562 69.9688C472.958 69.9688 473.305 69.888 473.602 69.7266C473.904 69.5599 474.154 69.3333 474.352 69.0469C474.549 68.7604 474.698 68.4323 474.797 68.0625C474.901 67.6875 474.953 67.2891 474.953 66.8672V66.6875C474.953 66.2708 474.901 65.8776 474.797 65.5078C474.698 65.1328 474.547 64.8021 474.344 64.5156C474.146 64.224 473.896 63.9948 473.594 63.8281C473.297 63.6615 472.948 63.5781 472.547 63.5781C472.151 63.5781 471.802 63.6615 471.5 63.8281C471.203 63.9948 470.953 64.224 470.75 64.5156C470.552 64.8021 470.404 65.1328 470.305 65.5078C470.206 65.8776 470.156 66.2708 470.156 66.6875ZM479.664 64.3516V71H478.219V62.5469H479.586L479.664 64.3516ZM479.32 66.4531L478.719 66.4297C478.724 65.8516 478.81 65.3177 478.977 64.8281C479.143 64.3333 479.378 63.9036 479.68 63.5391C479.982 63.1745 480.341 62.8932 480.758 62.6953C481.18 62.4922 481.646 62.3906 482.156 62.3906C482.573 62.3906 482.948 62.4479 483.281 62.5625C483.615 62.6719 483.898 62.849 484.133 63.0938C484.372 63.3385 484.555 63.6562 484.68 64.0469C484.805 64.4323 484.867 64.9036 484.867 65.4609V71H483.414V65.4453C483.414 65.0026 483.349 64.6484 483.219 64.3828C483.089 64.112 482.898 63.9167 482.648 63.7969C482.398 63.6719 482.091 63.6094 481.727 63.6094C481.367 63.6094 481.039 63.6849 480.742 63.8359C480.451 63.987 480.198 64.1953 479.984 64.4609C479.776 64.7266 479.612 65.0312 479.492 65.375C479.378 65.7135 479.32 66.0729 479.32 66.4531Z" fill="#444444"/>
<rect x="520" y="23" width="49" height="2" fill="#00C2FF"/>
<rect x="569" y="8" width="32" height="32" rx="16" fill="#00C2FF"/>
<path d="M583.273 23.5859L582.117 23.2891L582.688 17.625H588.523V18.9609H583.914L583.57 22.0547C583.779 21.9349 584.042 21.8229 584.359 21.7188C584.682 21.6146 585.052 21.5625 585.469 21.5625C585.995 21.5625 586.466 21.6536 586.883 21.8359C587.299 22.013 587.654 22.2682 587.945 22.6016C588.242 22.9349 588.469 23.3359 588.625 23.8047C588.781 24.2734 588.859 24.7969 588.859 25.375C588.859 25.9219 588.784 26.4245 588.633 26.8828C588.487 27.3411 588.266 27.7422 587.969 28.0859C587.672 28.4245 587.297 28.6875 586.844 28.875C586.396 29.0625 585.867 29.1562 585.258 29.1562C584.799 29.1562 584.365 29.0938 583.953 28.9688C583.547 28.8385 583.182 28.6432 582.859 28.3828C582.542 28.1172 582.281 27.7891 582.078 27.3984C581.88 27.0026 581.755 26.5391 581.703 26.0078H583.078C583.141 26.4349 583.266 26.7943 583.453 27.0859C583.641 27.3776 583.885 27.599 584.188 27.75C584.495 27.8958 584.852 27.9688 585.258 27.9688C585.602 27.9688 585.906 27.9089 586.172 27.7891C586.438 27.6693 586.661 27.4974 586.844 27.2734C587.026 27.0495 587.164 26.7786 587.258 26.4609C587.357 26.1432 587.406 25.7865 587.406 25.3906C587.406 25.0312 587.357 24.6979 587.258 24.3906C587.159 24.0833 587.01 23.8151 586.812 23.5859C586.62 23.3568 586.383 23.1797 586.102 23.0547C585.82 22.9245 585.497 22.8594 585.133 22.8594C584.648 22.8594 584.281 22.9245 584.031 23.0547C583.786 23.1849 583.534 23.362 583.273 23.5859Z" fill="white"/>
<rect x="601" y="23" width="49" height="2" fill="#00C2FF"/>
<path d="M565.266 66.5391H562.227V65.3125H565.266C565.854 65.3125 566.331 65.2188 566.695 65.0312C567.06 64.8438 567.326 64.5833 567.492 64.25C567.664 63.9167 567.75 63.5365 567.75 63.1094C567.75 62.7188 567.664 62.3516 567.492 62.0078C567.326 61.6641 567.06 61.388 566.695 61.1797C566.331 60.9661 565.854 60.8594 565.266 60.8594H562.578V71H561.07V59.625H565.266C566.125 59.625 566.852 59.7734 567.445 60.0703C568.039 60.3672 568.49 60.7786 568.797 61.3047C569.104 61.8255 569.258 62.4219 569.258 63.0938C569.258 63.8229 569.104 64.4453 568.797 64.9609C568.49 65.4766 568.039 65.8698 567.445 66.1406C566.852 66.4062 566.125 66.5391 565.266 66.5391ZM572.391 59V71H570.945V59H572.391ZM572.047 66.4531L571.445 66.4297C571.451 65.8516 571.536 65.3177 571.703 64.8281C571.87 64.3333 572.104 63.9036 572.406 63.5391C572.708 63.1745 573.068 62.8932 573.484 62.6953C573.906 62.4922 574.372 62.3906 574.883 62.3906C575.299 62.3906 575.674 62.4479 576.008 62.5625C576.341 62.6719 576.625 62.849 576.859 63.0938C577.099 63.3385 577.281 63.6562 577.406 64.0469C577.531 64.4323 577.594 64.9036 577.594 65.4609V71H576.141V65.4453C576.141 65.0026 576.076 64.6484 575.945 64.3828C575.815 64.112 575.625 63.9167 575.375 63.7969C575.125 63.6719 574.818 63.6094 574.453 63.6094C574.094 63.6094 573.766 63.6849 573.469 63.8359C573.177 63.987 572.924 64.1953 572.711 64.4609C572.503 64.7266 572.339 65.0312 572.219 65.375C572.104 65.7135 572.047 66.0729 572.047 66.4531ZM579.375 66.8672V66.6875C579.375 66.0781 579.464 65.513 579.641 64.9922C579.818 64.4661 580.073 64.0104 580.406 63.625C580.74 63.2344 581.143 62.9323 581.617 62.7188C582.091 62.5 582.622 62.3906 583.211 62.3906C583.805 62.3906 584.339 62.5 584.812 62.7188C585.292 62.9323 585.698 63.2344 586.031 63.625C586.37 64.0104 586.628 64.4661 586.805 64.9922C586.982 65.513 587.07 66.0781 587.07 66.6875V66.8672C587.07 67.4766 586.982 68.0417 586.805 68.5625C586.628 69.0833 586.37 69.5391 586.031 69.9297C585.698 70.3151 585.294 70.6172 584.82 70.8359C584.352 71.0495 583.82 71.1562 583.227 71.1562C582.633 71.1562 582.099 71.0495 581.625 70.8359C581.151 70.6172 580.745 70.3151 580.406 69.9297C580.073 69.5391 579.818 69.0833 579.641 68.5625C579.464 68.0417 579.375 67.4766 579.375 66.8672ZM580.82 66.6875V66.8672C580.82 67.2891 580.87 67.6875 580.969 68.0625C581.068 68.4323 581.216 68.7604 581.414 69.0469C581.617 69.3333 581.87 69.5599 582.172 69.7266C582.474 69.888 582.826 69.9688 583.227 69.9688C583.622 69.9688 583.969 69.888 584.266 69.7266C584.568 69.5599 584.818 69.3333 585.016 69.0469C585.214 68.7604 585.362 68.4323 585.461 68.0625C585.565 67.6875 585.617 67.2891 585.617 66.8672V66.6875C585.617 66.2708 585.565 65.8776 585.461 65.5078C585.362 65.1328 585.211 64.8021 585.008 64.5156C584.81 64.224 584.56 63.9948 584.258 63.8281C583.961 63.6615 583.612 63.5781 583.211 63.5781C582.815 63.5781 582.466 63.6615 582.164 63.8281C581.867 63.9948 581.617 64.224 581.414 64.5156C581.216 64.8021 581.068 65.1328 580.969 65.5078C580.87 65.8776 580.82 66.2708 580.82 66.6875ZM592.422 62.5469V63.6562H587.852V62.5469H592.422ZM589.398 60.4922H590.844V68.9062C590.844 69.1927 590.888 69.4089 590.977 69.5547C591.065 69.7005 591.18 69.7969 591.32 69.8438C591.461 69.8906 591.612 69.9141 591.773 69.9141C591.893 69.9141 592.018 69.9036 592.148 69.8828C592.284 69.8568 592.385 69.8359 592.453 69.8203L592.461 71C592.346 71.0365 592.195 71.0703 592.008 71.1016C591.826 71.138 591.604 71.1562 591.344 71.1562C590.99 71.1562 590.664 71.0859 590.367 70.9453C590.07 70.8047 589.833 70.5703 589.656 70.2422C589.484 69.9089 589.398 69.4609 589.398 68.8984V60.4922ZM593.578 66.8672V66.6875C593.578 66.0781 593.667 65.513 593.844 64.9922C594.021 64.4661 594.276 64.0104 594.609 63.625C594.943 63.2344 595.346 62.9323 595.82 62.7188C596.294 62.5 596.826 62.3906 597.414 62.3906C598.008 62.3906 598.542 62.5 599.016 62.7188C599.495 62.9323 599.901 63.2344 600.234 63.625C600.573 64.0104 600.831 64.4661 601.008 64.9922C601.185 65.513 601.273 66.0781 601.273 66.6875V66.8672C601.273 67.4766 601.185 68.0417 601.008 68.5625C600.831 69.0833 600.573 69.5391 600.234 69.9297C599.901 70.3151 599.497 70.6172 599.023 70.8359C598.555 71.0495 598.023 71.1562 597.43 71.1562C596.836 71.1562 596.302 71.0495 595.828 70.8359C595.354 70.6172 594.948 70.3151 594.609 69.9297C594.276 69.5391 594.021 69.0833 593.844 68.5625C593.667 68.0417 593.578 67.4766 593.578 66.8672ZM595.023 66.6875V66.8672C595.023 67.2891 595.073 67.6875 595.172 68.0625C595.271 68.4323 595.419 68.7604 595.617 69.0469C595.82 69.3333 596.073 69.5599 596.375 69.7266C596.677 69.888 597.029 69.9688 597.43 69.9688C597.826 69.9688 598.172 69.888 598.469 69.7266C598.771 69.5599 599.021 69.3333 599.219 69.0469C599.417 68.7604 599.565 68.4323 599.664 68.0625C599.768 67.6875 599.82 67.2891 599.82 66.8672V66.6875C599.82 66.2708 599.768 65.8776 599.664 65.5078C599.565 65.1328 599.414 64.8021 599.211 64.5156C599.013 64.224 598.763 63.9948 598.461 63.8281C598.164 63.6615 597.815 63.5781 597.414 63.5781C597.018 63.5781 596.669 63.6615 596.367 63.8281C596.07 63.9948 595.82 64.224 595.617 64.5156C595.419 64.8021 595.271 65.1328 595.172 65.5078C595.073 65.8776 595.023 66.2708 595.023 66.6875ZM608.008 68.7578C608.008 68.5495 607.961 68.3568 607.867 68.1797C607.779 67.9974 607.594 67.8333 607.312 67.6875C607.036 67.5365 606.62 67.4062 606.062 67.2969C605.594 67.1979 605.169 67.0807 604.789 66.9453C604.414 66.8099 604.094 66.6458 603.828 66.4531C603.568 66.2604 603.367 66.0339 603.227 65.7734C603.086 65.513 603.016 65.2083 603.016 64.8594C603.016 64.526 603.089 64.2109 603.234 63.9141C603.385 63.6172 603.596 63.3542 603.867 63.125C604.143 62.8958 604.474 62.7161 604.859 62.5859C605.245 62.4557 605.674 62.3906 606.148 62.3906C606.826 62.3906 607.404 62.5104 607.883 62.75C608.362 62.9896 608.729 63.3099 608.984 63.7109C609.24 64.1068 609.367 64.5469 609.367 65.0312H607.922C607.922 64.7969 607.852 64.5703 607.711 64.3516C607.576 64.1276 607.375 63.9427 607.109 63.7969C606.849 63.651 606.529 63.5781 606.148 63.5781C605.747 63.5781 605.422 63.6406 605.172 63.7656C604.927 63.8854 604.747 64.0391 604.633 64.2266C604.523 64.4141 604.469 64.612 604.469 64.8203C604.469 64.9766 604.495 65.1172 604.547 65.2422C604.604 65.362 604.703 65.474 604.844 65.5781C604.984 65.6771 605.182 65.7708 605.438 65.8594C605.693 65.9479 606.018 66.0365 606.414 66.125C607.107 66.2812 607.677 66.4688 608.125 66.6875C608.573 66.9062 608.906 67.1745 609.125 67.4922C609.344 67.8099 609.453 68.1953 609.453 68.6484C609.453 69.0182 609.375 69.3568 609.219 69.6641C609.068 69.9714 608.846 70.237 608.555 70.4609C608.268 70.6797 607.924 70.8516 607.523 70.9766C607.128 71.0964 606.682 71.1562 606.188 71.1562C605.443 71.1562 604.812 71.0234 604.297 70.7578C603.781 70.4922 603.391 70.1484 603.125 69.7266C602.859 69.3047 602.727 68.8594 602.727 68.3906H604.18C604.201 68.7865 604.315 69.1016 604.523 69.3359C604.732 69.5651 604.987 69.7292 605.289 69.8281C605.591 69.9219 605.891 69.9688 606.188 69.9688C606.583 69.9688 606.914 69.9167 607.18 69.8125C607.451 69.7083 607.656 69.5651 607.797 69.3828C607.938 69.2005 608.008 68.9922 608.008 68.7578Z" fill="#444444"/>
<rect x="650" y="23" width="49" height="2" fill="#DCDCDC"/>
<rect x="699" y="8" width="32" height="32" rx="16" fill="#DCDCDC"/>
<path d="M716.992 17.6094H717.117V18.8359H716.992C716.227 18.8359 715.586 18.9609 715.07 19.2109C714.555 19.4557 714.146 19.7865 713.844 20.2031C713.542 20.6146 713.323 21.0781 713.188 21.5938C713.057 22.1094 712.992 22.6328 712.992 23.1641V24.8359C712.992 25.3411 713.052 25.7891 713.172 26.1797C713.292 26.5651 713.456 26.8906 713.664 27.1562C713.872 27.4219 714.107 27.6224 714.367 27.7578C714.633 27.8932 714.909 27.9609 715.195 27.9609C715.529 27.9609 715.826 27.8984 716.086 27.7734C716.346 27.6432 716.565 27.4635 716.742 27.2344C716.924 27 717.062 26.724 717.156 26.4062C717.25 26.0885 717.297 25.7396 717.297 25.3594C717.297 25.0208 717.255 24.6953 717.172 24.3828C717.089 24.0651 716.961 23.7839 716.789 23.5391C716.617 23.2891 716.401 23.0938 716.141 22.9531C715.885 22.8073 715.581 22.7344 715.227 22.7344C714.826 22.7344 714.451 22.8333 714.102 23.0312C713.758 23.224 713.474 23.4792 713.25 23.7969C713.031 24.1094 712.906 24.4505 712.875 24.8203L712.109 24.8125C712.182 24.2292 712.318 23.7318 712.516 23.3203C712.719 22.9036 712.969 22.5651 713.266 22.3047C713.568 22.0391 713.904 21.8464 714.273 21.7266C714.648 21.6016 715.044 21.5391 715.461 21.5391C716.029 21.5391 716.518 21.6458 716.93 21.8594C717.341 22.0729 717.68 22.3594 717.945 22.7188C718.211 23.0729 718.406 23.474 718.531 23.9219C718.661 24.3646 718.727 24.8203 718.727 25.2891C718.727 25.8255 718.651 26.3281 718.5 26.7969C718.349 27.2656 718.122 27.6771 717.82 28.0312C717.523 28.3854 717.156 28.6615 716.719 28.8594C716.281 29.0573 715.773 29.1562 715.195 29.1562C714.581 29.1562 714.044 29.0312 713.586 28.7812C713.128 28.526 712.747 28.1875 712.445 27.7656C712.143 27.3438 711.917 26.875 711.766 26.3594C711.615 25.8438 711.539 25.3203 711.539 24.7891V24.1094C711.539 23.3073 711.62 22.5208 711.781 21.75C711.943 20.9792 712.221 20.2812 712.617 19.6562C713.018 19.0312 713.573 18.5339 714.281 18.1641C714.99 17.7943 715.893 17.6094 716.992 17.6094Z" fill="white"/>
<path d="M678.891 71H676.516L676.531 69.7734H678.891C679.703 69.7734 680.38 69.6042 680.922 69.2656C681.464 68.9219 681.87 68.4427 682.141 67.8281C682.417 67.2083 682.555 66.4844 682.555 65.6562V64.9609C682.555 64.3099 682.477 63.7318 682.32 63.2266C682.164 62.7161 681.935 62.2865 681.633 61.9375C681.331 61.5833 680.961 61.3151 680.523 61.1328C680.091 60.9505 679.594 60.8594 679.031 60.8594H676.469V59.625H679.031C679.776 59.625 680.456 59.75 681.07 60C681.685 60.2448 682.214 60.6016 682.656 61.0703C683.104 61.5339 683.448 62.0964 683.688 62.7578C683.927 63.4141 684.047 64.1536 684.047 64.9766V65.6562C684.047 66.4792 683.927 67.2214 683.688 67.8828C683.448 68.5391 683.102 69.099 682.648 69.5625C682.201 70.026 681.659 70.3828 681.023 70.6328C680.393 70.8776 679.682 71 678.891 71ZM677.32 59.625V71H675.812V59.625H677.32ZM689.602 71.1562C689.013 71.1562 688.479 71.0573 688 70.8594C687.526 70.6562 687.117 70.3724 686.773 70.0078C686.435 69.6432 686.174 69.2109 685.992 68.7109C685.81 68.2109 685.719 67.6641 685.719 67.0703V66.7422C685.719 66.0547 685.82 65.4427 686.023 64.9062C686.227 64.3646 686.503 63.9062 686.852 63.5312C687.201 63.1562 687.596 62.8724 688.039 62.6797C688.482 62.487 688.94 62.3906 689.414 62.3906C690.018 62.3906 690.539 62.4948 690.977 62.7031C691.419 62.9115 691.781 63.2031 692.062 63.5781C692.344 63.9479 692.552 64.3854 692.688 64.8906C692.823 65.3906 692.891 65.9375 692.891 66.5312V67.1797H686.578V66H691.445V65.8906C691.424 65.5156 691.346 65.151 691.211 64.7969C691.081 64.4427 690.872 64.151 690.586 63.9219C690.299 63.6927 689.909 63.5781 689.414 63.5781C689.086 63.5781 688.784 63.6484 688.508 63.7891C688.232 63.9245 687.995 64.1276 687.797 64.3984C687.599 64.6693 687.445 65 687.336 65.3906C687.227 65.7812 687.172 66.2318 687.172 66.7422V67.0703C687.172 67.4714 687.227 67.849 687.336 68.2031C687.451 68.5521 687.615 68.8594 687.828 69.125C688.047 69.3906 688.31 69.599 688.617 69.75C688.93 69.901 689.284 69.9766 689.68 69.9766C690.19 69.9766 690.622 69.8724 690.977 69.6641C691.331 69.4557 691.641 69.1771 691.906 68.8281L692.781 69.5234C692.599 69.7995 692.367 70.0625 692.086 70.3125C691.805 70.5625 691.458 70.7656 691.047 70.9219C690.641 71.0781 690.159 71.1562 689.602 71.1562ZM699.5 68.7578C699.5 68.5495 699.453 68.3568 699.359 68.1797C699.271 67.9974 699.086 67.8333 698.805 67.6875C698.529 67.5365 698.112 67.4062 697.555 67.2969C697.086 67.1979 696.661 67.0807 696.281 66.9453C695.906 66.8099 695.586 66.6458 695.32 66.4531C695.06 66.2604 694.859 66.0339 694.719 65.7734C694.578 65.513 694.508 65.2083 694.508 64.8594C694.508 64.526 694.581 64.2109 694.727 63.9141C694.878 63.6172 695.089 63.3542 695.359 63.125C695.635 62.8958 695.966 62.7161 696.352 62.5859C696.737 62.4557 697.167 62.3906 697.641 62.3906C698.318 62.3906 698.896 62.5104 699.375 62.75C699.854 62.9896 700.221 63.3099 700.477 63.7109C700.732 64.1068 700.859 64.5469 700.859 65.0312H699.414C699.414 64.7969 699.344 64.5703 699.203 64.3516C699.068 64.1276 698.867 63.9427 698.602 63.7969C698.341 63.651 698.021 63.5781 697.641 63.5781C697.24 63.5781 696.914 63.6406 696.664 63.7656C696.419 63.8854 696.24 64.0391 696.125 64.2266C696.016 64.4141 695.961 64.612 695.961 64.8203C695.961 64.9766 695.987 65.1172 696.039 65.2422C696.096 65.362 696.195 65.474 696.336 65.5781C696.477 65.6771 696.674 65.7708 696.93 65.8594C697.185 65.9479 697.51 66.0365 697.906 66.125C698.599 66.2812 699.169 66.4688 699.617 66.6875C700.065 66.9062 700.398 67.1745 700.617 67.4922C700.836 67.8099 700.945 68.1953 700.945 68.6484C700.945 69.0182 700.867 69.3568 700.711 69.6641C700.56 69.9714 700.339 70.237 700.047 70.4609C699.76 70.6797 699.417 70.8516 699.016 70.9766C698.62 71.0964 698.174 71.1562 697.68 71.1562C696.935 71.1562 696.305 71.0234 695.789 70.7578C695.273 70.4922 694.883 70.1484 694.617 69.7266C694.352 69.3047 694.219 68.8594 694.219 68.3906H695.672C695.693 68.7865 695.807 69.1016 696.016 69.3359C696.224 69.5651 696.479 69.7292 696.781 69.8281C697.083 69.9219 697.383 69.9688 697.68 69.9688C698.076 69.9688 698.406 69.9167 698.672 69.8125C698.943 69.7083 699.148 69.5651 699.289 69.3828C699.43 69.2005 699.5 68.9922 699.5 68.7578ZM706.227 69.9688C706.57 69.9688 706.888 69.8984 707.18 69.7578C707.471 69.6172 707.711 69.4245 707.898 69.1797C708.086 68.9297 708.193 68.6458 708.219 68.3281H709.594C709.568 68.8281 709.398 69.2943 709.086 69.7266C708.779 70.1536 708.375 70.5 707.875 70.7656C707.375 71.026 706.826 71.1562 706.227 71.1562C705.591 71.1562 705.036 71.0443 704.562 70.8203C704.094 70.5964 703.703 70.2891 703.391 69.8984C703.083 69.5078 702.852 69.0599 702.695 68.5547C702.544 68.0443 702.469 67.5052 702.469 66.9375V66.6094C702.469 66.0417 702.544 65.5052 702.695 65C702.852 64.4896 703.083 64.0391 703.391 63.6484C703.703 63.2578 704.094 62.9505 704.562 62.7266C705.036 62.5026 705.591 62.3906 706.227 62.3906C706.888 62.3906 707.466 62.526 707.961 62.7969C708.456 63.0625 708.844 63.4271 709.125 63.8906C709.411 64.349 709.568 64.8698 709.594 65.4531H708.219C708.193 65.1042 708.094 64.7891 707.922 64.5078C707.755 64.2266 707.526 64.0026 707.234 63.8359C706.948 63.6641 706.612 63.5781 706.227 63.5781C705.784 63.5781 705.411 63.6667 705.109 63.8438C704.812 64.0156 704.576 64.25 704.398 64.5469C704.227 64.8385 704.102 65.1641 704.023 65.5234C703.951 65.8776 703.914 66.2396 703.914 66.6094V66.9375C703.914 67.3073 703.951 67.6719 704.023 68.0312C704.096 68.3906 704.219 68.7161 704.391 69.0078C704.568 69.2995 704.805 69.5339 705.102 69.7109C705.404 69.8828 705.779 69.9688 706.227 69.9688ZM712.664 63.875V71H711.219V62.5469H712.625L712.664 63.875ZM715.305 62.5L715.297 63.8438C715.177 63.8177 715.062 63.8021 714.953 63.7969C714.849 63.7865 714.729 63.7812 714.594 63.7812C714.26 63.7812 713.966 63.8333 713.711 63.9375C713.456 64.0417 713.24 64.1875 713.062 64.375C712.885 64.5625 712.745 64.7865 712.641 65.0469C712.542 65.3021 712.477 65.5833 712.445 65.8906L712.039 66.125C712.039 65.6146 712.089 65.1354 712.188 64.6875C712.292 64.2396 712.451 63.8438 712.664 63.5C712.878 63.151 713.148 62.8802 713.477 62.6875C713.81 62.4896 714.206 62.3906 714.664 62.3906C714.768 62.3906 714.888 62.4036 715.023 62.4297C715.159 62.4505 715.253 62.474 715.305 62.5ZM718.211 62.5469V71H716.758V62.5469H718.211ZM716.648 60.3047C716.648 60.0703 716.719 59.8724 716.859 59.7109C717.005 59.5495 717.219 59.4688 717.5 59.4688C717.776 59.4688 717.987 59.5495 718.133 59.7109C718.284 59.8724 718.359 60.0703 718.359 60.3047C718.359 60.5286 718.284 60.7214 718.133 60.8828C717.987 61.0391 717.776 61.1172 717.5 61.1172C717.219 61.1172 717.005 61.0391 716.859 60.8828C716.719 60.7214 716.648 60.5286 716.648 60.3047ZM721.977 64.1719V74.25H720.523V62.5469H721.852L721.977 64.1719ZM727.672 66.7031V66.8672C727.672 67.4818 727.599 68.0521 727.453 68.5781C727.307 69.099 727.094 69.5521 726.812 69.9375C726.536 70.3229 726.195 70.6224 725.789 70.8359C725.383 71.0495 724.917 71.1562 724.391 71.1562C723.854 71.1562 723.38 71.0677 722.969 70.8906C722.557 70.7135 722.208 70.4557 721.922 70.1172C721.635 69.7786 721.406 69.3724 721.234 68.8984C721.068 68.4245 720.953 67.8906 720.891 67.2969V66.4219C720.953 65.7969 721.07 65.237 721.242 64.7422C721.414 64.2474 721.641 63.8255 721.922 63.4766C722.208 63.1224 722.555 62.8542 722.961 62.6719C723.367 62.4844 723.836 62.3906 724.367 62.3906C724.898 62.3906 725.37 62.4948 725.781 62.7031C726.193 62.9062 726.539 63.1979 726.82 63.5781C727.102 63.9583 727.312 64.4141 727.453 64.9453C727.599 65.4714 727.672 66.0573 727.672 66.7031ZM726.219 66.8672V66.7031C726.219 66.2812 726.174 65.8854 726.086 65.5156C725.997 65.1406 725.859 64.8125 725.672 64.5312C725.49 64.2448 725.255 64.0208 724.969 63.8594C724.682 63.6927 724.341 63.6094 723.945 63.6094C723.581 63.6094 723.263 63.6719 722.992 63.7969C722.727 63.9219 722.5 64.0911 722.312 64.3047C722.125 64.513 721.971 64.7526 721.852 65.0234C721.737 65.2891 721.651 65.5651 721.594 65.8516V67.875C721.698 68.2396 721.844 68.5833 722.031 68.9062C722.219 69.224 722.469 69.4818 722.781 69.6797C723.094 69.8724 723.487 69.9688 723.961 69.9688C724.352 69.9688 724.688 69.888 724.969 69.7266C725.255 69.5599 725.49 69.3333 725.672 69.0469C725.859 68.7604 725.997 68.4323 726.086 68.0625C726.174 67.6875 726.219 67.2891 726.219 66.8672ZM733.055 62.5469V63.6562H728.484V62.5469H733.055ZM730.031 60.4922H731.477V68.9062C731.477 69.1927 731.521 69.4089 731.609 69.5547C731.698 69.7005 731.812 69.7969 731.953 69.8438C732.094 69.8906 732.245 69.9141 732.406 69.9141C732.526 69.9141 732.651 69.9036 732.781 69.8828C732.917 69.8568 733.018 69.8359 733.086 69.8203L733.094 71C732.979 71.0365 732.828 71.0703 732.641 71.1016C732.458 71.138 732.237 71.1562 731.977 71.1562C731.622 71.1562 731.297 71.0859 731 70.9453C730.703 70.8047 730.466 70.5703 730.289 70.2422C730.117 69.9089 730.031 69.4609 730.031 68.8984V60.4922ZM736.32 62.5469V71H734.867V62.5469H736.32ZM734.758 60.3047C734.758 60.0703 734.828 59.8724 734.969 59.7109C735.115 59.5495 735.328 59.4688 735.609 59.4688C735.885 59.4688 736.096 59.5495 736.242 59.7109C736.393 59.8724 736.469 60.0703 736.469 60.3047C736.469 60.5286 736.393 60.7214 736.242 60.8828C736.096 61.0391 735.885 61.1172 735.609 61.1172C735.328 61.1172 735.115 61.0391 734.969 60.8828C734.828 60.7214 734.758 60.5286 734.758 60.3047ZM738.258 66.8672V66.6875C738.258 66.0781 738.346 65.513 738.523 64.9922C738.701 64.4661 738.956 64.0104 739.289 63.625C739.622 63.2344 740.026 62.9323 740.5 62.7188C740.974 62.5 741.505 62.3906 742.094 62.3906C742.688 62.3906 743.221 62.5 743.695 62.7188C744.174 62.9323 744.581 63.2344 744.914 63.625C745.253 64.0104 745.51 64.4661 745.688 64.9922C745.865 65.513 745.953 66.0781 745.953 66.6875V66.8672C745.953 67.4766 745.865 68.0417 745.688 68.5625C745.51 69.0833 745.253 69.5391 744.914 69.9297C744.581 70.3151 744.177 70.6172 743.703 70.8359C743.234 71.0495 742.703 71.1562 742.109 71.1562C741.516 71.1562 740.982 71.0495 740.508 70.8359C740.034 70.6172 739.628 70.3151 739.289 69.9297C738.956 69.5391 738.701 69.0833 738.523 68.5625C738.346 68.0417 738.258 67.4766 738.258 66.8672ZM739.703 66.6875V66.8672C739.703 67.2891 739.753 67.6875 739.852 68.0625C739.951 68.4323 740.099 68.7604 740.297 69.0469C740.5 69.3333 740.753 69.5599 741.055 69.7266C741.357 69.888 741.708 69.9688 742.109 69.9688C742.505 69.9688 742.852 69.888 743.148 69.7266C743.451 69.5599 743.701 69.3333 743.898 69.0469C744.096 68.7604 744.245 68.4323 744.344 68.0625C744.448 67.6875 744.5 67.2891 744.5 66.8672V66.6875C744.5 66.2708 744.448 65.8776 744.344 65.5078C744.245 65.1328 744.094 64.8021 743.891 64.5156C743.693 64.224 743.443 63.9948 743.141 63.8281C742.844 63.6615 742.495 63.5781 742.094 63.5781C741.698 63.5781 741.349 63.6615 741.047 63.8281C740.75 63.9948 740.5 64.224 740.297 64.5156C740.099 64.8021 739.951 65.1328 739.852 65.5078C739.753 65.8776 739.703 66.2708 739.703 66.6875ZM749.211 64.3516V71H747.766V62.5469H749.133L749.211 64.3516ZM748.867 66.4531L748.266 66.4297C748.271 65.8516 748.357 65.3177 748.523 64.8281C748.69 64.3333 748.924 63.9036 749.227 63.5391C749.529 63.1745 749.888 62.8932 750.305 62.6953C750.727 62.4922 751.193 62.3906 751.703 62.3906C752.12 62.3906 752.495 62.4479 752.828 62.5625C753.161 62.6719 753.445 62.849 753.68 63.0938C753.919 63.3385 754.102 63.6562 754.227 64.0469C754.352 64.4323 754.414 64.9036 754.414 65.4609V71H752.961V65.4453C752.961 65.0026 752.896 64.6484 752.766 64.3828C752.635 64.112 752.445 63.9167 752.195 63.7969C751.945 63.6719 751.638 63.6094 751.273 63.6094C750.914 63.6094 750.586 63.6849 750.289 63.8359C749.997 63.987 749.745 64.1953 749.531 64.4609C749.323 64.7266 749.159 65.0312 749.039 65.375C748.924 65.7135 748.867 66.0729 748.867 66.4531Z" fill="#444444"/>
</svg>
