<svg width="62" height="62" viewBox="0 0 62 62" fill="none" xmlns="http://www.w3.org/2000/svg">
<g clip-path="url(#clip0_2064_19266)">
<path d="M31 5.8125C37.6801 5.8125 44.0867 8.46618 48.8103 13.1897C53.5338 17.9133 56.1875 24.3199 56.1875 31C56.1875 37.6801 53.5338 44.0867 48.8103 48.8103C44.0867 53.5338 37.6801 56.1875 31 56.1875C24.3199 56.1875 17.9133 53.5338 13.1897 48.8103C8.46618 44.0867 5.8125 37.6801 5.8125 31C5.8125 24.3199 8.46618 17.9133 13.1897 13.1897C17.9133 8.46618 24.3199 5.8125 31 5.8125ZM31 62C39.2217 62 47.1067 58.7339 52.9203 52.9203C58.7339 47.1067 62 39.2217 62 31C62 22.7783 58.7339 14.8933 52.9203 9.07969C47.1067 3.26606 39.2217 0 31 0C22.7783 0 14.8933 3.26606 9.07969 9.07969C3.26606 14.8933 0 22.7783 0 31C0 39.2217 3.26606 47.1067 9.07969 52.9203C14.8933 58.7339 22.7783 62 31 62ZM44.6836 25.3086C45.8219 24.1703 45.8219 22.3297 44.6836 21.2035C43.5453 20.0773 41.7047 20.0652 40.5785 21.2035L27.1371 34.6449L21.4457 28.9535C20.3074 27.8152 18.4668 27.8152 17.3406 28.9535C16.2145 30.0918 16.2023 31.9324 17.3406 33.0586L25.0906 40.8086C26.2289 41.9469 28.0695 41.9469 29.1957 40.8086L44.6836 25.3086Z" fill="#28A745"/>
</g>
<defs>
<clipPath id="clip0_2064_19266">
<rect width="62" height="62" fill="white"/>
</clipPath>
</defs>
</svg>
