<svg width="30" height="23" viewBox="0 0 30 23" fill="none" xmlns="http://www.w3.org/2000/svg">
<path d="M3.93853 17.2852C3.54412 17.0407 3.08133 16.8976 2.58434 16.8976C1.15937 16.8976 0 18.057 0 19.4819C0 20.9069 1.15937 22.0663 2.58434 22.0663C4.0093 22.0663 5.16867 20.9069 5.16867 19.4819C5.16867 18.9853 5.02554 18.5225 4.78142 18.1285L8.96964 13.9399C9.0428 13.8664 9.08494 13.7777 9.11197 13.6847C9.5207 13.9558 10.0097 14.1145 10.5361 14.1145C11.1532 14.1145 11.7198 13.8966 12.1647 13.5344L15.9891 16.8463C15.935 17.0538 15.9036 17.2701 15.9036 17.494C15.9036 18.9189 17.063 20.0783 18.488 20.0783C19.9129 20.0783 21.0723 18.9189 21.0723 17.494C21.0723 16.8352 20.8222 16.2348 20.4147 15.778L21.452 14.2019L24.4057 17.8936C24.0622 18.3321 23.8554 18.8828 23.8554 19.4819C23.8554 20.9069 25.0148 22.0663 26.4398 22.0663C27.8647 22.0663 29.0241 20.9069 29.0241 19.4819C29.0241 18.057 27.8647 16.8976 26.4398 16.8976C26.0446 16.8976 25.6712 16.989 25.3364 17.1485L22.1418 13.1547L25.544 7.98719C25.8231 8.09096 26.1245 8.1506 26.4398 8.1506C27.8647 8.1506 29.0241 6.99123 29.0241 5.56627C29.0241 4.1413 27.8647 2.98193 26.4398 2.98193C25.0148 2.98193 23.8554 4.1413 23.8554 5.56627C23.8554 6.24575 24.121 6.8632 24.5516 7.32481L21.3582 12.1754L20.522 11.1305C20.8655 10.692 21.0723 10.1413 21.0723 9.54217C21.0723 8.1172 19.9129 6.95783 18.488 6.95783C17.9297 6.95783 17.4137 7.13754 16.9906 7.43971L12.8199 3.79023C13.0111 3.43001 13.1205 3.0197 13.1205 2.58434C13.1205 1.15937 11.9611 0 10.5361 0C9.11118 0 7.95181 1.15937 7.95181 2.58434C7.95181 2.87339 8.00151 3.15051 8.08977 3.41053L4.90348 5.40166C4.69634 5.53128 4.53492 5.63266 4.40371 5.72093C3.93575 5.25694 3.29324 4.96988 2.58434 4.96988C1.15937 4.96988 0 6.12925 0 7.55422C0 8.97918 1.15937 10.1386 2.58434 10.1386C4.0093 10.1386 5.16867 8.97918 5.16867 7.55422C5.16867 7.26517 5.11898 6.98805 5.03111 6.72842C5.61795 6.36184 7.89098 4.94086 8.72194 4.422C9.18871 4.88321 9.82963 5.16867 10.5361 5.16867C11.0944 5.16867 11.6104 4.98896 12.0335 4.68679L16.2042 8.33628C16.013 8.69649 15.9036 9.10641 15.9036 9.54217C15.9036 10.9671 17.063 12.1265 18.488 12.1265C18.8828 12.1265 19.2561 12.0351 19.5909 11.8756L20.6683 13.2227L19.4374 15.0929C19.1428 14.976 18.8235 14.9096 18.488 14.9096C17.7258 14.9096 17.0415 15.2436 16.5684 15.77L12.8923 12.5865C13.0378 12.2637 13.1205 11.9066 13.1205 11.5301C13.1205 10.1052 11.9611 8.94578 10.5361 8.94578C9.11118 8.94578 7.95181 10.1052 7.95181 11.5301C7.95181 12.0561 8.11045 12.5456 8.3816 12.9539C8.28896 12.9809 8.1995 13.0231 8.12635 13.0962L3.93853 17.2852ZM2.58434 20.8735C1.81699 20.8735 1.19277 20.2493 1.19277 19.4819C1.19277 18.7146 1.81699 18.0904 2.58434 18.0904C3.35169 18.0904 3.9759 18.7146 3.9759 19.4819C3.9759 20.2493 3.35169 20.8735 2.58434 20.8735ZM27.8313 19.4819C27.8313 20.2493 27.2071 20.8735 26.4398 20.8735C25.6724 20.8735 25.0482 20.2493 25.0482 19.4819C25.0482 18.7146 25.6724 18.0904 26.4398 18.0904C27.2071 18.0904 27.8313 18.7146 27.8313 19.4819ZM26.4398 4.1747C27.2071 4.1747 27.8313 4.79892 27.8313 5.56627C27.8313 6.33361 27.2071 6.95783 26.4398 6.95783C25.6724 6.95783 25.0482 6.33361 25.0482 5.56627C25.0482 4.79892 25.6724 4.1747 26.4398 4.1747ZM2.58434 8.94578C1.81699 8.94578 1.19277 8.32157 1.19277 7.55422C1.19277 6.78687 1.81699 6.16265 2.58434 6.16265C3.35169 6.16265 3.9759 6.78687 3.9759 7.55422C3.9759 8.32157 3.35169 8.94578 2.58434 8.94578ZM10.5361 3.9759C9.7688 3.9759 9.14458 3.35169 9.14458 2.58434C9.14458 1.81699 9.7688 1.19277 10.5361 1.19277C11.3035 1.19277 11.9277 1.81699 11.9277 2.58434C11.9277 3.35169 11.3035 3.9759 10.5361 3.9759ZM17.0964 9.54217C17.0964 8.77482 17.7206 8.1506 18.488 8.1506C19.2553 8.1506 19.8795 8.77482 19.8795 9.54217C19.8795 10.3095 19.2553 10.9337 18.488 10.9337C17.7206 10.9337 17.0964 10.3095 17.0964 9.54217ZM18.488 16.1024C19.2553 16.1024 19.8795 16.7266 19.8795 17.494C19.8795 18.2613 19.2553 18.8855 18.488 18.8855C17.7206 18.8855 17.0964 18.2613 17.0964 17.494C17.0964 16.7266 17.7206 16.1024 18.488 16.1024ZM10.5361 10.1386C11.3035 10.1386 11.9277 10.7628 11.9277 11.5301C11.9277 12.2975 11.3035 12.9217 10.5361 12.9217C9.7688 12.9217 9.14458 12.2975 9.14458 11.5301C9.14458 10.7628 9.7688 10.1386 10.5361 10.1386Z" fill="#666666"/>
</svg>
