<svg width="33" height="29" viewBox="0 0 33 29" fill="none" xmlns="http://www.w3.org/2000/svg">
<path d="M25.4824 9.6416C26.475 5.6053 26.1441 2.39612 24.2584 1.30433H24.2581C23.4345 0.863083 22.4657 0.779314 21.5784 1.07286C20.0234 1.50303 18.2699 2.66085 16.4835 4.3813C14.73 2.66085 12.9433 1.46981 11.3886 1.07286H11.3884C10.5012 0.779308 9.53222 0.863083 8.7086 1.30433C6.82267 2.39612 6.49195 5.5721 7.48454 9.6416C3.58046 10.7664 1 12.6854 1 14.8689C1 17.0525 3.54756 18.9714 7.51762 20.0963C6.52503 24.1326 6.85599 27.3417 8.74168 28.4335C9.2037 28.7012 9.72967 28.8385 10.2637 28.8305C10.6553 28.8258 11.0444 28.7702 11.4218 28.665C12.9767 28.2348 14.7302 27.077 16.5166 25.3566C18.2701 27.077 20.0568 28.268 21.6115 28.665C21.9888 28.7702 22.3779 28.8258 22.7696 28.8305C23.2923 28.8325 23.8062 28.6955 24.2583 28.4335C26.1442 27.3417 26.475 24.1658 25.4824 20.0963C29.4524 18.9382 32 17.0525 32 14.8689C32 12.6854 29.4527 10.7664 25.4824 9.6416ZM21.7768 1.70135C22.1004 1.61365 22.4341 1.56911 22.7694 1.56888C23.1859 1.55919 23.5974 1.66211 23.9604 1.86681C25.5484 2.79318 25.7801 5.73769 24.8538 9.44314C23.2891 9.05312 21.696 8.78771 20.0896 8.64905C19.1632 7.31398 18.1344 6.05305 17.0126 4.87743C18.6668 3.22322 20.3542 2.09841 21.7768 1.70145V1.70135ZM21.4129 17.7473C20.8835 18.7066 20.288 19.5999 19.6924 20.4603C18.6669 20.5595 17.608 20.5925 16.5162 20.5925C15.4244 20.5925 14.3658 20.5263 13.34 20.4603C12.7446 19.6002 12.1819 18.6739 11.6195 17.7473C11.0571 16.8209 10.594 15.8284 10.1308 14.869C10.561 13.9097 11.0572 12.9501 11.6195 11.9907C12.1819 11.0313 12.7443 10.138 13.34 9.27767C14.3655 9.17843 15.4244 9.14543 16.5162 9.14543C17.608 9.14543 18.6666 9.21166 19.6924 9.27767C20.2878 10.1378 20.8505 11.0641 21.4129 11.9907C21.9753 12.9171 22.4384 13.9096 22.9016 14.869C22.4384 15.8283 21.9752 16.7879 21.4129 17.7473ZM23.2326 15.6961C23.7973 16.9852 24.2725 18.3117 24.6553 19.6662C23.3064 20.0043 21.9356 20.2475 20.5528 20.394C21.049 19.6662 21.5121 18.872 21.9753 18.0782C22.4385 17.2841 22.8686 16.457 23.2656 15.6631L23.2326 15.6961ZM16.5164 24.3973C15.5497 23.3794 14.6543 22.2961 13.8367 21.1548L16.5164 21.2541L19.1962 21.1548C18.3786 22.296 17.4831 23.3793 16.5164 24.3973ZM12.4801 20.361C11.0973 20.2142 9.72651 19.971 8.37762 19.6331C8.76048 18.2787 9.23562 16.9522 9.80036 15.6631C10.1754 16.4572 10.5944 17.2511 11.0576 18.0451C11.4876 18.8723 11.984 19.6331 12.4801 20.361ZM9.76734 14.075C9.204 12.7967 8.72861 11.4813 8.34459 10.1381C9.69349 9.8 11.0643 9.55677 12.4471 9.41024C11.9509 10.1381 11.4878 10.9322 11.0246 11.7261C10.5612 12.52 10.1643 13.2811 9.76734 14.075ZM16.5165 5.34069C17.4833 6.35862 18.3787 7.4419 19.1963 8.58313L16.5165 8.4839L13.8368 8.58313C14.6544 7.44196 15.5498 6.35868 16.5165 5.34069ZM22.0086 11.6598C21.5454 10.8657 21.0823 10.1048 20.5861 9.34395H20.5859C21.9687 9.4905 23.3395 9.73374 24.6884 10.0718C24.3044 11.4149 23.829 12.7304 23.2656 14.0089C22.8687 13.2589 22.4496 12.4759 22.0086 11.6598ZM9.10571 1.86683L9.10548 1.86706C9.46849 1.66236 9.87995 1.55943 10.2965 1.56912C10.6318 1.56935 10.9655 1.61389 11.2891 1.70159C12.7116 2.09853 14.3991 3.22359 16.0533 4.87781V4.87758C14.9315 6.05313 13.9029 7.31412 12.9763 8.64919C11.3699 8.78789 9.77685 9.05328 8.21238 9.44328C7.28601 5.73789 7.51749 2.79332 9.10548 1.86696L9.10571 1.86683ZM1.66172 14.869C1.66172 13.0163 4.07682 11.3621 7.68308 10.3033C8.13748 11.8675 8.7126 13.3938 9.40353 14.869C8.72388 16.345 8.15985 17.8714 7.7161 19.4347C4.07694 18.3759 1.66172 16.7217 1.66172 14.869ZM11.2562 28.0366H11.2564C10.5465 28.2733 9.77111 28.2136 9.10582 27.8711C7.51783 26.9447 7.28612 24.0002 8.21248 20.2948H8.21271C9.77713 20.6848 11.3702 20.9502 12.9767 21.0889C13.903 22.4239 14.9319 23.6849 16.0537 24.8605C14.3664 26.5147 12.679 27.6395 11.2565 28.0365L11.2562 28.0366ZM23.9275 27.8711H23.9277C23.2624 28.2136 22.487 28.2733 21.7771 28.0366C20.3546 27.6396 18.6671 26.5146 17.0129 24.8603V24.8606C18.135 23.685 19.1635 22.424 20.0899 21.089C21.6963 20.9503 23.2894 20.6849 24.8541 20.2949C25.7472 24.0003 25.5157 26.9448 23.9277 27.8712L23.9275 27.8711ZM25.3173 19.4348C24.8735 17.8715 24.3095 16.3451 23.6299 14.8691C24.3095 13.3931 24.8735 11.8667 25.3173 10.3034C28.9567 11.3622 31.3386 13.0494 31.3386 14.8691C31.3384 16.6888 28.9563 18.376 25.3173 19.4348Z" fill="#666666"/>
<path d="M25.3171 19.4346L25.3173 19.4348M25.3173 19.4348C24.8735 17.8715 24.3095 16.3451 23.6299 14.8691C24.3095 13.3931 24.8735 11.8667 25.3173 10.3034C28.9567 11.3622 31.3386 13.0494 31.3386 14.8691C31.3384 16.6888 28.9563 18.376 25.3173 19.4348ZM25.4824 9.6416C26.475 5.6053 26.1441 2.39612 24.2584 1.30433H24.2581C23.4345 0.863083 22.4657 0.779314 21.5784 1.07286C20.0234 1.50303 18.2699 2.66085 16.4835 4.3813C14.73 2.66085 12.9433 1.46981 11.3886 1.07286H11.3884C10.5012 0.779308 9.53222 0.863083 8.7086 1.30433C6.82267 2.39612 6.49195 5.5721 7.48454 9.6416C3.58046 10.7664 1 12.6854 1 14.8689C1 17.0525 3.54756 18.9714 7.51762 20.0963C6.52503 24.1326 6.85599 27.3417 8.74168 28.4335C9.2037 28.7012 9.72967 28.8385 10.2637 28.8305C10.6553 28.8258 11.0444 28.7702 11.4218 28.665C12.9767 28.2348 14.7302 27.077 16.5166 25.3566C18.2701 27.077 20.0568 28.268 21.6115 28.665C21.9888 28.7702 22.3779 28.8258 22.7696 28.8305C23.2923 28.8325 23.8062 28.6955 24.2583 28.4335C26.1442 27.3417 26.475 24.1658 25.4824 20.0963C29.4524 18.9382 32 17.0525 32 14.8689C32 12.6854 29.4527 10.7664 25.4824 9.6416ZM21.7768 1.70135C22.1004 1.61365 22.4341 1.56911 22.7694 1.56888C23.1859 1.55919 23.5974 1.66211 23.9604 1.86681C25.5484 2.79318 25.7801 5.73769 24.8538 9.44314C23.2891 9.05312 21.696 8.78771 20.0896 8.64905C19.1632 7.31398 18.1344 6.05305 17.0126 4.87743C18.6668 3.22322 20.3542 2.09841 21.7768 1.70145V1.70135ZM21.4129 17.7473C20.8835 18.7066 20.2881 19.5999 19.6924 20.4603C18.6669 20.5595 17.608 20.5925 16.5162 20.5925C15.4244 20.5925 14.3658 20.5263 13.34 20.4603C12.7446 19.6002 12.1819 18.6739 11.6195 17.7473C11.0571 16.8209 10.594 15.8284 10.1308 14.869C10.561 13.9097 11.0572 12.9501 11.6195 11.9907C12.1819 11.0313 12.7443 10.138 13.34 9.27767C14.3655 9.17843 15.4244 9.14543 16.5162 9.14543C17.608 9.14543 18.6666 9.21166 19.6924 9.27767C20.2878 10.1378 20.8505 11.0641 21.4129 11.9907C21.9753 12.9171 22.4384 13.9096 22.9016 14.869C22.4384 15.8283 21.9752 16.7879 21.4129 17.7473ZM23.2326 15.6961C23.7973 16.9852 24.2725 18.3117 24.6553 19.6662C23.3064 20.0043 21.9356 20.2475 20.5528 20.394C21.049 19.6662 21.5121 18.872 21.9753 18.0782C22.4385 17.2841 22.8686 16.457 23.2656 15.6631L23.2326 15.6961ZM16.5164 24.3973C15.5497 23.3794 14.6543 22.2961 13.8367 21.1548L16.5164 21.2541L19.1962 21.1548C18.3786 22.296 17.4831 23.3793 16.5164 24.3973ZM12.4801 20.361C11.0973 20.2142 9.72651 19.971 8.37762 19.6331C8.76048 18.2787 9.23562 16.9522 9.80036 15.6631C10.1754 16.4572 10.5944 17.2511 11.0576 18.0451C11.4876 18.8723 11.984 19.6331 12.4801 20.361ZM9.76734 14.075C9.204 12.7967 8.72861 11.4813 8.34459 10.1381C9.69349 9.8 11.0643 9.55677 12.4471 9.41024C11.9509 10.1381 11.4878 10.9322 11.0246 11.7261C10.5612 12.52 10.1643 13.2811 9.76734 14.075ZM16.5165 5.34069C17.4833 6.35862 18.3787 7.4419 19.1963 8.58313L16.5165 8.4839L13.8368 8.58313C14.6544 7.44196 15.5498 6.35868 16.5165 5.34069ZM22.0086 11.6598C21.5454 10.8657 21.0823 10.1048 20.5861 9.34395H20.5859C21.9687 9.4905 23.3395 9.73374 24.6884 10.0718C24.3044 11.4149 23.829 12.7304 23.2656 14.0089C22.8687 13.2589 22.4496 12.4759 22.0086 11.6598ZM9.10571 1.86683L9.10548 1.86706C9.46849 1.66236 9.87995 1.55943 10.2965 1.56912C10.6318 1.56935 10.9655 1.61389 11.2891 1.70159C12.7116 2.09853 14.3991 3.22359 16.0533 4.87781V4.87758C14.9315 6.05313 13.9029 7.31412 12.9763 8.64919C11.3699 8.78789 9.77685 9.05328 8.21238 9.44328C7.28601 5.73789 7.51749 2.79332 9.10548 1.86696L9.10571 1.86683ZM1.66172 14.869C1.66172 13.0163 4.07682 11.3621 7.68308 10.3033C8.13748 11.8675 8.7126 13.3938 9.40353 14.869C8.72388 16.345 8.15985 17.8714 7.71611 19.4347C4.07694 18.3759 1.66172 16.7217 1.66172 14.869ZM11.2562 28.0366H11.2564C10.5465 28.2733 9.77111 28.2136 9.10582 27.8711C7.51783 26.9447 7.28612 24.0002 8.21248 20.2948H8.21271C9.77713 20.6848 11.3702 20.9502 12.9767 21.0889C13.903 22.4239 14.9319 23.6849 16.0537 24.8605C14.3664 26.5147 12.679 27.6395 11.2565 28.0365L11.2562 28.0366ZM23.9275 27.8711H23.9277C23.2624 28.2136 22.487 28.2733 21.7771 28.0366C20.3546 27.6396 18.6671 26.5146 17.0129 24.8603V24.8606C18.135 23.685 19.1635 22.424 20.0899 21.089C21.6963 20.9503 23.2894 20.6849 24.8541 20.2949C25.7472 24.0003 25.5157 26.9448 23.9277 27.8712L23.9275 27.8711Z" stroke="#666666" stroke-width="0.3"/>
<path d="M16.5165 11.1973C14.6968 11.1973 12.8771 11.6934 12.8771 12.686V16.987C12.8771 17.9464 14.6968 18.4758 16.5165 18.4758C18.3362 18.4758 20.1559 17.9796 20.1559 16.987V12.686C20.1559 11.7267 18.3362 11.1973 16.5165 11.1973ZM19.4939 14.8367C19.4939 15.0684 18.4684 15.6638 16.5165 15.6638C14.5646 15.6638 13.539 15.1014 13.539 14.8367V13.5794C14.2339 13.9763 15.3587 14.1748 16.5165 14.1748C17.6745 14.1748 18.7994 13.9763 19.4939 13.5794V14.8367ZM16.5165 11.8592C18.4684 11.8592 19.4939 12.4216 19.4939 12.6863C19.4939 12.951 18.4684 13.5134 16.5165 13.5134C14.5646 13.5134 13.539 12.951 13.539 12.6863C13.539 12.4214 14.5646 11.859 16.5165 11.859V11.8592ZM16.5165 17.8805C14.5646 17.8805 13.539 17.3181 13.539 17.0534V15.7297C14.2339 16.1266 15.3587 16.3251 16.5165 16.3251C17.6745 16.3251 18.7994 16.1266 19.4939 15.7297V17.0862C19.4939 17.3179 18.4684 17.8803 16.5165 17.8803V17.8805Z" fill="#666666" stroke="#666666" stroke-width="0.3"/>
</svg>
