<svg width="30" height="29" viewBox="0 0 30 29" fill="none" xmlns="http://www.w3.org/2000/svg">
<path d="M27.1103 8.90635H25.2445V7.04053C25.2445 6.01173 24.4075 5.1747 23.3787 5.1747H17.0171C15.1966 -0.393417 7.30236 -0.389718 5.48458 5.1747H4.25399C3.01072 5.14464 1.89105 6.25925 1.92174 7.50701L1.92171 19.2168C0.692736 21.0535 0.692792 23.8137 1.92171 25.6504V26.6317C1.92171 27.6607 2.75873 28.4975 3.78753 28.4975H27.1103C28.1391 28.4975 28.9762 27.6607 28.9762 26.6317V10.7722C28.9762 9.74338 28.1391 8.90635 27.1103 8.90635ZM17.2349 6.10762H23.3787C23.8932 6.10762 24.3116 6.52601 24.3116 7.04053V8.90635H17.0213C17.3106 8.01521 17.392 7.03697 17.2349 6.10762ZM6.28244 5.75709C6.86414 3.49177 8.90717 1.90951 11.2508 1.90951C14.7886 1.83805 17.3818 5.64335 16.0269 8.90635H6.47472C6.08388 7.91741 6.01106 6.78609 6.28244 5.75709ZM3.26141 6.51896C3.72712 5.98141 4.64187 6.12123 5.26682 6.10762C5.10967 7.03725 5.19112 8.01503 5.48038 8.90635H4.25399C3.03202 8.92962 2.38643 7.36748 3.26141 6.51896ZM3.78754 27.5646C3.3362 27.5646 2.95917 27.2424 2.87327 26.8161C3.16757 27.0969 3.49006 27.347 3.83588 27.5646H3.78754ZM1.92171 22.4336C1.92171 19.6043 4.22347 17.3026 7.05273 17.3026C13.8597 17.5844 13.8577 27.2838 7.0527 27.5646C4.22347 27.5646 1.92171 25.2628 1.92171 22.4336ZM8.59531 16.5761C10.157 10.7299 18.5545 11.6866 18.7141 17.7691C18.7306 20.7693 16.08 23.181 13.0943 22.8749C13.3417 19.937 11.3293 17.2812 8.59531 16.5761ZM28.0433 21.0342H22.9122C22.6551 21.0342 22.4458 20.8251 22.4458 20.5678V16.8361C22.4458 16.5787 22.6551 16.3697 22.9122 16.3697H28.0433V21.0342ZM28.0433 15.4367H22.9122C22.1406 15.4367 21.5129 16.0645 21.5129 16.8361V20.5678C21.5129 21.3394 22.1406 21.9671 22.9122 21.9671H28.0433V26.6317C28.0433 27.146 27.6249 27.5646 27.1103 27.5646H10.2696C11.6059 26.7237 12.591 25.3793 12.9565 23.7967C16.4991 24.1947 19.6683 21.331 19.647 17.769C19.4549 10.5552 9.48365 9.45535 7.67972 16.4022C5.88553 16.2025 4.07029 16.8781 2.85462 18.068V9.36088C3.24563 9.65689 3.72692 9.83927 4.25398 9.83927C9.94985 9.83972 21.4445 9.83893 27.1103 9.83927C27.6249 9.83927 28.0433 10.2577 28.0433 10.7722L28.0433 15.4367Z" fill="#666666" stroke="#666666" stroke-width="0.3"/>
</svg>
