<svg width="25" height="30" viewBox="0 0 25 30" fill="none" xmlns="http://www.w3.org/2000/svg">
<path d="M22.0881 19.2601C24.5909 16.4719 25.561 12.6311 24.6826 8.98919C23.8042 5.34735 21.1896 2.37085 17.6911 1.03064C14.1929 -0.30958 10.2585 0.157594 7.1709 2.27996C4.08382 4.40271 2.23918 7.90846 2.23841 11.655C2.23841 11.9536 2.23841 12.2635 2.2763 12.5731C1.73292 13.6595 0.961788 15.1915 0.532445 16.0335C0.222865 16.6909 0.222864 16.6909 0.206567 16.6909C0.0678797 17.0001 -0.0022165 17.3354 5.34148e-05 17.6742C0.00156911 18.3074 0.253935 18.9148 0.701825 19.3627C1.14971 19.8106 1.75675 20.063 2.39029 20.0641H2.60741V22.6987C2.60741 23.4687 2.9132 24.2072 3.45696 24.7521C4.00072 25.297 4.73849 25.6036 5.50842 25.6051H8.45794L9.71823 29.8369H24.0817L22.0881 19.2601ZM10.5232 28.7502L9.26291 24.5184H5.50397C5.02274 24.5184 4.5612 24.3274 4.22089 23.9871C3.88062 23.6469 3.68926 23.1853 3.68926 22.704V18.983H2.39104C1.94922 18.9827 1.5377 18.7587 1.29751 18.3881C1.05727 18.0172 1.02089 17.55 1.20126 17.1468C1.20126 17.0979 2.62985 14.3438 3.37397 12.8009H3.37435C3.33456 12.4276 3.31448 12.0521 3.31448 11.6766C3.31713 8.24619 5.02953 5.0431 7.87972 3.13482C10.7304 1.22655 14.3446 0.864719 17.5169 2.16933C20.6893 3.47433 23.0027 6.27418 23.6859 9.63568C24.3691 12.9971 23.3319 16.4779 20.9204 18.9179L22.773 28.7503L10.5232 28.7502ZM21.4362 8.46071L21.9307 7.62973H20.9637V7.62935C19.6716 7.57137 18.3995 7.28832 17.2044 6.79306C15.1074 5.9564 12.902 5.19055 11.0006 5.82079C8.18149 6.75521 6.2637 10.0795 6.65473 12.1439C6.69262 12.3342 6.73089 12.5081 6.76879 12.6873L6.76917 12.6869C6.01359 13.3304 5.47968 14.1951 5.24251 15.1586L6.32886 15.3977H6.32924C6.48612 14.8055 6.78016 14.2583 7.18751 13.8005C7.33832 14.1071 7.55545 14.3761 7.82297 14.5883L7.92073 14.6698C9.14502 15.7581 10.7263 16.3594 12.3644 16.359C13.0529 16.3598 13.7372 16.2499 14.3906 16.0332C17.536 14.9794 21.2787 8.72142 21.4363 8.46077L21.4362 8.46071ZM14.0374 14.9793C12.1689 15.5852 10.1193 15.1574 8.64867 13.8547L8.50203 13.7296V13.73C8.3046 13.575 8.15418 13.3681 8.0674 13.1324C8.37547 12.9907 8.70703 12.9077 9.0454 12.888C11.8377 12.7251 13.098 11.378 13.1469 11.3181L12.3428 10.6061C12.2992 10.6497 11.2996 11.6925 8.9802 11.8228V11.8232C8.56452 11.8448 8.15528 11.935 7.76881 12.0892L7.73622 11.9426C7.45392 10.503 8.95295 7.65128 11.3432 6.85816C11.7157 6.74146 12.1045 6.68461 12.4948 6.68954C13.8419 6.68954 15.3902 7.23292 16.7918 7.80849C17.8372 8.22947 18.9327 8.51442 20.051 8.65615C18.7202 10.7149 16.0529 14.3218 14.0375 14.9903L14.0374 14.9793Z" fill="#666666"/>
</svg>
