<svg width="31" height="31" viewBox="0 0 31 31" fill="none" xmlns="http://www.w3.org/2000/svg">
<path d="M4.66533 2.96011L10.0618 7.11117V10.0616H7.1116L2.96088 4.66471L4.66533 2.96011ZM11.8739 10.5883C11.8739 10.5657 11.8739 10.5373 11.8739 10.5147V6.89031C11.8739 6.46557 11.6757 6.06916 11.3416 5.81432L5.45244 1.28384C4.91449 0.864766 4.15003 0.915734 3.66305 1.3971L1.39799 3.66234C0.916665 4.1437 0.865701 4.90822 1.27907 5.45188L5.80919 11.3415C6.06401 11.6756 6.46606 11.8738 6.88509 11.8738H10.5092C10.5318 11.8738 10.5601 11.8738 10.5828 11.8738L16.3587 17.6445C15.2545 19.3435 15.4413 21.637 16.9306 23.1264L23.2728 29.4691C23.9806 30.177 25.1301 30.177 25.838 29.4691L29.4621 25.8447C30.1699 25.1368 30.1699 23.9872 29.4621 23.2793L23.1199 16.9366C21.6306 15.4472 19.3372 15.2547 17.6385 16.3647L11.8739 10.5883ZM18.216 18.2165C19.2183 17.2141 20.8378 17.2141 21.8401 18.2165L28.1823 24.5592L24.5582 28.1836L18.216 21.8409C17.2138 20.8385 17.2138 19.2189 18.216 18.2165ZM6.89075 25.0122C6.89075 24.7719 6.7953 24.5414 6.62539 24.3715C6.45547 24.2016 6.22502 24.1061 5.98473 24.1061C5.74444 24.1061 5.51399 24.2016 5.34408 24.3715C5.17416 24.5414 5.07871 24.7719 5.07871 25.0122C5.07871 25.2525 5.17416 25.483 5.34408 25.6529C5.51399 25.8229 5.74444 25.9183 5.98473 25.9183C6.22502 25.9183 6.45547 25.8229 6.62539 25.6529C6.7953 25.483 6.89075 25.2525 6.89075 25.0122ZM2.31534 22.3392C1.4716 23.183 1.0016 24.3213 1.0016 25.5106C1.0016 27.9854 3.01184 29.9958 5.48642 29.9958C6.67557 29.9958 7.81376 29.5257 8.6575 28.6819L14.507 22.8319C14.1842 22.1977 13.9804 21.5238 13.8898 20.8329L7.34943 27.3737C6.85678 27.8664 6.18292 28.1439 5.48642 28.1439C4.03112 28.1439 2.84763 26.966 2.84763 25.5049C2.84763 24.8084 3.1251 24.1344 3.61775 23.6418L11.7097 15.5548L10.4016 14.2467L2.31534 22.3392ZM28.1483 10.0616C28.1483 12.5987 26.8402 14.8243 24.864 16.1098L26.1947 17.4407C28.4994 15.7984 30 13.1027 30 10.0616C30 8.65719 29.6772 7.32636 29.111 6.13711C28.8618 5.61611 28.1766 5.54249 27.7689 5.95023L23.924 9.79548C23.7541 9.96537 23.5219 10.0616 23.2841 10.0616H21.8401C21.3418 10.0616 20.9341 9.6539 20.9341 9.15555V7.71712C20.9341 7.47927 21.0304 7.24708 21.2003 7.07719L25.0452 3.23194C25.4529 2.8242 25.3793 2.13896 24.8583 1.88979C23.6692 1.32348 22.3384 1.00068 20.9341 1.00068C17.7687 1.00068 14.9827 2.62033 13.3632 5.08378L14.8354 6.2164C16.1095 4.18901 18.3689 2.84685 20.9341 2.84685C21.5174 2.84685 22.078 2.91481 22.6159 3.04506L19.8922 5.76901C19.3769 6.28435 19.0881 6.98658 19.0881 7.71712V9.15555C19.0881 10.6789 20.3225 11.9078 21.8401 11.9078H23.2784C24.0089 11.9078 24.7111 11.619 25.2264 11.1037L27.9501 8.3797C28.0804 8.91769 28.1483 9.484 28.1483 10.0616Z" fill="#666666" stroke="white" stroke-width="0.3"/>
</svg>
