<svg width="30" height="35" viewBox="0 0 30 35" fill="none" xmlns="http://www.w3.org/2000/svg">
<path d="M24.6142 17.6647C24.477 17.5596 24.3307 17.459 24.1858 17.3683L21.7715 15.8447C21.6741 15.7829 21.5552 15.7638 21.4432 15.7924C21.3311 15.8206 21.2357 15.8934 21.1788 15.994C20.7397 16.7711 19.8976 17.1175 18.4485 17.1175C17.0271 17.1175 16.2306 16.7816 15.7854 15.994C15.7286 15.8934 15.6329 15.8206 15.521 15.7924C15.4093 15.7642 15.2902 15.7833 15.1927 15.8447L14.2618 16.4326L13.3304 15.8447C13.2325 15.7829 13.1138 15.7636 13.0021 15.7924C12.89 15.8206 12.7946 15.8934 12.7377 15.994C12.1872 16.9681 11.1539 17.5734 10.0411 17.5734C8.92844 17.5734 7.89494 16.9681 7.34428 15.994C7.2874 15.8934 7.19178 15.8206 7.07988 15.7924C6.96756 15.7638 6.84927 15.7829 6.75159 15.8447L4.33774 17.3681C2.4224 18.5756 1.27905 20.6512 1.27905 22.9208V33.5778C1.27905 33.8109 1.46803 33.9998 1.70111 33.9998H18.3809H26.822C27.0551 33.9998 27.2441 33.8109 27.2441 33.5778V22.9208C27.2441 20.8534 26.259 18.8872 24.6142 17.6647ZM4.97639 33.1557H2.12317V29.3572H4.97639V33.1557ZM17.9588 33.1557H15.1058V29.3572H17.9588V33.1557ZM17.9588 28.5131H15.1058V24.2925C15.1058 24.0594 14.9168 23.8704 14.6837 23.8704C14.4506 23.8704 14.2617 24.0594 14.2617 24.2925V33.1557H5.8205V24.2925C5.8205 24.0594 5.63153 23.8704 5.39845 23.8704C5.16537 23.8704 4.97639 24.0594 4.97639 24.2925V28.5131H2.12317V22.9208C2.12317 20.9428 3.11937 19.134 4.78803 18.0822L6.84845 16.7818C7.5854 17.8005 8.77244 18.4175 10.0411 18.4175C11.3097 18.4175 12.4966 17.8005 13.2335 16.7818L14.0351 17.2876C14.0356 17.288 14.0359 17.2885 14.0364 17.2888L15.2954 18.083C15.4192 18.1605 15.5433 18.2454 15.6643 18.3384C17.1011 19.4061 17.9588 21.1192 17.9588 22.9208V28.5131ZM26.4 33.1557H23.5469V29.3572H26.4V33.1557ZM26.4 28.5131H23.5469V24.2925C23.5469 24.0594 23.358 23.8704 23.1249 23.8704C22.8918 23.8704 22.7028 24.0594 22.7028 24.2925V33.1557H18.8029V22.9208C18.8029 20.8534 17.8178 18.8872 16.1731 17.6647C16.0358 17.5596 15.8895 17.459 15.7446 17.3683L15.0525 16.9316L15.2968 16.7773C16.1269 17.8302 17.4704 17.9616 18.4485 17.9616C19.4529 17.9616 20.8308 17.8302 21.6668 16.7769L23.7365 18.083C23.8604 18.1605 23.9845 18.2454 24.1054 18.3384C25.5422 19.4061 26.4 21.1192 26.4 22.9208V28.5131Z" fill="#666666" stroke="#666666" stroke-width="0.3"/>
<path d="M27.5228 4.45496H24.3501C23.3476 1.91962 21.0271 0.234375 18.4823 0.234375C16.9052 0.234375 15.4246 0.85672 14.2612 1.98472C13.0945 0.856797 11.6142 0.234375 10.0412 0.234375C7.49057 0.234375 5.17005 1.91964 4.17256 4.45496H1.77725C1.38137 4.45496 1.01021 4.60828 0.731587 4.88691C0.453375 5.16532 0.300049 5.53669 0.300049 5.93216C0.300049 6.7466 0.962812 7.40936 1.77725 7.40936H3.73628C3.7632 7.73023 3.80537 8.05268 3.88115 8.38063C4.19296 9.75665 4.66056 11.104 5.2786 12.4009C5.7256 13.3485 6.40711 14.1462 7.25082 14.7084C8.09679 15.2677 9.06167 15.5635 10.0412 15.5635C11.0176 15.5635 11.9821 15.2696 12.8367 14.7092C12.9356 14.6418 13.0389 14.5699 13.1349 14.4966C13.5635 14.1663 13.9383 13.7715 14.2634 13.3184C14.3005 13.3701 14.3378 13.4232 14.3737 13.4699C14.4204 13.5358 14.472 13.5974 14.5363 13.6737C14.6181 13.7691 14.7003 13.8641 14.8069 13.9706L14.8497 14.0133C14.9455 14.1093 15.0416 14.2006 15.1376 14.2837C15.2198 14.3566 15.3023 14.4253 15.3944 14.4978C15.489 14.5701 15.5879 14.6377 15.692 14.7084C16.538 15.2677 17.5028 15.5635 18.4823 15.5635C19.4588 15.5635 20.4232 15.2696 21.2779 14.7092C21.3358 14.6698 21.3942 14.6264 21.453 14.5844H25.1254C25.1848 14.5844 25.2433 14.5718 25.2973 14.5477L25.884 14.2859C25.997 14.2357 26.0821 14.1384 26.1169 14.0199C26.3907 13.0914 26.8025 10.6566 25.0778 7.40936H27.5228C28.3372 7.40936 29 6.7466 29 5.93216C29 5.11772 28.3372 4.45496 27.5228 4.45496ZM18.4823 1.07849C20.5766 1.07849 22.5036 2.41308 23.4382 4.45496H19.0816H15.9139C15.8767 4.36054 15.8333 4.27013 15.7925 4.17803C15.7692 4.12535 15.7476 4.07162 15.7231 4.01971C15.6312 3.82501 15.5324 3.63513 15.4246 3.45169C15.4046 3.41777 15.382 3.38593 15.3616 3.35241C15.2702 3.2028 15.1737 3.05709 15.0717 2.91554C15.0324 2.86103 14.9918 2.80779 14.9509 2.75451C14.9109 2.70225 14.8739 2.64756 14.8324 2.5965C15.8397 1.61493 17.1226 1.07849 18.4823 1.07849ZM10.0412 1.07849C11.5155 1.07849 12.9035 1.71281 13.9504 2.86606C14.0768 3.00413 14.1943 3.14973 14.3071 3.29909C14.3409 3.34378 14.3726 3.39018 14.4051 3.43585C14.4841 3.5467 14.5595 3.66033 14.6312 3.77684C14.6623 3.82748 14.6937 3.8779 14.7234 3.9296C14.803 4.06791 14.8776 4.20995 14.9471 4.35557C14.9602 4.38301 14.9752 4.40905 14.9879 4.43674C14.9906 4.44264 14.9926 4.44906 14.9953 4.45496H5.08385C6.01411 2.41288 7.94161 1.07849 10.0412 1.07849ZM1.77725 6.56525C1.42815 6.56525 1.14417 6.28126 1.14417 5.93216C1.14417 5.76441 1.21155 5.60078 1.32861 5.48352C1.44752 5.36461 1.60682 5.29907 1.77725 5.29907H4.46148H15.6207H19.0816C19.4307 5.29907 19.7147 5.58305 19.7147 5.93216C19.7147 6.28126 19.4307 6.56525 19.0816 6.56525H17.3681H15.9626H13.9242H4.12804H1.77725ZM15.5135 7.40936C15.5135 7.41101 15.5133 7.41266 15.5131 7.41431C15.4981 7.56565 15.4719 7.72802 15.4399 7.89719C15.4366 7.9147 15.4332 7.93243 15.4297 7.95015C15.3719 7.90105 15.3125 7.8476 15.2527 7.7927C15.2338 7.77534 15.2156 7.7603 15.1965 7.74234C15.1115 7.66269 15.0247 7.5776 14.9359 7.48664C14.9125 7.4633 14.8868 7.43378 14.8631 7.40936H15.5135ZM4.57504 7.40936H10.314C8.1843 9.29353 5.20766 8.06012 4.62429 7.78923C4.60363 7.6629 4.58714 7.53616 4.57504 7.40936ZM14.5145 10.9555C14.4775 11.0481 14.4433 11.1418 14.4048 11.2337C14.2901 11.5075 14.1695 11.7788 14.0417 12.0464C14.0126 12.107 13.9819 12.1662 13.9518 12.2245L13.8956 12.3346C13.5629 12.9291 13.1338 13.4316 12.6213 13.8268C12.5385 13.8899 12.4476 13.9527 12.3674 14.0075C10.9451 14.9401 9.12803 14.9378 7.7176 14.0053C7.00311 13.5288 6.4236 12.8495 6.03287 12.0225C5.53966 10.9868 5.15027 9.90369 4.85678 8.78541C5.47351 9.00241 6.42862 9.26122 7.48555 9.26122C8.82081 9.26122 10.3134 8.84429 11.4761 7.40936H13.7257C13.7827 7.47709 13.8373 7.53729 13.893 7.60092C13.9303 7.64355 13.9681 7.68824 14.0048 7.72897C14.1184 7.85515 14.2294 7.974 14.3353 8.07996C14.4739 8.22187 14.6069 8.34689 14.7376 8.46453C14.7693 8.49297 14.801 8.52116 14.8323 8.54825C14.9607 8.65959 15.087 8.76338 15.2097 8.85238C15.1795 8.96707 15.1482 9.08144 15.1156 9.19561C15.0808 9.31774 15.0471 9.44013 15.0096 9.56162C14.9576 9.73035 14.9006 9.89758 14.8436 10.0649C14.805 10.1783 14.7684 10.2925 14.7275 10.4052C14.6605 10.5901 14.5875 10.7728 14.5145 10.9555ZM21.0606 13.8281C20.9783 13.8907 20.8882 13.9531 20.8086 14.0075C19.3864 14.9401 17.5659 14.9355 16.1621 14.0075C16.0755 13.9486 15.9889 13.8896 15.9119 13.8309C15.8383 13.7728 15.7684 13.7149 15.694 13.6489C15.6091 13.5754 15.5279 13.4977 15.4451 13.415L15.3829 13.3528C15.3116 13.2815 15.2444 13.2028 15.1691 13.1148C15.1323 13.0711 15.095 13.0278 15.0488 12.9633C15.001 12.9009 14.953 12.8386 14.9006 12.7603C14.8468 12.6849 14.7951 12.6068 14.7459 12.5262C14.765 12.4885 14.7842 12.4502 14.8029 12.4112C15.02 11.9569 15.2134 11.4917 15.3938 11.0216C15.4448 10.8884 15.5001 10.7568 15.5482 10.6227C15.766 10.0145 15.9528 9.3958 16.107 8.77054C16.1419 8.63082 16.1767 8.49109 16.201 8.37404C16.2086 8.35425 16.2146 8.33406 16.2191 8.31324C16.249 8.17545 16.2724 8.05002 16.293 7.92895C16.2976 7.90244 16.3023 7.87498 16.3065 7.84912C16.3099 7.82776 16.3143 7.80478 16.3174 7.78382C16.7018 7.66944 17.0795 7.54393 17.4439 7.40936H19.0816H22.1669C22.2752 7.53829 22.3814 7.6571 22.4871 7.7738C22.5072 7.79597 22.528 7.8213 22.548 7.84306C22.6961 8.00404 22.8409 8.15036 22.9834 8.28679C23.026 8.32759 23.0674 8.36337 23.1096 8.40199C23.2109 8.49488 23.3109 8.58236 23.4091 8.66227C23.4557 8.70016 23.5018 8.73651 23.5477 8.77144C23.5818 8.79746 23.6171 8.82835 23.6508 8.85272C23.6208 8.96624 23.5899 9.07951 23.5576 9.19255C23.5225 9.31573 23.4885 9.43918 23.4508 9.56172C23.3983 9.73187 23.3408 9.9006 23.2833 10.0693C23.2453 10.1809 23.2094 10.293 23.1692 10.4038C23.1011 10.5917 23.027 10.7776 22.9526 10.9633C22.9167 11.0531 22.8836 11.144 22.8462 11.2333C22.7314 11.5074 22.6107 11.779 22.4826 12.0471C22.1396 12.7634 21.6612 13.3626 21.0606 13.8281ZM23.2999 7.40936H23.9478C23.945 7.43778 23.9442 7.46562 23.9409 7.49411C23.9302 7.58587 23.9151 7.6773 23.9001 7.76895C23.8903 7.82921 23.8801 7.8891 23.8685 7.94889C23.8581 7.94013 23.8479 7.93178 23.8374 7.92284C23.7663 7.86184 23.694 7.79708 23.6204 7.72792C23.6083 7.71653 23.5965 7.70641 23.5843 7.69479C23.4989 7.61346 23.4116 7.52577 23.3233 7.43412C23.3156 7.42611 23.3077 7.41745 23.2999 7.40936ZM25.3567 13.597L25.0356 13.7402H22.3767C22.3991 13.7145 22.4168 13.6843 22.4387 13.6581C22.545 13.5312 22.6433 13.3969 22.7391 13.26C22.7847 13.1947 22.8338 13.1327 22.877 13.0652C23.0104 12.8569 23.1345 12.6402 23.2441 12.4112C23.4612 11.9569 23.6545 11.4917 23.8349 11.0216C23.886 10.8884 23.9413 10.7568 23.9893 10.6227C24.2072 10.0145 24.3939 9.3958 24.5482 8.77054C24.5646 8.70452 24.5809 8.63896 24.5963 8.57543C24.6002 8.55915 24.6033 8.54452 24.6071 8.52857C24.6165 8.4889 24.6262 8.44854 24.6341 8.41196C25.7907 10.934 25.5434 12.8306 25.3567 13.597ZM27.5228 6.56525H24.4037H22.3654H20.4162C20.4205 6.55626 20.422 6.54593 20.4261 6.53683C20.454 6.47506 20.4739 6.40973 20.4932 6.34384C20.5028 6.31107 20.5161 6.28018 20.5235 6.24651C20.5456 6.14497 20.5588 6.04022 20.5588 5.93216C20.5588 5.82409 20.5456 5.71935 20.5235 5.61781C20.5161 5.58414 20.5028 5.55325 20.4932 5.52048C20.4739 5.45459 20.454 5.38926 20.4261 5.32749C20.422 5.31839 20.4205 5.30806 20.4162 5.29907H24.0618H27.5228C27.8719 5.29907 28.1559 5.58305 28.1559 5.93216C28.1559 6.28126 27.8719 6.56525 27.5228 6.56525Z" fill="#666666" stroke="#666666" stroke-width="0.3"/>
</svg>
