<svg width="76" height="54" viewBox="0 0 76 54" fill="none" xmlns="http://www.w3.org/2000/svg">
<path d="M18 33.75C19.1742 33.75 20.8406 32.7375 22.3523 29.7211C23.0484 28.3289 23.632 26.6484 24.0469 24.75H11.9531C12.368 26.6484 12.9516 28.3289 13.6477 29.7211C15.1594 32.7375 16.8258 33.75 18 33.75ZM11.5523 22.5H24.4477C24.6445 21.0797 24.75 19.568 24.75 18C24.75 16.432 24.6445 14.9203 24.4477 13.5H11.5523C11.3555 14.9203 11.25 16.432 11.25 18C11.25 19.568 11.3555 21.0797 11.5523 22.5ZM11.9531 11.25H24.0469C23.632 9.35156 23.0484 7.67109 22.3523 6.27891C20.8406 3.2625 19.1742 2.25 18 2.25C16.8258 2.25 15.1594 3.2625 13.6477 6.27891C12.9516 7.67109 12.368 9.35156 11.9531 11.25ZM26.7188 13.5C26.9016 14.9414 27 16.4461 27 18C27 19.5539 26.9016 21.0586 26.7188 22.5H33.1031C33.525 21.0727 33.757 19.5609 33.757 18C33.757 16.4391 33.532 14.9273 33.1031 13.5H26.7188ZM32.2383 11.25C30.4172 7.41797 27.0984 4.43672 23.0344 3.07266C24.5109 5.0625 25.6781 7.91016 26.3531 11.25H32.2453H32.2383ZM9.66094 11.25C10.3359 7.90313 11.5031 5.0625 12.9797 3.07266C8.90859 4.43672 5.58281 7.41797 3.76875 11.25H9.65391H9.66094ZM2.91094 13.5C2.48906 14.9273 2.25703 16.4391 2.25703 18C2.25703 19.5609 2.48203 21.0727 2.91094 22.5H9.28125C9.09844 21.0586 9 19.5539 9 18C9 16.4461 9.09844 14.9414 9.28125 13.5H2.90391H2.91094ZM23.0273 32.9273C27.0914 31.5562 30.4102 28.582 32.2313 24.75H26.3461C25.6711 28.0969 24.5039 30.9375 23.0273 32.9273ZM12.9727 32.9273C11.4961 30.9375 10.3359 28.0898 9.65391 24.75H3.76875C5.58984 28.582 8.90859 31.5633 12.9727 32.9273ZM18 36C13.2261 36 8.64773 34.1036 5.27208 30.7279C1.89642 27.3523 0 22.7739 0 18C0 13.2261 1.89642 8.64773 5.27208 5.27208C8.64773 1.89642 13.2261 0 18 0C22.7739 0 27.3523 1.89642 30.7279 5.27208C34.1036 8.64773 36 13.2261 36 18C36 22.7739 34.1036 27.3523 30.7279 30.7279C27.3523 34.1036 22.7739 36 18 36Z" fill="#666666"/>
<path d="M50.0557 18.125C50.0557 17.4454 49.7864 16.7936 49.3071 16.313C48.8279 15.8325 48.1778 15.5625 47.5 15.5625C46.8222 15.5625 46.1721 15.8325 45.6929 16.313C45.2136 16.7936 44.9443 17.4454 44.9443 18.125C44.9443 18.8046 45.2136 19.4564 45.6929 19.937C46.1721 20.4175 46.8222 20.6875 47.5 20.6875C48.1778 20.6875 48.8279 20.4175 49.3071 19.937C49.7864 19.4564 50.0557 18.8046 50.0557 18.125ZM42.3886 18.125C42.3886 16.7658 42.9271 15.4622 43.8857 14.5011C44.8443 13.54 46.1444 13 47.5 13C48.8556 13 50.1557 13.54 51.1143 14.5011C52.0729 15.4622 52.6114 16.7658 52.6114 18.125C52.6114 19.4842 52.0729 20.7878 51.1143 21.7489C50.1557 22.71 48.8556 23.25 47.5 23.25C46.1444 23.25 44.8443 22.71 43.8857 21.7489C42.9271 20.7878 42.3886 19.4842 42.3886 18.125ZM41.8935 31.8984L41.566 35.8463C41.4382 37.3438 42.6122 38.625 44.1137 38.625H50.8943C52.3878 38.625 53.5618 37.3438 53.442 35.8463L53.1065 31.8984C52.9388 29.9045 51.2776 28.375 49.289 28.375H45.711C43.7144 28.375 42.0532 29.9045 41.8935 31.8984ZM39.3458 31.6822C39.6173 28.367 42.3886 25.8125 45.711 25.8125H49.289C52.6114 25.8125 55.3827 28.367 55.6542 31.6902L55.9817 35.6381C56.1814 38.0244 54.7278 40.1305 52.6114 40.8912V52.7188C52.6114 53.4234 52.0363 54 51.3335 54C50.6307 54 50.0557 53.4234 50.0557 52.7188V41.1875H44.9443V52.7188C44.9443 53.4234 44.3693 54 43.6665 54C42.9637 54 42.3886 53.4234 42.3886 52.7188V40.8912C40.2722 40.1305 38.8186 38.0244 39.0183 35.6381L39.3458 31.6902V31.6822Z" fill="#00BFFF"/>
<path d="M70.0557 18.125C70.0557 17.4454 69.7864 16.7936 69.3071 16.313C68.8279 15.8325 68.1778 15.5625 67.5 15.5625C66.8222 15.5625 66.1721 15.8325 65.6929 16.313C65.2136 16.7936 64.9443 17.4454 64.9443 18.125C64.9443 18.8046 65.2136 19.4564 65.6929 19.937C66.1721 20.4175 66.8222 20.6875 67.5 20.6875C68.1778 20.6875 68.8279 20.4175 69.3071 19.937C69.7864 19.4564 70.0557 18.8046 70.0557 18.125ZM62.3886 18.125C62.3886 16.7658 62.9271 15.4622 63.8857 14.5011C64.8443 13.54 66.1444 13 67.5 13C68.8556 13 70.1557 13.54 71.1143 14.5011C72.0729 15.4622 72.6114 16.7658 72.6114 18.125C72.6114 19.4842 72.0729 20.7878 71.1143 21.7489C70.1557 22.71 68.8556 23.25 67.5 23.25C66.1444 23.25 64.8443 22.71 63.8857 21.7489C62.9271 20.7878 62.3886 19.4842 62.3886 18.125ZM61.8935 31.8984L61.566 35.8463C61.4382 37.3438 62.6122 38.625 64.1137 38.625H70.8943C72.3878 38.625 73.5618 37.3438 73.442 35.8463L73.1065 31.8984C72.9388 29.9045 71.2776 28.375 69.289 28.375H65.711C63.7144 28.375 62.0532 29.9045 61.8935 31.8984ZM59.3458 31.6822C59.6173 28.367 62.3886 25.8125 65.711 25.8125H69.289C72.6114 25.8125 75.3827 28.367 75.6542 31.6902L75.9817 35.6381C76.1814 38.0244 74.7278 40.1305 72.6114 40.8912V52.7188C72.6114 53.4234 72.0363 54 71.3335 54C70.6307 54 70.0557 53.4234 70.0557 52.7188V41.1875H64.9443V52.7188C64.9443 53.4234 64.3693 54 63.6665 54C62.9637 54 62.3886 53.4234 62.3886 52.7188V40.8912C60.2722 40.1305 58.8186 38.0244 59.0183 35.6381L59.3458 31.6902V31.6822Z" fill="#00BFFF"/>
</svg>
