<svg width="31" height="42" viewBox="0 0 31 42" fill="none" xmlns="http://www.w3.org/2000/svg">
<path d="M25.8333 39.375H24.5417V38.0625C24.5417 34.4367 21.6516 31.5 18.0833 31.5H12.9167C9.34844 31.5 6.45833 34.4367 6.45833 38.0625V39.375H5.16667C3.73776 39.375 2.58333 38.202 2.58333 36.75V5.25C2.58333 3.79805 3.73776 2.625 5.16667 2.625H15.5V11.8125C15.5 13.9863 17.2357 15.75 19.375 15.75H28.4167V36.75C28.4167 38.202 27.2622 39.375 25.8333 39.375ZM21.9583 38.0625V39.375H9.04167V38.0625C9.04167 35.8887 10.7773 34.125 12.9167 34.125H18.0833C20.2227 34.125 21.9583 35.8887 21.9583 38.0625ZM19.375 13.125C18.6646 13.125 18.0833 12.5344 18.0833 11.8125V2.66602C18.3094 2.72344 18.5193 2.83828 18.6807 3.01055L28.0372 12.518C28.2068 12.6902 28.3198 12.8953 28.3763 13.125H19.375ZM5.16667 0C2.31693 0 0 2.3543 0 5.25V36.75C0 39.6457 2.31693 42 5.16667 42H25.8333C28.6831 42 31 39.6457 31 36.75V13.4449C31 12.4031 30.5883 11.4023 29.8617 10.6641L20.5133 1.15664C19.7867 0.418359 18.8018 0 17.7766 0H5.16667ZM15.5 21C16.1851 21 16.8422 21.2766 17.3267 21.7688C17.8112 22.2611 18.0833 22.9288 18.0833 23.625C18.0833 24.3212 17.8112 24.9889 17.3267 25.4812C16.8422 25.9734 16.1851 26.25 15.5 26.25C14.8149 26.25 14.1578 25.9734 13.6733 25.4812C13.1888 24.9889 12.9167 24.3212 12.9167 23.625C12.9167 22.9288 13.1888 22.2611 13.6733 21.7688C14.1578 21.2766 14.8149 21 15.5 21ZM15.5 28.875C16.8703 28.875 18.1844 28.3219 19.1534 27.3373C20.1223 26.3527 20.6667 25.0174 20.6667 23.625C20.6667 22.2326 20.1223 20.8973 19.1534 19.9127C18.1844 18.9281 16.8703 18.375 15.5 18.375C14.1297 18.375 12.8156 18.9281 11.8466 19.9127C10.8777 20.8973 10.3333 22.2326 10.3333 23.625C10.3333 25.0174 10.8777 26.3527 11.8466 27.3373C12.8156 28.3219 14.1297 28.875 15.5 28.875Z" fill="#666666"/>
</svg>
