<svg width="84" height="84" viewBox="0 0 84 84" fill="none" xmlns="http://www.w3.org/2000/svg">
<path d="M83.187 42.0988C83.187 52.9975 78.8576 63.4498 71.1511 71.1563C63.4445 78.8628 52.9923 83.1923 42.0936 83.1923C31.1949 83.1923 20.7427 78.8628 13.0361 71.1563C5.32963 63.4498 1.00015 52.9975 1.00015 42.0988C0.985543 36.8041 2.00925 31.558 4.01334 26.6572C7.08125 19.0731 12.3457 12.5789 19.1309 8.00823C25.9161 3.43754 33.9125 0.998929 42.0936 1.00541C42.2308 0.998197 42.3683 0.998197 42.5055 1.00541C53.3344 1.10829 63.6844 5.48382 71.3033 13.1798C78.9222 20.8758 83.1933 31.2694 83.187 42.0988Z" fill="#66D0F8" stroke="#0052B4" stroke-linecap="round" stroke-linejoin="round"/>
<path d="M50.6197 45.4293C35.3804 55.3431 17.9444 60.6036 6.79492 63.1543C10.4384 69.2661 15.6074 74.3263 21.7954 77.8389C27.9833 81.3516 34.9778 83.196 42.0932 83.1916C44.3742 83.1927 46.6511 83.0018 48.9 82.6207C55.8879 81.4505 62.4543 78.4924 67.9609 74.0339C73.4675 69.5755 77.7272 63.7683 80.3258 57.1768C82.9244 50.5853 83.7737 43.4337 82.7911 36.4169C81.8084 29.4001 79.0273 22.7569 74.718 17.1328C72.7742 23.4338 67.1164 34.7205 50.6197 45.4293Z" fill="white" stroke="#0052B4" stroke-linecap="round" stroke-linejoin="round"/>
<path d="M77.9122 62.2436C74.9045 67.5906 70.7375 72.1962 65.7172 75.7223C60.6969 79.2484 54.9507 81.6055 48.9004 82.6205C46.6515 83.0015 44.3745 83.1925 42.0936 83.1913C36.6963 83.1942 31.3514 82.1332 26.3644 80.0691C21.3775 78.005 16.8462 74.9781 13.0298 71.1617C9.21334 67.3453 6.18653 62.814 4.1224 57.8271C2.05827 52.8401 0.997305 47.4952 1.00015 42.0979C0.985543 36.8032 2.00925 31.557 4.01333 26.6562C12.2364 28.824 29.4845 34.2434 50.6779 45.5446C60.084 50.5574 69.1787 56.1339 77.9122 62.2436Z" fill="#66D0F8" stroke="#0052B4" stroke-linecap="round" stroke-linejoin="round"/>
<path d="M48.9004 82.6215C46.6515 83.0025 44.3745 83.1934 42.0936 83.1923C36.6963 83.1951 31.3514 82.1342 26.3644 80.07C21.3775 78.0059 16.8462 74.9791 13.0298 71.1626C9.21334 67.3462 6.18653 62.815 4.1224 57.828C2.05827 52.841 0.997305 47.4961 1.00015 42.0988C0.985543 36.8041 2.00925 31.558 4.01334 26.6572C7.08125 19.0731 12.3457 12.5789 19.1309 8.00823C25.9161 3.43754 33.9125 0.998929 42.0936 1.00541C42.2308 0.998197 42.3683 0.998197 42.5055 1.00541C45.049 8.02894 49.6591 23.5139 50.6779 45.5311C51.2435 57.9229 50.6484 70.3405 48.9004 82.6215Z" fill="white" stroke="#0052B4" stroke-linecap="round" stroke-linejoin="round"/>
<path d="M48.9004 82.6205C46.6515 83.0015 44.3745 83.1925 42.0936 83.1913C36.6963 83.1942 31.3514 82.1332 26.3644 80.0691C21.3775 78.005 16.8462 74.9781 13.0298 71.1617C9.21334 67.3453 6.18653 62.814 4.1224 57.8271C2.05827 52.8401 0.997305 47.4952 1.00015 42.0979C0.985543 36.8032 2.00925 31.557 4.01333 26.6562C12.2364 28.824 29.4845 34.2434 50.6779 45.5446C51.2426 57.9317 50.6474 70.3443 48.9004 82.6205Z" fill="#66D0F8" stroke="#0052B4" stroke-linecap="round" stroke-linejoin="round"/>
<path d="M6.79492 63.1555C10.4384 69.2673 15.6074 74.3275 21.7954 77.8402C27.9833 81.3528 34.9778 83.1973 42.0932 83.1928C44.3741 83.1939 46.6511 83.003 48.9 82.622C50.6462 70.3505 51.2413 57.9427 50.6775 45.5605L50.5475 45.4883C35.3226 55.366 17.9227 60.5976 6.79492 63.1555Z" fill="white" stroke="#0052B4" stroke-linecap="round" stroke-linejoin="round"/>
<path d="M58.0773 45.4297C58.0773 43.9549 57.6399 42.5131 56.8205 41.2868C56.0011 40.0605 54.8365 39.1047 53.4739 38.5403C52.1113 37.9759 50.6119 37.8282 49.1654 38.1159C47.7188 38.4037 46.3901 39.1139 45.3472 40.1568C44.3043 41.1997 43.5941 42.5284 43.3064 43.9749C43.0186 45.4215 43.1663 46.9208 43.7307 48.2834C44.2951 49.646 45.2509 50.8107 46.4772 51.6301C47.7036 52.4495 49.1453 52.8868 50.6202 52.8868C52.5979 52.8868 54.4947 52.1012 55.8931 50.7027C57.2916 49.3042 58.0773 47.4075 58.0773 45.4297Z" fill="#EBEBEB" stroke="#0052B4" stroke-linecap="round" stroke-linejoin="round"/>
</svg>
