<svg width="22" height="19" viewBox="0 0 22 19" fill="none" xmlns="http://www.w3.org/2000/svg">
<path d="M11 5.32072C10.5274 4.84123 9.8606 4.54286 9.125 4.54286H4.75C4.33556 4.54286 3.94588 4.63897 3.6 4.80481V3.42857C3.6 2.81486 4.11107 2.31429 4.75 2.31429H17.25C17.8889 2.31429 18.4 2.81486 18.4 3.42857V4.8037C18.0536 4.6358 17.6638 4.54286 17.25 4.54286H12.875C12.1394 4.54286 11.4726 4.84123 11 5.32072ZM19.85 8.84259V7.07143V3.42857C19.85 2.03112 18.6814 0.9 17.25 0.9H4.75C3.31862 0.9 2.15 2.03112 2.15 3.42857V7.07143V8.84259C1.39148 9.41567 0.9 10.3112 0.9 11.3214V14.9643V17.3929C0.9 17.7847 1.22877 18.1 1.625 18.1C2.02123 18.1 2.35 17.7847 2.35 17.3929V15.6714H19.65V17.3929C19.65 17.7847 19.9788 18.1 20.375 18.1C20.7712 18.1 21.1 17.7847 21.1 17.3929V14.9643V11.3214C21.1 10.3112 20.6085 9.41567 19.85 8.84259ZM18.4 7.07143V8.22782C18.2295 8.20121 18.0551 8.18571 17.875 8.18571H11.725V7.07143C11.725 6.45772 12.2361 5.95714 12.875 5.95714H17.25C17.8889 5.95714 18.4 6.45772 18.4 7.07143ZM10.275 7.07143V8.18571H4.125C3.94489 8.18571 3.77054 8.20121 3.6 8.22782V7.07143C3.6 6.45772 4.11107 5.95714 4.75 5.95714H9.125C9.76393 5.95714 10.275 6.45772 10.275 7.07143ZM17.875 9.6C18.8577 9.6 19.65 10.3738 19.65 11.3214V14.2571H2.35V11.3214C2.35 10.3738 3.14232 9.6 4.125 9.6H17.875Z" fill="#00BFFF" stroke="#00BFFF" stroke-width="0.2"/>
</svg>
