<svg width="1720" height="1269" viewBox="0 0 1720 1269" fill="none" xmlns="http://www.w3.org/2000/svg">
<path opacity="0.1" d="M1425.07 1225.4C1588.3 1176.8 1704.12 1077.89 1747.13 950.342C1780.58 848.68 1758.21 721.731 1646.24 630.068C1590.39 584.4 1512.08 545.245 1492.38 489.624C1473.44 435.874 1519.18 391.632 1525.48 340.135C1531.77 288.637 1497.25 231.756 1444.86 186.964C1392.48 142.171 1324.25 108.518 1254.2 82.0493C989.65 -18.0692 690.675 -21.8729 457.85 50.81C271.016 109.118 121.527 215.699 48.9939 354.919C-23.5394 494.139 -16.0652 665.815 80.0148 823.637C147.629 934.658 341.347 1082.06 491.62 1136.59C1005.8 1323.16 1268.84 1271.11 1425.07 1225.4Z" fill="#00AEEF" fill-opacity="0.5"/>
</svg>
