<svg width="23" height="18" viewBox="0 0 23 18" fill="none" xmlns="http://www.w3.org/2000/svg">
<path d="M15.3416 2.80989e-05H16.9389C18.1728 2.80989e-05 19.1751 1.00806 19.1751 2.24902V7.00403L20.2094 7.39359C21.7308 7.96789 22.1541 9.93174 21.004 11.0884L18.2567 13.8554C17.8813 14.2329 17.2743 14.2329 16.903 13.8554C16.5316 13.4779 16.5276 12.8675 16.903 12.494L19.6543 9.72692C19.818 9.56226 19.7581 9.28114 19.5425 9.20082L11.6199 6.21287C11.548 6.18476 11.4682 6.18476 11.3963 6.21287L3.48165 9.1968C3.26601 9.27712 3.20212 9.55825 3.36983 9.72291L6.11719 12.49C6.49256 12.8675 6.49256 13.4779 6.11719 13.8514C5.74183 14.2249 5.13485 14.2289 4.76348 13.8514L2.01213 11.0884C0.862072 9.93174 1.28536 7.96789 2.80679 7.39359L3.84104 7.00403V2.24902C3.84104 1.00806 4.84334 2.80989e-05 6.07726 2.80989e-05H7.67456C12.139 3.62494e-06 10.8652 -9.40829e-05 15.3416 2.80989e-05ZM5.7578 2.24902V6.28114L10.7214 4.40966C11.2286 4.21689 11.7836 4.21689 12.2908 4.40966L17.2584 6.28114V2.24902C17.2584 2.07231 17.1146 1.92774 16.9389 1.92774H6.07726C5.90156 1.92774 5.7578 2.07231 5.7578 2.24902ZM4.47597 14.7028C5.33451 15.4498 6.52051 16.0643 7.67057 16.0643C8.82062 16.0643 10.0066 15.4498 10.8652 14.7028C11.2286 14.3775 11.7756 14.3775 12.139 14.7028C13.0016 15.4498 14.1836 16.0643 15.3336 16.0643C16.4837 16.0643 17.6697 15.4498 18.5282 14.7028C18.8916 14.3775 19.4387 14.3775 19.8021 14.7028C20.4769 15.3092 21.3714 15.7791 22.2499 15.9799C22.7651 16.0964 23.0925 16.6104 22.9767 17.1325C22.8609 17.6546 22.3498 17.9799 21.8306 17.8635C20.6846 17.6064 19.7422 17.0402 19.1671 16.6426C18.045 17.4257 16.7153 18 15.3336 18C13.952 18 12.6222 17.4257 11.5001 16.6426C10.378 17.4257 9.04824 18 7.66657 18C6.28491 18 4.95516 17.4257 3.83305 16.6426C3.25802 17.0442 2.31562 17.6064 1.16955 17.8635C0.654422 17.9799 0.139293 17.6546 0.0234886 17.1325C-0.0923157 16.6104 0.231138 16.0964 0.750261 15.9799C1.63676 15.7791 2.50729 15.3052 3.19413 14.7068C3.55752 14.3815 4.10459 14.3815 4.46798 14.7068L4.47597 14.7028Z" fill="#00BFFF"/>
</svg>
