<svg width="163" height="119" viewBox="0 0 163 119" fill="none" xmlns="http://www.w3.org/2000/svg">
<path d="M33.3955 108.687C65.2814 120.456 112.632 111.943 139.154 89.673C165.676 67.4031 161.329 39.8119 129.443 28.0432C97.5569 16.2745 50.2067 24.7876 23.6843 47.0575C-2.83808 69.3274 1.50954 96.9186 33.3955 108.687Z" fill="#00AEEF"/>
<path opacity="0.5" d="M33.3955 108.687C65.2814 120.456 112.632 111.943 139.154 89.673C165.676 67.4031 161.329 39.8119 129.443 28.0432C97.5569 16.2745 50.2067 24.7876 23.6843 47.0575C-2.83808 69.3274 1.50954 96.9186 33.3955 108.687Z" fill="#00AEEF"/>
<path d="M49.2965 13.4361C71.2256 31.464 78.3404 82.8411 70.8439 114.004C70.316 116.225 61.4387 116.129 62.3321 114.004C71.453 80.169 64.59 30.2754 46.9005 13.8178L49.2965 13.4361Z" fill="#EBEBEB"/>
<path d="M47.892 12.7942C46.8037 11.6316 47.3559 11.7444 45.8047 10.4084C43.4493 8.39563 39.1853 7.60614 35.4492 8.1527C28.8705 9.10702 22.5435 12.4124 19.4409 18.8845C22.1861 16.6201 25.4755 16.2818 28.8136 16.6114C29.7801 15.2233 30.7385 13.8352 31.7619 12.4905C31.6644 13.9393 31.5426 15.3708 31.3883 16.8283C32.926 16.9747 34.4758 16.8188 35.9609 16.3685C37.0005 14.6334 38.1376 12.985 39.3315 11.3627C38.8604 12.8636 38.3894 14.3645 37.9751 15.874C41.3973 15.3378 44.7342 14.3015 47.892 12.7942Z" fill="#0052B4"/>
<g opacity="0.15">
<path d="M47.892 12.7942C46.8037 11.6316 47.3559 11.7444 45.8047 10.4084C43.4493 8.39563 39.1853 7.60614 35.4492 8.1527C28.8705 9.10702 22.5435 12.4124 19.4409 18.8845C22.1861 16.6201 25.4755 16.2818 28.8136 16.6114C29.7801 15.2233 30.7385 13.8352 31.7619 12.4905C31.6644 13.9393 31.5426 15.3708 31.3883 16.8283C32.926 16.9747 34.4758 16.8188 35.9609 16.3685C37.0005 14.6334 38.1376 12.985 39.3315 11.3627C38.8604 12.8636 38.3894 14.3645 37.9751 15.874C41.3973 15.3378 44.7342 14.3015 47.892 12.7942Z" fill="#AAA0A0"/>
</g>
<path d="M46.917 13.2894C46.917 13.2894 46.3891 11.0945 49.3536 7.61557C53.2 3.2999 58.479 0.770155 64.0543 0.570961C67.4492 0.570961 72.3874 1.68144 74.7914 4.12796C71.9962 3.84263 69.1798 4.34206 66.6208 5.5768C64.5959 4.44562 62.3933 3.72217 60.1233 3.4426C60.1233 3.4426 63.6076 5.58547 64.3467 6.65257C62.708 8.13879 60.7086 9.09839 58.5801 9.4201C58.5801 9.4201 55.9811 6.36628 53.1059 6.42701C54.7479 7.11223 56.0917 8.42694 56.8745 10.1141C53.6639 11.528 50.3278 12.5918 46.917 13.2894Z" fill="#0052B4"/>
<path opacity="0.2" d="M46.917 13.2894C46.917 13.2894 46.3891 11.0945 49.3536 7.61557C53.2 3.2999 58.479 0.770155 64.0543 0.570961C67.4492 0.570961 72.3874 1.68144 74.7914 4.12796C71.9962 3.84263 69.1798 4.34206 66.6208 5.5768C64.5959 4.44562 62.3933 3.72217 60.1233 3.4426C60.1233 3.4426 63.6076 5.58547 64.3467 6.65257C62.708 8.13879 60.7086 9.09839 58.5801 9.4201C58.5801 9.4201 55.9811 6.36628 53.1059 6.42701C54.7479 7.11223 56.0917 8.42694 56.8745 10.1141C53.6639 11.528 50.3278 12.5918 46.917 13.2894Z" fill="#AAA0A0"/>
<path d="M46.9157 13.2895C50.525 11.2251 54.6493 10.4211 58.7087 10.9905C67.6428 12.2311 72.6784 16.8465 74.5383 20.9327C73.1353 19.9155 71.5452 19.2299 69.8742 18.9217C68.2033 18.6135 66.49 18.6898 64.8489 19.1456L61.6001 15.1635L61.9331 19.5533C60.3048 19.7373 58.6584 19.5541 57.1005 19.0154L53.933 13.7233L54.9401 18.3561C54.9401 18.3561 49.6609 16.968 46.9157 13.2895Z" fill="#0052B4"/>
<path opacity="0.05" d="M46.9157 13.2895C50.525 11.2251 54.6493 10.4211 58.7087 10.9905C67.6428 12.2311 72.6784 16.8465 74.5383 20.9327C73.1353 19.9155 71.5452 19.2299 69.8742 18.9217C68.2033 18.6135 66.49 18.6898 64.8489 19.1456L61.6001 15.1635L61.9331 19.5533C60.3048 19.7373 58.6584 19.5541 57.1005 19.0154L53.933 13.7233L54.9401 18.3561C54.9401 18.3561 49.6609 16.968 46.9157 13.2895Z" fill="#AAA0A0"/>
<path d="M46.9177 13.2894C46.9177 13.2894 45.334 12.7255 42.1339 14.1569C36.6923 16.5688 32.3877 23.1189 31.2506 26.5024C30.1135 29.8859 29.5287 35.178 30.8851 38.3186C31.5442 35.4493 32.8905 32.8124 34.7917 30.6666C34.456 28.2981 34.5303 25.8838 35.011 23.544C35.011 23.544 35.7582 27.6996 36.4486 28.7493C38.2758 27.6012 39.7601 25.9224 40.7288 23.9083C40.7288 23.9083 38.9014 20.3427 39.8761 17.5057C39.9475 19.3585 40.6593 21.1173 41.874 22.4422C41.874 22.4422 44.3918 18.1477 46.9177 13.2894Z" fill="#0052B4"/>
<path opacity="0.05" d="M46.9177 13.2894C46.9177 13.2894 45.334 12.7255 42.1339 14.1569C36.6923 16.5688 32.3877 23.1189 31.2506 26.5024C30.1135 29.8859 29.5287 35.178 30.8851 38.3186C31.5442 35.4493 32.8905 32.8124 34.7917 30.6666C34.456 28.2981 34.5303 25.8838 35.011 23.544C35.011 23.544 35.7582 27.6996 36.4486 28.7493C38.2758 27.6012 39.7601 25.9224 40.7288 23.9083C40.7288 23.9083 38.9014 20.3427 39.8761 17.5057C39.9475 19.3585 40.6593 21.1173 41.874 22.4422C41.874 22.4422 44.3918 18.1477 46.9177 13.2894Z" fill="#AAA0A0"/>
<path d="M53.5285 39.9142C52.4633 38.071 51.7999 35.9955 51.5873 33.8413C51.5305 32.9737 51.5305 32.0021 51.5386 31.0304C48.5579 28.8442 48.2898 26.5711 48.2898 26.5711C49.0601 27.8195 50.2539 28.6998 51.6198 29.0263C51.8046 27.004 51.7637 24.9654 51.498 22.9534C50.2032 22.4594 49.0828 21.5504 48.2898 20.3507C49.235 20.9756 50.3144 21.3311 51.4249 21.3831C50.702 17.4444 48.5416 14.2257 46.9172 13.3321C46.9172 13.3321 44.903 14.7636 44.5294 22.1813C44.1395 29.7898 47.8431 37.2422 53.5285 39.9142Z" fill="#0052B4"/>
<path d="M37.843 55.5214C55.5244 63.7112 66.8707 91.6033 66.7976 114.03C66.7976 115.635 60.8036 115.635 61.0635 114.03C61.8107 89.5038 50.8705 64.1103 36.2998 56.2241L37.843 55.5214Z" fill="#EBEBEB"/>
<path d="M36.9585 56.7181C36.9518 55.9594 37.0282 55.2023 37.1859 54.4625C37.6975 52.2849 39.7524 49.9251 42.059 48.5544C46.12 46.1252 50.9038 45.0841 55.1759 47.3224C52.7393 47.3224 50.7982 48.5804 49.0763 50.2721C47.9961 49.9251 46.9159 49.5955 45.8276 49.3005C46.4448 50.0639 47.0783 50.81 47.7362 51.5388C46.9385 52.3084 46.0166 52.9169 45.0154 53.3346C43.7484 52.8401 42.4651 52.4671 41.1737 52.068C42.0265 52.6927 42.8712 53.3173 43.6996 53.968C41.5825 55.2134 39.3138 56.139 36.9585 56.7181Z" fill="#0052B4"/>
<g opacity="0.15">
<path d="M36.9585 56.7181C36.9518 55.9594 37.0282 55.2023 37.1859 54.4625C37.6975 52.2849 39.7524 49.9251 42.059 48.5544C46.12 46.1252 50.9038 45.0841 55.1759 47.3224C52.7393 47.3224 50.7982 48.5804 49.0763 50.2721C47.9961 49.9251 46.9159 49.5955 45.8276 49.3005C46.4448 50.0639 47.0783 50.81 47.7362 51.5388C46.9385 52.3084 46.0166 52.9169 45.0154 53.3346C43.7484 52.8401 42.4651 52.4671 41.1737 52.068C42.0265 52.6927 42.8712 53.3173 43.6996 53.968C41.5825 55.2134 39.3138 56.139 36.9585 56.7181Z" fill="#AAA0A0"/>
</g>
<path d="M37.6968 56.554C37.6968 56.554 37.1202 55.1052 34.0907 54.5152C30.2538 53.8474 26.3249 54.8163 23.1505 57.2134C21.2581 58.7316 18.9596 61.5512 18.5941 64.015C20.0324 62.5986 21.7943 61.6112 23.7028 61.1521C24.3756 59.6166 25.306 58.2258 26.448 57.0485C25.9614 58.2311 25.5991 59.4677 25.3678 60.7357C26.8646 60.8207 28.3535 60.4539 29.6643 59.6772C29.6643 59.6772 29.9079 56.8143 31.5242 55.5563C30.8849 56.6751 30.6563 58.0072 30.8825 59.2955C33.2357 58.6329 35.5191 57.7142 37.6968 56.554Z" fill="#0052B4"/>
<path opacity="0.2" d="M37.6968 56.554C37.6968 56.554 37.1202 55.1052 34.0907 54.5152C30.2538 53.8474 26.3249 54.8163 23.1505 57.2134C21.2581 58.7316 18.9596 61.5512 18.5941 64.015C20.0324 62.5986 21.7943 61.6112 23.7028 61.1521C24.3756 59.6166 25.306 58.2258 26.448 57.0485C25.9614 58.2311 25.5991 59.4677 25.3678 60.7357C26.8646 60.8207 28.3535 60.4539 29.6643 59.6772C29.6643 59.6772 29.9079 56.8143 31.5242 55.5563C30.8849 56.6751 30.6563 58.0072 30.8825 59.2955C33.2357 58.6329 35.5191 57.7142 37.6968 56.554Z" fill="#AAA0A0"/>
<path d="M37.6968 56.5533C34.8782 57.0335 32.271 58.4442 30.2409 60.5874C25.782 65.2809 24.7911 70.1306 25.3678 73.2191C25.7476 72.0246 26.3613 70.9302 27.1679 70.0087C27.9745 69.0872 28.9557 68.3598 30.046 67.8749L30.2653 64.2138L31.8084 66.8165C32.7757 66.1863 33.6063 65.3435 34.245 64.344L33.9201 60.0062L35.1872 63.0253C35.1872 63.0253 37.6156 59.8326 37.6968 56.5533Z" fill="#0052B4"/>
<path opacity="0.05" d="M37.6968 56.5533C34.8782 57.0335 32.271 58.4442 30.2409 60.5874C25.782 65.2809 24.7911 70.1306 25.3678 73.2191C25.7476 72.0246 26.3613 70.9302 27.1679 70.0087C27.9745 69.0872 28.9557 68.3598 30.046 67.8749L30.2653 64.2138L31.8084 66.8165C32.7757 66.1863 33.6063 65.3435 34.245 64.344L33.9201 60.0062L35.1872 63.0253C35.1872 63.0253 37.6156 59.8326 37.6968 56.5533Z" fill="#AAA0A0"/>
<path d="M37.6967 56.5536C37.6967 56.5536 38.3546 55.5299 40.6937 54.8879C44.6653 53.7774 49.6278 55.4692 51.5933 56.8486C53.5588 58.228 55.9548 60.8741 56.4665 63.2512C54.9719 61.9514 53.1859 61.0902 51.2847 60.7526C50.5377 59.2867 49.5437 57.9808 48.3527 56.9006C48.898 58.029 49.323 59.2192 49.6197 60.449C48.1602 60.6302 46.6824 60.3686 45.3557 59.6942C45.3557 59.6942 44.9658 56.892 43.3008 55.7555C43.9835 56.818 44.2729 58.1132 44.113 59.3905C44.113 59.3905 41.0105 58.1239 37.6967 56.5536Z" fill="#0052B4"/>
<path opacity="0.05" d="M37.6967 56.5536C37.6967 56.5536 38.3546 55.5299 40.6937 54.8879C44.6653 53.7774 49.6278 55.4692 51.5933 56.8486C53.5588 58.228 55.9548 60.8741 56.4665 63.2512C54.9719 61.9514 53.1859 61.0902 51.2847 60.7526C50.5377 59.2867 49.5437 57.9808 48.3527 56.9006C48.898 58.029 49.323 59.2192 49.6197 60.449C48.1602 60.6302 46.6824 60.3686 45.3557 59.6942C45.3557 59.6942 44.9658 56.892 43.3008 55.7555C43.9835 56.818 44.2729 58.1132 44.113 59.3905C44.113 59.3905 41.0105 58.1239 37.6967 56.5536Z" fill="#AAA0A0"/>
<path d="M44.5439 74.3123C44.4047 72.8009 43.9495 71.3422 43.2119 70.0438C42.8951 69.5233 42.5215 68.9941 42.1317 68.4649C42.9439 65.8622 42.1804 64.5262 42.1804 64.5262C42.2442 65.5655 41.93 66.5911 41.3032 67.3891C40.3988 66.3364 39.6162 65.1712 38.9722 63.9188C39.4963 63.0651 39.7602 62.0589 39.7276 61.0385C39.4513 61.8099 38.9924 62.4915 38.3956 63.0166C37.2423 60.5093 37.1773 57.7505 37.7296 56.5185C37.7296 56.5185 39.4108 56.4144 42.5459 60.3618C45.6809 64.3093 46.6068 70.2868 44.5439 74.3123Z" fill="#0052B4"/>
<mask id="mask0_1_65" style="mask-type:alpha" maskUnits="userSpaceOnUse" x="7" y="18" width="149" height="100">
<path d="M34.4928 110.935C66.3205 124.356 113.168 115.933 139.129 92.1222C165.09 68.3115 160.335 38.1321 128.507 24.7113C96.6795 11.2904 49.8317 19.7132 23.8707 43.5238C-2.09025 67.3345 2.66519 97.5139 34.4928 110.935Z" fill="#00AEEF"/>
</mask>
<g mask="url(#mask0_1_65)">
<path d="M210.708 141.987C322.879 141.987 413.811 127.81 413.811 110.32C413.811 92.8313 322.879 78.6536 210.708 78.6536C98.5368 78.6536 7.60419 92.8313 7.60419 110.32C7.60419 127.81 98.5368 141.987 210.708 141.987Z" fill="white"/>
<path d="M210.708 141.987C322.879 141.987 413.811 127.81 413.811 110.32C413.811 92.8313 322.879 78.6536 210.708 78.6536C98.5368 78.6536 7.60419 92.8313 7.60419 110.32C7.60419 127.81 98.5368 141.987 210.708 141.987Z" fill="#66D0F8"/>
</g>
<path d="M117.413 99.8033C120.066 98.2312 122.821 96.8624 125.655 95.7073C128.657 94.5767 127.841 93.4277 125.967 92.7975C123.568 92.2094 121.096 92.0342 118.645 92.2786C115.362 92.407 112.121 93.1081 109.05 94.3544C105.87 91.7707 102.115 90.1164 98.1538 89.5541C95.8287 89.3131 92.7749 89.276 93.2434 90.5549C93.8507 92.1673 97.2341 93.5203 100.062 97.6348C96.1374 99.0788 92.3159 100.826 88.628 102.861C83.5095 105.994 85.904 107.328 89.7038 107.235C93.174 107.235 100.67 107.365 100.67 107.365C100.67 107.365 99.7847 110.794 98.9345 116.391C98.2058 120.821 102.405 117.744 104.556 115.168C107.68 111.461 110.82 107.365 110.82 107.365C110.82 107.365 116.476 108.403 122.549 110.164C126.887 111.406 130.323 112.833 127.581 108.069C124.84 103.306 117.413 99.8033 117.413 99.8033Z" fill="#FFC727"/>
<path d="M104.295 113.091C105.909 111.108 110.021 104.77 110.021 104.77C110.021 104.77 121.646 108.235 124.561 109.144C127.476 110.052 128.309 109.7 128.031 108.94C129.87 112.647 126.608 111.331 122.548 110.163C116.475 108.31 110.819 107.364 110.819 107.364C110.819 107.364 107.678 111.46 104.555 115.167C102.942 117.02 100.217 119.263 99.2284 118.448C100.894 118.336 102.664 115.074 104.295 113.091Z" fill="#0052B4"/>
<path d="M85.7653 106.105C86.7369 106.772 88.125 106.513 91.7514 106.105C95.3778 105.697 101.242 104.808 101.242 104.808L100.67 107.402C100.67 107.402 93.2089 107.199 89.704 107.273C87.6739 107.291 86.0602 106.921 85.7653 106.105Z" fill="#0052B4"/>
<path d="M126.732 93.1124C127.946 93.724 128.207 94.7434 125.656 95.7071C122.821 96.8622 120.067 98.231 117.414 99.8032L115.02 98.5243C115.02 98.5243 118.386 96.9675 121.769 95.8369C124.858 94.799 127.773 94.0576 126.732 93.1124Z" fill="#0052B4"/>
<path d="M100.063 97.6351C97.2345 93.5205 93.851 92.1675 93.2437 90.5551C93.189 90.4293 93.1819 90.2858 93.2239 90.1545C93.266 90.0233 93.3539 89.9145 93.4693 89.8508C93.4693 89.8508 92.9661 90.5181 95.6902 91.7042C97.7566 92.8444 99.6326 94.341 101.243 96.1338C101.902 97.0791 100.063 97.6351 100.063 97.6351Z" fill="#0052B4"/>
</svg>
