<svg width="15" height="16" viewBox="0 0 15 16" fill="none" xmlns="http://www.w3.org/2000/svg">
<path fill-rule="evenodd" clip-rule="evenodd" d="M13.5002 0.5H4.50008C3.67506 0.5 3.00005 1.17501 3.00005 2.00003V11.0002C3.00005 11.8252 3.67506 12.5002 4.50008 12.5002H13.5002C14.3252 12.5002 15.0003 11.8252 15.0003 11.0002V2.00003C15.0003 1.17501 14.3252 0.5 13.5002 0.5ZM0.750013 3.50005C0.337506 3.50005 0 3.83756 0 4.25006V14.0002C0 14.8252 0.675011 15.5003 1.50003 15.5003H11.2502C11.6627 15.5003 12.0002 15.1627 12.0002 14.7502C12.0002 14.3377 11.6627 14.0002 11.2502 14.0002H2.25004C1.83753 14.0002 1.50003 13.6627 1.50003 13.2502V4.25006C1.50003 3.83756 1.16252 3.50005 0.750013 3.50005ZM6.0001 7.25011H12.0002C12.4127 7.25011 12.7502 6.91261 12.7502 6.5001C12.7502 6.08759 12.4127 5.75009 12.0002 5.75009H6.0001C5.58759 5.75009 5.25009 6.08759 5.25009 6.5001C5.25009 6.91261 5.58759 7.25011 6.0001 7.25011ZM9.00015 10.2502H6.0001C5.58759 10.2502 5.25009 9.91266 5.25009 9.50015C5.25009 9.08764 5.58759 8.75014 6.0001 8.75014H9.00015C9.41266 8.75014 9.75016 9.08764 9.75016 9.50015C9.75016 9.91266 9.41266 10.2502 9.00015 10.2502ZM6.0001 4.25006H12.0002C12.4127 4.25006 12.7502 3.91256 12.7502 3.50005C12.7502 3.08754 12.4127 2.75004 12.0002 2.75004H6.0001C5.58759 2.75004 5.25009 3.08754 5.25009 3.50005C5.25009 3.91256 5.58759 4.25006 6.0001 4.25006Z" fill="#00AEEF"/>
</svg>
