<svg width="14" height="14" viewBox="0 0 14 14" fill="none" xmlns="http://www.w3.org/2000/svg">
<g clip-path="url(#clip0_546_18826)">
<path d="M10.5301 11.4598L2.54023 3.46992C1.77188 4.43789 1.3125 5.66563 1.3125 7C1.3125 10.1418 3.8582 12.6875 7 12.6875C8.33438 12.6875 9.56211 12.2281 10.5301 11.4598ZM11.457 10.5328C12.2281 9.56211 12.6875 8.33438 12.6875 7C12.6875 3.8582 10.1418 1.3125 7 1.3125C5.66563 1.3125 4.43789 1.77188 3.46992 2.54023L11.4598 10.5301L11.457 10.5328ZM0 7C0 5.14348 0.737498 3.36301 2.05025 2.05025C3.36301 0.737498 5.14348 0 7 0C8.85652 0 10.637 0.737498 11.9497 2.05025C13.2625 3.36301 14 5.14348 14 7C14 8.85652 13.2625 10.637 11.9497 11.9497C10.637 13.2625 8.85652 14 7 14C5.14348 14 3.36301 13.2625 2.05025 11.9497C0.737498 10.637 0 8.85652 0 7Z" fill="#00AEEF"/>
</g>
<defs>
<clipPath id="clip0_546_18826">
<rect width="14" height="14" fill="white"/>
</clipPath>
</defs>
</svg>
