<svg width="17" height="18" viewBox="0 0 17 18" fill="none" xmlns="http://www.w3.org/2000/svg">
<path d="M6.84678 4.54954C6.78024 4.47374 6.69909 4.41174 6.60803 4.36715C6.51698 4.32256 6.41783 4.29627 6.31638 4.2898C6.21492 4.28333 6.11317 4.29682 6.01705 4.32948C5.92093 4.36214 5.83235 4.41332 5.75647 4.48004C5.68059 4.54676 5.61892 4.62769 5.57506 4.71812C5.53119 4.80856 5.506 4.90669 5.50095 5.00681C5.4959 5.10693 5.51109 5.20704 5.54563 5.30133C5.58018 5.39561 5.6334 5.48217 5.70218 5.55599C6.08947 5.98435 6.63972 6.27812 7.2517 6.41045C7.29008 6.57783 7.38505 6.72737 7.52102 6.83451C7.65698 6.94164 7.82586 7 7.9999 7C8.17395 7 8.34283 6.94164 8.47879 6.83451C8.61475 6.72737 8.70973 6.57783 8.74811 6.41045C9.36028 6.27812 9.91053 5.98435 10.2978 5.55599C10.3666 5.48217 10.4198 5.39561 10.4544 5.30133C10.4889 5.20704 10.5041 5.10693 10.4991 5.00681C10.494 4.90669 10.4688 4.80856 10.4249 4.71812C10.3811 4.62769 10.3194 4.54676 10.2435 4.48004C10.1677 4.41332 10.0791 4.36214 9.98295 4.32948C9.88683 4.29682 9.78508 4.28333 9.68362 4.2898C9.58217 4.29627 9.48302 4.32256 9.39197 4.36715C9.30091 4.41174 9.21976 4.47374 9.15322 4.54954C9.0635 4.6486 8.93236 4.74425 8.7669 4.81968V4.10757H8.86276C9.06615 4.10757 9.26122 4.0279 9.40504 3.88609C9.54886 3.74429 9.62966 3.55196 9.62966 3.35141C9.62966 3.15086 9.54886 2.95853 9.40504 2.81673C9.26122 2.67492 9.06615 2.59525 8.86276 2.59525H8.74964C8.71232 2.42659 8.61761 2.27559 8.48126 2.16731C8.3449 2.05904 8.17508 2 8 2C7.82492 2 7.6551 2.05904 7.51874 2.16731C7.38239 2.27559 7.28768 2.42659 7.25036 2.59525H7.13724C6.93385 2.59525 6.73878 2.67492 6.59496 2.81673C6.45114 2.95853 6.37034 3.15086 6.37034 3.35141C6.37034 3.55196 6.45114 3.74429 6.59496 3.88609C6.73878 4.0279 6.93385 4.10757 7.13724 4.10757H7.2331V4.81968C7.06745 4.74406 6.9365 4.64879 6.84678 4.54954Z" fill="#00BFFF"/>
<path fill-rule="evenodd" clip-rule="evenodd" d="M0.974684 7.57908C1.07186 7.90328 1.26134 8.1945 1.52149 8.41945C1.78164 8.6444 2.10195 8.79402 2.44583 8.8512L2.33984 9.3394C2.05445 9.55673 1.82381 9.83394 1.66534 10.1501C1.50686 10.4663 1.42469 10.8131 1.42503 11.1645C1.42503 11.9963 1.87667 12.726 2.55572 13.1367C2.60332 13.1655 2.63679 13.2121 2.64646 13.2653C3.13863 15.9562 5.56792 18 8.4905 18C11.4134 18 13.8425 15.9562 14.3347 13.2655C14.3446 13.2121 14.378 13.1653 14.4255 13.1367C14.7716 12.928 15.0571 12.6374 15.255 12.2923C15.4528 11.9472 15.5565 11.5591 15.5563 11.1645C15.5563 10.5205 15.2501 9.78659 14.8126 9.36566C14.8126 9.36566 14.7607 9.03288 14.7103 8.80011C14.9881 8.71651 15.2416 8.57103 15.4507 8.37536C15.6597 8.17969 15.8184 7.9393 15.9139 7.67351L16.2927 6.62084C16.9276 4.85584 16.0599 2.9142 14.2957 2.15276L10.0302 0.312023C9.54949 0.104569 9.02868 -0.00177611 8.50226 2.24381e-05C7.97584 0.00182099 7.45582 0.111722 6.97659 0.322457L2.68048 2.2114C0.998857 2.95071 0.133128 4.77238 0.647805 6.48881L0.974684 7.57908ZM14.8877 6.14793L14.5091 7.2006C14.4818 7.2766 14.4288 7.34153 14.3588 7.38499C14.2888 7.42846 14.2058 7.44797 14.1229 7.44039L9.33298 7.00237C8.78064 6.95186 8.22464 6.95126 7.67218 7.00058L2.79465 7.43625C2.70859 7.44395 2.62244 7.42242 2.55102 7.37534C2.47959 7.32827 2.42734 7.2586 2.40325 7.1783L2.07637 6.08785C1.92703 5.58968 1.96811 5.05613 2.1921 4.58486C2.41609 4.11358 2.808 3.7361 3.29612 3.52148L7.59204 1.63254C7.87959 1.50609 8.1916 1.44014 8.50746 1.43905C8.82332 1.43797 9.13581 1.50177 9.42428 1.62624L13.6897 3.46697C14.2003 3.68738 14.6067 4.08519 14.8286 4.58167C15.0504 5.07815 15.0715 5.63712 14.8877 6.14793ZM9.19297 8.43495L13.1903 8.80065L13.2654 9.14657C11.4504 9.66409 9.99697 9.90423 8.58105 9.90531C7.16587 9.90639 5.71351 9.66912 3.90098 9.14927L3.98242 8.77547L7.80903 8.43369C8.26938 8.3925 8.7327 8.39292 9.19297 8.43495ZM2.91253 11.1645C2.91253 11.4796 3.08174 11.7577 3.3441 11.9164C3.54432 12.0373 3.71606 12.1976 3.84822 12.3868C3.98037 12.576 4.06999 12.7899 4.11128 13.0147C4.47981 15.0301 6.302 16.5609 8.49068 16.5609C10.6792 16.5609 12.5014 15.0301 12.8701 13.0146C12.9114 12.7898 13.001 12.5759 13.1331 12.3867C13.2652 12.1975 13.4369 12.0373 13.6371 11.9164C13.7693 11.837 13.8784 11.7263 13.9539 11.5947C14.0295 11.4631 14.069 11.315 14.0688 11.1645C14.0688 10.9037 13.9528 10.668 13.7639 10.5047C9.84394 11.6325 7.2144 11.6282 3.26396 10.4669C3.15428 10.5496 3.06559 10.6554 3.00468 10.7763C2.94377 10.8972 2.91225 11.03 2.91253 11.1645Z" fill="#00BFFF"/>
</svg>
