<svg width="16" height="18" viewBox="0 0 16 18" fill="none" xmlns="http://www.w3.org/2000/svg">
<path d="M6.34678 4.54954C6.28024 4.47374 6.19909 4.41174 6.10803 4.36715C6.01698 4.32256 5.91783 4.29627 5.81638 4.2898C5.71492 4.28333 5.61317 4.29682 5.51705 4.32948C5.42093 4.36214 5.33235 4.41332 5.25647 4.48004C5.18059 4.54676 5.11892 4.62769 5.07506 4.71812C5.03119 4.80856 5.006 4.90669 5.00095 5.00681C4.9959 5.10693 5.01109 5.20704 5.04563 5.30133C5.08018 5.39561 5.1334 5.48217 5.20218 5.55599C5.58947 5.98435 6.13972 6.27812 6.7517 6.41045C6.79008 6.57783 6.88505 6.72737 7.02102 6.83451C7.15698 6.94164 7.32586 7 7.4999 7C7.67395 7 7.84283 6.94164 7.97879 6.83451C8.11475 6.72737 8.20973 6.57783 8.24811 6.41045C8.86028 6.27812 9.41053 5.98435 9.79782 5.55599C9.86661 5.48217 9.91982 5.39561 9.95437 5.30133C9.98892 5.20704 10.0041 5.10693 9.99905 5.00681C9.994 4.90669 9.96881 4.80856 9.92494 4.71812C9.88108 4.62769 9.81941 4.54676 9.74353 4.48004C9.66765 4.41332 9.57907 4.36214 9.48295 4.32948C9.38683 4.29682 9.28508 4.28333 9.18362 4.2898C9.08217 4.29627 8.98302 4.32256 8.89197 4.36715C8.80091 4.41174 8.71976 4.47374 8.65322 4.54954C8.5635 4.6486 8.43236 4.74425 8.2669 4.81968V4.10757H8.36276C8.56615 4.10757 8.76122 4.0279 8.90504 3.88609C9.04886 3.74429 9.12966 3.55196 9.12966 3.35141C9.12966 3.15086 9.04886 2.95853 8.90504 2.81673C8.76122 2.67492 8.56615 2.59525 8.36276 2.59525H8.24964C8.21232 2.42659 8.11761 2.27559 7.98126 2.16731C7.8449 2.05904 7.67508 2 7.5 2C7.32492 2 7.1551 2.05904 7.01874 2.16731C6.88239 2.27559 6.78768 2.42659 6.75036 2.59525H6.63724C6.43385 2.59525 6.23878 2.67492 6.09496 2.81673C5.95114 2.95853 5.87034 3.15086 5.87034 3.35141C5.87034 3.55196 5.95114 3.74429 6.09496 3.88609C6.23878 4.0279 6.43385 4.10757 6.63724 4.10757H6.7331V4.81968C6.56745 4.74406 6.4365 4.64879 6.34678 4.54954Z" fill="#00BFFF"/>
<path fill-rule="evenodd" clip-rule="evenodd" d="M0.474684 7.57908C0.571855 7.90328 0.761341 8.1945 1.02149 8.41945C1.28164 8.6444 1.60195 8.79402 1.94583 8.8512L1.83984 9.3394C1.55445 9.55673 1.32381 9.83394 1.16534 10.1501C1.00686 10.4663 0.924692 10.8131 0.925027 11.1645C0.925027 11.9963 1.37667 12.726 2.05572 13.1367C2.10332 13.1655 2.13679 13.2121 2.14646 13.2653C2.63863 15.9562 5.06792 18 7.9905 18C10.9134 18 13.3425 15.9562 13.8347 13.2655C13.8446 13.2121 13.878 13.1653 13.9255 13.1367C14.2716 12.928 14.5571 12.6374 14.755 12.2923C14.9528 11.9472 15.0565 11.5591 15.0563 11.1645C15.0563 10.5205 14.7501 9.78659 14.3126 9.36566C14.3126 9.36566 14.2607 9.03288 14.2103 8.80011C14.4881 8.71651 14.7416 8.57103 14.9507 8.37536C15.1597 8.17969 15.3184 7.9393 15.4139 7.67351L15.7927 6.62084C16.4276 4.85584 15.5599 2.9142 13.7957 2.15276L9.53025 0.312023C9.04949 0.104569 8.52868 -0.00177611 8.00226 2.24381e-05C7.47584 0.00182099 6.95582 0.111722 6.47659 0.322457L2.18048 2.2114C0.498857 2.95071 -0.366872 4.77238 0.147805 6.48881L0.474684 7.57908ZM14.3877 6.14793L14.0091 7.2006C13.9818 7.2766 13.9288 7.34153 13.8588 7.38499C13.7888 7.42846 13.7058 7.44797 13.6229 7.44039L8.83298 7.00237C8.28064 6.95186 7.72464 6.95126 7.17218 7.00058L2.29465 7.43625C2.20859 7.44395 2.12244 7.42242 2.05102 7.37534C1.97959 7.32827 1.92734 7.2586 1.90325 7.1783L1.57637 6.08785C1.42703 5.58968 1.46811 5.05613 1.6921 4.58486C1.91609 4.11358 2.308 3.7361 2.79612 3.52148L7.09204 1.63254C7.37959 1.50609 7.6916 1.44014 8.00746 1.43905C8.32332 1.43797 8.63581 1.50177 8.92428 1.62624L13.1897 3.46697C13.7003 3.68738 14.1067 4.08519 14.3286 4.58167C14.5504 5.07815 14.5715 5.63712 14.3877 6.14793ZM8.69297 8.43495L12.6903 8.80065L12.7654 9.14657C10.9504 9.66409 9.49697 9.90423 8.08105 9.90531C6.66587 9.90639 5.21351 9.66912 3.40098 9.14927L3.48242 8.77547L7.30903 8.43369C7.76938 8.3925 8.2327 8.39292 8.69297 8.43495ZM2.41253 11.1645C2.41253 11.4796 2.58174 11.7577 2.8441 11.9164C3.04432 12.0373 3.21606 12.1976 3.34822 12.3868C3.48037 12.576 3.56999 12.7899 3.61128 13.0147C3.97981 15.0301 5.802 16.5609 7.99068 16.5609C10.1792 16.5609 12.0014 15.0301 12.3701 13.0146C12.4114 12.7898 12.501 12.5759 12.6331 12.3867C12.7652 12.1975 12.9369 12.0373 13.1371 11.9164C13.2693 11.837 13.3784 11.7263 13.4539 11.5947C13.5295 11.4631 13.569 11.315 13.5688 11.1645C13.5688 10.9037 13.4528 10.668 13.2639 10.5047C9.34394 11.6325 6.7144 11.6282 2.76396 10.4669C2.65428 10.5496 2.56559 10.6554 2.50468 10.7763C2.44377 10.8972 2.41225 11.03 2.41253 11.1645Z" fill="#00BFFF"/>
</svg>
