<svg width="77" height="65" viewBox="0 0 77 65" fill="none" xmlns="http://www.w3.org/2000/svg">
<rect x="0.25" y="0.25" width="76.5" height="64.5" rx="9.75" fill="white" stroke="#CCCCCC" stroke-width="0.5"/>
<g clip-path="url(#clip0_39_17)">
<path d="M39.1845 36.9999C34.0265 36.9999 28.8674 37.0021 23.7093 36.9944C23.4479 36.9944 23.1705 36.9656 22.9293 36.8714C22.2699 36.6155 21.905 35.9187 22.0213 35.1764C22.1312 34.4762 22.2549 33.7783 22.3905 33.0836C22.5388 32.3225 23.1182 31.834 23.8672 31.8196C24.1596 31.814 24.4541 31.8074 24.7465 31.8218C24.9449 31.8318 25.0516 31.7653 25.1189 31.5637C25.2789 31.0751 25.4582 30.5932 25.6353 30.1113C25.9106 29.3612 26.4121 29.0034 27.1825 28.9979C27.6428 28.9949 27.8729 28.7497 27.8729 28.2622C27.8729 28.0961 27.8654 27.9299 27.8739 27.7648C27.8846 27.5709 27.8025 27.5078 27.6221 27.51C27.0182 27.5167 26.4142 27.5111 25.8114 27.5122C25.5937 27.5122 25.408 27.448 25.2907 27.243C25.0911 26.894 25.3035 26.4553 25.6961 26.4243C25.9341 26.4055 26.1752 26.4177 26.4153 26.4177C27.9956 26.4177 29.5759 26.4121 31.1561 26.4232C31.3909 26.4243 31.5211 26.3423 31.6449 26.1385C34.6848 21.1775 37.7312 16.2209 40.7808 11.2677C40.911 11.0572 40.9835 10.85 40.9718 10.5975C40.9558 10.2573 40.9633 9.91501 40.9697 9.5749C40.9771 9.22149 41.1767 9.00546 41.4872 8.99992C41.7956 8.99438 42.0026 9.20931 42.0228 9.55828C42.0271 9.6314 42.025 9.70563 42.025 9.77985C42.0239 15.2172 42.0228 20.6557 42.0218 26.0931C42.0218 26.9505 42.0303 27.8069 42.0218 28.6644C42.0196 28.9048 42.0708 29.03 42.3301 29.0001C43.0269 28.9214 43.5754 29.1951 44.0641 29.7124C44.6904 30.3771 45.3616 30.9975 46.0274 31.6202C46.1448 31.7298 46.3337 31.8118 46.4905 31.8129C48.186 31.8251 49.8815 31.824 51.5781 31.8129C52.0764 31.8096 52.4915 31.9725 52.8543 32.3281C53.7517 33.2066 54.6597 34.0741 55.5656 34.9448C55.9754 35.3392 56.1024 35.8068 55.922 36.2887C55.7524 36.7429 55.3554 36.9977 54.7952 36.9977C49.5924 36.9988 44.3895 36.9977 39.1867 36.9977L39.1845 36.9999ZM54.9094 35.8754C54.8379 35.7835 54.807 35.7303 54.7643 35.6904C53.8808 34.8363 53.0026 33.9755 52.1052 33.1368C51.9697 33.0094 51.7435 32.9263 51.5589 32.9252C49.5881 32.9086 47.6162 32.9119 45.6454 32.9119C39.2347 32.9119 32.8239 32.9119 26.4132 32.9119C25.5969 32.9119 24.7795 32.9164 23.9633 32.9152C23.705 32.9152 23.4948 33.0061 23.4394 33.2842C23.3038 33.9699 23.1801 34.659 23.0702 35.3492C23.0211 35.655 23.2035 35.8666 23.5002 35.8932C23.6143 35.9031 23.7307 35.8965 23.8459 35.8965C30.5405 35.8965 37.235 35.8965 43.9307 35.8965C47.4551 35.8965 50.9806 35.8965 54.505 35.8965C54.6234 35.8965 54.7419 35.8843 54.9083 35.8743L54.9094 35.8754ZM40.9526 13.1677C40.9302 13.1599 40.9078 13.1511 40.8854 13.1433C38.1815 17.5437 35.4787 21.9441 32.729 26.4188C33.0245 26.4188 33.2337 26.4265 33.4417 26.4177C34.0894 26.39 34.5685 26.6725 34.9036 27.2419C35.2002 27.7449 35.5139 28.2368 35.8042 28.7431C35.913 28.9325 36.0378 29.0056 36.2512 29.0045C37.7067 28.9956 39.1621 29.0001 40.6175 28.999C40.9633 28.999 40.9643 28.9979 40.9643 28.6289C40.9643 23.5716 40.9643 18.5131 40.9643 13.4557C40.9643 13.3593 40.9558 13.2641 40.9515 13.1677H40.9526ZM26.1678 31.7863H44.6189C44.1174 31.2956 43.6629 30.8713 43.2318 30.4226C43.0002 30.1811 42.7495 30.0935 42.424 30.0935C38.0289 30.1013 33.6338 30.098 29.2387 30.0969C28.5643 30.0969 27.8889 30.0991 27.2145 30.0991C27.0011 30.0991 26.7866 30.1268 26.6949 30.355C26.5124 30.8114 26.3524 31.2789 26.1678 31.7852V31.7863ZM34.6987 28.9812C34.4042 28.5038 34.1588 28.0806 33.8835 27.6784C33.8195 27.5853 33.6541 27.5222 33.5356 27.5222C32.0717 27.5111 30.6066 27.5167 29.1427 27.5133C28.9805 27.5133 28.9239 27.582 28.9271 27.746C28.9346 28.0407 28.9292 28.3354 28.9292 28.6301C28.9292 29.0012 28.9292 29.0034 29.276 29.0034C30.9716 29.0034 32.666 29.0012 34.3615 28.999C34.448 28.999 34.5354 28.9912 34.6998 28.9824L34.6987 28.9812Z" fill="#666666"/>
<path d="M54.9106 35.8755C54.7452 35.8844 54.6257 35.8977 54.5072 35.8977C50.9828 35.8977 47.4573 35.8977 43.9329 35.8977C37.2383 35.8977 30.5438 35.8977 23.8481 35.8977C23.7329 35.8977 23.6166 35.9043 23.5024 35.8944C23.2058 35.8678 23.0233 35.6551 23.0724 35.3504C23.1833 34.6602 23.3071 33.9711 23.4416 33.2854C23.496 33.0073 23.7073 32.9164 23.9655 32.9164C24.7818 32.9164 25.5991 32.9131 26.4154 32.9131C32.8261 32.9131 39.2369 32.9131 45.6476 32.9131C47.6184 32.9131 49.5903 32.9098 51.5611 32.9264C51.7457 32.9275 51.9719 33.0106 52.1075 33.138C53.0048 33.9767 53.883 34.8375 54.7665 35.6916C54.8081 35.7326 54.8401 35.7847 54.9116 35.8766L54.9106 35.8755Z" fill="#00BFFF"/>
<path d="M26.1678 31.7864C26.3535 31.2801 26.5125 30.8126 26.695 30.3562C26.7857 30.128 27.0001 30.1003 27.2146 30.1003C27.889 30.1003 28.5644 30.0981 29.2388 30.0981C33.6339 30.0981 38.029 30.1014 42.4241 30.0947C42.7485 30.0947 43.0003 30.1822 43.2319 30.4238C43.6619 30.8724 44.1164 31.2968 44.619 31.7875H26.1678V31.7864Z" fill="white"/>
<path d="M34.6998 28.9813C34.5355 28.9891 34.4491 28.9969 34.3616 28.998C32.6661 29.0002 30.9716 29.0024 29.2761 29.0024C28.9293 29.0024 28.9293 29.0002 28.9293 28.629C28.9293 28.3344 28.9347 28.0397 28.9272 27.745C28.9229 27.5821 28.9805 27.5123 29.1427 27.5123C30.6067 27.5157 32.0717 27.5112 33.5357 27.5212C33.6552 27.5212 33.8195 27.5843 33.8836 27.6774C34.1589 28.0796 34.4053 28.5028 34.6988 28.9802L34.6998 28.9813Z" fill="#80CEF4"/>
</g>
<path d="M16.7422 49.4912C16.3483 49.4912 15.9935 49.5596 15.6777 49.6963C15.3652 49.8298 15.0983 50.0251 14.877 50.2822C14.6589 50.5361 14.4912 50.8438 14.374 51.2051C14.2568 51.5664 14.1982 51.9733 14.1982 52.4258C14.1982 53.0247 14.291 53.5456 14.4766 53.9883C14.6654 54.4277 14.9453 54.7679 15.3164 55.0088C15.6908 55.2497 16.1579 55.3701 16.7178 55.3701C17.0368 55.3701 17.3363 55.3441 17.6162 55.292C17.8994 55.2367 18.1745 55.1683 18.4414 55.0869V55.8096C18.181 55.9072 17.9076 55.9788 17.6211 56.0244C17.3346 56.0732 16.9945 56.0977 16.6006 56.0977C15.8747 56.0977 15.2676 55.9479 14.7793 55.6484C14.2943 55.3457 13.9297 54.9193 13.6855 54.3691C13.4447 53.819 13.3242 53.1696 13.3242 52.4209C13.3242 51.8805 13.3991 51.3874 13.5488 50.9414C13.7018 50.4922 13.9232 50.1048 14.2129 49.7793C14.5059 49.4538 14.8639 49.2031 15.2871 49.0273C15.7135 48.8483 16.2018 48.7588 16.752 48.7588C17.1133 48.7588 17.4616 48.7946 17.7969 48.8662C18.1322 48.9378 18.4349 49.0404 18.7051 49.1738L18.373 49.877C18.1452 49.7728 17.8945 49.6833 17.6211 49.6084C17.3509 49.5303 17.0579 49.4912 16.7422 49.4912ZM21.8691 50.5605C22.5072 50.5605 22.9808 50.7038 23.29 50.9902C23.5993 51.2767 23.7539 51.734 23.7539 52.3623V56H23.1631L23.0068 55.209H22.9678C22.818 55.4043 22.6618 55.5687 22.499 55.7021C22.3363 55.8324 22.1475 55.9316 21.9326 56C21.721 56.0651 21.4606 56.0977 21.1514 56.0977C20.8258 56.0977 20.5361 56.0407 20.2822 55.9268C20.0316 55.8128 19.833 55.6403 19.6865 55.4092C19.5433 55.1781 19.4717 54.8851 19.4717 54.5303C19.4717 53.9964 19.6833 53.5863 20.1064 53.2998C20.5296 53.0133 21.1742 52.8571 22.04 52.8311L22.9629 52.792V52.4648C22.9629 52.0026 22.8636 51.6787 22.665 51.4932C22.4665 51.3076 22.1865 51.2148 21.8252 51.2148C21.5452 51.2148 21.2783 51.2555 21.0244 51.3369C20.7705 51.4183 20.5296 51.5143 20.3018 51.625L20.0527 51.0098C20.2936 50.8861 20.5703 50.7803 20.8828 50.6924C21.1953 50.6045 21.5241 50.5605 21.8691 50.5605ZM22.9531 53.3633L22.1377 53.3975C21.4704 53.4235 21 53.5326 20.7266 53.7246C20.4531 53.9167 20.3164 54.1885 20.3164 54.54C20.3164 54.846 20.4092 55.0723 20.5947 55.2188C20.7803 55.3652 21.026 55.4385 21.332 55.4385C21.8073 55.4385 22.1963 55.3066 22.499 55.043C22.8018 54.7793 22.9531 54.3838 22.9531 53.8564V53.3633ZM27.1523 55.4336C27.2858 55.4336 27.4225 55.4222 27.5625 55.3994C27.7025 55.3766 27.8164 55.349 27.9043 55.3164V55.9463C27.8099 55.9886 27.6781 56.0244 27.5088 56.0537C27.3428 56.083 27.18 56.0977 27.0205 56.0977C26.7373 56.0977 26.4801 56.0488 26.249 55.9512C26.0179 55.8503 25.8324 55.681 25.6924 55.4434C25.5557 55.2057 25.4873 54.877 25.4873 54.457V51.2832H24.7256V50.8877L25.4922 50.5703L25.8145 49.4082H26.3027V50.6484H27.8701V51.2832H26.3027V54.4326C26.3027 54.7679 26.3792 55.0186 26.5322 55.1846C26.6885 55.3506 26.8952 55.4336 27.1523 55.4336ZM30.9902 50.5605C31.6283 50.5605 32.1019 50.7038 32.4111 50.9902C32.7204 51.2767 32.875 51.734 32.875 52.3623V56H32.2842L32.1279 55.209H32.0889C31.9391 55.4043 31.7829 55.5687 31.6201 55.7021C31.4574 55.8324 31.2686 55.9316 31.0537 56C30.8421 56.0651 30.5817 56.0977 30.2725 56.0977C29.9469 56.0977 29.6572 56.0407 29.4033 55.9268C29.1527 55.8128 28.9541 55.6403 28.8076 55.4092C28.6644 55.1781 28.5928 54.8851 28.5928 54.5303C28.5928 53.9964 28.8044 53.5863 29.2275 53.2998C29.6507 53.0133 30.2952 52.8571 31.1611 52.8311L32.084 52.792V52.4648C32.084 52.0026 31.9847 51.6787 31.7861 51.4932C31.5876 51.3076 31.3076 51.2148 30.9463 51.2148C30.6663 51.2148 30.3994 51.2555 30.1455 51.3369C29.8916 51.4183 29.6507 51.5143 29.4229 51.625L29.1738 51.0098C29.4147 50.8861 29.6914 50.7803 30.0039 50.6924C30.3164 50.6045 30.6452 50.5605 30.9902 50.5605ZM32.0742 53.3633L31.2588 53.3975C30.5915 53.4235 30.1211 53.5326 29.8477 53.7246C29.5742 53.9167 29.4375 54.1885 29.4375 54.54C29.4375 54.846 29.5303 55.0723 29.7158 55.2188C29.9014 55.3652 30.1471 55.4385 30.4531 55.4385C30.9284 55.4385 31.3174 55.3066 31.6201 55.043C31.9229 54.7793 32.0742 54.3838 32.0742 53.8564V53.3633ZM40.3555 50.5508C40.9447 50.5508 41.389 50.7054 41.6885 51.0146C41.988 51.3206 42.1377 51.8138 42.1377 52.4941V56H41.3369V52.5332C41.3369 52.1003 41.2425 51.7764 41.0537 51.5615C40.8682 51.3434 40.5915 51.2344 40.2236 51.2344C39.7061 51.2344 39.3301 51.3841 39.0957 51.6836C38.8613 51.9831 38.7441 52.4242 38.7441 53.0068V56H37.9385V52.5332C37.9385 52.2435 37.8962 52.0026 37.8115 51.8105C37.7301 51.6185 37.6064 51.4753 37.4404 51.3809C37.2777 51.2832 37.071 51.2344 36.8203 51.2344C36.4655 51.2344 36.1807 51.3076 35.9658 51.4541C35.751 51.6006 35.5947 51.8187 35.4971 52.1084C35.4027 52.3949 35.3555 52.748 35.3555 53.168V56H34.5449V50.6484H35.1992L35.3213 51.4053H35.3652C35.4727 51.2197 35.6077 51.0635 35.7705 50.9365C35.9333 50.8096 36.1156 50.7135 36.3174 50.6484C36.5192 50.5833 36.734 50.5508 36.9619 50.5508C37.3688 50.5508 37.709 50.6273 37.9824 50.7803C38.2591 50.93 38.4593 51.1595 38.583 51.4688H38.627C38.8027 51.1595 39.0436 50.93 39.3496 50.7803C39.6556 50.6273 39.9909 50.5508 40.3555 50.5508ZM45.8047 50.5605C46.4427 50.5605 46.9163 50.7038 47.2256 50.9902C47.5348 51.2767 47.6895 51.734 47.6895 52.3623V56H47.0986L46.9424 55.209H46.9033C46.7536 55.4043 46.5973 55.5687 46.4346 55.7021C46.2718 55.8324 46.083 55.9316 45.8682 56C45.6566 56.0651 45.3962 56.0977 45.0869 56.0977C44.7614 56.0977 44.4717 56.0407 44.2178 55.9268C43.9671 55.8128 43.7686 55.6403 43.6221 55.4092C43.4788 55.1781 43.4072 54.8851 43.4072 54.5303C43.4072 53.9964 43.6188 53.5863 44.042 53.2998C44.4652 53.0133 45.1097 52.8571 45.9756 52.8311L46.8984 52.792V52.4648C46.8984 52.0026 46.7992 51.6787 46.6006 51.4932C46.402 51.3076 46.1221 51.2148 45.7607 51.2148C45.4808 51.2148 45.2139 51.2555 44.96 51.3369C44.7061 51.4183 44.4652 51.5143 44.2373 51.625L43.9883 51.0098C44.2292 50.8861 44.5059 50.7803 44.8184 50.6924C45.1309 50.6045 45.4596 50.5605 45.8047 50.5605ZM46.8887 53.3633L46.0732 53.3975C45.4059 53.4235 44.9355 53.5326 44.6621 53.7246C44.3887 53.9167 44.252 54.1885 44.252 54.54C44.252 54.846 44.3447 55.0723 44.5303 55.2188C44.7158 55.3652 44.9616 55.4385 45.2676 55.4385C45.7428 55.4385 46.1318 55.3066 46.4346 55.043C46.7373 54.7793 46.8887 54.3838 46.8887 53.8564V53.3633ZM51.791 50.5508C51.8984 50.5508 52.0107 50.5573 52.1279 50.5703C52.2451 50.5801 52.3493 50.5947 52.4404 50.6143L52.3379 51.3662C52.25 51.3434 52.1523 51.3255 52.0449 51.3125C51.9375 51.2995 51.8366 51.293 51.7422 51.293C51.5273 51.293 51.3239 51.3369 51.1318 51.4248C50.943 51.5094 50.777 51.6331 50.6338 51.7959C50.4906 51.9554 50.3783 52.1491 50.2969 52.377C50.2155 52.6016 50.1748 52.8522 50.1748 53.1289V56H49.3594V50.6484H50.0332L50.1211 51.6348H50.1553C50.266 51.4362 50.3994 51.2555 50.5557 51.0928C50.7119 50.9268 50.8926 50.7949 51.0977 50.6973C51.306 50.5996 51.5371 50.5508 51.791 50.5508ZM55.4531 50.5605C56.0911 50.5605 56.5648 50.7038 56.874 50.9902C57.1833 51.2767 57.3379 51.734 57.3379 52.3623V56H56.7471L56.5908 55.209H56.5518C56.402 55.4043 56.2458 55.5687 56.083 55.7021C55.9202 55.8324 55.7314 55.9316 55.5166 56C55.305 56.0651 55.0446 56.0977 54.7354 56.0977C54.4098 56.0977 54.1201 56.0407 53.8662 55.9268C53.6156 55.8128 53.417 55.6403 53.2705 55.4092C53.1273 55.1781 53.0557 54.8851 53.0557 54.5303C53.0557 53.9964 53.2673 53.5863 53.6904 53.2998C54.1136 53.0133 54.7581 52.8571 55.624 52.8311L56.5469 52.792V52.4648C56.5469 52.0026 56.4476 51.6787 56.249 51.4932C56.0505 51.3076 55.7705 51.2148 55.4092 51.2148C55.1292 51.2148 54.8623 51.2555 54.6084 51.3369C54.3545 51.4183 54.1136 51.5143 53.8857 51.625L53.6367 51.0098C53.8776 50.8861 54.1543 50.7803 54.4668 50.6924C54.7793 50.6045 55.1081 50.5605 55.4531 50.5605ZM56.5371 53.3633L55.7217 53.3975C55.0544 53.4235 54.584 53.5326 54.3105 53.7246C54.0371 53.9167 53.9004 54.1885 53.9004 54.54C53.9004 54.846 53.9932 55.0723 54.1787 55.2188C54.3643 55.3652 54.61 55.4385 54.916 55.4385C55.3913 55.4385 55.7803 55.3066 56.083 55.043C56.3857 54.7793 56.5371 54.3838 56.5371 53.8564V53.3633ZM61.542 50.5508C62.1768 50.5508 62.6569 50.707 62.9824 51.0195C63.3079 51.3288 63.4707 51.8268 63.4707 52.5137V56H62.6699V52.5674C62.6699 52.1214 62.5674 51.7878 62.3623 51.5664C62.1605 51.3451 61.8496 51.2344 61.4297 51.2344C60.8372 51.2344 60.4206 51.402 60.1797 51.7373C59.9388 52.0726 59.8184 52.5592 59.8184 53.1973V56H59.0078V50.6484H59.6621L59.7842 51.4199H59.8281C59.9421 51.2311 60.0869 51.0732 60.2627 50.9463C60.4385 50.8161 60.6354 50.7184 60.8535 50.6533C61.0716 50.585 61.3011 50.5508 61.542 50.5508Z" fill="#333333"/>
<defs>
<clipPath id="clip0_39_17">
<rect width="34" height="28" fill="white" transform="translate(22 9)"/>
</clipPath>
</defs>
</svg>
