<svg width="77" height="65" viewBox="0 0 77 65" fill="none" xmlns="http://www.w3.org/2000/svg">
<rect x="0.25" y="0.25" width="76.5" height="64.5" rx="9.75" fill="white" stroke="#CCCCCC" stroke-width="0.5"/>
<g clip-path="url(#clip0_546_17109)">
<path d="M39.1847 37.0001C34.0266 37.0001 28.8675 37.0023 23.7095 36.9946C23.448 36.9946 23.1706 36.9658 22.9295 36.8716C22.27 36.6157 21.9051 35.9188 22.0214 35.1766C22.1313 34.4764 22.2551 33.7785 22.3906 33.0838C22.5389 32.3227 23.1183 31.8342 23.8674 31.8198C24.1598 31.8142 24.4543 31.8076 24.7466 31.822C24.9451 31.8319 25.0518 31.7655 25.119 31.5638C25.2791 31.0753 25.4583 30.5934 25.6355 30.1114C25.9108 29.3614 26.4123 29.0036 27.1827 28.998C27.6429 28.9951 27.873 28.7499 27.873 28.2624C27.873 28.0962 27.8656 27.9301 27.8741 27.765C27.8848 27.5711 27.8026 27.508 27.6223 27.5102C27.0183 27.5168 26.4144 27.5113 25.8115 27.5124C25.5939 27.5124 25.4082 27.4482 25.2908 27.2432C25.0913 26.8942 25.3036 26.4555 25.6963 26.4245C25.9342 26.4057 26.1754 26.4178 26.4155 26.4178C27.9958 26.4178 29.576 26.4123 31.1563 26.4234C31.3911 26.4245 31.5212 26.3425 31.645 26.1387C34.685 21.1777 37.7314 16.2211 40.781 11.2679C40.9111 11.0574 40.9837 10.8502 40.972 10.5976C40.956 10.2575 40.9634 9.9152 40.9698 9.57508C40.9773 9.22168 41.1768 9.00564 41.4873 9.0001C41.7957 8.99457 42.0027 9.20949 42.023 9.55846C42.0273 9.63158 42.0251 9.70581 42.0251 9.78004C42.0241 15.2174 42.023 20.6559 42.0219 26.0932C42.0219 26.9507 42.0305 27.8071 42.0219 28.6646C42.0198 28.905 42.071 29.0302 42.3303 29.0003C43.0271 28.9216 43.5755 29.1952 44.0642 29.7126C44.6906 30.3773 45.3617 30.9977 46.0276 31.6203C46.1449 31.73 46.3338 31.812 46.4907 31.8131C48.1862 31.8253 49.8817 31.8242 51.5783 31.8131C52.0766 31.8098 52.4917 31.9726 52.8545 32.3283C53.7518 33.2068 54.6599 34.0743 55.5658 34.945C55.9755 35.3394 56.1025 35.8069 55.9222 36.2889C55.7525 36.7431 55.3556 36.9979 54.7954 36.9979C49.5925 36.999 44.3897 36.9979 39.1868 36.9979L39.1847 37.0001ZM54.9096 35.8756C54.8381 35.7837 54.8071 35.7305 54.7645 35.6906C53.881 34.8365 53.0028 33.9757 52.1054 33.137C51.9699 33.0096 51.7437 32.9265 51.5591 32.9254C49.5883 32.9088 47.6164 32.9121 45.6456 32.9121C39.2348 32.9121 32.8241 32.9121 26.4133 32.9121C25.5971 32.9121 24.7797 32.9165 23.9634 32.9154C23.7052 32.9154 23.495 33.0063 23.4395 33.2843C23.304 33.9701 23.1802 34.6592 23.0703 35.3494C23.0212 35.6552 23.2037 35.8668 23.5003 35.8934C23.6145 35.9033 23.7308 35.8967 23.8461 35.8967C30.5406 35.8967 37.2352 35.8967 43.9308 35.8967C47.4553 35.8967 50.9808 35.8967 54.5052 35.8967C54.6236 35.8967 54.7421 35.8845 54.9085 35.8745L54.9096 35.8756ZM40.9528 13.1679C40.9303 13.1601 40.9079 13.1512 40.8855 13.1435C38.1817 17.5439 35.4789 21.9443 32.7291 26.419C33.0247 26.419 33.2338 26.4267 33.4419 26.4178C34.0896 26.3902 34.5687 26.6727 34.9037 27.2421C35.2004 27.7451 35.5141 28.2369 35.8043 28.7432C35.9131 28.9327 36.038 29.0058 36.2514 29.0047C37.7068 28.9958 39.1623 29.0003 40.6177 28.9992C40.9634 28.9992 40.9645 28.998 40.9645 28.6291C40.9645 23.5718 40.9645 18.5133 40.9645 13.4559C40.9645 13.3595 40.956 13.2642 40.9517 13.1679H40.9528ZM26.1679 31.7865H44.6191C44.1176 31.2957 43.663 30.8714 43.2319 30.4228C43.0004 30.1812 42.7496 30.0937 42.4242 30.0937C38.0291 30.1015 33.634 30.0981 29.2388 30.097C28.5645 30.097 27.889 30.0993 27.2147 30.0993C27.0013 30.0993 26.7868 30.127 26.695 30.3552C26.5126 30.8116 26.3525 31.2791 26.1679 31.7854V31.7865ZM34.6989 28.9814C34.4044 28.5039 34.1589 28.0807 33.8836 27.6786C33.8196 27.5855 33.6542 27.5224 33.5358 27.5224C32.0718 27.5113 30.6068 27.5168 29.1428 27.5135C28.9806 27.5135 28.9241 27.5822 28.9273 27.7462C28.9347 28.0409 28.9294 28.3355 28.9294 28.6302C28.9294 29.0014 28.9294 29.0036 29.2762 29.0036C30.9717 29.0036 32.6662 29.0014 34.3617 28.9992C34.4481 28.9992 34.5356 28.9914 34.6999 28.9825L34.6989 28.9814Z" fill="#666666"/>
<path d="M54.9106 35.8748C54.7452 35.8837 54.6257 35.8969 54.5072 35.8969C50.9828 35.8969 47.4574 35.8969 43.9329 35.8969C37.2384 35.8969 30.5438 35.8969 23.8481 35.8969C23.7329 35.8969 23.6166 35.9036 23.5024 35.8936C23.2058 35.867 23.0233 35.6543 23.0724 35.3497C23.1834 34.6595 23.3072 33.9704 23.4416 33.2846C23.496 33.0065 23.7073 32.9157 23.9655 32.9157C24.7818 32.9157 25.5991 32.9124 26.4154 32.9124C32.8262 32.9124 39.2369 32.9124 45.6477 32.9124C47.6185 32.9124 49.5904 32.9091 51.5612 32.9257C51.7458 32.9268 51.972 33.0099 52.1075 33.1373C53.0049 33.9759 53.883 34.8367 54.7665 35.6909C54.8082 35.7319 54.8402 35.7839 54.9117 35.8759L54.9106 35.8748Z" fill="#00BFFF"/>
<path d="M26.168 31.7854C26.3536 31.2792 26.5126 30.8116 26.6951 30.3552C26.7858 30.127 27.0003 30.0993 27.2147 30.0993C27.8891 30.0993 28.5645 30.0971 29.2389 30.0971C33.634 30.0971 38.0291 30.1004 42.4242 30.0938C42.7486 30.0938 43.0004 30.1813 43.232 30.4228C43.662 30.8715 44.1166 31.2958 44.6191 31.7866H26.168V31.7854Z" fill="white"/>
<path d="M34.6996 28.9807C34.5353 28.9885 34.4489 28.9962 34.3614 28.9974C32.6659 28.9996 30.9714 29.0018 29.2759 29.0018C28.9291 29.0018 28.9291 28.9996 28.9291 28.6284C28.9291 28.3337 28.9344 28.0391 28.927 27.7444C28.9227 27.5815 28.9803 27.5117 29.1425 27.5117C30.6065 27.515 32.0715 27.5106 33.5355 27.5206C33.655 27.5206 33.8193 27.5837 33.8834 27.6768C34.1586 28.0789 34.4051 28.5021 34.6986 28.9796L34.6996 28.9807Z" fill="#80CEF4"/>
</g>
<path d="M16.7422 49.4912C16.3483 49.4912 15.9935 49.5596 15.6777 49.6963C15.3652 49.8298 15.0983 50.0251 14.877 50.2822C14.6589 50.5361 14.4912 50.8438 14.374 51.2051C14.2568 51.5664 14.1982 51.9733 14.1982 52.4258C14.1982 53.0247 14.291 53.5456 14.4766 53.9883C14.6654 54.4277 14.9453 54.7679 15.3164 55.0088C15.6908 55.2497 16.1579 55.3701 16.7178 55.3701C17.0368 55.3701 17.3363 55.3441 17.6162 55.292C17.8994 55.2367 18.1745 55.1683 18.4414 55.0869V55.8096C18.181 55.9072 17.9076 55.9788 17.6211 56.0244C17.3346 56.0732 16.9945 56.0977 16.6006 56.0977C15.8747 56.0977 15.2676 55.9479 14.7793 55.6484C14.2943 55.3457 13.9297 54.9193 13.6855 54.3691C13.4447 53.819 13.3242 53.1696 13.3242 52.4209C13.3242 51.8805 13.3991 51.3874 13.5488 50.9414C13.7018 50.4922 13.9232 50.1048 14.2129 49.7793C14.5059 49.4538 14.8639 49.2031 15.2871 49.0273C15.7135 48.8483 16.2018 48.7588 16.752 48.7588C17.1133 48.7588 17.4616 48.7946 17.7969 48.8662C18.1322 48.9378 18.4349 49.0404 18.7051 49.1738L18.373 49.877C18.1452 49.7728 17.8945 49.6833 17.6211 49.6084C17.3509 49.5303 17.0579 49.4912 16.7422 49.4912ZM21.8691 50.5605C22.5072 50.5605 22.9808 50.7038 23.29 50.9902C23.5993 51.2767 23.7539 51.734 23.7539 52.3623V56H23.1631L23.0068 55.209H22.9678C22.818 55.4043 22.6618 55.5687 22.499 55.7021C22.3363 55.8324 22.1475 55.9316 21.9326 56C21.721 56.0651 21.4606 56.0977 21.1514 56.0977C20.8258 56.0977 20.5361 56.0407 20.2822 55.9268C20.0316 55.8128 19.833 55.6403 19.6865 55.4092C19.5433 55.1781 19.4717 54.8851 19.4717 54.5303C19.4717 53.9964 19.6833 53.5863 20.1064 53.2998C20.5296 53.0133 21.1742 52.8571 22.04 52.8311L22.9629 52.792V52.4648C22.9629 52.0026 22.8636 51.6787 22.665 51.4932C22.4665 51.3076 22.1865 51.2148 21.8252 51.2148C21.5452 51.2148 21.2783 51.2555 21.0244 51.3369C20.7705 51.4183 20.5296 51.5143 20.3018 51.625L20.0527 51.0098C20.2936 50.8861 20.5703 50.7803 20.8828 50.6924C21.1953 50.6045 21.5241 50.5605 21.8691 50.5605ZM22.9531 53.3633L22.1377 53.3975C21.4704 53.4235 21 53.5326 20.7266 53.7246C20.4531 53.9167 20.3164 54.1885 20.3164 54.54C20.3164 54.846 20.4092 55.0723 20.5947 55.2188C20.7803 55.3652 21.026 55.4385 21.332 55.4385C21.8073 55.4385 22.1963 55.3066 22.499 55.043C22.8018 54.7793 22.9531 54.3838 22.9531 53.8564V53.3633ZM27.1523 55.4336C27.2858 55.4336 27.4225 55.4222 27.5625 55.3994C27.7025 55.3766 27.8164 55.349 27.9043 55.3164V55.9463C27.8099 55.9886 27.6781 56.0244 27.5088 56.0537C27.3428 56.083 27.18 56.0977 27.0205 56.0977C26.7373 56.0977 26.4801 56.0488 26.249 55.9512C26.0179 55.8503 25.8324 55.681 25.6924 55.4434C25.5557 55.2057 25.4873 54.877 25.4873 54.457V51.2832H24.7256V50.8877L25.4922 50.5703L25.8145 49.4082H26.3027V50.6484H27.8701V51.2832H26.3027V54.4326C26.3027 54.7679 26.3792 55.0186 26.5322 55.1846C26.6885 55.3506 26.8952 55.4336 27.1523 55.4336ZM30.9902 50.5605C31.6283 50.5605 32.1019 50.7038 32.4111 50.9902C32.7204 51.2767 32.875 51.734 32.875 52.3623V56H32.2842L32.1279 55.209H32.0889C31.9391 55.4043 31.7829 55.5687 31.6201 55.7021C31.4574 55.8324 31.2686 55.9316 31.0537 56C30.8421 56.0651 30.5817 56.0977 30.2725 56.0977C29.9469 56.0977 29.6572 56.0407 29.4033 55.9268C29.1527 55.8128 28.9541 55.6403 28.8076 55.4092C28.6644 55.1781 28.5928 54.8851 28.5928 54.5303C28.5928 53.9964 28.8044 53.5863 29.2275 53.2998C29.6507 53.0133 30.2952 52.8571 31.1611 52.8311L32.084 52.792V52.4648C32.084 52.0026 31.9847 51.6787 31.7861 51.4932C31.5876 51.3076 31.3076 51.2148 30.9463 51.2148C30.6663 51.2148 30.3994 51.2555 30.1455 51.3369C29.8916 51.4183 29.6507 51.5143 29.4229 51.625L29.1738 51.0098C29.4147 50.8861 29.6914 50.7803 30.0039 50.6924C30.3164 50.6045 30.6452 50.5605 30.9902 50.5605ZM32.0742 53.3633L31.2588 53.3975C30.5915 53.4235 30.1211 53.5326 29.8477 53.7246C29.5742 53.9167 29.4375 54.1885 29.4375 54.54C29.4375 54.846 29.5303 55.0723 29.7158 55.2188C29.9014 55.3652 30.1471 55.4385 30.4531 55.4385C30.9284 55.4385 31.3174 55.3066 31.6201 55.043C31.9229 54.7793 32.0742 54.3838 32.0742 53.8564V53.3633ZM40.3555 50.5508C40.9447 50.5508 41.389 50.7054 41.6885 51.0146C41.988 51.3206 42.1377 51.8138 42.1377 52.4941V56H41.3369V52.5332C41.3369 52.1003 41.2425 51.7764 41.0537 51.5615C40.8682 51.3434 40.5915 51.2344 40.2236 51.2344C39.7061 51.2344 39.3301 51.3841 39.0957 51.6836C38.8613 51.9831 38.7441 52.4242 38.7441 53.0068V56H37.9385V52.5332C37.9385 52.2435 37.8962 52.0026 37.8115 51.8105C37.7301 51.6185 37.6064 51.4753 37.4404 51.3809C37.2777 51.2832 37.071 51.2344 36.8203 51.2344C36.4655 51.2344 36.1807 51.3076 35.9658 51.4541C35.751 51.6006 35.5947 51.8187 35.4971 52.1084C35.4027 52.3949 35.3555 52.748 35.3555 53.168V56H34.5449V50.6484H35.1992L35.3213 51.4053H35.3652C35.4727 51.2197 35.6077 51.0635 35.7705 50.9365C35.9333 50.8096 36.1156 50.7135 36.3174 50.6484C36.5192 50.5833 36.734 50.5508 36.9619 50.5508C37.3688 50.5508 37.709 50.6273 37.9824 50.7803C38.2591 50.93 38.4593 51.1595 38.583 51.4688H38.627C38.8027 51.1595 39.0436 50.93 39.3496 50.7803C39.6556 50.6273 39.9909 50.5508 40.3555 50.5508ZM45.8047 50.5605C46.4427 50.5605 46.9163 50.7038 47.2256 50.9902C47.5348 51.2767 47.6895 51.734 47.6895 52.3623V56H47.0986L46.9424 55.209H46.9033C46.7536 55.4043 46.5973 55.5687 46.4346 55.7021C46.2718 55.8324 46.083 55.9316 45.8682 56C45.6566 56.0651 45.3962 56.0977 45.0869 56.0977C44.7614 56.0977 44.4717 56.0407 44.2178 55.9268C43.9671 55.8128 43.7686 55.6403 43.6221 55.4092C43.4788 55.1781 43.4072 54.8851 43.4072 54.5303C43.4072 53.9964 43.6188 53.5863 44.042 53.2998C44.4652 53.0133 45.1097 52.8571 45.9756 52.8311L46.8984 52.792V52.4648C46.8984 52.0026 46.7992 51.6787 46.6006 51.4932C46.402 51.3076 46.1221 51.2148 45.7607 51.2148C45.4808 51.2148 45.2139 51.2555 44.96 51.3369C44.7061 51.4183 44.4652 51.5143 44.2373 51.625L43.9883 51.0098C44.2292 50.8861 44.5059 50.7803 44.8184 50.6924C45.1309 50.6045 45.4596 50.5605 45.8047 50.5605ZM46.8887 53.3633L46.0732 53.3975C45.4059 53.4235 44.9355 53.5326 44.6621 53.7246C44.3887 53.9167 44.252 54.1885 44.252 54.54C44.252 54.846 44.3447 55.0723 44.5303 55.2188C44.7158 55.3652 44.9616 55.4385 45.2676 55.4385C45.7428 55.4385 46.1318 55.3066 46.4346 55.043C46.7373 54.7793 46.8887 54.3838 46.8887 53.8564V53.3633ZM51.791 50.5508C51.8984 50.5508 52.0107 50.5573 52.1279 50.5703C52.2451 50.5801 52.3493 50.5947 52.4404 50.6143L52.3379 51.3662C52.25 51.3434 52.1523 51.3255 52.0449 51.3125C51.9375 51.2995 51.8366 51.293 51.7422 51.293C51.5273 51.293 51.3239 51.3369 51.1318 51.4248C50.943 51.5094 50.777 51.6331 50.6338 51.7959C50.4906 51.9554 50.3783 52.1491 50.2969 52.377C50.2155 52.6016 50.1748 52.8522 50.1748 53.1289V56H49.3594V50.6484H50.0332L50.1211 51.6348H50.1553C50.266 51.4362 50.3994 51.2555 50.5557 51.0928C50.7119 50.9268 50.8926 50.7949 51.0977 50.6973C51.306 50.5996 51.5371 50.5508 51.791 50.5508ZM55.4531 50.5605C56.0911 50.5605 56.5648 50.7038 56.874 50.9902C57.1833 51.2767 57.3379 51.734 57.3379 52.3623V56H56.7471L56.5908 55.209H56.5518C56.402 55.4043 56.2458 55.5687 56.083 55.7021C55.9202 55.8324 55.7314 55.9316 55.5166 56C55.305 56.0651 55.0446 56.0977 54.7354 56.0977C54.4098 56.0977 54.1201 56.0407 53.8662 55.9268C53.6156 55.8128 53.417 55.6403 53.2705 55.4092C53.1273 55.1781 53.0557 54.8851 53.0557 54.5303C53.0557 53.9964 53.2673 53.5863 53.6904 53.2998C54.1136 53.0133 54.7581 52.8571 55.624 52.8311L56.5469 52.792V52.4648C56.5469 52.0026 56.4476 51.6787 56.249 51.4932C56.0505 51.3076 55.7705 51.2148 55.4092 51.2148C55.1292 51.2148 54.8623 51.2555 54.6084 51.3369C54.3545 51.4183 54.1136 51.5143 53.8857 51.625L53.6367 51.0098C53.8776 50.8861 54.1543 50.7803 54.4668 50.6924C54.7793 50.6045 55.1081 50.5605 55.4531 50.5605ZM56.5371 53.3633L55.7217 53.3975C55.0544 53.4235 54.584 53.5326 54.3105 53.7246C54.0371 53.9167 53.9004 54.1885 53.9004 54.54C53.9004 54.846 53.9932 55.0723 54.1787 55.2188C54.3643 55.3652 54.61 55.4385 54.916 55.4385C55.3913 55.4385 55.7803 55.3066 56.083 55.043C56.3857 54.7793 56.5371 54.3838 56.5371 53.8564V53.3633ZM61.542 50.5508C62.1768 50.5508 62.6569 50.707 62.9824 51.0195C63.3079 51.3288 63.4707 51.8268 63.4707 52.5137V56H62.6699V52.5674C62.6699 52.1214 62.5674 51.7878 62.3623 51.5664C62.1605 51.3451 61.8496 51.2344 61.4297 51.2344C60.8372 51.2344 60.4206 51.402 60.1797 51.7373C59.9388 52.0726 59.8184 52.5592 59.8184 53.1973V56H59.0078V50.6484H59.6621L59.7842 51.4199H59.8281C59.9421 51.2311 60.0869 51.0732 60.2627 50.9463C60.4385 50.8161 60.6354 50.7184 60.8535 50.6533C61.0716 50.585 61.3011 50.5508 61.542 50.5508Z" fill="#333333"/>
<defs>
<clipPath id="clip0_546_17109">
<rect width="34" height="28" fill="white" transform="translate(22 9)"/>
</clipPath>
</defs>
</svg>
