<svg width="120" height="120" viewBox="0 0 120 120" fill="none" xmlns="http://www.w3.org/2000/svg">
<g filter="url(#filter0_d_546_15343)">
<circle cx="60" cy="54" r="50" fill="#0066FF"/>
</g>
<path d="M59.6432 78.396C77.1257 78.396 91.2947 66.7372 91.2947 52.3484C91.2947 37.9596 77.1257 26.3008 59.6432 26.3008C42.1608 26.3008 27.9918 37.9596 27.9918 52.3484C27.9918 57.9962 30.1802 63.2183 33.8893 67.4886C33.6544 70.5567 32.4799 73.2867 31.2435 75.3655C30.5635 76.5176 29.8711 77.4443 29.3642 78.0704C29.1045 78.3835 28.9067 78.6215 28.7583 78.7842C28.6842 78.8594 28.6347 78.922 28.5976 78.9596L28.5605 78.9971C27.9918 79.5732 27.831 80.4248 28.1401 81.1761C28.4492 81.9275 29.1663 82.4159 29.97 82.4159C33.5184 82.4159 37.0916 81.3013 40.0589 79.999C42.8902 78.7467 45.3012 77.2565 46.7725 76.167C50.7042 77.6071 55.0562 78.4086 59.6432 78.4086V78.396ZM51.7304 40.3264C52.7797 40.3264 53.786 40.7486 54.528 41.5001C55.27 42.2517 55.6868 43.2709 55.6868 44.3338C55.6868 45.3966 55.27 46.4158 54.528 47.1674C53.786 47.9189 52.7797 48.3411 51.7304 48.3411C50.6811 48.3411 49.6747 47.9189 48.9328 47.1674C48.1908 46.4158 47.7739 45.3966 47.7739 44.3338C47.7739 43.2709 48.1908 42.2517 48.9328 41.5001C49.6747 40.7486 50.6811 40.3264 51.7304 40.3264ZM67.5561 40.3264C68.6054 40.3264 69.6118 40.7486 70.3537 41.5001C71.0957 42.2517 71.5125 43.2709 71.5125 44.3338C71.5125 45.3966 71.0957 46.4158 70.3537 47.1674C69.6118 47.9189 68.6054 48.3411 67.5561 48.3411C66.5068 48.3411 65.5005 47.9189 64.7585 47.1674C64.0165 46.4158 63.5997 45.3966 63.5997 44.3338C63.5997 43.2709 64.0165 42.2517 64.7585 41.5001C65.5005 40.7486 66.5068 40.3264 67.5561 40.3264ZM46.5994 56.1178C47.8234 55.0158 49.6903 55.116 50.7907 56.3557C52.9668 58.8228 56.1195 60.3631 59.6432 60.3631C63.1669 60.3631 66.3074 58.8228 68.4958 56.3557C69.5838 55.116 71.4631 55.0158 72.6871 56.1178C73.9111 57.2198 74.01 59.1233 72.922 60.3631C69.658 64.0448 64.9102 66.3741 59.6432 66.3741C54.3762 66.3741 49.6285 64.0448 46.3768 60.3631C45.2888 59.1233 45.3877 57.2323 46.6117 56.1178H46.5994Z" fill="white"/>
<defs>
<filter id="filter0_d_546_15343" x="0" y="0" width="120" height="120" filterUnits="userSpaceOnUse" color-interpolation-filters="sRGB">
<feFlood flood-opacity="0" result="BackgroundImageFix"/>
<feColorMatrix in="SourceAlpha" type="matrix" values="0 0 0 0 0 0 0 0 0 0 0 0 0 0 0 0 0 0 127 0" result="hardAlpha"/>
<feOffset dy="6"/>
<feGaussianBlur stdDeviation="5"/>
<feComposite in2="hardAlpha" operator="out"/>
<feColorMatrix type="matrix" values="0 0 0 0 0 0 0 0 0 0.682353 0 0 0 0 0.937255 0 0 0 0.2 0"/>
<feBlend mode="normal" in2="BackgroundImageFix" result="effect1_dropShadow_546_15343"/>
<feBlend mode="normal" in="SourceGraphic" in2="effect1_dropShadow_546_15343" result="shape"/>
</filter>
</defs>
</svg>
