<svg width="62" height="62" viewBox="0 0 62 62" fill="none" xmlns="http://www.w3.org/2000/svg">
<path d="M26.0836 11.625H17.4375H13.0539H11.625V12.6906V17.4375V22.3297V33.107L0.0242188 24.5215C0.217969 22.3297 1.34414 20.2953 3.13633 18.9754L5.8125 16.9895V11.625C5.8125 8.41602 8.41602 5.8125 11.625 5.8125H20.9008L26.9434 1.34414C28.118 0.472266 29.5348 0 31 0C32.4652 0 33.882 0.472266 35.0566 1.33203L41.0992 5.8125H50.375C53.584 5.8125 56.1875 8.41602 56.1875 11.625V16.9895L58.8637 18.9754C60.6559 20.2953 61.782 22.3297 61.9758 24.5215L50.375 33.107V22.3297V17.4375V12.6906V11.625H48.9461H44.5625H35.9164H26.0836ZM0 54.25V29.3168L26.35 48.8371C27.6941 49.8301 29.3289 50.375 31 50.375C32.6711 50.375 34.3059 49.8422 35.65 48.8371L62 29.3168V54.25C62 58.5246 58.5246 62 54.25 62H7.75C3.47539 62 0 58.5246 0 54.25ZM21.3125 19.375H40.6875C41.7531 19.375 42.625 20.2469 42.625 21.3125C42.625 22.3781 41.7531 23.25 40.6875 23.25H21.3125C20.2469 23.25 19.375 22.3781 19.375 21.3125C19.375 20.2469 20.2469 19.375 21.3125 19.375ZM21.3125 27.125H40.6875C41.7531 27.125 42.625 27.9969 42.625 29.0625C42.625 30.1281 41.7531 31 40.6875 31H21.3125C20.2469 31 19.375 30.1281 19.375 29.0625C19.375 27.9969 20.2469 27.125 21.3125 27.125Z" fill="#00BFFF"/>
</svg>
