<svg width="36" height="44" viewBox="0 0 36 44" fill="none" xmlns="http://www.w3.org/2000/svg">
<path fill-rule="evenodd" clip-rule="evenodd" d="M35 5.97807V37.5209C35 38.9581 34.4283 40.3381 33.413 41.3554C32.3957 42.3706 31.0157 42.9424 29.5786 42.9424H5.92143C4.48426 42.9424 3.10426 42.3706 2.087 41.3554C1.07171 40.3381 0.5 38.9581 0.5 37.5209V5.97807C0.5 4.5409 1.07171 3.1609 2.087 2.14364C3.10426 1.12836 4.48426 0.556641 5.92143 0.556641H29.5786C31.0157 0.556641 32.3957 1.12836 33.413 2.14364C34.4283 3.1609 35 4.5409 35 5.97807ZM32.0429 5.97807C32.0429 5.32355 31.7826 4.69861 31.3213 4.23533C30.858 3.77401 30.2331 3.51378 29.5786 3.51378H5.92143C5.26691 3.51378 4.64197 3.77401 4.17869 4.23533C3.71737 4.69861 3.45714 5.32355 3.45714 5.97807V37.5209C3.45714 38.1754 3.71737 38.8004 4.17869 39.2637C4.64197 39.725 5.26691 39.9852 5.92143 39.9852H29.5786C30.2331 39.9852 30.858 39.725 31.3213 39.2637C31.7826 38.8004 32.0429 38.1754 32.0429 37.5209V5.97807Z" fill="#666666" stroke="#F5F5F5"/>
<path fill-rule="evenodd" clip-rule="evenodd" d="M27.1141 2.03521V5.97807C27.1141 7.88444 25.5685 9.42807 23.6641 9.42807H11.8355C9.9311 9.42807 8.3855 7.88444 8.3855 5.97807V2.03521C8.3855 1.21904 9.0479 0.556641 9.86407 0.556641H25.6355C26.4517 0.556641 27.1141 1.21904 27.1141 2.03521ZM24.1569 3.51378H11.3426V5.97807C11.3426 6.25013 11.5634 6.47093 11.8355 6.47093H23.6641C23.9361 6.47093 24.1569 6.25013 24.1569 5.97807V3.51378Z" fill="#666666" stroke="#F5F5F5"/>
<path fill-rule="evenodd" clip-rule="evenodd" d="M16.7642 17.3146C15.948 17.3146 15.2856 16.6522 15.2856 15.836C15.2856 15.0198 15.948 14.3574 16.7642 14.3574H27.6071C28.4232 14.3574 29.0856 15.0198 29.0856 15.836C29.0856 16.6522 28.4232 17.3146 27.6071 17.3146H16.7642Z" fill="#666666" stroke="#F5F5F5"/>
<path fill-rule="evenodd" clip-rule="evenodd" d="M16.7642 33.086C15.948 33.086 15.2856 32.4236 15.2856 31.6075C15.2856 30.7913 15.948 30.1289 16.7642 30.1289H27.6071C28.4232 30.1289 29.0856 30.7913 29.0856 31.6075C29.0856 32.4236 28.4232 33.086 27.6071 33.086H16.7642Z" fill="#666666" stroke="#F5F5F5"/>
<path fill-rule="evenodd" clip-rule="evenodd" d="M7.89312 17.3146C7.07695 17.3146 6.41455 16.6522 6.41455 15.836C6.41455 15.0198 7.07695 14.3574 7.89312 14.3574H9.86455C10.6807 14.3574 11.3431 15.0198 11.3431 15.836C11.3431 16.6522 10.6807 17.3146 9.86455 17.3146H7.89312Z" fill="#666666" stroke="#F5F5F5"/>
<path fill-rule="evenodd" clip-rule="evenodd" d="M7.89288 33.086C7.07671 33.086 6.41431 32.4236 6.41431 31.6075C6.41431 30.7913 7.07671 30.1289 7.89288 30.1289H9.86431C10.6805 30.1289 11.3429 30.7913 11.3429 31.6075C11.3429 32.4236 10.6805 33.086 9.86431 33.086H7.89288Z" fill="#666666" stroke="#F5F5F5"/>
<path fill-rule="evenodd" clip-rule="evenodd" d="M16.7642 25.1993C15.948 25.1993 15.2856 24.5369 15.2856 23.7208C15.2856 22.9046 15.948 22.2422 16.7642 22.2422H27.6071C28.4232 22.2422 29.0856 22.9046 29.0856 23.7208C29.0856 24.5369 28.4232 25.1993 27.6071 25.1993H16.7642Z" fill="#666666" stroke="#F5F5F5"/>
<path fill-rule="evenodd" clip-rule="evenodd" d="M7.89312 25.1993C7.07695 25.1993 6.41455 24.5369 6.41455 23.7208C6.41455 22.9046 7.07695 22.2422 7.89312 22.2422H9.86455C10.6807 22.2422 11.3431 22.9046 11.3431 23.7208C11.3431 24.5369 10.6807 25.1993 9.86455 25.1993H7.89312Z" fill="#666666" stroke="#F5F5F5"/>
</svg>
