<svg width="30" height="30" viewBox="0 0 30 30" fill="none" xmlns="http://www.w3.org/2000/svg">
<circle cx="15" cy="15" r="15" fill="white"/>
<path d="M11.7734 16.0131C11.7734 16.3638 11.6694 16.7067 11.4745 16.9983C11.2797 17.29 11.0027 17.5173 10.6786 17.6515C10.3546 17.7857 9.99803 17.8208 9.65403 17.7524C9.31002 17.684 8.99403 17.5151 8.74602 17.2671C8.498 17.019 8.3291 16.7031 8.26068 16.3591C8.19225 16.015 8.22737 15.6585 8.36159 15.3344C8.49582 15.0104 8.72312 14.7334 9.01475 14.5386C9.30639 14.3437 9.64925 14.2397 10 14.2397C10.4703 14.2397 10.9214 14.4265 11.254 14.7591C11.5866 15.0917 11.7734 15.5427 11.7734 16.0131ZM19.9956 14.2397C19.6448 14.2397 19.302 14.3437 19.0103 14.5386C18.7187 14.7334 18.4914 15.0104 18.3572 15.3344C18.2229 15.6585 18.1878 16.015 18.2562 16.3591C18.3247 16.7031 18.4936 17.019 18.7416 17.2671C18.9896 17.5151 19.3056 17.684 19.6496 17.7524C19.9936 17.8208 20.3502 17.7857 20.6742 17.6515C20.9983 17.5173 21.2752 17.29 21.4701 16.9983C21.665 16.7067 21.769 16.3638 21.769 16.0131C21.7688 15.543 21.5821 15.0922 21.2497 14.7598C20.9174 14.4273 20.4666 14.2404 19.9966 14.2402L19.9956 14.2397ZM24.9956 16.0131C24.9956 18.7729 22.7562 21.0104 19.9956 21.0104C18.7363 21.0124 17.5231 20.5372 16.6002 19.6803L15 21.4215L13.399 19.6783C12.4762 20.5361 11.2626 21.0121 10.0027 21.0104C7.24409 21.0104 5.00542 18.7729 5.00542 16.0131C5.00448 15.3178 5.14902 14.63 5.42975 13.994C5.71048 13.3579 6.12118 12.7876 6.63547 12.3197L5 10.5404H8.6335C10.5122 9.26186 12.7322 8.57812 15.0047 8.57812C17.2772 8.57813 19.4971 9.26186 21.3759 10.5404H25L23.3648 12.3197C23.8792 12.7875 24.2901 13.3578 24.571 13.9938C24.8519 14.6299 24.9966 15.3177 24.9958 16.0131H24.9956ZM13.3833 16.0131C13.3833 15.3442 13.1849 14.6903 12.8133 14.1341C12.4416 13.5779 11.9134 13.1444 11.2954 12.8885C10.6774 12.6325 9.9974 12.5655 9.34134 12.6961C8.68529 12.8266 8.08267 13.1487 7.6097 13.6217C7.13672 14.0947 6.81463 14.6974 6.68417 15.3534C6.5537 16.0095 6.62071 16.6895 6.87672 17.3075C7.13274 17.9255 7.56626 18.4537 8.12246 18.8252C8.67866 19.1968 9.33257 19.3951 10.0015 19.3951C10.4456 19.3951 10.8854 19.3077 11.2958 19.1377C11.7061 18.9678 12.0789 18.7187 12.393 18.4046C12.7071 18.0905 12.9562 17.7177 13.1261 17.3074C13.2961 16.897 13.3835 16.4572 13.3835 16.0131H13.3833ZM18.7527 10.9638C17.5634 10.4683 16.2878 10.2132 14.9994 10.2132C13.711 10.2132 12.4354 10.4683 11.2461 10.9638C13.3813 11.7811 15 13.6899 15 15.9155C15 13.6902 16.6185 11.7811 18.753 10.9641L18.7527 10.9638ZM23.3783 16.0131C23.3783 15.3442 23.18 14.6903 22.8083 14.1341C22.4367 13.5779 21.9085 13.1444 21.2905 12.8885C20.6725 12.6325 19.9925 12.5655 19.3364 12.6961C18.6804 12.8266 18.0777 13.1487 17.6048 13.6217C17.1318 14.0947 16.8097 14.6974 16.6792 15.3534C16.5488 16.0095 16.6158 16.6895 16.8718 17.3075C17.1278 17.9255 17.5613 18.4537 18.1175 18.8252C18.6737 19.1968 19.3276 19.3951 19.9966 19.3951C20.8935 19.3951 21.7537 19.0388 22.388 18.4045C23.0223 17.7703 23.3786 16.91 23.3786 16.0131H23.3783Z" fill="#666666"/>
</svg>
