<svg width="24" height="8" viewBox="0 0 24 8" fill="none" xmlns="http://www.w3.org/2000/svg">
<mask id="path-1-inside-1_546_18951" fill="white">
<path fill-rule="evenodd" clip-rule="evenodd" d="M0.894643 3.21383C0.644196 3.41719 0.5 3.70056 0.5 4.00059C0.5 4.30062 0.644196 4.58399 0.894643 4.78734L4.5375 7.721C5.0308 8.11771 5.80112 8.08771 6.25268 7.65432C6.70424 7.22094 6.67009 6.5442 6.17679 6.14749L4.83728 5.06737L16.2857 5.06737C16.305 5.06737 16.3242 5.06698 16.3433 5.0662H19.1627L17.8232 6.14632C17.3261 6.54303 17.2958 7.21643 17.7473 7.65315C18.1989 8.08986 18.9692 8.11653 19.4625 7.71982L23.1054 4.78617C23.3558 4.58281 23.5 4.29945 23.5 3.99941C23.5 3.69938 23.3558 3.41602 23.1054 3.21266L19.4625 0.279003C18.9692 -0.117708 18.1989 -0.0877043 17.7473 0.345677C17.2958 0.779058 17.3299 1.4558 17.8232 1.85251L19.1627 2.93263L7.71429 2.93263C7.69496 2.93263 7.67575 2.93302 7.65665 2.9338H4.83728L6.17679 1.85368C6.67388 1.45697 6.70424 0.783566 6.25268 0.346851C5.80112 -0.0898636 5.0308 -0.116533 4.5375 0.280177L0.894643 3.21383Z"/>
</mask>
<path fill-rule="evenodd" clip-rule="evenodd" d="M0.894643 3.21383C0.644196 3.41719 0.5 3.70056 0.5 4.00059C0.5 4.30062 0.644196 4.58399 0.894643 4.78734L4.5375 7.721C5.0308 8.11771 5.80112 8.08771 6.25268 7.65432C6.70424 7.22094 6.67009 6.5442 6.17679 6.14749L4.83728 5.06737L16.2857 5.06737C16.305 5.06737 16.3242 5.06698 16.3433 5.0662H19.1627L17.8232 6.14632C17.3261 6.54303 17.2958 7.21643 17.7473 7.65315C18.1989 8.08986 18.9692 8.11653 19.4625 7.71982L23.1054 4.78617C23.3558 4.58281 23.5 4.29945 23.5 3.99941C23.5 3.69938 23.3558 3.41602 23.1054 3.21266L19.4625 0.279003C18.9692 -0.117708 18.1989 -0.0877043 17.7473 0.345677C17.2958 0.779058 17.3299 1.4558 17.8232 1.85251L19.1627 2.93263L7.71429 2.93263C7.69496 2.93263 7.67575 2.93302 7.65665 2.9338H4.83728L6.17679 1.85368C6.67388 1.45697 6.70424 0.783566 6.25268 0.346851C5.80112 -0.0898636 5.0308 -0.116533 4.5375 0.280177L0.894643 3.21383Z" fill="#00BFFF"/>
<path d="M0.894643 3.21383L0.706476 2.98018L0.705539 2.98094L0.894643 3.21383ZM0.894643 4.78734L0.705537 5.02024L0.706478 5.021L0.894643 4.78734ZM4.5375 7.721L4.34933 7.95465L4.34949 7.95478L4.5375 7.721ZM6.25268 7.65432L6.46041 7.87077V7.87077L6.25268 7.65432ZM6.17679 6.14749L5.98847 6.38103L5.98878 6.38127L6.17679 6.14749ZM4.83728 5.06737V4.76737H3.9873L4.64896 5.30091L4.83728 5.06737ZM16.2857 5.06737V4.76737V5.06737ZM16.3433 5.0662V4.76595L16.3311 4.76645L16.3433 5.0662ZM19.1627 5.0662L19.351 5.29973L20.0127 4.7662H19.1627V5.0662ZM17.8232 6.14632L18.0103 6.3808L18.0115 6.37985L17.8232 6.14632ZM17.7473 7.65315L17.5388 7.8688V7.8688L17.7473 7.65315ZM19.4625 7.71982L19.6505 7.95361L19.6507 7.95348L19.4625 7.71982ZM23.1054 4.78617L23.2935 5.01982L23.2945 5.01906L23.1054 4.78617ZM23.1054 3.21266L23.2945 2.97976L23.2935 2.97901L23.1054 3.21266ZM19.4625 0.279003L19.6507 0.0453496L19.6505 0.0452211L19.4625 0.279003ZM17.7473 0.345677L17.5396 0.129232V0.129233L17.7473 0.345677ZM17.8232 1.85251L18.0115 1.61897L18.0112 1.61873L17.8232 1.85251ZM19.1627 2.93263V3.23263H20.0127L19.351 2.69909L19.1627 2.93263ZM7.71429 2.93263V2.63263V2.93263ZM7.65665 2.9338V3.23405L7.6689 3.23355L7.65665 2.9338ZM4.83728 2.9338L4.64896 2.70027L3.9873 3.2338H4.83728V2.9338ZM6.17679 1.85368L5.98965 1.6192L5.98847 1.62015L6.17679 1.85368ZM6.25268 0.346851L6.04412 0.562499V0.562499L6.25268 0.346851ZM4.5375 0.280177L4.34949 0.0463953L4.34933 0.046524L4.5375 0.280177ZM0.8 4.00059C0.8 3.80048 0.895691 3.59942 1.08375 3.44673L0.705539 2.98094C0.392701 3.23496 0.2 3.60063 0.2 4.00059H0.8ZM1.08375 4.55445C0.895691 4.40175 0.8 4.2007 0.8 4.00059H0.2C0.2 4.40054 0.392702 4.76622 0.705539 5.02024L1.08375 4.55445ZM4.72567 7.48735L1.08281 4.55369L0.706478 5.021L4.34933 7.95465L4.72567 7.48735ZM6.04495 7.43788C5.70407 7.76503 5.10333 7.79106 4.72551 7.48722L4.34949 7.95478C4.95828 8.44436 5.89816 8.41038 6.46041 7.87077L6.04495 7.43788ZM5.98878 6.38127C6.34417 6.66708 6.36308 7.13255 6.04495 7.43788L6.46041 7.87077C7.0454 7.30933 6.99601 6.42133 6.36479 5.91371L5.98878 6.38127ZM4.64896 5.30091L5.98847 6.38103L6.3651 5.91396L5.02559 4.83384L4.64896 5.30091ZM16.2857 4.76737L4.83728 4.76737V5.36737L16.2857 5.36737V4.76737ZM16.3311 4.76645C16.3161 4.76706 16.3009 4.76737 16.2857 4.76737V5.36737C16.3091 5.36737 16.3324 5.36689 16.3556 5.36595L16.3311 4.76645ZM19.1627 4.7662H16.3433V5.3662H19.1627V4.7662ZM18.0115 6.37985L19.351 5.29973L18.9744 4.83266L17.6349 5.91278L18.0115 6.37985ZM17.9559 7.4375C17.6349 7.12706 17.6541 6.66506 18.0103 6.3808L17.6361 5.91183C16.9981 6.42099 16.9566 7.30581 17.5388 7.8688L17.9559 7.4375ZM19.2745 7.48604C18.8956 7.79071 18.2956 7.76606 17.9559 7.4375L17.5388 7.8688C18.1022 8.41367 19.0427 8.44236 19.6505 7.95361L19.2745 7.48604ZM22.9172 4.55251L19.2743 7.48617L19.6507 7.95348L23.2935 5.01982L22.9172 4.55251ZM23.2 3.99941C23.2 4.19952 23.1043 4.40058 22.9163 4.55327L23.2945 5.01906C23.6073 4.76505 23.8 4.39937 23.8 3.99941H23.2ZM22.9163 3.44555C23.1043 3.59825 23.2 3.7993 23.2 3.99941H23.8C23.8 3.59946 23.6073 3.23378 23.2945 2.97977L22.9163 3.44555ZM19.2743 0.512656L22.9172 3.44631L23.2935 2.97901L19.6507 0.0453496L19.2743 0.512656ZM17.955 0.562122C18.2959 0.234967 18.8967 0.208941 19.2745 0.512785L19.6505 0.0452211C19.0417 -0.444356 18.1018 -0.410376 17.5396 0.129232L17.955 0.562122ZM18.0112 1.61873C17.6558 1.33292 17.6369 0.867446 17.955 0.562121L17.5396 0.129233C16.9546 0.69067 17.004 1.57867 17.6352 2.08629L18.0112 1.61873ZM19.351 2.69909L18.0115 1.61897L17.6349 2.08604L18.9744 3.16616L19.351 2.69909ZM7.71429 3.23263L19.1627 3.23263V2.63263L7.71429 2.63263V3.23263ZM7.6689 3.23355C7.68392 3.23294 7.69905 3.23263 7.71429 3.23263V2.63263C7.69088 2.63263 7.66758 2.63311 7.6444 2.63405L7.6689 3.23355ZM4.83728 3.2338H7.65665V2.6338H4.83728V3.2338ZM5.98847 1.62015L4.64896 2.70027L5.02559 3.16734L6.3651 2.08722L5.98847 1.62015ZM6.04412 0.562499C6.36512 0.87294 6.34585 1.33494 5.98966 1.6192L6.36392 2.08817C7.00192 1.57901 7.04337 0.694192 6.46124 0.131203L6.04412 0.562499ZM4.7255 0.513959C5.10436 0.209291 5.70439 0.233939 6.04412 0.562499L6.46124 0.131204C5.89784 -0.413666 4.95725 -0.442357 4.34949 0.0463954L4.7255 0.513959ZM1.08281 3.44749L4.72566 0.513831L4.34933 0.046524L0.706478 2.98018L1.08281 3.44749Z" fill="white" mask="url(#path-1-inside-1_546_18951)"/>
</svg>
