<svg width="163" height="118" viewBox="0 0 163 118" fill="none" xmlns="http://www.w3.org/2000/svg">
<path d="M31.9193 112.427C62.1872 124.052 107.135 115.643 132.311 93.6445C157.488 71.6462 153.361 44.3915 123.093 32.7663C92.8248 21.1412 47.8774 29.5504 22.7009 51.5487C-2.47561 73.547 1.65139 100.802 31.9193 112.427Z" fill="#00AEEF"/>
<path opacity="0.5" d="M31.9193 112.427C62.1872 124.052 107.135 115.643 132.311 93.6445C157.488 71.6462 153.361 44.3915 123.093 32.7663C92.8248 21.1412 47.8774 29.5504 22.7009 51.5487C-2.47561 73.547 1.65139 100.802 31.9193 112.427Z" fill="#00AEEF"/>
<path d="M162.334 30.9626L154.467 25.9165C154.15 25.7288 153.798 25.6269 153.439 25.6192C153.08 25.6115 152.724 25.6981 152.401 25.8721C152.11 26.0831 151.868 26.3674 151.694 26.702C151.521 27.0366 151.421 27.412 151.402 27.7977C151.402 28.5082 150.926 28.7746 150.338 28.3951L142.472 23.3612C142.162 23.1364 141.903 22.8337 141.718 22.4774C141.532 22.1212 141.425 21.7214 141.404 21.3105V18.9207C141.384 18.5098 141.278 18.11 141.093 17.7536C140.908 17.3972 140.65 17.0945 140.34 16.8699L132.474 11.8199C132.144 11.6327 131.778 11.5352 131.408 11.5352C131.037 11.5352 130.672 11.6327 130.342 11.8199L117.409 20.1196C111.413 23.9667 101.43 17.5522 93.4146 22.683C85.3994 27.8138 82.672 29.582 71.7333 37.0017C60.9471 44.3205 38.7828 62.6275 37.4899 77.7738C37.4843 78.183 37.574 78.5868 37.7503 78.9462C37.9266 79.3055 38.1834 79.608 38.4959 79.8245L58.3614 92.5728C59.0686 92.9911 59.8556 93.2154 60.6566 93.2268C73.3676 92.6656 102.131 83.8129 123.409 70.1603C137.162 61.3357 152.39 49.6652 156.392 46.5609C157.032 46.0231 157.555 45.3336 157.925 44.5425L162.875 32.9002C163.016 32.5601 163.039 32.1737 162.939 31.8157C162.839 31.4578 162.624 31.1538 162.334 30.9626Z" fill="#EBEBEB"/>
<path d="M130.342 11.7992L117.409 20.0989C111.413 23.9461 101.429 17.5315 93.4143 22.6623C85.3991 27.7932 82.6717 29.5613 71.733 36.981C60.9468 44.2998 38.7825 62.6069 37.4896 77.7531C37.4766 77.93 37.4976 78.108 37.5511 78.2753C37.6046 78.4426 37.6894 78.5954 37.7999 78.7236C37.9104 78.8518 38.0441 78.9524 38.1922 79.019C38.3403 79.0855 38.4994 79.1163 38.659 79.1095C62.4649 78.625 92.332 64.4194 103.412 57.3105L125.41 43.1816C133.399 38.0508 143.405 44.4653 149.401 40.6182L162.333 32.3185C162.922 31.939 162.922 31.3294 162.333 30.95L154.467 25.9039C154.15 25.7162 153.798 25.6143 153.439 25.6066C153.079 25.5989 152.724 25.6855 152.401 25.8595C152.109 26.0705 151.867 26.3548 151.694 26.6894C151.52 27.024 151.42 27.3994 151.402 27.7851C151.402 28.4956 150.926 28.762 150.338 28.3825L142.471 23.3607C142.161 23.1359 141.903 22.8332 141.717 22.4769C141.532 22.1207 141.424 21.721 141.404 21.31V18.9202C141.384 18.5094 141.278 18.1095 141.093 17.7531C140.908 17.3968 140.65 17.094 140.34 16.8695L132.473 11.8194C132.145 11.6291 131.78 11.5281 131.41 11.5246C131.039 11.5211 130.673 11.6152 130.342 11.7992Z" fill="#F5F5F5"/>
<path d="M141.419 21.299V18.9213C141.408 18.5088 141.3 18.1067 141.106 17.7546L137.424 20.1V25.2309L141.738 22.4656C141.544 22.1134 141.434 21.7118 141.419 21.299Z" fill="#E0E0E0"/>
<path d="M39.8323 75.5617C42.9556 62.1715 62.1818 46.0282 72.761 38.8466C83.6743 31.435 86.3835 29.7032 94.3987 24.5724C96.3163 23.3411 98.5534 22.7719 101.441 22.7719C103.256 22.8087 105.068 22.9502 106.87 23.1958C108.592 23.4298 110.325 23.5645 112.06 23.5995C114.682 23.5995 116.697 23.0908 118.393 21.9847L130.342 14.3147C130.672 14.1295 131.037 14.033 131.408 14.033C131.778 14.033 132.143 14.1295 132.474 14.3147L138.339 18.1134C138.649 18.3382 138.907 18.6409 139.093 18.9972C139.278 19.3534 139.386 19.7532 139.407 20.1641V22.5862C139.426 22.9976 139.533 23.398 139.717 23.755C139.902 24.1121 140.16 24.4156 140.471 24.641L148.337 29.687C148.654 29.8748 149.006 29.9766 149.365 29.9844C149.724 29.9921 150.08 29.9054 150.403 29.7314C150.694 29.52 150.936 29.2355 151.109 28.901C151.283 28.5665 151.383 28.1914 151.402 27.8059C151.402 27.0954 151.881 26.8249 152.47 27.2044L158.393 30.9748C158.981 31.3502 158.985 31.9598 158.393 32.3392L148.413 38.7417C147.324 39.432 145.954 39.7549 144.055 39.7549C142.456 39.7099 140.859 39.5751 139.272 39.3512C137.333 39.0919 135.382 38.945 133.429 38.9112C129.819 38.9112 126.957 39.6701 124.418 41.301L102.421 55.43C91.9982 62.115 63.9904 75.598 40.8201 76.8454C40.6701 76.869 40.5171 76.8502 40.3754 76.7907C40.2337 76.7312 40.1077 76.6329 40.0092 76.5049C39.9107 76.3769 39.8429 76.2234 39.812 76.0585C39.781 75.8936 39.788 75.7227 39.8323 75.5617Z" fill="#E0E0E0"/>
<path d="M158.394 30.967L152.471 27.1966C151.882 26.8171 151.403 27.0876 151.403 27.7981C151.384 28.1836 151.284 28.5588 151.11 28.8933C150.937 29.2278 150.695 29.5122 150.404 29.7237C150.081 29.8976 149.725 29.9843 149.366 29.9766C149.007 29.9689 148.655 29.867 148.338 29.6793L140.472 24.6332C140.161 24.4078 139.903 24.1043 139.718 23.7473C139.534 23.3903 139.427 22.9898 139.407 22.5785V20.1564C139.387 19.7454 139.279 19.3457 139.094 18.9894C138.908 18.6332 138.65 18.3304 138.34 18.1056L132.475 14.3393C132.13 14.1388 131.744 14.0427 131.356 14.0607L130.197 22.0335L152.039 36.4248L158.398 32.3436C158.986 31.952 158.982 31.3424 158.394 30.967Z" fill="#EBEBEB"/>
<path d="M154.604 34.7646L148.43 38.7369C147.358 39.4272 145.971 39.742 144.072 39.742C142.519 39.7075 140.968 39.5849 139.427 39.3747L119.151 26.3276L129.269 19.8364C129.599 19.6511 129.964 19.5546 130.335 19.5546C130.705 19.5546 131.07 19.6511 131.401 19.8364L154.604 34.7646Z" fill="#00AEEF"/>
<path d="M139.463 39.3839L139.271 39.3597C137.331 39.0975 135.381 38.9479 133.428 38.9116C129.818 38.9116 126.952 39.6745 124.417 41.3054L102.427 55.4142C91.997 62.1153 63.9929 75.5984 40.8189 76.8457C40.6283 76.8565 40.4386 76.809 40.2705 76.7085C45.8779 64.3437 62.2206 50.7678 71.6703 44.3573C82.5945 36.9497 85.2965 35.2138 93.3153 30.0709C95.2292 28.8397 97.4663 28.2705 100.354 28.2705C102.167 28.3022 103.978 28.437 105.779 28.6741C107.503 28.9101 109.236 29.0448 110.973 29.0778C113.595 29.0778 115.61 28.5692 117.306 27.4631L119.122 26.2884L139.463 39.3839Z" fill="#55CBF7"/>
<path d="M58.3596 92.5566C59.0668 92.975 59.8538 93.1992 60.6549 93.2106C73.3659 92.6495 102.129 83.7967 123.407 70.1441C137.16 61.3196 152.388 49.6491 156.39 46.5447C157.03 46.007 157.553 45.3174 157.923 44.5263L158.9 42.2334C158.9 42.2334 154.24 45.3256 147.79 49.863C142.808 53.363 136.714 57.4644 130.253 61.7031C123.792 65.9418 115.476 70.4792 111.412 72.7075C93.6962 82.4242 69.6034 89.9165 56.2569 90.3929C55.5777 90.4171 54.441 90.2072 53.9907 89.751L58.3596 92.5566Z" fill="#0052B4"/>
<path d="M131.435 47.0004C130.853 47.4215 130.368 47.9894 130.021 48.6579C129.673 49.3263 129.472 50.0765 129.434 50.8475C129.434 52.2644 130.331 52.8417 131.435 52.1312C132.018 51.7101 132.502 51.1422 132.85 50.4738C133.198 49.8053 133.398 49.0551 133.436 48.2841C133.429 46.8631 132.539 46.2899 131.435 47.0004Z" fill="#0052B4"/>
<path d="M125.152 51.0418C124.57 51.464 124.086 52.0327 123.738 52.7017C123.391 53.3708 123.19 54.1214 123.151 54.8929C123.151 56.3098 124.048 56.8831 125.152 56.1766C125.734 55.7542 126.218 55.1854 126.565 54.5163C126.912 53.8472 127.112 53.0967 127.15 52.3255C127.15 50.9086 126.256 50.3353 125.152 51.0418Z" fill="#0052B4"/>
<path d="M118.87 55.0825C118.287 55.504 117.802 56.0725 117.454 56.7417C117.107 57.4109 116.906 58.1619 116.869 58.9336C116.869 60.3505 117.766 60.9278 118.87 60.2173C119.451 59.7949 119.935 59.2261 120.282 58.557C120.629 57.8879 120.83 57.1374 120.867 56.3662C120.867 54.9492 119.992 54.376 118.87 55.0825Z" fill="#0052B4"/>
<mask id="mask0_1_8" style="mask-type:luminance" maskUnits="userSpaceOnUse" x="77" y="0" width="57" height="58">
<path d="M81.419 0L77.1082 50.8965C77.1082 50.8965 82.7446 57.0688 91.4171 57.311C91.4171 57.311 97.1589 58.2314 102.428 55.4137L124.426 41.3049C126.968 39.6902 129.826 38.9111 133.436 38.9111V0H81.419Z" fill="white"/>
</mask>
<g mask="url(#mask0_1_8)">
<path d="M113.483 5.95499L92.2048 20.5361C91.0346 21.365 90.0744 22.5129 89.4157 23.8705L81.1317 43.106L81.0591 43.2635L81.0046 43.3805C79.4393 47.0137 80.6596 50.8164 84.8651 53.517C91.7363 57.9253 103.576 56.9726 111.311 51.3856L129.47 39.3074C129.775 39.0782 130.025 38.7698 130.198 38.4089C130.371 38.048 130.463 37.6456 130.465 37.2365L129.528 16.1965C129.489 15.7831 129.368 15.3846 129.173 15.0299C128.978 14.6752 128.715 14.3732 128.402 14.1457L115.597 5.9227C115.268 5.73775 114.904 5.64407 114.536 5.6497C114.168 5.65532 113.807 5.76008 113.483 5.95499Z" fill="#EBEBEB"/>
<path d="M98.8766 33.1185L98.2555 53.7064C97.3663 53.8052 96.4723 53.8402 95.579 53.8113C92.1179 53.8113 88.9329 53.0686 86.5324 51.7001L91.3262 32.3232C93.0275 32.9822 94.82 33.3019 96.6213 33.2679C97.3748 33.2605 98.1275 33.2106 98.8766 33.1185Z" fill="#0052B4"/>
<path d="M84.5893 50.3152L89.3105 31.1685C89.1253 31.0232 88.9474 30.8779 88.7912 30.7285C88.4753 30.4113 88.2196 30.027 88.0394 29.5982C85.4028 35.4153 82.1851 43.5253 82.1488 43.606C82.1186 43.682 82.0846 43.7562 82.0471 43.8281L82.0108 43.9209C80.9794 46.4358 83.3654 49.1244 84.2588 50.0085L84.3496 50.0973C84.4985 50.2345 84.5893 50.3152 84.5893 50.3152Z" fill="#0052B4"/>
<path d="M111.838 48.0589L110.105 49.3103C107.883 50.9251 103.205 53.0808 100.663 53.4602L100.855 32.7633C102.333 32.4605 103.763 31.9249 105.105 31.1728C106.953 30.1959 109.546 28.6538 110.588 27.9635L111.838 48.0589Z" fill="#0052B4"/>
<path d="M113.484 5.95522C113.808 5.76031 114.169 5.65555 114.537 5.64993C114.905 5.6443 115.269 5.73798 115.597 5.92293L128.407 14.146C128.995 14.5254 128.98 15.1027 128.37 15.4378L104.121 28.9531C99.9775 31.2057 94.0868 31.4035 90.9636 29.4012C87.8403 27.3989 88.396 23.4307 92.2056 20.5201L113.484 5.95522Z" fill="white"/>
<path d="M113.484 5.95442L101.91 13.8868L113.669 6.74968C113.932 6.58883 114.226 6.50146 114.526 6.49513C114.826 6.4888 115.122 6.56369 115.39 6.71334L128.196 14.0119L115.597 5.93827C115.27 5.75084 114.907 5.65441 114.539 5.65722C114.171 5.66003 113.809 5.76201 113.484 5.95442Z" fill="#F5F5F5"/>
<path d="M106.111 18.8157L120.667 9.17574L120.013 8.75995L105.413 18.2788L106.111 18.8157Z" fill="#F5F5F5"/>
<path d="M123.695 26.3976C123.113 26.8199 122.628 27.3885 122.281 28.0576C121.933 28.7267 121.732 29.4773 121.694 30.2488C121.694 31.6657 122.591 32.2389 123.695 31.5325C124.277 31.11 124.761 30.5412 125.108 29.8722C125.455 29.2031 125.655 28.4525 125.692 27.6813C125.692 26.2644 124.799 25.6912 123.695 26.3976Z" fill="#0052B4"/>
<path d="M117.408 30.443C116.827 30.8644 116.343 31.4324 115.995 32.1009C115.648 32.7693 115.448 33.5194 115.411 34.2902C115.411 35.7071 116.304 36.2843 117.408 35.5739C117.991 35.1519 118.475 34.5833 118.823 33.9141C119.171 33.245 119.372 32.4943 119.41 31.7227C119.41 30.3058 118.512 29.7326 117.408 30.443Z" fill="#0052B4"/>
<path d="M125.155 2.53552C125.155 2.61536 125.134 2.69341 125.094 2.7598C125.054 2.82618 124.997 2.87792 124.931 2.90847C124.864 2.93903 124.791 2.94702 124.721 2.93145C124.651 2.91587 124.586 2.87742 124.535 2.82097C124.484 2.76451 124.45 2.69258 124.436 2.61427C124.422 2.53596 124.429 2.4548 124.456 2.38103C124.484 2.30727 124.53 2.24423 124.59 2.19987C124.65 2.15551 124.72 2.13184 124.792 2.13184C124.888 2.13184 124.981 2.17437 125.049 2.25007C125.117 2.32578 125.155 2.42846 125.155 2.53552Z" fill="#0052B4"/>
</g>
<path d="M124.076 91.969L129.549 86.4909L110.16 62.5541L104.686 68.0323L124.076 91.969Z" fill="#FFC727"/>
<path d="M139.233 113.812L147.511 105.526L127.428 80.7302L119.151 89.0162L139.233 113.812Z" fill="#FFC727"/>
<path d="M79.882 75.9065C73.3663 74.4836 67.3767 70.9445 62.6708 65.737C57.965 60.5295 54.7544 53.8876 53.4452 46.6514C52.136 39.4153 52.787 31.9102 55.3158 25.0854C57.8447 18.2606 62.1378 12.4229 67.652 8.31068C73.1662 4.19849 79.6538 1.99661 86.2941 1.98359C92.9343 1.97057 99.4288 4.147 104.956 8.23754C110.483 12.3281 114.795 18.149 117.345 24.9638C119.896 31.7786 120.571 39.2812 119.284 46.5224C117.553 56.2198 112.433 64.7585 105.047 70.2666C97.6608 75.7748 88.6112 77.8029 79.882 75.9065ZM80.6274 71.7079C86.3927 72.9712 92.3655 72.3059 97.7906 69.796C103.216 67.2862 107.849 63.0446 111.106 57.6076C114.362 52.1706 116.095 45.7823 116.086 39.2506C116.076 32.7188 114.324 26.3369 111.051 20.9119C107.779 15.4869 103.132 11.2624 97.6998 8.77254C92.2672 6.28269 86.2925 5.63934 80.531 6.92382C74.7695 8.20831 69.48 11.363 65.3314 15.9889C61.1828 20.6148 58.3614 26.5042 57.224 32.9124C55.7062 41.5059 57.3181 50.4177 61.706 57.6914C66.0938 64.965 72.8989 70.0061 80.6274 71.7079Z" fill="#FFC727"/>
<path d="M116.213 31.1566C115.346 27.2851 113.88 23.6108 111.879 20.2984C107.342 12.7799 100.304 7.57264 92.3133 5.82217C84.3225 4.07169 76.0333 5.92137 69.2694 10.9643C62.5055 16.0072 57.8208 23.8303 56.246 32.7126C54.6712 41.5948 56.3352 50.8087 60.8721 58.3271C64.2516 63.9388 69.0531 68.3097 74.6688 70.8863C80.2845 73.4628 86.4617 74.1292 92.4183 72.801C98.3749 71.4728 103.843 68.2098 108.13 63.4251C112.417 58.6404 115.331 52.5493 116.502 45.9229C117.384 41.0371 117.285 35.9951 116.213 31.1566ZM114.544 45.4777C113.264 52.7346 109.76 59.2736 104.628 63.9801C99.4967 68.6865 93.0555 71.2691 86.4027 71.2875C79.7499 71.3059 73.2972 68.7591 68.1446 64.0812C62.9921 59.4032 59.4585 52.8838 58.1463 45.634C56.8341 38.3843 57.8246 30.8531 60.9487 24.3243C64.0729 17.7954 69.1375 12.6729 75.2791 9.83015C81.4207 6.98735 88.2592 6.60015 94.6289 8.73455C100.999 10.869 106.505 15.3928 110.21 21.5351C114.451 28.5628 116.011 37.173 114.549 45.4777H114.544ZM116.213 31.1566C115.346 27.2851 113.88 23.6108 111.879 20.2984C107.342 12.7799 100.304 7.57264 92.3133 5.82217C84.3225 4.07169 76.0333 5.92137 69.2694 10.9643C62.5055 16.0072 57.8208 23.8303 56.246 32.7126C54.6712 41.5948 56.3352 50.8087 60.8721 58.3271C64.2516 63.9388 69.0531 68.3097 74.6688 70.8863C80.2845 73.4628 86.4617 74.1292 92.4183 72.801C98.3749 71.4728 103.843 68.2098 108.13 63.4251C112.417 58.6404 115.331 52.5493 116.502 45.9229C117.384 41.0371 117.285 35.9951 116.213 31.1566ZM114.544 45.4777C113.264 52.7346 109.76 59.2736 104.628 63.9801C99.4967 68.6865 93.0555 71.2691 86.4027 71.2875C79.7499 71.3059 73.2972 68.7591 68.1446 64.0812C62.9921 59.4032 59.4585 52.8838 58.1463 45.634C56.8341 38.3843 57.8246 30.8531 60.9487 24.3243C64.0729 17.7954 69.1375 12.6729 75.2791 9.83015C81.4207 6.98735 88.2592 6.60015 94.6289 8.73455C100.999 10.869 106.505 15.3928 110.21 21.5351C114.451 28.5628 116.011 37.173 114.549 45.4777H114.544ZM119.94 30.1364C117.911 20.9475 112.903 12.9145 105.874 7.57793C98.8453 2.24137 90.2916 -0.0229961 81.8535 1.21912C73.4153 2.46123 65.6867 7.12238 60.15 14.3086C54.6133 21.4948 51.6582 30.7001 51.8516 40.159C52.045 49.618 55.3733 58.6646 61.198 65.5638C67.0227 72.4629 74.9338 76.729 83.414 77.5437C91.8943 78.3584 100.347 75.6644 107.15 69.9784C113.953 64.2924 118.628 56.0148 120.279 46.733C121.26 41.2401 121.146 35.5751 119.945 30.1364H119.94ZM118.321 46.3063C116.77 55.0609 112.367 62.8709 105.954 68.2382C99.5419 73.6056 91.5726 76.1525 83.5748 75.3903C75.577 74.6281 68.114 70.6105 62.6172 64.1082C57.1204 57.6058 53.9769 49.0765 53.7897 40.1564C53.6025 31.2362 56.3847 22.5533 61.6027 15.7731C66.8207 8.99292 74.1071 4.59284 82.0642 3.4169C90.0213 2.24096 98.0889 4.37195 104.719 9.40112C111.35 14.4303 116.077 22.0035 117.993 30.6682C119.134 35.7907 119.248 41.1294 118.326 46.3063H118.321ZM111.879 20.2984C107.342 12.7799 100.304 7.57264 92.3133 5.82217C84.3225 4.07169 76.0333 5.92137 69.2694 10.9643C62.5055 16.0072 57.8208 23.8303 56.246 32.7126C54.6712 41.5948 56.3352 50.8087 60.8721 58.3271C64.2516 63.9388 69.0531 68.3097 74.6688 70.8863C80.2845 73.4628 86.4617 74.1292 92.4183 72.801C98.3749 71.4728 103.843 68.2098 108.13 63.4251C112.417 58.6404 115.331 52.5493 116.502 45.9229C117.38 41.0427 117.279 36.0073 116.207 31.1752C115.344 27.2976 113.879 23.6168 111.879 20.2984ZM114.549 45.4777C113.27 52.7346 109.765 59.2736 104.634 63.9801C99.5022 68.6865 93.0611 71.2691 86.4083 71.2875C79.7554 71.3059 73.3028 68.7591 68.1502 64.0812C62.9976 59.4032 59.4641 52.8838 58.1519 45.634C56.8397 38.3843 57.8301 30.8531 60.9543 24.3243C64.0785 17.7954 69.143 12.6729 75.2847 9.83015C81.4263 6.98735 88.2648 6.60015 94.6345 8.73455C101.004 10.869 106.511 15.3928 110.216 21.5351C114.454 28.5637 116.013 37.1739 114.549 45.4777Z" fill="#FFC727"/>
<path d="M110.228 21.5284C113.935 27.6643 115.614 35.0396 114.977 42.3971C114.341 49.7546 111.429 56.6392 106.737 61.8773C102.045 67.1154 95.8648 70.383 89.2485 71.1231C82.6322 71.8632 75.9898 70.0301 70.4533 65.936C64.9168 61.842 60.8289 55.7406 58.8863 48.6715C56.9437 41.6025 57.2666 34.0034 59.8 27.1693C62.3334 20.3353 66.9205 14.6893 72.7795 11.1936C78.6386 7.6979 85.4068 6.56884 91.9309 7.99886C99.401 9.63762 105.981 14.5034 110.228 21.5284Z" fill="white" fill-opacity="0.1"/>
</svg>
