<svg width="30" height="30" viewBox="0 0 30 30" fill="none" xmlns="http://www.w3.org/2000/svg">
<circle cx="15" cy="15" r="15" fill="white"/>
<path d="M25 15.0607C25 9.504 20.5233 5 15 5C9.47667 5 5 9.504 5 15.0607C5 20.0833 8.656 24.2453 13.4373 25V17.9693H10.8987V15.06H13.4373V12.844C13.4373 10.3227 14.93 8.92933 17.2147 8.92933C18.308 8.92933 19.4533 9.126 19.4533 9.126V11.602H18.1913C16.9493 11.602 16.5627 12.378 16.5627 13.174V15.0607H19.336L18.8927 17.9687H16.5627V25C21.344 24.2453 25 20.0833 25 15.0607Z" fill="#666666"/>
</svg>
