<svg width="37" height="31" viewBox="0 0 37 31" fill="none" xmlns="http://www.w3.org/2000/svg">
<path d="M17.6328 6.22764L16.7656 5.27021L16.4621 4.93689C14.5832 2.86603 11.7432 1.90151 8.96094 2.39795C5.10918 3.08588 2.3125 6.37657 2.3125 10.2204V10.4687C2.3125 12.7594 3.28086 14.9437 4.99355 16.5039L18.2832 28.6525C18.341 28.7022 18.4205 28.7376 18.5 28.7376C18.5795 28.7376 18.659 28.7093 18.7168 28.6525L32.0137 16.5039C33.7191 14.9437 34.6875 12.7594 34.6875 10.4687V10.2204C34.6875 6.37657 31.8908 3.08588 28.0391 2.39795C25.2568 1.90151 22.4168 2.86603 20.5379 4.93689L20.2344 5.27021L19.3672 6.22764C19.1504 6.46876 18.8324 6.6106 18.5 6.6106C18.1676 6.6106 17.8568 6.46876 17.6328 6.22764ZM20.1549 2.1781C22.4746 0.39801 25.4881 -0.360835 28.451 0.163974C33.4012 1.05047 37 5.2844 37 10.2204V10.4687C37 13.0218 36.0533 15.4756 34.3551 17.3834C34.1094 17.6529 33.8564 17.9153 33.5818 18.1635L20.285 30.3121C20.2271 30.3688 20.1621 30.4185 20.0971 30.4681C19.6418 30.8156 19.0781 31 18.5 31C17.8352 31 17.1992 30.7518 16.7078 30.3121L3.41094 18.1706C3.13633 17.9223 2.8834 17.6599 2.6377 17.3904C0.94668 15.4756 0 13.0218 0 10.4687V10.2204C0 5.2844 3.59883 1.05047 8.54902 0.163974C11.5047 -0.360835 14.5182 0.390918 16.8379 2.1781C17.3221 2.55398 17.7773 2.96531 18.1893 3.42629L18.4928 3.75962L18.7963 3.42629C19.0998 3.09297 19.4178 2.78092 19.7574 2.49724C19.8875 2.39086 20.0176 2.28448 20.1477 2.1781H20.1549Z" fill="#666666"/>
</svg>
