<svg width="44" height="44" viewBox="0 0 44 44" fill="none" xmlns="http://www.w3.org/2000/svg">
<g clip-path="url(#clip0_1986_15479)">
<path d="M34 22C34 15.3719 28.6281 10 22 10C15.3719 10 10 15.3719 10 22C10 27.9906 14.3875 32.9547 20.125 33.8547V25.4688H17.0781V22H20.125V19.3563C20.125 16.3492 21.9156 14.6875 24.6578 14.6875C25.9703 14.6875 27.3438 14.9219 27.3438 14.9219V17.875H25.8297C24.3391 17.875 23.875 18.8008 23.875 19.75V22H27.2031L26.6711 25.4688H23.875V33.8547C29.6125 32.9547 34 27.9906 34 22Z" fill="#1877F2"/>
<path d="M26.6711 25.4688L27.2031 22H23.875V19.75C23.875 18.8008 24.3391 17.875 25.8297 17.875H27.3438V14.9219C27.3438 14.9219 25.9703 14.6875 24.6578 14.6875C21.9156 14.6875 20.125 16.3492 20.125 19.3563V22H17.0781V25.4688H20.125V33.8547C20.7367 33.9508 21.3625 34 22 34C22.6375 34 23.2633 33.9508 23.875 33.8547V25.4688H26.6711Z" fill="white"/>
</g>
<defs>
<clipPath id="clip0_1986_15479">
<rect width="24" height="24" fill="white" transform="translate(10 10)"/>
</clipPath>
</defs>
</svg>
