<svg width="1440" height="591" viewBox="0 0 1440 591" fill="none" xmlns="http://www.w3.org/2000/svg">
<path d="M1337.93 510.783C1484.88 467.949 1573.27 407.73 1583.71 343.329C1591.23 292.1 1538.15 236.122 1406.55 207.641C1340.91 193.461 1255.01 185.093 1222.12 161.8C1190.44 139.279 1224.07 113.099 1217.51 88.4759C1210.95 63.8527 1163.31 41.8234 1101.27 27.6162C1039.22 13.4089 964.495 6.33186 889.774 2.80661C607.519 -10.5759 315.487 24.9156 106.712 87.5713C-60.8257 137.842 -180.105 205.806 -216.413 279.29C-252.721 352.774 -203.132 431.313 -70.6862 492.399C22.5082 535.366 247.451 579.465 407.203 585.983C953.813 608.278 1197.09 551.409 1337.93 510.783Z" fill="#00BFFF"/>
<rect x="-3.72559" y="261" width="1519" height="446" fill="#00BFFF"/>
</svg>
