<svg width="360" height="578" viewBox="0 0 360 578" fill="none" xmlns="http://www.w3.org/2000/svg">
<path d="M568.96 317.7C660.363 291.058 715.339 253.603 721.833 213.546C726.508 181.683 693.495 146.865 611.64 129.151C570.814 120.331 517.387 115.126 496.93 100.638C477.221 86.6303 498.141 70.347 494.059 55.0317C489.977 39.7164 460.352 26.0145 421.76 17.1778C383.167 8.34113 336.689 3.93931 290.214 1.74667C114.656 -6.57704 -66.9839 15.4981 -196.838 54.469C-301.044 85.7366 -375.234 128.009 -397.817 173.715C-420.4 219.421 -389.557 268.271 -307.177 306.265C-249.212 332.99 -109.301 360.419 -9.93795 364.473C330.045 378.341 481.358 342.969 568.96 317.7Z" fill="#00BFFF"/>
<rect x="-14" y="354" width="386" height="418" fill="#00BFFF"/>
</svg>
