<svg width="834" height="558" viewBox="0 0 834 558" fill="none" xmlns="http://www.w3.org/2000/svg">
<path d="M1052.93 510.783C1199.88 467.949 1288.27 407.73 1298.71 343.329C1306.23 292.1 1253.15 236.122 1121.55 207.641C1055.91 193.461 970.014 185.093 937.124 161.8C905.436 139.279 939.07 113.099 932.508 88.4759C925.946 63.8527 878.315 41.8234 816.268 27.6162C754.221 13.4089 679.495 6.33186 604.774 2.80661C322.519 -10.5759 30.4867 24.9156 -178.288 87.5713C-345.826 137.842 -465.105 205.806 -501.413 279.29C-537.721 352.774 -488.132 431.313 -355.686 492.399C-262.492 535.366 -37.5486 579.465 122.203 585.983C668.813 608.278 912.087 551.409 1052.93 510.783Z" fill="#00BFFF"/>
<rect x="-288.727" y="261" width="1519" height="446" fill="#00BFFF"/>
</svg>
