<svg width="43" height="44" viewBox="0 0 43 44" fill="none" xmlns="http://www.w3.org/2000/svg">
<g clip-path="url(#clip0_1986_15473)">
<path d="M32.9998 22.2763C32.9998 21.4605 32.9352 20.6404 32.7972 19.8379H21.7305V24.4589H28.0679C27.8049 25.9492 26.9599 27.2676 25.7226 28.1054V31.1037H29.5035C31.7237 29.0137 32.9998 25.9272 32.9998 22.2763Z" fill="#4285F4"/>
<path d="M21.7308 33.9994C24.8952 33.9994 27.5638 32.9367 29.5081 31.1024L25.7273 28.1041C24.6753 28.836 23.3173 29.2505 21.7351 29.2505C18.6742 29.2505 16.0789 27.1384 15.1477 24.2988H11.2461V27.3898C13.2378 31.4419 17.2946 33.9994 21.7308 33.9994Z" fill="#34A853"/>
<path d="M15.1434 24.2987C14.6519 22.8084 14.6519 21.1946 15.1434 19.7042V16.6133H11.2461C9.58202 20.0041 9.58202 23.9989 11.2461 27.3897L15.1434 24.2987Z" fill="#FBBC04"/>
<path d="M21.7308 14.7497C23.4035 14.7232 25.0202 15.367 26.2317 16.5487L29.5814 13.1226C27.4603 11.0855 24.6452 9.96553 21.7308 10.0008C17.2946 10.0008 13.2378 12.5582 11.2461 16.6148L15.1434 19.7058C16.0703 16.8617 18.6699 14.7497 21.7308 14.7497Z" fill="#EA4335"/>
</g>
<defs>
<clipPath id="clip0_1986_15473">
<rect width="23" height="24" fill="white" transform="translate(10 10)"/>
</clipPath>
</defs>
</svg>
