<svg width="44" height="44" viewBox="0 0 44 44" fill="none" xmlns="http://www.w3.org/2000/svg">
<path d="M34.607 36.5492C31.2297 39.4797 26.8211 41.25 22 41.25C17.1789 41.25 12.7703 39.4797 9.39297 36.5492L17.2219 28.7289C18.5711 29.6828 20.2211 30.25 22 30.25C23.7789 30.25 25.4289 29.6828 26.7781 28.7289L34.607 36.5492ZM36.5492 34.607L28.7289 26.7781C29.6828 25.4289 30.25 23.7789 30.25 22C30.25 20.2211 29.6828 18.5711 28.7289 17.2219L36.5492 9.39297C39.4797 12.7703 41.25 17.1789 41.25 22C41.25 26.8211 39.4797 31.2297 36.5492 34.607ZM38.5 36.5578C41.9203 32.682 44 27.5859 44 22C44 16.4141 41.9203 11.3266 38.5 7.44219L39.4711 6.47109C40.0039 5.93828 40.0039 5.06172 39.4711 4.52891C38.9383 3.99609 38.0617 3.99609 37.5289 4.52891L36.5578 5.5C32.6734 2.07969 27.5773 0 22 0C16.4227 0 11.3266 2.07969 7.44219 5.5L6.47109 4.52891C5.93828 3.99609 5.06172 3.99609 4.52891 4.52891C3.99609 5.06172 3.99609 5.93828 4.52891 6.47109L5.5 7.44219C2.07969 11.3266 0 16.4227 0 22C0 27.5773 2.07969 32.6734 5.5 36.5578L4.52891 37.5289C3.99609 38.0617 3.99609 38.9383 4.52891 39.4711C5.06172 40.0039 5.93828 40.0039 6.47109 39.4711L7.44219 38.5C11.318 41.9203 16.4141 44 22 44C27.5859 44 32.6734 41.9203 36.5578 38.5L37.5289 39.4711C38.0617 40.0039 38.9383 40.0039 39.4711 39.4711C40.0039 38.9383 40.0039 38.0617 39.4711 37.5289L38.5 36.5578ZM34.607 7.45078L26.7781 15.2797C25.4289 14.3172 23.7789 13.75 22 13.75C20.2211 13.75 18.5711 14.3172 17.2219 15.2711L9.39297 7.45078C12.7703 4.52031 17.1789 2.75 22 2.75C26.8211 2.75 31.2297 4.52031 34.607 7.45078ZM15.2711 26.7781L7.45078 34.607C4.52031 31.2297 2.75 26.8211 2.75 22C2.75 17.1789 4.52031 12.7703 7.45078 9.39297L15.2797 17.2219C14.3172 18.5711 13.75 20.2211 13.75 22C13.75 23.7789 14.3172 25.4289 15.2711 26.7781ZM16.5 22C16.5 20.5413 17.0795 19.1424 18.1109 18.1109C19.1424 17.0795 20.5413 16.5 22 16.5C23.4587 16.5 24.8576 17.0795 25.8891 18.1109C26.9205 19.1424 27.5 20.5413 27.5 22C27.5 23.4587 26.9205 24.8576 25.8891 25.8891C24.8576 26.9205 23.4587 27.5 22 27.5C20.5413 27.5 19.1424 26.9205 18.1109 25.8891C17.0795 24.8576 16.5 23.4587 16.5 22Z" fill="#666666"/>
</svg>
