<svg width="86" height="60" viewBox="0 0 86 60" fill="none" xmlns="http://www.w3.org/2000/svg">
<path d="M21.7222 2.5C24.5014 2.5 26.8733 4.23438 27.7517 6.66406C27.9833 7.3125 28.7181 7.65625 29.3809 7.42969C30.0438 7.20312 30.3951 6.48438 30.1635 5.83594C28.9337 2.4375 25.6194 0 21.7222 0C17.2899 0 13.6083 3.15625 12.8976 7.29688C12.7778 7.97656 13.249 8.625 13.9438 8.73438C14.6385 8.84375 15.3014 8.39062 15.4132 7.71094C15.9323 4.75 18.5597 2.5 21.7222 2.5ZM4.40833 14.8672C5.03924 14.5547 5.29479 13.8047 4.98333 13.1875C4.67188 12.5703 3.89722 12.3203 3.26632 12.625L2.89097 12.8125C1.11806 13.6797 0 15.4531 0 17.3906C0 20.1797 2.27604 22.4453 5.11111 22.5C5.11111 26.5938 7.12361 30.2188 10.2222 32.5V36.25C10.2222 38.3203 11.9392 40 14.0556 40H16.6111C18.7274 40 20.4444 38.3203 20.4444 36.25V35H25.5556V36.25C25.5556 38.3203 27.2726 40 29.3889 40H31.9444C34.0608 40 35.7778 38.3203 35.7778 36.25V33.9609C37.8142 33.0938 39.5712 31.7188 40.8889 30H43.4444C44.858 30 46 28.8828 46 27.5V20C46 18.6172 44.858 17.5 43.4444 17.5H42.3823C41.5278 15.5781 40.1941 13.9141 38.525 12.6406L39.1 10.6875C39.5632 9.08594 38.3333 7.5 36.6403 7.5H36.4167C33.9809 7.5 31.7688 8.45312 30.1556 10H17.8889C11.7076 10 6.54861 14.2969 5.36667 20H5.22292C3.75347 20 2.55556 18.8281 2.55556 17.3906C2.55556 16.3984 3.13056 15.5 4.03299 15.0547L4.40833 14.875V14.8672ZM33.8611 22.5C34.3694 22.5 34.857 22.3025 35.2164 21.9508C35.5758 21.5992 35.7778 21.1223 35.7778 20.625C35.7778 20.1277 35.5758 19.6508 35.2164 19.2992C34.857 18.9475 34.3694 18.75 33.8611 18.75C33.3528 18.75 32.8653 18.9475 32.5058 19.2992C32.1464 19.6508 31.9444 20.1277 31.9444 20.625C31.9444 21.1223 32.1464 21.5992 32.5058 21.9508C32.8653 22.3025 33.3528 22.5 33.8611 22.5ZM31.6569 12.0859C32.8229 10.8047 34.524 10 36.4167 10H36.6403L35.8257 12.7969C35.674 13.3203 35.8816 13.875 36.3448 14.1797C38.1656 15.3672 39.5712 17.1172 40.3139 19.1641C40.4976 19.6641 40.9767 20 41.5198 20H43.4444V27.5H40.234C39.8108 27.5 39.4115 27.7109 39.1719 28.0547C37.958 29.8359 36.1691 31.2109 34.0767 31.9297C33.5656 32.1094 33.2222 32.5781 33.2222 33.1094V36.25C33.2222 36.9375 32.6472 37.5 31.9444 37.5H29.3889C28.6861 37.5 28.1111 36.9375 28.1111 36.25V33.75C28.1111 33.0625 27.5361 32.5 26.8333 32.5H19.1667C18.4639 32.5 17.8889 33.0625 17.8889 33.75V36.25C17.8889 36.9375 17.3139 37.5 16.6111 37.5H14.0556C13.3528 37.5 12.7778 36.9375 12.7778 36.25V31.8594C12.7778 31.4453 12.5622 31.0547 12.2108 30.8203C9.47153 29.0234 7.66667 25.9688 7.66667 22.5C7.66667 16.9766 12.2427 12.5 17.8889 12.5H30.6667H30.6986C31.066 12.5 31.4094 12.3516 31.649 12.0859H31.6569Z" fill="#666666"/>
<path d="M60.7335 53.3525L60.446 53.0393C58.9539 51.4135 56.3457 51.372 54.63 52.9467L56.9634 55.489C58.3573 54.9393 59.5949 54.2193 60.7335 53.3525ZM62.3353 51.9756C64.626 49.7883 66.5272 46.9912 68.5781 43.9378L68.7303 43.7133C70.6699 40.8215 72.7617 37.7052 75.5086 35.1076C73.2864 32.6669 73.5623 28.7819 76.1334 26.4221L70.7227 20.5269C68.1467 22.8912 64.239 22.829 61.9986 20.388L61.6647 20.0241C59.374 22.2114 57.4728 25.0086 55.4218 28.062L55.2697 28.2865C53.3301 31.1783 51.2383 34.2946 48.4914 36.8922C50.7136 39.3329 50.4377 43.2178 47.8666 45.5777L53.2773 51.4729C55.8533 49.1086 59.761 49.1708 62.0014 51.6118L62.3353 51.9756ZM77.0808 33.6985L77.102 33.7215C78.2 32.8495 79.3959 32.0743 80.7156 31.4146L77.4861 27.8959C75.7704 29.4706 75.5887 32.0727 77.0808 33.6985ZM46.898 38.2782C45.8 39.1502 44.6041 39.9254 43.2844 40.5852L46.5139 44.1039C48.2296 42.5291 48.4113 39.927 46.9192 38.3012L46.898 38.2782ZM63.5539 18.9605C65.0461 20.5863 67.6543 20.6278 69.37 19.0531L67.0366 16.5107C65.6426 17.0604 64.4051 17.7804 63.2665 18.6473L63.5539 18.9605ZM39.7296 39.8342C40.4779 39.6056 41.1876 39.3446 41.864 39.0377C47.2696 36.6049 50.5031 31.7959 53.7275 26.9866C57.3578 21.5757 60.9923 16.1695 67.7253 14.1391L82.774 30.5351L84.2704 32.1655C83.5221 32.3942 82.8124 32.6552 82.136 32.9621C76.7304 35.3948 73.4969 40.2039 70.2725 45.0131C66.6422 50.424 63.0077 55.8303 56.2747 57.8606L41.226 41.4646L39.7296 39.8342ZM58.8894 38.8549C60.8761 41.0195 63.7924 41.1431 65.3817 39.6844C66.9711 38.2256 67.0974 35.3095 65.1106 33.1449C63.1239 30.9802 60.2076 30.8566 58.6183 32.3154C57.0289 33.7741 56.9026 36.6902 58.8894 38.8549ZM57.2656 30.8416C59.968 28.3613 64.1719 29 66.666 31.7173C69.16 34.4347 69.4368 38.6779 66.7344 41.1582C64.032 43.6385 59.8281 42.9997 57.334 40.2824C54.84 37.5651 54.5632 33.3218 57.2656 30.8416Z" fill="#00BFFF"/>
</svg>
