<svg width="84" height="60" viewBox="0 0 84 60" fill="none" xmlns="http://www.w3.org/2000/svg">
<path d="M17.1242 6.41484C18.2383 4.30352 20.4574 2.875 23 2.875C25.5426 2.875 27.7617 4.30352 28.8758 6.41484C29.1992 7.02578 29.909 7.32227 30.5648 7.11562C32.8469 6.41484 35.4254 6.97187 37.2223 8.76875C39.0191 10.5656 39.5762 13.1441 38.8754 15.4262C38.6688 16.082 38.9652 16.7918 39.5762 17.1152C41.6965 18.2383 43.125 20.4574 43.125 23C43.125 25.5426 41.6965 27.7617 39.5852 28.8758C38.9742 29.1992 38.6777 29.909 38.8844 30.5648C39.5852 32.8469 39.0281 35.4254 37.2313 37.2223C35.4344 39.0191 32.8559 39.5762 30.5738 38.8754C29.918 38.6688 29.2082 38.9652 28.8848 39.5762C27.7617 41.6965 25.5426 43.125 23 43.125C20.4574 43.125 18.2383 41.6965 17.1242 39.5852C16.8008 38.9742 16.091 38.6777 15.4352 38.8844C13.1531 39.5852 10.5746 39.0281 8.77773 37.2313C6.98086 35.4344 6.42383 32.8559 7.12461 30.5738C7.33125 29.918 7.03477 29.2082 6.42383 28.8848C4.30352 27.7617 2.875 25.5426 2.875 23C2.875 20.4574 4.30352 18.2383 6.41484 17.1242C7.02578 16.8008 7.32227 16.091 7.11562 15.4352C6.41484 13.1531 6.97187 10.5746 8.76875 8.77773C10.5656 6.98086 13.1441 6.42383 15.4262 7.12461C16.082 7.33125 16.7918 7.03477 17.1152 6.42383L17.1242 6.41484ZM23 0C19.7566 0 16.8906 1.62617 15.1746 4.09687C12.2098 3.55781 9.03828 4.43828 6.73828 6.73828C4.43828 9.03828 3.5668 12.2098 4.09687 15.1746C1.62617 16.8906 0 19.7566 0 23C0 26.2434 1.62617 29.1094 4.09687 30.8254C3.55781 33.7902 4.43828 36.9617 6.73828 39.2617C9.03828 41.5617 12.2098 42.4332 15.1746 41.9031C16.8906 44.3738 19.7566 46 23 46C26.2434 46 29.1094 44.3738 30.8254 41.9031C33.7902 42.4422 36.9617 41.5617 39.2617 39.2617C41.5617 36.9617 42.4332 33.7902 41.9031 30.8254C44.3738 29.1094 46 26.2434 46 23C46 19.7566 44.3738 16.8906 41.9031 15.1746C42.4422 12.2098 41.5617 9.03828 39.2617 6.73828C36.9617 4.43828 33.7902 3.5668 30.8254 4.09687C29.1094 1.62617 26.2434 0 23 0ZM32.6402 18.2652C33.1973 17.7082 33.1973 16.7918 32.6402 16.2348C32.0832 15.6777 31.1668 15.6777 30.6098 16.2348L20.125 26.7195L15.3902 21.9848C14.8332 21.4277 13.9168 21.4277 13.3598 21.9848C12.8027 22.5418 12.8027 23.4582 13.3598 24.0152L19.1098 29.7652C19.6668 30.3223 20.5832 30.3223 21.1402 29.7652L32.6402 18.2652Z" fill="#666666"/>
<path d="M71.9066 21.7027C71.9066 21.1681 72.1189 20.6555 72.497 20.2775C72.875 19.8996 73.3877 19.6872 73.9223 19.6872C74.4569 19.6872 74.9697 19.8996 75.3477 20.2775C75.7257 20.6555 75.9381 21.1681 75.9381 21.7027C75.9381 22.2372 75.7257 22.7498 75.3477 23.1278C74.9697 23.5058 74.4569 23.7181 73.9223 23.7181C73.3877 23.7181 72.875 23.5058 72.497 23.1278C72.1189 22.7498 71.9066 22.2372 71.9066 21.7027ZM78.6258 21.7027C78.6258 20.4554 78.1302 19.2593 77.2482 18.3774C76.3661 17.4955 75.1698 17 73.9223 17C72.6749 17 71.4786 17.4955 70.5965 18.3774C69.7144 19.2593 69.2189 20.4554 69.2189 21.7027C69.2189 22.9499 69.7144 24.146 70.5965 25.028C71.4786 25.9099 72.6749 26.4053 73.9223 26.4053C75.1698 26.4053 76.3661 25.9099 77.2482 25.028C78.1302 24.146 78.6258 22.9499 78.6258 21.7027ZM67.0015 31.4691C67.1107 31.4103 67.2199 31.3515 67.3291 31.3011L65.095 38.4391C64.6162 39.9675 65.095 41.6386 66.3044 42.6883L74.7538 50.0026L77.3323 59.0217C77.5339 59.7355 78.2814 60.147 78.9953 59.9454C79.7093 59.7439 80.1208 58.9965 79.9192 58.2827L77.3407 49.2636C77.198 48.7598 76.9124 48.3147 76.5176 47.9704L72.8557 44.7961L76.0305 35.6259L76.7696 37.8429C77.2399 39.2621 78.1722 40.4797 79.4153 41.3111L81.9098 42.9738C82.5313 43.3853 83.3628 43.2174 83.7744 42.6043C84.1859 41.9913 84.018 41.1516 83.4048 40.7401L80.9103 39.0773C80.1628 38.5819 79.6085 37.8513 79.3229 36.9947L77.8867 32.6784C76.904 29.7392 74.1491 27.749 71.0499 27.749C69.1937 27.749 67.3627 28.2192 65.7249 29.1094L64.6582 29.6888C61.6934 31.3095 59.5348 34.0892 58.7201 37.3726L58.5185 38.1704C58.3422 38.8926 58.7789 39.6232 59.4928 39.7995C60.2067 39.9759 60.9459 39.5392 61.1222 38.8254L61.3238 38.0192C61.9621 35.4664 63.6335 33.2998 65.9433 32.0401L67.0099 31.4607L67.0015 31.4691ZM67.6651 39.2369L70.4115 30.4614C70.6215 30.4446 70.8315 30.4362 71.0415 30.4362C72.3769 30.4362 73.6032 31.024 74.4515 31.9813L70.6719 42.8983L68.0766 40.6477C67.6735 40.295 67.5139 39.7408 67.6735 39.2285L67.6651 39.2369ZM67.1275 46.7024C66.464 46.3665 65.6577 46.6436 65.3217 47.307L62.7348 52.4883L57.5107 57.7117C56.9899 58.2323 56.9899 59.0889 57.5107 59.6095C58.0314 60.1302 58.8881 60.1302 59.4088 59.6095L64.633 54.3862C64.8346 54.1847 65.011 53.9495 65.137 53.6892L67.7239 48.5079C68.0598 47.8445 67.7826 47.0383 67.1191 46.7024H67.1275ZM59.1653 41.3783C58.5353 40.992 57.7038 41.1935 57.3175 41.8234L55.2009 45.3C55.1505 45.2664 55.1085 45.2412 55.0581 45.2076L50.4051 42.5288C49.12 41.7898 47.4738 42.2264 46.7347 43.5113L41.3593 52.8242C40.6202 54.1091 41.057 55.755 42.342 56.494L46.9951 59.1812C48.2801 59.9202 49.9263 59.4836 50.6655 58.1987L53.7143 52.9166L59.6104 43.2342C59.9968 42.6043 59.7952 41.773 59.1653 41.3867V41.3783ZM48.2213 56.7795L43.6859 54.1679L49.0612 44.8549L53.7143 47.5421L51.4046 51.5394L48.2129 56.7795H48.2213Z" fill="#00BFFF"/>
</svg>
