<svg width="80" height="58" viewBox="0 0 80 58" fill="none" xmlns="http://www.w3.org/2000/svg">
<path fill-rule="evenodd" clip-rule="evenodd" d="M35.5 6.42143V37.9643C35.5 39.4015 34.9283 40.7815 33.913 41.7987C32.8957 42.814 31.5157 43.3857 30.0786 43.3857H6.42143C4.98426 43.3857 3.60426 42.814 2.587 41.7987C1.57171 40.7815 1 39.4015 1 37.9643V6.42143C1 4.98426 1.57171 3.60426 2.587 2.587C3.60426 1.57171 4.98426 1 6.42143 1H30.0786C31.5157 1 32.8957 1.57171 33.913 2.587C34.9283 3.60426 35.5 4.98426 35.5 6.42143ZM32.5429 6.42143C32.5429 5.76691 32.2826 5.14197 31.8213 4.67869C31.358 4.21737 30.7331 3.95714 30.0786 3.95714H6.42143C5.76691 3.95714 5.14197 4.21737 4.67869 4.67869C4.21737 5.14197 3.95714 5.76691 3.95714 6.42143V37.9643C3.95714 38.6188 4.21737 39.2437 4.67869 39.707C5.14197 40.1683 5.76691 40.4286 6.42143 40.4286H30.0786C30.7331 40.4286 31.358 40.1683 31.8213 39.707C32.2826 39.2437 32.5429 38.6188 32.5429 37.9643V6.42143Z" fill="#666666" stroke="#F5F5F5"/>
<path fill-rule="evenodd" clip-rule="evenodd" d="M27.6141 2.47857V6.42143C27.6141 8.3278 26.0685 9.87143 24.1641 9.87143H12.3356C10.4312 9.87143 8.88556 8.3278 8.88556 6.42143V2.47857C8.88556 1.6624 9.54796 1 10.3641 1H26.1356C26.9517 1 27.6141 1.6624 27.6141 2.47857ZM24.657 3.95714H11.8427V6.42143C11.8427 6.69349 12.0635 6.91429 12.3356 6.91429H24.1641C24.4362 6.91429 24.657 6.69349 24.657 6.42143V3.95714Z" fill="#666666" stroke="#F5F5F5"/>
<path fill-rule="evenodd" clip-rule="evenodd" d="M17.2642 17.7579C16.448 17.7579 15.7856 17.0955 15.7856 16.2794C15.7856 15.4632 16.448 14.8008 17.2642 14.8008H28.1071C28.9232 14.8008 29.5856 15.4632 29.5856 16.2794C29.5856 17.0955 28.9232 17.7579 28.1071 17.7579H17.2642Z" fill="#666666" stroke="#F5F5F5"/>
<path fill-rule="evenodd" clip-rule="evenodd" d="M17.2643 33.5294C16.4481 33.5294 15.7857 32.867 15.7857 32.0508C15.7857 31.2347 16.4481 30.5723 17.2643 30.5723H28.1071C28.9233 30.5723 29.5857 31.2347 29.5857 32.0508C29.5857 32.867 28.9233 33.5294 28.1071 33.5294H17.2643Z" fill="#666666" stroke="#F5F5F5"/>
<path fill-rule="evenodd" clip-rule="evenodd" d="M8.39312 17.7579C7.57695 17.7579 6.91455 17.0955 6.91455 16.2794C6.91455 15.4632 7.57695 14.8008 8.39312 14.8008H10.3646C11.1807 14.8008 11.8431 15.4632 11.8431 16.2794C11.8431 17.0955 11.1807 17.7579 10.3646 17.7579H8.39312Z" fill="#666666" stroke="#F5F5F5"/>
<path fill-rule="evenodd" clip-rule="evenodd" d="M8.39294 33.5294C7.57677 33.5294 6.91437 32.867 6.91437 32.0508C6.91437 31.2347 7.57677 30.5723 8.39294 30.5723H10.3644C11.1805 30.5723 11.8429 31.2347 11.8429 32.0508C11.8429 32.867 11.1805 33.5294 10.3644 33.5294H8.39294Z" fill="#666666" stroke="#F5F5F5"/>
<path fill-rule="evenodd" clip-rule="evenodd" d="M17.2642 25.6427C16.448 25.6427 15.7856 24.9803 15.7856 24.1641C15.7856 23.3479 16.448 22.6855 17.2642 22.6855H28.1071C28.9232 22.6855 29.5856 23.3479 29.5856 24.1641C29.5856 24.9803 28.9232 25.6427 28.1071 25.6427H17.2642Z" fill="#666666" stroke="#F5F5F5"/>
<path fill-rule="evenodd" clip-rule="evenodd" d="M8.39312 25.6427C7.57695 25.6427 6.91455 24.9803 6.91455 24.1641C6.91455 23.3479 7.57695 22.6855 8.39312 22.6855H10.3646C11.1807 22.6855 11.8431 23.3479 11.8431 24.1641C11.8431 24.9803 11.1807 25.6427 10.3646 25.6427H8.39312Z" fill="#666666" stroke="#F5F5F5"/>
<path d="M53.75 17.4434C51.6797 17.4434 50 19.123 50 21.1934V22.4434H46.25C44.1797 22.4434 42.5 24.123 42.5 26.1934V35.9824L39.8984 36.8262C37.1797 37.7012 36.4062 41.1777 38.4844 43.1309L45.3906 49.6074C45.8906 50.0762 46.6875 50.0527 47.1562 49.5527C47.625 49.0527 47.6016 48.2559 47.1016 47.7871L40.1953 41.3027C39.5 40.6543 39.7578 39.498 40.6641 39.2012L56.25 34.1621V47.4434C56.25 48.1309 56.8125 48.6934 57.5 48.6934C58.1875 48.6934 58.75 48.1309 58.75 47.4434V34.1621L74.3359 39.2012C75.2422 39.498 75.5 40.6543 74.8047 41.3027L67.8984 47.7793C67.3984 48.248 67.3672 49.0449 67.8438 49.5449C68.3203 50.0449 69.1094 50.0762 69.6094 49.5996L76.5156 43.123C78.6016 41.1699 77.8203 37.7012 75.1016 36.8184L72.5 35.9824V26.1934C72.5 24.123 70.8203 22.4434 68.75 22.4434H65V21.1934C65 19.123 63.3203 17.4434 61.25 17.4434H53.75ZM62.5 22.4434H52.5V21.1934C52.5 20.5059 53.0625 19.9434 53.75 19.9434H61.25C61.9375 19.9434 62.5 20.5059 62.5 21.1934V22.4434ZM50 24.9434H51.25H63.75H65H68.75C69.4375 24.9434 70 25.5059 70 26.1934V35.1699L58.6562 31.5059C57.9062 31.2637 57.1016 31.2637 56.3438 31.5059L45 35.1699V26.1934C45 25.5059 45.5625 24.9434 46.25 24.9434H50ZM45.4531 53.2871C44.6953 52.7715 44.0469 52.1934 43.4297 51.5762C42.9141 51.0684 42.0859 51.0684 41.5703 51.5762C40.9531 52.1934 40.3125 52.7637 39.5469 53.2871C38.5469 53.9668 37.3516 54.584 36.1094 54.834C35.5 54.9512 35 55.4434 35 56.0527C35 56.8184 35.625 57.4512 36.3828 57.3184C38.1875 57.0059 39.7891 56.1465 40.9531 55.3496C41.5703 54.9277 42.0938 54.5059 42.5 54.1543C42.8984 54.5059 43.4297 54.9277 44.0469 55.3496C45.5 56.3418 47.6328 57.4434 50 57.4434C52.3672 57.4434 54.4922 56.3418 55.9531 55.3496C56.5703 54.9277 57.0938 54.5059 57.5 54.1543C57.8984 54.5059 58.4297 54.9277 59.0469 55.3496C60.5 56.3418 62.6328 57.4434 65 57.4434C67.3672 57.4434 69.4922 56.3418 70.9531 55.3496C71.5703 54.9277 72.0938 54.5059 72.5 54.1543C72.8984 54.5059 73.4297 54.9277 74.0469 55.3496C75.2188 56.1465 76.8125 57.0059 78.6172 57.3184C79.375 57.4512 80 56.8184 80 56.0527C80 55.4355 79.5 54.9512 78.8984 54.8262C77.6484 54.584 76.4531 53.959 75.4531 53.2793C74.6875 52.7559 74.0469 52.1855 73.4219 51.5684C72.9062 51.0605 72.0781 51.0605 71.5703 51.5684C70.9531 52.1855 70.3125 52.7559 69.5469 53.2793C68.25 54.1621 66.6328 54.9434 65 54.9434C63.3672 54.9434 61.7422 54.1699 60.4531 53.2871C59.6875 52.7637 59.0469 52.1934 58.4219 51.5762C57.9062 51.0684 57.0781 51.0684 56.5703 51.5762C55.9531 52.1934 55.3125 52.7637 54.5469 53.2871C53.25 54.1621 51.6328 54.9434 50 54.9434C48.3672 54.9434 46.7422 54.1699 45.4531 53.2871Z" fill="#00BFFF"/>
</svg>
