<svg width="30" height="30" viewBox="0 0 30 30" fill="none" xmlns="http://www.w3.org/2000/svg">
<circle cx="15" cy="15" r="15" fill="white"/>
<path fill-rule="evenodd" clip-rule="evenodd" d="M15 6C12.5556 6 12.2496 6.0102 11.2896 6.054C10.3314 6.0978 9.6768 6.2502 9.1044 6.4728C8.5044 6.6984 7.9602 7.0524 7.5102 7.5108C7.05253 7.96028 6.69831 8.5041 6.4722 9.1044C6.2508 9.6768 6.0978 10.332 6.054 11.2902C6.0108 12.2496 6 12.555 6 15C6 17.445 6.0102 17.7504 6.054 18.7104C6.0978 19.6686 6.2502 20.3232 6.4728 20.8956C6.6984 21.4956 7.0524 22.0398 7.5108 22.4898C7.96029 22.9475 8.50411 23.3017 9.1044 23.5278C9.6768 23.7498 10.3314 23.9022 11.2896 23.946C12.2496 23.9898 12.5556 24 15 24C17.4444 24 17.7504 23.9898 18.7104 23.946C19.6686 23.9022 20.3232 23.7498 20.8956 23.5272C21.4956 23.3016 22.0398 22.9476 22.4898 22.4892C22.9475 22.0397 23.3017 21.4959 23.5278 20.8956C23.7498 20.3232 23.9022 19.6686 23.946 18.7104C23.9898 17.7504 24 17.4444 24 15C24 12.5556 23.9898 12.2496 23.946 11.2896C23.9022 10.3314 23.7498 9.6768 23.5272 9.1044C23.3012 8.50384 22.947 7.95979 22.4892 7.5102C22.0397 7.05253 21.4959 6.69831 20.8956 6.4722C20.3232 6.2508 19.668 6.0978 18.7098 6.054C17.7504 6.0108 17.445 6 15 6ZM15 7.6218C17.403 7.6218 17.688 7.6308 18.6372 7.674C19.5144 7.7142 19.9908 7.86 20.3082 7.9842C20.7282 8.1468 21.0282 8.3424 21.3432 8.6568C21.6582 8.9718 21.8532 9.2718 22.0158 9.6918C22.1394 10.0092 22.2858 10.4856 22.326 11.3628C22.3692 12.312 22.3782 12.597 22.3782 15C22.3782 17.403 22.3692 17.688 22.326 18.6372C22.2858 19.5144 22.14 19.9908 22.0158 20.3082C21.8718 20.6991 21.6419 21.0528 21.3432 21.3432C21.0528 21.642 20.6992 21.8718 20.3082 22.0158C19.9908 22.1394 19.5144 22.2858 18.6372 22.326C17.688 22.3692 17.4036 22.3782 15 22.3782C12.5964 22.3782 12.312 22.3692 11.3628 22.326C10.4856 22.2858 10.0092 22.14 9.6918 22.0158C9.30087 21.8718 8.9472 21.6419 8.6568 21.3432C8.35811 21.0528 8.12828 20.6991 7.9842 20.3082C7.8606 19.9908 7.7142 19.5144 7.674 18.6372C7.6308 17.688 7.6218 17.403 7.6218 15C7.6218 12.597 7.6308 12.312 7.674 11.3628C7.7142 10.4856 7.86 10.0092 7.9842 9.6918C8.1468 9.2718 8.3424 8.9718 8.6568 8.6568C8.94716 8.35803 9.30085 8.12819 9.6918 7.9842C10.0092 7.8606 10.4856 7.7142 11.3628 7.674C12.312 7.6308 12.597 7.6218 15 7.6218Z" fill="#666666"/>
<path fill-rule="evenodd" clip-rule="evenodd" d="M14.999 18.0038C14.6047 18.0038 14.2142 17.9261 13.8498 17.7752C13.4855 17.6243 13.1545 17.4031 12.8756 17.1242C12.5968 16.8454 12.3756 16.5143 12.2246 16.15C12.0737 15.7856 11.996 15.3951 11.996 15.0008C11.996 14.6064 12.0737 14.2159 12.2246 13.8516C12.3756 13.4872 12.5968 13.1562 12.8756 12.8773C13.1545 12.5985 13.4855 12.3773 13.8498 12.2264C14.2142 12.0754 14.6047 11.9978 14.999 11.9978C15.7955 11.9978 16.5593 12.3142 17.1225 12.8773C17.6857 13.4405 18.002 14.2043 18.002 15.0008C18.002 15.7972 17.6857 16.561 17.1225 17.1242C16.5593 17.6874 15.7955 18.0038 14.999 18.0038ZM14.999 10.3748C13.7722 10.3748 12.5955 10.8621 11.728 11.7297C10.8604 12.5972 10.373 13.7739 10.373 15.0008C10.373 16.2277 10.8604 17.4043 11.728 18.2718C12.5955 19.1394 13.7722 19.6268 14.999 19.6268C16.2259 19.6268 17.4026 19.1394 18.2701 18.2718C19.1377 17.4043 19.625 16.2277 19.625 15.0008C19.625 13.7739 19.1377 12.5972 18.2701 11.7297C17.4026 10.8621 16.2259 10.3748 14.999 10.3748ZM20.9708 10.2908C20.9708 10.5808 20.8556 10.8589 20.6506 11.064C20.4455 11.2691 20.1674 11.3843 19.8773 11.3843C19.5873 11.3843 19.3092 11.2691 19.1041 11.064C18.8991 10.8589 18.7838 10.5808 18.7838 10.2908C18.7838 10.0008 18.8991 9.72262 19.1041 9.51754C19.3092 9.31247 19.5873 9.19727 19.8773 9.19727C20.1674 9.19727 20.4455 9.31247 20.6506 9.51754C20.8556 9.72262 20.9708 10.0008 20.9708 10.2908Z" fill="#666666"/>
</svg>
