<svg width="1440" height="264" viewBox="0 0 1440 264" fill="none" xmlns="http://www.w3.org/2000/svg">
<path opacity="0.1" d="M1299.67 223.614C1451.26 178.689 1558.82 87.2454 1598.76 -30.6672C1629.83 -124.652 1609.05 -242.013 1505.07 -326.754C1453.2 -368.973 1380.47 -405.171 1362.18 -456.591C1344.59 -506.282 1387.07 -547.183 1392.92 -594.791C1398.76 -642.4 1366.7 -694.985 1318.05 -736.395C1269.4 -777.804 1206.04 -808.916 1140.99 -833.386C895.304 -925.943 617.651 -929.46 401.43 -862.266C227.921 -808.361 89.094 -709.83 21.7337 -581.123C-45.6267 -452.417 -38.6857 -293.706 50.5421 -147.803C113.334 -45.1667 293.237 91.1074 432.792 141.519C910.303 313.994 1154.58 265.874 1299.67 223.614Z" fill="#00BFFF"/>
</svg>
