<svg width="1113" height="414" viewBox="0 0 1113 414" fill="none" xmlns="http://www.w3.org/2000/svg">
<path opacity="0.1" d="M955.494 880.957C1071.14 773.137 1126.62 643.322 1109.79 519.971C1095.68 421.996 1024.73 326.221 893.875 296.749C828.619 282.096 747.383 282.133 708.074 244.27C670.17 207.639 689.95 152.085 673.951 106.866C657.951 61.6468 605.804 28.8798 543.79 13.5152C481.776 -1.84933 411.188 -1.43555 342.055 5.67422C80.8773 32.4068 -169.2 153.092 -332.757 309.666C-464.012 435.297 -544.323 585.403 -547.21 730.642C-550.098 875.881 -473.101 1014.84 -328.166 1105.63C-226.19 1169.49 -4.39328 1211.22 142.997 1194.1C647.309 1135.5 844.485 983.489 955.494 880.957Z" fill="#00BFFF"/>
</svg>
