<svg width="44" height="40" viewBox="0 0 44 40" fill="none" xmlns="http://www.w3.org/2000/svg">
<path d="M28.0042 12.1086C28.516 10.8665 28.7222 9.95249 28.7222 9.37441C28.7222 5.57777 25.7125 2.49984 22 2.49984C18.2875 2.49984 15.2778 5.57777 15.2778 9.37441C15.2778 9.95249 15.484 10.8587 15.9958 12.1086C16.4924 13.3117 17.1951 14.6397 18.0125 15.9912C19.3188 18.1629 20.8312 20.2643 22 21.8033C23.1687 20.2643 24.6813 18.1629 25.9875 15.9912C26.8049 14.6397 27.5076 13.3117 28.0042 12.1086ZM23.1306 24.3735C22.5424 25.1234 21.45 25.1234 20.8694 24.3735C18.4174 21.2408 12.8333 13.6398 12.8333 9.37441C12.8333 4.19505 16.9354 0 22 0C27.0646 0 31.1667 4.19505 31.1667 9.37441C31.1667 13.6398 25.5826 21.2408 23.1306 24.3735ZM31.0062 17.413C30.9451 17.4364 30.8764 17.4598 30.8153 17.4755C31.4417 16.3661 32.0146 15.2334 32.4806 14.1241L41.4868 10.4368C42.6937 9.94468 44 10.8509 44 12.1789V33.326C44 34.0916 43.5417 34.779 42.8465 35.0681L31.0062 39.9115C30.7542 40.0131 30.4792 40.0287 30.2194 39.9506L13.5132 35.0681L2.51319 39.5678C1.30625 40.06 0 39.1538 0 37.8257V16.6708C0 15.9052 0.458333 15.2178 1.15347 14.9287L10.5646 11.0774C10.725 11.8899 10.9771 12.7023 11.2674 13.4835L2.44444 17.0927V36.9039L12.2222 32.9042V23.7485C12.2222 23.061 12.7722 22.4986 13.4444 22.4986C14.1167 22.4986 14.6667 23.061 14.6667 23.7485V32.8026L29.3333 37.0914V23.7485C29.3333 23.061 29.8833 22.4986 30.5556 22.4986C31.2278 22.4986 31.7778 23.061 31.7778 23.7485V36.9039L41.5556 32.9042V13.0929L31.0062 17.413ZM22 6.87456C22.2408 6.87456 22.4792 6.92306 22.7016 7.01728C22.924 7.1115 23.1261 7.24961 23.2964 7.4237C23.4666 7.5978 23.6016 7.80449 23.6938 8.03196C23.7859 8.25943 23.8333 8.50323 23.8333 8.74945C23.8333 8.99566 23.7859 9.23946 23.6938 9.46693C23.6016 9.6944 23.4666 9.90109 23.2964 10.0752C23.1261 10.2493 22.924 10.3874 22.7016 10.4816C22.4792 10.5758 22.2408 10.6243 22 10.6243C21.7592 10.6243 21.5208 10.5758 21.2984 10.4816C21.076 10.3874 20.8739 10.2493 20.7036 10.0752C20.5334 9.90109 20.3984 9.6944 20.3062 9.46693C20.2141 9.23946 20.1667 8.99566 20.1667 8.74945C20.1667 8.50323 20.2141 8.25943 20.3062 8.03196C20.3984 7.80449 20.5334 7.5978 20.7036 7.4237C20.8739 7.24961 21.076 7.1115 21.2984 7.01728C21.5208 6.92306 21.7592 6.87456 22 6.87456Z" fill="#00BFFF"/>
</svg>
