<svg width="284" height="40" viewBox="0 0 284 40" fill="none" xmlns="http://www.w3.org/2000/svg">
<g clip-path="url(#clip0_5_182)">
<path d="M108.283 20H78V0.5H117L108.283 20Z" fill="#3AC1E9"/>
<path d="M117 39.5H78V20H108.283L117 39.5Z" fill="#F15F61"/>
<path d="M39 0.5H0V39.5H39V0.5Z" fill="#3AC1E9"/>
<path d="M25.6148 13.8828H13.3828V26.1148H25.6148V13.8828Z" fill="#F5F5F5"/>
<path d="M78 0.5H39V39.5H78V0.5Z" fill="#FEDE00"/>
<path d="M58.5006 26.9426C62.3356 26.9426 65.4445 23.8337 65.4445 19.9986C65.4445 16.1636 62.3356 13.0547 58.5006 13.0547C54.6655 13.0547 51.5566 16.1636 51.5566 19.9986C51.5566 23.8337 54.6655 26.9426 58.5006 26.9426Z" fill="#333333"/>
</g>
<g clip-path="url(#clip1_5_182)">
<path d="M135 22.6045H138.346C138.362 24.2682 139.611 25.31 141.816 25.31C143.636 25.31 144.715 24.5792 144.715 23.3664C144.715 21.9203 143.173 21.6093 141.369 21.345C138.717 20.9563 135.154 20.4898 135.154 16.8202C135.154 13.897 137.545 12 141.384 12C145.224 12 147.769 14.0836 147.769 17.2711H144.53C144.546 15.6229 143.374 14.69 141.461 14.69C139.688 14.69 138.639 15.4363 138.639 16.5714C138.639 18.0486 140.336 18.2974 142.233 18.5773C144.885 18.9815 148.201 19.5569 148.201 23.1642C148.201 26.103 145.687 28 141.677 28C137.668 28 135.015 25.8542 135 22.6045Z" fill="#333333"/>
<path d="M150.082 27.5957L155.186 12.4043H160.26L165.318 27.5957H161.756L160.831 24.8902H154.57L153.644 27.5957H150.082ZM155.325 22.278H160.06L157.823 15.4364H157.608L155.325 22.278Z" fill="#333333"/>
<path d="M168.279 27.5957V12.4043H171.795V27.5957H168.279Z" fill="#333333"/>
<path d="M175.928 27.5957V12.4043H179.444V24.5637H186.322V27.5957H175.928Z" fill="#333333"/>
<path d="M195.729 27.5957V12.4043H199.245V27.5957H195.729Z" fill="#333333"/>
<path d="M206.847 27.5957V15.3431H202.051V12.4043H215.174V15.3431H210.378V27.5957H206.862H206.847Z" fill="#333333"/>
<path d="M224.242 27.5957V12.4043H235.345V15.2653H227.666V18.6084H234.775V21.1118H227.666V24.7347H235.561V27.5957H224.242Z" fill="#333333"/>
<path d="M237.812 27.5957L242.917 12.4043H247.991L253.049 27.5957H249.486L248.561 24.8902H242.3L241.375 27.5957H237.812ZM243.056 22.278H247.79L245.554 15.4364H245.338L243.056 22.278Z" fill="#333333"/>
<path d="M254.9 22.6045H258.247C258.262 24.2682 259.511 25.31 261.716 25.31C263.536 25.31 264.616 24.5792 264.616 23.3664C264.616 21.9203 263.073 21.6093 261.269 21.345C258.617 20.9563 255.054 20.4898 255.054 16.8202C255.054 13.897 257.445 12 261.3 12C265.155 12 267.684 14.0836 267.684 17.2711H264.446C264.461 15.6229 263.289 14.69 261.377 14.69C259.604 14.69 258.555 15.4363 258.555 16.5714C258.555 18.0486 260.251 18.2974 262.148 18.5773C264.801 18.9815 268.116 19.5569 268.116 23.1642C268.116 26.103 265.603 28 261.593 28C257.583 28 254.9 25.8387 254.885 22.6045H254.9Z" fill="#333333"/>
<path d="M275.24 27.5957V22.3091L269.904 12.4043H273.559L276.875 19.1526H277.091L280.283 12.4043H283.984L278.741 22.3091V27.5957H275.225H275.24Z" fill="#333333"/>
</g>
<defs>
<clipPath id="clip0_5_182">
<rect width="117" height="39" fill="white" transform="translate(0 0.5)"/>
</clipPath>
<clipPath id="clip1_5_182">
<rect width="149" height="16" fill="white" transform="translate(135 12)"/>
</clipPath>
</defs>
</svg>
