<svg width="45" height="35" viewBox="0 0 45 35" fill="none" xmlns="http://www.w3.org/2000/svg">
<path d="M14.2523 19.6883H24.75C25.9945 19.6883 27 18.7108 27 17.5008V4.37519C27 3.16518 25.9945 2.18759 24.75 2.18759H4.5C3.25547 2.18759 2.25 3.16518 2.25 4.37519V17.5008C2.25 18.7108 3.25547 19.6883 4.5 19.6883H6.75C7.99453 19.6883 9 20.6659 9 21.8759V22.9697L12.9023 20.1259C13.2891 19.8387 13.7672 19.6883 14.2523 19.6883ZM24.75 21.8759H14.2523L8.55 26.0324C8.2125 26.2785 7.75547 26.3195 7.36875 26.1349C6.98203 25.9503 6.75 25.5743 6.75 25.1573V24.0635V21.8759H4.5C2.01797 21.8759 0 19.9139 0 17.5008V4.37519C0 1.962 2.01797 0 4.5 0H24.75C27.232 0 29.25 1.962 29.25 4.37519V17.5008C29.25 19.9139 27.232 21.8759 24.75 21.8759ZM22.5 30.6263C20.018 30.6263 18 28.6643 18 26.2511V24.0635H20.25V26.2511C20.25 27.4611 21.2555 28.4387 22.5 28.4387H30.7477C31.2328 28.4387 31.7109 28.5891 32.0977 28.8762L36 31.7201V30.6263C36 29.4163 37.0055 28.4387 38.25 28.4387H40.5C41.7445 28.4387 42.75 27.4611 42.75 26.2511V13.1256C42.75 11.9156 41.7445 10.938 40.5 10.938H31.5V8.75038H40.5C42.982 8.75038 45 10.7124 45 13.1256V26.2511C45 28.6643 42.982 30.6263 40.5 30.6263H38.25V32.8139V33.9077C38.25 34.3247 38.0109 34.7007 37.6313 34.8853C37.2516 35.0699 36.7945 35.0289 36.45 34.7827L30.7477 30.6263H22.5Z" fill="#666666"/>
</svg>
