<svg width="360" height="832" viewBox="0 0 360 832" fill="none" xmlns="http://www.w3.org/2000/svg">
<path opacity="0.1" d="M810.605 803.114C918.084 771.262 994.343 706.429 1022.66 622.829C1044.69 556.194 1029.96 472.984 956.236 412.903C919.46 382.97 867.897 357.306 854.925 320.849C842.455 285.618 872.574 256.619 876.72 222.865C880.866 189.111 858.135 151.828 823.641 122.468C789.147 93.1088 744.222 71.0506 698.104 53.7016C523.913 -11.9216 327.057 -14.4148 173.757 33.2256C50.7386 71.4439 -47.6898 141.303 -95.4482 232.556C-143.207 323.808 -138.286 436.334 -75.0231 539.78C-30.5039 612.549 97.0473 709.167 195.992 744.909C534.547 867.193 707.739 833.076 810.605 803.114Z" fill="#00BFFF"/>
</svg>
