<svg width="73" height="24" viewBox="0 0 73 24" fill="none" xmlns="http://www.w3.org/2000/svg">
<g clip-path="url(#clip0_1634_19853)">
<path d="M67.5603 12H48.666V0H72.9993L67.5603 12Z" fill="#3AC1E9"/>
<path d="M72.9993 24H48.666V12H67.5603L72.9993 24Z" fill="#F15F61"/>
<path d="M24.3333 0H0V24H24.3333V0Z" fill="#3AC1E9"/>
<path d="M15.9815 8.23438H8.34961V15.7618H15.9815V8.23438Z" fill="#F5F5F5"/>
<path d="M48.6673 0H24.334V24H48.6673V0Z" fill="#FEDE00"/>
<path d="M36.5005 16.2729C38.8933 16.2729 40.8331 14.3598 40.8331 11.9998C40.8331 9.63974 38.8933 7.72656 36.5005 7.72656C34.1077 7.72656 32.168 9.63974 32.168 11.9998C32.168 14.3598 34.1077 16.2729 36.5005 16.2729Z" fill="#333333"/>
</g>
<defs>
<clipPath id="clip0_1634_19853">
<rect width="73" height="24" fill="white"/>
</clipPath>
</defs>
</svg>
