<svg width="77" height="65" viewBox="0 0 77 65" fill="none" xmlns="http://www.w3.org/2000/svg">
<rect x="0.25" y="0.25" width="76.5" height="64.5" rx="9.75" fill="white" stroke="#CCCCCC" stroke-width="0.5"/>
<g clip-path="url(#clip0_39_25)">
<path d="M22.3358 29.5207C22.7998 29.5207 23.2639 29.5207 23.7264 29.5207C24.0549 29.5207 24.3833 29.5127 24.7133 29.5127C26.5393 29.5153 28.3669 29.5193 30.193 29.5233C30.8605 29.5233 31.5264 29.5233 32.1939 29.5233C32.4605 29.5233 32.7257 29.5127 32.9924 29.514C33.1235 29.514 33.2229 29.466 33.3238 29.398C33.479 29.2941 33.6463 29.2008 33.806 29.1021C33.9582 29.0075 34.1088 28.9088 34.261 28.8142C34.3529 28.7569 34.4463 28.7036 34.5397 28.6489C34.6979 28.5556 34.8576 28.465 35.0143 28.369C35.1514 28.285 35.2855 28.1944 35.4211 28.1091C35.4663 28.0797 35.5145 28.0557 35.5612 28.0277C35.6095 27.9984 35.6577 27.9678 35.7059 27.9384C35.7586 27.9064 35.8144 27.8745 35.8671 27.8411C35.9364 27.7985 36.0027 27.7518 36.072 27.7105C36.2166 27.6239 36.3643 27.5425 36.5074 27.4546C36.6656 27.3573 36.8178 27.2533 36.9745 27.1546C37.0649 27.0973 37.1568 27.04 37.2502 26.9854C37.4009 26.8974 37.5561 26.8161 37.7052 26.7254C37.8634 26.6295 38.0156 26.5241 38.1723 26.4268C38.3094 26.3415 38.4525 26.2629 38.5896 26.1776C38.7433 26.0829 38.891 25.983 39.0447 25.8896C39.1833 25.8057 39.3249 25.727 39.4665 25.647C39.4951 25.6311 39.5268 25.6191 39.5554 25.6017C39.7437 25.4858 39.9321 25.3685 40.1204 25.2512C40.2515 25.1685 40.3811 25.0819 40.5136 25.0006C40.6703 24.9046 40.8285 24.8139 40.9867 24.7193C41.0756 24.666 41.1645 24.6087 41.2519 24.5527C41.4116 24.4514 41.5638 24.3434 41.731 24.2528C41.9495 24.1328 42.1424 23.9728 42.3955 23.9022C42.4271 23.8928 42.4633 23.8928 42.4979 23.8928C43.1398 23.8928 43.7831 23.8982 44.4249 23.8942C44.5997 23.8942 44.7519 23.8502 44.8769 23.7156C45.0306 23.5503 45.2205 23.4116 45.3937 23.261C45.4841 23.1824 45.5715 23.0997 45.6604 23.0184C45.7629 22.9264 45.8668 22.8358 45.9708 22.7438C46.0808 22.6465 46.1893 22.5479 46.3007 22.4519C46.4559 22.3173 46.6126 22.1826 46.7738 22.0533C46.804 22.0293 46.8597 22.0187 46.9049 22.0187C47.259 22.0107 47.6115 22.0067 47.9656 22.0027C48.0696 22.0027 48.1163 22.0493 48.1238 22.1413C48.1374 22.3319 48.0545 22.5052 47.9942 22.6825C47.9882 22.7012 47.9762 22.7185 47.9731 22.7372C47.9249 23.0477 47.8044 23.3437 47.7155 23.6449C47.6703 23.7995 47.7592 23.8928 47.94 23.8928C49.3126 23.8928 50.6851 23.8928 52.0577 23.8928C52.1135 23.8928 52.1707 23.8902 52.2265 23.8955C52.3831 23.9102 52.4389 23.9555 52.4419 24.0955C52.4464 24.2994 52.4389 24.5047 52.4374 24.7086C52.4374 24.7833 52.4374 24.8579 52.4419 24.9326C52.4494 25.0485 52.4118 25.0939 52.2837 25.1019C52.1692 25.1085 52.0532 25.1085 51.9372 25.1085C51.4852 25.1085 51.0347 25.1085 50.5827 25.1085C50.432 25.1085 50.3868 25.1365 50.3552 25.2671C50.3371 25.3458 50.3235 25.4258 50.3235 25.5058C50.3205 25.9203 50.3205 26.3349 50.3235 26.7494C50.3235 26.7947 50.3311 26.8454 50.3522 26.8854C50.4034 26.9867 50.4863 27.0413 50.6249 27.036C50.9157 27.024 51.2064 27.024 51.4972 27.0173C51.5982 27.0147 51.7293 27.1227 51.7293 27.22C51.7293 27.4279 51.7217 27.6345 51.7202 27.8425C51.7202 27.8998 51.7262 27.9584 51.7293 28.0157C51.7368 28.153 51.6313 28.245 51.4776 28.2424C51.1869 28.237 50.8961 28.233 50.6053 28.2304C50.4396 28.229 50.3944 28.257 50.3507 28.3983C50.3326 28.4556 50.3235 28.5183 50.3235 28.5783C50.325 29.1128 50.3311 29.6473 50.3341 30.1818C50.3341 30.3231 50.3296 30.4631 50.3356 30.6044C50.3416 30.7204 50.4064 30.771 50.5405 30.7723C50.7002 30.7737 50.8599 30.7723 51.0196 30.7723C51.8001 30.7723 52.5805 30.7697 53.361 30.7723C53.5357 30.7723 53.6322 30.879 53.709 31.003C53.7422 31.0549 53.7828 31.1043 53.819 31.1549C53.8446 31.1896 53.8702 31.2242 53.8943 31.2589C53.9501 31.3375 54.0058 31.4175 54.0616 31.4962C54.1249 31.5841 54.1896 31.6721 54.2514 31.7601C54.3493 31.9027 54.4428 32.0493 54.5437 32.192C54.6462 32.3373 54.7531 32.4772 54.8586 32.6212C54.8887 32.6625 54.9143 32.7078 54.9445 32.7492C55.0605 32.9078 55.178 33.0664 55.294 33.225C55.2985 33.2317 55.3061 33.2384 55.3106 33.245C55.407 33.3956 55.5004 33.5476 55.6029 33.6956C55.6993 33.8355 55.8063 33.9715 55.9087 34.1088C55.9223 34.1275 55.9419 34.1448 55.9479 34.1648C55.9916 34.3034 56.0926 34.402 56.2206 34.482C56.2553 34.5034 56.2975 34.5247 56.3366 34.5273C56.4647 34.5367 56.5928 34.542 56.7208 34.5393C57.0312 34.5327 57.3401 34.5167 57.6504 34.5153C57.7303 34.5153 57.8147 34.5433 57.887 34.5767C57.9593 34.61 57.9849 34.6726 57.9789 34.7526C57.9699 34.8793 57.9789 35.0059 57.9849 35.1339C57.991 35.2805 57.9985 35.4258 58.0045 35.5724C58.0075 35.6364 57.9563 35.6617 57.8975 35.6844C57.771 35.7324 57.6414 35.7284 57.5103 35.7124C57.4094 35.7004 57.3084 35.6964 57.2241 35.759C57.206 35.7723 57.1774 35.795 57.1804 35.807C57.2045 35.903 57.1954 36.0056 57.2798 36.0869C57.3356 36.1402 57.3777 36.2069 57.4244 36.2669C57.4651 36.3189 57.5058 36.3709 57.548 36.4228C57.554 36.4295 57.5616 36.4348 57.5676 36.4415C57.6595 36.5695 57.7544 36.6948 57.8403 36.8241C57.8885 36.896 57.8388 36.9774 57.7454 36.9934C57.7062 37 57.664 36.9987 57.6233 36.9987C57.0659 36.9947 56.5084 36.9894 55.9509 36.988C55.3468 36.9867 54.7426 36.9867 54.1384 36.988C53.7753 36.988 53.4122 36.9974 53.0476 36.9974C49.3532 36.9987 45.6589 37 41.9646 37C37.1824 37 32.4003 37 27.6181 36.9974C27.3213 36.9974 27.023 36.984 26.7277 36.964C26.6358 36.9574 26.5454 36.9094 26.4565 36.8774C26.3706 36.8467 26.2862 36.8121 26.2003 36.7801C26.1883 36.7761 26.1747 36.7761 26.1642 36.7707C25.9668 36.6828 25.7709 36.5961 25.5751 36.5068C25.5555 36.4975 25.5404 36.4815 25.5223 36.4735C25.337 36.3895 25.1517 36.3055 24.9664 36.2229C24.9498 36.2149 24.9302 36.2109 24.9152 36.2016C24.7585 36.1123 24.6033 36.0216 24.4466 35.9323C24.4104 35.911 24.3682 35.899 24.3306 35.8777C24.2552 35.835 24.1814 35.7897 24.1076 35.7457C24.094 35.7377 24.085 35.7257 24.0714 35.719C23.9313 35.6417 23.7912 35.5644 23.6526 35.4871C23.6315 35.4751 23.6089 35.4658 23.5893 35.4511C23.4718 35.3618 23.3588 35.2685 23.2382 35.1832C23.1192 35.0992 22.9911 35.0245 22.8706 34.9419C22.7245 34.8419 22.5828 34.738 22.4412 34.6353C22.3282 34.554 22.2137 34.474 22.1098 34.3847C22.0103 34.3007 21.9214 34.2061 21.828 34.1155C21.7466 34.0368 21.6623 33.9595 21.5824 33.8795C21.4604 33.7596 21.3414 33.6382 21.2208 33.5156C21.0988 33.3903 20.9737 33.2663 20.8562 33.1384C20.7583 33.0304 20.6664 32.9158 20.576 32.8025C20.4615 32.6612 20.347 32.5212 20.24 32.3759C20.1496 32.2506 20.0667 32.1213 19.9884 31.9894C19.8648 31.7801 19.7473 31.5681 19.6283 31.3562C19.6057 31.3149 19.5951 31.2669 19.5755 31.2229C19.5303 31.1229 19.4836 31.0243 19.4369 30.9243C19.4219 30.891 19.3932 30.8603 19.3872 30.8257C19.3405 30.5257 19.1356 30.2631 19.1175 29.9552C19.1145 29.9086 19.0753 29.8646 19.0542 29.8193C19.0407 29.7913 19.0196 29.7646 19.0166 29.7366C18.9894 29.5447 19.0226 29.5113 19.2606 29.51C19.5921 29.5074 19.9251 29.51 20.2566 29.51C20.9526 29.51 21.6487 29.51 22.3433 29.51C22.3433 29.5127 22.3433 29.5153 22.3433 29.518L22.3358 29.5207ZM30.0996 35.7883C31.1588 35.7883 32.218 35.7883 33.2756 35.7883C35.4844 35.7883 37.6947 35.7883 39.9035 35.7883C40.5995 35.7883 41.2941 35.7817 41.9902 35.7803C42.3653 35.7803 42.742 35.7883 43.1172 35.7883C45.7493 35.7883 48.3814 35.7843 51.0136 35.783C51.6554 35.783 52.2973 35.787 52.9391 35.7883C53.1546 35.7883 53.3715 35.7803 53.587 35.779C54.1068 35.7763 54.6266 35.775 55.1464 35.7723C55.1675 35.7723 55.1976 35.7723 55.2097 35.763C55.2564 35.7217 55.3061 35.679 55.3362 35.6284C55.3452 35.6137 55.294 35.5724 55.2699 35.5417C55.2368 35.4991 55.2036 35.4551 55.1735 35.4111C55.1343 35.3551 55.0982 35.2978 55.059 35.2418C54.9626 35.1045 54.8646 34.9672 54.7682 34.8299C54.6748 34.6966 54.5859 34.5607 54.491 34.4287C54.381 34.2754 54.2635 34.1275 54.1535 33.9742C54.054 33.8342 53.9621 33.6902 53.8657 33.5503C53.8476 33.5249 53.8205 33.505 53.7979 33.481C53.7783 33.4596 53.7602 33.437 53.7452 33.413C53.6924 33.3357 53.6397 33.2584 53.5885 33.1797C53.5583 33.1344 53.5312 33.0877 53.5026 33.0424C53.483 33.0117 53.4634 32.9798 53.4423 32.9504C53.3986 32.8904 53.3504 32.8331 53.3067 32.7731C53.2028 32.6279 53.0988 32.4812 52.9964 32.3346C52.9587 32.2813 52.918 32.228 52.8879 32.1706C52.8472 32.0947 52.7884 32.0427 52.6935 32.032C52.6001 32.0213 52.5067 32.0094 52.4133 32.0094C49.3638 32.0067 46.3158 32.0067 43.2663 32.0054C43.1699 32.0054 43.0705 32.008 42.9755 31.9934C42.7239 31.9534 42.4693 31.916 42.2237 31.8547C41.9842 31.7947 41.7506 31.7134 41.5186 31.6308C41.383 31.5828 41.2579 31.5148 41.1269 31.4562C41.1103 31.4482 41.0952 31.4388 41.0786 31.4308C40.9762 31.3829 40.8752 31.3362 40.7728 31.2882C40.7336 31.2709 40.6945 31.2549 40.6553 31.2362C40.5769 31.1976 40.4986 31.1589 40.4202 31.1203C40.3524 31.0869 40.2831 31.0536 40.2153 31.0229C40.1686 31.0016 40.1219 30.9776 40.0722 30.9616C39.9306 30.9163 39.7889 30.8723 39.6458 30.835C39.5479 30.8097 39.4454 30.7843 39.3445 30.7763C39.1486 30.763 38.9497 30.7577 38.7539 30.7564C35.1409 30.751 31.5279 30.747 27.9149 30.7444C27.6106 30.7444 27.3077 30.7564 27.0034 30.755C26.5454 30.755 26.0889 30.7457 25.6308 30.7444C25.334 30.7444 25.0357 30.755 24.7389 30.755C24.0714 30.7564 23.404 30.755 22.7365 30.755C22.2197 30.755 21.703 30.755 21.1847 30.755C21.15 30.755 21.1154 30.755 21.0807 30.7577C20.9677 30.771 20.9315 30.8297 20.9541 30.927C20.9828 31.0523 21.0626 31.1522 21.1349 31.2589C21.2374 31.4095 21.3218 31.5695 21.4257 31.7188C21.5312 31.8734 21.6457 32.024 21.7662 32.1706C21.8928 32.3239 22.0314 32.4692 22.167 32.6159C22.2454 32.7012 22.3312 32.7798 22.4111 32.8638C22.5015 32.9584 22.5859 33.0584 22.6808 33.1477C22.7757 33.2384 22.8827 33.3197 22.9851 33.4036C23.1644 33.5503 23.3437 33.6996 23.5275 33.8435C23.6737 33.9595 23.8243 34.0715 23.9765 34.1794C24.091 34.2608 24.207 34.3394 24.3291 34.4114C24.4843 34.5034 24.6455 34.5847 24.8037 34.674C24.992 34.7793 25.1803 34.8873 25.3672 34.9939C25.453 35.0432 25.5404 35.0925 25.6278 35.1392C25.7077 35.1818 25.7905 35.2192 25.8719 35.2592C25.9231 35.2845 25.9728 35.3138 26.0271 35.3365C26.2199 35.4191 26.4248 35.4844 26.6071 35.5844C26.8798 35.7324 27.1691 35.791 27.4825 35.791C28.3534 35.791 29.2242 35.791 30.0966 35.791L30.0996 35.7883ZM45.5926 25.1072C44.7127 25.1072 43.8328 25.1059 42.9514 25.1099C42.864 25.1099 42.7676 25.1405 42.6893 25.1792C42.5386 25.2552 42.3985 25.3485 42.2523 25.4324C42.1017 25.5191 41.9495 25.6031 41.8003 25.6924C41.6994 25.7524 41.6045 25.819 41.505 25.8803C41.3453 25.9803 41.1841 26.0776 41.0229 26.1762C40.9747 26.2056 40.928 26.2376 40.8783 26.2669C40.8255 26.3002 40.7713 26.3322 40.7171 26.3642C40.6779 26.3868 40.6387 26.4082 40.601 26.4308C40.4353 26.5321 40.2771 26.6454 40.1008 26.7321C39.9939 26.7854 39.9336 26.8494 39.905 26.948C39.8869 27.0107 39.917 27.044 39.9908 27.0413C40.1807 27.0373 40.372 27.0293 40.5619 27.0293C42.8083 27.0293 45.0532 27.0293 47.2997 27.0293C47.378 27.0293 47.4564 27.0253 47.5347 27.0253C47.7622 27.0253 47.9912 27.0267 48.2187 27.0253C48.3905 27.024 48.5623 27.0253 48.7325 27.0094C48.8515 26.9987 48.9329 26.9094 48.9344 26.8027C48.9419 26.3309 48.951 25.859 48.948 25.3871C48.948 25.2045 48.85 25.1232 48.6421 25.1125C48.4764 25.1045 48.3106 25.1099 48.1449 25.1099C47.2921 25.1099 46.4409 25.1099 45.5881 25.1099L45.5926 25.1072ZM43.4321 30.7817C43.4321 30.775 43.4321 30.7683 43.4321 30.7617C43.5601 30.7617 43.6882 30.763 43.8163 30.7617C43.9006 30.7604 43.9488 30.7164 43.9564 30.6417C43.973 30.4831 44.0001 30.3245 44.0031 30.1645C44.0091 29.746 44.0061 29.3287 44.0061 28.9102C44.0061 28.8822 44.0016 28.8555 43.9986 28.8275C43.988 28.7449 43.9775 28.6609 43.9669 28.5783C43.9549 28.4916 43.9488 28.4023 43.9232 28.3183C43.9142 28.2877 43.8584 28.257 43.8178 28.249C43.7364 28.2344 43.6505 28.2304 43.5662 28.2304C43.1624 28.229 42.7586 28.2304 42.3548 28.2304C41.3589 28.2304 40.3615 28.2304 39.3656 28.2304C39.2496 28.2304 39.1335 28.2384 39.0175 28.2384C38.668 28.2384 38.3169 28.2397 37.9674 28.2384C37.7956 28.2384 37.6314 28.2384 37.4822 28.3477C37.3451 28.4476 37.1779 28.5169 37.0302 28.6076C36.8977 28.6889 36.7786 28.7849 36.6476 28.8689C36.4442 28.9995 36.2362 29.1248 36.0283 29.2514C36.0057 29.2647 35.9786 29.2741 35.953 29.2834C35.8792 29.3101 35.7722 29.3274 35.7872 29.4154C35.8038 29.51 35.9168 29.506 36.0027 29.51C36.2182 29.518 36.4351 29.522 36.6506 29.522C37.2683 29.522 37.8845 29.5193 38.5023 29.5127C38.9859 29.5074 39.462 29.5327 39.9366 29.638C40.2274 29.702 40.4941 29.8166 40.7773 29.8926C40.7954 29.8979 40.8105 29.9086 40.827 29.9166C40.9235 29.9606 41.0229 30.0006 41.1163 30.0472C41.282 30.1285 41.4448 30.2098 41.621 30.2765C41.8139 30.3485 41.9811 30.4738 42.1725 30.5457C42.3894 30.6284 42.62 30.6924 42.8505 30.7364C43.0388 30.7723 43.2362 30.7697 43.429 30.7843L43.4321 30.7817ZM47.1083 30.771C47.4744 30.771 47.8406 30.7723 48.2082 30.771C48.3965 30.771 48.5833 30.763 48.7702 30.759C48.8726 30.7564 48.9238 30.703 48.9314 30.6164C48.9419 30.5058 48.9525 30.3964 48.954 30.2858C48.957 29.8912 48.9555 29.4954 48.954 29.1008C48.954 28.8995 48.954 28.6982 48.9404 28.497C48.9284 28.3117 48.8621 28.2517 48.6526 28.237C48.5095 28.2277 48.3649 28.2397 48.2217 28.2384C47.7863 28.2357 47.3524 28.2317 46.917 28.2304C46.4846 28.229 46.0521 28.2304 45.6212 28.2304C45.5474 28.2304 45.4661 28.2304 45.4329 28.297C45.3998 28.3637 45.3696 28.4396 45.3696 28.5116C45.3651 29.1981 45.3666 29.8846 45.3696 30.5711C45.3696 30.7257 45.4299 30.7723 45.6062 30.7723C46.1079 30.7723 46.6081 30.7723 47.1098 30.7723L47.1083 30.771Z" fill="#666666"/>
<path d="M30.0996 35.787C29.2287 35.787 28.3579 35.787 27.4855 35.787C27.1721 35.787 26.8814 35.7297 26.6102 35.5804C26.4279 35.4817 26.2245 35.4151 26.0301 35.3324C25.9774 35.3098 25.9276 35.2805 25.8749 35.2551C25.7935 35.2151 25.7107 35.1765 25.6308 35.1352C25.5419 35.0885 25.4561 35.0392 25.3702 34.9899C25.1818 34.8832 24.995 34.7753 24.8067 34.67C24.65 34.582 24.4873 34.4993 24.3321 34.4074C24.21 34.3354 24.094 34.2567 23.9795 34.1754C23.8274 34.0661 23.6767 33.9541 23.5305 33.8395C23.3467 33.6955 23.1689 33.5476 22.9881 33.3996C22.8857 33.3157 22.7802 33.2343 22.6838 33.1437C22.5889 33.0531 22.5045 32.9544 22.4141 32.8598C22.3342 32.7758 22.2484 32.6958 22.17 32.6118C22.0344 32.4652 21.8958 32.3199 21.7692 32.1666C21.6487 32.0213 21.5357 31.8694 21.4287 31.7147C21.3263 31.5641 21.2404 31.4055 21.138 31.2549C21.0656 31.1482 20.9858 31.0483 20.9572 30.923C20.9346 30.8256 20.9707 30.767 21.0837 30.7537C21.1184 30.7497 21.153 30.751 21.1877 30.751C21.7045 30.751 22.2212 30.751 22.7395 30.751C23.407 30.751 24.0744 30.7537 24.7419 30.751C25.0387 30.751 25.337 30.739 25.6338 30.7403C26.0919 30.7403 26.5484 30.751 27.0064 30.751C27.3108 30.751 27.6136 30.739 27.9179 30.7403C31.5309 30.743 35.1439 30.747 38.7569 30.7523C38.9543 30.7523 39.1516 30.7577 39.3475 30.7723C39.4484 30.779 39.5509 30.8043 39.6488 30.831C39.792 30.8683 39.9351 30.9136 40.0752 30.9576C40.1249 30.9736 40.1716 30.9976 40.2183 31.0189C40.2877 31.0509 40.3555 31.0842 40.4233 31.1162C40.5016 31.1549 40.5799 31.1949 40.6583 31.2322C40.696 31.2509 40.7366 31.2669 40.7758 31.2842C40.8783 31.3308 40.9792 31.3788 41.0817 31.4268C41.0982 31.4348 41.1133 31.4455 41.1299 31.4521C41.2595 31.5108 41.386 31.5788 41.5216 31.6268C41.7536 31.7094 41.9857 31.7907 42.2267 31.8507C42.4723 31.912 42.7269 31.9493 42.9786 31.9893C43.0735 32.004 43.1714 32.0013 43.2693 32.0013C46.3188 32.0027 49.3668 32.0027 52.4163 32.0053C52.5097 32.0053 52.6031 32.0187 52.6965 32.028C52.793 32.0387 52.8517 32.0906 52.8909 32.1666C52.921 32.2239 52.9617 32.2759 52.9994 32.3306C53.1018 32.4772 53.2058 32.6238 53.3097 32.7691C53.3534 32.8291 53.4017 32.8864 53.4454 32.9464C53.4679 32.9757 53.486 33.0077 53.5056 33.0384C53.5342 33.0837 53.5614 33.1304 53.5915 33.1757C53.6427 33.2543 53.6955 33.3316 53.7482 33.409C53.7648 33.433 53.7828 33.4543 53.8009 33.4769C53.822 33.5009 53.8506 33.5209 53.8687 33.5463C53.9651 33.6876 54.0571 33.8315 54.1565 33.9701C54.265 34.1234 54.384 34.2714 54.494 34.4247C54.5889 34.5567 54.6778 34.6926 54.7712 34.8259C54.8676 34.9632 54.9656 35.1005 55.062 35.2378C55.1012 35.2938 55.1373 35.3511 55.1765 35.4071C55.2081 35.4511 55.2398 35.4951 55.2729 35.5377C55.2955 35.567 55.3468 35.6097 55.3392 35.6244C55.3076 35.675 55.2594 35.7177 55.2127 35.759C55.2006 35.7697 55.1705 35.7683 55.1494 35.7683C54.6296 35.771 54.1098 35.7723 53.59 35.775C53.3745 35.775 53.1576 35.7843 52.9421 35.7843C52.3003 35.7843 51.6584 35.779 51.0166 35.779C48.3845 35.779 45.7523 35.783 43.1202 35.7843C42.745 35.7843 42.3684 35.7763 41.9932 35.7763C41.2971 35.7763 40.6025 35.783 39.9065 35.7843C37.6977 35.7843 35.4874 35.7843 33.2787 35.7843C32.2195 35.7843 31.1603 35.7843 30.1026 35.7843L30.0996 35.787ZM34.0034 32.6265C34.0124 32.6265 34.0214 32.6265 34.0305 32.6265C34.0064 32.5452 34.0019 32.4532 33.9536 32.3839C33.8904 32.2906 33.8015 32.2079 33.7081 32.136C33.6478 32.0893 33.5619 32.052 33.4821 32.0427C33.244 32.0133 33.015 32.0427 32.8477 32.2159C32.7438 32.3226 32.6368 32.4306 32.6308 32.5905C32.6248 32.7358 32.6715 32.8491 32.7558 32.9757C32.8477 33.1117 32.9864 33.1717 33.1235 33.225C33.3751 33.3236 33.6101 33.229 33.7969 33.085C33.9401 32.9744 34.0576 32.8264 34.0034 32.6292V32.6265ZM26.2546 32.032C25.9261 31.9867 25.5525 32.3026 25.5615 32.6598C25.5706 32.9811 25.9367 33.2637 26.2531 33.257C26.6343 33.249 26.922 32.9757 26.9522 32.6572C26.9793 32.3812 26.6026 31.9813 26.2546 32.032ZM29.8013 32.032C29.4457 31.9973 29.0705 32.3173 29.0901 32.6705C29.1082 32.9864 29.4201 33.2517 29.7892 33.253C30.1599 33.253 30.4642 32.9757 30.4853 32.6638C30.5049 32.3639 30.1508 31.9973 29.8013 32.032ZM37.544 32.6412C37.5546 32.5159 37.544 32.4092 37.4581 32.3212C37.3979 32.2586 37.3316 32.1973 37.2623 32.1426C37.083 32 36.6912 32 36.4984 32.1293C36.3824 32.2066 36.3055 32.3053 36.2317 32.4119C36.1579 32.5172 36.1413 32.6292 36.1805 32.7358C36.2453 32.9158 36.3432 33.0677 36.5526 33.1744C36.8494 33.3263 37.1448 33.2317 37.3497 33.0691C37.4913 32.9571 37.5832 32.8091 37.544 32.6412Z" fill="#00BFFF"/>
<path d="M45.5926 25.1072C46.4454 25.1072 47.2967 25.1072 48.1494 25.1072C48.3152 25.1072 48.4809 25.1018 48.6466 25.1098C48.8546 25.1205 48.951 25.2018 48.9525 25.3844C48.954 25.8563 48.9465 26.3282 48.9389 26.8C48.9374 26.908 48.8561 26.996 48.737 27.0066C48.5668 27.0226 48.395 27.0213 48.2233 27.0226C47.9958 27.0253 47.7667 27.0226 47.5392 27.0226C47.4609 27.0226 47.3825 27.0266 47.3042 27.0266C45.0578 27.0266 42.8128 27.0266 40.5664 27.0266C40.3766 27.0266 40.1852 27.0346 39.9954 27.0386C39.9215 27.04 39.8914 27.008 39.9095 26.9453C39.9381 26.8467 39.9984 26.7827 40.1054 26.7294C40.2801 26.6427 40.4398 26.5294 40.6056 26.4281C40.6432 26.4055 40.6839 26.3841 40.7216 26.3615C40.7758 26.3295 40.8286 26.2975 40.8828 26.2642C40.931 26.2349 40.9777 26.2029 41.0274 26.1735C41.1886 26.0749 41.3499 25.9763 41.5096 25.8776C41.609 25.8163 41.7039 25.7496 41.8049 25.6897C41.954 25.6017 42.1062 25.5177 42.2569 25.4297C42.403 25.3458 42.5431 25.2524 42.6938 25.1765C42.7721 25.1378 42.8671 25.1072 42.956 25.1072C43.8359 25.1018 44.7157 25.1045 45.5971 25.1045L45.5926 25.1072Z" fill="white"/>
<path d="M43.4321 30.7816C43.2392 30.767 43.0418 30.771 42.8535 30.7336C42.623 30.6883 42.3925 30.6243 42.1755 30.543C41.9827 30.471 41.8154 30.3457 41.6241 30.2738C41.4478 30.2071 41.2851 30.1258 41.1193 30.0445C41.0244 29.9978 40.9265 29.9565 40.8301 29.9139C40.8135 29.9059 40.7984 29.8952 40.7803 29.8899C40.4971 29.8139 40.2304 29.6993 39.9396 29.6353C39.465 29.5313 38.9889 29.5046 38.5053 29.51C37.889 29.5166 37.2713 29.518 36.6536 29.5193C36.4381 29.5193 36.2212 29.5153 36.0057 29.5073C35.9198 29.5046 35.8068 29.5073 35.7903 29.4127C35.7752 29.326 35.8807 29.3074 35.956 29.2807C35.9816 29.2714 36.0087 29.262 36.0313 29.2487C36.2377 29.1221 36.4457 28.9968 36.6506 28.8661C36.7816 28.7822 36.9007 28.6862 37.0333 28.6049C37.1809 28.5142 37.3482 28.4463 37.4853 28.3449C37.6344 28.2356 37.7971 28.2356 37.9704 28.2356C38.32 28.237 38.671 28.2356 39.0206 28.2356C39.1366 28.2356 39.2526 28.2276 39.3686 28.2276C40.3645 28.2276 41.3619 28.2276 42.3578 28.2276C42.7616 28.2276 43.1654 28.2263 43.5692 28.2276C43.6535 28.2276 43.7394 28.2316 43.8208 28.2463C43.8615 28.253 43.9157 28.285 43.9262 28.3156C43.9519 28.3996 43.9579 28.4876 43.9699 28.5756C43.982 28.6582 43.991 28.7422 44.0016 28.8248C44.0046 28.8528 44.0091 28.8795 44.0091 28.9075C44.0091 29.326 44.0136 29.7432 44.0061 30.1618C44.0031 30.3204 43.9775 30.4804 43.9594 30.639C43.9519 30.7136 43.9036 30.7563 43.8193 30.759C43.6912 30.7616 43.5631 30.759 43.4351 30.759C43.4351 30.7656 43.4351 30.7723 43.4351 30.779L43.4321 30.7816Z" fill="#80CEF4"/>
<path d="M47.1098 30.771C46.6081 30.771 46.1079 30.771 45.6062 30.771C45.4299 30.771 45.3711 30.7257 45.3696 30.5697C45.3666 29.8832 45.3651 29.1967 45.3696 28.5103C45.3696 28.4383 45.3998 28.3623 45.4329 28.2957C45.4661 28.2277 45.5474 28.229 45.6212 28.229C46.0537 28.229 46.4861 28.229 46.917 28.229C47.3524 28.2303 47.7863 28.2357 48.2217 28.237C48.3649 28.237 48.5095 28.225 48.6527 28.2357C48.8606 28.2503 48.9284 28.3103 48.9404 28.4956C48.954 28.6969 48.9525 28.8982 48.954 29.0994C48.9555 29.494 48.957 29.8899 48.954 30.2845C48.954 30.3951 48.9419 30.5057 48.9314 30.615C48.9239 30.7003 48.8741 30.755 48.7702 30.7577C48.5833 30.763 48.395 30.7683 48.2082 30.7697C47.8421 30.771 47.476 30.7697 47.1083 30.7697L47.1098 30.771Z" fill="#80CEF4"/>
<path d="M34.0034 32.6279C34.0576 32.8251 33.9416 32.9731 33.7969 33.0837C33.6101 33.2277 33.3751 33.3223 33.1235 33.2237C32.9864 33.1704 32.8477 33.1104 32.7558 32.9744C32.6715 32.8478 32.6248 32.7345 32.6308 32.5892C32.6368 32.4306 32.7438 32.3226 32.8477 32.2146C33.015 32.0427 33.244 32.012 33.482 32.0413C33.5619 32.0507 33.6478 32.088 33.708 32.1347C33.8015 32.2066 33.8904 32.2906 33.9536 32.3826C34.0003 32.4519 34.0064 32.5439 34.0305 32.6252C34.0214 32.6252 34.0124 32.6252 34.0034 32.6252V32.6279Z" fill="#80CEF4"/>
<path d="M26.2561 32.0333C26.6041 31.9827 26.9808 32.3812 26.9537 32.6585C26.922 32.9757 26.6358 33.249 26.2546 33.2583C25.9382 33.265 25.5721 32.9837 25.563 32.6612C25.554 32.3039 25.9276 31.988 26.2561 32.0333Z" fill="#80CEF4"/>
<path d="M29.8028 32.0333C30.1523 31.9987 30.5079 32.3653 30.4868 32.6652C30.4657 32.9771 30.1614 33.2543 29.7907 33.2543C29.4216 33.2543 29.1097 32.9878 29.0916 32.6718C29.0705 32.3186 29.4457 31.9974 29.8028 32.0333Z" fill="#80CEF4"/>
<path d="M37.544 32.6425C37.5832 32.8118 37.4913 32.9584 37.3497 33.0704C37.1448 33.2317 36.8494 33.3263 36.5526 33.1757C36.3432 33.069 36.2453 32.9171 36.1805 32.7371C36.1428 32.6305 36.1594 32.5185 36.2317 32.4132C36.3071 32.3066 36.3824 32.2079 36.4984 32.1306C36.6912 32.0027 37.083 32.0013 37.2623 32.144C37.3316 32.1999 37.3979 32.2599 37.4581 32.3226C37.5425 32.4106 37.5546 32.5172 37.544 32.6425Z" fill="#80CEF4"/>
</g>
<path d="M28.2754 56L25.8779 49.6816H25.8389C25.8519 49.8151 25.8633 49.9779 25.873 50.1699C25.8828 50.362 25.891 50.5719 25.8975 50.7998C25.904 51.0244 25.9072 51.2539 25.9072 51.4883V56H25.1357V48.8613H26.3662L28.627 54.7988H28.6611L30.9561 48.8613H32.1768V56H31.3564V51.4297C31.3564 51.2181 31.3597 51.0065 31.3662 50.7949C31.3727 50.5801 31.3809 50.3783 31.3906 50.1895C31.4004 49.9974 31.4102 49.8314 31.4199 49.6914H31.3809L28.9541 56H28.2754ZM38.6221 53.3145C38.6221 53.7539 38.5651 54.1462 38.4512 54.4912C38.3372 54.8363 38.1729 55.1276 37.958 55.3652C37.7432 55.6029 37.4827 55.7852 37.1768 55.9121C36.874 56.0358 36.5306 56.0977 36.1465 56.0977C35.7884 56.0977 35.4596 56.0358 35.1602 55.9121C34.8639 55.7852 34.6068 55.6029 34.3887 55.3652C34.1738 55.1276 34.0062 54.8363 33.8857 54.4912C33.7686 54.1462 33.71 53.7539 33.71 53.3145C33.71 52.7285 33.8092 52.2305 34.0078 51.8203C34.2064 51.4069 34.4896 51.0928 34.8574 50.8779C35.2285 50.6598 35.6696 50.5508 36.1807 50.5508C36.6689 50.5508 37.0954 50.6598 37.46 50.8779C37.8278 51.096 38.1126 51.4118 38.3145 51.8252C38.5195 52.2354 38.6221 52.7318 38.6221 53.3145ZM34.5498 53.3145C34.5498 53.7441 34.6068 54.1169 34.7207 54.4326C34.8346 54.7484 35.0104 54.9925 35.248 55.165C35.4857 55.3376 35.7917 55.4238 36.166 55.4238C36.5371 55.4238 36.8415 55.3376 37.0791 55.165C37.32 54.9925 37.4974 54.7484 37.6113 54.4326C37.7253 54.1169 37.7822 53.7441 37.7822 53.3145C37.7822 52.888 37.7253 52.5202 37.6113 52.2109C37.4974 51.8984 37.3216 51.6576 37.084 51.4883C36.8464 51.319 36.5387 51.2344 36.1611 51.2344C35.6045 51.2344 35.196 51.4183 34.9355 51.7861C34.6784 52.154 34.5498 52.6634 34.5498 53.3145ZM41.752 55.4336C41.8854 55.4336 42.0221 55.4222 42.1621 55.3994C42.3021 55.3766 42.416 55.349 42.5039 55.3164V55.9463C42.4095 55.9886 42.2777 56.0244 42.1084 56.0537C41.9424 56.083 41.7796 56.0977 41.6201 56.0977C41.3369 56.0977 41.0798 56.0488 40.8486 55.9512C40.6175 55.8503 40.432 55.681 40.292 55.4434C40.1553 55.2057 40.0869 54.877 40.0869 54.457V51.2832H39.3252V50.8877L40.0918 50.5703L40.4141 49.4082H40.9023V50.6484H42.4697V51.2832H40.9023V54.4326C40.9023 54.7679 40.9788 55.0186 41.1318 55.1846C41.2881 55.3506 41.4948 55.4336 41.752 55.4336ZM48.2021 53.3145C48.2021 53.7539 48.1452 54.1462 48.0312 54.4912C47.9173 54.8363 47.7529 55.1276 47.5381 55.3652C47.3232 55.6029 47.0628 55.7852 46.7568 55.9121C46.4541 56.0358 46.1107 56.0977 45.7266 56.0977C45.3685 56.0977 45.0397 56.0358 44.7402 55.9121C44.444 55.7852 44.1868 55.6029 43.9688 55.3652C43.7539 55.1276 43.5863 54.8363 43.4658 54.4912C43.3486 54.1462 43.29 53.7539 43.29 53.3145C43.29 52.7285 43.3893 52.2305 43.5879 51.8203C43.7865 51.4069 44.0697 51.0928 44.4375 50.8779C44.8086 50.6598 45.2497 50.5508 45.7607 50.5508C46.249 50.5508 46.6755 50.6598 47.04 50.8779C47.4079 51.096 47.6927 51.4118 47.8945 51.8252C48.0996 52.2354 48.2021 52.7318 48.2021 53.3145ZM44.1299 53.3145C44.1299 53.7441 44.1868 54.1169 44.3008 54.4326C44.4147 54.7484 44.5905 54.9925 44.8281 55.165C45.0658 55.3376 45.3717 55.4238 45.7461 55.4238C46.1172 55.4238 46.4215 55.3376 46.6592 55.165C46.9001 54.9925 47.0775 54.7484 47.1914 54.4326C47.3053 54.1169 47.3623 53.7441 47.3623 53.3145C47.3623 52.888 47.3053 52.5202 47.1914 52.2109C47.0775 51.8984 46.9017 51.6576 46.6641 51.4883C46.4264 51.319 46.1188 51.2344 45.7412 51.2344C45.1846 51.2344 44.776 51.4183 44.5156 51.7861C44.2585 52.154 44.1299 52.6634 44.1299 53.3145ZM52.0352 50.5508C52.1426 50.5508 52.2549 50.5573 52.3721 50.5703C52.4893 50.5801 52.5934 50.5947 52.6846 50.6143L52.582 51.3662C52.4941 51.3434 52.3965 51.3255 52.2891 51.3125C52.1816 51.2995 52.0807 51.293 51.9863 51.293C51.7715 51.293 51.568 51.3369 51.376 51.4248C51.1872 51.5094 51.0212 51.6331 50.8779 51.7959C50.7347 51.9554 50.6224 52.1491 50.541 52.377C50.4596 52.6016 50.4189 52.8522 50.4189 53.1289V56H49.6035V50.6484H50.2773L50.3652 51.6348H50.3994C50.5101 51.4362 50.6436 51.2555 50.7998 51.0928C50.9561 50.9268 51.1367 50.7949 51.3418 50.6973C51.5501 50.5996 51.7812 50.5508 52.0352 50.5508Z" fill="#333333"/>
<defs>
<clipPath id="clip0_39_25">
<rect width="39" height="15" fill="white" transform="translate(19 22)"/>
</clipPath>
</defs>
</svg>
