<svg width="81" height="50" viewBox="0 0 81 50" fill="none" xmlns="http://www.w3.org/2000/svg">
<path d="M11.9412 34.3763V34.9756L12.421 34.6164L17.3544 30.9231L17.3565 30.9215C17.7909 30.5902 18.3308 30.4147 18.8813 30.4147H32.1525C33.8912 30.4147 35.297 29.0112 35.297 27.2737V10.2275C35.297 8.49003 33.8912 7.08647 32.1525 7.08647H6.55224C4.81354 7.08647 3.40776 8.49003 3.40776 10.2275V27.2737C3.40776 29.0112 4.81354 30.4147 6.55224 30.4147H9.39671C10.8047 30.4147 11.9412 31.5503 11.9412 32.9558V34.3763ZM18.8813 32.6558H18.7814L18.7015 32.7156L11.4925 38.1136L11.4924 38.1136C11.1574 38.3646 10.7003 38.4084 10.311 38.2175C9.92842 38.0299 9.69671 37.6484 9.69671 37.2173V35.7968V32.9558V32.6558H9.39671H6.55224C3.57976 32.6558 1.16328 30.2417 1.16328 27.2737V10.2275C1.16328 7.25952 3.57976 4.84544 6.55224 4.84544H32.1525C35.125 4.84544 37.5415 7.25952 37.5415 10.2275V27.2737C37.5415 30.2417 35.125 32.6558 32.1525 32.6558H18.8813ZM23.9191 38.6378V36.0968H26.1636V38.6378C26.1636 40.3753 27.5694 41.7789 29.3081 41.7789H39.7348C40.2853 41.7789 40.8252 41.9543 41.2596 42.2856L41.2617 42.2872L46.1951 45.9806L46.6749 46.3397V45.7404V44.3199C46.6749 42.9145 47.8114 41.7789 49.2194 41.7789H52.0639C53.8026 41.7789 55.2083 40.3753 55.2083 38.6378V21.5916C55.2083 19.8542 53.8026 18.4506 52.0639 18.4506H40.986V16.2096H52.0639C55.0363 16.2096 57.4528 18.6236 57.4528 21.5916V38.6378C57.4528 41.6058 55.0363 44.0199 52.0639 44.0199H49.2194H48.9194V44.3199V47.1609V48.5814C48.9194 49.0098 48.681 49.3939 48.3031 49.5826C47.9261 49.7709 47.469 49.7305 47.1224 49.4768C47.122 49.4765 47.1217 49.4762 47.1213 49.476L39.9146 44.0797L39.8347 44.0199H39.7348H29.3081C26.3356 44.0199 23.9191 41.6058 23.9191 38.6378Z" fill="#00BFFF" stroke="white" stroke-width="0.6"/>
<path d="M50.2254 17.6944L62.1467 29.2532C62.6415 29.7328 63.2947 30 63.9742 30C64.6537 30 65.3069 29.7328 65.8017 29.2532L77.723 17.6944C79.7285 15.7554 80.8633 13.0353 80.8633 10.1918V9.79441C80.8633 5.00509 77.5316 0.921489 72.9861 0.133546C69.9777 -0.387181 66.9166 0.633719 64.7659 2.86736L63.9742 3.68957L63.1825 2.86736C61.0318 0.633719 57.9707 -0.387181 54.9623 0.133546C50.4167 0.921489 47.0851 5.00509 47.0851 9.79441V10.1918C47.0851 13.0353 48.2198 15.7554 50.2254 17.6944Z" fill="#FF7F50"/>
</svg>
