<svg width="22" height="13" viewBox="0 0 22 13" fill="none" xmlns="http://www.w3.org/2000/svg">
<path d="M11.3031 6.27344C11.3031 8.10156 10.8395 9.53906 9.91246 10.5859C8.99059 11.6328 7.70673 12.1562 6.0609 12.1562C4.37861 12.1562 3.07913 11.6432 2.16246 10.6172C1.251 9.58594 0.795273 8.13281 0.795273 6.25781C0.795273 4.39844 1.25361 2.95833 2.17027 1.9375C3.08694 0.911458 4.38902 0.398438 6.07652 0.398438C7.71715 0.398438 8.9984 0.919271 9.92027 1.96094C10.8421 3.0026 11.3031 4.4401 11.3031 6.27344ZM2.20152 6.27344C2.20152 7.82031 2.52965 8.99479 3.1859 9.79688C3.84736 10.5938 4.80569 10.9922 6.0609 10.9922C7.32652 10.9922 8.28225 10.5938 8.92809 9.79688C9.57392 9 9.89684 7.82552 9.89684 6.27344C9.89684 4.73698 9.57392 3.57292 8.92809 2.78125C8.28746 1.98438 7.33694 1.58594 6.07652 1.58594C4.8109 1.58594 3.84736 1.98698 3.1859 2.78906C2.52965 3.58594 2.20152 4.7474 2.20152 6.27344ZM15.1891 7.25V12H13.861V0.578125H16.9938C18.3948 0.578125 19.4287 0.846354 20.0954 1.38281C20.7672 1.91927 21.1032 2.72656 21.1032 3.80469C21.1032 5.3151 20.3375 6.33594 18.8063 6.86719L21.9079 12H20.3375L17.5719 7.25H15.1891ZM15.1891 6.10938H17.0094C17.9469 6.10938 18.6344 5.92448 19.0719 5.55469C19.5094 5.17969 19.7282 4.61979 19.7282 3.875C19.7282 3.11979 19.5042 2.57552 19.0563 2.24219C18.6136 1.90885 17.9 1.74219 16.9157 1.74219H15.1891V6.10938Z" fill="#999999"/>
</svg>
