<svg width="706" height="259" viewBox="0 0 706 259" fill="none" xmlns="http://www.w3.org/2000/svg">
<rect width="693" height="259" rx="10" fill="#FF7F50"/>
<path d="M65.0586 57H62.5195L60.0977 48.4844C59.9935 48.1133 59.8633 47.5794 59.707 46.8828C59.5508 46.1797 59.4564 45.6914 59.4238 45.418C59.3587 45.8346 59.2513 46.375 59.1016 47.0391C58.9583 47.7031 58.8379 48.1979 58.7402 48.5234L56.377 57H53.8379L51.9922 49.8516L50.1172 42.7227H52.5L54.541 51.043C54.86 52.3776 55.0879 53.556 55.2246 54.5781C55.2962 54.0247 55.4036 53.4062 55.5469 52.7227C55.6901 52.0391 55.8203 51.4857 55.9375 51.0625L58.2617 42.7227H60.5762L62.959 51.1016C63.1868 51.8763 63.4277 53.0352 63.6816 54.5781C63.7793 53.6471 64.0137 52.4622 64.3848 51.0234L66.416 42.7227H68.7793L65.0586 57ZM80.0684 57H77.7637V50.3594C77.7637 49.526 77.5944 48.9043 77.2559 48.4941C76.9238 48.084 76.3932 47.8789 75.6641 47.8789C74.7005 47.8789 73.9909 48.1686 73.5352 48.748C73.0859 49.321 72.8613 50.2845 72.8613 51.6387V57H70.5664V41.8047H72.8613V45.6621C72.8613 46.2806 72.8223 46.9414 72.7441 47.6445H72.8906C73.2031 47.1237 73.6361 46.7201 74.1895 46.4336C74.7493 46.1471 75.4004 46.0039 76.1426 46.0039C78.7598 46.0039 80.0684 47.3223 80.0684 49.959V57ZM90.0195 57L89.5605 55.4961H89.4824C88.9616 56.1536 88.4375 56.6029 87.9102 56.8438C87.3828 57.0781 86.7057 57.1953 85.8789 57.1953C84.8177 57.1953 83.9876 56.9089 83.3887 56.3359C82.7962 55.763 82.5 54.9525 82.5 53.9043C82.5 52.791 82.9134 51.9512 83.7402 51.3848C84.5671 50.8184 85.8268 50.5091 87.5195 50.457L89.3848 50.3984V49.8223C89.3848 49.1322 89.222 48.6178 88.8965 48.2793C88.5775 47.9342 88.0794 47.7617 87.4023 47.7617C86.849 47.7617 86.3184 47.8431 85.8105 48.0059C85.3027 48.1686 84.8145 48.3607 84.3457 48.582L83.6035 46.9414C84.1895 46.6354 84.8307 46.4043 85.5273 46.248C86.224 46.0853 86.8815 46.0039 87.5 46.0039C88.8737 46.0039 89.9089 46.3034 90.6055 46.9023C91.3086 47.5013 91.6602 48.4421 91.6602 49.7246V57H90.0195ZM86.6016 55.4375C87.4349 55.4375 88.1022 55.2064 88.6035 54.7441C89.1113 54.2754 89.3652 53.6211 89.3652 52.7812V51.8438L87.9785 51.9023C86.8978 51.9414 86.11 52.1237 85.6152 52.4492C85.127 52.7682 84.8828 53.2598 84.8828 53.9238C84.8828 54.4056 85.026 54.7799 85.3125 55.0469C85.599 55.3073 86.0286 55.4375 86.6016 55.4375ZM98.8867 55.3398C99.4466 55.3398 100.007 55.252 100.566 55.0762V56.8047C100.312 56.9154 99.9837 57.0065 99.5801 57.0781C99.1829 57.1562 98.7695 57.1953 98.3398 57.1953C96.1654 57.1953 95.0781 56.0495 95.0781 53.7578V47.9375H93.6035V46.9219L95.1855 46.082L95.9668 43.7969H97.3828V46.1992H100.459V47.9375H97.3828V53.7188C97.3828 54.2721 97.5195 54.6823 97.793 54.9492C98.0729 55.2096 98.4375 55.3398 98.8867 55.3398ZM110.146 51.2969L111.445 49.6758L114.707 46.1992H117.354L113.008 50.8379L117.627 57H114.932L111.465 52.2637L110.205 53.2988V57H107.93V41.8047H110.205V49.2168L110.088 51.2969H110.146ZM121.67 57H119.375V46.1992H121.67V57ZM119.238 43.3379C119.238 42.9277 119.349 42.612 119.57 42.3906C119.798 42.1693 120.12 42.0586 120.537 42.0586C120.941 42.0586 121.253 42.1693 121.475 42.3906C121.702 42.612 121.816 42.9277 121.816 43.3379C121.816 43.7285 121.702 44.0378 121.475 44.2656C121.253 44.487 120.941 44.5977 120.537 44.5977C120.12 44.5977 119.798 44.487 119.57 44.2656C119.349 44.0378 119.238 43.7285 119.238 43.3379ZM134.463 57H132.158V50.3594C132.158 49.526 131.989 48.9043 131.65 48.4941C131.318 48.084 130.788 47.8789 130.059 47.8789C129.089 47.8789 128.379 48.1654 127.93 48.7383C127.48 49.3112 127.256 50.2715 127.256 51.6191V57H124.961V46.1992H126.758L127.08 47.6152H127.197C127.523 47.1009 127.985 46.7038 128.584 46.4238C129.183 46.1439 129.847 46.0039 130.576 46.0039C133.167 46.0039 134.463 47.3223 134.463 49.959V57ZM141.299 57.1953C139.951 57.1953 138.9 56.707 138.145 55.7305C137.389 54.7539 137.012 53.3835 137.012 51.6191C137.012 49.8483 137.393 48.4714 138.154 47.4883C138.923 46.4987 139.984 46.0039 141.338 46.0039C142.757 46.0039 143.838 46.528 144.58 47.5762H144.697C144.587 46.8014 144.531 46.1895 144.531 45.7402V41.8047H146.836V57H145.039L144.639 55.584H144.531C143.796 56.6582 142.718 57.1953 141.299 57.1953ZM141.914 55.3398C142.858 55.3398 143.545 55.0762 143.975 54.5488C144.404 54.015 144.626 53.1523 144.639 51.9609V51.6387C144.639 50.278 144.417 49.3112 143.975 48.7383C143.532 48.1654 142.839 47.8789 141.895 47.8789C141.087 47.8789 140.465 48.2077 140.029 48.8652C139.593 49.5163 139.375 50.4473 139.375 51.6582C139.375 52.8561 139.587 53.7708 140.01 54.4023C140.433 55.0273 141.068 55.3398 141.914 55.3398ZM164.893 51.5801C164.893 53.3444 164.44 54.7214 163.535 55.7109C162.63 56.7005 161.37 57.1953 159.756 57.1953C158.747 57.1953 157.855 56.9674 157.08 56.5117C156.305 56.056 155.71 55.4017 155.293 54.5488C154.876 53.696 154.668 52.7064 154.668 51.5801C154.668 49.8288 155.117 48.4616 156.016 47.4785C156.914 46.4954 158.18 46.0039 159.814 46.0039C161.377 46.0039 162.614 46.5085 163.525 47.5176C164.437 48.5202 164.893 49.8743 164.893 51.5801ZM157.031 51.5801C157.031 54.0736 157.952 55.3203 159.795 55.3203C161.618 55.3203 162.529 54.0736 162.529 51.5801C162.529 49.1126 161.611 47.8789 159.775 47.8789C158.812 47.8789 158.112 48.1979 157.676 48.8359C157.246 49.474 157.031 50.3887 157.031 51.5801ZM172.959 47.9375H170.322V57H168.018V47.9375H166.24V46.8633L168.018 46.1602V45.457C168.018 44.181 168.317 43.237 168.916 42.625C169.515 42.0065 170.43 41.6973 171.66 41.6973C172.467 41.6973 173.262 41.8307 174.043 42.0977L173.438 43.8359C172.871 43.6536 172.331 43.5625 171.816 43.5625C171.296 43.5625 170.915 43.7253 170.674 44.0508C170.439 44.3698 170.322 44.8516 170.322 45.4961V46.1992H172.959V47.9375ZM185.518 46.0039C186.865 46.0039 187.913 46.4922 188.662 47.4688C189.417 48.4453 189.795 49.8158 189.795 51.5801C189.795 53.3509 189.414 54.7311 188.652 55.7207C187.891 56.7038 186.833 57.1953 185.479 57.1953C184.111 57.1953 183.05 56.7038 182.295 55.7207H182.139L181.719 57H180V41.8047H182.295V45.418C182.295 45.6849 182.282 46.082 182.256 46.6094C182.23 47.1367 182.21 47.472 182.197 47.6152H182.295C183.024 46.541 184.098 46.0039 185.518 46.0039ZM184.922 47.8789C183.997 47.8789 183.33 48.1523 182.92 48.6992C182.516 49.2396 182.308 50.1478 182.295 51.4238V51.5801C182.295 52.8952 182.503 53.849 182.92 54.4414C183.337 55.0273 184.017 55.3203 184.961 55.3203C185.775 55.3203 186.39 54.998 186.807 54.3535C187.23 53.709 187.441 52.778 187.441 51.5605C187.441 49.1061 186.602 47.8789 184.922 47.8789ZM202.041 51.5801C202.041 53.3444 201.589 54.7214 200.684 55.7109C199.779 56.7005 198.519 57.1953 196.904 57.1953C195.895 57.1953 195.003 56.9674 194.229 56.5117C193.454 56.056 192.858 55.4017 192.441 54.5488C192.025 53.696 191.816 52.7064 191.816 51.5801C191.816 49.8288 192.266 48.4616 193.164 47.4785C194.062 46.4954 195.329 46.0039 196.963 46.0039C198.525 46.0039 199.762 46.5085 200.674 47.5176C201.585 48.5202 202.041 49.8743 202.041 51.5801ZM194.18 51.5801C194.18 54.0736 195.101 55.3203 196.943 55.3203C198.766 55.3203 199.678 54.0736 199.678 51.5801C199.678 49.1126 198.76 47.8789 196.924 47.8789C195.96 47.8789 195.26 48.1979 194.824 48.8359C194.395 49.474 194.18 50.3887 194.18 51.5801ZM211.445 57L210.986 55.4961H210.908C210.387 56.1536 209.863 56.6029 209.336 56.8438C208.809 57.0781 208.132 57.1953 207.305 57.1953C206.243 57.1953 205.413 56.9089 204.814 56.3359C204.222 55.763 203.926 54.9525 203.926 53.9043C203.926 52.791 204.339 51.9512 205.166 51.3848C205.993 50.8184 207.253 50.5091 208.945 50.457L210.811 50.3984V49.8223C210.811 49.1322 210.648 48.6178 210.322 48.2793C210.003 47.9342 209.505 47.7617 208.828 47.7617C208.275 47.7617 207.744 47.8431 207.236 48.0059C206.729 48.1686 206.24 48.3607 205.771 48.582L205.029 46.9414C205.615 46.6354 206.257 46.4043 206.953 46.248C207.65 46.0853 208.307 46.0039 208.926 46.0039C210.299 46.0039 211.335 46.3034 212.031 46.9023C212.734 47.5013 213.086 48.4421 213.086 49.7246V57H211.445ZM208.027 55.4375C208.861 55.4375 209.528 55.2064 210.029 54.7441C210.537 54.2754 210.791 53.6211 210.791 52.7812V51.8438L209.404 51.9023C208.324 51.9414 207.536 52.1237 207.041 52.4492C206.553 52.7682 206.309 53.2598 206.309 53.9238C206.309 54.4056 206.452 54.7799 206.738 55.0469C207.025 55.3073 207.454 55.4375 208.027 55.4375ZM220.312 55.3398C220.872 55.3398 221.432 55.252 221.992 55.0762V56.8047C221.738 56.9154 221.41 57.0065 221.006 57.0781C220.609 57.1562 220.195 57.1953 219.766 57.1953C217.591 57.1953 216.504 56.0495 216.504 53.7578V47.9375H215.029V46.9219L216.611 46.082L217.393 43.7969H218.809V46.1992H221.885V47.9375H218.809V53.7188C218.809 54.2721 218.945 54.6823 219.219 54.9492C219.499 55.2096 219.863 55.3398 220.312 55.3398ZM238.936 51.5801C238.936 53.3444 238.483 54.7214 237.578 55.7109C236.673 56.7005 235.413 57.1953 233.799 57.1953C232.79 57.1953 231.898 56.9674 231.123 56.5117C230.348 56.056 229.753 55.4017 229.336 54.5488C228.919 53.696 228.711 52.7064 228.711 51.5801C228.711 49.8288 229.16 48.4616 230.059 47.4785C230.957 46.4954 232.223 46.0039 233.857 46.0039C235.42 46.0039 236.657 46.5085 237.568 47.5176C238.48 48.5202 238.936 49.8743 238.936 51.5801ZM231.074 51.5801C231.074 54.0736 231.995 55.3203 233.838 55.3203C235.661 55.3203 236.572 54.0736 236.572 51.5801C236.572 49.1126 235.654 47.8789 233.818 47.8789C232.855 47.8789 232.155 48.1979 231.719 48.8359C231.289 49.474 231.074 50.3887 231.074 51.5801ZM247.061 46.0039C247.523 46.0039 247.904 46.0365 248.203 46.1016L247.979 48.2402C247.653 48.1621 247.314 48.123 246.963 48.123C246.045 48.123 245.299 48.4225 244.727 49.0215C244.16 49.6204 243.877 50.3984 243.877 51.3555V57H241.582V46.1992H243.379L243.682 48.1035H243.799C244.157 47.459 244.622 46.9479 245.195 46.5703C245.775 46.1927 246.396 46.0039 247.061 46.0039ZM260.127 57.1953C258.447 57.1953 257.132 56.707 256.182 55.7305C255.238 54.7474 254.766 53.3965 254.766 51.6777C254.766 49.9134 255.205 48.5267 256.084 47.5176C256.963 46.5085 258.171 46.0039 259.707 46.0039C261.133 46.0039 262.259 46.4368 263.086 47.3027C263.913 48.1686 264.326 49.36 264.326 50.877V52.1172H257.129C257.161 53.1654 257.445 53.9727 257.979 54.5391C258.512 55.099 259.264 55.3789 260.234 55.3789C260.872 55.3789 261.465 55.3203 262.012 55.2031C262.565 55.0794 263.158 54.8776 263.789 54.5977V56.4629C263.229 56.7298 262.663 56.9186 262.09 57.0293C261.517 57.14 260.863 57.1953 260.127 57.1953ZM259.707 47.7422C258.978 47.7422 258.392 47.9733 257.949 48.4355C257.513 48.8978 257.253 49.5716 257.168 50.457H262.07C262.057 49.5651 261.842 48.8913 261.426 48.4355C261.009 47.9733 260.436 47.7422 259.707 47.7422ZM269.336 51.4824L265.713 46.1992H268.33L270.791 49.9785L273.271 46.1992H275.869L272.236 51.4824L276.055 57H273.457L270.791 52.957L268.135 57H265.537L269.336 51.4824ZM283.428 57.1953C282.061 57.1953 280.999 56.7038 280.244 55.7207H280.107C280.199 56.6322 280.244 57.1855 280.244 57.3809V61.8047H277.949V46.1992H279.805C279.857 46.401 279.964 46.8828 280.127 47.6445H280.244C280.96 46.5508 282.035 46.0039 283.467 46.0039C284.814 46.0039 285.863 46.4922 286.611 47.4688C287.367 48.4453 287.744 49.8158 287.744 51.5801C287.744 53.3444 287.36 54.7214 286.592 55.7109C285.83 56.7005 284.775 57.1953 283.428 57.1953ZM282.871 47.8789C281.96 47.8789 281.292 48.1458 280.869 48.6797C280.452 49.2135 280.244 50.0664 280.244 51.2383V51.5801C280.244 52.8952 280.452 53.849 280.869 54.4414C281.286 55.0273 281.966 55.3203 282.91 55.3203C283.704 55.3203 284.316 54.9948 284.746 54.3438C285.176 53.6927 285.391 52.765 285.391 51.5605C285.391 50.3496 285.176 49.4349 284.746 48.8164C284.323 48.1914 283.698 47.8789 282.871 47.8789ZM295.127 57.1953C293.447 57.1953 292.132 56.707 291.182 55.7305C290.238 54.7474 289.766 53.3965 289.766 51.6777C289.766 49.9134 290.205 48.5267 291.084 47.5176C291.963 46.5085 293.171 46.0039 294.707 46.0039C296.133 46.0039 297.259 46.4368 298.086 47.3027C298.913 48.1686 299.326 49.36 299.326 50.877V52.1172H292.129C292.161 53.1654 292.445 53.9727 292.979 54.5391C293.512 55.099 294.264 55.3789 295.234 55.3789C295.872 55.3789 296.465 55.3203 297.012 55.2031C297.565 55.0794 298.158 54.8776 298.789 54.5977V56.4629C298.229 56.7298 297.663 56.9186 297.09 57.0293C296.517 57.14 295.863 57.1953 295.127 57.1953ZM294.707 47.7422C293.978 47.7422 293.392 47.9733 292.949 48.4355C292.513 48.8978 292.253 49.5716 292.168 50.457H297.07C297.057 49.5651 296.842 48.8913 296.426 48.4355C296.009 47.9733 295.436 47.7422 294.707 47.7422ZM307.412 46.0039C307.874 46.0039 308.255 46.0365 308.555 46.1016L308.33 48.2402C308.005 48.1621 307.666 48.123 307.314 48.123C306.396 48.123 305.651 48.4225 305.078 49.0215C304.512 49.6204 304.229 50.3984 304.229 51.3555V57H301.934V46.1992H303.73L304.033 48.1035H304.15C304.508 47.459 304.974 46.9479 305.547 46.5703C306.126 46.1927 306.748 46.0039 307.412 46.0039ZM312.861 57H310.566V46.1992H312.861V57ZM310.43 43.3379C310.43 42.9277 310.54 42.612 310.762 42.3906C310.99 42.1693 311.312 42.0586 311.729 42.0586C312.132 42.0586 312.445 42.1693 312.666 42.3906C312.894 42.612 313.008 42.9277 313.008 43.3379C313.008 43.7285 312.894 44.0378 312.666 44.2656C312.445 44.487 312.132 44.5977 311.729 44.5977C311.312 44.5977 310.99 44.487 310.762 44.2656C310.54 44.0378 310.43 43.7285 310.43 43.3379ZM320.869 57.1953C319.189 57.1953 317.874 56.707 316.924 55.7305C315.98 54.7474 315.508 53.3965 315.508 51.6777C315.508 49.9134 315.947 48.5267 316.826 47.5176C317.705 46.5085 318.913 46.0039 320.449 46.0039C321.875 46.0039 323.001 46.4368 323.828 47.3027C324.655 48.1686 325.068 49.36 325.068 50.877V52.1172H317.871C317.904 53.1654 318.187 53.9727 318.721 54.5391C319.255 55.099 320.007 55.3789 320.977 55.3789C321.615 55.3789 322.207 55.3203 322.754 55.2031C323.307 55.0794 323.9 54.8776 324.531 54.5977V56.4629C323.971 56.7298 323.405 56.9186 322.832 57.0293C322.259 57.14 321.605 57.1953 320.869 57.1953ZM320.449 47.7422C319.72 47.7422 319.134 47.9733 318.691 48.4355C318.255 48.8978 317.995 49.5716 317.91 50.457H322.812C322.799 49.5651 322.585 48.8913 322.168 48.4355C321.751 47.9733 321.178 47.7422 320.449 47.7422ZM337.178 57H334.873V50.3594C334.873 49.526 334.704 48.9043 334.365 48.4941C334.033 48.084 333.503 47.8789 332.773 47.8789C331.803 47.8789 331.094 48.1654 330.645 48.7383C330.195 49.3112 329.971 50.2715 329.971 51.6191V57H327.676V46.1992H329.473L329.795 47.6152H329.912C330.238 47.1009 330.7 46.7038 331.299 46.4238C331.898 46.1439 332.562 46.0039 333.291 46.0039C335.882 46.0039 337.178 47.3223 337.178 49.959V57ZM344.727 57.1953C343.092 57.1953 341.849 56.7201 340.996 55.7695C340.15 54.8125 339.727 53.4421 339.727 51.6582C339.727 49.8418 340.169 48.4453 341.055 47.4688C341.947 46.4922 343.232 46.0039 344.912 46.0039C346.051 46.0039 347.077 46.2155 347.988 46.6387L347.295 48.4844C346.325 48.1068 345.524 47.918 344.893 47.918C343.024 47.918 342.09 49.1582 342.09 51.6387C342.09 52.8496 342.321 53.7611 342.783 54.373C343.252 54.9785 343.936 55.2812 344.834 55.2812C345.856 55.2812 346.823 55.0273 347.734 54.5195V56.5215C347.324 56.7624 346.885 56.9349 346.416 57.0391C345.954 57.1432 345.391 57.1953 344.727 57.1953ZM354.99 57.1953C353.311 57.1953 351.995 56.707 351.045 55.7305C350.101 54.7474 349.629 53.3965 349.629 51.6777C349.629 49.9134 350.068 48.5267 350.947 47.5176C351.826 46.5085 353.034 46.0039 354.57 46.0039C355.996 46.0039 357.122 46.4368 357.949 47.3027C358.776 48.1686 359.189 49.36 359.189 50.877V52.1172H351.992C352.025 53.1654 352.308 53.9727 352.842 54.5391C353.376 55.099 354.128 55.3789 355.098 55.3789C355.736 55.3789 356.328 55.3203 356.875 55.2031C357.428 55.0794 358.021 54.8776 358.652 54.5977V56.4629C358.092 56.7298 357.526 56.9186 356.953 57.0293C356.38 57.14 355.726 57.1953 354.99 57.1953ZM354.57 47.7422C353.841 47.7422 353.255 47.9733 352.812 48.4355C352.376 48.8978 352.116 49.5716 352.031 50.457H356.934C356.921 49.5651 356.706 48.8913 356.289 48.4355C355.872 47.9733 355.299 47.7422 354.57 47.7422ZM373.75 57L373.291 55.4961H373.213C372.692 56.1536 372.168 56.6029 371.641 56.8438C371.113 57.0781 370.436 57.1953 369.609 57.1953C368.548 57.1953 367.718 56.9089 367.119 56.3359C366.527 55.763 366.23 54.9525 366.23 53.9043C366.23 52.791 366.644 51.9512 367.471 51.3848C368.298 50.8184 369.557 50.5091 371.25 50.457L373.115 50.3984V49.8223C373.115 49.1322 372.952 48.6178 372.627 48.2793C372.308 47.9342 371.81 47.7617 371.133 47.7617C370.579 47.7617 370.049 47.8431 369.541 48.0059C369.033 48.1686 368.545 48.3607 368.076 48.582L367.334 46.9414C367.92 46.6354 368.561 46.4043 369.258 46.248C369.954 46.0853 370.612 46.0039 371.23 46.0039C372.604 46.0039 373.639 46.3034 374.336 46.9023C375.039 47.5013 375.391 48.4421 375.391 49.7246V57H373.75ZM370.332 55.4375C371.165 55.4375 371.833 55.2064 372.334 54.7441C372.842 54.2754 373.096 53.6211 373.096 52.7812V51.8438L371.709 51.9023C370.628 51.9414 369.84 52.1237 369.346 52.4492C368.857 52.7682 368.613 53.2598 368.613 53.9238C368.613 54.4056 368.757 54.7799 369.043 55.0469C369.329 55.3073 369.759 55.4375 370.332 55.4375ZM384.072 46.0039C384.535 46.0039 384.915 46.0365 385.215 46.1016L384.99 48.2402C384.665 48.1621 384.326 48.123 383.975 48.123C383.057 48.123 382.311 48.4225 381.738 49.0215C381.172 49.6204 380.889 50.3984 380.889 51.3555V57H378.594V46.1992H380.391L380.693 48.1035H380.811C381.169 47.459 381.634 46.9479 382.207 46.5703C382.786 46.1927 383.408 46.0039 384.072 46.0039ZM391.943 57.1953C390.264 57.1953 388.949 56.707 387.998 55.7305C387.054 54.7474 386.582 53.3965 386.582 51.6777C386.582 49.9134 387.021 48.5267 387.9 47.5176C388.779 46.5085 389.987 46.0039 391.523 46.0039C392.949 46.0039 394.076 46.4368 394.902 47.3027C395.729 48.1686 396.143 49.36 396.143 50.877V52.1172H388.945C388.978 53.1654 389.261 53.9727 389.795 54.5391C390.329 55.099 391.081 55.3789 392.051 55.3789C392.689 55.3789 393.281 55.3203 393.828 55.2031C394.382 55.0794 394.974 54.8776 395.605 54.5977V56.4629C395.046 56.7298 394.479 56.9186 393.906 57.0293C393.333 57.14 392.679 57.1953 391.943 57.1953ZM391.523 47.7422C390.794 47.7422 390.208 47.9733 389.766 48.4355C389.329 48.8978 389.069 49.5716 388.984 50.457H393.887C393.874 49.5651 393.659 48.8913 393.242 48.4355C392.826 47.9733 392.253 47.7422 391.523 47.7422ZM50 73.1992H52.5L54.6973 79.3223C55.0293 80.1947 55.2507 81.015 55.3613 81.7832H55.4395C55.498 81.4251 55.6055 80.9922 55.7617 80.4844C55.918 79.9701 56.7448 77.5417 58.2422 73.1992H60.7227L56.1035 85.4355C55.2637 87.6816 53.8639 88.8047 51.9043 88.8047C51.3965 88.8047 50.9017 88.7493 50.4199 88.6387V86.8223C50.765 86.9004 51.1589 86.9395 51.6016 86.9395C52.7083 86.9395 53.4863 86.2982 53.9355 85.0156L54.3359 84L50 73.1992ZM71.9434 78.5801C71.9434 80.3444 71.4909 81.7214 70.5859 82.7109C69.681 83.7005 68.4212 84.1953 66.8066 84.1953C65.7975 84.1953 64.9056 83.9674 64.1309 83.5117C63.3561 83.056 62.7604 82.4017 62.3438 81.5488C61.9271 80.696 61.7188 79.7064 61.7188 78.5801C61.7188 76.8288 62.168 75.4616 63.0664 74.4785C63.9648 73.4954 65.2311 73.0039 66.8652 73.0039C68.4277 73.0039 69.6647 73.5085 70.5762 74.5176C71.4876 75.5202 71.9434 76.8743 71.9434 78.5801ZM64.082 78.5801C64.082 81.0736 65.0033 82.3203 66.8457 82.3203C68.6686 82.3203 69.5801 81.0736 69.5801 78.5801C69.5801 76.1126 68.6621 74.8789 66.8262 74.8789C65.8626 74.8789 65.1628 75.1979 64.7266 75.8359C64.2969 76.474 64.082 77.3887 64.082 78.5801ZM82.207 84L81.8848 82.584H81.7676C81.4486 83.0853 80.9928 83.4792 80.4004 83.7656C79.8145 84.0521 79.1439 84.1953 78.3887 84.1953C77.0801 84.1953 76.1035 83.8698 75.459 83.2188C74.8145 82.5677 74.4922 81.5814 74.4922 80.2598V73.1992H76.8066V79.8594C76.8066 80.6862 76.9759 81.3079 77.3145 81.7246C77.653 82.1348 78.1836 82.3398 78.9062 82.3398C79.8698 82.3398 80.5762 82.0534 81.0254 81.4805C81.4811 80.901 81.709 79.9342 81.709 78.5801V73.1992H84.0137V84H82.207ZM94.7754 84H92.4805V68.8047H94.7754V84ZM107.646 78.5801C107.646 80.3444 107.194 81.7214 106.289 82.7109C105.384 83.7005 104.124 84.1953 102.51 84.1953C101.501 84.1953 100.609 83.9674 99.834 83.5117C99.0592 83.056 98.4635 82.4017 98.0469 81.5488C97.6302 80.696 97.4219 79.7064 97.4219 78.5801C97.4219 76.8288 97.8711 75.4616 98.7695 74.4785C99.668 73.4954 100.934 73.0039 102.568 73.0039C104.131 73.0039 105.368 73.5085 106.279 74.5176C107.191 75.5202 107.646 76.8743 107.646 78.5801ZM99.7852 78.5801C99.7852 81.0736 100.706 82.3203 102.549 82.3203C104.372 82.3203 105.283 81.0736 105.283 78.5801C105.283 76.1126 104.365 74.8789 102.529 74.8789C101.566 74.8789 100.866 75.1979 100.43 75.8359C100 76.474 99.7852 77.3887 99.7852 78.5801ZM119.873 78.5801C119.873 80.3444 119.421 81.7214 118.516 82.7109C117.611 83.7005 116.351 84.1953 114.736 84.1953C113.727 84.1953 112.835 83.9674 112.061 83.5117C111.286 83.056 110.69 82.4017 110.273 81.5488C109.857 80.696 109.648 79.7064 109.648 78.5801C109.648 76.8288 110.098 75.4616 110.996 74.4785C111.895 73.4954 113.161 73.0039 114.795 73.0039C116.357 73.0039 117.594 73.5085 118.506 74.5176C119.417 75.5202 119.873 76.8743 119.873 78.5801ZM112.012 78.5801C112.012 81.0736 112.933 82.3203 114.775 82.3203C116.598 82.3203 117.51 81.0736 117.51 78.5801C117.51 76.1126 116.592 74.8789 114.756 74.8789C113.792 74.8789 113.092 75.1979 112.656 75.8359C112.227 76.474 112.012 77.3887 112.012 78.5801ZM124.736 78.2969L126.035 76.6758L129.297 73.1992H131.943L127.598 77.8379L132.217 84H129.521L126.055 79.2637L124.795 80.2988V84H122.52V68.8047H124.795V76.2168L124.678 78.2969H124.736ZM136.26 84H133.965V73.1992H136.26V84ZM133.828 70.3379C133.828 69.9277 133.939 69.612 134.16 69.3906C134.388 69.1693 134.71 69.0586 135.127 69.0586C135.531 69.0586 135.843 69.1693 136.064 69.3906C136.292 69.612 136.406 69.9277 136.406 70.3379C136.406 70.7285 136.292 71.0378 136.064 71.2656C135.843 71.487 135.531 71.5977 135.127 71.5977C134.71 71.5977 134.388 71.487 134.16 71.2656C133.939 71.0378 133.828 70.7285 133.828 70.3379ZM149.053 84H146.748V77.3594C146.748 76.526 146.579 75.9043 146.24 75.4941C145.908 75.084 145.378 74.8789 144.648 74.8789C143.678 74.8789 142.969 75.1654 142.52 75.7383C142.07 76.3112 141.846 77.2715 141.846 78.6191V84H139.551V73.1992H141.348L141.67 74.6152H141.787C142.113 74.1009 142.575 73.7038 143.174 73.4238C143.773 73.1439 144.437 73.0039 145.166 73.0039C147.757 73.0039 149.053 74.3223 149.053 76.959V84ZM161.367 73.1992V74.459L159.521 74.8008C159.691 75.0286 159.831 75.3086 159.941 75.6406C160.052 75.9727 160.107 76.3242 160.107 76.6953C160.107 77.8086 159.723 78.6842 158.955 79.3223C158.187 79.9603 157.129 80.2793 155.781 80.2793C155.436 80.2793 155.124 80.2533 154.844 80.2012C154.349 80.5072 154.102 80.8652 154.102 81.2754C154.102 81.5228 154.215 81.7083 154.443 81.832C154.678 81.9557 155.104 82.0176 155.723 82.0176H157.607C158.799 82.0176 159.704 82.2715 160.322 82.7793C160.941 83.2871 161.25 84.0195 161.25 84.9766C161.25 86.2005 160.745 87.1445 159.736 87.8086C158.727 88.4727 157.269 88.8047 155.361 88.8047C153.89 88.8047 152.767 88.5443 151.992 88.0234C151.217 87.5026 150.83 86.7604 150.83 85.7969C150.83 85.1328 151.038 84.5729 151.455 84.1172C151.878 83.668 152.467 83.3555 153.223 83.1797C152.917 83.0495 152.663 82.8411 152.461 82.5547C152.266 82.2617 152.168 81.9557 152.168 81.6367C152.168 81.2331 152.282 80.8913 152.51 80.6113C152.738 80.3314 153.076 80.0547 153.525 79.7812C152.965 79.5404 152.51 79.1497 152.158 78.6094C151.813 78.0625 151.641 77.4245 151.641 76.6953C151.641 75.5234 152.008 74.6152 152.744 73.9707C153.486 73.3262 154.541 73.0039 155.908 73.0039C156.214 73.0039 156.533 73.0267 156.865 73.0723C157.204 73.1113 157.458 73.1536 157.627 73.1992H161.367ZM152.881 85.6797C152.881 86.1745 153.102 86.5553 153.545 86.8223C153.994 87.0892 154.622 87.2227 155.43 87.2227C156.68 87.2227 157.611 87.0436 158.223 86.6855C158.835 86.3275 159.141 85.8522 159.141 85.2598C159.141 84.791 158.971 84.4557 158.633 84.2539C158.301 84.0586 157.679 83.9609 156.768 83.9609H155.029C154.372 83.9609 153.848 84.1139 153.457 84.4199C153.073 84.7324 152.881 85.1523 152.881 85.6797ZM153.867 76.6953C153.867 77.3724 154.04 77.8932 154.385 78.2578C154.736 78.6224 155.238 78.8047 155.889 78.8047C157.217 78.8047 157.881 78.0951 157.881 76.6758C157.881 75.9727 157.715 75.4323 157.383 75.0547C157.057 74.6706 156.559 74.4785 155.889 74.4785C155.225 74.4785 154.72 74.6673 154.375 75.0449C154.036 75.4225 153.867 75.9727 153.867 76.6953ZM173.994 74.9375H171.357V84H169.053V74.9375H167.275V73.8633L169.053 73.1602V72.457C169.053 71.181 169.352 70.237 169.951 69.625C170.55 69.0065 171.465 68.6973 172.695 68.6973C173.503 68.6973 174.297 68.8307 175.078 69.0977L174.473 70.8359C173.906 70.6536 173.366 70.5625 172.852 70.5625C172.331 70.5625 171.95 70.7253 171.709 71.0508C171.475 71.3698 171.357 71.8516 171.357 72.4961V73.1992H173.994V74.9375ZM185.42 78.5801C185.42 80.3444 184.967 81.7214 184.062 82.7109C183.158 83.7005 181.898 84.1953 180.283 84.1953C179.274 84.1953 178.382 83.9674 177.607 83.5117C176.833 83.056 176.237 82.4017 175.82 81.5488C175.404 80.696 175.195 79.7064 175.195 78.5801C175.195 76.8288 175.645 75.4616 176.543 74.4785C177.441 73.4954 178.708 73.0039 180.342 73.0039C181.904 73.0039 183.141 73.5085 184.053 74.5176C184.964 75.5202 185.42 76.8743 185.42 78.5801ZM177.559 78.5801C177.559 81.0736 178.48 82.3203 180.322 82.3203C182.145 82.3203 183.057 81.0736 183.057 78.5801C183.057 76.1126 182.139 74.8789 180.303 74.8789C179.339 74.8789 178.639 75.1979 178.203 75.8359C177.773 76.474 177.559 77.3887 177.559 78.5801ZM193.545 73.0039C194.007 73.0039 194.388 73.0365 194.688 73.1016L194.463 75.2402C194.137 75.1621 193.799 75.123 193.447 75.123C192.529 75.123 191.784 75.4225 191.211 76.0215C190.645 76.6204 190.361 77.3984 190.361 78.3555V84H188.066V73.1992H189.863L190.166 75.1035H190.283C190.641 74.459 191.107 73.9479 191.68 73.5703C192.259 73.1927 192.881 73.0039 193.545 73.0039ZM197.822 79.6641V79.0391C197.822 78.3229 197.952 77.7272 198.213 77.252C198.473 76.7767 198.929 76.2852 199.58 75.7773C200.355 75.1654 200.853 74.6901 201.074 74.3516C201.302 74.013 201.416 73.6094 201.416 73.1406C201.416 72.5938 201.234 72.1738 200.869 71.8809C200.505 71.5879 199.98 71.4414 199.297 71.4414C198.678 71.4414 198.105 71.5293 197.578 71.7051C197.051 71.8809 196.536 72.0924 196.035 72.3398L195.215 70.6211C196.536 69.8854 197.952 69.5176 199.463 69.5176C200.739 69.5176 201.751 69.8301 202.5 70.4551C203.249 71.0801 203.623 71.9427 203.623 73.043C203.623 73.5312 203.551 73.9674 203.408 74.3516C203.265 74.7292 203.047 75.0905 202.754 75.4355C202.467 75.7806 201.969 76.2298 201.26 76.7832C200.654 77.2585 200.247 77.6523 200.039 77.9648C199.837 78.2773 199.736 78.6973 199.736 79.2246V79.6641H197.822ZM197.422 82.7793C197.422 81.7962 197.9 81.3047 198.857 81.3047C199.326 81.3047 199.684 81.4349 199.932 81.6953C200.179 81.9492 200.303 82.3105 200.303 82.7793C200.303 83.2415 200.176 83.6094 199.922 83.8828C199.674 84.1497 199.32 84.2832 198.857 84.2832C198.395 84.2832 198.04 84.153 197.793 83.8926C197.546 83.6257 197.422 83.2546 197.422 82.7793Z" fill="white"/>
<g filter="url(#filter0_d_5_182)">
<rect x="50" y="109" width="119" height="45" rx="5" fill="#FF7F50" shape-rendering="crispEdges"/>
<path d="M69.0156 134.461C69.0156 135.466 68.651 136.25 67.9219 136.812C67.1927 137.375 66.2031 137.656 64.9531 137.656C63.599 137.656 62.5573 137.482 61.8281 137.133V135.852C62.2969 136.049 62.8073 136.206 63.3594 136.32C63.9115 136.435 64.4583 136.492 65 136.492C65.8854 136.492 66.5521 136.326 67 135.992C67.4479 135.654 67.6719 135.185 67.6719 134.586C67.6719 134.19 67.5911 133.867 67.4297 133.617C67.2734 133.362 67.0078 133.128 66.6328 132.914C66.263 132.701 65.6979 132.458 64.9375 132.188C63.875 131.807 63.1146 131.357 62.6562 130.836C62.2031 130.315 61.9766 129.635 61.9766 128.797C61.9766 127.917 62.3073 127.216 62.9688 126.695C63.6302 126.174 64.5052 125.914 65.5938 125.914C66.7292 125.914 67.7734 126.122 68.7266 126.539L68.3125 127.695C67.3698 127.299 66.4531 127.102 65.5625 127.102C64.8594 127.102 64.3099 127.253 63.9141 127.555C63.5182 127.857 63.3203 128.276 63.3203 128.812C63.3203 129.208 63.3932 129.534 63.5391 129.789C63.6849 130.039 63.9297 130.271 64.2734 130.484C64.6224 130.693 65.1536 130.924 65.8672 131.18C67.0651 131.607 67.888 132.065 68.3359 132.555C68.7891 133.044 69.0156 133.68 69.0156 134.461ZM74.7766 137.656C73.511 137.656 72.511 137.271 71.7766 136.5C71.0475 135.729 70.6829 134.659 70.6829 133.289C70.6829 131.909 71.0214 130.812 71.6985 130C72.3808 129.188 73.2949 128.781 74.4407 128.781C75.5136 128.781 76.3626 129.135 76.9876 129.844C77.6126 130.547 77.9251 131.477 77.9251 132.633V133.453H72.0266C72.0527 134.458 72.3053 135.221 72.7844 135.742C73.2688 136.263 73.9485 136.523 74.8235 136.523C75.7454 136.523 76.6568 136.331 77.5579 135.945V137.102C77.0996 137.299 76.6647 137.44 76.2532 137.523C75.8469 137.612 75.3548 137.656 74.7766 137.656ZM74.4251 129.867C73.7376 129.867 73.1881 130.091 72.7766 130.539C72.3704 130.987 72.1308 131.607 72.0579 132.398H76.5344C76.5344 131.581 76.3522 130.956 75.9876 130.523C75.623 130.086 75.1022 129.867 74.4251 129.867ZM85.4126 137.5L85.1548 136.281H85.0923C84.6653 136.818 84.2382 137.182 83.8111 137.375C83.3892 137.562 82.8606 137.656 82.2251 137.656C81.3762 137.656 80.7095 137.438 80.2251 137C79.746 136.562 79.5064 135.94 79.5064 135.133C79.5064 133.404 80.8892 132.497 83.6548 132.414L85.108 132.367V131.836C85.108 131.164 84.9621 130.669 84.6705 130.352C84.384 130.029 83.9231 129.867 83.2876 129.867C82.5741 129.867 81.7668 130.086 80.8658 130.523L80.4673 129.531C80.8892 129.302 81.3501 129.122 81.8501 128.992C82.3554 128.862 82.8606 128.797 83.3658 128.797C84.3866 128.797 85.1418 129.023 85.6314 129.477C86.1262 129.93 86.3736 130.656 86.3736 131.656V137.5H85.4126ZM82.483 136.586C83.2903 136.586 83.9231 136.365 84.3814 135.922C84.8449 135.479 85.0767 134.859 85.0767 134.062V133.289L83.7798 133.344C82.7486 133.38 82.0038 133.542 81.5455 133.828C81.0923 134.109 80.8658 134.549 80.8658 135.148C80.8658 135.617 81.0064 135.974 81.2876 136.219C81.5741 136.464 81.9725 136.586 82.483 136.586ZM100.591 137.5L99.1691 133.867H94.5909L93.1847 137.5H91.8409L96.3566 126.031H97.4737L101.966 137.5H100.591ZM98.755 132.672L97.4269 129.133C97.255 128.685 97.0779 128.135 96.8956 127.484C96.781 127.984 96.617 128.534 96.4034 129.133L95.0597 132.672H98.755ZM106.766 137.656C105.526 137.656 104.565 137.276 103.883 136.516C103.206 135.75 102.868 134.669 102.868 133.273C102.868 131.841 103.211 130.734 103.899 129.953C104.592 129.172 105.576 128.781 106.852 128.781C107.263 128.781 107.675 128.826 108.086 128.914C108.498 129.003 108.821 129.107 109.055 129.227L108.657 130.328C108.37 130.214 108.058 130.12 107.719 130.047C107.381 129.969 107.081 129.93 106.821 129.93C105.081 129.93 104.211 131.039 104.211 133.258C104.211 134.31 104.422 135.117 104.844 135.68C105.271 136.242 105.901 136.523 106.735 136.523C107.448 136.523 108.18 136.37 108.93 136.062V137.211C108.357 137.508 107.636 137.656 106.766 137.656ZM113.738 136.586C113.967 136.586 114.188 136.57 114.402 136.539C114.616 136.503 114.785 136.466 114.91 136.43V137.422C114.769 137.49 114.561 137.544 114.285 137.586C114.014 137.633 113.769 137.656 113.55 137.656C111.894 137.656 111.066 136.784 111.066 135.039V129.945H109.84V129.32L111.066 128.781L111.613 126.953H112.363V128.938H114.847V129.945H112.363V134.984C112.363 135.5 112.485 135.896 112.73 136.172C112.975 136.448 113.311 136.586 113.738 136.586ZM117.929 137.5H116.632V128.938H117.929V137.5ZM116.522 126.617C116.522 126.32 116.595 126.104 116.741 125.969C116.887 125.828 117.069 125.758 117.288 125.758C117.496 125.758 117.676 125.828 117.827 125.969C117.978 126.109 118.054 126.326 118.054 126.617C118.054 126.909 117.978 127.128 117.827 127.273C117.676 127.414 117.496 127.484 117.288 127.484C117.069 127.484 116.887 127.414 116.741 127.273C116.595 127.128 116.522 126.909 116.522 126.617ZM122.557 137.5L119.307 128.938H120.697L122.541 134.016C122.958 135.203 123.203 135.974 123.276 136.328H123.338C123.395 136.052 123.575 135.482 123.877 134.617C124.184 133.747 124.869 131.854 125.932 128.938H127.322L124.072 137.5H122.557ZM129.998 137.5H128.701V128.938H129.998V137.5ZM128.591 126.617C128.591 126.32 128.664 126.104 128.81 125.969C128.956 125.828 129.138 125.758 129.357 125.758C129.565 125.758 129.745 125.828 129.896 125.969C130.047 126.109 130.123 126.326 130.123 126.617C130.123 126.909 130.047 127.128 129.896 127.273C129.745 127.414 129.565 127.484 129.357 127.484C129.138 127.484 128.956 127.414 128.81 127.273C128.664 127.128 128.591 126.909 128.591 126.617ZM135.516 136.586C135.746 136.586 135.967 136.57 136.18 136.539C136.394 136.503 136.563 136.466 136.688 136.43V137.422C136.548 137.49 136.339 137.544 136.063 137.586C135.792 137.633 135.548 137.656 135.329 137.656C133.673 137.656 132.844 136.784 132.844 135.039V129.945H131.618V129.32L132.844 128.781L133.391 126.953H134.141V128.938H136.626V129.945H134.141V134.984C134.141 135.5 134.264 135.896 134.509 136.172C134.753 136.448 135.089 136.586 135.516 136.586ZM139.707 137.5H138.41V128.938H139.707V137.5ZM138.301 126.617C138.301 126.32 138.374 126.104 138.52 125.969C138.665 125.828 138.848 125.758 139.066 125.758C139.275 125.758 139.454 125.828 139.606 125.969C139.757 126.109 139.832 126.326 139.832 126.617C139.832 126.909 139.757 127.128 139.606 127.273C139.454 127.414 139.275 127.484 139.066 127.484C138.848 127.484 138.665 127.414 138.52 127.273C138.374 127.128 138.301 126.909 138.301 126.617ZM146.077 137.656C144.812 137.656 143.812 137.271 143.077 136.5C142.348 135.729 141.984 134.659 141.984 133.289C141.984 131.909 142.322 130.812 142.999 130C143.682 129.188 144.596 128.781 145.742 128.781C146.814 128.781 147.663 129.135 148.288 129.844C148.913 130.547 149.226 131.477 149.226 132.633V133.453H143.327C143.354 134.458 143.606 135.221 144.085 135.742C144.57 136.263 145.249 136.523 146.124 136.523C147.046 136.523 147.958 136.331 148.859 135.945V137.102C148.4 137.299 147.965 137.44 147.554 137.523C147.148 137.612 146.656 137.656 146.077 137.656ZM145.726 129.867C145.038 129.867 144.489 130.091 144.077 130.539C143.671 130.987 143.432 131.607 143.359 132.398H147.835C147.835 131.581 147.653 130.956 147.288 130.523C146.924 130.086 146.403 129.867 145.726 129.867ZM156.971 135.164C156.971 135.961 156.674 136.576 156.081 137.008C155.487 137.44 154.654 137.656 153.581 137.656C152.445 137.656 151.56 137.477 150.924 137.117V135.914C151.336 136.122 151.776 136.286 152.245 136.406C152.719 136.526 153.174 136.586 153.612 136.586C154.289 136.586 154.81 136.479 155.174 136.266C155.539 136.047 155.721 135.716 155.721 135.273C155.721 134.94 155.575 134.656 155.284 134.422C154.997 134.182 154.435 133.901 153.596 133.578C152.799 133.281 152.232 133.023 151.893 132.805C151.56 132.581 151.31 132.328 151.143 132.047C150.982 131.766 150.901 131.43 150.901 131.039C150.901 130.341 151.185 129.792 151.753 129.391C152.32 128.984 153.099 128.781 154.088 128.781C155.01 128.781 155.911 128.969 156.792 129.344L156.331 130.398C155.471 130.044 154.693 129.867 153.995 129.867C153.38 129.867 152.917 129.964 152.604 130.156C152.292 130.349 152.135 130.615 152.135 130.953C152.135 131.182 152.193 131.378 152.307 131.539C152.427 131.701 152.617 131.854 152.878 132C153.138 132.146 153.638 132.357 154.378 132.633C155.393 133.003 156.078 133.375 156.432 133.75C156.792 134.125 156.971 134.596 156.971 135.164Z" fill="white"/>
<rect x="50.5" y="109.5" width="118" height="44" rx="4.5" stroke="white" shape-rendering="crispEdges"/>
</g>
<g filter="url(#filter1_d_5_182)">
<rect x="184" y="109" width="119" height="45" rx="5" fill="#FF7F50" shape-rendering="crispEdges"/>
<path d="M232.812 129.406C232.812 130.562 232.417 131.453 231.625 132.078C230.839 132.698 229.711 133.008 228.242 133.008H226.898V137.5H225.57V126.078H228.531C231.385 126.078 232.812 127.188 232.812 129.406ZM226.898 131.867H228.094C229.271 131.867 230.122 131.677 230.648 131.297C231.174 130.917 231.438 130.307 231.438 129.469C231.438 128.714 231.19 128.151 230.695 127.781C230.201 127.411 229.43 127.227 228.383 127.227H226.898V131.867ZM240.284 137.5L240.027 136.281H239.964C239.537 136.818 239.11 137.182 238.683 137.375C238.261 137.562 237.732 137.656 237.097 137.656C236.248 137.656 235.581 137.438 235.097 137C234.618 136.562 234.378 135.94 234.378 135.133C234.378 133.404 235.761 132.497 238.527 132.414L239.98 132.367V131.836C239.98 131.164 239.834 130.669 239.542 130.352C239.256 130.029 238.795 129.867 238.159 129.867C237.446 129.867 236.639 130.086 235.738 130.523L235.339 129.531C235.761 129.302 236.222 129.122 236.722 128.992C237.227 128.862 237.732 128.797 238.238 128.797C239.258 128.797 240.014 129.023 240.503 129.477C240.998 129.93 241.245 130.656 241.245 131.656V137.5H240.284ZM237.355 136.586C238.162 136.586 238.795 136.365 239.253 135.922C239.717 135.479 239.949 134.859 239.949 134.062V133.289L238.652 133.344C237.62 133.38 236.876 133.542 236.417 133.828C235.964 134.109 235.738 134.549 235.738 135.148C235.738 135.617 235.878 135.974 236.159 136.219C236.446 136.464 236.844 136.586 237.355 136.586ZM247.835 128.781C248.215 128.781 248.556 128.812 248.858 128.875L248.678 130.078C248.324 130 248.012 129.961 247.741 129.961C247.048 129.961 246.454 130.242 245.96 130.805C245.47 131.367 245.225 132.068 245.225 132.906V137.5H243.928V128.938H244.999L245.147 130.523H245.21C245.527 129.966 245.91 129.536 246.358 129.234C246.806 128.932 247.298 128.781 247.835 128.781ZM253.228 136.586C253.458 136.586 253.679 136.57 253.892 136.539C254.106 136.503 254.275 136.466 254.4 136.43V137.422C254.26 137.49 254.051 137.544 253.775 137.586C253.504 137.633 253.26 137.656 253.041 137.656C251.385 137.656 250.556 136.784 250.556 135.039V129.945H249.33V129.32L250.556 128.781L251.103 126.953H251.853V128.938H254.338V129.945H251.853V134.984C251.853 135.5 251.976 135.896 252.221 136.172C252.465 136.448 252.801 136.586 253.228 136.586ZM254.763 128.938H256.153L258.028 133.82C258.44 134.935 258.695 135.74 258.794 136.234H258.857C258.924 135.969 259.065 135.516 259.278 134.875C259.497 134.229 260.206 132.25 261.403 128.938H262.794L259.114 138.688C258.75 139.651 258.323 140.333 257.833 140.734C257.349 141.141 256.752 141.344 256.044 141.344C255.648 141.344 255.258 141.299 254.872 141.211V140.172C255.159 140.234 255.479 140.266 255.833 140.266C256.724 140.266 257.359 139.766 257.739 138.766L258.216 137.547L254.763 128.938Z" fill="white"/>
<rect x="184.5" y="109.5" width="118" height="44" rx="4.5" stroke="white" shape-rendering="crispEdges"/>
</g>
<g filter="url(#filter2_d_5_182)">
<rect x="318" y="109" width="119" height="45" rx="5" fill="#FF7F50" shape-rendering="crispEdges"/>
<path d="M340.898 132.75V137.5H339.57V126.078H342.703C344.104 126.078 345.138 126.346 345.805 126.883C346.477 127.419 346.812 128.227 346.812 129.305C346.812 130.815 346.047 131.836 344.516 132.367L347.617 137.5H346.047L343.281 132.75H340.898ZM340.898 131.609H342.719C343.656 131.609 344.344 131.424 344.781 131.055C345.219 130.68 345.438 130.12 345.438 129.375C345.438 128.62 345.214 128.076 344.766 127.742C344.323 127.409 343.609 127.242 342.625 127.242H340.898V131.609ZM352.886 137.656C351.62 137.656 350.62 137.271 349.886 136.5C349.157 135.729 348.792 134.659 348.792 133.289C348.792 131.909 349.131 130.812 349.808 130C350.49 129.188 351.404 128.781 352.55 128.781C353.623 128.781 354.472 129.135 355.097 129.844C355.722 130.547 356.034 131.477 356.034 132.633V133.453H350.136C350.162 134.458 350.415 135.221 350.894 135.742C351.378 136.263 352.058 136.523 352.933 136.523C353.855 136.523 354.766 136.331 355.667 135.945V137.102C355.209 137.299 354.774 137.44 354.363 137.523C353.956 137.612 353.464 137.656 352.886 137.656ZM352.534 129.867C351.847 129.867 351.297 130.091 350.886 130.539C350.48 130.987 350.24 131.607 350.167 132.398H354.644C354.644 131.581 354.462 130.956 354.097 130.523C353.732 130.086 353.212 129.867 352.534 129.867ZM359.553 137.5H358.256V125.344H359.553V137.5ZM367.572 137.5L367.314 136.281H367.252C366.825 136.818 366.398 137.182 365.971 137.375C365.549 137.562 365.02 137.656 364.385 137.656C363.536 137.656 362.869 137.438 362.385 137C361.905 136.562 361.666 135.94 361.666 135.133C361.666 133.404 363.049 132.497 365.814 132.414L367.267 132.367V131.836C367.267 131.164 367.122 130.669 366.83 130.352C366.543 130.029 366.083 129.867 365.447 129.867C364.734 129.867 363.926 130.086 363.025 130.523L362.627 129.531C363.049 129.302 363.51 129.122 364.01 128.992C364.515 128.862 365.02 128.797 365.525 128.797C366.546 128.797 367.301 129.023 367.791 129.477C368.286 129.93 368.533 130.656 368.533 131.656V137.5H367.572ZM364.642 136.586C365.45 136.586 366.083 136.365 366.541 135.922C367.004 135.479 367.236 134.859 367.236 134.062V133.289L365.939 133.344C364.908 133.38 364.163 133.542 363.705 133.828C363.252 134.109 363.025 134.549 363.025 135.148C363.025 135.617 363.166 135.974 363.447 136.219C363.734 136.464 364.132 136.586 364.642 136.586ZM373.278 133.117L370.302 128.938H371.778L374.036 132.219L376.286 128.938H377.747L374.771 133.117L377.903 137.5H376.435L374.036 134.031L371.614 137.5H370.146L373.278 133.117ZM384.875 137.5L384.618 136.281H384.555C384.128 136.818 383.701 137.182 383.274 137.375C382.852 137.562 382.323 137.656 381.688 137.656C380.839 137.656 380.172 137.438 379.688 137C379.209 136.562 378.969 135.94 378.969 135.133C378.969 133.404 380.352 132.497 383.118 132.414L384.571 132.367V131.836C384.571 131.164 384.425 130.669 384.133 130.352C383.847 130.029 383.386 129.867 382.75 129.867C382.037 129.867 381.23 130.086 380.328 130.523L379.93 129.531C380.352 129.302 380.813 129.122 381.313 128.992C381.818 128.862 382.323 128.797 382.828 128.797C383.849 128.797 384.605 129.023 385.094 129.477C385.589 129.93 385.836 130.656 385.836 131.656V137.5H384.875ZM381.946 136.586C382.753 136.586 383.386 136.365 383.844 135.922C384.308 135.479 384.539 134.859 384.539 134.062V133.289L383.243 133.344C382.211 133.38 381.467 133.542 381.008 133.828C380.555 134.109 380.328 134.549 380.328 135.148C380.328 135.617 380.469 135.974 380.75 136.219C381.037 136.464 381.435 136.586 381.946 136.586ZM391.285 136.586C391.514 136.586 391.735 136.57 391.949 136.539C392.162 136.503 392.332 136.466 392.457 136.43V137.422C392.316 137.49 392.108 137.544 391.832 137.586C391.561 137.633 391.316 137.656 391.097 137.656C389.441 137.656 388.613 136.784 388.613 135.039V129.945H387.386V129.32L388.613 128.781L389.16 126.953H389.91V128.938H392.394V129.945H389.91V134.984C389.91 135.5 390.032 135.896 390.277 136.172C390.522 136.448 390.858 136.586 391.285 136.586ZM395.476 137.5H394.179V128.938H395.476V137.5ZM394.069 126.617C394.069 126.32 394.142 126.104 394.288 125.969C394.434 125.828 394.616 125.758 394.835 125.758C395.043 125.758 395.223 125.828 395.374 125.969C395.525 126.109 395.601 126.326 395.601 126.617C395.601 126.909 395.525 127.128 395.374 127.273C395.223 127.414 395.043 127.484 394.835 127.484C394.616 127.484 394.434 127.414 394.288 127.273C394.142 127.128 394.069 126.909 394.069 126.617ZM405.619 133.211C405.619 134.607 405.268 135.698 404.565 136.484C403.862 137.266 402.89 137.656 401.651 137.656C400.885 137.656 400.205 137.477 399.612 137.117C399.018 136.758 398.559 136.242 398.237 135.57C397.914 134.898 397.752 134.112 397.752 133.211C397.752 131.815 398.101 130.729 398.799 129.953C399.497 129.172 400.466 128.781 401.705 128.781C402.903 128.781 403.854 129.18 404.557 129.977C405.265 130.773 405.619 131.852 405.619 133.211ZM399.096 133.211C399.096 134.305 399.315 135.138 399.752 135.711C400.19 136.284 400.833 136.57 401.682 136.57C402.531 136.57 403.174 136.286 403.612 135.719C404.054 135.146 404.276 134.31 404.276 133.211C404.276 132.122 404.054 131.297 403.612 130.734C403.174 130.167 402.526 129.883 401.666 129.883C400.817 129.883 400.177 130.161 399.744 130.719C399.312 131.276 399.096 132.107 399.096 133.211ZM413.763 137.5V131.961C413.763 131.263 413.604 130.742 413.287 130.398C412.969 130.055 412.472 129.883 411.794 129.883C410.899 129.883 410.242 130.125 409.826 130.609C409.409 131.094 409.201 131.893 409.201 133.008V137.5H407.904V128.938H408.958L409.169 130.109H409.232C409.498 129.688 409.87 129.362 410.349 129.133C410.828 128.898 411.362 128.781 411.951 128.781C412.982 128.781 413.758 129.031 414.279 129.531C414.8 130.026 415.06 130.82 415.06 131.914V137.5H413.763Z" fill="white"/>
<rect x="318.5" y="109.5" width="118" height="44" rx="4.5" stroke="white" shape-rendering="crispEdges"/>
</g>
<g filter="url(#filter3_d_5_182)">
<rect x="452" y="109" width="119" height="45" rx="5" fill="#FF7F50" shape-rendering="crispEdges"/>
<path d="M479.312 129.406C479.312 130.562 478.917 131.453 478.125 132.078C477.339 132.698 476.211 133.008 474.742 133.008H473.398V137.5H472.07V126.078H475.031C477.885 126.078 479.312 127.188 479.312 129.406ZM473.398 131.867H474.594C475.771 131.867 476.622 131.677 477.148 131.297C477.674 130.917 477.938 130.307 477.938 129.469C477.938 128.714 477.69 128.151 477.195 127.781C476.701 127.411 475.93 127.227 474.883 127.227H473.398V131.867ZM488.909 133.211C488.909 134.607 488.558 135.698 487.855 136.484C487.152 137.266 486.18 137.656 484.941 137.656C484.175 137.656 483.495 137.477 482.902 137.117C482.308 136.758 481.85 136.242 481.527 135.57C481.204 134.898 481.042 134.112 481.042 133.211C481.042 131.815 481.391 130.729 482.089 129.953C482.787 129.172 483.756 128.781 484.995 128.781C486.193 128.781 487.144 129.18 487.847 129.977C488.555 130.773 488.909 131.852 488.909 133.211ZM482.386 133.211C482.386 134.305 482.605 135.138 483.042 135.711C483.48 136.284 484.123 136.57 484.972 136.57C485.821 136.57 486.464 136.286 486.902 135.719C487.344 135.146 487.566 134.31 487.566 133.211C487.566 132.122 487.344 131.297 486.902 130.734C486.464 130.167 485.816 129.883 484.956 129.883C484.107 129.883 483.467 130.161 483.034 130.719C482.602 131.276 482.386 132.107 482.386 133.211ZM498.186 137.5L496.616 132.477C496.517 132.169 496.332 131.471 496.061 130.383H495.999C495.79 131.294 495.608 131.997 495.452 132.492L493.835 137.5H492.335L489.999 128.938H491.358C491.91 131.089 492.329 132.727 492.616 133.852C492.907 134.977 493.074 135.734 493.116 136.125H493.178C493.236 135.828 493.327 135.445 493.452 134.977C493.582 134.503 493.694 134.128 493.788 133.852L495.358 128.938H496.764L498.295 133.852C498.587 134.747 498.785 135.5 498.889 136.109H498.952C498.973 135.922 499.027 135.633 499.116 135.242C499.21 134.852 499.754 132.75 500.749 128.938H502.092L499.725 137.5H498.186ZM507.267 137.656C506.002 137.656 505.002 137.271 504.267 136.5C503.538 135.729 503.174 134.659 503.174 133.289C503.174 131.909 503.512 130.812 504.189 130C504.872 129.188 505.786 128.781 506.931 128.781C508.004 128.781 508.853 129.135 509.478 129.844C510.103 130.547 510.416 131.477 510.416 132.633V133.453H504.517C504.543 134.458 504.796 135.221 505.275 135.742C505.76 136.263 506.439 136.523 507.314 136.523C508.236 136.523 509.148 136.331 510.049 135.945V137.102C509.59 137.299 509.155 137.44 508.744 137.523C508.338 137.612 507.846 137.656 507.267 137.656ZM506.916 129.867C506.228 129.867 505.679 130.091 505.267 130.539C504.861 130.987 504.622 131.607 504.549 132.398H509.025C509.025 131.581 508.843 130.956 508.478 130.523C508.114 130.086 507.593 129.867 506.916 129.867ZM516.544 128.781C516.924 128.781 517.265 128.812 517.567 128.875L517.388 130.078C517.034 130 516.721 129.961 516.45 129.961C515.758 129.961 515.164 130.242 514.669 130.805C514.179 131.367 513.935 132.068 513.935 132.906V137.5H512.638V128.938H513.708L513.857 130.523H513.919C514.237 129.966 514.62 129.536 515.067 129.234C515.515 128.932 516.008 128.781 516.544 128.781ZM523.157 128.797C524.282 128.797 525.154 129.182 525.774 129.953C526.399 130.719 526.711 131.805 526.711 133.211C526.711 134.617 526.396 135.711 525.766 136.492C525.141 137.268 524.271 137.656 523.157 137.656C522.599 137.656 522.089 137.555 521.625 137.352C521.167 137.143 520.782 136.826 520.469 136.398H520.375L520.102 137.5H519.172V125.344H520.469V128.297C520.469 128.958 520.448 129.552 520.407 130.078H520.469C521.073 129.224 521.969 128.797 523.157 128.797ZM522.969 129.883C522.084 129.883 521.446 130.138 521.055 130.648C520.664 131.154 520.469 132.008 520.469 133.211C520.469 134.414 520.67 135.276 521.071 135.797C521.472 136.312 522.115 136.57 523 136.57C523.797 136.57 524.391 136.281 524.782 135.703C525.172 135.12 525.368 134.284 525.368 133.195C525.368 132.081 525.172 131.25 524.782 130.703C524.391 130.156 523.787 129.883 522.969 129.883ZM536.379 133.211C536.379 134.607 536.027 135.698 535.324 136.484C534.621 137.266 533.649 137.656 532.41 137.656C531.644 137.656 530.965 137.477 530.371 137.117C529.777 136.758 529.319 136.242 528.996 135.57C528.673 134.898 528.511 134.112 528.511 133.211C528.511 131.815 528.86 130.729 529.558 129.953C530.256 129.172 531.225 128.781 532.465 128.781C533.662 128.781 534.613 129.18 535.316 129.977C536.024 130.773 536.379 131.852 536.379 133.211ZM529.855 133.211C529.855 134.305 530.074 135.138 530.511 135.711C530.949 136.284 531.592 136.57 532.441 136.57C533.29 136.57 533.933 136.286 534.371 135.719C534.813 135.146 535.035 134.31 535.035 133.211C535.035 132.122 534.813 131.297 534.371 130.734C533.933 130.167 533.285 129.883 532.425 129.883C531.576 129.883 530.936 130.161 530.504 130.719C530.071 131.276 529.855 132.107 529.855 133.211ZM543.929 137.5L543.671 136.281H543.608C543.181 136.818 542.754 137.182 542.327 137.375C541.905 137.562 541.377 137.656 540.741 137.656C539.892 137.656 539.226 137.438 538.741 137C538.262 136.562 538.022 135.94 538.022 135.133C538.022 133.404 539.405 132.497 542.171 132.414L543.624 132.367V131.836C543.624 131.164 543.478 130.669 543.186 130.352C542.9 130.029 542.439 129.867 541.804 129.867C541.09 129.867 540.283 130.086 539.382 130.523L538.983 129.531C539.405 129.302 539.866 129.122 540.366 128.992C540.871 128.862 541.377 128.797 541.882 128.797C542.903 128.797 543.658 129.023 544.147 129.477C544.642 129.93 544.89 130.656 544.89 131.656V137.5H543.929ZM540.999 136.586C541.806 136.586 542.439 136.365 542.897 135.922C543.361 135.479 543.593 134.859 543.593 134.062V133.289L542.296 133.344C541.265 133.38 540.52 133.542 540.061 133.828C539.608 134.109 539.382 134.549 539.382 135.148C539.382 135.617 539.522 135.974 539.804 136.219C540.09 136.464 540.489 136.586 540.999 136.586ZM550.338 136.586C550.567 136.586 550.789 136.57 551.002 136.539C551.216 136.503 551.385 136.466 551.51 136.43V137.422C551.369 137.49 551.161 137.544 550.885 137.586C550.614 137.633 550.369 137.656 550.151 137.656C548.494 137.656 547.666 136.784 547.666 135.039V129.945H546.44V129.32L547.666 128.781L548.213 126.953H548.963V128.938H551.447V129.945H548.963V134.984C548.963 135.5 549.085 135.896 549.33 136.172C549.575 136.448 549.911 136.586 550.338 136.586Z" fill="white"/>
<rect x="452.5" y="109.5" width="118" height="44" rx="4.5" stroke="white" shape-rendering="crispEdges"/>
</g>
<g filter="url(#filter4_d_5_182)">
<rect x="50" y="169" width="119" height="45" rx="5" fill="#FF7F50" shape-rendering="crispEdges"/>
<path d="M74.4609 187.102C73.2057 187.102 72.2135 187.521 71.4844 188.359C70.7604 189.193 70.3984 190.336 70.3984 191.789C70.3984 193.284 70.7474 194.44 71.4453 195.258C72.1484 196.07 73.1484 196.477 74.4453 196.477C75.2422 196.477 76.151 196.333 77.1719 196.047V197.211C76.3802 197.508 75.4036 197.656 74.2422 197.656C72.5599 197.656 71.2604 197.146 70.3438 196.125C69.4323 195.104 68.9766 193.654 68.9766 191.773C68.9766 190.596 69.1953 189.565 69.6328 188.68C70.0755 187.794 70.7109 187.112 71.5391 186.633C72.3724 186.154 73.3516 185.914 74.4766 185.914C75.6745 185.914 76.7214 186.133 77.6172 186.57L77.0547 187.711C76.1901 187.305 75.3255 187.102 74.4609 187.102ZM84.7376 197.5L84.4798 196.281H84.4173C83.9902 196.818 83.5631 197.182 83.136 197.375C82.7141 197.562 82.1855 197.656 81.5501 197.656C80.7011 197.656 80.0344 197.438 79.5501 197C79.0709 196.562 78.8313 195.94 78.8313 195.133C78.8313 193.404 80.2141 192.497 82.9798 192.414L84.4329 192.367V191.836C84.4329 191.164 84.2871 190.669 83.9954 190.352C83.7089 190.029 83.248 189.867 82.6126 189.867C81.899 189.867 81.0917 190.086 80.1907 190.523L79.7923 189.531C80.2141 189.302 80.6751 189.122 81.1751 188.992C81.6803 188.862 82.1855 188.797 82.6907 188.797C83.7115 188.797 84.4667 189.023 84.9563 189.477C85.4511 189.93 85.6985 190.656 85.6985 191.656V197.5H84.7376ZM81.8079 196.586C82.6152 196.586 83.248 196.365 83.7063 195.922C84.1699 195.479 84.4016 194.859 84.4016 194.062V193.289L83.1048 193.344C82.0735 193.38 81.3287 193.542 80.8704 193.828C80.4173 194.109 80.1907 194.549 80.1907 195.148C80.1907 195.617 80.3313 195.974 80.6126 196.219C80.899 196.464 81.2975 196.586 81.8079 196.586ZM91.147 196.586C91.3762 196.586 91.5975 196.57 91.8111 196.539C92.0246 196.503 92.1939 196.466 92.3189 196.43V197.422C92.1783 197.49 91.9699 197.544 91.6939 197.586C91.4231 197.633 91.1783 197.656 90.9595 197.656C89.3033 197.656 88.4751 196.784 88.4751 195.039V189.945H87.2486V189.32L88.4751 188.781L89.022 186.953H89.772V188.938H92.2564V189.945H89.772V194.984C89.772 195.5 89.8944 195.896 90.1392 196.172C90.384 196.448 90.7199 196.586 91.147 196.586ZM99.3065 197.5L99.0487 196.281H98.9862C98.5591 196.818 98.132 197.182 97.7049 197.375C97.283 197.562 96.7544 197.656 96.119 197.656C95.27 197.656 94.6033 197.438 94.119 197C93.6398 196.562 93.4002 195.94 93.4002 195.133C93.4002 193.404 94.783 192.497 97.5487 192.414L99.0018 192.367V191.836C99.0018 191.164 98.856 190.669 98.5643 190.352C98.2778 190.029 97.8169 189.867 97.1815 189.867C96.4679 189.867 95.6606 190.086 94.7596 190.523L94.3612 189.531C94.783 189.302 95.244 189.122 95.744 188.992C96.2492 188.862 96.7544 188.797 97.2596 188.797C98.2804 188.797 99.0356 189.023 99.5252 189.477C100.02 189.93 100.267 190.656 100.267 191.656V197.5H99.3065ZM96.3768 196.586C97.1841 196.586 97.8169 196.365 98.2752 195.922C98.7388 195.479 98.9705 194.859 98.9705 194.062V193.289L97.6737 193.344C96.6424 193.38 95.8976 193.542 95.4393 193.828C94.9862 194.109 94.7596 194.549 94.7596 195.148C94.7596 195.617 94.9002 195.974 95.1815 196.219C95.4679 196.464 95.8664 196.586 96.3768 196.586ZM113.864 197.5V191.93C113.864 191.247 113.719 190.737 113.427 190.398C113.135 190.055 112.682 189.883 112.067 189.883C111.26 189.883 110.664 190.115 110.278 190.578C109.893 191.042 109.7 191.755 109.7 192.719V197.5H108.403V191.93C108.403 191.247 108.258 190.737 107.966 190.398C107.674 190.055 107.219 189.883 106.599 189.883C105.786 189.883 105.19 190.128 104.81 190.617C104.435 191.102 104.247 191.898 104.247 193.008V197.5H102.95V188.938H104.005L104.216 190.109H104.278C104.523 189.693 104.867 189.367 105.31 189.133C105.758 188.898 106.258 188.781 106.81 188.781C108.148 188.781 109.023 189.266 109.435 190.234H109.497C109.752 189.786 110.122 189.432 110.607 189.172C111.091 188.911 111.643 188.781 112.263 188.781C113.232 188.781 113.956 189.031 114.435 189.531C114.919 190.026 115.161 190.82 115.161 191.914V197.5H113.864ZM123.11 197.5L122.852 196.281H122.789C122.362 196.818 121.935 197.182 121.508 197.375C121.086 197.562 120.558 197.656 119.922 197.656C119.073 197.656 118.407 197.438 117.922 197C117.443 196.562 117.203 195.94 117.203 195.133C117.203 193.404 118.586 192.497 121.352 192.414L122.805 192.367V191.836C122.805 191.164 122.659 190.669 122.368 190.352C122.081 190.029 121.62 189.867 120.985 189.867C120.271 189.867 119.464 190.086 118.563 190.523L118.164 189.531C118.586 189.302 119.047 189.122 119.547 188.992C120.052 188.862 120.558 188.797 121.063 188.797C122.084 188.797 122.839 189.023 123.328 189.477C123.823 189.93 124.071 190.656 124.071 191.656V197.5H123.11ZM120.18 196.586C120.987 196.586 121.62 196.365 122.078 195.922C122.542 195.479 122.774 194.859 122.774 194.062V193.289L121.477 193.344C120.446 193.38 119.701 193.542 119.243 193.828C118.789 194.109 118.563 194.549 118.563 195.148C118.563 195.617 118.703 195.974 118.985 196.219C119.271 196.464 119.67 196.586 120.18 196.586ZM130.66 188.781C131.04 188.781 131.381 188.812 131.683 188.875L131.504 190.078C131.149 190 130.837 189.961 130.566 189.961C129.873 189.961 129.28 190.242 128.785 190.805C128.295 191.367 128.05 192.068 128.05 192.906V197.5H126.754V188.938H127.824L127.972 190.523H128.035C128.353 189.966 128.735 189.536 129.183 189.234C129.631 188.932 130.123 188.781 130.66 188.781ZM138.554 197.5L138.296 196.281H138.233C137.806 196.818 137.379 197.182 136.952 197.375C136.53 197.562 136.002 197.656 135.366 197.656C134.517 197.656 133.851 197.438 133.366 197C132.887 196.562 132.647 195.94 132.647 195.133C132.647 193.404 134.03 192.497 136.796 192.414L138.249 192.367V191.836C138.249 191.164 138.103 190.669 137.811 190.352C137.525 190.029 137.064 189.867 136.429 189.867C135.715 189.867 134.908 190.086 134.007 190.523L133.608 189.531C134.03 189.302 134.491 189.122 134.991 188.992C135.496 188.862 136.002 188.797 136.507 188.797C137.528 188.797 138.283 189.023 138.772 189.477C139.267 189.93 139.515 190.656 139.515 191.656V197.5H138.554ZM135.624 196.586C136.431 196.586 137.064 196.365 137.522 195.922C137.986 195.479 138.218 194.859 138.218 194.062V193.289L136.921 193.344C135.89 193.38 135.145 193.542 134.686 193.828C134.233 194.109 134.007 194.549 134.007 195.148C134.007 195.617 134.147 195.974 134.429 196.219C134.715 196.464 135.114 196.586 135.624 196.586ZM148.057 197.5V191.961C148.057 191.263 147.898 190.742 147.58 190.398C147.263 190.055 146.765 189.883 146.088 189.883C145.192 189.883 144.536 190.125 144.119 190.609C143.703 191.094 143.494 191.893 143.494 193.008V197.5H142.197V188.938H143.252L143.463 190.109H143.526C143.791 189.688 144.164 189.362 144.643 189.133C145.122 188.898 145.656 188.781 146.244 188.781C147.276 188.781 148.052 189.031 148.572 189.531C149.093 190.026 149.354 190.82 149.354 191.914V197.5H148.057Z" fill="white"/>
<rect x="50.5" y="169.5" width="118" height="44" rx="4.5" stroke="white" shape-rendering="crispEdges"/>
</g>
<g filter="url(#filter5_d_5_182)">
<rect x="184" y="169" width="119" height="45" rx="5" fill="#FF7F50" shape-rendering="crispEdges"/>
<path d="M232.984 191.773C232.984 193.602 232.521 195.039 231.594 196.086C230.672 197.133 229.388 197.656 227.742 197.656C226.06 197.656 224.76 197.143 223.844 196.117C222.932 195.086 222.477 193.633 222.477 191.758C222.477 189.898 222.935 188.458 223.852 187.438C224.768 186.411 226.07 185.898 227.758 185.898C229.398 185.898 230.68 186.419 231.602 187.461C232.523 188.503 232.984 189.94 232.984 191.773ZM223.883 191.773C223.883 193.32 224.211 194.495 224.867 195.297C225.529 196.094 226.487 196.492 227.742 196.492C229.008 196.492 229.964 196.094 230.609 195.297C231.255 194.5 231.578 193.326 231.578 191.773C231.578 190.237 231.255 189.073 230.609 188.281C229.969 187.484 229.018 187.086 227.758 187.086C226.492 187.086 225.529 187.487 224.867 188.289C224.211 189.086 223.883 190.247 223.883 191.773ZM238.113 196.586C238.342 196.586 238.563 196.57 238.777 196.539C238.99 196.503 239.159 196.466 239.284 196.43V197.422C239.144 197.49 238.935 197.544 238.659 197.586C238.389 197.633 238.144 197.656 237.925 197.656C236.269 197.656 235.441 196.784 235.441 195.039V189.945H234.214V189.32L235.441 188.781L235.988 186.953H236.738V188.938H239.222V189.945H236.738V194.984C236.738 195.5 236.86 195.896 237.105 196.172C237.35 196.448 237.685 196.586 238.113 196.586ZM246.866 197.5V191.961C246.866 191.263 246.707 190.742 246.389 190.398C246.072 190.055 245.574 189.883 244.897 189.883C243.996 189.883 243.337 190.128 242.92 190.617C242.509 191.107 242.303 191.909 242.303 193.023V197.5H241.006V185.344H242.303V189.023C242.303 189.466 242.282 189.833 242.241 190.125H242.319C242.574 189.714 242.936 189.391 243.405 189.156C243.879 188.917 244.418 188.797 245.022 188.797C246.069 188.797 246.853 189.047 247.374 189.547C247.9 190.042 248.163 190.831 248.163 191.914V197.5H246.866ZM254.455 197.656C253.189 197.656 252.189 197.271 251.455 196.5C250.726 195.729 250.361 194.659 250.361 193.289C250.361 191.909 250.7 190.812 251.377 190C252.059 189.188 252.973 188.781 254.119 188.781C255.192 188.781 256.041 189.135 256.666 189.844C257.291 190.547 257.603 191.477 257.603 192.633V193.453H251.705C251.731 194.458 251.984 195.221 252.463 195.742C252.947 196.263 253.627 196.523 254.502 196.523C255.424 196.523 256.335 196.331 257.236 195.945V197.102C256.778 197.299 256.343 197.44 255.931 197.523C255.525 197.612 255.033 197.656 254.455 197.656ZM254.103 189.867C253.416 189.867 252.866 190.091 252.455 190.539C252.049 190.987 251.809 191.607 251.736 192.398H256.213C256.213 191.581 256.03 190.956 255.666 190.523C255.301 190.086 254.78 189.867 254.103 189.867ZM263.732 188.781C264.112 188.781 264.453 188.812 264.755 188.875L264.575 190.078C264.221 190 263.909 189.961 263.638 189.961C262.945 189.961 262.351 190.242 261.857 190.805C261.367 191.367 261.122 192.068 261.122 192.906V197.5H259.825V188.938H260.896L261.044 190.523H261.107C261.424 189.966 261.807 189.536 262.255 189.234C262.703 188.932 263.195 188.781 263.732 188.781Z" fill="white"/>
<rect x="184.5" y="169.5" width="118" height="44" rx="4.5" stroke="white" shape-rendering="crispEdges"/>
</g>
<g filter="url(#filter6_d_5_182)">
<rect x="318" y="169" width="119" height="45" rx="5" fill="#FF7F50" shape-rendering="crispEdges"/>
<path d="M361.477 191.789L364.523 186.078H365.961L362.148 193.07V197.5H360.805V193.133L357 186.078H358.453L361.477 191.789ZM372.613 197.5L372.355 196.281H372.292C371.865 196.818 371.438 197.182 371.011 197.375C370.589 197.562 370.06 197.656 369.425 197.656C368.576 197.656 367.909 197.438 367.425 197C366.946 196.562 366.706 195.94 366.706 195.133C366.706 193.404 368.089 192.497 370.855 192.414L372.308 192.367V191.836C372.308 191.164 372.162 190.669 371.87 190.352C371.584 190.029 371.123 189.867 370.488 189.867C369.774 189.867 368.967 190.086 368.066 190.523L367.667 189.531C368.089 189.302 368.55 189.122 369.05 188.992C369.555 188.862 370.06 188.797 370.566 188.797C371.587 188.797 372.342 189.023 372.831 189.477C373.326 189.93 373.574 190.656 373.574 191.656V197.5H372.613ZM369.683 196.586C370.49 196.586 371.123 196.365 371.581 195.922C372.045 195.479 372.277 194.859 372.277 194.062V193.289L370.98 193.344C369.949 193.38 369.204 193.542 368.745 193.828C368.292 194.109 368.066 194.549 368.066 195.148C368.066 195.617 368.206 195.974 368.488 196.219C368.774 196.464 369.172 196.586 369.683 196.586ZM379.678 197.656C378.439 197.656 377.478 197.276 376.795 196.516C376.118 195.75 375.78 194.669 375.78 193.273C375.78 191.841 376.124 190.734 376.811 189.953C377.504 189.172 378.488 188.781 379.764 188.781C380.176 188.781 380.587 188.826 380.999 188.914C381.41 189.003 381.733 189.107 381.967 189.227L381.569 190.328C381.282 190.214 380.97 190.12 380.631 190.047C380.293 189.969 379.993 189.93 379.733 189.93C377.993 189.93 377.124 191.039 377.124 193.258C377.124 194.31 377.335 195.117 377.756 195.68C378.183 196.242 378.814 196.523 379.647 196.523C380.361 196.523 381.092 196.37 381.842 196.062V197.211C381.269 197.508 380.548 197.656 379.678 197.656ZM389.744 197.5V191.961C389.744 191.263 389.585 190.742 389.267 190.398C388.95 190.055 388.452 189.883 387.775 189.883C386.874 189.883 386.215 190.128 385.799 190.617C385.387 191.107 385.181 191.909 385.181 193.023V197.5H383.885V185.344H385.181V189.023C385.181 189.466 385.161 189.833 385.119 190.125H385.197C385.452 189.714 385.814 189.391 386.283 189.156C386.757 188.917 387.296 188.797 387.9 188.797C388.947 188.797 389.731 189.047 390.252 189.547C390.778 190.042 391.041 190.831 391.041 191.914V197.5H389.744ZM396.482 196.586C396.711 196.586 396.932 196.57 397.146 196.539C397.359 196.503 397.528 196.466 397.653 196.43V197.422C397.513 197.49 397.304 197.544 397.028 197.586C396.758 197.633 396.513 197.656 396.294 197.656C394.638 197.656 393.81 196.784 393.81 195.039V189.945H392.583V189.32L393.81 188.781L394.357 186.953H395.107V188.938H397.591V189.945H395.107V194.984C395.107 195.5 395.229 195.896 395.474 196.172C395.719 196.448 396.054 196.586 396.482 196.586Z" fill="white"/>
<rect x="318.5" y="169.5" width="118" height="44" rx="4.5" stroke="white" shape-rendering="crispEdges"/>
</g>
<g filter="url(#filter7_d_5_182)">
<rect x="452" y="169" width="119" height="45" rx="5" fill="#FF7F50" shape-rendering="crispEdges"/>
<path d="M503.688 191.68C503.688 193.565 503.174 195.008 502.148 196.008C501.128 197.003 499.656 197.5 497.734 197.5H494.57V186.078H498.07C499.846 186.078 501.227 186.57 502.211 187.555C503.195 188.539 503.688 189.914 503.688 191.68ZM502.281 191.727C502.281 190.237 501.906 189.115 501.156 188.359C500.411 187.604 499.302 187.227 497.828 187.227H495.898V196.352H497.516C499.099 196.352 500.289 195.964 501.086 195.188C501.883 194.406 502.281 193.253 502.281 191.727ZM511.316 197.5L511.058 196.281H510.995C510.568 196.818 510.141 197.182 509.714 197.375C509.292 197.562 508.764 197.656 508.128 197.656C507.279 197.656 506.613 197.438 506.128 197C505.649 196.562 505.409 195.94 505.409 195.133C505.409 193.404 506.792 192.497 509.558 192.414L511.011 192.367V191.836C511.011 191.164 510.865 190.669 510.574 190.352C510.287 190.029 509.826 189.867 509.191 189.867C508.477 189.867 507.67 190.086 506.769 190.523L506.37 189.531C506.792 189.302 507.253 189.122 507.753 188.992C508.258 188.862 508.764 188.797 509.269 188.797C510.29 188.797 511.045 189.023 511.534 189.477C512.029 189.93 512.277 190.656 512.277 191.656V197.5H511.316ZM508.386 196.586C509.193 196.586 509.826 196.365 510.284 195.922C510.748 195.479 510.98 194.859 510.98 194.062V193.289L509.683 193.344C508.652 193.38 507.907 193.542 507.449 193.828C506.995 194.109 506.769 194.549 506.769 195.148C506.769 195.617 506.909 195.974 507.191 196.219C507.477 196.464 507.876 196.586 508.386 196.586ZM516.256 197.5H514.96V188.938H516.256V197.5ZM514.85 186.617C514.85 186.32 514.923 186.104 515.069 185.969C515.215 185.828 515.397 185.758 515.616 185.758C515.824 185.758 516.004 185.828 516.155 185.969C516.306 186.109 516.381 186.326 516.381 186.617C516.381 186.909 516.306 187.128 516.155 187.273C516.004 187.414 515.824 187.484 515.616 187.484C515.397 187.484 515.215 187.414 515.069 187.273C514.923 187.128 514.85 186.909 514.85 186.617ZM520.306 197.5H519.01V185.344H520.306V197.5ZM521.7 188.938H523.091L524.966 193.82C525.377 194.935 525.633 195.74 525.732 196.234H525.794C525.862 195.969 526.002 195.516 526.216 194.875C526.435 194.229 527.143 192.25 528.341 188.938H529.732L526.052 198.688C525.687 199.651 525.26 200.333 524.771 200.734C524.286 201.141 523.69 201.344 522.982 201.344C522.586 201.344 522.195 201.299 521.81 201.211V200.172C522.096 200.234 522.416 200.266 522.771 200.266C523.661 200.266 524.297 199.766 524.677 198.766L525.153 197.547L521.7 188.938Z" fill="white"/>
<rect x="452.5" y="169.5" width="118" height="44" rx="4.5" stroke="white" shape-rendering="crispEdges"/>
</g>
<path d="M705.187 169.099C705.187 179.997 700.858 190.45 693.151 198.156C685.445 205.863 674.992 210.192 664.094 210.192C653.195 210.192 642.743 205.863 635.036 198.156C627.33 190.45 623 179.997 623 169.099C622.986 163.804 624.009 158.558 626.013 153.657C629.081 146.073 634.346 139.579 641.131 135.008C647.916 130.438 655.912 127.999 664.094 128.005C664.231 127.998 664.368 127.998 664.505 128.005C675.334 128.108 685.684 132.484 693.303 140.18C700.922 147.876 705.193 158.269 705.187 169.099Z" fill="#66D0F8" stroke="#0052B4" stroke-linecap="round" stroke-linejoin="round"/>
<path d="M672.62 172.429C657.38 182.343 639.944 187.604 628.795 190.154C632.438 196.266 637.607 201.326 643.795 204.839C649.983 208.352 656.978 210.196 664.093 210.192C666.374 210.193 668.651 210.002 670.9 209.621C677.888 208.45 684.454 205.492 689.961 201.034C695.468 196.575 699.727 190.768 702.326 184.177C704.924 177.585 705.774 170.434 704.791 163.417C703.808 156.4 701.027 149.757 696.718 144.133C694.774 150.434 689.116 161.721 672.62 172.429Z" fill="white" stroke="#0052B4" stroke-linecap="round" stroke-linejoin="round"/>
<path d="M699.912 189.244C696.904 194.591 692.738 199.196 687.717 202.722C682.697 206.248 676.951 208.605 670.9 209.621C668.651 210.002 666.375 210.192 664.094 210.191C658.696 210.194 653.351 209.133 648.364 207.069C643.377 205.005 638.846 201.978 635.03 198.162C631.213 194.345 628.187 189.814 626.122 184.827C624.058 179.84 622.997 174.495 623 169.098C622.986 163.803 624.009 158.557 626.013 153.656C634.236 155.824 651.484 161.243 672.678 172.545C682.084 177.557 691.179 183.134 699.912 189.244Z" fill="#66D0F8" stroke="#0052B4" stroke-linecap="round" stroke-linejoin="round"/>
<path d="M670.9 209.621C668.651 210.002 666.375 210.193 664.094 210.192C658.696 210.195 653.351 209.134 648.364 207.07C643.377 205.006 638.846 201.979 635.03 198.163C631.213 194.346 628.187 189.815 626.122 184.828C624.058 179.841 622.997 174.496 623 169.099C622.986 163.804 624.009 158.558 626.013 153.657C629.081 146.073 634.346 139.579 641.131 135.008C647.916 130.438 655.912 127.999 664.094 128.005C664.231 127.998 664.368 127.998 664.505 128.005C667.049 135.029 671.659 150.514 672.678 172.531C673.243 184.923 672.648 197.341 670.9 209.621Z" fill="white" stroke="#0052B4" stroke-linecap="round" stroke-linejoin="round"/>
<path d="M670.9 209.621C668.651 210.002 666.375 210.192 664.094 210.191C658.696 210.194 653.351 209.133 648.364 207.069C643.377 205.005 638.846 201.978 635.03 198.162C631.213 194.345 628.187 189.814 626.122 184.827C624.058 179.84 622.997 174.495 623 169.098C622.986 163.803 624.009 158.557 626.013 153.656C634.236 155.824 651.484 161.243 672.678 172.545C673.243 184.932 672.647 197.344 670.9 209.621Z" fill="#66D0F8" stroke="#0052B4" stroke-linecap="round" stroke-linejoin="round"/>
<path d="M628.795 190.156C632.438 196.267 637.607 201.328 643.795 204.84C649.983 208.353 656.978 210.197 664.093 210.193C666.374 210.194 668.651 210.003 670.9 209.622C672.646 197.351 673.241 184.943 672.678 172.561L672.547 172.488C657.323 182.366 639.923 187.598 628.795 190.156Z" fill="white" stroke="#0052B4" stroke-linecap="round" stroke-linejoin="round"/>
<path d="M680.076 172.43C680.076 170.955 679.639 169.513 678.82 168.287C678 167.06 676.836 166.105 675.473 165.54C674.11 164.976 672.611 164.828 671.164 165.116C669.718 165.404 668.389 166.114 667.346 167.157C666.303 168.2 665.593 169.528 665.305 170.975C665.018 172.421 665.165 173.921 665.73 175.283C666.294 176.646 667.25 177.811 668.476 178.63C669.703 179.449 671.144 179.887 672.619 179.887C674.597 179.887 676.494 179.101 677.892 177.703C679.291 176.304 680.076 174.407 680.076 172.43Z" fill="#EBEBEB" stroke="#0052B4" stroke-linecap="round" stroke-linejoin="round"/>
<defs>
<filter id="filter0_d_5_182" x="40" y="103" width="139" height="65" filterUnits="userSpaceOnUse" color-interpolation-filters="sRGB">
<feFlood flood-opacity="0" result="BackgroundImageFix"/>
<feColorMatrix in="SourceAlpha" type="matrix" values="0 0 0 0 0 0 0 0 0 0 0 0 0 0 0 0 0 0 127 0" result="hardAlpha"/>
<feOffset dy="4"/>
<feGaussianBlur stdDeviation="5"/>
<feComposite in2="hardAlpha" operator="out"/>
<feColorMatrix type="matrix" values="0 0 0 0 0.9 0 0 0 0 0.299314 0 0 0 0 0.07875 0 0 0 1 0"/>
<feBlend mode="normal" in2="BackgroundImageFix" result="effect1_dropShadow_5_182"/>
<feBlend mode="normal" in="SourceGraphic" in2="effect1_dropShadow_5_182" result="shape"/>
</filter>
<filter id="filter1_d_5_182" x="174" y="103" width="139" height="65" filterUnits="userSpaceOnUse" color-interpolation-filters="sRGB">
<feFlood flood-opacity="0" result="BackgroundImageFix"/>
<feColorMatrix in="SourceAlpha" type="matrix" values="0 0 0 0 0 0 0 0 0 0 0 0 0 0 0 0 0 0 127 0" result="hardAlpha"/>
<feOffset dy="4"/>
<feGaussianBlur stdDeviation="5"/>
<feComposite in2="hardAlpha" operator="out"/>
<feColorMatrix type="matrix" values="0 0 0 0 0.9 0 0 0 0 0.299314 0 0 0 0 0.07875 0 0 0 1 0"/>
<feBlend mode="normal" in2="BackgroundImageFix" result="effect1_dropShadow_5_182"/>
<feBlend mode="normal" in="SourceGraphic" in2="effect1_dropShadow_5_182" result="shape"/>
</filter>
<filter id="filter2_d_5_182" x="308" y="103" width="139" height="65" filterUnits="userSpaceOnUse" color-interpolation-filters="sRGB">
<feFlood flood-opacity="0" result="BackgroundImageFix"/>
<feColorMatrix in="SourceAlpha" type="matrix" values="0 0 0 0 0 0 0 0 0 0 0 0 0 0 0 0 0 0 127 0" result="hardAlpha"/>
<feOffset dy="4"/>
<feGaussianBlur stdDeviation="5"/>
<feComposite in2="hardAlpha" operator="out"/>
<feColorMatrix type="matrix" values="0 0 0 0 0.9 0 0 0 0 0.299314 0 0 0 0 0.07875 0 0 0 1 0"/>
<feBlend mode="normal" in2="BackgroundImageFix" result="effect1_dropShadow_5_182"/>
<feBlend mode="normal" in="SourceGraphic" in2="effect1_dropShadow_5_182" result="shape"/>
</filter>
<filter id="filter3_d_5_182" x="442" y="103" width="139" height="65" filterUnits="userSpaceOnUse" color-interpolation-filters="sRGB">
<feFlood flood-opacity="0" result="BackgroundImageFix"/>
<feColorMatrix in="SourceAlpha" type="matrix" values="0 0 0 0 0 0 0 0 0 0 0 0 0 0 0 0 0 0 127 0" result="hardAlpha"/>
<feOffset dy="4"/>
<feGaussianBlur stdDeviation="5"/>
<feComposite in2="hardAlpha" operator="out"/>
<feColorMatrix type="matrix" values="0 0 0 0 0.9 0 0 0 0 0.299314 0 0 0 0 0.07875 0 0 0 1 0"/>
<feBlend mode="normal" in2="BackgroundImageFix" result="effect1_dropShadow_5_182"/>
<feBlend mode="normal" in="SourceGraphic" in2="effect1_dropShadow_5_182" result="shape"/>
</filter>
<filter id="filter4_d_5_182" x="40" y="163" width="139" height="65" filterUnits="userSpaceOnUse" color-interpolation-filters="sRGB">
<feFlood flood-opacity="0" result="BackgroundImageFix"/>
<feColorMatrix in="SourceAlpha" type="matrix" values="0 0 0 0 0 0 0 0 0 0 0 0 0 0 0 0 0 0 127 0" result="hardAlpha"/>
<feOffset dy="4"/>
<feGaussianBlur stdDeviation="5"/>
<feComposite in2="hardAlpha" operator="out"/>
<feColorMatrix type="matrix" values="0 0 0 0 0.9 0 0 0 0 0.299314 0 0 0 0 0.07875 0 0 0 1 0"/>
<feBlend mode="normal" in2="BackgroundImageFix" result="effect1_dropShadow_5_182"/>
<feBlend mode="normal" in="SourceGraphic" in2="effect1_dropShadow_5_182" result="shape"/>
</filter>
<filter id="filter5_d_5_182" x="174" y="163" width="139" height="65" filterUnits="userSpaceOnUse" color-interpolation-filters="sRGB">
<feFlood flood-opacity="0" result="BackgroundImageFix"/>
<feColorMatrix in="SourceAlpha" type="matrix" values="0 0 0 0 0 0 0 0 0 0 0 0 0 0 0 0 0 0 127 0" result="hardAlpha"/>
<feOffset dy="4"/>
<feGaussianBlur stdDeviation="5"/>
<feComposite in2="hardAlpha" operator="out"/>
<feColorMatrix type="matrix" values="0 0 0 0 0.9 0 0 0 0 0.299314 0 0 0 0 0.07875 0 0 0 1 0"/>
<feBlend mode="normal" in2="BackgroundImageFix" result="effect1_dropShadow_5_182"/>
<feBlend mode="normal" in="SourceGraphic" in2="effect1_dropShadow_5_182" result="shape"/>
</filter>
<filter id="filter6_d_5_182" x="308" y="163" width="139" height="65" filterUnits="userSpaceOnUse" color-interpolation-filters="sRGB">
<feFlood flood-opacity="0" result="BackgroundImageFix"/>
<feColorMatrix in="SourceAlpha" type="matrix" values="0 0 0 0 0 0 0 0 0 0 0 0 0 0 0 0 0 0 127 0" result="hardAlpha"/>
<feOffset dy="4"/>
<feGaussianBlur stdDeviation="5"/>
<feComposite in2="hardAlpha" operator="out"/>
<feColorMatrix type="matrix" values="0 0 0 0 0.9 0 0 0 0 0.299314 0 0 0 0 0.07875 0 0 0 1 0"/>
<feBlend mode="normal" in2="BackgroundImageFix" result="effect1_dropShadow_5_182"/>
<feBlend mode="normal" in="SourceGraphic" in2="effect1_dropShadow_5_182" result="shape"/>
</filter>
<filter id="filter7_d_5_182" x="442" y="163" width="139" height="65" filterUnits="userSpaceOnUse" color-interpolation-filters="sRGB">
<feFlood flood-opacity="0" result="BackgroundImageFix"/>
<feColorMatrix in="SourceAlpha" type="matrix" values="0 0 0 0 0 0 0 0 0 0 0 0 0 0 0 0 0 0 127 0" result="hardAlpha"/>
<feOffset dy="4"/>
<feGaussianBlur stdDeviation="5"/>
<feComposite in2="hardAlpha" operator="out"/>
<feColorMatrix type="matrix" values="0 0 0 0 0.9 0 0 0 0 0.299314 0 0 0 0 0.07875 0 0 0 1 0"/>
<feBlend mode="normal" in2="BackgroundImageFix" result="effect1_dropShadow_5_182"/>
<feBlend mode="normal" in="SourceGraphic" in2="effect1_dropShadow_5_182" result="shape"/>
</filter>
</defs>
</svg>
