<svg width="77" height="65" viewBox="0 0 77 65" fill="none" xmlns="http://www.w3.org/2000/svg">
<rect x="0.25" y="0.25" width="76.5" height="64.5" rx="9.75" fill="white" stroke="#CCCCCC" stroke-width="0.5"/>
<g clip-path="url(#clip0_546_17098)">
<path d="M38.4555 28.9866H39.7838V27.7705C40.184 27.7705 40.5562 27.7626 40.9268 27.7784C40.976 27.78 41.0597 27.8953 41.0613 27.9616C41.0744 28.2948 41.0679 28.6296 41.0679 28.9818H43.9016C43.7851 28.8049 43.6884 28.6423 43.5769 28.4907C42.6372 27.2161 41.4581 26.1564 40.2988 25.0762C39.9855 24.784 39.6723 24.6513 39.2394 24.6845C38.7983 24.7177 38.3522 24.6924 37.8865 24.6924V23.4779C38.0325 23.4684 38.1833 23.459 38.4031 23.4448C37.4437 22.6267 36.5287 21.8465 35.5727 21.0316C35.6907 21.0174 35.753 21.0031 35.8154 21.0031C37.3585 21.0031 38.9016 20.9984 40.4447 21.0079C40.571 21.0079 40.7186 21.0632 40.8202 21.139C41.7845 21.8591 42.7356 22.5935 43.7015 23.3137C43.8146 23.3974 43.977 23.4511 44.1213 23.4574C44.5132 23.4763 44.9068 23.4732 45.2971 23.4605C45.4971 23.4542 45.5562 23.5221 45.5447 23.7069C45.5299 23.958 45.5496 24.2107 45.5365 24.4618C45.5316 24.5613 45.4824 24.6592 45.4381 24.8124C45.7415 25.1014 46.1023 25.4299 46.4433 25.7742C47.1665 26.5039 47.8487 27.2683 48.3358 28.1716C48.444 28.3722 48.5391 28.5823 48.6031 28.7986C48.6555 28.9723 48.7474 29.0087 48.9196 29.0071C50.6201 29.0008 52.319 29.0071 54.0195 28.9976C54.1343 28.9976 54.2737 28.9392 54.3574 28.8634C54.723 28.5301 55.0707 28.1795 55.4052 27.8542C55.7184 28.1511 56.0071 28.4275 56.3564 28.7591C56.1038 28.9518 55.8267 29.1634 55.5495 29.3751L55.6135 29.4651C56.0464 29.6751 56.4793 29.8883 56.9139 30.0968C57.5371 30.3969 58.1586 30.7017 58.7883 30.9891C58.9719 31.0728 59.0162 31.1739 58.9916 31.3587C58.7702 33.0138 58.5571 34.6705 58.3406 36.3272C58.3127 36.542 58.2816 36.7583 58.2488 37.0047C58.134 37.0047 58.0323 37.0047 57.929 37.0047C50.466 37.0047 43.0029 37.0031 35.5399 37.0031C33.7967 37.0031 32.0519 37.0031 30.3087 37.0063C28.4015 37.011 26.5747 36.5973 24.779 36.0271C22.9194 35.438 21.1451 34.661 19.4085 33.7971C18.8804 33.535 18.4557 33.1638 18.2343 32.6616C18.0638 32.2747 17.9359 31.8372 18.031 31.3792C18.0818 31.136 18.0343 30.8754 18.0671 30.6275C18.2048 29.6135 18.9263 29.0055 19.9841 29.0055C23.1753 29.0055 26.3664 29.0023 29.5576 29.0118C29.8036 29.0118 29.9512 28.936 30.0988 28.7544C30.8466 27.8368 31.6124 26.9335 32.3618 26.0175C32.4733 25.8816 32.5733 25.8579 32.7357 25.8974C33.8328 26.1675 34.9331 26.4312 36.0318 26.695C37.2634 26.9903 38.0653 27.7121 38.4178 28.8918C38.4277 28.9234 38.4391 28.9534 38.4523 28.9945L38.4555 28.9866ZM19.3462 31.4613H19.6692C23.1474 31.4613 26.6255 31.4598 30.1037 31.4661C30.2693 31.4661 30.4513 31.5087 30.5973 31.5829C33.2375 32.9301 35.8728 34.2867 38.5129 35.6355C38.6523 35.7065 38.8229 35.7571 38.9803 35.7586C40.9941 35.7665 43.0078 35.7665 45.0216 35.7586C45.1593 35.7586 45.3299 35.6923 45.4283 35.6007C46.1793 34.8995 46.9124 34.1825 47.6585 33.4765C47.7339 33.4055 47.8422 33.3423 47.9438 33.3265C50.6759 32.8827 53.4095 32.4468 56.1432 32.0078C56.5777 31.9383 57.0107 31.8641 57.4911 31.7835C57.4157 31.7282 57.3928 31.703 57.3632 31.6888C56.3974 31.2244 55.4315 30.7585 54.4607 30.299C54.3721 30.2563 54.2606 30.2421 54.1589 30.2421C50.0363 30.2389 45.912 30.2374 41.7894 30.2374C35.5481 30.2374 29.3051 30.2374 23.0637 30.2374C22.0355 30.2374 21.0057 30.2374 19.9775 30.2405C19.5987 30.2405 19.3872 30.3921 19.3494 30.7127C19.3216 30.9496 19.3445 31.1929 19.3445 31.4613H19.3462ZM35.8498 35.7586C35.8564 35.7413 35.8629 35.7239 35.8695 35.7065C35.8219 35.6765 35.7744 35.6449 35.7235 35.6181C33.8869 34.6737 32.0502 33.7276 30.2103 32.7911C30.0873 32.7279 29.9282 32.7058 29.7856 32.7058C26.6747 32.7011 23.5623 32.7027 20.4514 32.7027C20.3612 32.7027 20.271 32.7027 20.1808 32.7027C20.2202 32.7848 20.2678 32.8132 20.3186 32.8385C22.0782 33.7166 23.8902 34.4715 25.7876 35.0306C27.4061 35.5075 29.0509 35.7918 30.7531 35.765C32.3306 35.7397 33.9082 35.7586 35.4857 35.7586C35.6071 35.7586 35.7284 35.7586 35.8482 35.7586H35.8498ZM57.114 35.7476C57.232 34.8474 57.3468 33.9709 57.4665 33.0612C57.3321 33.077 57.2386 33.0849 57.1468 33.0991C54.6296 33.5018 52.1173 33.9314 49.5935 34.293C48.7687 34.4115 48.075 34.6468 47.5732 35.3054C47.4961 35.4049 47.3879 35.4823 47.2977 35.5739C47.2551 35.6181 47.2206 35.6702 47.16 35.7492H57.1123L57.114 35.7476ZM41.8566 24.7224C41.8911 24.784 41.896 24.8014 41.9075 24.814C41.9747 24.8803 42.0436 24.9451 42.1108 25.0098C43.3276 26.1785 44.5395 27.3504 45.3102 28.8634C45.3364 28.9155 45.407 28.9787 45.4578 28.9787C46.0465 28.9866 46.6369 28.9834 47.2977 28.9834C47.1272 28.6991 47.0009 28.4527 46.8435 28.2285C45.9252 26.9129 44.7231 25.8532 43.4998 24.814C43.4506 24.7714 43.3801 24.7287 43.3194 24.7272C42.8438 24.7193 42.3666 24.7224 41.8566 24.7224ZM31.5517 28.9834H37.0912C36.8665 28.4433 36.4811 28.0974 35.9351 27.9537C35.0118 27.7105 34.0804 27.4973 33.1506 27.2793C33.0833 27.2635 32.9685 27.2888 32.9292 27.3378C32.4766 27.8668 32.0338 28.4054 31.5533 28.985L31.5517 28.9834ZM41.7943 23.4369C41.3532 23.1068 40.9514 22.8525 40.6087 22.5382C40.1364 22.1055 39.5953 22.3029 39.0689 22.2903C39.4739 22.6725 39.8888 23.0294 40.3053 23.3832C40.3365 23.41 40.3824 23.4337 40.4201 23.4353C40.8514 23.4384 41.2827 23.4369 41.7943 23.4369Z" fill="#666666"/>
<path d="M19.3463 31.4605C19.3463 31.1921 19.3233 30.9489 19.3512 30.712C19.3889 30.3914 19.5988 30.2413 19.9793 30.2397C21.0075 30.235 22.0373 30.2366 23.0655 30.2366C29.3069 30.2366 35.5498 30.2366 41.7912 30.2366C45.9138 30.2366 50.0381 30.2366 54.1607 30.2413C54.2624 30.2413 54.3722 30.2555 54.4624 30.2982C55.4316 30.7578 56.3975 31.2237 57.365 31.688C57.3945 31.7022 57.4191 31.7275 57.4929 31.7827C57.0124 31.8633 56.5795 31.9375 56.1449 32.007C53.4113 32.446 50.6776 32.8819 47.9456 33.3257C47.8439 33.3415 47.7357 33.4047 47.6603 33.4757C46.9158 34.1817 46.1811 34.8987 45.43 35.5999C45.3317 35.6915 45.1611 35.7579 45.0234 35.7579C43.0096 35.7673 40.9958 35.7673 38.9821 35.7579C38.8263 35.7579 38.6557 35.7057 38.5147 35.6347C35.8745 34.2859 33.2393 32.9293 30.5991 31.5822C30.4531 31.5079 30.2711 31.4653 30.1055 31.4653C26.6273 31.459 23.1491 31.4605 19.671 31.4605H19.3479H19.3463Z" fill="white"/>
<path d="M35.8499 35.761C35.7286 35.761 35.6072 35.761 35.4875 35.761C33.91 35.761 32.3324 35.7421 30.7549 35.7674C29.0527 35.7942 27.4079 35.5099 25.7893 35.033C23.892 34.4739 22.0799 33.719 20.3204 32.8409C20.2695 32.8156 20.2203 32.7856 20.1826 32.7051C20.2728 32.7051 20.363 32.7051 20.4532 32.7051C23.564 32.7051 26.6765 32.7051 29.7873 32.7082C29.93 32.7082 30.0891 32.7303 30.2121 32.7935C32.052 33.7301 33.8886 34.6761 35.7253 35.6205C35.7761 35.6458 35.822 35.6789 35.8712 35.7089C35.8647 35.7263 35.8581 35.7437 35.8516 35.761H35.8499Z" fill="#00BFFF"/>
<path d="M57.1125 35.7485H47.1602C47.2208 35.6696 47.2553 35.6175 47.2979 35.5732C47.3881 35.4816 47.4963 35.4058 47.5734 35.3047C48.0752 34.6462 48.7689 34.4109 49.5937 34.2924C52.1175 33.9323 54.6298 33.5012 57.147 33.0985C57.2388 33.0842 57.3306 33.0763 57.4667 33.0605C57.347 33.9702 57.2322 34.8467 57.1142 35.747L57.1125 35.7485Z" fill="#00BFFF"/>
<path d="M41.8569 24.7233C42.3669 24.7233 42.8441 24.7201 43.3197 24.728C43.3804 24.728 43.4509 24.7722 43.5001 24.8149C44.7234 25.8556 45.9254 26.9138 46.8438 28.2294C47.0012 28.4552 47.1275 28.7 47.298 28.9843C46.6372 28.9843 46.0484 28.9874 45.4581 28.9795C45.4073 28.9795 45.3367 28.9148 45.3105 28.8642C44.5398 27.3528 43.3279 26.1794 42.1111 25.0107C42.0439 24.946 41.975 24.8812 41.9078 24.8149C41.8963 24.8038 41.8914 24.7865 41.8569 24.7233Z" fill="white"/>
<path d="M31.5519 28.983C32.0324 28.4034 32.4752 27.8665 32.9278 27.3358C32.9688 27.2884 33.0836 27.2632 33.1492 27.2774C34.079 27.4953 35.0104 27.707 35.9337 27.9517C36.4797 28.0955 36.8651 28.4413 37.0898 28.9815H31.5503L31.5519 28.983Z" fill="#80CEF4"/>
<path d="M41.7943 23.4366C41.2827 23.4366 40.8514 23.4366 40.4201 23.435C40.3807 23.435 40.3348 23.4097 40.3053 23.3829C39.8888 23.0291 39.4739 22.6722 39.0688 22.29C39.5969 22.3026 40.138 22.1052 40.6087 22.538C40.9514 22.8522 41.3532 23.1065 41.7943 23.4366Z" fill="white"/>
</g>
<path d="M32.0742 52.4209C32.0742 52.971 32.0042 53.4723 31.8643 53.9248C31.7243 54.374 31.516 54.7614 31.2393 55.0869C30.9658 55.4092 30.6257 55.6582 30.2188 55.834C29.8118 56.0098 29.3398 56.0977 28.8027 56.0977C28.2493 56.0977 27.766 56.0098 27.3525 55.834C26.9424 55.6582 26.6006 55.4076 26.3271 55.082C26.057 54.7565 25.8535 54.3675 25.7168 53.915C25.5833 53.4626 25.5166 52.9613 25.5166 52.4111C25.5166 51.682 25.637 51.0423 25.8779 50.4922C26.1188 49.9421 26.4834 49.514 26.9717 49.208C27.4632 48.902 28.0785 48.749 28.8174 48.749C29.5238 48.749 30.1178 48.9004 30.5996 49.2031C31.0846 49.5059 31.4508 49.9323 31.6982 50.4824C31.9489 51.0293 32.0742 51.6755 32.0742 52.4209ZM26.3906 52.4209C26.3906 53.0264 26.4769 53.5505 26.6494 53.9932C26.8219 54.4359 27.0856 54.7777 27.4404 55.0186C27.7985 55.2594 28.2526 55.3799 28.8027 55.3799C29.3561 55.3799 29.8086 55.2594 30.1602 55.0186C30.515 54.7777 30.777 54.4359 30.9463 53.9932C31.1156 53.5505 31.2002 53.0264 31.2002 52.4209C31.2002 51.4997 31.0065 50.7803 30.6191 50.2627C30.235 49.7419 29.6344 49.4814 28.8174 49.4814C28.264 49.4814 27.8083 49.6003 27.4502 49.8379C27.0921 50.0755 26.8252 50.4141 26.6494 50.8535C26.4769 51.2897 26.3906 51.8122 26.3906 52.4209ZM35.2725 55.4336C35.4059 55.4336 35.5426 55.4222 35.6826 55.3994C35.8226 55.3766 35.9365 55.349 36.0244 55.3164V55.9463C35.93 55.9886 35.7982 56.0244 35.6289 56.0537C35.4629 56.083 35.3001 56.0977 35.1406 56.0977C34.8574 56.0977 34.6003 56.0488 34.3691 55.9512C34.138 55.8503 33.9525 55.681 33.8125 55.4434C33.6758 55.2057 33.6074 54.877 33.6074 54.457V51.2832H32.8457V50.8877L33.6123 50.5703L33.9346 49.4082H34.4229V50.6484H35.9902V51.2832H34.4229V54.4326C34.4229 54.7679 34.4993 55.0186 34.6523 55.1846C34.8086 55.3506 35.0153 55.4336 35.2725 55.4336ZM37.9189 48.4023V50.6729C37.9189 50.8031 37.9157 50.9349 37.9092 51.0684C37.9027 51.1986 37.8913 51.319 37.875 51.4297H37.9287C38.0394 51.2409 38.1794 51.083 38.3486 50.9561C38.5212 50.8258 38.7165 50.7282 38.9346 50.6631C39.1527 50.5947 39.3838 50.5605 39.6279 50.5605C40.0576 50.5605 40.4157 50.6289 40.7021 50.7656C40.9919 50.9023 41.2083 51.1139 41.3516 51.4004C41.498 51.6868 41.5713 52.0579 41.5713 52.5137V56H40.7705V52.5674C40.7705 52.1214 40.668 51.7878 40.4629 51.5664C40.2611 51.3451 39.9502 51.2344 39.5303 51.2344C39.1331 51.2344 38.8158 51.3109 38.5781 51.4639C38.3438 51.6136 38.1745 51.835 38.0703 52.1279C37.9694 52.4209 37.9189 52.779 37.9189 53.2021V56H37.1084V48.4023H37.9189ZM45.3018 50.5508C45.7575 50.5508 46.1481 50.6517 46.4736 50.8535C46.7992 51.0553 47.0482 51.3385 47.2207 51.7031C47.3932 52.0645 47.4795 52.4876 47.4795 52.9727V53.4756H43.7832C43.793 54.1038 43.9492 54.5824 44.252 54.9111C44.5547 55.2399 44.9811 55.4043 45.5312 55.4043C45.8698 55.4043 46.1693 55.3734 46.4297 55.3115C46.6901 55.2497 46.9603 55.1585 47.2402 55.0381V55.751C46.9701 55.8714 46.7015 55.9593 46.4346 56.0146C46.1709 56.07 45.8584 56.0977 45.4971 56.0977C44.9827 56.0977 44.5335 55.9935 44.1494 55.7852C43.7686 55.5736 43.4723 55.2643 43.2607 54.8574C43.0492 54.4505 42.9434 53.9525 42.9434 53.3633C42.9434 52.7871 43.0394 52.2891 43.2314 51.8691C43.4268 51.446 43.7002 51.1204 44.0518 50.8926C44.4066 50.6647 44.8232 50.5508 45.3018 50.5508ZM45.292 51.2148C44.859 51.2148 44.514 51.3564 44.2568 51.6396C43.9997 51.9229 43.8467 52.3184 43.7979 52.8262H46.6299C46.6266 52.5072 46.5762 52.2272 46.4785 51.9863C46.3841 51.7422 46.2393 51.5534 46.0439 51.4199C45.8486 51.2832 45.598 51.2148 45.292 51.2148ZM51.2881 50.5508C51.3955 50.5508 51.5078 50.5573 51.625 50.5703C51.7422 50.5801 51.8464 50.5947 51.9375 50.6143L51.835 51.3662C51.7471 51.3434 51.6494 51.3255 51.542 51.3125C51.4346 51.2995 51.3337 51.293 51.2393 51.293C51.0244 51.293 50.821 51.3369 50.6289 51.4248C50.4401 51.5094 50.2741 51.6331 50.1309 51.7959C49.9876 51.9554 49.8753 52.1491 49.7939 52.377C49.7126 52.6016 49.6719 52.8522 49.6719 53.1289V56H48.8564V50.6484H49.5303L49.6182 51.6348H49.6523C49.763 51.4362 49.8965 51.2555 50.0527 51.0928C50.209 50.9268 50.3896 50.7949 50.5947 50.6973C50.8031 50.5996 51.0342 50.5508 51.2881 50.5508Z" fill="#333333"/>
<defs>
<clipPath id="clip0_546_17098">
<rect width="41" height="16" fill="white" transform="translate(18 21)"/>
</clipPath>
</defs>
</svg>
