<svg width="26" height="19" viewBox="0 0 26 19" fill="none" xmlns="http://www.w3.org/2000/svg">
<path d="M12.5018 12.2867L12.5018 12.2867C11.5981 11.2478 10.2744 10.5893 8.8 10.5893H5.8C3.07832 10.5893 0.875 12.821 0.875 15.5714V16.1786C0.875 17.2518 1.73582 18.125 2.8 18.125H11.8C12.8642 18.125 13.725 17.2518 13.725 16.1786V15.5714C13.725 14.3109 13.2635 13.1626 12.5018 12.2867ZM12.8838 11.1171L12.7898 11.2067L12.8829 11.2972C13.1653 11.5719 13.4225 11.8804 13.6469 12.2079L13.7397 12.3434L13.8456 12.2178C13.931 12.1165 14.0575 12.0536 14.2038 12.0536H23.2C23.4596 12.0536 23.675 12.2694 23.675 12.5357V13.1429C23.675 15.0864 22.1171 16.6607 20.2 16.6607H17.2C16.3098 16.6607 15.4993 16.324 14.8839 15.7671L14.675 15.5782V15.8598V16.1786C14.675 16.5353 14.6102 16.8774 14.4952 17.1903L14.4608 17.2839L14.5443 17.3382C15.3102 17.8368 16.2226 18.125 17.2 18.125H20.2C22.9217 18.125 25.125 15.8933 25.125 13.1429V12.5357C25.125 11.4625 24.2642 10.5893 23.2 10.5893H14.2C13.6903 10.5893 13.2285 10.7885 12.8838 11.1171ZM4.425 4.94643C4.425 4.60385 4.49168 4.26466 4.62121 3.94824C4.75073 3.63182 4.94054 3.34441 5.17972 3.10238C5.4189 2.86035 5.70277 2.66844 6.01508 2.53754C6.32738 2.40664 6.66205 2.33929 7 2.33929C7.33795 2.33929 7.67262 2.40664 7.98493 2.53754C8.29723 2.66844 8.5811 2.86035 8.82028 3.10238C9.05946 3.34441 9.24927 3.63182 9.37879 3.94824C9.50832 4.26466 9.575 4.60385 9.575 4.94643C9.575 5.28901 9.50832 5.6282 9.37879 5.94462C9.24927 6.26104 9.05946 6.54845 8.82028 6.79048C8.5811 7.03251 8.29723 7.22441 7.98493 7.35532C7.67262 7.48622 7.33795 7.55357 7 7.55357C6.66205 7.55357 6.32738 7.48622 6.01508 7.35532C5.70277 7.22441 5.4189 7.03251 5.17972 6.79048C4.94054 6.54845 4.75073 6.26104 4.62121 5.94462C4.49168 5.6282 4.425 5.28901 4.425 4.94643ZM11.025 4.94643C11.025 3.86709 10.6013 2.83167 9.84663 2.06802C9.09191 1.30432 8.06798 0.875 7 0.875C5.93202 0.875 4.90809 1.30432 4.15337 2.06802C3.39871 2.83167 2.975 3.86709 2.975 4.94643C2.975 6.02576 3.39871 7.06119 4.15337 7.82484C4.90809 8.58854 5.93202 9.01786 7 9.01786C8.06798 9.01786 9.09191 8.58854 9.84663 7.82484C10.6013 7.06119 11.025 6.02576 11.025 4.94643ZM16.425 4.94643C16.425 4.2545 16.6966 3.5912 17.1797 3.10238C17.6627 2.6136 18.3175 2.33929 19 2.33929C19.6825 2.33929 20.3373 2.6136 20.8203 3.10238C21.3034 3.5912 21.575 4.2545 21.575 4.94643C21.575 5.63836 21.3034 6.30166 20.8203 6.79048C20.3373 7.27925 19.6825 7.55357 19 7.55357C18.3175 7.55357 17.6627 7.27925 17.1797 6.79048C16.6966 6.30166 16.425 5.63836 16.425 4.94643ZM23.025 4.94643C23.025 3.86709 22.6013 2.83167 21.8466 2.06802C21.0919 1.30432 20.068 0.875 19 0.875C17.932 0.875 16.9081 1.30432 16.1534 2.06802C15.3987 2.83167 14.975 3.86709 14.975 4.94643C14.975 6.02576 15.3987 7.06119 16.1534 7.82484C16.9081 8.58854 17.932 9.01786 19 9.01786C20.068 9.01786 21.0919 8.58854 21.8466 7.82484C22.6013 7.06119 23.025 6.02576 23.025 4.94643ZM8.8 12.0536C10.7171 12.0536 12.275 13.6279 12.275 15.5714V16.1786C12.275 16.4449 12.0596 16.6607 11.8 16.6607H2.8C2.54043 16.6607 2.325 16.4449 2.325 16.1786V15.5714C2.325 13.6279 3.88293 12.0536 5.8 12.0536H8.8Z" fill="#00BFFF" stroke="#00BFFF" stroke-width="0.25"/>
</svg>
