<svg width="163" height="118" viewBox="0 0 163 118" fill="none" xmlns="http://www.w3.org/2000/svg">
<path d="M33.6256 106.787C65.5116 117.839 112.862 109.844 139.384 88.9301C165.907 68.0157 161.559 42.104 129.673 31.0516C97.787 19.9993 50.4369 27.9942 23.9145 48.9085C-2.60795 69.8229 1.73967 95.7346 33.6256 106.787Z" fill="#00AEEF"/>
<path opacity="0.5" d="M33.6256 106.787C65.5116 117.839 112.862 109.844 139.384 88.9301C165.907 68.0157 161.559 42.104 129.673 31.0516C97.787 19.9993 50.4369 27.9942 23.9145 48.9085C-2.60795 69.8229 1.73967 95.7346 33.6256 106.787Z" fill="#00AEEF"/>
<path d="M126.521 17.5308L61.3008 0L36.8687 91.4693L102.089 109L126.521 17.5308Z" fill="#EBEBEB"/>
<path d="M82.1763 35.4758L59.1088 29.2754L65 7.21973L88.0675 13.4202L82.1763 35.4758ZM61.8457 27.6856L80.5979 32.7261L85.3299 15.0104L66.5777 9.96993L61.8457 27.6856Z" fill="#0052B4"/>
<path d="M75.058 21.1178L91.2251 11.7271L93.7926 16.2015L77.626 25.593L73.1717 28.1799L70.6042 23.7055L67.0474 17.5071L71.5012 14.9194L75.058 21.1178Z" fill="#FFC727"/>
<path d="M117.659 26.5248L92.8752 19.8629C92.8438 19.8545 92.8115 19.8733 92.8031 19.9048L91.8945 23.3065C91.886 23.3381 91.9047 23.3705 91.9361 23.3789L116.72 30.0408C116.752 30.0492 116.784 30.0305 116.792 29.9989L117.701 26.5972C117.709 26.5657 117.691 26.5332 117.659 26.5248Z" fill="#19B6F1"/>
<path d="M115.997 32.7465L91.2131 26.0846C91.1817 26.0762 91.1494 26.0949 91.141 26.1265L90.2324 29.5282C90.2239 29.5597 90.2426 29.5922 90.2739 29.6006L115.058 36.2625C115.09 36.2709 115.122 36.2522 115.13 36.2206L116.039 32.8189C116.047 32.7873 116.029 32.7549 115.997 32.7465Z" fill="#19B6F1"/>
<path d="M103.47 36.0496L89.5369 32.3045C89.5133 32.2981 89.489 32.3122 89.4826 32.336L88.5665 35.7659C88.5601 35.7897 88.5741 35.8141 88.5978 35.8205L102.531 39.5656C102.554 39.5719 102.579 39.5578 102.585 39.534L103.501 36.1041C103.507 36.0803 103.493 36.0559 103.47 36.0496Z" fill="#19B6F1"/>
<path d="M74.5005 64.2102L51.433 58.0098L57.3242 35.9541L80.3918 42.1545L74.5005 64.2102ZM54.1699 56.4199L72.9221 61.4604L77.6541 43.7448L58.9019 38.7043L54.1699 56.4199Z" fill="#19B6F1"/>
<path d="M109.984 55.2601L85.1994 48.5983C85.168 48.5898 85.1357 48.6086 85.1273 48.6402L84.2187 52.0418C84.2103 52.0734 84.2289 52.1059 84.2603 52.1143L109.044 58.7762C109.076 58.7846 109.108 58.7658 109.117 58.7343L110.025 55.3326C110.034 55.301 110.015 55.2686 109.984 55.2601Z" fill="#19B6F1"/>
<path d="M108.321 61.4808L83.5373 54.819C83.5059 54.8106 83.4736 54.8293 83.4652 54.8609L82.5566 58.2625C82.5482 58.2941 82.5668 58.3266 82.5982 58.335L107.382 64.9969C107.414 65.0053 107.446 64.9865 107.454 64.955L108.363 61.5533C108.372 61.5217 108.353 61.4893 108.321 61.4808Z" fill="#19B6F1"/>
<path d="M95.796 64.7839L81.8631 61.0388C81.8395 61.0325 81.8152 61.0466 81.8088 61.0704L80.8927 64.5003C80.8863 64.5241 80.9003 64.5485 80.9239 64.5549L94.8568 68.2999C94.8805 68.3063 94.9048 68.2922 94.9111 68.2684L95.8273 64.8385C95.8336 64.8147 95.8196 64.7903 95.796 64.7839Z" fill="#19B6F1"/>
<path d="M66.8267 92.9456L43.7592 86.7451L49.6504 64.6895L72.7179 70.8899L66.8267 92.9456ZM46.4961 85.1553L65.2483 90.1958L69.9803 72.4802L51.228 67.4397L46.4961 85.1553Z" fill="#19B6F1"/>
<path d="M102.31 83.9945L77.5256 77.3327C77.4942 77.3242 77.4619 77.343 77.4535 77.3746L76.5449 80.7762C76.5364 80.8078 76.5551 80.8402 76.5865 80.8487L101.371 87.5105C101.402 87.519 101.434 87.5002 101.443 87.4686L102.351 84.067C102.36 84.0354 102.341 84.003 102.31 83.9945Z" fill="#19B6F1"/>
<path d="M100.646 90.2172L75.8615 83.5553C75.8301 83.5469 75.7979 83.5656 75.7894 83.5972L74.8808 86.9989C74.8724 87.0305 74.891 87.0629 74.9224 87.0713L99.7066 93.7332C99.738 93.7416 99.7702 93.7229 99.7787 93.6913L100.687 90.2896C100.696 90.2581 100.677 90.2256 100.646 90.2172Z" fill="#19B6F1"/>
<path d="M88.1184 93.5193L74.1855 89.7742C74.1619 89.7678 74.1376 89.782 74.1312 89.8057L73.2151 93.2357C73.2087 93.2594 73.2227 93.2838 73.2464 93.2902L87.1792 97.0353C87.2029 97.0416 87.2272 97.0275 87.2335 97.0038L88.1497 93.5738C88.156 93.55 88.142 93.5256 88.1184 93.5193Z" fill="#19B6F1"/>
</svg>
