<svg width="30" height="30" viewBox="0 0 30 30" fill="none" xmlns="http://www.w3.org/2000/svg">
<path d="M15 0C6.72912 0 0 6.72912 0 15C0 23.2709 6.72912 30 15 30C23.2709 30 30 23.2709 30 15C30 6.72912 23.2709 0 15 0ZM15 28.0484C7.8064 28.0484 1.9516 22.1936 1.9516 15C1.9516 7.8064 7.8025 1.9516 15 1.9516C22.1936 1.9516 28.0484 7.8025 28.0484 15C28.0484 22.1936 22.1936 28.0484 15 28.0484Z" fill="#666666"/>
<path d="M9.30137 15.7414C10.265 15.7414 11.0461 14.9603 11.0461 13.9967C11.0461 13.0331 10.265 12.252 9.30137 12.252C8.33778 12.252 7.55664 13.0331 7.55664 13.9967C7.55664 14.9603 8.33778 15.7414 9.30137 15.7414Z" fill="#666666"/>
<path d="M20.6988 15.7414C21.6624 15.7414 22.4436 14.9603 22.4436 13.9967C22.4436 13.0331 21.6624 12.252 20.6988 12.252C19.7352 12.252 18.9541 13.0331 18.9541 13.9967C18.9541 14.9603 19.7352 15.7414 20.6988 15.7414Z" fill="#666666"/>
<path d="M19.3173 17.837C18.8489 17.5755 18.2517 17.7394 17.9902 18.2078C17.9824 18.2195 17.1705 19.5544 15.0081 19.5544C15.0042 19.5544 14.9964 19.5544 14.9925 19.5544C12.8497 19.5544 12.0417 18.2507 12.0144 18.2078C11.749 17.7394 11.1557 17.5716 10.6873 17.837C10.2189 18.1024 10.0511 18.6957 10.3165 19.168C10.3711 19.2656 11.6748 21.5099 14.9925 21.5099C15.0003 21.5099 15.0081 21.5099 15.0159 21.5099C18.3376 21.5099 19.6412 19.2617 19.6959 19.168C19.9535 18.6957 19.7857 18.1024 19.3173 17.837Z" fill="#666666"/>
</svg>
