<svg width="1387" height="1102" viewBox="0 0 1387 1102" fill="none" xmlns="http://www.w3.org/2000/svg">
<path opacity="0.1" d="M1074.61 1061.89C1226.21 1016.96 1333.76 925.521 1373.71 807.608C1404.78 713.624 1384 596.262 1280.02 511.521C1228.15 469.302 1155.42 433.105 1137.12 381.684C1119.54 331.993 1162.02 291.093 1167.86 243.484C1173.71 195.876 1141.65 143.291 1093 101.881C1044.35 60.4711 980.985 29.3592 915.937 4.88959C670.252 -87.6679 392.599 -91.1844 176.378 -23.9905C2.86897 29.9141 -135.958 128.446 -203.319 257.152C-270.679 385.858 -263.738 544.569 -174.51 690.473C-111.718 793.109 68.1845 929.383 207.74 979.794C685.25 1152.27 929.528 1104.15 1074.61 1061.89Z" fill="#00BFFF"/>
</svg>
