<svg width="360" height="329" viewBox="0 0 360 329" fill="none" xmlns="http://www.w3.org/2000/svg">
<rect x="-10" width="387" height="287" rx="10" fill="#FF7F50"/>
<rect x="20.5" y="104.5" width="99" height="29" rx="4.5" fill="#FF7F50"/>
<path d="M34.5137 121.341C34.5137 122.22 34.1947 122.906 33.5566 123.398C32.9186 123.891 32.0527 124.137 30.959 124.137C29.7741 124.137 28.8626 123.984 28.2246 123.679V122.558C28.6348 122.731 29.0814 122.868 29.5645 122.968C30.0475 123.068 30.526 123.118 31 123.118C31.7747 123.118 32.3581 122.972 32.75 122.681C33.1419 122.384 33.3379 121.974 33.3379 121.45C33.3379 121.104 33.2673 120.821 33.126 120.603C32.9893 120.379 32.7568 120.174 32.4287 119.987C32.1051 119.8 31.6107 119.589 30.9453 119.352C30.0156 119.019 29.3503 118.625 28.9492 118.169C28.5527 117.713 28.3545 117.118 28.3545 116.385C28.3545 115.615 28.6439 115.002 29.2227 114.546C29.8014 114.09 30.5671 113.862 31.5195 113.862C32.513 113.862 33.4268 114.045 34.2607 114.409L33.8984 115.421C33.0736 115.075 32.2715 114.901 31.4922 114.901C30.877 114.901 30.3962 115.034 30.0498 115.298C29.7035 115.562 29.5303 115.929 29.5303 116.398C29.5303 116.745 29.5941 117.03 29.7217 117.253C29.8493 117.472 30.0635 117.674 30.3643 117.861C30.6696 118.044 31.1344 118.246 31.7588 118.47C32.807 118.843 33.527 119.244 33.9189 119.673C34.3154 120.101 34.5137 120.657 34.5137 121.341ZM39.5546 124.137C38.4471 124.137 37.5721 123.799 36.9296 123.125C36.2915 122.451 35.9725 121.514 35.9725 120.315C35.9725 119.108 36.2688 118.148 36.8612 117.438C37.4582 116.727 38.258 116.371 39.2606 116.371C40.1994 116.371 40.9423 116.681 41.4891 117.301C42.036 117.916 42.3094 118.729 42.3094 119.741V120.459H37.1483C37.1711 121.339 37.3921 122.006 37.8114 122.462C38.2352 122.918 38.8299 123.146 39.5956 123.146C40.4022 123.146 41.1997 122.977 41.9882 122.64V123.651C41.5871 123.825 41.2066 123.948 40.8465 124.021C40.4911 124.098 40.0604 124.137 39.5546 124.137ZM39.2469 117.321C38.6454 117.321 38.1646 117.517 37.8046 117.909C37.4491 118.301 37.2395 118.843 37.1757 119.536H41.0926C41.0926 118.821 40.9331 118.274 40.6141 117.896C40.2951 117.513 39.8394 117.321 39.2469 117.321ZM48.8611 124L48.6355 122.934H48.5808C48.2071 123.403 47.8334 123.722 47.4597 123.891C47.0906 124.055 46.628 124.137 46.072 124.137C45.3292 124.137 44.7458 123.945 44.322 123.562C43.9027 123.18 43.6931 122.635 43.6931 121.929C43.6931 120.416 44.9031 119.623 47.323 119.55L48.5945 119.509V119.044C48.5945 118.456 48.4669 118.023 48.2117 117.745C47.961 117.463 47.5577 117.321 47.0017 117.321C46.3773 117.321 45.671 117.513 44.8826 117.896L44.5339 117.027C44.9031 116.827 45.3064 116.67 45.7439 116.556C46.1859 116.442 46.628 116.385 47.0701 116.385C47.9633 116.385 48.6241 116.583 49.0525 116.979C49.4854 117.376 49.7019 118.012 49.7019 118.887V124H48.8611ZM46.2976 123.2C47.004 123.2 47.5577 123.007 47.9587 122.619C48.3643 122.232 48.5671 121.689 48.5671 120.992V120.315L47.4324 120.363C46.53 120.395 45.8783 120.536 45.4773 120.787C45.0808 121.033 44.8826 121.418 44.8826 121.942C44.8826 122.353 45.0056 122.665 45.2517 122.879C45.5023 123.093 45.851 123.2 46.2976 123.2ZM62.1421 124L60.8979 120.821H56.8921L55.6616 124H54.4858L58.437 113.965H59.4145L63.3452 124H62.1421ZM60.5356 119.775L59.3735 116.679C59.2231 116.287 59.0682 115.806 58.9087 115.236C58.8084 115.674 58.6648 116.155 58.478 116.679L57.3022 119.775H60.5356ZM67.5452 124.137C66.4606 124.137 65.6198 123.804 65.0228 123.139C64.4303 122.469 64.1341 121.523 64.1341 120.302C64.1341 119.049 64.4349 118.08 65.0365 117.396C65.6426 116.713 66.5039 116.371 67.6204 116.371C67.9805 116.371 68.3405 116.41 68.7005 116.487C69.0605 116.565 69.3431 116.656 69.5482 116.761L69.1995 117.725C68.9489 117.624 68.6755 117.542 68.3792 117.479C68.083 117.41 67.821 117.376 67.5931 117.376C66.071 117.376 65.3099 118.347 65.3099 120.288C65.3099 121.209 65.4945 121.915 65.8636 122.407C66.2373 122.899 66.7887 123.146 67.5179 123.146C68.1423 123.146 68.7826 123.011 69.4388 122.742V123.747C68.9375 124.007 68.3063 124.137 67.5452 124.137ZM73.6457 123.2C73.8462 123.2 74.0399 123.187 74.2268 123.159C74.4136 123.127 74.5617 123.095 74.6711 123.063V123.932C74.548 123.991 74.3658 124.039 74.1242 124.075C73.8872 124.116 73.673 124.137 73.4816 124.137C72.0324 124.137 71.3078 123.373 71.3078 121.847V117.39H70.2346V116.843L71.3078 116.371L71.7863 114.771H72.4426V116.508H74.6164V117.39H72.4426V121.799C72.4426 122.25 72.5497 122.596 72.7639 122.838C72.9781 123.079 73.272 123.2 73.6457 123.2ZM77.3126 124H76.1778V116.508H77.3126V124ZM76.0821 114.478C76.0821 114.218 76.1459 114.029 76.2735 113.91C76.4011 113.787 76.5606 113.726 76.752 113.726C76.9343 113.726 77.0915 113.787 77.2237 113.91C77.3559 114.033 77.4219 114.222 77.4219 114.478C77.4219 114.733 77.3559 114.924 77.2237 115.052C77.0915 115.175 76.9343 115.236 76.752 115.236C76.5606 115.236 76.4011 115.175 76.2735 115.052C76.1459 114.924 76.0821 114.733 76.0821 114.478ZM81.3622 124L78.5185 116.508H79.7353L81.3486 120.951C81.7132 121.99 81.9273 122.665 81.9911 122.975H82.0458C82.096 122.733 82.2532 122.234 82.5175 121.478C82.7864 120.716 83.3857 119.06 84.3154 116.508H85.5322L82.6884 124H81.3622ZM87.8729 124H86.7381V116.508H87.8729V124ZM86.6424 114.478C86.6424 114.218 86.7062 114.029 86.8338 113.91C86.9614 113.787 87.1209 113.726 87.3123 113.726C87.4946 113.726 87.6518 113.787 87.784 113.91C87.9162 114.033 87.9822 114.222 87.9822 114.478C87.9822 114.733 87.9162 114.924 87.784 115.052C87.6518 115.175 87.4946 115.236 87.3123 115.236C87.1209 115.236 86.9614 115.175 86.8338 115.052C86.7062 114.924 86.6424 114.733 86.6424 114.478ZM92.7018 123.2C92.9023 123.2 93.096 123.187 93.2829 123.159C93.4697 123.127 93.6178 123.095 93.7272 123.063V123.932C93.6042 123.991 93.4219 124.039 93.1803 124.075C92.9434 124.116 92.7292 124.137 92.5378 124.137C91.0885 124.137 90.3639 123.373 90.3639 121.847V117.39H89.2907V116.843L90.3639 116.371L90.8425 114.771H91.4987V116.508H93.6725V117.39H91.4987V121.799C91.4987 122.25 91.6058 122.596 91.82 122.838C92.0342 123.079 92.3281 123.2 92.7018 123.2ZM96.3687 124H95.2339V116.508H96.3687V124ZM95.1382 114.478C95.1382 114.218 95.202 114.029 95.3296 113.91C95.4572 113.787 95.6167 113.726 95.8081 113.726C95.9904 113.726 96.1477 113.787 96.2798 113.91C96.412 114.033 96.4781 114.222 96.4781 114.478C96.4781 114.733 96.412 114.924 96.2798 115.052C96.1477 115.175 95.9904 115.236 95.8081 115.236C95.6167 115.236 95.4572 115.175 95.3296 115.052C95.202 114.924 95.1382 114.733 95.1382 114.478ZM101.943 124.137C100.835 124.137 99.9604 123.799 99.3178 123.125C98.6798 122.451 98.3607 121.514 98.3607 120.315C98.3607 119.108 98.657 118.148 99.2494 117.438C99.8464 116.727 100.646 116.371 101.649 116.371C102.588 116.371 103.33 116.681 103.877 117.301C104.424 117.916 104.698 118.729 104.698 119.741V120.459H99.5365C99.5593 121.339 99.7803 122.006 100.2 122.462C100.623 122.918 101.218 123.146 101.984 123.146C102.79 123.146 103.588 122.977 104.376 122.64V123.651C103.975 123.825 103.595 123.948 103.235 124.021C102.879 124.098 102.449 124.137 101.943 124.137ZM101.635 117.321C101.034 117.321 100.553 117.517 100.193 117.909C99.8373 118.301 99.6277 118.843 99.5639 119.536H103.481C103.481 118.821 103.321 118.274 103.002 117.896C102.683 117.513 102.228 117.321 101.635 117.321ZM111.475 121.956C111.475 122.653 111.215 123.191 110.696 123.569C110.176 123.948 109.447 124.137 108.508 124.137C107.515 124.137 106.74 123.979 106.184 123.665V122.612C106.544 122.795 106.929 122.938 107.339 123.043C107.754 123.148 108.153 123.2 108.535 123.2C109.128 123.2 109.584 123.107 109.903 122.92C110.222 122.729 110.381 122.439 110.381 122.052C110.381 121.76 110.254 121.512 109.998 121.307C109.748 121.097 109.255 120.851 108.522 120.568C107.824 120.309 107.328 120.083 107.032 119.892C106.74 119.696 106.521 119.475 106.375 119.229C106.234 118.982 106.163 118.688 106.163 118.347C106.163 117.736 106.412 117.255 106.908 116.904C107.405 116.549 108.087 116.371 108.952 116.371C109.759 116.371 110.547 116.535 111.318 116.863L110.914 117.786C110.162 117.476 109.481 117.321 108.87 117.321C108.333 117.321 107.927 117.406 107.654 117.574C107.38 117.743 107.243 117.975 107.243 118.271C107.243 118.472 107.294 118.643 107.394 118.784C107.499 118.925 107.665 119.06 107.893 119.188C108.121 119.315 108.558 119.5 109.205 119.741C110.094 120.065 110.693 120.391 111.003 120.719C111.318 121.047 111.475 121.459 111.475 121.956Z" fill="white"/>
<rect x="20.5" y="104.5" width="99" height="29" rx="4.5" stroke="white"/>
<rect x="130.5" y="104.5" width="99" height="29" rx="4.5" fill="#FF7F50"/>
<path d="M170.711 116.918C170.711 117.93 170.365 118.709 169.672 119.256C168.984 119.798 167.997 120.069 166.712 120.069H165.536V124H164.374V114.006H166.965C169.462 114.006 170.711 114.977 170.711 116.918ZM165.536 119.071H166.582C167.612 119.071 168.357 118.905 168.817 118.572C169.278 118.24 169.508 117.706 169.508 116.973C169.508 116.312 169.291 115.82 168.858 115.496C168.425 115.173 167.751 115.011 166.835 115.011H165.536V119.071ZM177.249 124L177.023 122.934H176.969C176.595 123.403 176.221 123.722 175.848 123.891C175.478 124.055 175.016 124.137 174.46 124.137C173.717 124.137 173.134 123.945 172.71 123.562C172.291 123.18 172.081 122.635 172.081 121.929C172.081 120.416 173.291 119.623 175.711 119.55L176.982 119.509V119.044C176.982 118.456 176.855 118.023 176.599 117.745C176.349 117.463 175.946 117.321 175.39 117.321C174.765 117.321 174.059 117.513 173.27 117.896L172.922 117.027C173.291 116.827 173.694 116.67 174.132 116.556C174.574 116.442 175.016 116.385 175.458 116.385C176.351 116.385 177.012 116.583 177.44 116.979C177.873 117.376 178.09 118.012 178.09 118.887V124H177.249ZM174.685 123.2C175.392 123.2 175.946 123.007 176.347 122.619C176.752 122.232 176.955 121.689 176.955 120.992V120.315L175.82 120.363C174.918 120.395 174.266 120.536 173.865 120.787C173.469 121.033 173.27 121.418 173.27 121.942C173.27 122.353 173.393 122.665 173.64 122.879C173.89 123.093 174.239 123.2 174.685 123.2ZM183.855 116.371C184.188 116.371 184.486 116.398 184.751 116.453L184.593 117.506C184.284 117.438 184.01 117.403 183.773 117.403C183.167 117.403 182.648 117.649 182.215 118.142C181.786 118.634 181.572 119.247 181.572 119.98V124H180.437V116.508H181.374L181.504 117.896H181.558C181.836 117.408 182.171 117.032 182.563 116.768C182.955 116.503 183.386 116.371 183.855 116.371ZM188.575 123.2C188.775 123.2 188.969 123.187 189.156 123.159C189.343 123.127 189.491 123.095 189.6 123.063V123.932C189.477 123.991 189.295 124.039 189.053 124.075C188.816 124.116 188.602 124.137 188.411 124.137C186.962 124.137 186.237 123.373 186.237 121.847V117.39H185.164V116.843L186.237 116.371L186.715 114.771H187.372V116.508H189.546V117.39H187.372V121.799C187.372 122.25 187.479 122.596 187.693 122.838C187.907 123.079 188.201 123.2 188.575 123.2ZM189.917 116.508H191.134L192.775 120.78C193.135 121.756 193.358 122.46 193.445 122.893H193.499C193.559 122.66 193.682 122.264 193.869 121.703C194.06 121.138 194.68 119.406 195.728 116.508H196.945L193.725 125.039C193.406 125.882 193.032 126.479 192.604 126.83C192.18 127.186 191.658 127.363 191.039 127.363C190.692 127.363 190.35 127.325 190.013 127.247V126.338C190.264 126.393 190.544 126.42 190.854 126.42C191.633 126.42 192.189 125.982 192.522 125.107L192.939 124.041L189.917 116.508Z" fill="white"/>
<rect x="130.5" y="104.5" width="99" height="29" rx="4.5" stroke="white"/>
<rect x="240.5" y="104.5" width="99" height="29" rx="4.5" fill="#FF7F50"/>
<path d="M258.036 119.844V124H256.874V114.006H259.615C260.841 114.006 261.746 114.241 262.329 114.71C262.917 115.179 263.211 115.886 263.211 116.829C263.211 118.151 262.541 119.044 261.201 119.509L263.915 124H262.541L260.121 119.844H258.036ZM258.036 118.846H259.629C260.449 118.846 261.051 118.684 261.434 118.36C261.816 118.032 262.008 117.542 262.008 116.891C262.008 116.23 261.812 115.754 261.42 115.462C261.033 115.17 260.408 115.024 259.547 115.024H258.036V118.846ZM268.525 124.137C267.418 124.137 266.543 123.799 265.9 123.125C265.262 122.451 264.943 121.514 264.943 120.315C264.943 119.108 265.239 118.148 265.832 117.438C266.429 116.727 267.229 116.371 268.231 116.371C269.17 116.371 269.913 116.681 270.46 117.301C271.007 117.916 271.28 118.729 271.28 119.741V120.459H266.119C266.142 121.339 266.363 122.006 266.782 122.462C267.206 122.918 267.801 123.146 268.566 123.146C269.373 123.146 270.17 122.977 270.959 122.64V123.651C270.558 123.825 270.177 123.948 269.817 124.021C269.462 124.098 269.031 124.137 268.525 124.137ZM268.218 117.321C267.616 117.321 267.135 117.517 266.775 117.909C266.42 118.301 266.21 118.843 266.146 119.536H270.063C270.063 118.821 269.904 118.274 269.585 117.896C269.266 117.513 268.81 117.321 268.218 117.321ZM274.359 124H273.224V113.363H274.359V124ZM281.376 124L281.15 122.934H281.095C280.722 123.403 280.348 123.722 279.974 123.891C279.605 124.055 279.143 124.137 278.587 124.137C277.844 124.137 277.26 123.945 276.837 123.562C276.417 123.18 276.208 122.635 276.208 121.929C276.208 120.416 277.418 119.623 279.838 119.55L281.109 119.509V119.044C281.109 118.456 280.981 118.023 280.726 117.745C280.476 117.463 280.072 117.321 279.516 117.321C278.892 117.321 278.185 117.513 277.397 117.896L277.048 117.027C277.418 116.827 277.821 116.67 278.258 116.556C278.7 116.442 279.143 116.385 279.585 116.385C280.478 116.385 281.139 116.583 281.567 116.979C282 117.376 282.216 118.012 282.216 118.887V124H281.376ZM278.812 123.2C279.518 123.2 280.072 123.007 280.473 122.619C280.879 122.232 281.082 121.689 281.082 120.992V120.315L279.947 120.363C279.045 120.395 278.393 120.536 277.992 120.787C277.595 121.033 277.397 121.418 277.397 121.942C277.397 122.353 277.52 122.665 277.766 122.879C278.017 123.093 278.365 123.2 278.812 123.2ZM286.369 120.165L283.764 116.508H285.056L287.032 119.379L289 116.508H290.279L287.674 120.165L290.415 124H289.13L287.032 120.965L284.913 124H283.627L286.369 120.165ZM296.516 124L296.29 122.934H296.236C295.862 123.403 295.488 123.722 295.115 123.891C294.745 124.055 294.283 124.137 293.727 124.137C292.984 124.137 292.401 123.945 291.977 123.562C291.558 123.18 291.348 122.635 291.348 121.929C291.348 120.416 292.558 119.623 294.978 119.55L296.249 119.509V119.044C296.249 118.456 296.122 118.023 295.867 117.745C295.616 117.463 295.213 117.321 294.657 117.321C294.032 117.321 293.326 117.513 292.537 117.896L292.189 117.027C292.558 116.827 292.961 116.67 293.399 116.556C293.841 116.442 294.283 116.385 294.725 116.385C295.618 116.385 296.279 116.583 296.707 116.979C297.14 117.376 297.357 118.012 297.357 118.887V124H296.516ZM293.952 123.2C294.659 123.2 295.213 123.007 295.614 122.619C296.019 122.232 296.222 121.689 296.222 120.992V120.315L295.087 120.363C294.185 120.395 293.533 120.536 293.132 120.787C292.736 121.033 292.537 121.418 292.537 121.942C292.537 122.353 292.66 122.665 292.907 122.879C293.157 123.093 293.506 123.2 293.952 123.2ZM302.124 123.2C302.325 123.2 302.518 123.187 302.705 123.159C302.892 123.127 303.04 123.095 303.15 123.063V123.932C303.027 123.991 302.844 124.039 302.603 124.075C302.366 124.116 302.152 124.137 301.96 124.137C300.511 124.137 299.786 123.373 299.786 121.847V117.39H298.713V116.843L299.786 116.371L300.265 114.771H300.921V116.508H303.095V117.39H300.921V121.799C300.921 122.25 301.028 122.596 301.242 122.838C301.457 123.079 301.751 123.2 302.124 123.2ZM305.791 124H304.656V116.508H305.791V124ZM304.561 114.478C304.561 114.218 304.624 114.029 304.752 113.91C304.88 113.787 305.039 113.726 305.231 113.726C305.413 113.726 305.57 113.787 305.702 113.91C305.834 114.033 305.9 114.222 305.9 114.478C305.9 114.733 305.834 114.924 305.702 115.052C305.57 115.175 305.413 115.236 305.231 115.236C305.039 115.236 304.88 115.175 304.752 115.052C304.624 114.924 304.561 114.733 304.561 114.478ZM314.667 120.247C314.667 121.468 314.359 122.423 313.744 123.111C313.129 123.795 312.279 124.137 311.194 124.137C310.524 124.137 309.93 123.979 309.41 123.665C308.891 123.351 308.49 122.899 308.207 122.312C307.924 121.724 307.783 121.035 307.783 120.247C307.783 119.026 308.088 118.076 308.699 117.396C309.31 116.713 310.157 116.371 311.242 116.371C312.29 116.371 313.122 116.72 313.737 117.417C314.357 118.114 314.667 119.058 314.667 120.247ZM308.959 120.247C308.959 121.204 309.15 121.933 309.533 122.435C309.916 122.936 310.479 123.187 311.222 123.187C311.964 123.187 312.527 122.938 312.91 122.441C313.297 121.94 313.491 121.209 313.491 120.247C313.491 119.295 313.297 118.572 312.91 118.08C312.527 117.583 311.96 117.335 311.208 117.335C310.465 117.335 309.905 117.579 309.526 118.066C309.148 118.554 308.959 119.281 308.959 120.247ZM321.793 124V119.153C321.793 118.543 321.654 118.087 321.376 117.786C321.098 117.485 320.663 117.335 320.07 117.335C319.286 117.335 318.712 117.547 318.347 117.971C317.983 118.395 317.801 119.094 317.801 120.069V124H316.666V116.508H317.589L317.773 117.533H317.828C318.06 117.164 318.386 116.879 318.805 116.679C319.225 116.474 319.692 116.371 320.207 116.371C321.109 116.371 321.788 116.59 322.244 117.027C322.7 117.46 322.928 118.155 322.928 119.112V124H321.793Z" fill="white"/>
<rect x="240.5" y="104.5" width="99" height="29" rx="4.5" stroke="white"/>
<rect x="20.5" y="144.5" width="99" height="29" rx="4.5" fill="#FF7F50"/>
<path d="M41.7109 156.918C41.7109 157.93 41.3646 158.709 40.6719 159.256C39.9837 159.798 38.9971 160.069 37.7119 160.069H36.5361V164H35.374V154.006H37.9648C40.4622 154.006 41.7109 154.977 41.7109 156.918ZM36.5361 159.071H37.582C38.612 159.071 39.3571 158.905 39.8174 158.572C40.2777 158.24 40.5078 157.706 40.5078 156.973C40.5078 156.312 40.2913 155.82 39.8584 155.496C39.4255 155.173 38.751 155.011 37.835 155.011H36.5361V159.071ZM50.1083 160.247C50.1083 161.468 49.8007 162.423 49.1854 163.111C48.5702 163.795 47.7202 164.137 46.6356 164.137C45.9657 164.137 45.371 163.979 44.8514 163.665C44.3319 163.351 43.9309 162.899 43.6483 162.312C43.3658 161.724 43.2245 161.035 43.2245 160.247C43.2245 159.026 43.5298 158.076 44.1405 157.396C44.7512 156.713 45.5988 156.371 46.6835 156.371C47.7316 156.371 48.5633 156.72 49.1786 157.417C49.7984 158.114 50.1083 159.058 50.1083 160.247ZM44.4003 160.247C44.4003 161.204 44.5917 161.933 44.9745 162.435C45.3573 162.936 45.9201 163.187 46.663 163.187C47.4058 163.187 47.9686 162.938 48.3514 162.441C48.7388 161.94 48.9325 161.209 48.9325 160.247C48.9325 159.295 48.7388 158.572 48.3514 158.08C47.9686 157.583 47.4012 157.335 46.6493 157.335C45.9064 157.335 45.3459 157.579 44.9676 158.066C44.5894 158.554 44.4003 159.281 44.4003 160.247ZM58.2253 164L56.8513 159.604C56.7647 159.336 56.6029 158.725 56.366 157.772H56.3113C56.129 158.57 55.9695 159.185 55.8327 159.618L54.4177 164H53.1052L51.0613 156.508H52.2507C52.7338 158.39 53.1007 159.823 53.3513 160.808C53.6065 161.792 53.7523 162.455 53.7888 162.797H53.8435C53.8936 162.537 53.9734 162.202 54.0827 161.792C54.1967 161.377 54.2947 161.049 54.3767 160.808L55.7507 156.508H56.9812L58.321 160.808C58.5762 161.591 58.7494 162.25 58.8406 162.783H58.8952C58.9135 162.619 58.9613 162.366 59.0388 162.024C59.1208 161.683 59.5971 159.844 60.4675 156.508H61.6433L59.572 164H58.2253ZM66.1715 164.137C65.0641 164.137 64.1891 163.799 63.5465 163.125C62.9085 162.451 62.5895 161.514 62.5895 160.315C62.5895 159.108 62.8857 158.148 63.4781 157.438C64.0751 156.727 64.8749 156.371 65.8775 156.371C66.8163 156.371 67.5592 156.681 68.1061 157.301C68.6529 157.916 68.9264 158.729 68.9264 159.741V160.459H63.7652C63.788 161.339 64.0091 162.006 64.4283 162.462C64.8521 162.918 65.4469 163.146 66.2125 163.146C67.0191 163.146 67.8167 162.977 68.6051 162.64V163.651C68.204 163.825 67.8235 163.948 67.4635 164.021C67.108 164.098 66.6773 164.137 66.1715 164.137ZM65.8639 157.321C65.2623 157.321 64.7815 157.517 64.4215 157.909C64.066 158.301 63.8564 158.843 63.7926 159.536H67.7096C67.7096 158.821 67.5501 158.274 67.2311 157.896C66.912 157.513 66.4563 157.321 65.8639 157.321ZM74.2885 156.371C74.6212 156.371 74.9197 156.398 75.1841 156.453L75.0268 157.506C74.7169 157.438 74.4435 157.403 74.2065 157.403C73.6004 157.403 73.0809 157.649 72.6479 158.142C72.2195 158.634 72.0053 159.247 72.0053 159.98V164H70.8706V156.508H71.8071L71.937 157.896H71.9917C72.2697 157.408 72.6046 157.032 72.9966 156.768C73.3885 156.503 73.8191 156.371 74.2885 156.371ZM80.0745 156.385C81.0589 156.385 81.8223 156.722 82.3646 157.396C82.9115 158.066 83.1849 159.017 83.1849 160.247C83.1849 161.478 82.9092 162.435 82.3577 163.118C81.8109 163.797 81.0498 164.137 80.0745 164.137C79.5869 164.137 79.1403 164.048 78.7347 163.87C78.3337 163.688 77.9964 163.41 77.723 163.036H77.641L77.4017 164H76.5882V153.363H77.723V155.947C77.723 156.526 77.7048 157.046 77.6683 157.506H77.723C78.2516 156.758 79.0355 156.385 80.0745 156.385ZM79.9105 157.335C79.1357 157.335 78.5775 157.558 78.2357 158.005C77.8939 158.447 77.723 159.194 77.723 160.247C77.723 161.3 77.8984 162.054 78.2494 162.51C78.6003 162.961 79.1631 163.187 79.9378 163.187C80.6351 163.187 81.1546 162.934 81.4964 162.428C81.8382 161.917 82.0091 161.186 82.0091 160.233C82.0091 159.258 81.8382 158.531 81.4964 158.053C81.1546 157.574 80.626 157.335 79.9105 157.335ZM91.6438 160.247C91.6438 161.468 91.3361 162.423 90.7209 163.111C90.1057 163.795 89.2557 164.137 88.1711 164.137C87.5012 164.137 86.9064 163.979 86.3869 163.665C85.8674 163.351 85.4663 162.899 85.1838 162.312C84.9012 161.724 84.76 161.035 84.76 160.247C84.76 159.026 85.0653 158.076 85.676 157.396C86.2867 156.713 87.1343 156.371 88.2189 156.371C89.2671 156.371 90.0988 156.72 90.7141 157.417C91.3339 158.114 91.6438 159.058 91.6438 160.247ZM85.9357 160.247C85.9357 161.204 86.1272 161.933 86.51 162.435C86.8928 162.936 87.4556 163.187 88.1984 163.187C88.9413 163.187 89.5041 162.938 89.8869 162.441C90.2743 161.94 90.468 161.209 90.468 160.247C90.468 159.295 90.2743 158.572 89.8869 158.08C89.5041 157.583 88.9367 157.335 88.1848 157.335C87.4419 157.335 86.8814 157.579 86.5031 158.066C86.1249 158.554 85.9357 159.281 85.9357 160.247ZM98.2501 164L98.0245 162.934H97.9698C97.5961 163.403 97.2224 163.722 96.8487 163.891C96.4796 164.055 96.017 164.137 95.461 164.137C94.7182 164.137 94.1348 163.945 93.711 163.562C93.2917 163.18 93.0821 162.635 93.0821 161.929C93.0821 160.416 94.2921 159.623 96.712 159.55L97.9835 159.509V159.044C97.9835 158.456 97.8559 158.023 97.6007 157.745C97.35 157.463 96.9467 157.321 96.3907 157.321C95.7663 157.321 95.06 157.513 94.2716 157.896L93.9229 157.027C94.2921 156.827 94.6954 156.67 95.1329 156.556C95.5749 156.442 96.017 156.385 96.4591 156.385C97.3523 156.385 98.0131 156.583 98.4415 156.979C98.8744 157.376 99.0909 158.012 99.0909 158.887V164H98.2501ZM95.6866 163.2C96.393 163.2 96.9467 163.007 97.3477 162.619C97.7533 162.232 97.9561 161.689 97.9561 160.992V160.315L96.8214 160.363C95.919 160.395 95.2673 160.536 94.8663 160.787C94.4698 161.033 94.2716 161.418 94.2716 161.942C94.2716 162.353 94.3946 162.665 94.6407 162.879C94.8913 163.093 95.24 163.2 95.6866 163.2ZM103.858 163.2C104.059 163.2 104.253 163.187 104.439 163.159C104.626 163.127 104.774 163.095 104.884 163.063V163.932C104.761 163.991 104.578 164.039 104.337 164.075C104.1 164.116 103.886 164.137 103.694 164.137C102.245 164.137 101.52 163.373 101.52 161.847V157.39H100.447V156.843L101.52 156.371L101.999 154.771H102.655V156.508H104.829V157.39H102.655V161.799C102.655 162.25 102.762 162.596 102.977 162.838C103.191 163.079 103.485 163.2 103.858 163.2Z" fill="white"/>
<rect x="20.5" y="144.5" width="99" height="29" rx="4.5" stroke="white"/>
<rect x="130.5" y="144.5" width="99" height="29" rx="4.5" fill="#FF7F50"/>
<path d="M149.153 154.901C148.055 154.901 147.187 155.268 146.549 156.002C145.915 156.731 145.599 157.731 145.599 159.003C145.599 160.311 145.904 161.323 146.515 162.038C147.13 162.749 148.005 163.104 149.14 163.104C149.837 163.104 150.632 162.979 151.525 162.729V163.747C150.833 164.007 149.978 164.137 148.962 164.137C147.49 164.137 146.353 163.69 145.551 162.797C144.753 161.904 144.354 160.634 144.354 158.989C144.354 157.959 144.546 157.057 144.929 156.282C145.316 155.507 145.872 154.91 146.597 154.491C147.326 154.072 148.183 153.862 149.167 153.862C150.215 153.862 151.131 154.054 151.915 154.437L151.423 155.435C150.666 155.079 149.91 154.901 149.153 154.901ZM158.145 164L157.92 162.934H157.865C157.491 163.403 157.118 163.722 156.744 163.891C156.375 164.055 155.912 164.137 155.356 164.137C154.613 164.137 154.03 163.945 153.606 163.562C153.187 163.18 152.977 162.635 152.977 161.929C152.977 160.416 154.187 159.623 156.607 159.55L157.879 159.509V159.044C157.879 158.456 157.751 158.023 157.496 157.745C157.245 157.463 156.842 157.321 156.286 157.321C155.662 157.321 154.955 157.513 154.167 157.896L153.818 157.027C154.187 156.827 154.591 156.67 155.028 156.556C155.47 156.442 155.912 156.385 156.354 156.385C157.248 156.385 157.908 156.583 158.337 156.979C158.77 157.376 158.986 158.012 158.986 158.887V164H158.145ZM155.582 163.2C156.288 163.2 156.842 163.007 157.243 162.619C157.649 162.232 157.851 161.689 157.851 160.992V160.315L156.717 160.363C155.814 160.395 155.163 160.536 154.762 160.787C154.365 161.033 154.167 161.418 154.167 161.942C154.167 162.353 154.29 162.665 154.536 162.879C154.787 163.093 155.135 163.2 155.582 163.2ZM163.754 163.2C163.954 163.2 164.148 163.187 164.335 163.159C164.522 163.127 164.67 163.095 164.779 163.063V163.932C164.656 163.991 164.474 164.039 164.232 164.075C163.995 164.116 163.781 164.137 163.59 164.137C162.14 164.137 161.416 163.373 161.416 161.847V157.39H160.343V156.843L161.416 156.371L161.894 154.771H162.551V156.508H164.724V157.39H162.551V161.799C162.551 162.25 162.658 162.596 162.872 162.838C163.086 163.079 163.38 163.2 163.754 163.2ZM170.893 164L170.668 162.934H170.613C170.239 163.403 169.865 163.722 169.492 163.891C169.123 164.055 168.66 164.137 168.104 164.137C167.361 164.137 166.778 163.945 166.354 163.562C165.935 163.18 165.725 162.635 165.725 161.929C165.725 160.416 166.935 159.623 169.355 159.55L170.627 159.509V159.044C170.627 158.456 170.499 158.023 170.244 157.745C169.993 157.463 169.59 157.321 169.034 157.321C168.409 157.321 167.703 157.513 166.915 157.896L166.566 157.027C166.935 156.827 167.338 156.67 167.776 156.556C168.218 156.442 168.66 156.385 169.102 156.385C169.995 156.385 170.656 156.583 171.085 156.979C171.518 157.376 171.734 158.012 171.734 158.887V164H170.893ZM168.33 163.2C169.036 163.2 169.59 163.007 169.991 162.619C170.396 162.232 170.599 161.689 170.599 160.992V160.315L169.464 160.363C168.562 160.395 167.91 160.536 167.509 160.787C167.113 161.033 166.915 161.418 166.915 161.942C166.915 162.353 167.038 162.665 167.284 162.879C167.534 163.093 167.883 163.2 168.33 163.2ZM183.631 164V159.126C183.631 158.529 183.504 158.082 183.249 157.786C182.993 157.485 182.597 157.335 182.059 157.335C181.353 157.335 180.831 157.538 180.494 157.943C180.156 158.349 179.988 158.973 179.988 159.816V164H178.853V159.126C178.853 158.529 178.725 158.082 178.47 157.786C178.215 157.485 177.816 157.335 177.274 157.335C176.563 157.335 176.041 157.549 175.708 157.978C175.38 158.401 175.216 159.099 175.216 160.069V164H174.082V156.508H175.004L175.189 157.533H175.244C175.458 157.169 175.759 156.884 176.146 156.679C176.538 156.474 176.975 156.371 177.458 156.371C178.63 156.371 179.395 156.795 179.755 157.643H179.81C180.033 157.251 180.357 156.941 180.781 156.713C181.205 156.485 181.688 156.371 182.23 156.371C183.078 156.371 183.711 156.59 184.13 157.027C184.554 157.46 184.766 158.155 184.766 159.112V164H183.631ZM191.721 164L191.495 162.934H191.441C191.067 163.403 190.693 163.722 190.32 163.891C189.951 164.055 189.488 164.137 188.932 164.137C188.189 164.137 187.606 163.945 187.182 163.562C186.763 163.18 186.553 162.635 186.553 161.929C186.553 160.416 187.763 159.623 190.183 159.55L191.454 159.509V159.044C191.454 158.456 191.327 158.023 191.072 157.745C190.821 157.463 190.418 157.321 189.862 157.321C189.237 157.321 188.531 157.513 187.743 157.896L187.394 157.027C187.763 156.827 188.166 156.67 188.604 156.556C189.046 156.442 189.488 156.385 189.93 156.385C190.823 156.385 191.484 156.583 191.912 156.979C192.345 157.376 192.562 158.012 192.562 158.887V164H191.721ZM189.158 163.2C189.864 163.2 190.418 163.007 190.819 162.619C191.224 162.232 191.427 161.689 191.427 160.992V160.315L190.292 160.363C189.39 160.395 188.738 160.536 188.337 160.787C187.941 161.033 187.743 161.418 187.743 161.942C187.743 162.353 187.866 162.665 188.112 162.879C188.362 163.093 188.711 163.2 189.158 163.2ZM198.327 156.371C198.66 156.371 198.959 156.398 199.223 156.453L199.066 157.506C198.756 157.438 198.482 157.403 198.245 157.403C197.639 157.403 197.12 157.649 196.687 158.142C196.258 158.634 196.044 159.247 196.044 159.98V164H194.909V156.508H195.846L195.976 157.896H196.03C196.308 157.408 196.643 157.032 197.035 156.768C197.427 156.503 197.858 156.371 198.327 156.371ZM205.234 164L205.009 162.934H204.954C204.58 163.403 204.207 163.722 203.833 163.891C203.464 164.055 203.001 164.137 202.445 164.137C201.703 164.137 201.119 163.945 200.695 163.562C200.276 163.18 200.066 162.635 200.066 161.929C200.066 160.416 201.276 159.623 203.696 159.55L204.968 159.509V159.044C204.968 158.456 204.84 158.023 204.585 157.745C204.334 157.463 203.931 157.321 203.375 157.321C202.751 157.321 202.044 157.513 201.256 157.896L200.907 157.027C201.276 156.827 201.68 156.67 202.117 156.556C202.559 156.442 203.001 156.385 203.443 156.385C204.337 156.385 204.997 156.583 205.426 156.979C205.859 157.376 206.075 158.012 206.075 158.887V164H205.234ZM202.671 163.2C203.377 163.2 203.931 163.007 204.332 162.619C204.738 162.232 204.94 161.689 204.94 160.992V160.315L203.806 160.363C202.903 160.395 202.252 160.536 201.851 160.787C201.454 161.033 201.256 161.418 201.256 161.942C201.256 162.353 201.379 162.665 201.625 162.879C201.876 163.093 202.224 163.2 202.671 163.2ZM213.55 164V159.153C213.55 158.543 213.411 158.087 213.133 157.786C212.855 157.485 212.42 157.335 211.827 157.335C211.043 157.335 210.469 157.547 210.104 157.971C209.74 158.395 209.558 159.094 209.558 160.069V164H208.423V156.508H209.346L209.53 157.533H209.585C209.817 157.164 210.143 156.879 210.562 156.679C210.982 156.474 211.449 156.371 211.964 156.371C212.866 156.371 213.545 156.59 214.001 157.027C214.457 157.46 214.685 158.155 214.685 159.112V164H213.55Z" fill="white"/>
<rect x="130.5" y="144.5" width="99" height="29" rx="4.5" stroke="white"/>
<rect x="240.5" y="144.5" width="99" height="29" rx="4.5" fill="#FF7F50"/>
<path d="M275.917 159.003L278.583 154.006H279.841L276.505 160.124V164H275.329V160.179L272 154.006H273.271L275.917 159.003ZM285.661 164L285.435 162.934H285.381C285.007 163.403 284.633 163.722 284.26 163.891C283.89 164.055 283.428 164.137 282.872 164.137C282.129 164.137 281.546 163.945 281.122 163.562C280.703 163.18 280.493 162.635 280.493 161.929C280.493 160.416 281.703 159.623 284.123 159.55L285.394 159.509V159.044C285.394 158.456 285.267 158.023 285.012 157.745C284.761 157.463 284.358 157.321 283.802 157.321C283.177 157.321 282.471 157.513 281.682 157.896L281.334 157.027C281.703 156.827 282.106 156.67 282.544 156.556C282.986 156.442 283.428 156.385 283.87 156.385C284.763 156.385 285.424 156.583 285.852 156.979C286.285 157.376 286.502 158.012 286.502 158.887V164H285.661ZM283.098 163.2C283.804 163.2 284.358 163.007 284.759 162.619C285.164 162.232 285.367 161.689 285.367 160.992V160.315L284.232 160.363C283.33 160.395 282.678 160.536 282.277 160.787C281.881 161.033 281.682 161.418 281.682 161.942C281.682 162.353 281.806 162.665 282.052 162.879C282.302 163.093 282.651 163.2 283.098 163.2ZM291.843 164.137C290.759 164.137 289.918 163.804 289.321 163.139C288.729 162.469 288.432 161.523 288.432 160.302C288.432 159.049 288.733 158.08 289.335 157.396C289.941 156.713 290.802 156.371 291.919 156.371C292.279 156.371 292.639 156.41 292.999 156.487C293.359 156.565 293.641 156.656 293.846 156.761L293.498 157.725C293.247 157.624 292.974 157.542 292.677 157.479C292.381 157.41 292.119 157.376 291.891 157.376C290.369 157.376 289.608 158.347 289.608 160.288C289.608 161.209 289.793 161.915 290.162 162.407C290.536 162.899 291.087 163.146 291.816 163.146C292.44 163.146 293.081 163.011 293.737 162.742V163.747C293.236 164.007 292.605 164.137 291.843 164.137ZM300.651 164V159.153C300.651 158.543 300.512 158.087 300.234 157.786C299.956 157.485 299.521 157.335 298.928 157.335C298.14 157.335 297.563 157.549 297.199 157.978C296.839 158.406 296.659 159.108 296.659 160.083V164H295.524V153.363H296.659V156.583C296.659 156.97 296.641 157.292 296.604 157.547H296.672C296.896 157.187 297.213 156.904 297.623 156.699C298.037 156.49 298.509 156.385 299.038 156.385C299.954 156.385 300.64 156.604 301.095 157.041C301.556 157.474 301.786 158.164 301.786 159.112V164H300.651ZM306.546 163.2C306.747 163.2 306.941 163.187 307.127 163.159C307.314 163.127 307.462 163.095 307.572 163.063V163.932C307.449 163.991 307.266 164.039 307.025 164.075C306.788 164.116 306.574 164.137 306.382 164.137C304.933 164.137 304.208 163.373 304.208 161.847V157.39H303.135V156.843L304.208 156.371L304.687 154.771H305.343V156.508H307.517V157.39H305.343V161.799C305.343 162.25 305.45 162.596 305.665 162.838C305.879 163.079 306.173 163.2 306.546 163.2Z" fill="white"/>
<rect x="240.5" y="144.5" width="99" height="29" rx="4.5" stroke="white"/>
<rect x="75.5" y="184.5" width="99" height="29" rx="4.5" fill="#FF7F50"/>
<path d="M117.852 198.907C117.852 200.557 117.403 201.819 116.505 202.694C115.612 203.565 114.324 204 112.643 204H109.874V194.006H112.937C114.491 194.006 115.698 194.437 116.56 195.298C117.421 196.159 117.852 197.362 117.852 198.907ZM116.621 198.948C116.621 197.645 116.293 196.663 115.637 196.002C114.985 195.341 114.014 195.011 112.725 195.011H111.036V202.995H112.451C113.837 202.995 114.878 202.656 115.575 201.977C116.272 201.293 116.621 200.284 116.621 198.948ZM124.526 204L124.301 202.934H124.246C123.872 203.403 123.499 203.722 123.125 203.891C122.756 204.055 122.293 204.137 121.737 204.137C120.994 204.137 120.411 203.945 119.987 203.562C119.568 203.18 119.358 202.635 119.358 201.929C119.358 200.416 120.568 199.623 122.988 199.55L124.26 199.509V199.044C124.26 198.456 124.132 198.023 123.877 197.745C123.626 197.463 123.223 197.321 122.667 197.321C122.043 197.321 121.336 197.513 120.548 197.896L120.199 197.027C120.568 196.827 120.972 196.67 121.409 196.556C121.851 196.442 122.293 196.385 122.735 196.385C123.628 196.385 124.289 196.583 124.718 196.979C125.151 197.376 125.367 198.012 125.367 198.887V204H124.526ZM121.963 203.2C122.669 203.2 123.223 203.007 123.624 202.619C124.029 202.232 124.232 201.689 124.232 200.992V200.315L123.098 200.363C122.195 200.395 121.543 200.536 121.142 200.787C120.746 201.033 120.548 201.418 120.548 201.942C120.548 202.353 120.671 202.665 120.917 202.879C121.168 203.093 121.516 203.2 121.963 203.2ZM128.849 204H127.715V196.508H128.849V204ZM127.619 194.478C127.619 194.218 127.683 194.029 127.81 193.91C127.938 193.787 128.097 193.726 128.289 193.726C128.471 193.726 128.628 193.787 128.76 193.91C128.893 194.033 128.959 194.222 128.959 194.478C128.959 194.733 128.893 194.924 128.76 195.052C128.628 195.175 128.471 195.236 128.289 195.236C128.097 195.236 127.938 195.175 127.81 195.052C127.683 194.924 127.619 194.733 127.619 194.478ZM132.393 204H131.258V193.363H132.393V204ZM133.613 196.508H134.83L136.47 200.78C136.83 201.756 137.054 202.46 137.14 202.893H137.195C137.254 202.66 137.377 202.264 137.564 201.703C137.755 201.138 138.375 199.406 139.423 196.508H140.64L137.42 205.039C137.101 205.882 136.728 206.479 136.299 206.83C135.875 207.186 135.354 207.363 134.734 207.363C134.388 207.363 134.046 207.325 133.708 207.247V206.338C133.959 206.393 134.239 206.42 134.549 206.42C135.329 206.42 135.885 205.982 136.217 205.107L136.634 204.041L133.613 196.508Z" fill="white"/>
<rect x="75.5" y="184.5" width="99" height="29" rx="4.5" stroke="white"/>
<rect x="185.5" y="184.5" width="99" height="29" rx="4.5" fill="#FF7F50"/>
<path d="M225.549 198.989C225.549 200.589 225.143 201.847 224.332 202.763C223.525 203.679 222.402 204.137 220.962 204.137C219.49 204.137 218.353 203.688 217.551 202.79C216.753 201.888 216.354 200.616 216.354 198.976C216.354 197.349 216.756 196.089 217.558 195.195C218.36 194.298 219.499 193.849 220.976 193.849C222.411 193.849 223.532 194.304 224.339 195.216C225.146 196.127 225.549 197.385 225.549 198.989ZM217.585 198.989C217.585 200.343 217.872 201.37 218.446 202.072C219.025 202.77 219.864 203.118 220.962 203.118C222.069 203.118 222.906 202.77 223.471 202.072C224.036 201.375 224.318 200.347 224.318 198.989C224.318 197.645 224.036 196.626 223.471 195.934C222.91 195.236 222.078 194.888 220.976 194.888C219.868 194.888 219.025 195.239 218.446 195.94C217.872 196.638 217.585 197.654 217.585 198.989ZM230.036 203.2C230.237 203.2 230.43 203.187 230.617 203.159C230.804 203.127 230.952 203.095 231.061 203.063V203.932C230.938 203.991 230.756 204.039 230.515 204.075C230.278 204.116 230.063 204.137 229.872 204.137C228.423 204.137 227.698 203.373 227.698 201.847V197.39H226.625V196.843L227.698 196.371L228.177 194.771H228.833V196.508H231.007V197.39H228.833V201.799C228.833 202.25 228.94 202.596 229.154 202.838C229.368 203.079 229.662 203.2 230.036 203.2ZM237.695 204V199.153C237.695 198.543 237.556 198.087 237.278 197.786C237 197.485 236.565 197.335 235.972 197.335C235.184 197.335 234.607 197.549 234.243 197.978C233.883 198.406 233.703 199.108 233.703 200.083V204H232.568V193.363H233.703V196.583C233.703 196.97 233.685 197.292 233.648 197.547H233.717C233.94 197.187 234.257 196.904 234.667 196.699C235.081 196.49 235.553 196.385 236.082 196.385C236.998 196.385 237.684 196.604 238.139 197.041C238.6 197.474 238.83 198.164 238.83 199.112V204H237.695ZM244.336 204.137C243.228 204.137 242.353 203.799 241.711 203.125C241.073 202.451 240.754 201.514 240.754 200.315C240.754 199.108 241.05 198.148 241.642 197.438C242.239 196.727 243.039 196.371 244.042 196.371C244.98 196.371 245.723 196.681 246.27 197.301C246.817 197.916 247.09 198.729 247.09 199.741V200.459H241.929C241.952 201.339 242.173 202.006 242.592 202.462C243.016 202.918 243.611 203.146 244.377 203.146C245.183 203.146 245.981 202.977 246.769 202.64V203.651C246.368 203.825 245.988 203.948 245.628 204.021C245.272 204.098 244.841 204.137 244.336 204.137ZM244.028 197.321C243.426 197.321 242.946 197.517 242.586 197.909C242.23 198.301 242.02 198.843 241.957 199.536H245.874C245.874 198.821 245.714 198.274 245.395 197.896C245.076 197.513 244.62 197.321 244.028 197.321ZM252.453 196.371C252.785 196.371 253.084 196.398 253.348 196.453L253.191 197.506C252.881 197.438 252.608 197.403 252.371 197.403C251.764 197.403 251.245 197.649 250.812 198.142C250.384 198.634 250.169 199.247 250.169 199.98V204H249.035V196.508H249.971L250.101 197.896H250.156C250.434 197.408 250.769 197.032 251.161 196.768C251.553 196.503 251.983 196.371 252.453 196.371Z" fill="white"/>
<rect x="185.5" y="184.5" width="99" height="29" rx="4.5" stroke="white"/>
<path d="M54.5527 52H52.2676L50.0879 44.3359C49.9941 44.002 49.877 43.5215 49.7363 42.8945C49.5957 42.2617 49.5107 41.8223 49.4814 41.5762C49.4229 41.9512 49.3262 42.4375 49.1914 43.0352C49.0625 43.6328 48.9541 44.0781 48.8662 44.3711L46.7393 52H44.4541L42.793 45.5664L41.1055 39.1504H43.25L45.0869 46.6387C45.374 47.8398 45.5791 48.9004 45.7021 49.8203C45.7666 49.3223 45.8633 48.7656 45.9922 48.1504C46.1211 47.5352 46.2383 47.0371 46.3438 46.6562L48.4355 39.1504H50.5186L52.6631 46.6914C52.8682 47.3887 53.085 48.4316 53.3135 49.8203C53.4014 48.9824 53.6123 47.916 53.9463 46.6211L55.7744 39.1504H57.9014L54.5527 52ZM68.0615 52H65.9873V46.0234C65.9873 45.2734 65.835 44.7139 65.5303 44.3447C65.2314 43.9756 64.7539 43.791 64.0977 43.791C63.2305 43.791 62.5918 44.0518 62.1816 44.5732C61.7773 45.0889 61.5752 45.9561 61.5752 47.1748V52H59.5098V38.3242H61.5752V41.7959C61.5752 42.3525 61.54 42.9473 61.4697 43.5801H61.6016C61.8828 43.1113 62.2725 42.748 62.7705 42.4902C63.2744 42.2324 63.8604 42.1035 64.5283 42.1035C66.8838 42.1035 68.0615 43.29 68.0615 45.6631V52ZM77.0176 52L76.6045 50.6465H76.5342C76.0654 51.2383 75.5938 51.6426 75.1191 51.8594C74.6445 52.0703 74.0352 52.1758 73.291 52.1758C72.3359 52.1758 71.5889 51.918 71.0498 51.4023C70.5166 50.8867 70.25 50.1572 70.25 49.2139C70.25 48.2119 70.6221 47.4561 71.3662 46.9463C72.1104 46.4365 73.2441 46.1582 74.7676 46.1113L76.4463 46.0586V45.54C76.4463 44.9189 76.2998 44.4561 76.0068 44.1514C75.7197 43.8408 75.2715 43.6855 74.6621 43.6855C74.1641 43.6855 73.6865 43.7588 73.2295 43.9053C72.7725 44.0518 72.333 44.2246 71.9111 44.4238L71.2432 42.9473C71.7705 42.6719 72.3477 42.4639 72.9746 42.3232C73.6016 42.1768 74.1934 42.1035 74.75 42.1035C75.9863 42.1035 76.918 42.373 77.5449 42.9121C78.1777 43.4512 78.4941 44.2979 78.4941 45.4521V52H77.0176ZM73.9414 50.5938C74.6914 50.5938 75.292 50.3857 75.7432 49.9697C76.2002 49.5479 76.4287 48.959 76.4287 48.2031V47.3594L75.1807 47.4121C74.208 47.4473 73.499 47.6113 73.0537 47.9043C72.6143 48.1914 72.3945 48.6338 72.3945 49.2314C72.3945 49.665 72.5234 50.002 72.7812 50.2422C73.0391 50.4766 73.4258 50.5938 73.9414 50.5938ZM84.998 50.5059C85.502 50.5059 86.0059 50.4268 86.5098 50.2686V51.8242C86.2812 51.9238 85.9854 52.0059 85.6221 52.0703C85.2646 52.1406 84.8926 52.1758 84.5059 52.1758C82.5488 52.1758 81.5703 51.1445 81.5703 49.082V43.8438H80.2432V42.9297L81.667 42.1738L82.3701 40.1172H83.6445V42.2793H86.4131V43.8438H83.6445V49.0469C83.6445 49.5449 83.7676 49.9141 84.0137 50.1543C84.2656 50.3887 84.5938 50.5059 84.998 50.5059ZM95.1318 46.8672L96.3008 45.4082L99.2363 42.2793H101.618L97.707 46.4541L101.864 52H99.4385L96.3184 47.7373L95.1846 48.6689V52H93.1367V38.3242H95.1846V44.9951L95.0791 46.8672H95.1318ZM105.503 52H103.438V42.2793H105.503V52ZM103.314 39.7041C103.314 39.335 103.414 39.0508 103.613 38.8516C103.818 38.6523 104.108 38.5527 104.483 38.5527C104.847 38.5527 105.128 38.6523 105.327 38.8516C105.532 39.0508 105.635 39.335 105.635 39.7041C105.635 40.0557 105.532 40.334 105.327 40.5391C105.128 40.7383 104.847 40.8379 104.483 40.8379C104.108 40.8379 103.818 40.7383 103.613 40.5391C103.414 40.334 103.314 40.0557 103.314 39.7041ZM117.017 52H114.942V46.0234C114.942 45.2734 114.79 44.7139 114.485 44.3447C114.187 43.9756 113.709 43.791 113.053 43.791C112.18 43.791 111.541 44.0488 111.137 44.5645C110.732 45.0801 110.53 45.9443 110.53 47.1572V52H108.465V42.2793H110.082L110.372 43.5537H110.478C110.771 43.0908 111.187 42.7334 111.726 42.4814C112.265 42.2295 112.862 42.1035 113.519 42.1035C115.851 42.1035 117.017 43.29 117.017 45.6631V52ZM123.169 52.1758C121.956 52.1758 121.01 51.7363 120.33 50.8574C119.65 49.9785 119.311 48.7451 119.311 47.1572C119.311 45.5635 119.653 44.3242 120.339 43.4395C121.03 42.5488 121.985 42.1035 123.204 42.1035C124.481 42.1035 125.454 42.5752 126.122 43.5186H126.228C126.128 42.8213 126.078 42.2705 126.078 41.8662V38.3242H128.152V52H126.535L126.175 50.7256H126.078C125.416 51.6924 124.446 52.1758 123.169 52.1758ZM123.723 50.5059C124.572 50.5059 125.19 50.2686 125.577 49.7939C125.964 49.3135 126.163 48.5371 126.175 47.4648V47.1748C126.175 45.9502 125.976 45.0801 125.577 44.5645C125.179 44.0488 124.555 43.791 123.705 43.791C122.979 43.791 122.419 44.0869 122.026 44.6787C121.634 45.2646 121.438 46.1025 121.438 47.1924C121.438 48.2705 121.628 49.0938 122.009 49.6621C122.39 50.2246 122.961 50.5059 123.723 50.5059ZM144.403 47.1221C144.403 48.71 143.996 49.9492 143.182 50.8398C142.367 51.7305 141.233 52.1758 139.78 52.1758C138.872 52.1758 138.069 51.9707 137.372 51.5605C136.675 51.1504 136.139 50.5615 135.764 49.7939C135.389 49.0264 135.201 48.1357 135.201 47.1221C135.201 45.5459 135.605 44.3154 136.414 43.4307C137.223 42.5459 138.362 42.1035 139.833 42.1035C141.239 42.1035 142.353 42.5576 143.173 43.4658C143.993 44.3682 144.403 45.5869 144.403 47.1221ZM137.328 47.1221C137.328 49.3662 138.157 50.4883 139.815 50.4883C141.456 50.4883 142.276 49.3662 142.276 47.1221C142.276 44.9014 141.45 43.791 139.798 43.791C138.931 43.791 138.301 44.0781 137.908 44.6523C137.521 45.2266 137.328 46.0498 137.328 47.1221ZM151.663 43.8438H149.29V52H147.216V43.8438H145.616V42.877L147.216 42.2441V41.6113C147.216 40.4629 147.485 39.6133 148.024 39.0625C148.563 38.5059 149.387 38.2275 150.494 38.2275C151.221 38.2275 151.936 38.3477 152.639 38.5879L152.094 40.1523C151.584 39.9883 151.098 39.9062 150.635 39.9062C150.166 39.9062 149.823 40.0527 149.606 40.3457C149.396 40.6328 149.29 41.0664 149.29 41.6465V42.2793H151.663V43.8438ZM162.966 42.1035C164.179 42.1035 165.122 42.543 165.796 43.4219C166.476 44.3008 166.815 45.5342 166.815 47.1221C166.815 48.7158 166.473 49.958 165.787 50.8486C165.102 51.7334 164.149 52.1758 162.931 52.1758C161.7 52.1758 160.745 51.7334 160.065 50.8486H159.925L159.547 52H158V38.3242H160.065V41.5762C160.065 41.8164 160.054 42.1738 160.03 42.6484C160.007 43.123 159.989 43.4248 159.978 43.5537H160.065C160.722 42.5869 161.688 42.1035 162.966 42.1035ZM162.43 43.791C161.598 43.791 160.997 44.0371 160.628 44.5293C160.265 45.0156 160.077 45.833 160.065 46.9814V47.1221C160.065 48.3057 160.253 49.1641 160.628 49.6973C161.003 50.2246 161.615 50.4883 162.465 50.4883C163.197 50.4883 163.751 50.1982 164.126 49.6182C164.507 49.0381 164.697 48.2002 164.697 47.1045C164.697 44.8955 163.941 43.791 162.43 43.791ZM177.837 47.1221C177.837 48.71 177.43 49.9492 176.615 50.8398C175.801 51.7305 174.667 52.1758 173.214 52.1758C172.306 52.1758 171.503 51.9707 170.806 51.5605C170.108 51.1504 169.572 50.5615 169.197 49.7939C168.822 49.0264 168.635 48.1357 168.635 47.1221C168.635 45.5459 169.039 44.3154 169.848 43.4307C170.656 42.5459 171.796 42.1035 173.267 42.1035C174.673 42.1035 175.786 42.5576 176.606 43.4658C177.427 44.3682 177.837 45.5869 177.837 47.1221ZM170.762 47.1221C170.762 49.3662 171.591 50.4883 173.249 50.4883C174.89 50.4883 175.71 49.3662 175.71 47.1221C175.71 44.9014 174.884 43.791 173.231 43.791C172.364 43.791 171.734 44.0781 171.342 44.6523C170.955 45.2266 170.762 46.0498 170.762 47.1221ZM186.301 52L185.888 50.6465H185.817C185.349 51.2383 184.877 51.6426 184.402 51.8594C183.928 52.0703 183.318 52.1758 182.574 52.1758C181.619 52.1758 180.872 51.918 180.333 51.4023C179.8 50.8867 179.533 50.1572 179.533 49.2139C179.533 48.2119 179.905 47.4561 180.649 46.9463C181.394 46.4365 182.527 46.1582 184.051 46.1113L185.729 46.0586V45.54C185.729 44.9189 185.583 44.4561 185.29 44.1514C185.003 43.8408 184.555 43.6855 183.945 43.6855C183.447 43.6855 182.97 43.7588 182.513 43.9053C182.056 44.0518 181.616 44.2246 181.194 44.4238L180.526 42.9473C181.054 42.6719 181.631 42.4639 182.258 42.3232C182.885 42.1768 183.477 42.1035 184.033 42.1035C185.27 42.1035 186.201 42.373 186.828 42.9121C187.461 43.4512 187.777 44.2979 187.777 45.4521V52H186.301ZM183.225 50.5938C183.975 50.5938 184.575 50.3857 185.026 49.9697C185.483 49.5479 185.712 48.959 185.712 48.2031V47.3594L184.464 47.4121C183.491 47.4473 182.782 47.6113 182.337 47.9043C181.897 48.1914 181.678 48.6338 181.678 49.2314C181.678 49.665 181.807 50.002 182.064 50.2422C182.322 50.4766 182.709 50.5938 183.225 50.5938ZM194.281 50.5059C194.785 50.5059 195.289 50.4268 195.793 50.2686V51.8242C195.564 51.9238 195.269 52.0059 194.905 52.0703C194.548 52.1406 194.176 52.1758 193.789 52.1758C191.832 52.1758 190.854 51.1445 190.854 49.082V43.8438H189.526V42.9297L190.95 42.1738L191.653 40.1172H192.928V42.2793H195.696V43.8438H192.928V49.0469C192.928 49.5449 193.051 49.9141 193.297 50.1543C193.549 50.3887 193.877 50.5059 194.281 50.5059ZM211.042 47.1221C211.042 48.71 210.635 49.9492 209.82 50.8398C209.006 51.7305 207.872 52.1758 206.419 52.1758C205.511 52.1758 204.708 51.9707 204.011 51.5605C203.313 51.1504 202.777 50.5615 202.402 49.7939C202.027 49.0264 201.84 48.1357 201.84 47.1221C201.84 45.5459 202.244 44.3154 203.053 43.4307C203.861 42.5459 205.001 42.1035 206.472 42.1035C207.878 42.1035 208.991 42.5576 209.812 43.4658C210.632 44.3682 211.042 45.5869 211.042 47.1221ZM203.967 47.1221C203.967 49.3662 204.796 50.4883 206.454 50.4883C208.095 50.4883 208.915 49.3662 208.915 47.1221C208.915 44.9014 208.089 43.791 206.437 43.791C205.569 43.791 204.939 44.0781 204.547 44.6523C204.16 45.2266 203.967 46.0498 203.967 47.1221ZM218.354 42.1035C218.771 42.1035 219.113 42.1328 219.383 42.1914L219.181 44.1162C218.888 44.0459 218.583 44.0107 218.267 44.0107C217.44 44.0107 216.77 44.2803 216.254 44.8193C215.744 45.3584 215.489 46.0586 215.489 46.9199V52H213.424V42.2793H215.041L215.313 43.9932H215.419C215.741 43.4131 216.16 42.9531 216.676 42.6133C217.197 42.2734 217.757 42.1035 218.354 42.1035ZM46.7217 77.1758C45.21 77.1758 44.0264 76.7363 43.1709 75.8574C42.3213 74.9727 41.8965 73.7568 41.8965 72.21C41.8965 70.6221 42.292 69.374 43.083 68.4658C43.874 67.5576 44.9609 67.1035 46.3438 67.1035C47.627 67.1035 48.6406 67.4932 49.3848 68.2725C50.1289 69.0518 50.501 70.124 50.501 71.4893V72.6055H44.0234C44.0527 73.5488 44.3076 74.2754 44.7881 74.7852C45.2686 75.2891 45.9453 75.541 46.8184 75.541C47.3926 75.541 47.9258 75.4883 48.418 75.3828C48.916 75.2715 49.4492 75.0898 50.0176 74.8379V76.5166C49.5137 76.7568 49.0039 76.9268 48.4883 77.0264C47.9727 77.126 47.3838 77.1758 46.7217 77.1758ZM46.3438 68.668C45.6875 68.668 45.1602 68.876 44.7617 69.292C44.3691 69.708 44.1348 70.3145 44.0586 71.1113H48.4707C48.459 70.3086 48.2656 69.7021 47.8906 69.292C47.5156 68.876 47 68.668 46.3438 68.668ZM55.0098 72.0342L51.749 67.2793H54.1045L56.3193 70.6807L58.5518 67.2793H60.8896L57.6201 72.0342L61.0566 77H58.7188L56.3193 73.3613L53.9287 77H51.5908L55.0098 72.0342ZM67.6924 77.1758C66.4619 77.1758 65.5068 76.7334 64.8271 75.8486H64.7041C64.7861 76.6689 64.8271 77.167 64.8271 77.3428V81.3242H62.7617V67.2793H64.4316C64.4785 67.4609 64.5752 67.8945 64.7217 68.5801H64.8271C65.4717 67.5957 66.4385 67.1035 67.7275 67.1035C68.9404 67.1035 69.8838 67.543 70.5576 68.4219C71.2373 69.3008 71.5771 70.5342 71.5771 72.1221C71.5771 73.71 71.2314 74.9492 70.54 75.8398C69.8545 76.7305 68.9053 77.1758 67.6924 77.1758ZM67.1914 68.791C66.3711 68.791 65.7705 69.0312 65.3896 69.5117C65.0146 69.9922 64.8271 70.7598 64.8271 71.8145V72.1221C64.8271 73.3057 65.0146 74.1641 65.3896 74.6973C65.7646 75.2246 66.377 75.4883 67.2266 75.4883C67.9414 75.4883 68.4922 75.1953 68.8789 74.6094C69.2656 74.0234 69.459 73.1885 69.459 72.1045C69.459 71.0146 69.2656 70.1914 68.8789 69.6348C68.498 69.0723 67.9355 68.791 67.1914 68.791ZM78.2217 77.1758C76.71 77.1758 75.5264 76.7363 74.6709 75.8574C73.8213 74.9727 73.3965 73.7568 73.3965 72.21C73.3965 70.6221 73.792 69.374 74.583 68.4658C75.374 67.5576 76.4609 67.1035 77.8438 67.1035C79.127 67.1035 80.1406 67.4932 80.8848 68.2725C81.6289 69.0518 82.001 70.124 82.001 71.4893V72.6055H75.5234C75.5527 73.5488 75.8076 74.2754 76.2881 74.7852C76.7686 75.2891 77.4453 75.541 78.3184 75.541C78.8926 75.541 79.4258 75.4883 79.918 75.3828C80.416 75.2715 80.9492 75.0898 81.5176 74.8379V76.5166C81.0137 76.7568 80.5039 76.9268 79.9883 77.0264C79.4727 77.126 78.8838 77.1758 78.2217 77.1758ZM77.8438 68.668C77.1875 68.668 76.6602 68.876 76.2617 69.292C75.8691 69.708 75.6348 70.3145 75.5586 71.1113H79.9707C79.959 70.3086 79.7656 69.7021 79.3906 69.292C79.0156 68.876 78.5 68.668 77.8438 68.668ZM89.2783 67.1035C89.6943 67.1035 90.0371 67.1328 90.3066 67.1914L90.1045 69.1162C89.8115 69.0459 89.5068 69.0107 89.1904 69.0107C88.3643 69.0107 87.6934 69.2803 87.1777 69.8193C86.668 70.3584 86.4131 71.0586 86.4131 71.9199V77H84.3477V67.2793H85.9648L86.2373 68.9932H86.3428C86.665 68.4131 87.084 67.9531 87.5996 67.6133C88.1211 67.2734 88.6807 67.1035 89.2783 67.1035ZM94.1826 77H92.1172V67.2793H94.1826V77ZM91.9941 64.7041C91.9941 64.335 92.0938 64.0508 92.293 63.8516C92.498 63.6523 92.7881 63.5527 93.1631 63.5527C93.5264 63.5527 93.8076 63.6523 94.0068 63.8516C94.2119 64.0508 94.3145 64.335 94.3145 64.7041C94.3145 65.0557 94.2119 65.334 94.0068 65.5391C93.8076 65.7383 93.5264 65.8379 93.1631 65.8379C92.7881 65.8379 92.498 65.7383 92.293 65.5391C92.0938 65.334 91.9941 65.0557 91.9941 64.7041ZM101.39 77.1758C99.8779 77.1758 98.6943 76.7363 97.8389 75.8574C96.9893 74.9727 96.5645 73.7568 96.5645 72.21C96.5645 70.6221 96.96 69.374 97.751 68.4658C98.542 67.5576 99.6289 67.1035 101.012 67.1035C102.295 67.1035 103.309 67.4932 104.053 68.2725C104.797 69.0518 105.169 70.124 105.169 71.4893V72.6055H98.6914C98.7207 73.5488 98.9756 74.2754 99.4561 74.7852C99.9365 75.2891 100.613 75.541 101.486 75.541C102.061 75.541 102.594 75.4883 103.086 75.3828C103.584 75.2715 104.117 75.0898 104.686 74.8379V76.5166C104.182 76.7568 103.672 76.9268 103.156 77.0264C102.641 77.126 102.052 77.1758 101.39 77.1758ZM101.012 68.668C100.355 68.668 99.8281 68.876 99.4297 69.292C99.0371 69.708 98.8027 70.3145 98.7266 71.1113H103.139C103.127 70.3086 102.934 69.7021 102.559 69.292C102.184 68.876 101.668 68.668 101.012 68.668ZM116.067 77H113.993V71.0234C113.993 70.2734 113.841 69.7139 113.536 69.3447C113.237 68.9756 112.76 68.791 112.104 68.791C111.23 68.791 110.592 69.0488 110.188 69.5645C109.783 70.0801 109.581 70.9443 109.581 72.1572V77H107.516V67.2793H109.133L109.423 68.5537H109.528C109.821 68.0908 110.237 67.7334 110.776 67.4814C111.315 67.2295 111.913 67.1035 112.569 67.1035C114.901 67.1035 116.067 68.29 116.067 70.6631V77ZM122.861 77.1758C121.391 77.1758 120.271 76.748 119.504 75.8926C118.742 75.0312 118.361 73.7979 118.361 72.1924C118.361 70.5576 118.76 69.3008 119.557 68.4219C120.359 67.543 121.517 67.1035 123.028 67.1035C124.054 67.1035 124.977 67.2939 125.797 67.6748L125.173 69.3359C124.3 68.9961 123.579 68.8262 123.011 68.8262C121.329 68.8262 120.488 69.9424 120.488 72.1748C120.488 73.2646 120.696 74.085 121.112 74.6357C121.534 75.1807 122.149 75.4531 122.958 75.4531C123.878 75.4531 124.748 75.2246 125.568 74.7676V76.5693C125.199 76.7861 124.804 76.9414 124.382 77.0352C123.966 77.1289 123.459 77.1758 122.861 77.1758ZM132.099 77.1758C130.587 77.1758 129.403 76.7363 128.548 75.8574C127.698 74.9727 127.273 73.7568 127.273 72.21C127.273 70.6221 127.669 69.374 128.46 68.4658C129.251 67.5576 130.338 67.1035 131.721 67.1035C133.004 67.1035 134.018 67.4932 134.762 68.2725C135.506 69.0518 135.878 70.124 135.878 71.4893V72.6055H129.4C129.43 73.5488 129.685 74.2754 130.165 74.7852C130.646 75.2891 131.322 75.541 132.195 75.541C132.77 75.541 133.303 75.4883 133.795 75.3828C134.293 75.2715 134.826 75.0898 135.395 74.8379V76.5166C134.891 76.7568 134.381 76.9268 133.865 77.0264C133.35 77.126 132.761 77.1758 132.099 77.1758ZM131.721 68.668C131.064 68.668 130.537 68.876 130.139 69.292C129.746 69.708 129.512 70.3145 129.436 71.1113H133.848C133.836 70.3086 133.643 69.7021 133.268 69.292C132.893 68.876 132.377 68.668 131.721 68.668ZM148.982 77L148.569 75.6465H148.499C148.03 76.2383 147.559 76.6426 147.084 76.8594C146.609 77.0703 146 77.1758 145.256 77.1758C144.301 77.1758 143.554 76.918 143.015 76.4023C142.481 75.8867 142.215 75.1572 142.215 74.2139C142.215 73.2119 142.587 72.4561 143.331 71.9463C144.075 71.4365 145.209 71.1582 146.732 71.1113L148.411 71.0586V70.54C148.411 69.9189 148.265 69.4561 147.972 69.1514C147.685 68.8408 147.236 68.6855 146.627 68.6855C146.129 68.6855 145.651 68.7588 145.194 68.9053C144.737 69.0518 144.298 69.2246 143.876 69.4238L143.208 67.9473C143.735 67.6719 144.312 67.4639 144.939 67.3232C145.566 67.1768 146.158 67.1035 146.715 67.1035C147.951 67.1035 148.883 67.373 149.51 67.9121C150.143 68.4512 150.459 69.2979 150.459 70.4521V77H148.982ZM145.906 75.5938C146.656 75.5938 147.257 75.3857 147.708 74.9697C148.165 74.5479 148.394 73.959 148.394 73.2031V72.3594L147.146 72.4121C146.173 72.4473 145.464 72.6113 145.019 72.9043C144.579 73.1914 144.359 73.6338 144.359 74.2314C144.359 74.665 144.488 75.002 144.746 75.2422C145.004 75.4766 145.391 75.5938 145.906 75.5938ZM158.272 67.1035C158.688 67.1035 159.031 67.1328 159.301 67.1914L159.099 69.1162C158.806 69.0459 158.501 69.0107 158.185 69.0107C157.358 69.0107 156.688 69.2803 156.172 69.8193C155.662 70.3584 155.407 71.0586 155.407 71.9199V77H153.342V67.2793H154.959L155.231 68.9932H155.337C155.659 68.4131 156.078 67.9531 156.594 67.6133C157.115 67.2734 157.675 67.1035 158.272 67.1035ZM165.356 77.1758C163.845 77.1758 162.661 76.7363 161.806 75.8574C160.956 74.9727 160.531 73.7568 160.531 72.21C160.531 70.6221 160.927 69.374 161.718 68.4658C162.509 67.5576 163.596 67.1035 164.979 67.1035C166.262 67.1035 167.275 67.4932 168.02 68.2725C168.764 69.0518 169.136 70.124 169.136 71.4893V72.6055H162.658C162.688 73.5488 162.942 74.2754 163.423 74.7852C163.903 75.2891 164.58 75.541 165.453 75.541C166.027 75.541 166.561 75.4883 167.053 75.3828C167.551 75.2715 168.084 75.0898 168.652 74.8379V76.5166C168.148 76.7568 167.639 76.9268 167.123 77.0264C166.607 77.126 166.019 77.1758 165.356 77.1758ZM164.979 68.668C164.322 68.668 163.795 68.876 163.396 69.292C163.004 69.708 162.77 70.3145 162.693 71.1113H167.105C167.094 70.3086 166.9 69.7021 166.525 69.292C166.15 68.876 165.635 68.668 164.979 68.668ZM174.682 67.2793H176.932L178.909 72.79C179.208 73.5752 179.407 74.3135 179.507 75.0049H179.577C179.63 74.6826 179.727 74.293 179.867 73.8359C180.008 73.373 180.752 71.1875 182.1 67.2793H184.332L180.175 78.292C179.419 80.3135 178.159 81.3242 176.396 81.3242C175.938 81.3242 175.493 81.2744 175.06 81.1748V79.54C175.37 79.6104 175.725 79.6455 176.123 79.6455C177.119 79.6455 177.819 79.0684 178.224 77.9141L178.584 77L174.682 67.2793ZM194.431 72.1221C194.431 73.71 194.023 74.9492 193.209 75.8398C192.395 76.7305 191.261 77.1758 189.808 77.1758C188.899 77.1758 188.097 76.9707 187.399 76.5605C186.702 76.1504 186.166 75.5615 185.791 74.7939C185.416 74.0264 185.229 73.1357 185.229 72.1221C185.229 70.5459 185.633 69.3154 186.441 68.4307C187.25 67.5459 188.39 67.1035 189.86 67.1035C191.267 67.1035 192.38 67.5576 193.2 68.4658C194.021 69.3682 194.431 70.5869 194.431 72.1221ZM187.355 72.1221C187.355 74.3662 188.185 75.4883 189.843 75.4883C191.483 75.4883 192.304 74.3662 192.304 72.1221C192.304 69.9014 191.478 68.791 189.825 68.791C188.958 68.791 188.328 69.0781 187.936 69.6523C187.549 70.2266 187.355 71.0498 187.355 72.1221ZM203.668 77L203.378 75.7256H203.272C202.985 76.1768 202.575 76.5312 202.042 76.7891C201.515 77.0469 200.911 77.1758 200.231 77.1758C199.054 77.1758 198.175 76.8828 197.595 76.2969C197.015 75.7109 196.725 74.8232 196.725 73.6338V67.2793H198.808V73.2734C198.808 74.0176 198.96 74.5771 199.265 74.9521C199.569 75.3213 200.047 75.5059 200.697 75.5059C201.564 75.5059 202.2 75.248 202.604 74.7324C203.015 74.2109 203.22 73.3408 203.22 72.1221V67.2793H205.294V77H203.668ZM214.979 77H212.914V63.3242H214.979V77ZM226.563 72.1221C226.563 73.71 226.156 74.9492 225.342 75.8398C224.527 76.7305 223.394 77.1758 221.94 77.1758C221.032 77.1758 220.229 76.9707 219.532 76.5605C218.835 76.1504 218.299 75.5615 217.924 74.7939C217.549 74.0264 217.361 73.1357 217.361 72.1221C217.361 70.5459 217.766 69.3154 218.574 68.4307C219.383 67.5459 220.522 67.1035 221.993 67.1035C223.399 67.1035 224.513 67.5576 225.333 68.4658C226.153 69.3682 226.563 70.5869 226.563 72.1221ZM219.488 72.1221C219.488 74.3662 220.317 75.4883 221.976 75.4883C223.616 75.4883 224.437 74.3662 224.437 72.1221C224.437 69.9014 223.61 68.791 221.958 68.791C221.091 68.791 220.461 69.0781 220.068 69.6523C219.682 70.2266 219.488 71.0498 219.488 72.1221ZM237.567 72.1221C237.567 73.71 237.16 74.9492 236.346 75.8398C235.531 76.7305 234.397 77.1758 232.944 77.1758C232.036 77.1758 231.233 76.9707 230.536 76.5605C229.839 76.1504 229.303 75.5615 228.928 74.7939C228.553 74.0264 228.365 73.1357 228.365 72.1221C228.365 70.5459 228.77 69.3154 229.578 68.4307C230.387 67.5459 231.526 67.1035 232.997 67.1035C234.403 67.1035 235.517 67.5576 236.337 68.4658C237.157 69.3682 237.567 70.5869 237.567 72.1221ZM230.492 72.1221C230.492 74.3662 231.321 75.4883 232.979 75.4883C234.62 75.4883 235.44 74.3662 235.44 72.1221C235.44 69.9014 234.614 68.791 232.962 68.791C232.095 68.791 231.465 69.0781 231.072 69.6523C230.686 70.2266 230.492 71.0498 230.492 72.1221ZM241.944 71.8672L243.113 70.4082L246.049 67.2793H248.431L244.52 71.4541L248.677 77H246.251L243.131 72.7373L241.997 73.6689V77H239.949V63.3242H241.997V69.9951L241.892 71.8672H241.944ZM252.315 77H250.25V67.2793H252.315V77ZM250.127 64.7041C250.127 64.335 250.227 64.0508 250.426 63.8516C250.631 63.6523 250.921 63.5527 251.296 63.5527C251.659 63.5527 251.94 63.6523 252.14 63.8516C252.345 64.0508 252.447 64.335 252.447 64.7041C252.447 65.0557 252.345 65.334 252.14 65.5391C251.94 65.7383 251.659 65.8379 251.296 65.8379C250.921 65.8379 250.631 65.7383 250.426 65.5391C250.227 65.334 250.127 65.0557 250.127 64.7041ZM263.829 77H261.755V71.0234C261.755 70.2734 261.603 69.7139 261.298 69.3447C260.999 68.9756 260.521 68.791 259.865 68.791C258.992 68.791 258.354 69.0488 257.949 69.5645C257.545 70.0801 257.343 70.9443 257.343 72.1572V77H255.277V67.2793H256.895L257.185 68.5537H257.29C257.583 68.0908 257.999 67.7334 258.538 67.4814C259.077 67.2295 259.675 67.1035 260.331 67.1035C262.663 67.1035 263.829 68.29 263.829 70.6631V77ZM274.912 67.2793V68.4131L273.251 68.7207C273.403 68.9258 273.529 69.1777 273.629 69.4766C273.729 69.7754 273.778 70.0918 273.778 70.4258C273.778 71.4277 273.433 72.2158 272.741 72.79C272.05 73.3643 271.098 73.6514 269.885 73.6514C269.574 73.6514 269.293 73.6279 269.041 73.5811C268.596 73.8564 268.373 74.1787 268.373 74.5479C268.373 74.7705 268.476 74.9375 268.681 75.0488C268.892 75.1602 269.275 75.2158 269.832 75.2158H271.528C272.601 75.2158 273.415 75.4443 273.972 75.9014C274.528 76.3584 274.807 77.0176 274.807 77.8789C274.807 78.9805 274.353 79.8301 273.444 80.4277C272.536 81.0254 271.224 81.3242 269.507 81.3242C268.183 81.3242 267.172 81.0898 266.475 80.6211C265.777 80.1523 265.429 79.4844 265.429 78.6172C265.429 78.0195 265.616 77.5156 265.991 77.1055C266.372 76.7012 266.902 76.4199 267.582 76.2617C267.307 76.1445 267.078 75.957 266.896 75.6992C266.721 75.4355 266.633 75.1602 266.633 74.873C266.633 74.5098 266.735 74.2021 266.94 73.9502C267.146 73.6982 267.45 73.4492 267.854 73.2031C267.351 72.9863 266.94 72.6348 266.624 72.1484C266.313 71.6562 266.158 71.082 266.158 70.4258C266.158 69.3711 266.489 68.5537 267.151 67.9736C267.819 67.3936 268.769 67.1035 269.999 67.1035C270.274 67.1035 270.562 67.124 270.86 67.165C271.165 67.2002 271.394 67.2383 271.546 67.2793H274.912ZM267.274 78.5117C267.274 78.957 267.474 79.2998 267.872 79.54C268.276 79.7803 268.842 79.9004 269.568 79.9004C270.693 79.9004 271.531 79.7393 272.082 79.417C272.633 79.0947 272.908 78.667 272.908 78.1338C272.908 77.7119 272.756 77.4102 272.451 77.2285C272.152 77.0527 271.593 76.9648 270.772 76.9648H269.208C268.616 76.9648 268.145 77.1025 267.793 77.3779C267.447 77.6592 267.274 78.0371 267.274 78.5117ZM268.162 70.4258C268.162 71.0352 268.317 71.5039 268.628 71.832C268.944 72.1602 269.396 72.3242 269.981 72.3242C271.177 72.3242 271.774 71.6855 271.774 70.4082C271.774 69.7754 271.625 69.2891 271.326 68.9492C271.033 68.6035 270.585 68.4307 269.981 68.4307C269.384 68.4307 268.93 68.6006 268.619 68.9404C268.314 69.2803 268.162 69.7754 268.162 70.4258ZM286.276 68.8438H283.903V77H281.829V68.8438H280.229V67.877L281.829 67.2441V66.6113C281.829 65.4629 282.099 64.6133 282.638 64.0625C283.177 63.5059 284 63.2275 285.107 63.2275C285.834 63.2275 286.549 63.3477 287.252 63.5879L286.707 65.1523C286.197 64.9883 285.711 64.9062 285.248 64.9062C284.779 64.9062 284.437 65.0527 284.22 65.3457C284.009 65.6328 283.903 66.0664 283.903 66.6465V67.2793H286.276V68.8438ZM296.56 72.1221C296.56 73.71 296.152 74.9492 295.338 75.8398C294.523 76.7305 293.39 77.1758 291.937 77.1758C291.028 77.1758 290.226 76.9707 289.528 76.5605C288.831 76.1504 288.295 75.5615 287.92 74.7939C287.545 74.0264 287.357 73.1357 287.357 72.1221C287.357 70.5459 287.762 69.3154 288.57 68.4307C289.379 67.5459 290.519 67.1035 291.989 67.1035C293.396 67.1035 294.509 67.5576 295.329 68.4658C296.149 69.3682 296.56 70.5869 296.56 72.1221ZM289.484 72.1221C289.484 74.3662 290.313 75.4883 291.972 75.4883C293.612 75.4883 294.433 74.3662 294.433 72.1221C294.433 69.9014 293.606 68.791 291.954 68.791C291.087 68.791 290.457 69.0781 290.064 69.6523C289.678 70.2266 289.484 71.0498 289.484 72.1221ZM303.872 67.1035C304.288 67.1035 304.631 67.1328 304.9 67.1914L304.698 69.1162C304.405 69.0459 304.101 69.0107 303.784 69.0107C302.958 69.0107 302.287 69.2803 301.771 69.8193C301.262 70.3584 301.007 71.0586 301.007 71.9199V77H298.941V67.2793H300.559L300.831 68.9932H300.937C301.259 68.4131 301.678 67.9531 302.193 67.6133C302.715 67.2734 303.274 67.1035 303.872 67.1035ZM307.722 73.0977V72.5352C307.722 71.8906 307.839 71.3545 308.073 70.9268C308.308 70.499 308.718 70.0566 309.304 69.5996C310.001 69.0488 310.449 68.6211 310.648 68.3164C310.854 68.0117 310.956 67.6484 310.956 67.2266C310.956 66.7344 310.792 66.3564 310.464 66.0928C310.136 65.8291 309.664 65.6973 309.049 65.6973C308.492 65.6973 307.977 65.7764 307.502 65.9346C307.027 66.0928 306.564 66.2832 306.113 66.5059L305.375 64.959C306.564 64.2969 307.839 63.9658 309.198 63.9658C310.347 63.9658 311.258 64.2471 311.932 64.8096C312.605 65.3721 312.942 66.1484 312.942 67.1387C312.942 67.5781 312.878 67.9707 312.749 68.3164C312.62 68.6562 312.424 68.9814 312.16 69.292C311.902 69.6025 311.454 70.0068 310.815 70.5049C310.271 70.9326 309.904 71.2871 309.717 71.5684C309.535 71.8496 309.444 72.2275 309.444 72.7021V73.0977H307.722ZM307.361 75.9014C307.361 75.0166 307.792 74.5742 308.653 74.5742C309.075 74.5742 309.397 74.6914 309.62 74.9258C309.843 75.1543 309.954 75.4795 309.954 75.9014C309.954 76.3174 309.84 76.6484 309.611 76.8945C309.389 77.1348 309.069 77.2549 308.653 77.2549C308.237 77.2549 307.918 77.1377 307.695 76.9033C307.473 76.6631 307.361 76.3291 307.361 75.9014Z" fill="white"/>
<path d="M337.187 287.099C337.187 297.997 332.858 308.45 325.151 316.156C317.445 323.863 306.992 328.192 296.094 328.192C285.195 328.192 274.743 323.863 267.036 316.156C259.33 308.45 255 297.997 255 287.099C254.986 281.804 256.009 276.558 258.013 271.657C261.081 264.073 266.346 257.579 273.131 253.008C279.916 248.438 287.912 245.999 296.094 246.005C296.231 245.998 296.368 245.998 296.505 246.005C307.334 246.108 317.684 250.484 325.303 258.18C332.922 265.876 337.193 276.269 337.187 287.099Z" fill="#66D0F8" stroke="#0052B4" stroke-linecap="round" stroke-linejoin="round"/>
<path d="M304.62 290.429C289.38 300.343 271.944 305.604 260.795 308.154C264.438 314.266 269.607 319.326 275.795 322.839C281.983 326.352 288.978 328.196 296.093 328.192C298.374 328.193 300.651 328.002 302.9 327.621C309.888 326.45 316.454 323.492 321.961 319.034C327.468 314.575 331.727 308.768 334.326 302.177C336.924 295.585 337.774 288.434 336.791 281.417C335.808 274.4 333.027 267.757 328.718 262.133C326.774 268.434 321.116 279.721 304.62 290.429Z" fill="white" stroke="#0052B4" stroke-linecap="round" stroke-linejoin="round"/>
<path d="M331.912 307.244C328.904 312.591 324.738 317.196 319.717 320.722C314.697 324.248 308.951 326.605 302.9 327.621C300.651 328.002 298.375 328.192 296.094 328.191C290.696 328.194 285.351 327.133 280.364 325.069C275.377 323.005 270.846 319.978 267.03 316.162C263.213 312.345 260.187 307.814 258.122 302.827C256.058 297.84 254.997 292.495 255 287.098C254.986 281.803 256.009 276.557 258.013 271.656C266.236 273.824 283.484 279.243 304.678 290.545C314.084 295.557 323.179 301.134 331.912 307.244Z" fill="#66D0F8" stroke="#0052B4" stroke-linecap="round" stroke-linejoin="round"/>
<path d="M302.9 327.621C300.651 328.002 298.375 328.193 296.094 328.192C290.696 328.195 285.351 327.134 280.364 325.07C275.377 323.006 270.846 319.979 267.03 316.163C263.213 312.346 260.187 307.815 258.122 302.828C256.058 297.841 254.997 292.496 255 287.099C254.986 281.804 256.009 276.558 258.013 271.657C261.081 264.073 266.346 257.579 273.131 253.008C279.916 248.438 287.912 245.999 296.094 246.005C296.231 245.998 296.368 245.998 296.505 246.005C299.049 253.029 303.659 268.514 304.678 290.531C305.243 302.923 304.648 315.341 302.9 327.621Z" fill="white" stroke="#0052B4" stroke-linecap="round" stroke-linejoin="round"/>
<path d="M302.9 327.621C300.651 328.002 298.375 328.192 296.094 328.191C290.696 328.194 285.351 327.133 280.364 325.069C275.377 323.005 270.846 319.978 267.03 316.162C263.213 312.345 260.187 307.814 258.122 302.827C256.058 297.84 254.997 292.495 255 287.098C254.986 281.803 256.009 276.557 258.013 271.656C266.236 273.824 283.484 279.243 304.678 290.545C305.243 302.932 304.647 315.344 302.9 327.621Z" fill="#66D0F8" stroke="#0052B4" stroke-linecap="round" stroke-linejoin="round"/>
<path d="M260.795 308.156C264.438 314.267 269.607 319.328 275.795 322.84C281.983 326.353 288.978 328.197 296.093 328.193C298.374 328.194 300.651 328.003 302.9 327.622C304.646 315.351 305.241 302.943 304.678 290.561L304.547 290.488C289.323 300.366 271.923 305.598 260.795 308.156Z" fill="white" stroke="#0052B4" stroke-linecap="round" stroke-linejoin="round"/>
<path d="M312.076 290.43C312.076 288.955 311.639 287.513 310.82 286.287C310 285.06 308.836 284.105 307.473 283.54C306.11 282.976 304.611 282.828 303.164 283.116C301.718 283.404 300.389 284.114 299.346 285.157C298.303 286.2 297.593 287.528 297.305 288.975C297.018 290.421 297.165 291.921 297.73 293.283C298.294 294.646 299.25 295.811 300.476 296.63C301.703 297.449 303.144 297.887 304.619 297.887C306.597 297.887 308.494 297.101 309.892 295.703C311.291 294.304 312.076 292.407 312.076 290.43Z" fill="#EBEBEB" stroke="#0052B4" stroke-linecap="round" stroke-linejoin="round"/>
</svg>
