<svg width="564" height="364" viewBox="0 0 564 364" fill="none" xmlns="http://www.w3.org/2000/svg">
<g clip-path="url(#clip0_546_15334)">
<path d="M187.5 59.499C161.1 45.099 140.833 45.499 134 47.499C118.833 57.3323 88.5 80.199 88.5 92.999C88.5 108.999 141 148.999 174 148.999C207 148.999 233.5 193.999 257.5 217.999C281.5 241.999 339.5 266.499 369 264.999C398.5 263.499 463 310.499 494.5 337.499C519.7 359.099 600 352.166 637 345.999C636.167 246.499 631.2 47.499 618 47.499C601.5 47.499 536 47.499 515.5 71.499C495 95.4991 433.5 97.499 380 71.499C326.5 45.499 283.5 71.499 264.5 76.999C245.5 82.499 220.5 77.499 187.5 59.499Z" fill="#F9F9F9"/>
<path opacity="0.5" d="M205.585 71.9527C179.039 58.0817 157.734 56.1149 150.4 56.8653C133.685 62.6194 99.9959 76.553 98.9607 86.2543C97.6667 98.381 149.538 134.578 184.176 138.274C218.815 141.971 242.991 179.045 266.241 199.923C289.492 220.802 348.39 245.867 379.476 248.034C410.562 250.202 474.463 293.048 505.343 317.04C530.047 336.234 614.894 339.973 654.23 339.444C661.403 263.937 672.284 112.555 658.429 111.077C641.11 109.229 572.358 101.892 548.899 117.786C525.44 133.68 460.725 128.307 406.672 102.609C352.618 76.9109 305.381 91.8005 284.993 93.8409C264.604 95.8813 238.768 89.2915 205.585 71.9527Z" fill="#00BFFF"/>
<path d="M118.125 75.5757C118.125 75.5757 118.288 75.6084 118.648 75.6739C118.845 75.7066 119.041 75.7721 119.336 75.8376C119.762 75.9357 120.253 76.0667 120.809 76.2303C122.119 76.5904 122.872 76.8522 123.952 77.1795C124.967 77.5069 126.146 77.8996 127.455 78.3579C132.497 80.1254 139.897 82.7111 149.293 86.017C167.987 92.5633 194.67 101.695 227.115 111.449C259.56 121.171 297.735 131.546 339.151 140.417C359.842 144.868 381.352 148.992 403.288 152.462C425.256 155.931 447.65 158.91 470.142 160.939C515.094 165.096 560.406 165.914 602.64 162.314C644.842 158.844 683.867 150.891 716.083 140.253C732.191 134.983 746.629 129.091 759.169 123.298C765.389 120.319 771.217 117.505 776.455 114.624C781.792 111.908 786.474 109.027 790.763 106.54C799.242 101.401 805.79 97.1457 810.112 94.0035C814.466 90.9267 816.791 89.2901 816.791 89.2901C816.791 89.2901 814.532 90.9922 810.275 94.1999C806.052 97.473 799.635 101.924 791.319 107.358C787.096 109.976 782.479 113.02 777.241 115.901C772.068 118.978 766.339 121.989 760.151 125.164C747.742 131.383 733.402 137.765 717.295 143.591C685.144 155.375 645.987 164.638 603.426 169.482C560.864 174.49 514.963 175.112 469.357 172.33C446.537 170.988 423.783 168.696 401.454 165.882C379.126 163.067 357.256 159.597 336.171 155.735C294.002 148.076 255.075 138.813 221.942 130.008C188.81 121.203 161.472 112.791 142.45 106.801C132.988 103.823 125.589 101.466 120.515 99.8624C115.047 98.1931 114.851 98.2258 114.163 98.0949L118.223 75.543L118.125 75.5757Z" fill="white" fill-opacity="0.37"/>
<path d="M132.399 38.2945C132.399 38.2945 132.563 38.3272 132.923 38.3926C133.119 38.4254 133.316 38.4908 133.61 38.5563C134.036 38.6545 134.527 38.7854 135.084 38.9491C136.393 39.3091 137.146 39.571 138.227 39.8983C139.242 40.2256 140.42 40.6184 141.73 41.0766C146.772 42.8441 154.171 45.4299 163.567 48.7358C182.262 55.282 208.945 64.4141 241.39 74.168C273.835 83.8893 312.009 94.2651 353.425 103.135C374.116 107.587 395.626 111.711 417.562 115.18C439.53 118.65 461.924 121.629 484.417 123.658C529.368 127.815 574.68 128.633 616.914 125.033C659.116 121.563 698.109 113.609 730.358 102.972C746.466 97.7019 760.904 91.8103 773.443 86.0168C779.664 83.0382 785.491 80.2233 790.73 77.343C796.066 74.6263 800.748 71.7459 805.037 69.2583C813.516 64.1195 820.064 59.8644 824.386 56.7222C828.74 53.6455 831.065 52.0089 831.065 52.0089C831.065 52.0089 828.806 53.7109 824.55 56.9186C820.326 60.1917 813.909 64.6432 805.594 70.0766C801.37 72.6951 796.754 75.7391 791.515 78.6195C786.343 81.6963 780.613 84.7075 774.425 87.8825C762.017 94.1014 747.677 100.484 731.569 106.31C699.419 118.094 660.262 127.357 617.7 132.201C575.138 137.209 529.237 137.831 483.631 135.048C460.811 133.706 438.057 131.415 415.729 128.6C393.4 125.785 371.53 122.316 350.446 118.454C308.277 110.794 269.349 101.531 236.217 92.7267C203.084 83.922 175.746 75.51 156.725 69.5202C147.263 66.5416 139.864 64.185 134.789 62.5811C129.321 60.9118 129.125 60.9446 128.438 60.8136L132.497 38.2617L132.399 38.2945Z" fill="white" fill-opacity="0.37"/>
<path d="M0 8.05233C4.02699 34.8266 30.6444 65.4959 69.8666 84.9056C86.2037 92.9903 102.77 98.1618 118.256 100.486C148.999 105.134 167.529 67.7216 145.233 46.0862C134.004 35.1866 119.827 25.1381 103.49 17.0535C64.2681 -2.35624 23.7691 -4.97475 0 8.05233Z" fill="#FBF3EC"/>
<path d="M96.7127 27.3957C66.8213 13.4194 44.7547 57.9341 73.9913 73.2524C74.8098 73.6779 75.6283 74.1034 76.4468 74.4962C87.5128 79.9623 98.7098 83.4646 109.187 85.0357C129.878 88.1451 142.45 62.7783 127.423 48.2129C119.827 40.8483 110.234 34.0402 99.2009 28.574C98.3824 28.1485 97.5312 27.7558 96.7127 27.363V27.3957Z" fill="#D9D2CC"/>
<path d="M100.642 37.5755C99.2017 36.7573 97.7284 35.939 96.1897 35.1862C95.6004 34.8916 95.011 34.597 94.389 34.3351C72.9445 24.3193 57.0984 56.2324 78.0846 67.2302C78.6739 67.5248 79.2632 67.8193 79.8525 68.1139C81.3913 68.8667 82.9301 69.5541 84.4688 70.2087C66.7239 58.7528 80.802 30.3746 100.642 37.5755Z" fill="#A39E99"/>
<path d="M145.201 46.0862C133.971 35.1866 119.795 25.1381 103.458 17.0535C64.2681 -2.35624 23.7691 -4.97475 0 8.05233C4.02699 34.8266 30.6444 65.4959 69.8666 84.9056C86.2037 92.9903 102.77 98.1618 118.256 100.486C148.999 105.134 167.529 67.7216 145.233 46.0862H145.201ZM147.623 81.1742C143.335 89.848 133.545 98.2927 118.911 96.0997C103.458 93.7758 87.1859 88.5061 71.831 80.9124C36.8649 63.5975 10.5095 35.6776 4.97644 10.5072C28.3526 -0.326897 66.5271 3.73179 101.493 21.0467C116.848 28.6404 130.893 38.4271 142.09 49.2939C152.698 59.6043 151.912 72.5331 147.623 81.1742Z" fill="#D9D2CC"/>
</g>
<defs>
<clipPath id="clip0_546_15334">
<rect width="568" height="364" fill="white"/>
</clipPath>
</defs>
</svg>
