<svg width="77" height="65" viewBox="0 0 77 65" fill="none" xmlns="http://www.w3.org/2000/svg">
<rect x="0.25" y="0.25" width="76.5" height="64.5" rx="9.75" fill="white" stroke="#CCCCCC" stroke-width="0.5"/>
<g clip-path="url(#clip0_546_17130)">
<path d="M22 31.0689C22.5593 31.0689 23.0192 31.0636 23.479 31.0702C23.7746 31.0755 23.9323 30.9559 23.9972 30.6588C24.583 27.9436 25.6804 25.4203 27.0282 23.006C29.7596 18.1131 33.4387 14.0468 38.0335 10.8085C38.5292 10.4589 38.4523 10.0291 38.4351 9.58755C38.4192 9.16436 38.553 9.00402 38.9983 9.00008C39.4728 8.99613 39.6808 9.14202 39.6186 9.62434C39.4052 11.2606 39.9247 12.7049 40.6682 14.1493C43.1041 18.8793 45.9906 23.3083 49.3675 27.4258C49.4974 27.5835 49.614 27.7504 49.8101 28.0093C49.4947 28.0238 49.3039 28.0409 49.113 28.0409C46.1549 28.0435 43.1969 28.0422 40.2388 28.0448C39.592 28.0448 39.5337 28.1289 39.6663 28.6743C41.4899 28.6743 43.291 28.6651 45.0907 28.6901C45.2537 28.6927 45.4737 28.8728 45.5639 29.0292C45.8528 29.5286 46.1125 30.0464 46.3445 30.5747C46.5167 30.969 46.7924 31.0925 47.2033 31.0873C48.449 31.0702 49.6961 31.0584 50.9419 31.0873C51.1593 31.0925 51.4588 31.2476 51.5754 31.4264C52.6622 33.102 53.7184 34.7987 54.78 36.4902C54.8542 36.6084 54.9033 36.7412 55 36.9409C54.7429 36.9567 54.568 36.9764 54.393 36.9764C46.5817 36.9777 38.7704 37.0448 30.9604 36.9423C28.1481 36.9055 25.6114 35.833 23.5851 33.7986C22.8522 33.0626 22.3552 32.1755 22 31.0689ZM23.8461 32.2517C24.0542 32.5303 24.1549 32.6986 24.2861 32.8365C26.0727 34.733 28.3667 35.7358 30.8928 35.7778C38.0361 35.8948 45.1835 35.8199 52.3295 35.8173C52.4978 35.8173 52.6648 35.7831 52.9127 35.7568C52.7867 35.5308 52.7152 35.3875 52.6304 35.2508C52.0949 34.3979 51.5396 33.5568 51.0281 32.6894C50.8041 32.3122 50.5284 32.1939 50.0977 32.1939C41.572 32.2044 33.0477 32.2018 24.522 32.2031C24.3484 32.2031 24.1748 32.2267 23.8475 32.2504L23.8461 32.2517ZM25.6446 29.338C29.1911 27.9081 32.7853 27.5349 36.5637 28.2603C36.4882 28.0041 36.459 27.8621 36.406 27.7307C35.3524 25.1377 35.2106 22.4474 35.5446 19.7085C35.8083 17.5374 36.4007 15.4491 37.1919 13.412C37.2569 13.2464 37.2913 13.069 37.3616 12.8232C33.3313 15.0417 26.1071 25.21 25.6446 29.338ZM47.2099 26.8738L47.2987 26.7345C44.4599 23.0244 41.9153 19.129 39.7259 14.9904C39.649 15.1639 39.6199 15.3203 39.6199 15.4767C39.6172 19.0856 39.6265 22.6945 39.608 26.3021C39.6053 26.7976 39.7895 26.9067 40.2494 26.9027C42.4096 26.883 44.5699 26.8948 46.7288 26.8935C46.8892 26.8935 47.0495 26.8804 47.2099 26.8738ZM38.4112 13.8615C38.2986 13.9837 38.2601 14.0126 38.2389 14.052C38.1912 14.1388 38.1461 14.2281 38.113 14.3201C37.2118 16.8317 36.5942 19.3984 36.5704 22.0808C36.5505 24.2874 36.9441 26.4033 38.003 28.3681C38.0878 28.5258 38.2111 28.6612 38.3171 28.8084C38.3489 28.7913 38.3807 28.7755 38.4125 28.7584V13.8615H38.4112ZM37.897 29.9741C34.6659 28.79 31.4202 28.8307 28.1627 29.71C27.1037 29.9965 26.0554 30.3382 25.1105 30.9007L25.1582 31.0702C25.353 31.0702 25.5492 31.0702 25.744 31.0702C29.0811 31.0702 32.4182 31.0452 35.7553 31.086C36.7042 31.0978 37.229 30.4683 37.897 29.9754V29.9741ZM38.8499 30.8744C38.8724 30.9414 38.8949 31.0084 38.9175 31.0755C40.92 31.0755 42.9225 31.0781 44.9251 31.0676C45.0072 31.0676 45.1464 30.9624 45.161 30.8875C45.2352 30.5274 44.6388 29.8414 44.2637 29.8401C43.1531 29.8374 42.0412 29.8558 40.9306 29.8361C40.0201 29.8204 39.5324 30.5103 38.8499 30.8757V30.8744Z" fill="#666666"/>
<path d="M23.8461 32.2518C24.1734 32.2282 24.347 32.2045 24.5206 32.2045C33.0463 32.2032 41.5706 32.2045 50.0963 32.1953C50.527 32.1953 50.8027 32.3136 51.0267 32.6908C51.5395 33.5569 52.0948 34.398 52.6289 35.2522C52.7138 35.3876 52.7853 35.5322 52.9112 35.7582C52.6634 35.7845 52.4964 35.8187 52.3281 35.8187C45.1821 35.8213 38.0361 35.8975 30.8914 35.7793C28.3653 35.7372 26.0712 34.7357 24.2847 32.838C24.1535 32.6987 24.0528 32.5318 23.8447 32.2531L23.8461 32.2518ZM30.7456 32.8603C30.3599 32.8511 30.0339 33.1508 30.063 33.4806C30.0935 33.8315 30.2923 34.0576 30.6674 34.076C31.0159 34.0931 31.3261 33.8 31.2982 33.4622C31.2704 33.1074 31.0597 32.8997 30.7442 32.8616L30.7456 32.8603ZM38.5012 33.4872C38.4734 33.1376 38.2998 32.905 37.9314 32.8629C37.5961 32.8248 37.2793 33.1113 37.2621 33.4491C37.2448 33.7842 37.5338 34.0813 37.8863 34.0747C38.2667 34.0681 38.4482 33.8473 38.5026 33.4872H38.5012ZM34.357 32.8616C33.9608 32.8511 33.6639 33.1311 33.6771 33.4767C33.6904 33.8434 33.8945 34.051 34.2656 34.0721C34.6234 34.0918 34.9123 33.8171 34.8977 33.4662C34.8832 33.0982 34.6579 32.9129 34.357 32.8616ZM42.1021 33.4491C42.0424 33.1021 41.8489 32.8748 41.4765 32.88C41.1094 32.8853 40.8921 33.0943 40.8775 33.4675C40.8642 33.8302 41.1492 34.1036 41.5097 34.0707C41.8781 34.0366 42.0663 33.8171 42.1021 33.4491Z" fill="#00BFFF"/>
<path d="M25.6436 29.3371C26.1061 25.209 33.3303 15.0407 37.3605 12.8223C37.2903 13.068 37.2558 13.2455 37.1909 13.411C36.3997 15.4481 35.8073 17.5365 35.5436 19.7076C35.2096 22.4465 35.3514 25.1367 36.405 27.7298C36.458 27.8612 36.4872 28.0018 36.5627 28.2594C32.7843 27.5352 29.1901 27.9085 25.6436 29.3371Z" fill="white"/>
<path d="M47.2084 26.8736C47.048 26.8802 46.8877 26.8934 46.7273 26.8934C44.5671 26.8934 42.4068 26.8828 40.2479 26.9026C39.788 26.9065 39.6038 26.7974 39.6065 26.3019C39.625 22.693 39.6158 19.0841 39.6184 15.4765C39.6184 15.3201 39.6476 15.1637 39.7244 14.9902C41.9138 19.1288 44.4584 23.0229 47.2972 26.7343L47.2084 26.8736Z" fill="white"/>
<path d="M38.8486 30.8738C39.5312 30.5098 40.0189 29.8185 40.9294 29.8342C42.04 29.854 43.1519 29.8356 44.2625 29.8382C44.6375 29.8382 45.2339 30.5242 45.1597 30.8856C45.1438 30.9619 45.006 31.0657 44.9238 31.0657C42.9213 31.0762 40.9188 31.0736 38.9162 31.0736C38.8937 31.0066 38.8712 30.9395 38.8486 30.8725V30.8738Z" fill="#80CEF4"/>
<path d="M30.7455 32.8609C31.0609 32.899 31.2703 33.1067 31.2995 33.4615C31.326 33.7993 31.0159 34.0923 30.6687 34.0753C30.2936 34.0569 30.0948 33.8308 30.0643 33.4799C30.0352 33.15 30.3599 32.8504 30.7469 32.8596L30.7455 32.8609Z" fill="#80CEF4"/>
<path d="M38.5 33.4851C38.4457 33.8452 38.2641 34.066 37.8837 34.0726C37.5312 34.0778 37.2423 33.7821 37.2595 33.447C37.2768 33.1105 37.5935 32.8227 37.9288 32.8608C38.2972 32.9029 38.4722 33.1355 38.4987 33.4851H38.5Z" fill="#80CEF4"/>
<path d="M34.3571 32.8616C34.6579 32.9142 34.8832 33.0982 34.8978 33.4662C34.9124 33.8171 34.6234 34.0917 34.2656 34.072C33.8945 34.051 33.6904 33.8434 33.6772 33.4767C33.6639 33.1323 33.9608 32.8511 34.3571 32.8616Z" fill="#80CEF4"/>
<path d="M42.102 33.4481C42.0662 33.8161 41.878 34.0355 41.5096 34.0697C41.1504 34.1026 40.8641 33.8292 40.8774 33.4665C40.892 33.0932 41.108 32.8843 41.4764 32.879C41.8488 32.8737 42.0423 33.1011 42.102 33.4481Z" fill="#80CEF4"/>
</g>
<path d="M28.4072 54.1006C28.4072 54.5238 28.3014 54.8851 28.0898 55.1846C27.8815 55.4808 27.5885 55.707 27.2109 55.8633C26.8333 56.0195 26.389 56.0977 25.8779 56.0977C25.6077 56.0977 25.3522 56.0846 25.1113 56.0586C24.8704 56.0326 24.6491 55.9951 24.4473 55.9463C24.2454 55.8975 24.068 55.8372 23.915 55.7656V54.9697C24.1592 55.0706 24.457 55.165 24.8086 55.2529C25.1602 55.3376 25.528 55.3799 25.9121 55.3799C26.2702 55.3799 26.5729 55.3327 26.8203 55.2383C27.0677 55.1406 27.2549 55.0023 27.3818 54.8232C27.512 54.641 27.5771 54.4229 27.5771 54.1689C27.5771 53.9248 27.5234 53.7214 27.416 53.5586C27.3086 53.3926 27.1296 53.2428 26.8789 53.1094C26.6315 52.9727 26.293 52.8278 25.8633 52.6748C25.5605 52.5674 25.2936 52.4502 25.0625 52.3232C24.8314 52.193 24.6377 52.0465 24.4814 51.8838C24.3252 51.721 24.2064 51.5322 24.125 51.3174C24.0469 51.1025 24.0078 50.8568 24.0078 50.5801C24.0078 50.1992 24.1038 49.8737 24.2959 49.6035C24.4912 49.3301 24.7598 49.1217 25.1016 48.9785C25.4466 48.832 25.8421 48.7588 26.2881 48.7588C26.6689 48.7588 27.0205 48.7946 27.3428 48.8662C27.6683 48.9378 27.9661 49.0339 28.2363 49.1543L27.9775 49.8672C27.7204 49.7598 27.4469 49.6702 27.1572 49.5986C26.8708 49.527 26.5745 49.4912 26.2686 49.4912C25.9626 49.4912 25.7038 49.5368 25.4922 49.6279C25.2839 49.7158 25.1243 49.8411 25.0137 50.0039C24.903 50.1667 24.8477 50.3604 24.8477 50.585C24.8477 50.8356 24.8997 51.0439 25.0039 51.21C25.1113 51.376 25.2806 51.5241 25.5117 51.6543C25.7461 51.7812 26.0553 51.9147 26.4395 52.0547C26.8594 52.2077 27.2158 52.3704 27.5088 52.543C27.8018 52.7122 28.0247 52.9206 28.1777 53.168C28.3307 53.4121 28.4072 53.723 28.4072 54.1006ZM31.7471 50.5605C32.3851 50.5605 32.8587 50.7038 33.168 50.9902C33.4772 51.2767 33.6318 51.734 33.6318 52.3623V56H33.041L32.8848 55.209H32.8457C32.696 55.4043 32.5397 55.5687 32.377 55.7021C32.2142 55.8324 32.0254 55.9316 31.8105 56C31.599 56.0651 31.3385 56.0977 31.0293 56.0977C30.7038 56.0977 30.4141 56.0407 30.1602 55.9268C29.9095 55.8128 29.7109 55.6403 29.5645 55.4092C29.4212 55.1781 29.3496 54.8851 29.3496 54.5303C29.3496 53.9964 29.5612 53.5863 29.9844 53.2998C30.4076 53.0133 31.0521 52.8571 31.918 52.8311L32.8408 52.792V52.4648C32.8408 52.0026 32.7415 51.6787 32.543 51.4932C32.3444 51.3076 32.0645 51.2148 31.7031 51.2148C31.4232 51.2148 31.1562 51.2555 30.9023 51.3369C30.6484 51.4183 30.4076 51.5143 30.1797 51.625L29.9307 51.0098C30.1715 50.8861 30.4482 50.7803 30.7607 50.6924C31.0732 50.6045 31.402 50.5605 31.7471 50.5605ZM32.8311 53.3633L32.0156 53.3975C31.3483 53.4235 30.8779 53.5326 30.6045 53.7246C30.3311 53.9167 30.1943 54.1885 30.1943 54.54C30.1943 54.846 30.2871 55.0723 30.4727 55.2188C30.6582 55.3652 30.904 55.4385 31.21 55.4385C31.6852 55.4385 32.0742 55.3066 32.377 55.043C32.6797 54.7793 32.8311 54.3838 32.8311 53.8564V53.3633ZM36.1123 50.6484V56H35.3018V50.6484H36.1123ZM35.7168 48.6465C35.8503 48.6465 35.9642 48.6904 36.0586 48.7783C36.1562 48.863 36.2051 48.9964 36.2051 49.1787C36.2051 49.3577 36.1562 49.4912 36.0586 49.5791C35.9642 49.667 35.8503 49.7109 35.7168 49.7109C35.5768 49.7109 35.4596 49.667 35.3652 49.5791C35.2741 49.4912 35.2285 49.3577 35.2285 49.1787C35.2285 48.9964 35.2741 48.863 35.3652 48.7783C35.4596 48.6904 35.5768 48.6465 35.7168 48.6465ZM38.6465 56H37.8311V48.4023H38.6465V56ZM41.1709 50.6484V56H40.3604V50.6484H41.1709ZM40.7754 48.6465C40.9089 48.6465 41.0228 48.6904 41.1172 48.7783C41.2148 48.863 41.2637 48.9964 41.2637 49.1787C41.2637 49.3577 41.2148 49.4912 41.1172 49.5791C41.0228 49.667 40.9089 49.7109 40.7754 49.7109C40.6354 49.7109 40.5182 49.667 40.4238 49.5791C40.3327 49.4912 40.2871 49.3577 40.2871 49.1787C40.2871 48.9964 40.3327 48.863 40.4238 48.7783C40.5182 48.6904 40.6354 48.6465 40.7754 48.6465ZM45.4238 50.5508C46.0586 50.5508 46.5387 50.707 46.8643 51.0195C47.1898 51.3288 47.3525 51.8268 47.3525 52.5137V56H46.5518V52.5674C46.5518 52.1214 46.4492 51.7878 46.2441 51.5664C46.0423 51.3451 45.7314 51.2344 45.3115 51.2344C44.7191 51.2344 44.3024 51.402 44.0615 51.7373C43.8206 52.0726 43.7002 52.5592 43.7002 53.1973V56H42.8896V50.6484H43.5439L43.666 51.4199H43.71C43.8239 51.2311 43.9688 51.0732 44.1445 50.9463C44.3203 50.8161 44.5173 50.7184 44.7354 50.6533C44.9535 50.585 45.1829 50.5508 45.4238 50.5508ZM50.5166 58.4023C49.8135 58.4023 49.2715 58.2705 48.8906 58.0068C48.5098 57.7464 48.3193 57.3802 48.3193 56.9082C48.3193 56.5729 48.4251 56.2865 48.6367 56.0488C48.8516 55.8112 49.1478 55.6533 49.5254 55.5752C49.3854 55.5101 49.265 55.4124 49.1641 55.2822C49.0664 55.152 49.0176 55.0023 49.0176 54.833C49.0176 54.6377 49.0713 54.4668 49.1787 54.3203C49.2894 54.1706 49.457 54.0273 49.6816 53.8906C49.4017 53.7767 49.1738 53.5846 48.998 53.3145C48.8255 53.041 48.7393 52.7236 48.7393 52.3623C48.7393 51.9782 48.819 51.651 48.9785 51.3809C49.138 51.1074 49.3691 50.8991 49.6719 50.7559C49.9746 50.6126 50.3408 50.541 50.7705 50.541C50.8649 50.541 50.9593 50.5459 51.0537 50.5557C51.1514 50.5622 51.2441 50.5736 51.332 50.5898C51.4199 50.6029 51.4964 50.6191 51.5615 50.6387H53.3975V51.1611L52.4111 51.2832C52.5088 51.4102 52.5902 51.5632 52.6553 51.7422C52.7204 51.9212 52.7529 52.1198 52.7529 52.3379C52.7529 52.8717 52.5723 53.2965 52.2109 53.6123C51.8496 53.9248 51.3532 54.0811 50.7217 54.0811C50.5719 54.0811 50.4189 54.068 50.2627 54.042C50.1032 54.1299 49.9811 54.2275 49.8965 54.335C49.8151 54.4424 49.7744 54.5661 49.7744 54.7061C49.7744 54.8102 49.8053 54.8932 49.8672 54.9551C49.9323 55.0169 50.0251 55.0625 50.1455 55.0918C50.266 55.1178 50.4108 55.1309 50.5801 55.1309H51.5225C52.1051 55.1309 52.5511 55.2529 52.8604 55.4971C53.1729 55.7412 53.3291 56.0977 53.3291 56.5664C53.3291 57.1589 53.0882 57.613 52.6064 57.9287C52.1247 58.2445 51.4281 58.4023 50.5166 58.4023ZM50.541 57.7676C50.9837 57.7676 51.3499 57.722 51.6396 57.6309C51.9326 57.543 52.1507 57.4144 52.2939 57.2451C52.4404 57.0791 52.5137 56.8805 52.5137 56.6494C52.5137 56.4346 52.4648 56.2718 52.3672 56.1611C52.2695 56.0537 52.1263 55.9821 51.9375 55.9463C51.7487 55.9072 51.5176 55.8877 51.2441 55.8877H50.3164C50.0755 55.8877 49.8656 55.9251 49.6865 56C49.5075 56.0749 49.3691 56.1855 49.2715 56.332C49.1771 56.4785 49.1299 56.6608 49.1299 56.8789C49.1299 57.1686 49.252 57.3883 49.4961 57.5381C49.7402 57.6911 50.0885 57.7676 50.541 57.7676ZM50.751 53.4902C51.1383 53.4902 51.4297 53.3926 51.625 53.1973C51.8203 53.002 51.918 52.7171 51.918 52.3428C51.918 51.9424 51.8187 51.6429 51.6201 51.4443C51.4215 51.2425 51.1286 51.1416 50.7412 51.1416C50.3701 51.1416 50.0837 51.2458 49.8818 51.4541C49.6833 51.6592 49.584 51.9603 49.584 52.3574C49.584 52.722 49.6849 53.002 49.8867 53.1973C50.0885 53.3926 50.3766 53.4902 50.751 53.4902Z" fill="#333333"/>
<defs>
<clipPath id="clip0_546_17130">
<rect width="33" height="28" fill="white" transform="translate(22 9)"/>
</clipPath>
</defs>
</svg>
