<svg width="44" height="47" viewBox="0 0 44 47" fill="none" xmlns="http://www.w3.org/2000/svg">
<path d="M14.3294 41.1374L19.7892 40.1056L20.4152 43.418L14.9554 44.4498C13.1711 44.787 11.3259 44.4016 9.82577 43.3783C8.32564 42.3551 7.29345 40.7778 6.95624 38.9935L2.16408 13.6359C1.82688 11.8516 2.2123 10.0064 3.23555 8.50632C4.2588 7.00619 5.83606 5.97399 7.62035 5.63679L21.567 3.0011C23.3513 2.6639 25.1965 3.04932 26.6966 4.07257C28.1967 5.09582 29.2289 6.67308 29.5661 8.45737L31.197 17.0869L27.8846 17.7129L26.2538 9.08335C26.0826 8.17754 25.5586 7.37683 24.7971 6.85738C24.0355 6.33792 23.0988 6.14226 22.193 6.31344L19.9742 6.73275L19.8228 6.76137L19.7803 6.9095L19.1155 9.22813L19.1152 9.22885C19.0299 9.52979 18.8626 9.80105 18.6318 10.0123C18.4011 10.2235 18.1162 10.3664 17.8089 10.4249L13.8221 11.1783C13.5147 11.236 13.1973 11.2069 12.9054 11.0945C12.6135 10.982 12.3587 10.7905 12.1694 10.5415L12.1693 10.5414L10.7105 8.62408L10.6169 8.50112L10.4651 8.52981L8.24633 8.94913C7.34052 9.12031 6.53981 9.64431 6.02035 10.4059C5.5009 11.1674 5.30524 12.1041 5.47642 13.0099L10.2686 38.3675C10.4398 39.2733 10.9638 40.074 11.7253 40.5935C12.4869 41.113 13.4236 41.3086 14.3294 41.1374Z" fill="#00BFFF" stroke="white" stroke-width="0.5"/>
<path d="M38.5898 22.2577C39.6659 22.9917 40.4063 24.1231 40.6482 25.403L41.081 27.6931L37.7686 28.319L37.3358 26.0289C37.26 25.6275 37.0278 25.2727 36.6903 25.0425C36.3528 24.8123 35.9377 24.7256 35.5363 24.8014L33.2462 25.2342L32.6202 21.9219L34.9103 21.4891C36.1902 21.2472 37.5138 21.5237 38.5898 22.2577Z" fill="#00BFFF" stroke="white" stroke-width="0.5"/>
<path d="M38.7718 36.0593C39.002 35.7218 39.0887 35.3067 39.0129 34.9053L38.5801 32.6152L41.8924 31.9892L42.3252 34.2793C42.5671 35.5592 42.2906 36.8828 41.5566 37.9588C40.8227 39.0349 39.6913 39.7753 38.4114 40.0172L36.1213 40.45L35.4953 37.1376L37.7854 36.7048C38.1868 36.629 38.5416 36.3968 38.7718 36.0593Z" fill="#00BFFF" stroke="white" stroke-width="0.5"/>
<path d="M26.0349 23.1681L28.325 22.7353L28.951 26.0476L26.6609 26.4804C26.2595 26.5563 25.9047 26.7885 25.6745 27.126C25.4443 27.4635 25.3576 27.8786 25.4334 28.28L25.8662 30.5701L22.5539 31.1961L22.1211 28.906C21.8792 27.6261 22.1557 26.3025 22.8897 25.2264C23.6236 24.1504 24.755 23.41 26.0349 23.1681Z" fill="#00BFFF" stroke="white" stroke-width="0.5"/>
<path d="M23.7981 37.7804L23.3653 35.4902L26.6777 34.8643L27.1104 37.1544C27.1863 37.5558 27.4185 37.9106 27.756 38.1408C28.0935 38.371 28.5086 38.4577 28.91 38.3819L31.2001 37.9491L31.8261 41.2614L29.536 41.6942C28.2561 41.9361 26.9325 41.6596 25.8565 40.9256C24.7804 40.1916 24.04 39.0603 23.7981 37.7804Z" fill="#00BFFF" stroke="white" stroke-width="0.5"/>
</svg>
