<svg width="17" height="15" viewBox="0 0 17 15" fill="none" xmlns="http://www.w3.org/2000/svg">
<path d="M0.796875 0H0V0.803571V14.1964V15H1.59375V14.1964V1.60714H3.65566L4.30645 2.26339C3.3834 3.71652 3.54941 5.66853 4.80781 6.9375L5.04023 7.17187L5.01367 7.19866L4.44922 7.76786L5.57812 8.9029L6.14258 8.3337L11.4551 2.97991L12.0195 2.41071L10.8906 1.27567L10.3262 1.84152L10.2996 1.8683L10.0738 1.64062L10.0672 1.63393C8.80879 0.364955 6.87305 0.194196 5.43203 1.12835L4.54883 0.234375L4.31641 0H3.98438H0.796875ZM8.94824 2.77902L9.17402 3.0067L6.16914 6.03683L5.93672 5.80246C5.10664 4.9654 5.10664 3.60938 5.93672 2.77232C6.7668 1.93527 8.11152 1.93527 8.9416 2.77232L8.94824 2.77902ZM13.8125 5.35714C13.8125 5.07298 13.7006 4.80046 13.5013 4.59953C13.302 4.3986 13.0318 4.28571 12.75 4.28571C12.4682 4.28571 12.198 4.3986 11.9987 4.59953C11.7994 4.80046 11.6875 5.07298 11.6875 5.35714C11.6875 5.6413 11.7994 5.91383 11.9987 6.11476C12.198 6.31569 12.4682 6.42857 12.75 6.42857C13.0318 6.42857 13.302 6.31569 13.5013 6.11476C13.7006 5.91383 13.8125 5.6413 13.8125 5.35714ZM11.6875 7.5C11.6875 7.21584 11.5756 6.94332 11.3763 6.74239C11.177 6.54145 10.9068 6.42857 10.625 6.42857C10.3432 6.42857 10.073 6.54145 9.8737 6.74239C9.67444 6.94332 9.5625 7.21584 9.5625 7.5C9.5625 7.78416 9.67444 8.05668 9.8737 8.25761C10.073 8.45855 10.3432 8.57143 10.625 8.57143C10.9068 8.57143 11.177 8.45855 11.3763 8.25761C11.5756 8.05668 11.6875 7.78416 11.6875 7.5ZM8.5 10.7143C8.78179 10.7143 9.05204 10.6014 9.2513 10.4005C9.45056 10.1995 9.5625 9.92702 9.5625 9.64286C9.5625 9.3587 9.45056 9.08617 9.2513 8.88524C9.05204 8.68431 8.78179 8.57143 8.5 8.57143C8.21821 8.57143 7.94796 8.68431 7.7487 8.88524C7.54944 9.08617 7.4375 9.3587 7.4375 9.64286C7.4375 9.92702 7.54944 10.1995 7.7487 10.4005C7.94796 10.6014 8.21821 10.7143 8.5 10.7143ZM9.5625 13.9286C9.84429 13.9286 10.1145 13.8157 10.3138 13.6148C10.5131 13.4138 10.625 13.1413 10.625 12.8571C10.625 12.573 10.5131 12.3005 10.3138 12.0995C10.1145 11.8986 9.84429 11.7857 9.5625 11.7857C9.28071 11.7857 9.01046 11.8986 8.8112 12.0995C8.61194 12.3005 8.5 12.573 8.5 12.8571C8.5 13.1413 8.61194 13.4138 8.8112 13.6148C9.01046 13.8157 9.28071 13.9286 9.5625 13.9286ZM11.6875 11.7857C11.9693 11.7857 12.2395 11.6728 12.4388 11.4719C12.6381 11.271 12.75 10.9984 12.75 10.7143C12.75 10.4301 12.6381 10.1576 12.4388 9.95667C12.2395 9.75574 11.9693 9.64286 11.6875 9.64286C11.4057 9.64286 11.1355 9.75574 10.9362 9.95667C10.7369 10.1576 10.625 10.4301 10.625 10.7143C10.625 10.9984 10.7369 11.271 10.9362 11.4719C11.1355 11.6728 11.4057 11.7857 11.6875 11.7857ZM13.8125 9.64286C14.0943 9.64286 14.3645 9.52997 14.5638 9.32904C14.7631 9.12811 14.875 8.85559 14.875 8.57143C14.875 8.28727 14.7631 8.01475 14.5638 7.81381C14.3645 7.61288 14.0943 7.5 13.8125 7.5C13.5307 7.5 13.2605 7.61288 13.0612 7.81381C12.8619 8.01475 12.75 8.28727 12.75 8.57143C12.75 8.85559 12.8619 9.12811 13.0612 9.32904C13.2605 9.52997 13.5307 9.64286 13.8125 9.64286ZM17 6.42857C17 6.14441 16.8881 5.87189 16.6888 5.67096C16.4895 5.47003 16.2193 5.35714 15.9375 5.35714C15.6557 5.35714 15.3855 5.47003 15.1862 5.67096C14.9869 5.87189 14.875 6.14441 14.875 6.42857C14.875 6.71273 14.9869 6.98525 15.1862 7.18619C15.3855 7.38712 15.6557 7.5 15.9375 7.5C16.2193 7.5 16.4895 7.38712 16.6888 7.18619C16.8881 6.98525 17 6.71273 17 6.42857Z" fill="#00BFFF"/>
</svg>
