<svg width="80" height="50" viewBox="0 0 80 50" fill="none" xmlns="http://www.w3.org/2000/svg">
<path d="M26.047 38.6798L20.738 44.34L26.047 50.0001L27.3624 48.5977L24.299 45.3318H39.7282V32.4385H37.8677V43.3482H24.299L27.3624 40.0822L26.047 38.6798Z" fill="#00BFFF"/>
<path d="M1.31537 32.1478L4.37869 28.8819V45.3317H16.472V43.3481H6.23919V28.8819L9.30251 32.1478L10.6179 30.7454L5.30894 25.0853L0 30.7454L1.31537 32.1478Z" fill="#00BFFF"/>
<path d="M4.37866 20.537H6.23916V9.62729H19.8078L16.7445 12.8933L18.0599 14.2956L23.3688 8.63551L18.0599 2.97537L16.7445 4.37776L19.8078 7.64372H4.37866V20.537Z" fill="#00BFFF"/>
<path d="M27.6351 7.64383V9.62741H37.8679V24.0936L34.8045 20.8277L33.4892 22.2301L38.7981 27.8902L44.1071 22.2301L42.7917 20.8277L39.7284 24.0936V7.64383H27.6351Z" fill="#00BFFF"/>
<path d="M47.8975 14.4055L54.7385 21.635L53.1341 31.8097C52.9238 33.1436 54.2156 34.1598 55.3196 33.5289L63.7205 28.728L72.1215 33.5289C73.2255 34.1598 74.5173 33.1436 74.307 31.8097L72.7025 21.635L79.5436 14.4055C80.4376 13.4608 79.9437 11.8144 78.7082 11.6209L69.294 10.1462L65.0691 0.907146C64.516 -0.302382 62.9251 -0.302382 62.372 0.907146L58.1471 10.1462L48.7329 11.6209C47.4974 11.8144 47.0035 13.4608 47.8975 14.4055Z" fill="#FF7F50"/>
</svg>
