<svg width="149" height="173" viewBox="0 0 149 173" fill="none" xmlns="http://www.w3.org/2000/svg">
<path d="M145.113 86.1056C140.521 85.3223 135.868 84.9521 131.21 84.9997C126.546 84.9437 121.887 85.3139 117.291 86.1056C121.889 86.8844 126.547 87.2492 131.21 87.1957C135.867 87.2407 140.52 86.8759 145.113 86.1056Z" fill="#FFEE58"/>
<path d="M74.538 43.1944C75.3104 36.0218 75.6744 28.8111 75.6282 21.5972C75.683 14.3831 75.319 7.1719 74.538 0C73.7518 7.1716 73.3826 14.3828 73.4321 21.5972C73.3912 28.8114 73.7604 36.0221 74.538 43.1944Z" fill="#FFEE58"/>
<path d="M95.9473 48.9597C98.9481 45.3292 101.618 41.4377 103.926 37.3316C106.328 33.2764 108.364 29.0148 110.008 24.5977C104.091 31.9434 99.348 40.1615 95.9473 48.9597Z" fill="#FFEE58"/>
<path d="M111.588 64.6659C118.193 61.7623 124.624 58.4758 130.847 54.8231C137.122 51.2514 143.184 47.316 149 43.0371C142.396 45.9398 135.97 49.2317 129.757 52.8957C123.479 56.4655 117.412 60.3955 111.588 64.6659Z" fill="#FFEE58"/>
<path d="M31.6304 85.9469C27.037 85.176 22.3847 84.8112 17.7273 84.8568C13.0697 84.8027 8.41654 85.1676 3.82422 85.9469C8.41509 86.7393 13.0689 87.1095 17.7273 87.0529C22.3855 87.101 27.0385 86.7308 31.6304 85.9469Z" fill="#FFEE58"/>
<path d="M37.4119 64.5386C31.5831 60.2845 25.517 56.3653 19.2431 52.8C13.0226 49.1484 6.59769 45.8568 0 42.9414C5.81328 47.215 11.8749 51.14 18.153 54.6958C24.3775 58.3453 30.8079 61.6318 37.4119 64.5386Z" fill="#FFEE58"/>
<path d="M53.1167 48.8997C51.4642 44.5189 49.4343 40.2899 47.0499 36.2605C44.7638 32.1697 42.1203 28.2891 39.1504 24.6641C40.7867 29.0517 42.8173 33.2821 45.2172 37.3032C47.5033 41.3941 50.1467 45.2747 53.1167 48.8997Z" fill="#FFEE58"/>
<path d="M74.4607 128.951C73.6879 136.124 73.324 143.334 73.3706 150.548C73.3158 157.762 73.6798 164.974 74.4607 172.146C75.247 164.974 75.6162 157.763 75.5666 150.548C75.608 143.334 75.2388 136.123 74.4607 128.951Z" fill="#FFEE58"/>
<path d="M53.0201 123.184C47.0989 130.521 42.3551 138.734 38.959 147.53C41.9598 143.899 44.6299 140.008 46.9374 135.902C49.3366 131.85 51.3722 127.594 53.0201 123.184Z" fill="#FFEE58"/>
<path d="M37.4119 107.48C30.8086 110.377 24.3782 113.653 18.153 117.292C11.8749 120.847 5.81328 124.772 0 129.046C6.59769 126.131 13.0226 122.839 19.2431 119.187C25.5162 115.632 31.5823 111.724 37.4119 107.48Z" fill="#FFEE58"/>
<path d="M111.588 107.59C117.413 111.855 123.479 115.779 129.757 119.344C135.977 122.996 142.402 126.287 149 129.203C143.187 124.929 137.125 121.004 130.847 117.448C124.621 113.797 118.191 110.505 111.588 107.59Z" fill="#FFEE58"/>
<path d="M95.8848 123.248C97.5372 127.629 99.5671 131.858 101.952 135.887C104.234 139.975 106.878 143.851 109.851 147.468C108.212 143.081 106.182 138.851 103.784 134.829C101.497 130.743 98.8539 126.868 95.8848 123.248Z" fill="#FFEE58"/>
<path d="M74.5084 120.357C93.4428 120.357 108.792 105.007 108.792 86.0728C108.792 67.1384 93.4428 51.7891 74.5084 51.7891C55.574 51.7891 40.2246 67.1384 40.2246 86.0728C40.2246 105.007 55.574 120.357 74.5084 120.357Z" fill="#FFEE58"/>
</svg>
