<svg width="834" height="1437" viewBox="0 0 834 1437" fill="none" xmlns="http://www.w3.org/2000/svg">
<path opacity="0.1" d="M1062.12 1387.11C1247.8 1332.08 1379.55 1220.07 1428.48 1075.64C1466.54 960.517 1441.08 816.759 1313.72 712.959C1250.18 661.245 1161.1 616.906 1138.69 553.92C1117.14 493.053 1169.18 442.953 1176.34 384.637C1183.5 326.321 1144.23 261.909 1084.64 211.186C1025.04 160.462 947.429 122.353 867.751 92.3799C566.808 -20.995 226.708 -25.3023 -38.1433 57.0043C-250.677 123.033 -420.728 243.725 -503.239 401.379C-585.749 559.033 -577.247 753.44 -467.951 932.159C-391.036 1057.88 -170.671 1224.8 0.271858 1286.55C585.18 1497.82 884.399 1438.88 1062.12 1387.11Z" fill="#00BFFF"/>
</svg>
