<svg width="39" height="35" viewBox="0 0 39 35" fill="none" xmlns="http://www.w3.org/2000/svg">
<path d="M11.8374 24.5451C12.4751 23.9475 13.3117 23.9475 13.9494 24.5451C15.5431 26.0594 17.456 26.7765 19.4084 26.7765C21.361 26.7765 23.2736 26.0193 24.8674 24.5451C25.505 23.9475 26.3417 23.9475 26.9793 24.5451C30.1271 27.5336 34.7496 27.5336 37.8975 24.5451C38.4554 24.027 38.4554 23.1503 37.9373 22.5925C37.4192 22.0346 36.5425 22.0346 35.9847 22.5527C33.8728 24.5451 30.924 24.5451 28.8121 22.5527C27.0988 20.959 24.6281 20.959 22.9148 22.5527C20.8029 24.5451 17.8541 24.5451 15.7422 22.5527C14.0289 20.959 11.5582 20.959 9.8449 22.5527C7.73298 24.5451 4.7842 24.5451 2.67236 22.5527C2.11451 22.0346 1.23785 22.0747 0.719763 22.5925C0.201661 23.1503 0.241678 24.027 0.759509 24.5451C4.06713 27.5336 8.68986 27.5336 11.8378 24.5451H11.8374Z" fill="#00BFFF"/>
<path d="M36.0247 29.7676C33.9128 31.76 30.964 31.76 28.8522 29.7676C27.1389 28.1738 24.6681 28.1738 22.9548 29.7676C20.8429 31.76 17.8941 31.76 15.7823 29.7676C14.069 28.1738 11.5982 28.1738 9.88494 29.7676C7.77302 31.76 4.82424 31.76 2.7124 29.7676C2.15455 29.2495 1.27789 29.2895 0.759801 29.8073C0.241699 30.3652 0.281718 31.2418 0.799549 31.7599C3.94735 34.7485 8.5698 34.7485 11.7177 31.7599C12.3554 31.1623 13.192 31.1623 13.8297 31.7599C15.4234 33.2742 17.3363 33.9913 19.2887 33.9913C21.2413 33.9913 23.1539 33.2341 24.7477 31.7599C25.3853 31.1623 26.222 31.1623 26.8596 31.7599C30.0074 34.7485 34.6299 34.7485 37.7778 31.7599C38.3357 31.2418 38.3357 30.3651 37.8176 29.8073C37.4195 29.2495 36.5827 29.2097 36.0248 29.7676H36.0247Z" fill="#00BFFF"/>
<path d="M12.5153 18.6087C12.7944 19.3258 13.5912 19.6847 14.3084 19.4056C15.0255 19.1265 15.3843 18.3296 15.1052 17.6125C14.9059 17.1344 14.8262 16.5766 14.8262 16.0188C14.8262 13.4685 16.8983 11.4365 19.4085 11.4365C21.9587 11.4365 23.9908 13.5086 23.9908 16.0188C23.9908 16.5766 23.911 17.0947 23.7117 17.6125C23.4327 18.3296 23.7915 19.1268 24.5086 19.4056C24.6679 19.4854 24.8274 19.4854 24.9867 19.4854C25.5445 19.4854 26.0626 19.1666 26.2619 18.6087C26.5808 17.8119 26.74 16.9351 26.74 16.0585C26.74 11.994 23.4327 8.72656 19.4081 8.72656C15.3436 8.72656 12.0762 12.0339 12.0762 16.0585C12.0767 16.9351 12.236 17.8119 12.5151 18.6087L12.5153 18.6087Z" fill="#00BFFF"/>
<path d="M19.4085 6.61446C20.1656 6.61446 20.7632 6.01686 20.7632 5.25972V1.35474C20.7632 0.597569 20.1656 0 19.4085 0C18.6513 0 18.0537 0.597597 18.0537 1.35474V5.25972C18.0537 6.01689 18.6513 6.61446 19.4085 6.61446Z" fill="#00BFFF"/>
<path d="M10.8016 9.40386C11.0807 9.68293 11.4392 9.80245 11.758 9.80245C12.1166 9.80245 12.4751 9.68293 12.7144 9.40386C13.2325 8.88576 13.2325 8.00906 12.7144 7.45126L9.92516 4.66201C9.40706 4.14391 8.53035 4.14391 7.97256 4.66201C7.45446 5.18012 7.45446 6.05682 7.97256 6.61461L10.8016 9.40386Z" fill="#00BFFF"/>
<path d="M4.70514 17.4126H8.61012C9.36729 17.4126 9.96486 16.815 9.96486 16.0579C9.96486 15.3007 9.36726 14.7031 8.61012 14.7031H4.70514C3.94797 14.7031 3.3504 15.3007 3.3504 16.0579C3.31065 16.815 3.94799 17.4126 4.70514 17.4126Z" fill="#00BFFF"/>
<path d="M28.8115 16.0597C28.8115 16.8168 29.4091 17.4144 30.1663 17.4144H34.0712C34.8284 17.4144 35.426 16.8168 35.426 16.0597C35.426 15.3025 34.8284 14.7049 34.0712 14.7049H30.1663C29.4492 14.6649 28.8115 15.3025 28.8115 16.0597Z" fill="#00BFFF"/>
<path d="M27.0596 9.80245C27.4181 9.80245 27.7767 9.68293 28.016 9.40386L30.8052 6.61461C31.3233 6.09651 31.3233 5.21981 30.8052 4.66201C30.2871 4.14391 29.4104 4.14391 28.8526 4.66201L26.0634 7.45126C25.5453 7.96936 25.5453 8.84607 26.0634 9.40386C26.3424 9.64318 26.701 9.80245 27.0596 9.80245Z" fill="#00BFFF"/>
</svg>
