<svg width="81" height="50" viewBox="0 0 81 50" fill="none" xmlns="http://www.w3.org/2000/svg">
<path d="M65.7458 14.0692C67.725 14.4522 69.0115 16.3157 68.6156 18.2307L68.4405 19.0704C68.0371 21.0369 67.2911 22.9077 66.2482 24.6091H77.2098C79.227 24.6091 80.8636 26.1927 80.8636 28.1445C80.8636 29.5071 80.0644 30.693 78.8921 31.2822C79.7218 31.9304 80.2547 32.9247 80.2547 34.0369C80.2547 35.7604 78.9758 37.1966 77.2935 37.506C77.6285 38.0437 77.8188 38.6697 77.8188 39.34C77.8188 40.9088 76.7607 42.2419 75.2991 42.6986C75.3524 42.9417 75.3829 43.1994 75.3829 43.4646C75.3829 45.4164 73.7462 47 71.729 47H64.3071C62.8608 47 61.4526 46.5875 60.2498 45.8142L57.3192 43.9213C55.2867 42.6102 54.0688 40.4006 54.0688 38.0363V35.2153V31.6799V29.846C54.0688 27.6953 55.0812 25.6698 56.8091 24.3219L57.3724 23.8873C59.3897 22.3259 60.7675 20.131 61.2699 17.6857L61.445 16.846C61.8408 14.931 63.7667 13.6862 65.7458 14.0692ZM44.3252 25.7876H49.197C50.5443 25.7876 51.6329 26.8409 51.6329 28.1445V44.6431C51.6329 45.9467 50.5443 47 49.197 47H44.3252C42.9778 47 41.8893 45.9467 41.8893 44.6431V28.1445C41.8893 26.8409 42.9778 25.7876 44.3252 25.7876Z" fill="#FF7F50"/>
<path d="M21.3771 8.33398C19.0105 8.33398 16.697 9.01822 14.7292 10.3002C12.7615 11.5821 11.2278 13.4042 10.3221 15.536C9.41645 17.6678 9.17949 20.0136 9.6412 22.2767C10.1029 24.5398 11.2425 26.6186 12.916 28.2502C14.5894 29.8819 16.7215 30.993 19.0427 31.4432C21.3638 31.8933 23.7697 31.6623 25.9562 30.7793C28.1427 29.8962 30.0115 28.4009 31.3263 26.4823C32.6411 24.5637 33.3429 22.3081 33.3429 20.0007C33.3395 16.9075 32.0778 13.9419 29.8345 11.7547C27.5912 9.56752 24.5496 8.33729 21.3771 8.33398ZM21.3771 30.0007C19.3486 30.0007 17.3656 29.4142 15.6789 28.3154C13.9923 27.2166 12.6777 25.6548 11.9014 23.8275C11.1251 22.0002 10.922 19.9896 11.3178 18.0498C11.7135 16.1099 12.6903 14.3281 14.1247 12.9296C15.5591 11.5311 17.3866 10.5787 19.3762 10.1928C21.3657 9.80695 23.4279 10.005 25.3021 10.7619C27.1762 11.5187 28.778 12.8005 29.905 14.445C31.032 16.0894 31.6335 18.0228 31.6335 20.0007C31.6306 22.6519 30.549 25.1938 28.6262 27.0686C26.7034 28.9433 24.0964 29.9978 21.3771 30.0007Z" fill="#00BFFF"/>
<path d="M21.3754 15.8327C23.3318 15.8327 24.7942 16.7127 24.7942 17.4994C24.7942 17.7204 24.8843 17.9323 25.0445 18.0886C25.2048 18.2449 25.4222 18.3327 25.6489 18.3327C25.8756 18.3327 26.093 18.2449 26.2533 18.0886C26.4136 17.9323 26.5036 17.7204 26.5036 17.4994C26.5036 15.8202 24.684 14.4719 22.2301 14.2144V12.4993C22.2301 12.2783 22.1401 12.0664 21.9798 11.9101C21.8195 11.7538 21.6021 11.666 21.3754 11.666C21.1487 11.666 20.9313 11.7538 20.771 11.9101C20.6107 12.0664 20.5207 12.2783 20.5207 12.4993V14.2144C18.0669 14.4719 16.2472 15.8202 16.2472 17.4994C16.2472 19.3685 18.5002 20.8327 21.3754 20.8327C23.3318 20.8327 24.7942 21.7127 24.7942 22.4994C24.7942 23.286 23.3318 24.166 21.3754 24.166C19.419 24.166 17.9566 23.286 17.9566 22.4994C17.9566 22.2783 17.8665 22.0664 17.7063 21.9101C17.546 21.7538 17.3286 21.666 17.1019 21.666C16.8752 21.666 16.6578 21.7538 16.4975 21.9101C16.3372 22.0664 16.2472 22.2783 16.2472 22.4994C16.2472 24.1785 18.0669 25.5269 20.5207 25.7844V27.4994C20.5207 27.7204 20.6107 27.9323 20.771 28.0886C20.9313 28.2449 21.1487 28.3327 21.3754 28.3327C21.6021 28.3327 21.8195 28.2449 21.9798 28.0886C22.1401 27.9323 22.2301 27.7204 22.2301 27.4994V25.7844C24.684 25.5269 26.5036 24.1785 26.5036 22.4994C26.5036 20.6302 24.2506 19.166 21.3754 19.166C19.419 19.166 17.9566 18.286 17.9566 17.4994C17.9566 16.7127 19.419 15.8327 21.3754 15.8327Z" fill="#00BFFF"/>
<path d="M39.1274 15.8C38.3407 15.2003 37.6777 14.4605 37.1736 13.62C36.9005 12.6377 36.8221 11.6135 36.9428 10.6025C37.012 8.84668 37.0838 7.03084 35.8813 5.85834C34.6787 4.68584 32.8163 4.75667 31.0146 4.82334C29.9773 4.94058 28.9267 4.86394 27.9189 4.59751C27.0571 4.10553 26.2985 3.45918 25.683 2.6925C24.4983 1.43083 23.1556 0 21.3761 0C19.5966 0 18.2539 1.43083 17.0693 2.6925C16.4537 3.45918 15.6951 4.10553 14.8334 4.59751C13.8255 4.8636 12.7749 4.94024 11.7376 4.82334C9.93337 4.75417 8.0744 4.68501 6.87098 5.85751C5.66756 7.03001 5.74021 8.84668 5.81029 10.6025C5.93095 11.6135 5.85262 12.6377 5.57952 13.62C5.0753 14.4607 4.412 15.2005 3.62482 15.8C2.3308 16.9559 0.863281 18.265 0.863281 20C0.863281 21.735 2.3308 23.0442 3.62482 24.2C4.41155 24.7998 5.07453 25.5395 5.57867 26.38C5.85177 27.3624 5.93009 28.3865 5.80944 29.3975C5.74021 31.1534 5.66841 32.9692 6.87098 34.1417C8.07354 35.3142 9.93594 35.2442 11.7376 35.1767C12.1035 35.1625 12.4693 35.1534 12.8291 35.1517V49.1667C12.8291 49.3056 12.8646 49.4422 12.9326 49.5642C13.0005 49.6863 13.0986 49.7898 13.218 49.8655C13.3374 49.9412 13.4742 49.9866 13.6162 49.9975C13.7582 50.0085 13.9007 49.9848 14.0308 49.9284L21.3761 46.7451L28.7214 49.9284C28.8516 49.9848 28.9941 50.0085 29.136 49.9975C29.278 49.9866 29.4149 49.9412 29.5343 49.8655C29.6537 49.7898 29.7518 49.6863 29.8197 49.5642C29.8876 49.4422 29.9232 49.3056 29.9231 49.1667V35.1517C30.283 35.1517 30.6488 35.1625 31.0146 35.1767C32.818 35.2459 34.677 35.315 35.8813 34.1425C37.0855 32.97 37.012 31.1534 36.9419 29.3975C36.8213 28.3865 36.8996 27.3624 37.1727 26.38C37.6769 25.5393 38.3402 24.7996 39.1274 24.2C40.4214 23.0442 41.889 21.735 41.889 20C41.889 18.265 40.4214 16.9559 39.1274 15.8ZM28.2137 47.8842L21.7231 45.0717C21.6139 45.0244 21.4957 44.9999 21.3761 44.9999C21.2566 44.9999 21.1384 45.0244 21.0291 45.0717L14.5385 47.8842V35.3234C14.6382 35.3447 14.7366 35.3711 14.8334 35.4025C15.6951 35.8945 16.4537 36.5409 17.0693 37.3075C18.2539 38.5692 19.5966 40 21.3761 40C23.1556 40 24.4983 38.5692 25.683 37.3075C26.2985 36.5409 27.0571 35.8945 27.9189 35.4025C28.0156 35.371 28.114 35.3449 28.2137 35.3242V47.8842ZM37.9727 22.9675C36.9901 23.7194 36.1798 24.6635 35.5941 25.7392C35.2098 26.9412 35.0873 28.2083 35.2342 29.4592C35.2889 30.8575 35.3471 32.3034 34.6727 32.9592C33.9983 33.615 32.5146 33.5592 31.083 33.5059C29.7996 33.3627 28.4998 33.4825 27.2667 33.8575C26.1635 34.4286 25.1951 35.2186 24.424 36.1767C23.4274 37.24 22.4018 38.3334 21.3761 38.3334C20.3505 38.3334 19.3248 37.24 18.33 36.1817C17.5588 35.2236 16.5905 34.4336 15.4872 33.8625C14.671 33.5746 13.805 33.4444 12.9377 33.4792C12.518 33.4792 12.0924 33.495 11.6718 33.5109C10.2376 33.565 8.75388 33.6209 8.08209 32.9634C7.41029 32.3059 7.465 30.86 7.52055 29.4634C7.66727 28.2124 7.54442 26.9454 7.15987 25.7434C6.57471 24.6673 5.76435 23.7231 4.78123 22.9717C3.69405 22 2.57268 21 2.57268 20C2.57268 19 3.69405 18 4.77952 17.03C5.76218 16.2782 6.57245 15.334 7.15816 14.2583C7.54242 13.0563 7.66498 11.7892 7.51799 10.5383C7.46329 9.14001 7.40517 7.69417 8.07953 7.03834C8.75389 6.38251 10.2368 6.43667 11.6693 6.49167C12.9526 6.63432 14.2523 6.51455 15.4855 6.14001C16.5888 5.56894 17.5571 4.77893 18.3283 3.82084C19.3248 2.76 20.3505 1.66667 21.3761 1.66667C22.4018 1.66667 23.4274 2.76 24.4223 3.81834C25.1934 4.77643 26.1618 5.56644 27.265 6.13751C28.4979 6.51218 29.7974 6.63195 31.0804 6.48917C32.5154 6.43501 33.9984 6.37834 34.6701 7.03667C35.3419 7.69501 35.2872 9.14001 35.2317 10.5367C35.085 11.7876 35.2078 13.0547 35.5924 14.2567C36.1775 15.3327 36.9879 16.277 37.971 17.0284C39.0573 18 40.1796 19 40.1796 20C40.1796 21 39.0573 22 37.9727 22.97V22.9675Z" fill="#00BFFF"/>
</svg>
