<svg width="30" height="30" viewBox="0 0 30 30" fill="none" xmlns="http://www.w3.org/2000/svg">
<circle cx="15" cy="15" r="15" fill="white"/>
<path d="M21.1154 9.00894C20.0381 8.30651 19.2605 7.18262 19.018 5.87246C18.9656 5.5894 18.9368 5.29807 18.9368 5H15.4984L15.4929 18.78C15.435 20.3231 14.165 21.5616 12.608 21.5616C12.1241 21.5616 11.6685 21.4406 11.2673 21.2295C10.3473 20.7454 9.71771 19.781 9.71771 18.6713C9.71771 17.0775 11.0144 15.7808 12.608 15.7808C12.9055 15.7808 13.1909 15.8299 13.4609 15.9145V12.4042C13.1815 12.3662 12.8977 12.3424 12.608 12.3424C9.11829 12.3424 6.2793 15.1816 6.2793 18.6713C6.2793 20.8124 7.34905 22.7072 8.98108 23.853C10.0091 24.5747 11.2595 25 12.608 25C16.0978 25 18.9368 22.161 18.9368 18.6713V11.6837C20.2854 12.6516 21.9376 13.222 23.7205 13.222V9.7836C22.7601 9.7836 21.8656 9.49808 21.1154 9.00894Z" fill="#666666"/>
</svg>
