<svg width="1440" height="1269" viewBox="0 0 1440 1269" fill="none" xmlns="http://www.w3.org/2000/svg">
<path opacity="0.1" d="M1419.49 1225.4C1583.46 1176.8 1699.81 1077.89 1743.02 950.342C1776.62 848.68 1754.14 721.731 1641.67 630.068C1585.56 584.4 1506.9 545.245 1487.11 489.624C1468.08 435.874 1514.03 391.632 1520.36 340.134C1526.68 288.637 1492 231.756 1439.38 186.964C1386.75 142.171 1318.21 108.518 1247.85 82.0491C982.095 -18.0694 681.76 -21.8731 447.877 50.8098C260.194 109.118 110.026 215.699 37.1629 354.919C-35.7003 494.139 -28.1922 665.815 68.3247 823.637C136.246 934.658 330.845 1082.06 481.8 1136.59C998.319 1323.16 1262.55 1271.11 1419.49 1225.4Z" fill="#00BFFF"/>
</svg>
