<svg width="45" height="40" viewBox="0 0 45 40" fill="none" xmlns="http://www.w3.org/2000/svg">
<path d="M18.75 0C16.6797 0 15 1.67969 15 3.75V5H11.25C9.17969 5 7.5 6.67969 7.5 8.75V18.5391L4.89844 19.3828C2.17969 20.2578 1.40625 23.7344 3.48438 25.6875L10.3906 32.1641C10.8906 32.6328 11.6875 32.6094 12.1562 32.1094C12.625 31.6094 12.6016 30.8125 12.1016 30.3438L5.19531 23.8594C4.5 23.2109 4.75781 22.0547 5.66406 21.7578L21.25 16.7188V30C21.25 30.6875 21.8125 31.25 22.5 31.25C23.1875 31.25 23.75 30.6875 23.75 30V16.7188L39.3359 21.7578C40.2422 22.0547 40.5 23.2109 39.8047 23.8594L32.8984 30.3359C32.3984 30.8047 32.3672 31.6016 32.8438 32.1016C33.3203 32.6016 34.1094 32.6328 34.6094 32.1562L41.5156 25.6797C43.6016 23.7266 42.8203 20.2578 40.1016 19.375L37.5 18.5391V8.75C37.5 6.67969 35.8203 5 33.75 5H30V3.75C30 1.67969 28.3203 0 26.25 0H18.75ZM27.5 5H17.5V3.75C17.5 3.0625 18.0625 2.5 18.75 2.5H26.25C26.9375 2.5 27.5 3.0625 27.5 3.75V5ZM15 7.5H16.25H28.75H30H33.75C34.4375 7.5 35 8.0625 35 8.75V17.7266L23.6562 14.0625C22.9062 13.8203 22.1016 13.8203 21.3438 14.0625L10 17.7266V8.75C10 8.0625 10.5625 7.5 11.25 7.5H15ZM10.4531 35.8438C9.69531 35.3281 9.04688 34.75 8.42969 34.1328C7.91406 33.625 7.08594 33.625 6.57031 34.1328C5.95312 34.75 5.3125 35.3203 4.54688 35.8438C3.54688 36.5234 2.35156 37.1406 1.10938 37.3906C0.5 37.5078 0 38 0 38.6094C0 39.375 0.625 40.0078 1.38281 39.875C3.1875 39.5625 4.78906 38.7031 5.95312 37.9062C6.57031 37.4844 7.09375 37.0625 7.5 36.7109C7.89844 37.0625 8.42969 37.4844 9.04688 37.9062C10.5 38.8984 12.6328 40 15 40C17.3672 40 19.4922 38.8984 20.9531 37.9062C21.5703 37.4844 22.0938 37.0625 22.5 36.7109C22.8984 37.0625 23.4297 37.4844 24.0469 37.9062C25.5 38.8984 27.6328 40 30 40C32.3672 40 34.4922 38.8984 35.9531 37.9062C36.5703 37.4844 37.0938 37.0625 37.5 36.7109C37.8984 37.0625 38.4297 37.4844 39.0469 37.9062C40.2188 38.7031 41.8125 39.5625 43.6172 39.875C44.375 40.0078 45 39.375 45 38.6094C45 37.9922 44.5 37.5078 43.8984 37.3828C42.6484 37.1406 41.4531 36.5156 40.4531 35.8359C39.6875 35.3125 39.0469 34.7422 38.4219 34.125C37.9062 33.6172 37.0781 33.6172 36.5703 34.125C35.9531 34.7422 35.3125 35.3125 34.5469 35.8359C33.25 36.7188 31.6328 37.5 30 37.5C28.3672 37.5 26.7422 36.7266 25.4531 35.8438C24.6875 35.3203 24.0469 34.75 23.4219 34.1328C22.9062 33.625 22.0781 33.625 21.5703 34.1328C20.9531 34.75 20.3125 35.3203 19.5469 35.8438C18.25 36.7188 16.6328 37.5 15 37.5C13.3672 37.5 11.7422 36.7266 10.4531 35.8438Z" fill="#666666"/>
</svg>
