<svg width="80" height="58" viewBox="0 0 80 58" fill="none" xmlns="http://www.w3.org/2000/svg">
<path d="M42.0188 33.7557V33.4107V22.7774C42.0188 20.2718 40.0135 18.2481 37.5602 18.2481H34.0183C27.7064 18.2479 26.5504 18.248 23.9998 18.248C22.5394 18.248 20.6219 18.2481 17.0175 18.2481H13.4757C11.0224 18.2481 9.01708 20.2718 9.01708 22.7774V33.4107V33.7557L8.69464 33.8782L6.40163 34.7492C3.37023 35.9032 2.51763 39.86 4.81747 42.193L42.0188 33.7557ZM42.0188 33.7557L42.3412 33.8782L44.6342 34.7492C47.6657 35.9032 48.5183 39.8603 46.2181 42.1932L46.2179 42.1935L40.1262 48.3811C39.4886 49.0277 38.4646 49.0249 37.8384 48.383C37.201 47.7295 37.2001 46.6772 37.8347 46.0405L37.8365 46.0386L43.9374 39.8508C44.5468 39.2327 44.3364 38.1668 43.5103 37.8556C43.5099 37.8555 43.5096 37.8553 43.5092 37.8552L25.9493 31.1764C25.9482 31.176 25.9471 31.1755 25.9461 31.1751C25.6707 31.0674 25.3651 31.0674 25.0898 31.1751L7.54434 37.8462C7.54408 37.8463 7.54382 37.8464 7.54356 37.8465C6.72814 38.1535 6.48852 39.217 7.11798 39.8436L13.2079 46.0294L13.2082 46.0296C13.8496 46.6802 13.8469 47.7311 13.21 48.3702C12.5696 49.0128 11.5442 49.0135 10.9204 48.374L10.9183 48.3718L4.81772 42.1932L42.0188 33.7557ZM12.2673 31.7942V32.5192L12.945 32.2615L23.9513 28.0765L23.9525 28.076C24.9618 27.6891 26.0651 27.6891 27.0745 28.076L27.0758 28.0765L38.091 32.2616L38.7686 32.519V31.7942V22.7774C38.7686 22.1128 38.2326 21.5589 37.5602 21.5589H13.4757C12.8033 21.5589 12.2673 22.1128 12.2673 22.7774V31.7942ZM24.4221 51.0029L24.4221 51.0029L24.4274 50.9982C25.0428 50.4426 25.9664 50.4426 26.5819 50.9982L26.5818 50.9982L26.588 51.0036C28.5518 52.7188 31.2854 54.1716 34.0006 54.1716C36.7154 54.1716 39.458 52.7192 41.4141 51.0029L41.4141 51.0029L41.4194 50.9982C42.0346 50.4428 42.9577 50.4426 43.5732 50.9976C45.131 52.4093 47.1908 53.5014 49.2245 53.9702L49.2257 53.9705C50.0957 54.1688 50.6588 55.0493 50.46 55.9531C50.2617 56.8547 49.3931 57.4054 48.5174 57.2073L48.5174 57.2073C46.0669 56.6531 44.039 55.4277 42.787 54.5547L42.4997 54.3543L42.2133 54.5559C39.7758 56.2716 36.9267 57.5003 34.0006 57.5003C31.0746 57.5003 28.2255 56.2716 25.788 54.5559L25.5002 54.3534L25.2124 54.5559C22.7749 56.2716 19.9259 57.5003 16.9998 57.5003C14.0737 57.5003 11.2246 56.2716 8.78716 54.5559L8.49927 54.3533L8.21145 54.556C6.96232 55.4359 4.93431 56.6529 2.48305 57.2073L2.4822 57.2075C1.61537 57.4052 0.738599 56.8542 0.540412 55.9531C0.341189 55.0473 0.897832 54.1689 1.77396 53.9706L1.77497 53.9704C3.83204 53.5005 5.83566 52.3973 7.41266 51.0116L7.41269 51.0117L7.4177 51.0072C8.03314 50.4515 8.95676 50.4515 9.5722 51.0072L9.82709 51.2373L9.85332 51.224C11.7884 52.8421 14.4112 54.1716 17.0086 54.1716C19.7235 54.1716 22.4661 52.7192 24.4221 51.0029Z" fill="#00BFFF" stroke="white"/>
<path d="M62.5 0C65.0156 0 67.2031 1.41504 68.3037 3.49316C70.5527 2.80273 73.0957 3.34961 74.873 5.12695C76.6504 6.9043 77.1973 9.4541 76.5068 11.6963C78.585 12.7969 80 14.9844 80 17.5C80 20.0156 78.585 22.2031 76.5068 23.3037C77.1973 25.5527 76.6504 28.0957 74.873 29.873C73.0957 31.6504 70.5459 32.1973 68.3037 31.5068C67.2031 33.585 65.0156 35 62.5 35C59.9844 35 57.7969 33.585 56.6963 31.5068C54.4473 32.1973 51.9043 31.6504 50.127 29.873C48.3496 28.0957 47.8027 25.5459 48.4932 23.3037C46.415 22.2031 45 20.0156 45 17.5C45 14.9844 46.415 12.7969 48.4932 11.6963C47.8027 9.44727 48.3496 6.9043 50.127 5.12695C51.9043 3.34961 54.4541 2.80273 56.6963 3.49316C57.7969 1.41504 59.9844 0 62.5 0ZM70.2246 14.2871C70.8672 13.6445 70.8672 12.6055 70.2246 11.9697C69.582 11.334 68.543 11.3271 67.9072 11.9697L60.3193 19.5576L57.1064 16.3447C56.4639 15.7021 55.4248 15.7021 54.7891 16.3447C54.1533 16.9873 54.1465 18.0264 54.7891 18.6621L59.1641 23.0371C59.8066 23.6797 60.8457 23.6797 61.4814 23.0371L70.2246 14.2871Z" fill="#FF7F50"/>
</svg>
