<svg width="30" height="30" viewBox="0 0 30 30" fill="none" xmlns="http://www.w3.org/2000/svg">
<circle cx="15" cy="15" r="15" fill="white"/>
<path d="M15.0377 6.29102C10.0976 6.29102 6.07723 10.1633 6.07548 14.9223C6.07432 16.4442 6.48774 17.9295 7.27161 19.2377L6 23.7104L10.7514 22.5102C12.0731 23.2015 13.5427 23.5622 15.0343 23.5611H15.0377C19.9779 23.5611 23.9983 19.6882 24 14.9293C24.0012 12.6241 23.0698 10.4542 21.3772 8.82321C19.6852 7.1916 17.4352 6.2916 15.0377 6.29102ZM15.0377 22.1031H15.0348C13.6982 22.1031 12.3871 21.7571 11.2432 21.1033L10.9703 20.9477L8.15187 21.6595L8.90439 19.0118L8.72729 18.7406C7.98343 17.6061 7.58745 16.2789 7.58806 14.9223C7.58981 10.9664 10.932 7.74902 15.0406 7.74902C17.0299 7.7496 18.9002 8.49689 20.3071 9.85269C21.714 11.2085 22.488 13.0114 22.4868 14.9287C22.4851 18.8846 19.1435 22.1031 15.0372 22.1031H15.0377ZM19.1237 16.7293C18.8996 16.6219 17.7987 16.0999 17.5932 16.0273C17.3882 15.9559 17.239 15.9187 17.0897 16.1347C16.9411 16.3507 16.5114 16.8367 16.3814 16.9801C16.2501 17.1241 16.1195 17.1415 15.8954 17.0341C15.6712 16.9261 14.9495 16.6985 14.0948 15.9634C13.4288 15.392 12.9794 14.686 12.8487 14.4694C12.7181 14.254 12.8348 14.1373 12.9468 14.0299C13.0473 13.934 13.171 13.7784 13.2825 13.6524C13.3939 13.5264 13.4311 13.4364 13.5066 13.2924C13.5809 13.149 13.5437 13.0224 13.4874 12.915C13.4311 12.8064 12.984 11.745 12.7965 11.3136C12.6153 10.8932 12.4306 10.9495 12.293 10.9426C12.1624 10.9368 12.0137 10.935 11.8634 10.935C11.7153 10.935 11.472 10.989 11.2665 11.205C11.0615 11.421 10.4826 11.9424 10.4826 13.0039C10.4826 14.0659 11.285 15.0913 11.3971 15.2353C11.5092 15.3787 12.9765 17.5579 15.223 18.4927C15.7572 18.7139 16.1741 18.8469 16.4998 18.9468C17.0363 19.1111 17.5246 19.0873 17.9102 19.0321C18.3399 18.97 19.2352 18.5107 19.421 18.0073C19.608 17.5039 19.608 17.0719 19.5523 16.9819C19.4977 16.8919 19.3479 16.8379 19.1237 16.7293Z" fill="#666666"/>
</svg>
